<svg width="1526" height="354" viewBox="0 0 1526 354" fill="none" xmlns="http://www.w3.org/2000/svg">
<rect x="0.5" y="0.5" width="1525" height="352.186" rx="15.5" fill="white"/>
<rect x="0.5" y="0.5" width="1525" height="352.186" rx="15.5" stroke="#CCCDCB"/>
<rect x="113" y="96" width="175.903" height="161.186" rx="16.8194" fill="#F1DBFB"/>
<path d="M158.5 172.593V160.819H162.873C163.703 160.819 164.437 160.988 165.076 161.324C165.715 161.649 166.214 162.109 166.573 162.703C166.932 163.286 167.111 163.965 167.111 164.738C167.111 165.501 166.938 166.179 166.59 166.774C166.242 167.368 165.766 167.839 165.16 168.186C164.555 168.523 163.854 168.691 163.058 168.691H160.804V172.593H158.5ZM160.804 166.572H163.007C163.523 166.572 163.944 166.403 164.269 166.067C164.605 165.719 164.774 165.277 164.774 164.738C164.774 164.2 164.588 163.763 164.218 163.426C163.86 163.09 163.394 162.922 162.822 162.922H160.804V166.572ZM171.615 172.795C170.785 172.795 170.051 172.61 169.412 172.24C168.773 171.859 168.268 171.337 167.898 170.676C167.539 170.014 167.36 169.252 167.36 168.388C167.36 167.525 167.545 166.762 167.915 166.101C168.296 165.439 168.812 164.923 169.462 164.553C170.124 164.172 170.881 163.981 171.733 163.981C172.473 163.981 173.151 164.178 173.768 164.57C174.396 164.951 174.895 165.518 175.265 166.269C175.646 167.009 175.837 167.912 175.837 168.977H169.681C169.737 169.537 169.978 169.986 170.404 170.322C170.83 170.648 171.312 170.81 171.851 170.81C172.31 170.81 172.686 170.715 172.978 170.524C173.269 170.322 173.493 170.064 173.65 169.751L175.635 170.524C175.4 170.995 175.091 171.404 174.71 171.752C174.34 172.088 173.897 172.346 173.381 172.526C172.865 172.705 172.277 172.795 171.615 172.795ZM169.799 167.329H173.432C173.398 166.981 173.286 166.701 173.095 166.488C172.905 166.275 172.68 166.118 172.423 166.017C172.165 165.916 171.912 165.865 171.666 165.865C171.43 165.865 171.172 165.916 170.892 166.017C170.623 166.106 170.382 166.258 170.169 166.471C169.967 166.684 169.844 166.97 169.799 167.329ZM179.936 172.795C179.398 172.795 178.893 172.716 178.422 172.559C177.951 172.391 177.536 172.156 177.178 171.853C176.819 171.539 176.538 171.158 176.337 170.709L178.237 169.835C178.405 170.104 178.635 170.339 178.927 170.541C179.218 170.732 179.555 170.827 179.936 170.827C180.306 170.827 180.592 170.777 180.794 170.676C180.996 170.563 181.096 170.406 181.096 170.205C181.096 170.003 181.012 169.857 180.844 169.767C180.687 169.666 180.469 169.582 180.188 169.515L179.415 169.313C178.607 169.1 177.968 168.764 177.497 168.304C177.037 167.833 176.808 167.295 176.808 166.689C176.808 165.826 177.082 165.159 177.632 164.688C178.192 164.217 178.983 163.981 180.003 163.981C180.53 163.981 181.018 164.06 181.467 164.217C181.926 164.374 182.319 164.593 182.644 164.873C182.969 165.153 183.193 165.478 183.317 165.848L181.483 166.689C181.405 166.465 181.214 166.286 180.911 166.151C180.609 166.005 180.306 165.933 180.003 165.933C179.7 165.933 179.465 166 179.297 166.134C179.14 166.258 179.061 166.432 179.061 166.656C179.061 166.802 179.14 166.925 179.297 167.026C179.454 167.115 179.678 167.194 179.97 167.261L181.063 167.53C181.612 167.665 182.05 167.884 182.375 168.186C182.711 168.478 182.952 168.809 183.098 169.179C183.255 169.537 183.333 169.891 183.333 170.238C183.333 170.743 183.182 171.191 182.879 171.584C182.588 171.965 182.184 172.262 181.668 172.475C181.164 172.688 180.586 172.795 179.936 172.795ZM190.176 175.957V171.449C189.896 171.875 189.542 172.206 189.116 172.442C188.69 172.677 188.197 172.795 187.636 172.795C186.863 172.795 186.19 172.615 185.618 172.257C185.057 171.898 184.62 171.388 184.306 170.726C183.992 170.064 183.835 169.285 183.835 168.388C183.835 167.48 183.992 166.701 184.306 166.05C184.62 165.389 185.057 164.879 185.618 164.52C186.19 164.161 186.863 163.981 187.636 163.981C188.208 163.981 188.713 164.105 189.15 164.352C189.587 164.598 189.94 164.94 190.21 165.377L190.294 164.183H192.396V175.957H190.176ZM188.208 170.76C188.589 170.76 188.926 170.659 189.217 170.457C189.52 170.255 189.755 169.975 189.924 169.616C190.092 169.257 190.176 168.848 190.176 168.388C190.176 167.928 190.092 167.519 189.924 167.16C189.755 166.802 189.52 166.527 189.217 166.336C188.926 166.134 188.584 166.033 188.191 166.033C187.788 166.033 187.434 166.134 187.132 166.336C186.829 166.527 186.588 166.802 186.408 167.16C186.229 167.519 186.139 167.928 186.139 168.388C186.139 168.848 186.229 169.257 186.408 169.616C186.588 169.975 186.829 170.255 187.132 170.457C187.446 170.659 187.804 170.76 188.208 170.76ZM196.9 172.795C196.228 172.795 195.656 172.66 195.185 172.391C194.725 172.122 194.372 171.707 194.125 171.147C193.878 170.575 193.755 169.84 193.755 168.943V164.183H195.975V168.489C195.975 169.05 196.037 169.493 196.16 169.818C196.295 170.132 196.48 170.362 196.715 170.507C196.962 170.642 197.237 170.709 197.539 170.709C198.122 170.72 198.565 170.547 198.868 170.188C199.171 169.818 199.322 169.285 199.322 168.59V164.183H201.542V172.593H199.457L199.373 171.449C199.092 171.875 198.739 172.206 198.313 172.442C197.898 172.677 197.427 172.795 196.9 172.795ZM203.264 172.593V164.183H205.484V172.593H203.264ZM204.374 162.821C204.038 162.821 203.741 162.698 203.483 162.451C203.225 162.193 203.096 161.89 203.096 161.543C203.096 161.195 203.225 160.898 203.483 160.651C203.741 160.393 204.038 160.264 204.374 160.264C204.722 160.264 205.019 160.393 205.266 160.651C205.523 160.898 205.652 161.195 205.652 161.543C205.652 161.89 205.523 162.193 205.266 162.451C205.019 162.698 204.722 162.821 204.374 162.821ZM210.34 172.795C209.802 172.795 209.298 172.716 208.827 172.559C208.356 172.391 207.941 172.156 207.582 171.853C207.223 171.539 206.943 171.158 206.741 170.709L208.642 169.835C208.81 170.104 209.04 170.339 209.331 170.541C209.623 170.732 209.959 170.827 210.34 170.827C210.71 170.827 210.996 170.777 211.198 170.676C211.4 170.563 211.501 170.406 211.501 170.205C211.501 170.003 211.417 169.857 211.249 169.767C211.092 169.666 210.873 169.582 210.593 169.515L209.819 169.313C209.012 169.1 208.372 168.764 207.901 168.304C207.442 167.833 207.212 167.295 207.212 166.689C207.212 165.826 207.487 165.159 208.036 164.688C208.597 164.217 209.387 163.981 210.408 163.981C210.935 163.981 211.422 164.06 211.871 164.217C212.331 164.374 212.723 164.593 213.048 164.873C213.373 165.153 213.598 165.478 213.721 165.848L211.888 166.689C211.809 166.465 211.619 166.286 211.316 166.151C211.013 166.005 210.71 165.933 210.408 165.933C210.105 165.933 209.869 166 209.701 166.134C209.544 166.258 209.466 166.432 209.466 166.656C209.466 166.802 209.544 166.925 209.701 167.026C209.858 167.115 210.082 167.194 210.374 167.261L211.467 167.53C212.017 167.665 212.454 167.884 212.779 168.186C213.116 168.478 213.357 168.809 213.502 169.179C213.659 169.537 213.738 169.891 213.738 170.238C213.738 170.743 213.586 171.191 213.284 171.584C212.992 171.965 212.589 172.262 212.073 172.475C211.568 172.688 210.991 172.795 210.34 172.795ZM217.418 172.795C216.409 172.795 215.624 172.571 215.064 172.122C214.514 171.674 214.239 171.04 214.239 170.221C214.239 169.324 214.537 168.652 215.131 168.203C215.736 167.743 216.583 167.514 217.671 167.514H219.655C219.577 166.998 219.414 166.605 219.167 166.336C218.921 166.056 218.568 165.916 218.108 165.916C217.749 165.916 217.424 165.994 217.132 166.151C216.841 166.308 216.594 166.549 216.392 166.874L214.441 166.202C214.598 165.843 214.828 165.495 215.131 165.159C215.434 164.811 215.826 164.531 216.308 164.318C216.802 164.094 217.401 163.981 218.108 163.981C218.96 163.981 219.666 164.144 220.227 164.469C220.799 164.794 221.219 165.254 221.489 165.848C221.769 166.432 221.903 167.127 221.892 167.934L221.842 172.593H219.773L219.739 171.617C219.526 171.999 219.224 172.29 218.831 172.492C218.45 172.694 217.979 172.795 217.418 172.795ZM217.788 170.945C218.147 170.945 218.472 170.861 218.764 170.692C219.055 170.524 219.285 170.306 219.453 170.036C219.622 169.767 219.706 169.487 219.706 169.195V169.162H218.444C217.715 169.162 217.211 169.252 216.93 169.431C216.65 169.599 216.51 169.84 216.51 170.154C216.51 170.401 216.622 170.597 216.846 170.743C217.071 170.877 217.385 170.945 217.788 170.945ZM230.344 172.795C229.57 172.795 228.897 172.615 228.325 172.257C227.765 171.898 227.327 171.388 227.013 170.726C226.7 170.064 226.543 169.285 226.543 168.388C226.543 167.48 226.7 166.701 227.013 166.05C227.327 165.389 227.765 164.879 228.325 164.52C228.897 164.161 229.57 163.981 230.344 163.981C230.893 163.981 231.381 164.099 231.807 164.335C232.244 164.559 232.598 164.884 232.867 165.31V160.819H235.087V172.593H232.984L232.917 171.416C232.637 171.853 232.278 172.195 231.841 172.442C231.403 172.677 230.904 172.795 230.344 172.795ZM230.916 170.76C231.286 170.76 231.611 170.67 231.891 170.491C232.183 170.3 232.412 170.036 232.581 169.7C232.749 169.364 232.844 168.982 232.867 168.556V168.22C232.844 167.794 232.749 167.418 232.581 167.093C232.412 166.757 232.183 166.499 231.891 166.319C231.6 166.129 231.269 166.033 230.899 166.033C230.495 166.033 230.136 166.134 229.822 166.336C229.52 166.527 229.278 166.802 229.099 167.16C228.931 167.519 228.847 167.928 228.847 168.388C228.847 168.848 228.936 169.257 229.116 169.616C229.295 169.975 229.536 170.255 229.839 170.457C230.153 170.659 230.512 170.76 230.916 170.76ZM240.464 172.795C239.635 172.795 238.9 172.61 238.261 172.24C237.622 171.859 237.117 171.337 236.747 170.676C236.388 170.014 236.209 169.252 236.209 168.388C236.209 167.525 236.394 166.762 236.764 166.101C237.145 165.439 237.661 164.923 238.312 164.553C238.973 164.172 239.73 163.981 240.582 163.981C241.322 163.981 242.001 164.178 242.617 164.57C243.245 164.951 243.744 165.518 244.114 166.269C244.495 167.009 244.686 167.912 244.686 168.977H238.53C238.586 169.537 238.827 169.986 239.253 170.322C239.679 170.648 240.162 170.81 240.7 170.81C241.16 170.81 241.535 170.715 241.827 170.524C242.118 170.322 242.343 170.064 242.5 169.751L244.484 170.524C244.249 170.995 243.94 171.404 243.559 171.752C243.189 172.088 242.746 172.346 242.23 172.526C241.715 172.705 241.126 172.795 240.464 172.795ZM238.648 167.329H242.281C242.247 166.981 242.135 166.701 241.945 166.488C241.754 166.275 241.53 166.118 241.272 166.017C241.014 165.916 240.762 165.865 240.515 165.865C240.279 165.865 240.021 165.916 239.741 166.017C239.472 166.106 239.231 166.258 239.018 166.471C238.816 166.684 238.693 166.97 238.648 167.329ZM168.779 192.593V184.183H170.865L170.966 185.277C171.224 184.85 171.555 184.531 171.958 184.318C172.362 184.094 172.811 183.981 173.304 183.981C173.988 183.981 174.56 184.127 175.019 184.419C175.49 184.71 175.832 185.159 176.045 185.764C176.292 185.192 176.64 184.755 177.088 184.452C177.537 184.138 178.058 183.981 178.652 183.981C179.639 183.981 180.39 184.295 180.906 184.923C181.422 185.54 181.68 186.493 181.68 187.783V192.593H179.46V188.287C179.46 187.715 179.398 187.272 179.275 186.959C179.151 186.645 178.983 186.42 178.77 186.286C178.557 186.14 178.305 186.067 178.013 186.067C177.475 186.056 177.06 186.23 176.769 186.588C176.477 186.947 176.331 187.48 176.331 188.186V192.593H174.111V188.287C174.111 187.715 174.05 187.272 173.926 186.959C173.814 186.645 173.646 186.42 173.422 186.286C173.209 186.14 172.956 186.067 172.665 186.067C172.127 186.056 171.712 186.23 171.42 186.588C171.14 186.947 171 187.48 171 188.186V192.593H168.779ZM186.912 192.795C186.082 192.795 185.348 192.61 184.709 192.24C184.07 191.859 183.565 191.337 183.195 190.676C182.836 190.014 182.657 189.252 182.657 188.388C182.657 187.525 182.842 186.762 183.212 186.101C183.593 185.439 184.109 184.923 184.759 184.553C185.421 184.172 186.178 183.981 187.03 183.981C187.77 183.981 188.448 184.178 189.065 184.57C189.693 184.951 190.192 185.518 190.562 186.269C190.943 187.009 191.134 187.912 191.134 188.977H184.978C185.034 189.537 185.275 189.986 185.701 190.322C186.127 190.648 186.609 190.81 187.147 190.81C187.607 190.81 187.983 190.715 188.274 190.524C188.566 190.322 188.79 190.064 188.947 189.751L190.932 190.524C190.696 190.995 190.388 191.404 190.007 191.752C189.637 192.088 189.194 192.346 188.678 192.526C188.162 192.705 187.574 192.795 186.912 192.795ZM185.095 187.329H188.728C188.695 186.981 188.583 186.701 188.392 186.488C188.201 186.275 187.977 186.118 187.719 186.017C187.461 185.916 187.209 185.865 186.962 185.865C186.727 185.865 186.469 185.916 186.189 186.017C185.92 186.106 185.679 186.258 185.466 186.471C185.264 186.684 185.14 186.97 185.095 187.329ZM192.088 192.593V184.183H194.308V185.731C194.655 185.204 195.093 184.811 195.62 184.553C196.158 184.284 196.713 184.15 197.285 184.15V186.303C196.769 186.303 196.281 186.364 195.821 186.488C195.373 186.611 195.008 186.813 194.728 187.093C194.448 187.373 194.308 187.732 194.308 188.17V192.593H192.088ZM202.178 192.795C201.303 192.795 200.524 192.61 199.84 192.24C199.156 191.859 198.623 191.337 198.242 190.676C197.861 190.003 197.67 189.24 197.67 188.388C197.67 187.525 197.861 186.762 198.242 186.101C198.623 185.439 199.15 184.923 199.823 184.553C200.496 184.172 201.269 183.981 202.144 183.981C202.985 183.981 203.753 184.189 204.448 184.604C205.143 185.019 205.648 185.619 205.962 186.403L203.876 187.144C203.719 186.818 203.473 186.56 203.136 186.37C202.811 186.168 202.447 186.067 202.043 186.067C201.628 186.067 201.264 186.168 200.95 186.37C200.636 186.56 200.389 186.83 200.21 187.177C200.03 187.525 199.941 187.928 199.941 188.388C199.941 188.848 200.03 189.252 200.21 189.599C200.389 189.936 200.641 190.205 200.967 190.406C201.292 190.608 201.662 190.709 202.077 190.709C202.48 190.709 202.845 190.603 203.17 190.39C203.506 190.177 203.753 189.896 203.91 189.549L206.012 190.289C205.687 191.085 205.177 191.702 204.482 192.139C203.798 192.576 203.03 192.795 202.178 192.795ZM209.694 192.795C208.685 192.795 207.9 192.571 207.339 192.122C206.79 191.674 206.515 191.04 206.515 190.221C206.515 189.324 206.812 188.652 207.407 188.203C208.012 187.743 208.859 187.514 209.946 187.514H211.931C211.853 186.998 211.69 186.605 211.443 186.336C211.197 186.056 210.843 185.916 210.384 185.916C210.025 185.916 209.7 185.994 209.408 186.151C209.117 186.308 208.87 186.549 208.668 186.874L206.717 186.202C206.874 185.843 207.104 185.495 207.407 185.159C207.709 184.811 208.102 184.531 208.584 184.318C209.077 184.094 209.677 183.981 210.384 183.981C211.236 183.981 211.942 184.144 212.503 184.469C213.075 184.794 213.495 185.254 213.764 185.848C214.045 186.432 214.179 187.127 214.168 187.934L214.118 192.593H212.049L212.015 191.617C211.802 191.999 211.499 192.29 211.107 192.492C210.726 192.694 210.255 192.795 209.694 192.795ZM210.064 190.945C210.423 190.945 210.748 190.861 211.04 190.692C211.331 190.524 211.561 190.306 211.729 190.036C211.897 189.767 211.982 189.487 211.982 189.195V189.162H210.72C209.991 189.162 209.487 189.252 209.206 189.431C208.926 189.599 208.786 189.84 208.786 190.154C208.786 190.401 208.898 190.597 209.122 190.743C209.347 190.877 209.661 190.945 210.064 190.945ZM218.948 192.795C218.175 192.795 217.502 192.615 216.93 192.257C216.369 191.898 215.932 191.388 215.618 190.726C215.304 190.064 215.147 189.285 215.147 188.388C215.147 187.48 215.304 186.701 215.618 186.05C215.932 185.389 216.369 184.879 216.93 184.52C217.502 184.161 218.175 183.981 218.948 183.981C219.498 183.981 219.985 184.099 220.412 184.335C220.849 184.559 221.202 184.884 221.471 185.31V180.819H223.691V192.593H221.589L221.522 191.416C221.241 191.853 220.882 192.195 220.445 192.442C220.008 192.677 219.509 192.795 218.948 192.795ZM219.52 190.76C219.89 190.76 220.215 190.67 220.496 190.491C220.787 190.3 221.017 190.036 221.185 189.7C221.353 189.364 221.449 188.982 221.471 188.556V188.22C221.449 187.794 221.353 187.418 221.185 187.093C221.017 186.757 220.787 186.499 220.496 186.319C220.204 186.129 219.873 186.033 219.503 186.033C219.1 186.033 218.741 186.134 218.427 186.336C218.124 186.527 217.883 186.802 217.704 187.16C217.535 187.519 217.451 187.928 217.451 188.388C217.451 188.848 217.541 189.257 217.72 189.616C217.9 189.975 218.141 190.255 218.444 190.457C218.758 190.659 219.116 190.76 219.52 190.76ZM229.22 192.795C228.368 192.795 227.606 192.61 226.933 192.24C226.271 191.859 225.75 191.337 225.369 190.676C224.999 190.014 224.814 189.252 224.814 188.388C224.814 187.525 224.999 186.762 225.369 186.101C225.739 185.439 226.254 184.923 226.916 184.553C227.578 184.172 228.334 183.981 229.187 183.981C230.05 183.981 230.813 184.172 231.474 184.553C232.136 184.923 232.651 185.439 233.021 186.101C233.392 186.762 233.577 187.525 233.577 188.388C233.577 189.252 233.392 190.014 233.021 190.676C232.651 191.337 232.136 191.859 231.474 192.24C230.824 192.61 230.072 192.795 229.22 192.795ZM229.22 190.743C229.635 190.743 230 190.642 230.314 190.44C230.628 190.238 230.869 189.964 231.037 189.616C231.216 189.257 231.306 188.848 231.306 188.388C231.306 187.928 231.216 187.525 231.037 187.177C230.857 186.818 230.605 186.538 230.28 186.336C229.966 186.134 229.602 186.033 229.187 186.033C228.783 186.033 228.419 186.134 228.093 186.336C227.779 186.538 227.533 186.818 227.353 187.177C227.174 187.525 227.084 187.928 227.084 188.388C227.084 188.848 227.174 189.257 227.353 189.616C227.533 189.964 227.785 190.238 228.11 190.44C228.435 190.642 228.805 190.743 229.22 190.743Z" fill="#2A1632"/>
<path d="M288.903 175.892C288.516 175.892 288.202 176.206 288.202 176.593C288.202 176.98 288.516 177.294 288.903 177.294V176.593V175.892ZM394.52 177.089C394.794 176.815 394.794 176.371 394.52 176.097L390.06 171.638C389.786 171.364 389.343 171.364 389.069 171.638C388.795 171.911 388.795 172.355 389.069 172.629L393.033 176.593L389.069 180.557C388.795 180.831 388.795 181.275 389.069 181.548C389.343 181.822 389.786 181.822 390.06 181.548L394.52 177.089ZM288.903 176.593V177.294L394.024 177.294V176.593V175.892L288.903 175.892V176.593Z" fill="#FF1596"/>
<rect x="394.024" y="96" width="175.903" height="161.186" rx="16.8194" fill="#F1DBFB"/>
<path d="M418.544 172.593V160.819H422.311C423.511 160.819 424.571 161.072 425.49 161.576C426.421 162.081 427.144 162.776 427.66 163.662C428.187 164.537 428.45 165.551 428.45 166.706C428.45 167.85 428.187 168.865 427.66 169.751C427.144 170.636 426.421 171.332 425.49 171.836C424.571 172.341 423.511 172.593 422.311 172.593H418.544ZM420.848 170.44H422.311C422.85 170.44 423.349 170.345 423.808 170.154C424.268 169.964 424.666 169.7 425.002 169.364C425.35 169.027 425.619 168.635 425.81 168.186C426 167.727 426.096 167.233 426.096 166.706C426.096 166.179 426 165.691 425.81 165.243C425.619 164.783 425.35 164.385 425.002 164.049C424.666 163.712 424.268 163.449 423.808 163.258C423.349 163.068 422.85 162.972 422.311 162.972H420.848V170.44ZM433.466 172.795C432.636 172.795 431.902 172.61 431.263 172.24C430.623 171.859 430.119 171.337 429.749 170.676C429.39 170.014 429.211 169.252 429.211 168.388C429.211 167.525 429.396 166.762 429.766 166.101C430.147 165.439 430.663 164.923 431.313 164.553C431.975 164.172 432.731 163.981 433.584 163.981C434.324 163.981 435.002 164.178 435.619 164.57C436.247 164.951 436.746 165.518 437.116 166.269C437.497 167.009 437.688 167.912 437.688 168.977H431.532C431.588 169.537 431.829 169.986 432.255 170.322C432.681 170.648 433.163 170.81 433.701 170.81C434.161 170.81 434.537 170.715 434.828 170.524C435.12 170.322 435.344 170.064 435.501 169.751L437.486 170.524C437.25 170.995 436.942 171.404 436.561 171.752C436.191 172.088 435.748 172.346 435.232 172.526C434.716 172.705 434.127 172.795 433.466 172.795ZM431.649 167.329H435.282C435.249 166.981 435.137 166.701 434.946 166.488C434.755 166.275 434.531 166.118 434.273 166.017C434.015 165.916 433.763 165.865 433.516 165.865C433.281 165.865 433.023 165.916 432.743 166.017C432.474 166.106 432.232 166.258 432.019 166.471C431.818 166.684 431.694 166.97 431.649 167.329ZM439.482 172.593V165.966H438.086V164.183H439.482V163.342C439.482 162.445 439.712 161.75 440.172 161.257C440.632 160.752 441.333 160.5 442.274 160.5C442.6 160.5 442.942 160.556 443.3 160.668C443.67 160.78 444.007 160.915 444.31 161.072L443.485 162.67C443.306 162.58 443.143 162.513 442.998 162.468C442.852 162.423 442.717 162.4 442.594 162.4C442.291 162.4 442.067 162.507 441.921 162.72C441.775 162.922 441.703 163.253 441.703 163.712V164.183H443.771V165.966H441.703V172.593H439.482ZM445.043 172.593V164.183H447.263V172.593H445.043ZM446.153 162.821C445.816 162.821 445.519 162.698 445.261 162.451C445.003 162.193 444.874 161.89 444.874 161.543C444.874 161.195 445.003 160.898 445.261 160.651C445.519 160.393 445.816 160.264 446.153 160.264C446.5 160.264 446.797 160.393 447.044 160.651C447.302 160.898 447.431 161.195 447.431 161.543C447.431 161.89 447.302 162.193 447.044 162.451C446.797 162.698 446.5 162.821 446.153 162.821ZM448.974 172.593V164.183H451.059L451.16 165.327C451.429 164.89 451.771 164.559 452.186 164.335C452.612 164.099 453.094 163.981 453.633 163.981C454.294 163.981 454.86 164.116 455.331 164.385C455.802 164.654 456.161 165.075 456.408 165.647C456.654 166.207 456.772 166.936 456.761 167.833V172.593H454.541V168.287C454.541 167.715 454.473 167.272 454.339 166.959C454.216 166.645 454.036 166.42 453.801 166.286C453.565 166.14 453.291 166.067 452.977 166.067C452.405 166.056 451.962 166.23 451.648 166.588C451.345 166.947 451.194 167.48 451.194 168.186V172.593H448.974ZM458.331 172.593V164.183H460.551V172.593H458.331ZM459.441 162.821C459.105 162.821 458.808 162.698 458.55 162.451C458.292 162.193 458.163 161.89 458.163 161.543C458.163 161.195 458.292 160.898 458.55 160.651C458.808 160.393 459.105 160.264 459.441 160.264C459.789 160.264 460.086 160.393 460.333 160.651C460.591 160.898 460.72 161.195 460.72 161.543C460.72 161.89 460.591 162.193 460.333 162.451C460.086 162.698 459.789 162.821 459.441 162.821ZM466.316 172.795C465.441 172.795 464.662 172.61 463.978 172.24C463.294 171.859 462.761 171.337 462.38 170.676C461.999 170.003 461.808 169.24 461.808 168.388C461.808 167.525 461.999 166.762 462.38 166.101C462.761 165.439 463.288 164.923 463.961 164.553C464.634 164.172 465.407 163.981 466.282 163.981C467.123 163.981 467.891 164.189 468.586 164.604C469.281 165.019 469.786 165.619 470.1 166.403L468.014 167.144C467.857 166.818 467.611 166.56 467.274 166.37C466.949 166.168 466.585 166.067 466.181 166.067C465.766 166.067 465.402 166.168 465.088 166.37C464.774 166.56 464.527 166.83 464.348 167.177C464.168 167.525 464.079 167.928 464.079 168.388C464.079 168.848 464.168 169.252 464.348 169.599C464.527 169.936 464.779 170.205 465.105 170.406C465.43 170.608 465.8 170.709 466.215 170.709C466.618 170.709 466.983 170.603 467.308 170.39C467.644 170.177 467.891 169.896 468.048 169.549L470.15 170.289C469.825 171.085 469.315 171.702 468.62 172.139C467.936 172.576 467.168 172.795 466.316 172.795ZM465.592 176.142C465.346 176.142 465.088 176.103 464.819 176.024C464.55 175.946 464.269 175.822 463.978 175.654L464.314 174.595C464.482 174.684 464.645 174.757 464.802 174.813C464.97 174.869 465.121 174.897 465.256 174.897C465.447 174.897 465.609 174.864 465.744 174.796C465.878 174.729 465.946 174.611 465.946 174.443C465.946 174.219 465.85 174.051 465.66 173.939C465.48 173.826 465.211 173.759 464.852 173.737L465.357 172.509L466.635 172.61L466.417 173.098C466.809 173.232 467.101 173.423 467.291 173.669C467.493 173.927 467.594 174.208 467.594 174.51C467.594 174.993 467.426 175.385 467.089 175.688C466.753 175.991 466.254 176.142 465.592 176.142ZM473.832 172.795C472.823 172.795 472.038 172.571 471.478 172.122C470.928 171.674 470.653 171.04 470.653 170.221C470.653 169.324 470.95 168.652 471.545 168.203C472.15 167.743 472.997 167.514 474.085 167.514H476.069C475.991 166.998 475.828 166.605 475.581 166.336C475.335 166.056 474.982 165.916 474.522 165.916C474.163 165.916 473.838 165.994 473.546 166.151C473.255 166.308 473.008 166.549 472.806 166.874L470.855 166.202C471.012 165.843 471.242 165.495 471.545 165.159C471.848 164.811 472.24 164.531 472.722 164.318C473.216 164.094 473.815 163.981 474.522 163.981C475.374 163.981 476.08 164.144 476.641 164.469C477.213 164.794 477.633 165.254 477.903 165.848C478.183 166.432 478.317 167.127 478.306 167.934L478.256 172.593H476.187L476.153 171.617C475.94 171.999 475.638 172.29 475.245 172.492C474.864 172.694 474.393 172.795 473.832 172.795ZM474.202 170.945C474.561 170.945 474.886 170.861 475.178 170.692C475.469 170.524 475.699 170.306 475.867 170.036C476.036 169.767 476.12 169.487 476.12 169.195V169.162H474.858C474.129 169.162 473.625 169.252 473.344 169.431C473.064 169.599 472.924 169.84 472.924 170.154C472.924 170.401 473.036 170.597 473.26 170.743C473.485 170.877 473.799 170.945 474.202 170.945ZM475.75 163.359C475.38 163.359 475.082 163.297 474.858 163.174C474.645 163.051 474.477 162.911 474.354 162.754C474.23 162.597 474.113 162.457 474 162.333C473.888 162.21 473.748 162.148 473.58 162.148C473.445 162.148 473.328 162.187 473.227 162.266C473.137 162.344 473.059 162.518 472.991 162.787H471.494C471.55 162.328 471.657 161.946 471.814 161.644C471.982 161.33 472.206 161.094 472.487 160.937C472.778 160.78 473.12 160.702 473.513 160.702C473.905 160.702 474.208 160.763 474.421 160.887C474.645 161.01 474.825 161.15 474.959 161.307C475.094 161.464 475.217 161.604 475.329 161.728C475.441 161.851 475.581 161.913 475.75 161.913C475.918 161.913 476.036 161.851 476.103 161.728C476.181 161.604 476.232 161.447 476.254 161.257H477.751C477.673 161.885 477.471 162.395 477.146 162.787C476.832 163.169 476.366 163.359 475.75 163.359ZM483.61 172.795C482.757 172.795 481.995 172.61 481.322 172.24C480.661 171.859 480.139 171.337 479.758 170.676C479.388 170.014 479.203 169.252 479.203 168.388C479.203 167.525 479.388 166.762 479.758 166.101C480.128 165.439 480.644 164.923 481.305 164.553C481.967 164.172 482.724 163.981 483.576 163.981C484.439 163.981 485.202 164.172 485.863 164.553C486.525 164.923 487.041 165.439 487.411 166.101C487.781 166.762 487.966 167.525 487.966 168.388C487.966 169.252 487.781 170.014 487.411 170.676C487.041 171.337 486.525 171.859 485.863 172.24C485.213 172.61 484.462 172.795 483.61 172.795ZM483.61 170.743C484.025 170.743 484.389 170.642 484.703 170.44C485.017 170.238 485.258 169.964 485.426 169.616C485.606 169.257 485.695 168.848 485.695 168.388C485.695 167.928 485.606 167.525 485.426 167.177C485.247 166.818 484.994 166.538 484.669 166.336C484.355 166.134 483.991 166.033 483.576 166.033C483.172 166.033 482.808 166.134 482.483 166.336C482.169 166.538 481.922 166.818 481.743 167.177C481.563 167.525 481.474 167.928 481.474 168.388C481.474 168.848 481.563 169.257 481.743 169.616C481.922 169.964 482.174 170.238 482.5 170.44C482.825 170.642 483.195 170.743 483.61 170.743ZM495.372 172.593L491.924 164.183H494.212L496.482 170.053L498.753 164.183H501.04L497.592 172.593H495.372ZM501.909 172.593V164.183H504.129V172.593H501.909ZM503.019 162.821C502.683 162.821 502.386 162.698 502.128 162.451C501.87 162.193 501.741 161.89 501.741 161.543C501.741 161.195 501.87 160.898 502.128 160.651C502.386 160.393 502.683 160.264 503.019 160.264C503.367 160.264 503.664 160.393 503.911 160.651C504.169 160.898 504.298 161.195 504.298 161.543C504.298 161.89 504.169 162.193 503.911 162.451C503.664 162.698 503.367 162.821 503.019 162.821ZM508.985 172.795C508.447 172.795 507.943 172.716 507.472 172.559C507.001 172.391 506.586 172.156 506.227 171.853C505.868 171.539 505.588 171.158 505.386 170.709L507.287 169.835C507.455 170.104 507.685 170.339 507.976 170.541C508.268 170.732 508.604 170.827 508.985 170.827C509.355 170.827 509.641 170.777 509.843 170.676C510.045 170.563 510.146 170.406 510.146 170.205C510.146 170.003 510.062 169.857 509.894 169.767C509.737 169.666 509.518 169.582 509.238 169.515L508.464 169.313C507.657 169.1 507.018 168.764 506.547 168.304C506.087 167.833 505.857 167.295 505.857 166.689C505.857 165.826 506.132 165.159 506.681 164.688C507.242 164.217 508.032 163.981 509.053 163.981C509.58 163.981 510.067 164.06 510.516 164.217C510.976 164.374 511.368 164.593 511.693 164.873C512.019 165.153 512.243 165.478 512.366 165.848L510.533 166.689C510.454 166.465 510.264 166.286 509.961 166.151C509.658 166.005 509.355 165.933 509.053 165.933C508.75 165.933 508.514 166 508.346 166.134C508.189 166.258 508.111 166.432 508.111 166.656C508.111 166.802 508.189 166.925 508.346 167.026C508.503 167.115 508.728 167.194 509.019 167.261L510.112 167.53C510.662 167.665 511.099 167.884 511.424 168.186C511.761 168.478 512.002 168.809 512.147 169.179C512.304 169.537 512.383 169.891 512.383 170.238C512.383 170.743 512.232 171.191 511.929 171.584C511.637 171.965 511.234 172.262 510.718 172.475C510.213 172.688 509.636 172.795 508.985 172.795ZM516.332 172.795C515.66 172.795 515.088 172.66 514.617 172.391C514.157 172.122 513.804 171.707 513.557 171.147C513.311 170.575 513.187 169.84 513.187 168.943V164.183H515.407V168.489C515.407 169.05 515.469 169.493 515.592 169.818C515.727 170.132 515.912 170.362 516.147 170.507C516.394 170.642 516.669 170.709 516.972 170.709C517.555 170.72 517.998 170.547 518.3 170.188C518.603 169.818 518.754 169.285 518.754 168.59V164.183H520.975V172.593H518.889L518.805 171.449C518.525 171.875 518.171 172.206 517.745 172.442C517.33 172.677 516.86 172.795 516.332 172.795ZM525.286 172.795C524.277 172.795 523.492 172.571 522.932 172.122C522.382 171.674 522.108 171.04 522.108 170.221C522.108 169.324 522.405 168.652 522.999 168.203C523.605 167.743 524.451 167.514 525.539 167.514H527.523C527.445 166.998 527.282 166.605 527.036 166.336C526.789 166.056 526.436 165.916 525.976 165.916C525.617 165.916 525.292 165.994 525.001 166.151C524.709 166.308 524.462 166.549 524.26 166.874L522.309 166.202C522.466 165.843 522.696 165.495 522.999 165.159C523.302 164.811 523.694 164.531 524.176 164.318C524.67 164.094 525.27 163.981 525.976 163.981C526.828 163.981 527.535 164.144 528.095 164.469C528.667 164.794 529.088 165.254 529.357 165.848C529.637 166.432 529.772 167.127 529.76 167.934L529.71 172.593H527.641L527.608 171.617C527.395 171.999 527.092 172.29 526.699 172.492C526.318 172.694 525.847 172.795 525.286 172.795ZM525.656 170.945C526.015 170.945 526.34 170.861 526.632 170.692C526.924 170.524 527.153 170.306 527.322 170.036C527.49 169.767 527.574 169.487 527.574 169.195V169.162H526.312C525.584 169.162 525.079 169.252 524.799 169.431C524.518 169.599 524.378 169.84 524.378 170.154C524.378 170.401 524.49 170.597 524.715 170.743C524.939 170.877 525.253 170.945 525.656 170.945ZM531.193 172.593V160.819H533.414V172.593H531.193ZM542.469 172.795C541.639 172.795 540.905 172.61 540.265 172.24C539.626 171.859 539.122 171.337 538.752 170.676C538.393 170.014 538.213 169.252 538.213 168.388C538.213 167.525 538.399 166.762 538.769 166.101C539.15 165.439 539.666 164.923 540.316 164.553C540.977 164.172 541.734 163.981 542.587 163.981C543.327 163.981 544.005 164.178 544.622 164.57C545.25 164.951 545.749 165.518 546.119 166.269C546.5 167.009 546.69 167.912 546.69 168.977H540.535C540.591 169.537 540.832 169.986 541.258 170.322C541.684 170.648 542.166 170.81 542.704 170.81C543.164 170.81 543.54 170.715 543.831 170.524C544.123 170.322 544.347 170.064 544.504 169.751L546.489 170.524C546.253 170.995 545.945 171.404 545.564 171.752C545.194 172.088 544.751 172.346 544.235 172.526C543.719 172.705 543.13 172.795 542.469 172.795ZM540.652 167.329H544.285C544.252 166.981 544.14 166.701 543.949 166.488C543.758 166.275 543.534 166.118 543.276 166.017C543.018 165.916 542.766 165.865 542.519 165.865C542.284 165.865 542.026 165.916 541.746 166.017C541.476 166.106 541.235 166.258 541.022 166.471C540.821 166.684 540.697 166.97 540.652 167.329ZM431.957 192.795C431.183 192.795 430.51 192.615 429.939 192.257C429.378 191.898 428.941 191.388 428.627 190.726C428.313 190.064 428.156 189.285 428.156 188.388C428.156 187.48 428.313 186.701 428.627 186.05C428.941 185.389 429.378 184.879 429.939 184.52C430.51 184.161 431.183 183.981 431.957 183.981C432.506 183.981 432.994 184.099 433.42 184.335C433.858 184.559 434.211 184.884 434.48 185.31V180.819H436.7V192.593H434.598L434.53 191.416C434.25 191.853 433.891 192.195 433.454 192.442C433.017 192.677 432.518 192.795 431.957 192.795ZM432.529 190.76C432.899 190.76 433.224 190.67 433.504 190.491C433.796 190.3 434.026 190.036 434.194 189.7C434.362 189.364 434.457 188.982 434.48 188.556V188.22C434.457 187.794 434.362 187.418 434.194 187.093C434.026 186.757 433.796 186.499 433.504 186.319C433.213 186.129 432.882 186.033 432.512 186.033C432.108 186.033 431.75 186.134 431.436 186.336C431.133 186.527 430.892 186.802 430.712 187.16C430.544 187.519 430.46 187.928 430.46 188.388C430.46 188.848 430.55 189.257 430.729 189.616C430.909 189.975 431.15 190.255 431.452 190.457C431.766 190.659 432.125 190.76 432.529 190.76ZM442.078 192.795C441.248 192.795 440.513 192.61 439.874 192.24C439.235 191.859 438.731 191.337 438.361 190.676C438.002 190.014 437.822 189.252 437.822 188.388C437.822 187.525 438.007 186.762 438.377 186.101C438.759 185.439 439.274 184.923 439.925 184.553C440.586 184.172 441.343 183.981 442.195 183.981C442.935 183.981 443.614 184.178 444.231 184.57C444.858 184.951 445.357 185.518 445.727 186.269C446.109 187.009 446.299 187.912 446.299 188.977H440.143C440.199 189.537 440.441 189.986 440.867 190.322C441.293 190.648 441.775 190.81 442.313 190.81C442.773 190.81 443.148 190.715 443.44 190.524C443.732 190.322 443.956 190.064 444.113 189.751L446.097 190.524C445.862 190.995 445.554 191.404 445.172 191.752C444.802 192.088 444.359 192.346 443.844 192.526C443.328 192.705 442.739 192.795 442.078 192.795ZM440.261 187.329H443.894C443.86 186.981 443.748 186.701 443.558 186.488C443.367 186.275 443.143 186.118 442.885 186.017C442.627 185.916 442.375 185.865 442.128 185.865C441.893 185.865 441.635 185.916 441.354 186.017C441.085 186.106 440.844 186.258 440.631 186.471C440.429 186.684 440.306 186.97 440.261 187.329ZM454.726 192.795C453.896 192.795 453.161 192.61 452.522 192.24C451.883 191.859 451.379 191.337 451.009 190.676C450.65 190.014 450.47 189.252 450.47 188.388C450.47 187.525 450.655 186.762 451.025 186.101C451.407 185.439 451.922 184.923 452.573 184.553C453.234 184.172 453.991 183.981 454.843 183.981C455.583 183.981 456.262 184.178 456.879 184.57C457.507 184.951 458.005 185.518 458.376 186.269C458.757 187.009 458.947 187.912 458.947 188.977H452.791C452.848 189.537 453.089 189.986 453.515 190.322C453.941 190.648 454.423 190.81 454.961 190.81C455.421 190.81 455.797 190.715 456.088 190.524C456.38 190.322 456.604 190.064 456.761 189.751L458.746 190.524C458.51 190.995 458.202 191.404 457.82 191.752C457.45 192.088 457.008 192.346 456.492 192.526C455.976 192.705 455.387 192.795 454.726 192.795ZM452.909 187.329H456.542C456.509 186.981 456.396 186.701 456.206 186.488C456.015 186.275 455.791 186.118 455.533 186.017C455.275 185.916 455.023 185.865 454.776 185.865C454.541 185.865 454.283 185.916 454.002 186.017C453.733 186.106 453.492 186.258 453.279 186.471C453.077 186.684 452.954 186.97 452.909 187.329ZM458.815 192.593L461.943 188.237L459.034 184.183H461.658L463.171 186.437L464.668 184.183H467.292L464.399 188.254L467.494 192.593H464.853L463.171 190.053L461.473 192.593H458.815ZM468.371 195.957V184.183H470.456L470.557 185.377C470.838 184.929 471.191 184.587 471.617 184.352C472.054 184.105 472.559 183.981 473.131 183.981C473.904 183.981 474.571 184.161 475.132 184.52C475.704 184.879 476.147 185.389 476.461 186.05C476.775 186.701 476.932 187.48 476.932 188.388C476.932 189.285 476.775 190.064 476.461 190.726C476.147 191.388 475.704 191.898 475.132 192.257C474.571 192.615 473.904 192.795 473.131 192.795C472.57 192.795 472.077 192.677 471.65 192.442C471.224 192.206 470.871 191.875 470.591 191.449V195.957H468.371ZM472.559 190.76C472.962 190.76 473.316 190.659 473.618 190.457C473.932 190.255 474.179 189.975 474.358 189.616C474.538 189.257 474.628 188.848 474.628 188.388C474.628 187.928 474.538 187.519 474.358 187.16C474.19 186.802 473.949 186.527 473.635 186.336C473.332 186.134 472.979 186.033 472.576 186.033C472.194 186.033 471.852 186.134 471.55 186.336C471.247 186.538 471.011 186.818 470.843 187.177C470.675 187.525 470.591 187.928 470.591 188.388C470.591 188.848 470.675 189.257 470.843 189.616C471.011 189.975 471.241 190.255 471.533 190.457C471.836 190.659 472.178 190.76 472.559 190.76ZM481.853 192.795C481.023 192.795 480.289 192.61 479.65 192.24C479.01 191.859 478.506 191.337 478.136 190.676C477.777 190.014 477.598 189.252 477.598 188.388C477.598 187.525 477.783 186.762 478.153 186.101C478.534 185.439 479.05 184.923 479.7 184.553C480.362 184.172 481.118 183.981 481.971 183.981C482.711 183.981 483.389 184.178 484.006 184.57C484.634 184.951 485.133 185.518 485.503 186.269C485.884 187.009 486.075 187.912 486.075 188.977H479.919C479.975 189.537 480.216 189.986 480.642 190.322C481.068 190.648 481.55 190.81 482.088 190.81C482.548 190.81 482.924 190.715 483.215 190.524C483.507 190.322 483.731 190.064 483.888 189.751L485.873 190.524C485.637 190.995 485.329 191.404 484.948 191.752C484.578 192.088 484.135 192.346 483.619 192.526C483.103 192.705 482.514 192.795 481.853 192.795ZM480.036 187.329H483.669C483.636 186.981 483.524 186.701 483.333 186.488C483.142 186.275 482.918 186.118 482.66 186.017C482.402 185.916 482.15 185.865 481.903 185.865C481.668 185.865 481.41 185.916 481.13 186.017C480.861 186.106 480.619 186.258 480.406 186.471C480.205 186.684 480.081 186.97 480.036 187.329ZM487.028 192.593V184.183H489.249V185.731C489.596 185.204 490.033 184.811 490.56 184.553C491.099 184.284 491.654 184.15 492.226 184.15V186.303C491.71 186.303 491.222 186.364 490.762 186.488C490.314 186.611 489.949 186.813 489.669 187.093C489.389 187.373 489.249 187.732 489.249 188.17V192.593H487.028ZM493.2 192.593V184.183H495.42V192.593H493.2ZM494.31 182.821C493.973 182.821 493.676 182.698 493.418 182.451C493.16 182.193 493.031 181.89 493.031 181.543C493.031 181.195 493.16 180.898 493.418 180.651C493.676 180.393 493.973 180.264 494.31 180.264C494.657 180.264 494.954 180.393 495.201 180.651C495.459 180.898 495.588 181.195 495.588 181.543C495.588 181.89 495.459 182.193 495.201 182.451C494.954 182.698 494.657 182.821 494.31 182.821ZM500.932 192.795C500.102 192.795 499.368 192.61 498.728 192.24C498.089 191.859 497.585 191.337 497.215 190.676C496.856 190.014 496.676 189.252 496.676 188.388C496.676 187.525 496.861 186.762 497.231 186.101C497.613 185.439 498.129 184.923 498.779 184.553C499.44 184.172 500.197 183.981 501.05 183.981C501.79 183.981 502.468 184.178 503.085 184.57C503.713 184.951 504.212 185.518 504.582 186.269C504.963 187.009 505.153 187.912 505.153 188.977H498.998C499.054 189.537 499.295 189.986 499.721 190.322C500.147 190.648 500.629 190.81 501.167 190.81C501.627 190.81 502.003 190.715 502.294 190.524C502.586 190.322 502.81 190.064 502.967 189.751L504.952 190.524C504.716 190.995 504.408 191.404 504.027 191.752C503.657 192.088 503.214 192.346 502.698 192.526C502.182 192.705 501.593 192.795 500.932 192.795ZM499.115 187.329H502.748C502.715 186.981 502.602 186.701 502.412 186.488C502.221 186.275 501.997 186.118 501.739 186.017C501.481 185.916 501.229 185.865 500.982 185.865C500.747 185.865 500.489 185.916 500.209 186.017C499.939 186.106 499.698 186.258 499.485 186.471C499.283 186.684 499.16 186.97 499.115 187.329ZM502.227 182.955L499.872 180.752V180.618H502.16L504.245 182.955H502.227ZM497.77 182.955L499.855 180.618H502.143V180.752L499.788 182.955H497.77ZM506.157 192.593V184.183H508.242L508.343 185.327C508.612 184.89 508.954 184.559 509.369 184.335C509.795 184.099 510.277 183.981 510.816 183.981C511.477 183.981 512.043 184.116 512.514 184.385C512.985 184.654 513.344 185.075 513.591 185.647C513.837 186.207 513.955 186.936 513.944 187.833V192.593H511.724V188.287C511.724 187.715 511.656 187.272 511.522 186.959C511.399 186.645 511.219 186.42 510.984 186.286C510.748 186.14 510.474 186.067 510.16 186.067C509.588 186.056 509.145 186.23 508.831 186.588C508.528 186.947 508.377 187.48 508.377 188.186V192.593H506.157ZM519.433 192.795C518.559 192.795 517.779 192.61 517.095 192.24C516.411 191.859 515.879 191.337 515.497 190.676C515.116 190.003 514.926 189.24 514.926 188.388C514.926 187.525 515.116 186.762 515.497 186.101C515.879 185.439 516.406 184.923 517.078 184.553C517.751 184.172 518.525 183.981 519.399 183.981C520.24 183.981 521.009 184.189 521.704 184.604C522.399 185.019 522.904 185.619 523.217 186.403L521.132 187.144C520.975 186.818 520.728 186.56 520.392 186.37C520.067 186.168 519.702 186.067 519.299 186.067C518.884 186.067 518.519 186.168 518.205 186.37C517.891 186.56 517.645 186.83 517.465 187.177C517.286 187.525 517.196 187.928 517.196 188.388C517.196 188.848 517.286 189.252 517.465 189.599C517.645 189.936 517.897 190.205 518.222 190.406C518.547 190.608 518.917 190.709 519.332 190.709C519.736 190.709 520.1 190.603 520.425 190.39C520.762 190.177 521.009 189.896 521.166 189.549L523.268 190.289C522.943 191.085 522.433 191.702 521.737 192.139C521.053 192.576 520.285 192.795 519.433 192.795ZM524.359 192.593V184.183H526.58V192.593H524.359ZM525.47 182.821C525.133 182.821 524.836 182.698 524.578 182.451C524.32 182.193 524.191 181.89 524.191 181.543C524.191 181.195 524.32 180.898 524.578 180.651C524.836 180.393 525.133 180.264 525.47 180.264C525.817 180.264 526.114 180.393 526.361 180.651C526.619 180.898 526.748 181.195 526.748 181.543C526.748 181.89 526.619 182.193 526.361 182.451C526.114 182.698 525.817 182.821 525.47 182.821ZM531.015 192.795C530.006 192.795 529.221 192.571 528.661 192.122C528.111 191.674 527.836 191.04 527.836 190.221C527.836 189.324 528.134 188.652 528.728 188.203C529.333 187.743 530.18 187.514 531.268 187.514H533.252C533.174 186.998 533.011 186.605 532.764 186.336C532.518 186.056 532.165 185.916 531.705 185.916C531.346 185.916 531.021 185.994 530.729 186.151C530.438 186.308 530.191 186.549 529.989 186.874L528.038 186.202C528.195 185.843 528.425 185.495 528.728 185.159C529.031 184.811 529.423 184.531 529.905 184.318C530.399 184.094 530.998 183.981 531.705 183.981C532.557 183.981 533.263 184.144 533.824 184.469C534.396 184.794 534.816 185.254 535.086 185.848C535.366 186.432 535.5 187.127 535.489 187.934L535.439 192.593H533.37L533.336 191.617C533.123 191.999 532.821 192.29 532.428 192.492C532.047 192.694 531.576 192.795 531.015 192.795ZM531.385 190.945C531.744 190.945 532.069 190.861 532.361 190.692C532.652 190.524 532.882 190.306 533.05 190.036C533.219 189.767 533.303 189.487 533.303 189.195V189.162H532.041C531.312 189.162 530.808 189.252 530.527 189.431C530.247 189.599 530.107 189.84 530.107 190.154C530.107 190.401 530.219 190.597 530.443 190.743C530.668 190.877 530.982 190.945 531.385 190.945Z" fill="#2A1632"/>
<path d="M569.927 175.892C569.54 175.892 569.226 176.206 569.226 176.593C569.226 176.98 569.54 177.294 569.927 177.294V176.593V175.892ZM675.544 177.089C675.818 176.815 675.818 176.371 675.544 176.097L671.084 171.638C670.81 171.364 670.367 171.364 670.093 171.638C669.819 171.911 669.819 172.355 670.093 172.629L674.057 176.593L670.093 180.557C669.819 180.831 669.819 181.275 670.093 181.548C670.367 181.822 670.81 181.822 671.084 181.548L675.544 177.089ZM569.927 176.593V177.294L675.049 177.294V176.593V175.892L569.927 175.892V176.593Z" fill="#FF1596"/>
<rect x="675.048" y="96" width="175.903" height="161.186" rx="16.8194" fill="#F1DBFB"/>
<path d="M706.175 172.593V160.819H710.549C711.378 160.819 712.113 160.982 712.752 161.307C713.391 161.632 713.89 162.081 714.249 162.653C714.608 163.213 714.787 163.869 714.787 164.621C714.787 165.394 714.58 166.078 714.165 166.673C713.75 167.256 713.206 167.699 712.533 168.001L715.258 172.593H712.651L710.246 168.422C710.179 168.422 710.106 168.422 710.027 168.422C709.96 168.422 709.887 168.422 709.808 168.422H708.48V172.593H706.175ZM708.48 166.319H710.565C710.913 166.319 711.221 166.246 711.49 166.101C711.771 165.955 711.989 165.753 712.146 165.495C712.315 165.237 712.399 164.946 712.399 164.621C712.399 164.116 712.214 163.707 711.844 163.393C711.485 163.079 711.019 162.922 710.448 162.922H708.48V166.319ZM720.161 172.795C719.332 172.795 718.597 172.61 717.958 172.24C717.319 171.859 716.814 171.337 716.444 170.676C716.085 170.014 715.906 169.252 715.906 168.388C715.906 167.525 716.091 166.762 716.461 166.101C716.842 165.439 717.358 164.923 718.008 164.553C718.67 164.172 719.427 163.981 720.279 163.981C721.019 163.981 721.698 164.178 722.314 164.57C722.942 164.951 723.441 165.518 723.811 166.269C724.192 167.009 724.383 167.912 724.383 168.977H718.227C718.283 169.537 718.524 169.986 718.95 170.322C719.376 170.648 719.859 170.81 720.397 170.81C720.857 170.81 721.232 170.715 721.524 170.524C721.815 170.322 722.04 170.064 722.197 169.751L724.181 170.524C723.946 170.995 723.637 171.404 723.256 171.752C722.886 172.088 722.443 172.346 721.927 172.526C721.412 172.705 720.823 172.795 720.161 172.795ZM718.345 167.329H721.978C721.944 166.981 721.832 166.701 721.641 166.488C721.451 166.275 721.227 166.118 720.969 166.017C720.711 165.916 720.459 165.865 720.212 165.865C719.976 165.865 719.718 165.916 719.438 166.017C719.169 166.106 718.928 166.258 718.715 166.471C718.513 166.684 718.39 166.97 718.345 167.329ZM729.121 176.176C728.482 176.176 727.916 176.131 727.422 176.041C726.929 175.951 726.514 175.834 726.178 175.688C725.841 175.542 725.567 175.396 725.354 175.25L726.228 173.468C726.385 173.557 726.593 173.658 726.851 173.77C727.109 173.894 727.417 173.995 727.776 174.073C728.135 174.163 728.549 174.208 729.02 174.208C729.469 174.208 729.861 174.118 730.198 173.939C730.545 173.77 730.814 173.501 731.005 173.131C731.207 172.772 731.308 172.313 731.308 171.752V170.945C731.027 171.382 730.663 171.73 730.215 171.988C729.766 172.234 729.256 172.358 728.684 172.358C727.91 172.358 727.237 172.189 726.666 171.853C726.105 171.517 725.668 171.046 725.354 170.44C725.04 169.835 724.883 169.117 724.883 168.287C724.883 167.413 725.04 166.656 725.354 166.017C725.668 165.366 726.105 164.867 726.666 164.52C727.237 164.161 727.91 163.981 728.684 163.981C729.256 163.981 729.766 164.116 730.215 164.385C730.663 164.643 731.027 165.013 731.308 165.495V164.183H733.528V171.685C733.528 172.627 733.349 173.434 732.99 174.107C732.631 174.791 732.121 175.307 731.459 175.654C730.809 176.002 730.029 176.176 729.121 176.176ZM729.323 170.491C729.704 170.491 730.035 170.395 730.315 170.205C730.607 170.003 730.831 169.734 730.988 169.397C731.145 169.05 731.224 168.657 731.224 168.22C731.224 167.771 731.14 167.379 730.971 167.043C730.814 166.706 730.59 166.443 730.299 166.252C730.018 166.061 729.687 165.966 729.306 165.966C728.914 165.966 728.566 166.061 728.263 166.252C727.961 166.443 727.725 166.706 727.557 167.043C727.389 167.379 727.299 167.771 727.288 168.22C727.299 168.657 727.389 169.05 727.557 169.397C727.725 169.734 727.961 170.003 728.263 170.205C728.577 170.395 728.931 170.491 729.323 170.491ZM735.102 172.593V164.183H737.322V165.731C737.67 165.204 738.107 164.811 738.634 164.553C739.172 164.284 739.727 164.15 740.299 164.15V166.303C739.783 166.303 739.296 166.364 738.836 166.488C738.387 166.611 738.023 166.813 737.743 167.093C737.462 167.373 737.322 167.732 737.322 168.17V172.593H735.102ZM743.863 172.795C742.854 172.795 742.069 172.571 741.509 172.122C740.959 171.674 740.684 171.04 740.684 170.221C740.684 169.324 740.982 168.652 741.576 168.203C742.181 167.743 743.028 167.514 744.116 167.514H746.1C746.022 166.998 745.859 166.605 745.613 166.336C745.366 166.056 745.013 165.916 744.553 165.916C744.194 165.916 743.869 165.994 743.577 166.151C743.286 166.308 743.039 166.549 742.837 166.874L740.886 166.202C741.043 165.843 741.273 165.495 741.576 165.159C741.879 164.811 742.271 164.531 742.753 164.318C743.247 164.094 743.847 163.981 744.553 163.981C745.405 163.981 746.112 164.144 746.672 164.469C747.244 164.794 747.665 165.254 747.934 165.848C748.214 166.432 748.349 167.127 748.337 167.934L748.287 172.593H746.218L746.184 171.617C745.971 171.999 745.669 172.29 745.276 172.492C744.895 172.694 744.424 172.795 743.863 172.795ZM744.233 170.945C744.592 170.945 744.917 170.861 745.209 170.692C745.5 170.524 745.73 170.306 745.898 170.036C746.067 169.767 746.151 169.487 746.151 169.195V169.162H744.889C744.16 169.162 743.656 169.252 743.376 169.431C743.095 169.599 742.955 169.84 742.955 170.154C742.955 170.401 743.067 170.597 743.291 170.743C743.516 170.877 743.83 170.945 744.233 170.945ZM752.916 172.795C752.377 172.795 751.873 172.716 751.402 172.559C750.931 172.391 750.516 172.156 750.157 171.853C749.798 171.539 749.518 171.158 749.316 170.709L751.217 169.835C751.385 170.104 751.615 170.339 751.906 170.541C752.198 170.732 752.534 170.827 752.916 170.827C753.286 170.827 753.572 170.777 753.773 170.676C753.975 170.563 754.076 170.406 754.076 170.205C754.076 170.003 753.992 169.857 753.824 169.767C753.667 169.666 753.448 169.582 753.168 169.515L752.394 169.313C751.587 169.1 750.948 168.764 750.477 168.304C750.017 167.833 749.787 167.295 749.787 166.689C749.787 165.826 750.062 165.159 750.611 164.688C751.172 164.217 751.962 163.981 752.983 163.981C753.51 163.981 753.998 164.06 754.446 164.217C754.906 164.374 755.298 164.593 755.624 164.873C755.949 165.153 756.173 165.478 756.296 165.848L754.463 166.689C754.384 166.465 754.194 166.286 753.891 166.151C753.588 166.005 753.286 165.933 752.983 165.933C752.68 165.933 752.445 166 752.276 166.134C752.119 166.258 752.041 166.432 752.041 166.656C752.041 166.802 752.119 166.925 752.276 167.026C752.433 167.115 752.658 167.194 752.949 167.261L754.042 167.53C754.592 167.665 755.029 167.884 755.354 168.186C755.691 168.478 755.932 168.809 756.078 169.179C756.235 169.537 756.313 169.891 756.313 170.238C756.313 170.743 756.162 171.191 755.859 171.584C755.567 171.965 755.164 172.262 754.648 172.475C754.143 172.688 753.566 172.795 752.916 172.795ZM764.287 172.795C763.514 172.795 762.841 172.615 762.269 172.257C761.708 171.898 761.271 171.388 760.957 170.726C760.643 170.064 760.486 169.285 760.486 168.388C760.486 167.48 760.643 166.701 760.957 166.05C761.271 165.389 761.708 164.879 762.269 164.52C762.841 164.161 763.514 163.981 764.287 163.981C764.837 163.981 765.324 164.099 765.751 164.335C766.188 164.559 766.541 164.884 766.81 165.31V160.819H769.03V172.593H766.928L766.861 171.416C766.58 171.853 766.221 172.195 765.784 172.442C765.347 172.677 764.848 172.795 764.287 172.795ZM764.859 170.76C765.229 170.76 765.554 170.67 765.835 170.491C766.126 170.3 766.356 170.036 766.524 169.7C766.692 169.364 766.788 168.982 766.81 168.556V168.22C766.788 167.794 766.692 167.418 766.524 167.093C766.356 166.757 766.126 166.499 765.835 166.319C765.543 166.129 765.212 166.033 764.842 166.033C764.439 166.033 764.08 166.134 763.766 166.336C763.463 166.527 763.222 166.802 763.043 167.16C762.874 167.519 762.79 167.928 762.79 168.388C762.79 168.848 762.88 169.257 763.059 169.616C763.239 169.975 763.48 170.255 763.783 170.457C764.097 170.659 764.455 170.76 764.859 170.76ZM774.408 172.795C773.578 172.795 772.844 172.61 772.205 172.24C771.565 171.859 771.061 171.337 770.691 170.676C770.332 170.014 770.153 169.252 770.153 168.388C770.153 167.525 770.338 166.762 770.708 166.101C771.089 165.439 771.605 164.923 772.255 164.553C772.917 164.172 773.673 163.981 774.526 163.981C775.266 163.981 775.944 164.178 776.561 164.57C777.189 164.951 777.688 165.518 778.058 166.269C778.439 167.009 778.63 167.912 778.63 168.977H772.474C772.53 169.537 772.771 169.986 773.197 170.322C773.623 170.648 774.105 170.81 774.643 170.81C775.103 170.81 775.479 170.715 775.77 170.524C776.062 170.322 776.286 170.064 776.443 169.751L778.428 170.524C778.192 170.995 777.884 171.404 777.503 171.752C777.133 172.088 776.69 172.346 776.174 172.526C775.658 172.705 775.069 172.795 774.408 172.795ZM772.591 167.329H776.224C776.191 166.981 776.079 166.701 775.888 166.488C775.697 166.275 775.473 166.118 775.215 166.017C774.957 165.916 774.705 165.865 774.458 165.865C774.223 165.865 773.965 165.916 773.685 166.017C773.416 166.106 773.174 166.258 772.961 166.471C772.76 166.684 772.636 166.97 772.591 167.329ZM786.249 172.795C785.576 172.795 785.004 172.66 784.533 172.391C784.073 172.122 783.72 171.707 783.473 171.147C783.227 170.575 783.103 169.84 783.103 168.943V164.183H785.324V168.489C785.324 169.05 785.385 169.493 785.509 169.818C785.643 170.132 785.828 170.362 786.064 170.507C786.31 170.642 786.585 170.709 786.888 170.709C787.471 170.72 787.914 170.547 788.216 170.188C788.519 169.818 788.671 169.285 788.671 168.59V164.183H790.891V172.593H788.805L788.721 171.449C788.441 171.875 788.088 172.206 787.661 172.442C787.247 172.677 786.776 172.795 786.249 172.795ZM795.623 172.795C795.085 172.795 794.58 172.716 794.109 172.559C793.638 172.391 793.224 172.156 792.865 171.853C792.506 171.539 792.226 171.158 792.024 170.709L793.924 169.835C794.093 170.104 794.322 170.339 794.614 170.541C794.905 170.732 795.242 170.827 795.623 170.827C795.993 170.827 796.279 170.777 796.481 170.676C796.683 170.563 796.784 170.406 796.784 170.205C796.784 170.003 796.7 169.857 796.531 169.767C796.374 169.666 796.156 169.582 795.875 169.515L795.102 169.313C794.294 169.1 793.655 168.764 793.184 168.304C792.725 167.833 792.495 167.295 792.495 166.689C792.495 165.826 792.769 165.159 793.319 164.688C793.879 164.217 794.67 163.981 795.69 163.981C796.217 163.981 796.705 164.06 797.154 164.217C797.613 164.374 798.006 164.593 798.331 164.873C798.656 165.153 798.88 165.478 799.004 165.848L797.17 166.689C797.092 166.465 796.901 166.286 796.599 166.151C796.296 166.005 795.993 165.933 795.69 165.933C795.388 165.933 795.152 166 794.984 166.134C794.827 166.258 794.748 166.432 794.748 166.656C794.748 166.802 794.827 166.925 794.984 167.026C795.141 167.115 795.365 167.194 795.657 167.261L796.75 167.53C797.299 167.665 797.737 167.884 798.062 168.186C798.398 168.478 798.639 168.809 798.785 169.179C798.942 169.537 799.021 169.891 799.021 170.238C799.021 170.743 798.869 171.191 798.566 171.584C798.275 171.965 797.871 172.262 797.355 172.475C796.851 172.688 796.273 172.795 795.623 172.795ZM803.929 172.795C803.077 172.795 802.314 172.61 801.641 172.24C800.98 171.859 800.458 171.337 800.077 170.676C799.707 170.014 799.522 169.252 799.522 168.388C799.522 167.525 799.707 166.762 800.077 166.101C800.447 165.439 800.963 164.923 801.625 164.553C802.286 164.172 803.043 163.981 803.895 163.981C804.759 163.981 805.521 164.172 806.183 164.553C806.844 164.923 807.36 165.439 807.73 166.101C808.1 166.762 808.285 167.525 808.285 168.388C808.285 169.252 808.1 170.014 807.73 170.676C807.36 171.337 806.844 171.859 806.183 172.24C805.532 172.61 804.781 172.795 803.929 172.795ZM803.929 170.743C804.344 170.743 804.708 170.642 805.022 170.44C805.336 170.238 805.577 169.964 805.745 169.616C805.925 169.257 806.014 168.848 806.014 168.388C806.014 167.928 805.925 167.525 805.745 167.177C805.566 166.818 805.314 166.538 804.988 166.336C804.675 166.134 804.31 166.033 803.895 166.033C803.492 166.033 803.127 166.134 802.802 166.336C802.488 166.538 802.241 166.818 802.062 167.177C801.882 167.525 801.793 167.928 801.793 168.388C801.793 168.848 801.882 169.257 802.062 169.616C802.241 169.964 802.494 170.238 802.819 170.44C803.144 170.642 803.514 170.743 803.929 170.743ZM816.885 172.795C816.056 172.795 815.321 172.61 814.682 172.24C814.043 171.859 813.538 171.337 813.168 170.676C812.81 170.014 812.63 169.252 812.63 168.388C812.63 167.525 812.815 166.762 813.185 166.101C813.566 165.439 814.082 164.923 814.733 164.553C815.394 164.172 816.151 163.981 817.003 163.981C817.743 163.981 818.422 164.178 819.038 164.57C819.666 164.951 820.165 165.518 820.535 166.269C820.916 167.009 821.107 167.912 821.107 168.977H814.951C815.007 169.537 815.248 169.986 815.674 170.322C816.101 170.648 816.583 170.81 817.121 170.81C817.581 170.81 817.956 170.715 818.248 170.524C818.539 170.322 818.764 170.064 818.921 169.751L820.905 170.524C820.67 170.995 820.361 171.404 819.98 171.752C819.61 172.088 819.167 172.346 818.651 172.526C818.136 172.705 817.547 172.795 816.885 172.795ZM815.069 167.329H818.702C818.668 166.981 818.556 166.701 818.366 166.488C818.175 166.275 817.951 166.118 817.693 166.017C817.435 165.916 817.183 165.865 816.936 165.865C816.7 165.865 816.443 165.916 816.162 166.017C815.893 166.106 815.652 166.258 815.439 166.471C815.237 166.684 815.114 166.97 815.069 167.329ZM719.178 192.795C718.606 192.795 718.107 192.677 717.681 192.442C717.255 192.195 716.896 191.847 716.605 191.399L716.52 192.593H714.418V180.819H716.638V185.327C716.919 184.89 717.272 184.559 717.698 184.335C718.124 184.099 718.617 183.981 719.178 183.981C719.952 183.981 720.619 184.161 721.179 184.52C721.751 184.879 722.194 185.389 722.508 186.05C722.822 186.701 722.979 187.48 722.979 188.388C722.979 189.285 722.822 190.064 722.508 190.726C722.194 191.388 721.751 191.898 721.179 192.257C720.619 192.615 719.952 192.795 719.178 192.795ZM718.606 190.76C719.01 190.76 719.363 190.659 719.666 190.457C719.98 190.255 720.226 189.975 720.406 189.616C720.585 189.257 720.675 188.848 720.675 188.388C720.675 187.928 720.585 187.519 720.406 187.16C720.238 186.802 719.996 186.527 719.683 186.336C719.38 186.134 719.027 186.033 718.623 186.033C718.242 186.033 717.9 186.134 717.597 186.336C717.294 186.538 717.059 186.818 716.891 187.177C716.722 187.525 716.638 187.928 716.638 188.388C716.638 188.848 716.722 189.257 716.891 189.616C717.059 189.975 717.289 190.255 717.58 190.457C717.883 190.659 718.225 190.76 718.606 190.76ZM728.054 192.795C727.201 192.795 726.439 192.61 725.766 192.24C725.105 191.859 724.583 191.337 724.202 190.676C723.832 190.014 723.647 189.252 723.647 188.388C723.647 187.525 723.832 186.762 724.202 186.101C724.572 185.439 725.088 184.923 725.749 184.553C726.411 184.172 727.168 183.981 728.02 183.981C728.883 183.981 729.646 184.172 730.307 184.553C730.969 184.923 731.485 185.439 731.855 186.101C732.225 186.762 732.41 187.525 732.41 188.388C732.41 189.252 732.225 190.014 731.855 190.676C731.485 191.337 730.969 191.859 730.307 192.24C729.657 192.61 728.906 192.795 728.054 192.795ZM728.054 190.743C728.468 190.743 728.833 190.642 729.147 190.44C729.461 190.238 729.702 189.964 729.87 189.616C730.05 189.257 730.139 188.848 730.139 188.388C730.139 187.928 730.05 187.525 729.87 187.177C729.691 186.818 729.438 186.538 729.113 186.336C728.799 186.134 728.435 186.033 728.02 186.033C727.616 186.033 727.252 186.134 726.927 186.336C726.613 186.538 726.366 186.818 726.187 187.177C726.007 187.525 725.918 187.928 725.918 188.388C725.918 188.848 726.007 189.257 726.187 189.616C726.366 189.964 726.618 190.238 726.944 190.44C727.269 190.642 727.639 190.743 728.054 190.743ZM736.262 192.795C735.253 192.795 734.468 192.571 733.908 192.122C733.358 191.674 733.084 191.04 733.084 190.221C733.084 189.324 733.381 188.652 733.975 188.203C734.58 187.743 735.427 187.514 736.515 187.514H738.499C738.421 186.998 738.258 186.605 738.012 186.336C737.765 186.056 737.412 185.916 736.952 185.916C736.593 185.916 736.268 185.994 735.976 186.151C735.685 186.308 735.438 186.549 735.236 186.874L733.285 186.202C733.442 185.843 733.672 185.495 733.975 185.159C734.278 184.811 734.67 184.531 735.152 184.318C735.646 184.094 736.246 183.981 736.952 183.981C737.804 183.981 738.511 184.144 739.071 184.469C739.643 184.794 740.064 185.254 740.333 185.848C740.613 186.432 740.748 187.127 740.736 187.934L740.686 192.593H738.617L738.583 191.617C738.37 191.999 738.068 192.29 737.675 192.492C737.294 192.694 736.823 192.795 736.262 192.795ZM736.632 190.945C736.991 190.945 737.316 190.861 737.608 190.692C737.899 190.524 738.129 190.306 738.298 190.036C738.466 189.767 738.55 189.487 738.55 189.195V189.162H737.288C736.56 189.162 736.055 189.252 735.775 189.431C735.494 189.599 735.354 189.84 735.354 190.154C735.354 190.401 735.466 190.597 735.691 190.743C735.915 190.877 736.229 190.945 736.632 190.945ZM745.315 192.795C744.776 192.795 744.272 192.716 743.801 192.559C743.33 192.391 742.915 192.156 742.556 191.853C742.197 191.539 741.917 191.158 741.715 190.709L743.616 189.835C743.784 190.104 744.014 190.339 744.305 190.541C744.597 190.732 744.933 190.827 745.315 190.827C745.685 190.827 745.971 190.777 746.172 190.676C746.374 190.563 746.475 190.406 746.475 190.205C746.475 190.003 746.391 189.857 746.223 189.767C746.066 189.666 745.847 189.582 745.567 189.515L744.793 189.313C743.986 189.1 743.347 188.764 742.876 188.304C742.416 187.833 742.186 187.295 742.186 186.689C742.186 185.826 742.461 185.159 743.01 184.688C743.571 184.217 744.362 183.981 745.382 183.981C745.909 183.981 746.397 184.06 746.845 184.217C747.305 184.374 747.697 184.593 748.023 184.873C748.348 185.153 748.572 185.478 748.695 185.848L746.862 186.689C746.784 186.465 746.593 186.286 746.29 186.151C745.987 186.005 745.685 185.933 745.382 185.933C745.079 185.933 744.844 186 744.676 186.134C744.519 186.258 744.44 186.432 744.44 186.656C744.44 186.802 744.519 186.925 744.676 187.026C744.833 187.115 745.057 187.194 745.348 187.261L746.442 187.53C746.991 187.665 747.428 187.884 747.753 188.186C748.09 188.478 748.331 188.809 748.477 189.179C748.634 189.537 748.712 189.891 748.712 190.238C748.712 190.743 748.561 191.191 748.258 191.584C747.967 191.965 747.563 192.262 747.047 192.475C746.542 192.688 745.965 192.795 745.315 192.795ZM753.423 195.957V184.183H755.509L755.61 185.377C755.89 184.929 756.243 184.587 756.669 184.352C757.107 184.105 757.611 183.981 758.183 183.981C758.957 183.981 759.624 184.161 760.185 184.52C760.757 184.879 761.199 185.389 761.513 186.05C761.827 186.701 761.984 187.48 761.984 188.388C761.984 189.285 761.827 190.064 761.513 190.726C761.199 191.388 760.757 191.898 760.185 192.257C759.624 192.615 758.957 192.795 758.183 192.795C757.623 192.795 757.129 192.677 756.703 192.442C756.277 192.206 755.924 191.875 755.643 191.449V195.957H753.423ZM757.611 190.76C758.015 190.76 758.368 190.659 758.671 190.457C758.985 190.255 759.232 189.975 759.411 189.616C759.59 189.257 759.68 188.848 759.68 188.388C759.68 187.928 759.59 187.519 759.411 187.16C759.243 186.802 759.002 186.527 758.688 186.336C758.385 186.134 758.032 186.033 757.628 186.033C757.247 186.033 756.905 186.134 756.602 186.336C756.299 186.538 756.064 186.818 755.896 187.177C755.728 187.525 755.643 187.928 755.643 188.388C755.643 188.848 755.728 189.257 755.896 189.616C756.064 189.975 756.294 190.255 756.585 190.457C756.888 190.659 757.23 190.76 757.611 190.76ZM763.104 192.593V184.183H765.324V185.731C765.672 185.204 766.109 184.811 766.636 184.553C767.175 184.284 767.73 184.15 768.302 184.15V186.303C767.786 186.303 767.298 186.364 766.838 186.488C766.39 186.611 766.025 186.813 765.745 187.093C765.465 187.373 765.324 187.732 765.324 188.17V192.593H763.104ZM771.866 192.795C770.857 192.795 770.072 192.571 769.511 192.122C768.962 191.674 768.687 191.04 768.687 190.221C768.687 189.324 768.984 188.652 769.578 188.203C770.184 187.743 771.03 187.514 772.118 187.514H774.103C774.024 186.998 773.862 186.605 773.615 186.336C773.368 186.056 773.015 185.916 772.555 185.916C772.196 185.916 771.871 185.994 771.58 186.151C771.288 186.308 771.042 186.549 770.84 186.874L768.889 186.202C769.046 185.843 769.275 185.495 769.578 185.159C769.881 184.811 770.273 184.531 770.756 184.318C771.249 184.094 771.849 183.981 772.555 183.981C773.407 183.981 774.114 184.144 774.675 184.469C775.246 184.794 775.667 185.254 775.936 185.848C776.216 186.432 776.351 187.127 776.34 187.934L776.289 192.593H774.22L774.187 191.617C773.974 191.999 773.671 192.29 773.279 192.492C772.897 192.694 772.426 192.795 771.866 192.795ZM772.236 190.945C772.595 190.945 772.92 190.861 773.211 190.692C773.503 190.524 773.733 190.306 773.901 190.036C774.069 189.767 774.153 189.487 774.153 189.195V189.162H772.892C772.163 189.162 771.658 189.252 771.378 189.431C771.098 189.599 770.957 189.84 770.957 190.154C770.957 190.401 771.07 190.597 771.294 190.743C771.518 190.877 771.832 190.945 772.236 190.945ZM771.008 183.141L772.925 180.819H775.415L773.245 183.141H771.008ZM781.155 192.795C780.225 192.795 779.518 192.565 779.036 192.105C778.565 191.646 778.33 190.99 778.33 190.137V186.067H776.967V184.183H778.33V181.559H780.55V184.183H782.652V186.067H780.55V189.65C780.55 190.008 780.628 190.283 780.785 190.474C780.942 190.653 781.172 190.743 781.475 190.743C781.587 190.743 781.71 190.72 781.845 190.676C781.98 190.62 782.12 190.541 782.265 190.44L783.039 192.105C782.77 192.307 782.467 192.47 782.131 192.593C781.806 192.728 781.481 192.795 781.155 192.795ZM784.256 192.593V184.183H786.476V192.593H784.256ZM785.366 182.821C785.03 182.821 784.732 182.698 784.475 182.451C784.217 182.193 784.088 181.89 784.088 181.543C784.088 181.195 784.217 180.898 784.475 180.651C784.732 180.393 785.03 180.264 785.366 180.264C785.714 180.264 786.011 180.393 786.257 180.651C786.515 180.898 786.644 181.195 786.644 181.543C786.644 181.89 786.515 182.193 786.257 182.451C786.011 182.698 785.714 182.821 785.366 182.821ZM792.24 192.795C791.366 192.795 790.587 192.61 789.903 192.24C789.219 191.859 788.686 191.337 788.305 190.676C787.923 190.003 787.733 189.24 787.733 188.388C787.733 187.525 787.923 186.762 788.305 186.101C788.686 185.439 789.213 184.923 789.886 184.553C790.558 184.172 791.332 183.981 792.207 183.981C793.048 183.981 793.816 184.189 794.511 184.604C795.206 185.019 795.711 185.619 796.025 186.403L793.939 187.144C793.782 186.818 793.536 186.56 793.199 186.37C792.874 186.168 792.51 186.067 792.106 186.067C791.691 186.067 791.327 186.168 791.013 186.37C790.699 186.56 790.452 186.83 790.273 187.177C790.093 187.525 790.003 187.928 790.003 188.388C790.003 188.848 790.093 189.252 790.273 189.599C790.452 189.936 790.704 190.205 791.029 190.406C791.355 190.608 791.725 190.709 792.139 190.709C792.543 190.709 792.908 190.603 793.233 190.39C793.569 190.177 793.816 189.896 793.973 189.549L796.075 190.289C795.75 191.085 795.24 191.702 794.545 192.139C793.861 192.576 793.093 192.795 792.24 192.795ZM799.757 192.795C798.748 192.795 797.963 192.571 797.402 192.122C796.853 191.674 796.578 191.04 796.578 190.221C796.578 189.324 796.875 188.652 797.47 188.203C798.075 187.743 798.922 187.514 800.009 187.514H801.994C801.915 186.998 801.753 186.605 801.506 186.336C801.26 186.056 800.906 185.916 800.447 185.916C800.088 185.916 799.763 185.994 799.471 186.151C799.18 186.308 798.933 186.549 798.731 186.874L796.78 186.202C796.937 185.843 797.167 185.495 797.47 185.159C797.772 184.811 798.165 184.531 798.647 184.318C799.14 184.094 799.74 183.981 800.447 183.981C801.299 183.981 802.005 184.144 802.566 184.469C803.138 184.794 803.558 185.254 803.827 185.848C804.108 186.432 804.242 187.127 804.231 187.934L804.18 192.593H802.112L802.078 191.617C801.865 191.999 801.562 192.29 801.17 192.492C800.789 192.694 800.318 192.795 799.757 192.795ZM800.127 190.945C800.486 190.945 800.811 190.861 801.103 190.692C801.394 190.524 801.624 190.306 801.792 190.036C801.96 189.767 802.044 189.487 802.044 189.195V189.162H800.783C800.054 189.162 799.55 189.252 799.269 189.431C798.989 189.599 798.849 189.84 798.849 190.154C798.849 190.401 798.961 190.597 799.185 190.743C799.409 190.877 799.723 190.945 800.127 190.945ZM808.809 192.795C808.271 192.795 807.766 192.716 807.295 192.559C806.825 192.391 806.41 192.156 806.051 191.853C805.692 191.539 805.412 191.158 805.21 190.709L807.11 189.835C807.279 190.104 807.509 190.339 807.8 190.541C808.092 190.732 808.428 190.827 808.809 190.827C809.179 190.827 809.465 190.777 809.667 190.676C809.869 190.563 809.97 190.406 809.97 190.205C809.97 190.003 809.886 189.857 809.717 189.767C809.561 189.666 809.342 189.582 809.062 189.515L808.288 189.313C807.481 189.1 806.841 188.764 806.37 188.304C805.911 187.833 805.681 187.295 805.681 186.689C805.681 185.826 805.956 185.159 806.505 184.688C807.066 184.217 807.856 183.981 808.877 183.981C809.404 183.981 809.891 184.06 810.34 184.217C810.8 184.374 811.192 184.593 811.517 184.873C811.842 185.153 812.067 185.478 812.19 185.848L810.357 186.689C810.278 186.465 810.088 186.286 809.785 186.151C809.482 186.005 809.179 185.933 808.877 185.933C808.574 185.933 808.338 186 808.17 186.134C808.013 186.258 807.935 186.432 807.935 186.656C807.935 186.802 808.013 186.925 808.17 187.026C808.327 187.115 808.551 187.194 808.843 187.261L809.936 187.53C810.486 187.665 810.923 187.884 811.248 188.186C811.584 188.478 811.826 188.809 811.971 189.179C812.128 189.537 812.207 189.891 812.207 190.238C812.207 190.743 812.055 191.191 811.753 191.584C811.461 191.965 811.057 192.262 810.542 192.475C810.037 192.688 809.46 192.795 808.809 192.795Z" fill="#2A1632"/>
<path d="M850.952 175.892C850.565 175.892 850.251 176.206 850.251 176.593C850.251 176.98 850.565 177.294 850.952 177.294V176.593V175.892ZM956.569 177.089C956.842 176.815 956.842 176.371 956.569 176.097L952.109 171.638C951.835 171.364 951.391 171.364 951.117 171.638C950.844 171.911 950.844 172.355 951.117 172.629L955.082 176.593L951.117 180.557C950.844 180.831 950.844 181.275 951.117 181.548C951.391 181.822 951.835 181.822 952.109 181.548L956.569 177.089ZM850.952 176.593V177.294L956.073 177.294V176.593V175.892L850.952 175.892V176.593Z" fill="#FF1596"/>
<rect x="956.073" y="96" width="175.903" height="161.186" rx="16.8194" fill="#F1DBFB"/>
<path d="M992.956 172.795C991.812 172.795 990.797 172.537 989.912 172.021C989.026 171.494 988.331 170.777 987.826 169.868C987.321 168.949 987.069 167.895 987.069 166.706C987.069 165.518 987.321 164.469 987.826 163.561C988.331 162.642 989.02 161.924 989.895 161.408C990.781 160.881 991.795 160.618 992.939 160.618C993.746 160.618 994.498 160.763 995.193 161.055C995.888 161.335 996.494 161.733 997.009 162.249C997.536 162.754 997.94 163.337 998.22 163.998L996.084 164.789C995.894 164.374 995.641 164.015 995.327 163.712C995.013 163.398 994.655 163.157 994.251 162.989C993.847 162.81 993.41 162.72 992.939 162.72C992.255 162.72 991.644 162.894 991.106 163.241C990.579 163.578 990.164 164.043 989.861 164.637C989.57 165.232 989.424 165.921 989.424 166.706C989.424 167.491 989.575 168.186 989.878 168.792C990.181 169.386 990.601 169.857 991.139 170.205C991.678 170.541 992.294 170.709 992.99 170.709C993.472 170.709 993.909 170.62 994.301 170.44C994.705 170.25 995.058 169.992 995.361 169.666C995.675 169.341 995.927 168.966 996.118 168.54L998.254 169.313C997.974 169.997 997.57 170.603 997.043 171.13C996.527 171.657 995.922 172.066 995.227 172.358C994.531 172.649 993.774 172.795 992.956 172.795ZM1003.24 172.795C1002.39 172.795 1001.63 172.61 1000.96 172.24C1000.29 171.859 999.772 171.337 999.391 170.676C999.021 170.014 998.836 169.252 998.836 168.388C998.836 167.525 999.021 166.762 999.391 166.101C999.761 165.439 1000.28 164.923 1000.94 164.553C1001.6 164.172 1002.36 163.981 1003.21 163.981C1004.07 163.981 1004.84 164.172 1005.5 164.553C1006.16 164.923 1006.67 165.439 1007.04 166.101C1007.41 166.762 1007.6 167.525 1007.6 168.388C1007.6 169.252 1007.41 170.014 1007.04 170.676C1006.67 171.337 1006.16 171.859 1005.5 172.24C1004.85 172.61 1004.09 172.795 1003.24 172.795ZM1003.24 170.743C1003.66 170.743 1004.02 170.642 1004.34 170.44C1004.65 170.238 1004.89 169.964 1005.06 169.616C1005.24 169.257 1005.33 168.848 1005.33 168.388C1005.33 167.928 1005.24 167.525 1005.06 167.177C1004.88 166.818 1004.63 166.538 1004.3 166.336C1003.99 166.134 1003.62 166.033 1003.21 166.033C1002.81 166.033 1002.44 166.134 1002.12 166.336C1001.8 166.538 1001.56 166.818 1001.38 167.177C1001.2 167.525 1001.11 167.928 1001.11 168.388C1001.11 168.848 1001.2 169.257 1001.38 169.616C1001.56 169.964 1001.81 170.238 1002.13 170.44C1002.46 170.642 1002.83 170.743 1003.24 170.743ZM1001.75 163.141L1003.66 160.819H1006.15L1003.98 163.141H1001.75ZM1012.07 172.795C1011.3 172.795 1010.63 172.615 1010.06 172.257C1009.49 171.898 1009.06 171.388 1008.74 170.726C1008.43 170.064 1008.27 169.285 1008.27 168.388C1008.27 167.48 1008.43 166.701 1008.74 166.05C1009.06 165.389 1009.49 164.879 1010.06 164.52C1010.63 164.161 1011.3 163.981 1012.07 163.981C1012.62 163.981 1013.11 164.099 1013.54 164.335C1013.97 164.559 1014.33 164.884 1014.6 165.31V160.819H1016.82V172.593H1014.71L1014.65 171.416C1014.37 171.853 1014.01 172.195 1013.57 172.442C1013.13 172.677 1012.63 172.795 1012.07 172.795ZM1012.65 170.76C1013.02 170.76 1013.34 170.67 1013.62 170.491C1013.91 170.3 1014.14 170.036 1014.31 169.7C1014.48 169.364 1014.57 168.982 1014.6 168.556V168.22C1014.57 167.794 1014.48 167.418 1014.31 167.093C1014.14 166.757 1013.91 166.499 1013.62 166.319C1013.33 166.129 1013 166.033 1012.63 166.033C1012.23 166.033 1011.87 166.134 1011.55 166.336C1011.25 166.527 1011.01 166.802 1010.83 167.16C1010.66 167.519 1010.58 167.928 1010.58 168.388C1010.58 168.848 1010.67 169.257 1010.85 169.616C1011.03 169.975 1011.27 170.255 1011.57 170.457C1011.88 170.659 1012.24 170.76 1012.65 170.76ZM1018.53 172.593V164.183H1020.75V172.593H1018.53ZM1019.64 162.821C1019.3 162.821 1019 162.698 1018.75 162.451C1018.49 162.193 1018.36 161.89 1018.36 161.543C1018.36 161.195 1018.49 160.898 1018.75 160.651C1019 160.393 1019.3 160.264 1019.64 160.264C1019.99 160.264 1020.28 160.393 1020.53 160.651C1020.79 160.898 1020.92 161.195 1020.92 161.543C1020.92 161.89 1020.79 162.193 1020.53 162.451C1020.28 162.698 1019.99 162.821 1019.64 162.821ZM1026.24 176.176C1025.6 176.176 1025.04 176.131 1024.54 176.041C1024.05 175.951 1023.64 175.834 1023.3 175.688C1022.96 175.542 1022.69 175.396 1022.48 175.25L1023.35 173.468C1023.51 173.557 1023.71 173.658 1023.97 173.77C1024.23 173.894 1024.54 173.995 1024.9 174.073C1025.26 174.163 1025.67 174.208 1026.14 174.208C1026.59 174.208 1026.98 174.118 1027.32 173.939C1027.67 173.77 1027.94 173.501 1028.13 173.131C1028.33 172.772 1028.43 172.313 1028.43 171.752V170.945C1028.15 171.382 1027.79 171.73 1027.34 171.988C1026.89 172.234 1026.38 172.358 1025.81 172.358C1025.03 172.358 1024.36 172.189 1023.79 171.853C1023.23 171.517 1022.79 171.046 1022.48 170.44C1022.16 169.835 1022 169.117 1022 168.287C1022 167.413 1022.16 166.656 1022.48 166.017C1022.79 165.366 1023.23 164.867 1023.79 164.52C1024.36 164.161 1025.03 163.981 1025.81 163.981C1026.38 163.981 1026.89 164.116 1027.34 164.385C1027.79 164.643 1028.15 165.013 1028.43 165.495V164.183H1030.65V171.685C1030.65 172.627 1030.47 173.434 1030.11 174.107C1029.75 174.791 1029.24 175.307 1028.58 175.654C1027.93 176.002 1027.15 176.176 1026.24 176.176ZM1026.45 170.491C1026.83 170.491 1027.16 170.395 1027.44 170.205C1027.73 170.003 1027.95 169.734 1028.11 169.397C1028.27 169.05 1028.35 168.657 1028.35 168.22C1028.35 167.771 1028.26 167.379 1028.09 167.043C1027.94 166.706 1027.71 166.443 1027.42 166.252C1027.14 166.061 1026.81 165.966 1026.43 165.966C1026.04 165.966 1025.69 166.061 1025.39 166.252C1025.08 166.443 1024.85 166.706 1024.68 167.043C1024.51 167.379 1024.42 167.771 1024.41 168.22C1024.42 168.657 1024.51 169.05 1024.68 169.397C1024.85 169.734 1025.08 170.003 1025.39 170.205C1025.7 170.395 1026.05 170.491 1026.45 170.491ZM1036.18 172.795C1035.32 172.795 1034.56 172.61 1033.89 172.24C1033.23 171.859 1032.71 171.337 1032.33 170.676C1031.95 170.014 1031.77 169.252 1031.77 168.388C1031.77 167.525 1031.95 166.762 1032.33 166.101C1032.7 165.439 1033.21 164.923 1033.87 164.553C1034.53 164.172 1035.29 163.981 1036.14 163.981C1037.01 163.981 1037.77 164.172 1038.43 164.553C1039.09 164.923 1039.61 165.439 1039.98 166.101C1040.35 166.762 1040.53 167.525 1040.53 168.388C1040.53 169.252 1040.35 170.014 1039.98 170.676C1039.61 171.337 1039.09 171.859 1038.43 172.24C1037.78 172.61 1037.03 172.795 1036.18 172.795ZM1036.18 170.743C1036.59 170.743 1036.96 170.642 1037.27 170.44C1037.58 170.238 1037.82 169.964 1037.99 169.616C1038.17 169.257 1038.26 168.848 1038.26 168.388C1038.26 167.928 1038.17 167.525 1037.99 167.177C1037.81 166.818 1037.56 166.538 1037.24 166.336C1036.92 166.134 1036.56 166.033 1036.14 166.033C1035.74 166.033 1035.37 166.134 1035.05 166.336C1034.74 166.538 1034.49 166.818 1034.31 167.177C1034.13 167.525 1034.04 167.928 1034.04 168.388C1034.04 168.848 1034.13 169.257 1034.31 169.616C1034.49 169.964 1034.74 170.238 1035.07 170.44C1035.39 170.642 1035.76 170.743 1036.18 170.743ZM1045.65 172.593V160.803H1047.96V165.512H1053.41V160.819H1055.71V172.593H1053.41V167.631H1047.96V172.593H1045.65ZM1060.42 172.593V162.922H1056.89V160.819H1066.24V162.922H1062.72V172.593H1060.42ZM1067.42 172.593V160.819H1069.92L1073.35 165.899L1076.78 160.819H1079.27V172.593H1076.99V164.419L1073.35 169.767L1069.72 164.436V172.593H1067.42ZM1081.5 172.593V160.819H1083.8V170.491H1088.99V172.593H1081.5ZM1097.35 172.795C1096.52 172.795 1095.79 172.61 1095.15 172.24C1094.51 171.859 1094 171.337 1093.63 170.676C1093.28 170.014 1093.1 169.252 1093.1 168.388C1093.1 167.525 1093.28 166.762 1093.65 166.101C1094.03 165.439 1094.55 164.923 1095.2 164.553C1095.86 164.172 1096.62 163.981 1097.47 163.981C1098.21 163.981 1098.89 164.178 1099.5 164.57C1100.13 164.951 1100.63 165.518 1101 166.269C1101.38 167.009 1101.57 167.912 1101.57 168.977H1095.42C1095.47 169.537 1095.71 169.986 1096.14 170.322C1096.57 170.648 1097.05 170.81 1097.59 170.81C1098.05 170.81 1098.42 170.715 1098.71 170.524C1099 170.322 1099.23 170.064 1099.39 169.751L1101.37 170.524C1101.14 170.995 1100.83 171.404 1100.45 171.752C1100.08 172.088 1099.63 172.346 1099.12 172.526C1098.6 172.705 1098.01 172.795 1097.35 172.795ZM1095.53 167.329H1099.17C1099.13 166.981 1099.02 166.701 1098.83 166.488C1098.64 166.275 1098.42 166.118 1098.16 166.017C1097.9 165.916 1097.65 165.865 1097.4 165.865C1097.17 165.865 1096.91 165.916 1096.63 166.017C1096.36 166.106 1096.12 166.258 1095.9 166.471C1095.7 166.684 1095.58 166.97 1095.53 167.329ZM1023.44 192.593V180.819H1027.81C1028.64 180.819 1029.38 180.982 1030.02 181.307C1030.66 181.632 1031.15 182.081 1031.51 182.653C1031.87 183.213 1032.05 183.869 1032.05 184.621C1032.05 185.394 1031.84 186.078 1031.43 186.673C1031.01 187.256 1030.47 187.699 1029.8 188.001L1032.52 192.593H1029.92L1027.51 188.422C1027.44 188.422 1027.37 188.422 1027.29 188.422C1027.22 188.422 1027.15 188.422 1027.07 188.422H1025.74V192.593H1023.44ZM1025.74 186.319H1027.83C1028.18 186.319 1028.49 186.246 1028.75 186.101C1029.04 185.955 1029.25 185.753 1029.41 185.495C1029.58 185.237 1029.66 184.946 1029.66 184.621C1029.66 184.116 1029.48 183.707 1029.11 183.393C1028.75 183.079 1028.28 182.922 1027.71 182.922H1025.74V186.319ZM1037.43 192.795C1036.6 192.795 1035.86 192.61 1035.22 192.24C1034.58 191.859 1034.08 191.337 1033.71 190.676C1033.35 190.014 1033.17 189.252 1033.17 188.388C1033.17 187.525 1033.36 186.762 1033.73 186.101C1034.11 185.439 1034.62 184.923 1035.27 184.553C1035.93 184.172 1036.69 183.981 1037.54 183.981C1038.28 183.981 1038.96 184.178 1039.58 184.57C1040.21 184.951 1040.71 185.518 1041.08 186.269C1041.46 187.009 1041.65 187.912 1041.65 188.977H1035.49C1035.55 189.537 1035.79 189.986 1036.21 190.322C1036.64 190.648 1037.12 190.81 1037.66 190.81C1038.12 190.81 1038.5 190.715 1038.79 190.524C1039.08 190.322 1039.3 190.064 1039.46 189.751L1041.45 190.524C1041.21 190.995 1040.9 191.404 1040.52 191.752C1040.15 192.088 1039.71 192.346 1039.19 192.526C1038.68 192.705 1038.09 192.795 1037.43 192.795ZM1035.61 187.329H1039.24C1039.21 186.981 1039.1 186.701 1038.91 186.488C1038.72 186.275 1038.49 186.118 1038.23 186.017C1037.98 185.916 1037.72 185.865 1037.48 185.865C1037.24 185.865 1036.98 185.916 1036.7 186.017C1036.43 186.106 1036.19 186.258 1035.98 186.471C1035.78 186.684 1035.65 186.97 1035.61 187.329ZM1045.33 192.795C1044.32 192.795 1043.53 192.571 1042.97 192.122C1042.42 191.674 1042.15 191.04 1042.15 190.221C1042.15 189.324 1042.44 188.652 1043.04 188.203C1043.64 187.743 1044.49 187.514 1045.58 187.514H1047.56C1047.48 186.998 1047.32 186.605 1047.08 186.336C1046.83 186.056 1046.48 185.916 1046.02 185.916C1045.66 185.916 1045.33 185.994 1045.04 186.151C1044.75 186.308 1044.5 186.549 1044.3 186.874L1042.35 186.202C1042.51 185.843 1042.74 185.495 1043.04 185.159C1043.34 184.811 1043.73 184.531 1044.22 184.318C1044.71 184.094 1045.31 183.981 1046.02 183.981C1046.87 183.981 1047.57 184.144 1048.13 184.469C1048.71 184.794 1049.13 185.254 1049.4 185.848C1049.68 186.432 1049.81 187.127 1049.8 187.934L1049.75 192.593H1047.68L1047.65 191.617C1047.43 191.999 1047.13 192.29 1046.74 192.492C1046.36 192.694 1045.89 192.795 1045.33 192.795ZM1045.7 190.945C1046.05 190.945 1046.38 190.861 1046.67 190.692C1046.96 190.524 1047.19 190.306 1047.36 190.036C1047.53 189.767 1047.61 189.487 1047.61 189.195V189.162H1046.35C1045.62 189.162 1045.12 189.252 1044.84 189.431C1044.56 189.599 1044.42 189.84 1044.42 190.154C1044.42 190.401 1044.53 190.597 1044.75 190.743C1044.98 190.877 1045.29 190.945 1045.7 190.945ZM1055.29 192.795C1054.41 192.795 1053.63 192.61 1052.95 192.24C1052.26 191.859 1051.73 191.337 1051.35 190.676C1050.97 190.003 1050.78 189.24 1050.78 188.388C1050.78 187.525 1050.97 186.762 1051.35 186.101C1051.73 185.439 1052.26 184.923 1052.93 184.553C1053.6 184.172 1054.38 183.981 1055.25 183.981C1056.09 183.981 1056.86 184.189 1057.56 184.604C1058.25 185.019 1058.76 185.619 1059.07 186.403L1056.99 187.144C1056.83 186.818 1056.58 186.56 1056.25 186.37C1055.92 186.168 1055.56 186.067 1055.15 186.067C1054.74 186.067 1054.37 186.168 1054.06 186.37C1053.74 186.56 1053.5 186.83 1053.32 187.177C1053.14 187.525 1053.05 187.928 1053.05 188.388C1053.05 188.848 1053.14 189.252 1053.32 189.599C1053.5 189.936 1053.75 190.205 1054.08 190.406C1054.4 190.608 1054.77 190.709 1055.19 190.709C1055.59 190.709 1055.95 190.603 1056.28 190.39C1056.62 190.177 1056.86 189.896 1057.02 189.549L1059.12 190.289C1058.8 191.085 1058.29 191.702 1057.59 192.139C1056.91 192.576 1056.14 192.795 1055.29 192.795ZM1063.54 192.795C1062.61 192.795 1061.91 192.565 1061.42 192.105C1060.95 191.646 1060.72 190.99 1060.72 190.137V186.067H1059.36V184.183H1060.72V181.559H1062.94V184.183H1065.04V186.067H1062.94V189.65C1062.94 190.008 1063.02 190.283 1063.17 190.474C1063.33 190.653 1063.56 190.743 1063.86 190.743C1063.97 190.743 1064.1 190.72 1064.23 190.676C1064.37 190.62 1064.51 190.541 1064.65 190.44L1065.43 192.105C1065.16 192.307 1064.85 192.47 1064.52 192.593C1064.19 192.728 1063.87 192.795 1063.54 192.795Z" fill="#2A1632"/>
<path d="M1131.98 175.892C1131.59 175.892 1131.27 176.206 1131.27 176.593C1131.27 176.98 1131.59 177.294 1131.98 177.294V176.593V175.892ZM1237.59 177.089C1237.87 176.815 1237.87 176.371 1237.59 176.097L1233.13 171.638C1232.86 171.364 1232.42 171.364 1232.14 171.638C1231.87 171.911 1231.87 172.355 1232.14 172.629L1236.11 176.593L1232.14 180.557C1231.87 180.831 1231.87 181.275 1232.14 181.548C1232.42 181.822 1232.86 181.822 1233.13 181.548L1237.59 177.089ZM1131.98 176.593V177.294L1237.1 177.294V176.593V175.892L1131.98 175.892V176.593Z" fill="#FF1596"/>
<rect x="1237.1" y="96" width="175.903" height="161.186" rx="16.8194" fill="#F1DBFB"/>
<path d="M1269.72 172.593V160.819H1273.48C1274.68 160.819 1275.74 161.072 1276.66 161.576C1277.59 162.081 1278.32 162.776 1278.83 163.662C1279.36 164.537 1279.62 165.551 1279.62 166.706C1279.62 167.85 1279.36 168.865 1278.83 169.751C1278.32 170.636 1277.59 171.332 1276.66 171.836C1275.74 172.341 1274.68 172.593 1273.48 172.593H1269.72ZM1272.02 170.44H1273.48C1274.02 170.44 1274.52 170.345 1274.98 170.154C1275.44 169.964 1275.84 169.7 1276.17 169.364C1276.52 169.027 1276.79 168.635 1276.98 168.186C1277.17 167.727 1277.27 167.233 1277.27 166.706C1277.27 166.179 1277.17 165.691 1276.98 165.243C1276.79 164.783 1276.52 164.385 1276.17 164.049C1275.84 163.712 1275.44 163.449 1274.98 163.258C1274.52 163.068 1274.02 162.972 1273.48 162.972H1272.02V170.44ZM1284.79 172.795C1283.94 172.795 1283.17 172.61 1282.5 172.24C1281.84 171.859 1281.32 171.337 1280.94 170.676C1280.57 170.014 1280.38 169.252 1280.38 168.388C1280.38 167.525 1280.57 166.762 1280.94 166.101C1281.31 165.439 1281.82 164.923 1282.48 164.553C1283.15 164.172 1283.9 163.981 1284.76 163.981C1285.62 163.981 1286.38 164.172 1287.04 164.553C1287.7 164.923 1288.22 165.439 1288.59 166.101C1288.96 166.762 1289.15 167.525 1289.15 168.388C1289.15 169.252 1288.96 170.014 1288.59 170.676C1288.22 171.337 1287.7 171.859 1287.04 172.24C1286.39 172.61 1285.64 172.795 1284.79 172.795ZM1284.79 170.743C1285.2 170.743 1285.57 170.642 1285.88 170.44C1286.2 170.238 1286.44 169.964 1286.61 169.616C1286.78 169.257 1286.87 168.848 1286.87 168.388C1286.87 167.928 1286.78 167.525 1286.61 167.177C1286.43 166.818 1286.17 166.538 1285.85 166.336C1285.53 166.134 1285.17 166.033 1284.76 166.033C1284.35 166.033 1283.99 166.134 1283.66 166.336C1283.35 166.538 1283.1 166.818 1282.92 167.177C1282.74 167.525 1282.65 167.928 1282.65 168.388C1282.65 168.848 1282.74 169.257 1282.92 169.616C1283.1 169.964 1283.35 170.238 1283.68 170.44C1284 170.642 1284.37 170.743 1284.79 170.743ZM1294.33 172.795C1293.45 172.795 1292.67 172.61 1291.99 172.24C1291.3 171.859 1290.77 171.337 1290.39 170.676C1290.01 170.003 1289.82 169.24 1289.82 168.388C1289.82 167.525 1290.01 166.762 1290.39 166.101C1290.77 165.439 1291.3 164.923 1291.97 164.553C1292.64 164.172 1293.42 163.981 1294.29 163.981C1295.13 163.981 1295.9 164.189 1296.6 164.604C1297.29 165.019 1297.8 165.619 1298.11 166.403L1296.03 167.144C1295.87 166.818 1295.62 166.56 1295.29 166.37C1294.96 166.168 1294.6 166.067 1294.19 166.067C1293.78 166.067 1293.41 166.168 1293.1 166.37C1292.78 166.56 1292.54 166.83 1292.36 167.177C1292.18 167.525 1292.09 167.928 1292.09 168.388C1292.09 168.848 1292.18 169.252 1292.36 169.599C1292.54 169.936 1292.79 170.205 1293.12 170.406C1293.44 170.608 1293.81 170.709 1294.23 170.709C1294.63 170.709 1294.99 170.603 1295.32 170.39C1295.66 170.177 1295.9 169.896 1296.06 169.549L1298.16 170.289C1297.84 171.085 1297.33 171.702 1296.63 172.139C1295.95 172.576 1295.18 172.795 1294.33 172.795ZM1302.11 172.795C1301.44 172.795 1300.87 172.66 1300.4 172.391C1299.94 172.122 1299.58 171.707 1299.34 171.147C1299.09 170.575 1298.97 169.84 1298.97 168.943V164.183H1301.19V168.489C1301.19 169.05 1301.25 169.493 1301.37 169.818C1301.51 170.132 1301.69 170.362 1301.93 170.507C1302.17 170.642 1302.45 170.709 1302.75 170.709C1303.33 170.72 1303.78 170.547 1304.08 170.188C1304.38 169.818 1304.53 169.285 1304.53 168.59V164.183H1306.75V172.593H1304.67L1304.58 171.449C1304.3 171.875 1303.95 172.206 1303.52 172.442C1303.11 172.677 1302.64 172.795 1302.11 172.795ZM1308.34 172.593V164.183H1310.43L1310.53 165.277C1310.79 164.85 1311.12 164.531 1311.52 164.318C1311.92 164.094 1312.37 163.981 1312.87 163.981C1313.55 163.981 1314.12 164.127 1314.58 164.419C1315.05 164.71 1315.39 165.159 1315.61 165.764C1315.85 165.192 1316.2 164.755 1316.65 164.452C1317.1 164.138 1317.62 163.981 1318.21 163.981C1319.2 163.981 1319.95 164.295 1320.47 164.923C1320.98 165.54 1321.24 166.493 1321.24 167.783V172.593H1319.02V168.287C1319.02 167.715 1318.96 167.272 1318.84 166.959C1318.71 166.645 1318.55 166.42 1318.33 166.286C1318.12 166.14 1317.87 166.067 1317.58 166.067C1317.04 166.056 1316.62 166.23 1316.33 166.588C1316.04 166.947 1315.89 167.48 1315.89 168.186V172.593H1313.67V168.287C1313.67 167.715 1313.61 167.272 1313.49 166.959C1313.38 166.645 1313.21 166.42 1312.98 166.286C1312.77 166.14 1312.52 166.067 1312.23 166.067C1311.69 166.056 1311.27 166.23 1310.98 166.588C1310.7 166.947 1310.56 167.48 1310.56 168.186V172.593H1308.34ZM1326.47 172.795C1325.64 172.795 1324.91 172.61 1324.27 172.24C1323.63 171.859 1323.13 171.337 1322.76 170.676C1322.4 170.014 1322.22 169.252 1322.22 168.388C1322.22 167.525 1322.4 166.762 1322.77 166.101C1323.15 165.439 1323.67 164.923 1324.32 164.553C1324.98 164.172 1325.74 163.981 1326.59 163.981C1327.33 163.981 1328.01 164.178 1328.63 164.57C1329.25 164.951 1329.75 165.518 1330.12 166.269C1330.5 167.009 1330.7 167.912 1330.7 168.977H1324.54C1324.6 169.537 1324.84 169.986 1325.26 170.322C1325.69 170.648 1326.17 170.81 1326.71 170.81C1327.17 170.81 1327.54 170.715 1327.84 170.524C1328.13 170.322 1328.35 170.064 1328.51 169.751L1330.49 170.524C1330.26 170.995 1329.95 171.404 1329.57 171.752C1329.2 172.088 1328.76 172.346 1328.24 172.526C1327.72 172.705 1327.14 172.795 1326.47 172.795ZM1324.66 167.329H1328.29C1328.26 166.981 1328.14 166.701 1327.95 166.488C1327.76 166.275 1327.54 166.118 1327.28 166.017C1327.02 165.916 1326.77 165.865 1326.52 165.865C1326.29 165.865 1326.03 165.916 1325.75 166.017C1325.48 166.106 1325.24 166.258 1325.03 166.471C1324.83 166.684 1324.7 166.97 1324.66 167.329ZM1331.65 172.593V164.183H1333.73L1333.84 165.327C1334.1 164.89 1334.45 164.559 1334.86 164.335C1335.29 164.099 1335.77 163.981 1336.31 163.981C1336.97 163.981 1337.54 164.116 1338.01 164.385C1338.48 164.654 1338.84 165.075 1339.08 165.647C1339.33 166.207 1339.45 166.936 1339.44 167.833V172.593H1337.22V168.287C1337.22 167.715 1337.15 167.272 1337.01 166.959C1336.89 166.645 1336.71 166.42 1336.48 166.286C1336.24 166.14 1335.97 166.067 1335.65 166.067C1335.08 166.056 1334.64 166.23 1334.32 166.588C1334.02 166.947 1333.87 167.48 1333.87 168.186V172.593H1331.65ZM1344.34 172.795C1343.41 172.795 1342.7 172.565 1342.22 172.105C1341.75 171.646 1341.51 170.99 1341.51 170.137V166.067H1340.15V164.183H1341.51V161.559H1343.73V164.183H1345.83V166.067H1343.73V169.65C1343.73 170.008 1343.81 170.283 1343.97 170.474C1344.12 170.653 1344.35 170.743 1344.66 170.743C1344.77 170.743 1344.89 170.72 1345.03 170.676C1345.16 170.62 1345.3 170.541 1345.45 170.44L1346.22 172.105C1345.95 172.307 1345.65 172.47 1345.31 172.593C1344.99 172.728 1344.66 172.795 1344.34 172.795ZM1349.88 172.795C1348.87 172.795 1348.09 172.571 1347.53 172.122C1346.98 171.674 1346.7 171.04 1346.7 170.221C1346.7 169.324 1347 168.652 1347.59 168.203C1348.2 167.743 1349.04 167.514 1350.13 167.514H1352.12C1352.04 166.998 1351.88 166.605 1351.63 166.336C1351.38 166.056 1351.03 165.916 1350.57 165.916C1350.21 165.916 1349.89 165.994 1349.59 166.151C1349.3 166.308 1349.06 166.549 1348.85 166.874L1346.9 166.202C1347.06 165.843 1347.29 165.495 1347.59 165.159C1347.9 164.811 1348.29 164.531 1348.77 164.318C1349.26 164.094 1349.86 163.981 1350.57 163.981C1351.42 163.981 1352.13 164.144 1352.69 164.469C1353.26 164.794 1353.68 165.254 1353.95 165.848C1354.23 166.432 1354.37 167.127 1354.35 167.934L1354.3 172.593H1352.23L1352.2 171.617C1351.99 171.999 1351.69 172.29 1351.29 172.492C1350.91 172.694 1350.44 172.795 1349.88 172.795ZM1350.25 170.945C1350.61 170.945 1350.93 170.861 1351.23 170.692C1351.52 170.524 1351.75 170.306 1351.92 170.036C1352.08 169.767 1352.17 169.487 1352.17 169.195V169.162H1350.91C1350.18 169.162 1349.67 169.252 1349.39 169.431C1349.11 169.599 1348.97 169.84 1348.97 170.154C1348.97 170.401 1349.08 170.597 1349.31 170.743C1349.53 170.877 1349.85 170.945 1350.25 170.945ZM1359.84 172.795C1358.97 172.795 1358.19 172.61 1357.5 172.24C1356.82 171.859 1356.29 171.337 1355.9 170.676C1355.52 170.003 1355.33 169.24 1355.33 168.388C1355.33 167.525 1355.52 166.762 1355.9 166.101C1356.29 165.439 1356.81 164.923 1357.49 164.553C1358.16 164.172 1358.93 163.981 1359.81 163.981C1360.65 163.981 1361.42 164.189 1362.11 164.604C1362.81 165.019 1363.31 165.619 1363.62 166.403L1361.54 167.144C1361.38 166.818 1361.14 166.56 1360.8 166.37C1360.47 166.168 1360.11 166.067 1359.71 166.067C1359.29 166.067 1358.93 166.168 1358.61 166.37C1358.3 166.56 1358.05 166.83 1357.87 167.177C1357.69 167.525 1357.6 167.928 1357.6 168.388C1357.6 168.848 1357.69 169.252 1357.87 169.599C1358.05 169.936 1358.3 170.205 1358.63 170.406C1358.95 170.608 1359.32 170.709 1359.74 170.709C1360.14 170.709 1360.51 170.603 1360.83 170.39C1361.17 170.177 1361.42 169.896 1361.57 169.549L1363.68 170.289C1363.35 171.085 1362.84 171.702 1362.14 172.139C1361.46 172.576 1360.69 172.795 1359.84 172.795ZM1359.12 176.142C1358.87 176.142 1358.61 176.103 1358.34 176.024C1358.07 175.946 1357.79 175.822 1357.5 175.654L1357.84 174.595C1358.01 174.684 1358.17 174.757 1358.33 174.813C1358.5 174.869 1358.65 174.897 1358.78 174.897C1358.97 174.897 1359.13 174.864 1359.27 174.796C1359.4 174.729 1359.47 174.611 1359.47 174.443C1359.47 174.219 1359.38 174.051 1359.18 173.939C1359.01 173.826 1358.74 173.759 1358.38 173.737L1358.88 172.509L1360.16 172.61L1359.94 173.098C1360.33 173.232 1360.63 173.423 1360.82 173.669C1361.02 173.927 1361.12 174.208 1361.12 174.51C1361.12 174.993 1360.95 175.385 1360.61 175.688C1360.28 175.991 1359.78 176.142 1359.12 176.142ZM1367.36 172.795C1366.35 172.795 1365.56 172.571 1365 172.122C1364.45 171.674 1364.18 171.04 1364.18 170.221C1364.18 169.324 1364.48 168.652 1365.07 168.203C1365.68 167.743 1366.52 167.514 1367.61 167.514H1369.59C1369.52 166.998 1369.35 166.605 1369.11 166.336C1368.86 166.056 1368.51 165.916 1368.05 165.916C1367.69 165.916 1367.36 165.994 1367.07 166.151C1366.78 166.308 1366.53 166.549 1366.33 166.874L1364.38 166.202C1364.54 165.843 1364.77 165.495 1365.07 165.159C1365.37 164.811 1365.76 164.531 1366.25 164.318C1366.74 164.094 1367.34 163.981 1368.05 163.981C1368.9 163.981 1369.61 164.144 1370.17 164.469C1370.74 164.794 1371.16 165.254 1371.43 165.848C1371.71 166.432 1371.84 167.127 1371.83 167.934L1371.78 172.593H1369.71L1369.68 171.617C1369.47 171.999 1369.16 172.29 1368.77 172.492C1368.39 172.694 1367.92 172.795 1367.36 172.795ZM1367.73 170.945C1368.09 170.945 1368.41 170.861 1368.7 170.692C1368.99 170.524 1369.22 170.306 1369.39 170.036C1369.56 169.767 1369.64 169.487 1369.64 169.195V169.162H1368.38C1367.65 169.162 1367.15 169.252 1366.87 169.431C1366.59 169.599 1366.45 169.84 1366.45 170.154C1366.45 170.401 1366.56 170.597 1366.79 170.743C1367.01 170.877 1367.32 170.945 1367.73 170.945ZM1369.27 163.359C1368.9 163.359 1368.61 163.297 1368.38 163.174C1368.17 163.051 1368 162.911 1367.88 162.754C1367.76 162.597 1367.64 162.457 1367.53 162.333C1367.41 162.21 1367.27 162.148 1367.1 162.148C1366.97 162.148 1366.85 162.187 1366.75 162.266C1366.66 162.344 1366.58 162.518 1366.52 162.787H1365.02C1365.08 162.328 1365.18 161.946 1365.34 161.644C1365.51 161.33 1365.73 161.094 1366.01 160.937C1366.3 160.78 1366.65 160.702 1367.04 160.702C1367.43 160.702 1367.73 160.763 1367.95 160.887C1368.17 161.01 1368.35 161.15 1368.48 161.307C1368.62 161.464 1368.74 161.604 1368.85 161.728C1368.97 161.851 1369.11 161.913 1369.27 161.913C1369.44 161.913 1369.56 161.851 1369.63 161.728C1369.71 161.604 1369.76 161.447 1369.78 161.257H1371.28C1371.2 161.885 1371 162.395 1370.67 162.787C1370.36 163.169 1369.89 163.359 1369.27 163.359ZM1377.13 172.795C1376.28 172.795 1375.52 172.61 1374.85 172.24C1374.19 171.859 1373.66 171.337 1373.28 170.676C1372.91 170.014 1372.73 169.252 1372.73 168.388C1372.73 167.525 1372.91 166.762 1373.28 166.101C1373.65 165.439 1374.17 164.923 1374.83 164.553C1375.49 164.172 1376.25 163.981 1377.1 163.981C1377.96 163.981 1378.73 164.172 1379.39 164.553C1380.05 164.923 1380.57 165.439 1380.94 166.101C1381.31 166.762 1381.49 167.525 1381.49 168.388C1381.49 169.252 1381.31 170.014 1380.94 170.676C1380.57 171.337 1380.05 171.859 1379.39 172.24C1378.74 172.61 1377.99 172.795 1377.13 172.795ZM1377.13 170.743C1377.55 170.743 1377.91 170.642 1378.23 170.44C1378.54 170.238 1378.78 169.964 1378.95 169.616C1379.13 169.257 1379.22 168.848 1379.22 168.388C1379.22 167.928 1379.13 167.525 1378.95 167.177C1378.77 166.818 1378.52 166.538 1378.19 166.336C1377.88 166.134 1377.52 166.033 1377.1 166.033C1376.7 166.033 1376.33 166.134 1376.01 166.336C1375.69 166.538 1375.45 166.818 1375.27 167.177C1375.09 167.525 1375 167.928 1375 168.388C1375 168.848 1375.09 169.257 1375.27 169.616C1375.45 169.964 1375.7 170.238 1376.02 170.44C1376.35 170.642 1376.72 170.743 1377.13 170.743ZM1310.69 192.593V185.966H1309.29V184.183H1310.69V183.342C1310.69 182.445 1310.92 181.75 1311.37 181.257C1311.83 180.752 1312.54 180.5 1313.48 180.5C1313.8 180.5 1314.14 180.556 1314.5 180.668C1314.87 180.78 1315.21 180.915 1315.51 181.072L1314.69 182.67C1314.51 182.58 1314.35 182.513 1314.2 182.468C1314.05 182.423 1313.92 182.4 1313.8 182.4C1313.49 182.4 1313.27 182.507 1313.12 182.72C1312.98 182.922 1312.91 183.253 1312.91 183.712V184.183H1314.97V185.966H1312.91V192.593H1310.69ZM1316.25 192.593V184.183H1318.47V192.593H1316.25ZM1317.36 182.821C1317.02 182.821 1316.72 182.698 1316.46 182.451C1316.21 182.193 1316.08 181.89 1316.08 181.543C1316.08 181.195 1316.21 180.898 1316.46 180.651C1316.72 180.393 1317.02 180.264 1317.36 180.264C1317.7 180.264 1318 180.393 1318.25 180.651C1318.5 180.898 1318.63 181.195 1318.63 181.543C1318.63 181.89 1318.5 182.193 1318.25 182.451C1318 182.698 1317.7 182.821 1317.36 182.821ZM1320.18 192.593V184.183H1322.26L1322.36 185.327C1322.63 184.89 1322.97 184.559 1323.39 184.335C1323.81 184.099 1324.3 183.981 1324.84 183.981C1325.5 183.981 1326.06 184.116 1326.53 184.385C1327.01 184.654 1327.36 185.075 1327.61 185.647C1327.86 186.207 1327.97 186.936 1327.96 187.833V192.593H1325.74V188.287C1325.74 187.715 1325.68 187.272 1325.54 186.959C1325.42 186.645 1325.24 186.42 1325 186.286C1324.77 186.14 1324.49 186.067 1324.18 186.067C1323.61 186.056 1323.16 186.23 1322.85 186.588C1322.55 186.947 1322.4 187.48 1322.4 188.186V192.593H1320.18ZM1332.12 192.795C1331.11 192.795 1330.33 192.571 1329.77 192.122C1329.22 191.674 1328.95 191.04 1328.95 190.221C1328.95 189.324 1329.24 188.652 1329.84 188.203C1330.44 187.743 1331.29 187.514 1332.38 187.514H1334.36C1334.28 186.998 1334.12 186.605 1333.87 186.336C1333.63 186.056 1333.27 185.916 1332.81 185.916C1332.45 185.916 1332.13 185.994 1331.84 186.151C1331.55 186.308 1331.3 186.549 1331.1 186.874L1329.15 186.202C1329.3 185.843 1329.53 185.495 1329.84 185.159C1330.14 184.811 1330.53 184.531 1331.01 184.318C1331.51 184.094 1332.11 183.981 1332.81 183.981C1333.67 183.981 1334.37 184.144 1334.93 184.469C1335.5 184.794 1335.93 185.254 1336.19 185.848C1336.47 186.432 1336.61 187.127 1336.6 187.934L1336.55 192.593H1334.48L1334.45 191.617C1334.23 191.999 1333.93 192.29 1333.54 192.492C1333.16 192.694 1332.68 192.795 1332.12 192.795ZM1332.49 190.945C1332.85 190.945 1333.18 190.861 1333.47 190.692C1333.76 190.524 1333.99 190.306 1334.16 190.036C1334.33 189.767 1334.41 189.487 1334.41 189.195V189.162H1333.15C1332.42 189.162 1331.92 189.252 1331.64 189.431C1331.36 189.599 1331.22 189.84 1331.22 190.154C1331.22 190.401 1331.33 190.597 1331.55 190.743C1331.78 190.877 1332.09 190.945 1332.49 190.945ZM1338.03 192.593V180.819H1340.25V192.593H1338.03Z" fill="#2A1632"/>
</svg>
