<svg width="1526" height="354" viewBox="0 0 1526 354" fill="none" xmlns="http://www.w3.org/2000/svg">
<rect x="0.5" y="0.5" width="1525" height="352.186" rx="15.5" fill="white"/>
<rect x="0.5" y="0.5" width="1525" height="352.186" rx="15.5" stroke="#CCCDCB"/>
<rect x="113" y="96" width="175.903" height="161.186" rx="16.8194" fill="#00A8B5"/>
<path d="M141.881 182.593V170.819H144.387L147.819 175.899L151.25 170.819H153.739V182.593H151.452V174.419L147.819 179.767L144.186 174.436V182.593H141.881ZM158.371 182.795C157.362 182.795 156.577 182.571 156.017 182.122C155.467 181.674 155.193 181.04 155.193 180.221C155.193 179.324 155.49 178.652 156.084 178.203C156.689 177.743 157.536 177.514 158.624 177.514H160.608C160.53 176.998 160.367 176.605 160.121 176.336C159.874 176.056 159.521 175.916 159.061 175.916C158.702 175.916 158.377 175.994 158.085 176.151C157.794 176.308 157.547 176.549 157.345 176.874L155.394 176.202C155.551 175.843 155.781 175.495 156.084 175.159C156.387 174.811 156.779 174.531 157.261 174.318C157.755 174.094 158.355 173.981 159.061 173.981C159.913 173.981 160.62 174.144 161.18 174.469C161.752 174.794 162.173 175.254 162.442 175.848C162.722 176.432 162.857 177.127 162.845 177.934L162.795 182.593H160.726L160.692 181.617C160.479 181.999 160.177 182.29 159.784 182.492C159.403 182.694 158.932 182.795 158.371 182.795ZM158.741 180.945C159.1 180.945 159.425 180.861 159.717 180.692C160.008 180.524 160.238 180.306 160.407 180.036C160.575 179.767 160.659 179.487 160.659 179.195V179.162H159.397C158.669 179.162 158.164 179.252 157.884 179.431C157.603 179.599 157.463 179.84 157.463 180.154C157.463 180.401 157.575 180.597 157.8 180.743C158.024 180.877 158.338 180.945 158.741 180.945ZM164.278 182.593V174.183H166.499V175.731C166.846 175.204 167.283 174.811 167.81 174.553C168.349 174.284 168.904 174.15 169.476 174.15V176.303C168.96 176.303 168.472 176.364 168.012 176.488C167.564 176.611 167.199 176.813 166.919 177.093C166.639 177.373 166.499 177.732 166.499 178.17V182.593H164.278ZM170.315 182.593V170.819H172.535V177.312L175.411 174.183H178.052L174.873 177.732L178.304 182.593H175.697L173.46 179.33L172.535 180.339V182.593H170.315ZM182.387 182.795C181.557 182.795 180.822 182.61 180.183 182.24C179.544 181.859 179.04 181.337 178.67 180.676C178.311 180.014 178.131 179.252 178.131 178.388C178.131 177.525 178.316 176.762 178.686 176.101C179.068 175.439 179.583 174.923 180.234 174.553C180.895 174.172 181.652 173.981 182.504 173.981C183.244 173.981 183.923 174.178 184.539 174.57C185.167 174.951 185.666 175.518 186.036 176.269C186.418 177.009 186.608 177.912 186.608 178.977H180.452C180.508 179.537 180.75 179.986 181.176 180.322C181.602 180.648 182.084 180.81 182.622 180.81C183.082 180.81 183.457 180.715 183.749 180.524C184.041 180.322 184.265 180.064 184.422 179.751L186.406 180.524C186.171 180.995 185.863 181.404 185.481 181.752C185.111 182.088 184.668 182.346 184.153 182.526C183.637 182.705 183.048 182.795 182.387 182.795ZM180.57 177.329H184.203C184.169 176.981 184.057 176.701 183.867 176.488C183.676 176.275 183.452 176.118 183.194 176.017C182.936 175.916 182.684 175.865 182.437 175.865C182.202 175.865 181.944 175.916 181.663 176.017C181.394 176.106 181.153 176.258 180.94 176.471C180.738 176.684 180.615 176.97 180.57 177.329ZM191.027 182.795C190.096 182.795 189.39 182.565 188.908 182.105C188.437 181.646 188.201 180.99 188.201 180.137V176.067H186.839V174.183H188.201V171.559H190.421V174.183H192.524V176.067H190.421V179.65C190.421 180.008 190.5 180.283 190.657 180.474C190.814 180.653 191.044 180.743 191.346 180.743C191.459 180.743 191.582 180.72 191.717 180.676C191.851 180.62 191.991 180.541 192.137 180.44L192.911 182.105C192.642 182.307 192.339 182.47 192.002 182.593C191.677 182.728 191.352 182.795 191.027 182.795ZM197.664 182.593V174.183H199.884V175.731C200.232 175.204 200.669 174.811 201.196 174.553C201.735 174.284 202.29 174.15 202.861 174.15V176.303C202.346 176.303 201.858 176.364 201.398 176.488C200.95 176.611 200.585 176.813 200.305 177.093C200.025 177.373 199.884 177.732 199.884 178.17V182.593H197.664ZM207.502 182.795C206.672 182.795 205.938 182.61 205.299 182.24C204.66 181.859 204.155 181.337 203.785 180.676C203.426 180.014 203.247 179.252 203.247 178.388C203.247 177.525 203.432 176.762 203.802 176.101C204.183 175.439 204.699 174.923 205.349 174.553C206.011 174.172 206.768 173.981 207.62 173.981C208.36 173.981 209.038 174.178 209.655 174.57C210.283 174.951 210.782 175.518 211.152 176.269C211.533 177.009 211.724 177.912 211.724 178.977H205.568C205.624 179.537 205.865 179.986 206.291 180.322C206.717 180.648 207.199 180.81 207.738 180.81C208.197 180.81 208.573 180.715 208.864 180.524C209.156 180.322 209.38 180.064 209.537 179.751L211.522 180.524C211.286 180.995 210.978 181.404 210.597 181.752C210.227 182.088 209.784 182.346 209.268 182.526C208.752 182.705 208.164 182.795 207.502 182.795ZM205.686 177.329H209.319C209.285 176.981 209.173 176.701 208.982 176.488C208.792 176.275 208.567 176.118 208.309 176.017C208.051 175.916 207.799 175.865 207.553 175.865C207.317 175.865 207.059 175.916 206.779 176.017C206.51 176.106 206.269 176.258 206.056 176.471C205.854 176.684 205.73 176.97 205.686 177.329ZM215.823 182.795C215.285 182.795 214.78 182.716 214.309 182.559C213.838 182.391 213.423 182.156 213.064 181.853C212.706 181.539 212.425 181.158 212.223 180.709L214.124 179.835C214.292 180.104 214.522 180.339 214.814 180.541C215.105 180.732 215.442 180.827 215.823 180.827C216.193 180.827 216.479 180.777 216.681 180.676C216.882 180.563 216.983 180.406 216.983 180.205C216.983 180.003 216.899 179.857 216.731 179.767C216.574 179.666 216.355 179.582 216.075 179.515L215.301 179.313C214.494 179.1 213.855 178.764 213.384 178.304C212.924 177.833 212.694 177.295 212.694 176.689C212.694 175.826 212.969 175.159 213.519 174.688C214.079 174.217 214.87 173.981 215.89 173.981C216.417 173.981 216.905 174.06 217.353 174.217C217.813 174.374 218.206 174.593 218.531 174.873C218.856 175.153 219.08 175.478 219.204 175.848L217.37 176.689C217.292 176.465 217.101 176.286 216.798 176.151C216.496 176.005 216.193 175.933 215.89 175.933C215.587 175.933 215.352 176 215.184 176.134C215.027 176.258 214.948 176.432 214.948 176.656C214.948 176.802 215.027 176.925 215.184 177.026C215.341 177.115 215.565 177.194 215.856 177.261L216.95 177.53C217.499 177.665 217.936 177.884 218.262 178.186C218.598 178.478 218.839 178.809 218.985 179.179C219.142 179.537 219.22 179.891 219.22 180.238C219.22 180.743 219.069 181.191 218.766 181.584C218.475 181.965 218.071 182.262 217.555 182.475C217.051 182.688 216.473 182.795 215.823 182.795ZM223.977 182.795C223.147 182.795 222.413 182.61 221.774 182.24C221.135 181.859 220.63 181.337 220.26 180.676C219.901 180.014 219.722 179.252 219.722 178.388C219.722 177.525 219.907 176.762 220.277 176.101C220.658 175.439 221.174 174.923 221.824 174.553C222.486 174.172 223.243 173.981 224.095 173.981C224.835 173.981 225.513 174.178 226.13 174.57C226.758 174.951 227.257 175.518 227.627 176.269C228.008 177.009 228.199 177.912 228.199 178.977H222.043C222.099 179.537 222.34 179.986 222.766 180.322C223.192 180.648 223.674 180.81 224.213 180.81C224.672 180.81 225.048 180.715 225.34 180.524C225.631 180.322 225.855 180.064 226.012 179.751L227.997 180.524C227.762 180.995 227.453 181.404 227.072 181.752C226.702 182.088 226.259 182.346 225.743 182.526C225.227 182.705 224.639 182.795 223.977 182.795ZM222.161 177.329H225.794C225.76 176.981 225.648 176.701 225.457 176.488C225.267 176.275 225.042 176.118 224.785 176.017C224.527 175.916 224.274 175.865 224.028 175.865C223.792 175.865 223.534 175.916 223.254 176.017C222.985 176.106 222.744 176.258 222.531 176.471C222.329 176.684 222.206 176.97 222.161 177.329ZM231.877 182.795C230.868 182.795 230.083 182.571 229.523 182.122C228.973 181.674 228.699 181.04 228.699 180.221C228.699 179.324 228.996 178.652 229.59 178.203C230.196 177.743 231.042 177.514 232.13 177.514H234.114C234.036 176.998 233.873 176.605 233.627 176.336C233.38 176.056 233.027 175.916 232.567 175.916C232.208 175.916 231.883 175.994 231.592 176.151C231.3 176.308 231.053 176.549 230.851 176.874L228.9 176.202C229.057 175.843 229.287 175.495 229.59 175.159C229.893 174.811 230.285 174.531 230.767 174.318C231.261 174.094 231.861 173.981 232.567 173.981C233.419 173.981 234.126 174.144 234.686 174.469C235.258 174.794 235.679 175.254 235.948 175.848C236.228 176.432 236.363 177.127 236.351 177.934L236.301 182.593H234.232L234.199 181.617C233.985 181.999 233.683 182.29 233.29 182.492C232.909 182.694 232.438 182.795 231.877 182.795ZM232.247 180.945C232.606 180.945 232.931 180.861 233.223 180.692C233.515 180.524 233.744 180.306 233.913 180.036C234.081 179.767 234.165 179.487 234.165 179.195V179.162H232.903C232.175 179.162 231.67 179.252 231.39 179.431C231.109 179.599 230.969 179.84 230.969 180.154C230.969 180.401 231.081 180.597 231.306 180.743C231.53 180.877 231.844 180.945 232.247 180.945ZM237.784 182.593V174.183H240.005V175.731C240.352 175.204 240.79 174.811 241.317 174.553C241.855 174.284 242.41 174.15 242.982 174.15V176.303C242.466 176.303 241.978 176.364 241.518 176.488C241.07 176.611 240.705 176.813 240.425 177.093C240.145 177.373 240.005 177.732 240.005 178.17V182.593H237.784ZM247.875 182.795C247 182.795 246.221 182.61 245.537 182.24C244.853 181.859 244.32 181.337 243.939 180.676C243.558 180.003 243.367 179.24 243.367 178.388C243.367 177.525 243.558 176.762 243.939 176.101C244.32 175.439 244.847 174.923 245.52 174.553C246.193 174.172 246.966 173.981 247.841 173.981C248.682 173.981 249.45 174.189 250.145 174.604C250.84 175.019 251.345 175.619 251.659 176.403L249.573 177.144C249.416 176.818 249.17 176.56 248.833 176.37C248.508 176.168 248.144 176.067 247.74 176.067C247.325 176.067 246.961 176.168 246.647 176.37C246.333 176.56 246.086 176.83 245.907 177.177C245.727 177.525 245.638 177.928 245.638 178.388C245.638 178.848 245.727 179.252 245.907 179.599C246.086 179.936 246.338 180.205 246.664 180.406C246.989 180.608 247.359 180.709 247.774 180.709C248.177 180.709 248.542 180.603 248.867 180.39C249.203 180.177 249.45 179.896 249.607 179.549L251.709 180.289C251.384 181.085 250.874 181.702 250.179 182.139C249.495 182.576 248.727 182.795 247.875 182.795ZM252.683 182.593V170.819H254.903V175.26C255.184 174.845 255.531 174.531 255.946 174.318C256.361 174.094 256.826 173.981 257.342 173.981C258.015 173.981 258.581 174.116 259.041 174.385C259.512 174.654 259.871 175.075 260.117 175.647C260.364 176.207 260.487 176.936 260.487 177.833V182.593H258.267V178.287C258.267 177.715 258.2 177.272 258.065 176.959C257.931 176.645 257.746 176.42 257.51 176.286C257.275 176.14 257 176.067 256.686 176.067C256.114 176.056 255.671 176.23 255.357 176.588C255.055 176.947 254.903 177.48 254.903 178.186V182.593H252.683Z" fill="black"/>
<path d="M288.903 175.892C288.516 175.892 288.202 176.206 288.202 176.593C288.202 176.98 288.516 177.294 288.903 177.294V176.593V175.892ZM394.52 177.089C394.793 176.815 394.793 176.371 394.52 176.097L390.06 171.638C389.786 171.364 389.342 171.364 389.069 171.638C388.795 171.911 388.795 172.355 389.069 172.629L393.033 176.593L389.069 180.557C388.795 180.831 388.795 181.275 389.069 181.548C389.342 181.822 389.786 181.822 390.06 181.548L394.52 177.089ZM288.903 176.593V177.294L394.024 177.294V176.593V175.892L288.903 175.892V176.593Z" fill="#7E837C"/>
<rect x="394.024" y="96" width="175.903" height="161.186" rx="16.8194" fill="#00A8B5"/>
<path d="M448.695 162.593L444.002 150.819H446.475L449.956 159.868L453.404 150.819H455.877L451.201 162.593H448.695ZM456.763 162.593V154.183H458.983V162.593H456.763ZM457.873 152.821C457.536 152.821 457.239 152.698 456.981 152.451C456.723 152.193 456.595 151.89 456.595 151.543C456.595 151.195 456.723 150.898 456.981 150.651C457.239 150.393 457.536 150.264 457.873 150.264C458.22 150.264 458.518 150.393 458.764 150.651C459.022 150.898 459.151 151.195 459.151 151.543C459.151 151.89 459.022 152.193 458.764 152.451C458.518 152.698 458.22 152.821 457.873 152.821ZM463.839 162.795C463.301 162.795 462.796 162.716 462.325 162.559C461.854 162.391 461.439 162.156 461.081 161.853C460.722 161.539 460.441 161.158 460.24 160.709L462.14 159.835C462.308 160.104 462.538 160.339 462.83 160.541C463.121 160.732 463.458 160.827 463.839 160.827C464.209 160.827 464.495 160.777 464.697 160.676C464.899 160.563 465 160.406 465 160.205C465 160.003 464.915 159.857 464.747 159.767C464.59 159.666 464.372 159.582 464.091 159.515L463.318 159.313C462.51 159.1 461.871 158.764 461.4 158.304C460.94 157.833 460.711 157.295 460.711 156.689C460.711 155.826 460.985 155.159 461.535 154.688C462.095 154.217 462.886 153.981 463.906 153.981C464.433 153.981 464.921 154.06 465.37 154.217C465.829 154.374 466.222 154.593 466.547 154.873C466.872 155.153 467.096 155.478 467.22 155.848L465.386 156.689C465.308 156.465 465.117 156.286 464.815 156.151C464.512 156.005 464.209 155.933 463.906 155.933C463.604 155.933 463.368 156 463.2 156.134C463.043 156.258 462.964 156.432 462.964 156.656C462.964 156.802 463.043 156.925 463.2 157.026C463.357 157.115 463.581 157.194 463.873 157.261L464.966 157.53C465.515 157.665 465.953 157.884 466.278 158.186C466.614 158.478 466.855 158.809 467.001 159.179C467.158 159.537 467.236 159.891 467.236 160.238C467.236 160.743 467.085 161.191 466.782 161.584C466.491 161.965 466.087 162.262 465.571 162.475C465.067 162.688 464.489 162.795 463.839 162.795ZM471.186 162.795C470.513 162.795 469.941 162.66 469.47 162.391C469.011 162.122 468.658 161.707 468.411 161.147C468.164 160.575 468.041 159.84 468.041 158.943V154.183H470.261V158.489C470.261 159.05 470.323 159.493 470.446 159.818C470.581 160.132 470.766 160.362 471.001 160.507C471.248 160.642 471.522 160.709 471.825 160.709C472.408 160.72 472.851 160.547 473.154 160.188C473.457 159.818 473.608 159.285 473.608 158.59V154.183H475.828V162.593H473.743L473.658 161.449C473.378 161.875 473.025 162.206 472.599 162.442C472.184 162.677 471.713 162.795 471.186 162.795ZM480.14 162.795C479.131 162.795 478.346 162.571 477.785 162.122C477.236 161.674 476.961 161.04 476.961 160.221C476.961 159.324 477.258 158.652 477.853 158.203C478.458 157.743 479.305 157.514 480.392 157.514H482.377C482.298 156.998 482.136 156.605 481.889 156.336C481.643 156.056 481.289 155.916 480.83 155.916C480.471 155.916 480.146 155.994 479.854 156.151C479.563 156.308 479.316 156.549 479.114 156.874L477.163 156.202C477.32 155.843 477.55 155.495 477.853 155.159C478.155 154.811 478.548 154.531 479.03 154.318C479.523 154.094 480.123 153.981 480.83 153.981C481.682 153.981 482.388 154.144 482.949 154.469C483.521 154.794 483.941 155.254 484.21 155.848C484.491 156.432 484.625 157.127 484.614 157.934L484.564 162.593H482.495L482.461 161.617C482.248 161.999 481.945 162.29 481.553 162.492C481.172 162.694 480.701 162.795 480.14 162.795ZM480.51 160.945C480.869 160.945 481.194 160.861 481.486 160.692C481.777 160.524 482.007 160.306 482.175 160.036C482.343 159.767 482.427 159.487 482.427 159.195V159.162H481.166C480.437 159.162 479.933 159.252 479.652 159.431C479.372 159.599 479.232 159.84 479.232 160.154C479.232 160.401 479.344 160.597 479.568 160.743C479.792 160.877 480.106 160.945 480.51 160.945ZM486.047 162.593V150.819H488.267V162.593H486.047ZM496.246 162.795C495.237 162.795 494.452 162.571 493.891 162.122C493.342 161.674 493.067 161.04 493.067 160.221C493.067 159.324 493.364 158.652 493.958 158.203C494.564 157.743 495.411 157.514 496.498 157.514H498.483C498.404 156.998 498.242 156.605 497.995 156.336C497.748 156.056 497.395 155.916 496.936 155.916C496.577 155.916 496.252 155.994 495.96 156.151C495.668 156.308 495.422 156.549 495.22 156.874L493.269 156.202C493.426 155.843 493.656 155.495 493.958 155.159C494.261 154.811 494.654 154.531 495.136 154.318C495.629 154.094 496.229 153.981 496.936 153.981C497.788 153.981 498.494 154.144 499.055 154.469C499.627 154.794 500.047 155.254 500.316 155.848C500.597 156.432 500.731 157.127 500.72 157.934L500.669 162.593H498.601L498.567 161.617C498.354 161.999 498.051 162.29 497.659 162.492C497.277 162.694 496.807 162.795 496.246 162.795ZM496.616 160.945C496.975 160.945 497.3 160.861 497.591 160.692C497.883 160.524 498.113 160.306 498.281 160.036C498.449 159.767 498.533 159.487 498.533 159.195V159.162H497.272C496.543 159.162 496.038 159.252 495.758 159.431C495.478 159.599 495.338 159.84 495.338 160.154C495.338 160.401 495.45 160.597 495.674 160.743C495.898 160.877 496.212 160.945 496.616 160.945ZM502.153 162.593V154.183H504.239L504.339 155.327C504.609 154.89 504.951 154.559 505.365 154.335C505.792 154.099 506.274 153.981 506.812 153.981C507.473 153.981 508.04 154.116 508.511 154.385C508.982 154.654 509.34 155.075 509.587 155.647C509.834 156.207 509.952 156.936 509.94 157.833V162.593H507.72V158.287C507.72 157.715 507.653 157.272 507.518 156.959C507.395 156.645 507.216 156.42 506.98 156.286C506.745 156.14 506.47 156.067 506.156 156.067C505.584 156.056 505.141 156.23 504.827 156.588C504.524 156.947 504.373 157.48 504.373 158.186V162.593H502.153ZM514.723 162.795C513.949 162.795 513.277 162.615 512.705 162.257C512.144 161.898 511.707 161.388 511.393 160.726C511.079 160.064 510.922 159.285 510.922 158.388C510.922 157.48 511.079 156.701 511.393 156.05C511.707 155.389 512.144 154.879 512.705 154.52C513.277 154.161 513.949 153.981 514.723 153.981C515.273 153.981 515.76 154.099 516.186 154.335C516.624 154.559 516.977 154.884 517.246 155.31V150.819H519.466V162.593H517.364L517.296 161.416C517.016 161.853 516.657 162.195 516.22 162.442C515.783 162.677 515.284 162.795 514.723 162.795ZM515.295 160.76C515.665 160.76 515.99 160.67 516.27 160.491C516.562 160.3 516.792 160.036 516.96 159.7C517.128 159.364 517.224 158.982 517.246 158.556V158.22C517.224 157.794 517.128 157.418 516.96 157.093C516.792 156.757 516.562 156.499 516.27 156.319C515.979 156.129 515.648 156.033 515.278 156.033C514.874 156.033 514.516 156.134 514.202 156.336C513.899 156.527 513.658 156.802 513.478 157.16C513.31 157.519 513.226 157.928 513.226 158.388C513.226 158.848 513.316 159.257 513.495 159.616C513.675 159.975 513.916 160.255 514.218 160.457C514.532 160.659 514.891 160.76 515.295 160.76ZM445.622 182.795C444.792 182.795 444.058 182.61 443.418 182.24C442.779 181.859 442.275 181.337 441.905 180.676C441.546 180.014 441.366 179.252 441.366 178.388C441.366 177.525 441.551 176.762 441.921 176.101C442.303 175.439 442.818 174.923 443.469 174.553C444.13 174.172 444.887 173.981 445.739 173.981C446.48 173.981 447.158 174.178 447.775 174.57C448.403 174.951 448.902 175.518 449.272 176.269C449.653 177.009 449.843 177.912 449.843 178.977H443.687C443.744 179.537 443.985 179.986 444.411 180.322C444.837 180.648 445.319 180.81 445.857 180.81C446.317 180.81 446.693 180.715 446.984 180.524C447.276 180.322 447.5 180.064 447.657 179.751L449.642 180.524C449.406 180.995 449.098 181.404 448.716 181.752C448.346 182.088 447.904 182.346 447.388 182.526C446.872 182.705 446.283 182.795 445.622 182.795ZM443.805 177.329H447.438C447.405 176.981 447.292 176.701 447.102 176.488C446.911 176.275 446.687 176.118 446.429 176.017C446.171 175.916 445.919 175.865 445.672 175.865C445.437 175.865 445.179 175.916 444.898 176.017C444.629 176.106 444.388 176.258 444.175 176.471C443.973 176.684 443.85 176.97 443.805 177.329ZM449.711 182.593L452.839 178.237L449.93 174.183H452.554L454.067 176.437L455.564 174.183H458.188L455.295 178.254L458.39 182.593H455.749L454.067 180.053L452.369 182.593H449.711ZM459.267 185.957V174.183H461.352L461.453 175.377C461.734 174.929 462.087 174.587 462.513 174.352C462.95 174.105 463.455 173.981 464.027 173.981C464.8 173.981 465.467 174.161 466.028 174.52C466.6 174.879 467.043 175.389 467.357 176.05C467.671 176.701 467.828 177.48 467.828 178.388C467.828 179.285 467.671 180.064 467.357 180.726C467.043 181.388 466.6 181.898 466.028 182.257C465.467 182.615 464.8 182.795 464.027 182.795C463.466 182.795 462.973 182.677 462.547 182.442C462.12 182.206 461.767 181.875 461.487 181.449V185.957H459.267ZM463.455 180.76C463.858 180.76 464.212 180.659 464.514 180.457C464.828 180.255 465.075 179.975 465.254 179.616C465.434 179.257 465.524 178.848 465.524 178.388C465.524 177.928 465.434 177.519 465.254 177.16C465.086 176.802 464.845 176.527 464.531 176.336C464.228 176.134 463.875 176.033 463.472 176.033C463.09 176.033 462.748 176.134 462.446 176.336C462.143 176.538 461.907 176.818 461.739 177.177C461.571 177.525 461.487 177.928 461.487 178.388C461.487 178.848 461.571 179.257 461.739 179.616C461.907 179.975 462.137 180.255 462.429 180.457C462.732 180.659 463.074 180.76 463.455 180.76ZM472.749 182.795C471.919 182.795 471.185 182.61 470.546 182.24C469.906 181.859 469.402 181.337 469.032 180.676C468.673 180.014 468.494 179.252 468.494 178.388C468.494 177.525 468.679 176.762 469.049 176.101C469.43 175.439 469.946 174.923 470.596 174.553C471.258 174.172 472.014 173.981 472.867 173.981C473.607 173.981 474.285 174.178 474.902 174.57C475.53 174.951 476.029 175.518 476.399 176.269C476.78 177.009 476.971 177.912 476.971 178.977H470.815C470.871 179.537 471.112 179.986 471.538 180.322C471.964 180.648 472.446 180.81 472.984 180.81C473.444 180.81 473.82 180.715 474.111 180.524C474.403 180.322 474.627 180.064 474.784 179.751L476.769 180.524C476.533 180.995 476.225 181.404 475.844 181.752C475.474 182.088 475.031 182.346 474.515 182.526C473.999 182.705 473.41 182.795 472.749 182.795ZM470.932 177.329H474.565C474.532 176.981 474.42 176.701 474.229 176.488C474.038 176.275 473.814 176.118 473.556 176.017C473.298 175.916 473.046 175.865 472.799 175.865C472.564 175.865 472.306 175.916 472.026 176.017C471.757 176.106 471.516 176.258 471.302 176.471C471.101 176.684 470.977 176.97 470.932 177.329ZM477.924 182.593V174.183H480.145V175.731C480.492 175.204 480.93 174.811 481.457 174.553C481.995 174.284 482.55 174.15 483.122 174.15V176.303C482.606 176.303 482.118 176.364 481.658 176.488C481.21 176.611 480.845 176.813 480.565 177.093C480.285 177.373 480.145 177.732 480.145 178.17V182.593H477.924ZM484.096 182.593V174.183H486.316V182.593H484.096ZM485.206 172.821C484.869 172.821 484.572 172.698 484.314 172.451C484.056 172.193 483.927 171.89 483.927 171.543C483.927 171.195 484.056 170.898 484.314 170.651C484.572 170.393 484.869 170.264 485.206 170.264C485.553 170.264 485.85 170.393 486.097 170.651C486.355 170.898 486.484 171.195 486.484 171.543C486.484 171.89 486.355 172.193 486.097 172.451C485.85 172.698 485.553 172.821 485.206 172.821ZM491.828 182.795C490.998 182.795 490.264 182.61 489.624 182.24C488.985 181.859 488.481 181.337 488.111 180.676C487.752 180.014 487.572 179.252 487.572 178.388C487.572 177.525 487.757 176.762 488.128 176.101C488.509 175.439 489.025 174.923 489.675 174.553C490.336 174.172 491.093 173.981 491.946 173.981C492.686 173.981 493.364 174.178 493.981 174.57C494.609 174.951 495.108 175.518 495.478 176.269C495.859 177.009 496.049 177.912 496.049 178.977H489.894C489.95 179.537 490.191 179.986 490.617 180.322C491.043 180.648 491.525 180.81 492.063 180.81C492.523 180.81 492.899 180.715 493.19 180.524C493.482 180.322 493.706 180.064 493.863 179.751L495.848 180.524C495.612 180.995 495.304 181.404 494.923 181.752C494.553 182.088 494.11 182.346 493.594 182.526C493.078 182.705 492.489 182.795 491.828 182.795ZM490.011 177.329H493.644C493.611 176.981 493.499 176.701 493.308 176.488C493.117 176.275 492.893 176.118 492.635 176.017C492.377 175.916 492.125 175.865 491.878 175.865C491.643 175.865 491.385 175.916 491.105 176.017C490.835 176.106 490.594 176.258 490.381 176.471C490.179 176.684 490.056 176.97 490.011 177.329ZM497.003 182.593V174.183H499.089L499.19 175.327C499.459 174.89 499.801 174.559 500.216 174.335C500.642 174.099 501.124 173.981 501.662 173.981C502.324 173.981 502.89 174.116 503.361 174.385C503.832 174.654 504.191 175.075 504.437 175.647C504.684 176.207 504.802 176.936 504.791 177.833V182.593H502.571V178.287C502.571 177.715 502.503 177.272 502.369 176.959C502.245 176.645 502.066 176.42 501.83 176.286C501.595 176.14 501.32 176.067 501.006 176.067C500.434 176.056 499.992 176.23 499.678 176.588C499.375 176.947 499.223 177.48 499.223 178.186V182.593H497.003ZM510.28 182.795C509.405 182.795 508.626 182.61 507.942 182.24C507.258 181.859 506.725 181.337 506.344 180.676C505.963 180.003 505.772 179.24 505.772 178.388C505.772 177.525 505.963 176.762 506.344 176.101C506.725 175.439 507.252 174.923 507.925 174.553C508.598 174.172 509.372 173.981 510.246 173.981C511.087 173.981 511.855 174.189 512.55 174.604C513.246 175.019 513.75 175.619 514.064 176.403L511.979 177.144C511.822 176.818 511.575 176.56 511.239 176.37C510.913 176.168 510.549 176.067 510.145 176.067C509.73 176.067 509.366 176.168 509.052 176.37C508.738 176.56 508.491 176.83 508.312 177.177C508.133 177.525 508.043 177.928 508.043 178.388C508.043 178.848 508.133 179.252 508.312 179.599C508.491 179.936 508.744 180.205 509.069 180.406C509.394 180.608 509.764 180.709 510.179 180.709C510.583 180.709 510.947 180.603 511.272 180.39C511.609 180.177 511.855 179.896 512.012 179.549L514.115 180.289C513.79 181.085 513.279 181.702 512.584 182.139C511.9 182.576 511.132 182.795 510.28 182.795ZM518.873 182.795C518.043 182.795 517.309 182.61 516.67 182.24C516.03 181.859 515.526 181.337 515.156 180.676C514.797 180.014 514.618 179.252 514.618 178.388C514.618 177.525 514.803 176.762 515.173 176.101C515.554 175.439 516.07 174.923 516.72 174.553C517.382 174.172 518.138 173.981 518.991 173.981C519.731 173.981 520.409 174.178 521.026 174.57C521.654 174.951 522.153 175.518 522.523 176.269C522.904 177.009 523.095 177.912 523.095 178.977H516.939C516.995 179.537 517.236 179.986 517.662 180.322C518.088 180.648 518.57 180.81 519.108 180.81C519.568 180.81 519.944 180.715 520.235 180.524C520.527 180.322 520.751 180.064 520.908 179.751L522.893 180.524C522.657 180.995 522.349 181.404 521.968 181.752C521.598 182.088 521.155 182.346 520.639 182.526C520.123 182.705 519.534 182.795 518.873 182.795ZM517.056 177.329H520.689C520.656 176.981 520.544 176.701 520.353 176.488C520.162 176.275 519.938 176.118 519.68 176.017C519.422 175.916 519.17 175.865 518.923 175.865C518.688 175.865 518.43 175.916 518.15 176.017C517.881 176.106 517.639 176.258 517.426 176.471C517.225 176.684 517.101 176.97 517.056 177.329ZM450.403 202.795C449.63 202.795 448.957 202.615 448.385 202.257C447.824 201.898 447.387 201.388 447.073 200.726C446.759 200.064 446.602 199.285 446.602 198.388C446.602 197.48 446.759 196.701 447.073 196.05C447.387 195.389 447.824 194.879 448.385 194.52C448.957 194.161 449.63 193.981 450.403 193.981C450.953 193.981 451.44 194.099 451.867 194.335C452.304 194.559 452.657 194.884 452.926 195.31V190.819H455.146V202.593H453.044L452.977 201.416C452.696 201.853 452.338 202.195 451.9 202.442C451.463 202.677 450.964 202.795 450.403 202.795ZM450.975 200.76C451.345 200.76 451.67 200.67 451.951 200.491C452.242 200.3 452.472 200.036 452.64 199.7C452.808 199.364 452.904 198.982 452.926 198.556V198.22C452.904 197.794 452.808 197.418 452.64 197.093C452.472 196.757 452.242 196.499 451.951 196.319C451.659 196.129 451.328 196.033 450.958 196.033C450.555 196.033 450.196 196.134 449.882 196.336C449.579 196.527 449.338 196.802 449.159 197.16C448.99 197.519 448.906 197.928 448.906 198.388C448.906 198.848 448.996 199.257 449.175 199.616C449.355 199.975 449.596 200.255 449.899 200.457C450.213 200.659 450.571 200.76 450.975 200.76ZM460.524 202.795C459.694 202.795 458.96 202.61 458.321 202.24C457.682 201.859 457.177 201.337 456.807 200.676C456.448 200.014 456.269 199.252 456.269 198.388C456.269 197.525 456.454 196.762 456.824 196.101C457.205 195.439 457.721 194.923 458.371 194.553C459.033 194.172 459.79 193.981 460.642 193.981C461.382 193.981 462.06 194.178 462.677 194.57C463.305 194.951 463.804 195.518 464.174 196.269C464.555 197.009 464.746 197.912 464.746 198.977H458.59C458.646 199.537 458.887 199.986 459.313 200.322C459.739 200.648 460.221 200.81 460.759 200.81C461.219 200.81 461.595 200.715 461.886 200.524C462.178 200.322 462.402 200.064 462.559 199.751L464.544 200.524C464.308 200.995 464 201.404 463.619 201.752C463.249 202.088 462.806 202.346 462.29 202.526C461.774 202.705 461.186 202.795 460.524 202.795ZM458.707 197.329H462.34C462.307 196.981 462.195 196.701 462.004 196.488C461.813 196.275 461.589 196.118 461.331 196.017C461.073 195.916 460.821 195.865 460.574 195.865C460.339 195.865 460.081 195.916 459.801 196.017C459.532 196.106 459.291 196.258 459.078 196.471C458.876 196.684 458.752 196.97 458.707 197.329ZM466.54 202.593V195.966H465.144V194.183H466.54V193.342C466.54 192.445 466.77 191.75 467.23 191.257C467.69 190.752 468.391 190.5 469.332 190.5C469.658 190.5 470 190.556 470.358 190.668C470.729 190.78 471.065 190.915 471.368 191.072L470.543 192.67C470.364 192.58 470.201 192.513 470.056 192.468C469.91 192.423 469.775 192.4 469.652 192.4C469.349 192.4 469.125 192.507 468.979 192.72C468.834 192.922 468.761 193.253 468.761 193.712V194.183H470.829V195.966H468.761V202.593H466.54ZM472.101 202.593V194.183H474.321V202.593H472.101ZM473.211 192.821C472.874 192.821 472.577 192.698 472.319 192.451C472.061 192.193 471.932 191.89 471.932 191.543C471.932 191.195 472.061 190.898 472.319 190.651C472.577 190.393 472.874 190.264 473.211 190.264C473.558 190.264 473.855 190.393 474.102 190.651C474.36 190.898 474.489 191.195 474.489 191.543C474.489 191.89 474.36 192.193 474.102 192.451C473.855 192.698 473.558 192.821 473.211 192.821ZM476.032 202.593V194.183H478.117L478.218 195.327C478.487 194.89 478.829 194.559 479.244 194.335C479.67 194.099 480.152 193.981 480.691 193.981C481.352 193.981 481.918 194.116 482.389 194.385C482.86 194.654 483.219 195.075 483.466 195.647C483.712 196.207 483.83 196.936 483.819 197.833V202.593H481.599V198.287C481.599 197.715 481.532 197.272 481.397 196.959C481.274 196.645 481.094 196.42 480.859 196.286C480.623 196.14 480.349 196.067 480.035 196.067C479.463 196.056 479.02 196.23 478.706 196.588C478.403 196.947 478.252 197.48 478.252 198.186V202.593H476.032ZM485.389 202.593V194.183H487.609V202.593H485.389ZM486.499 192.821C486.163 192.821 485.866 192.698 485.608 192.451C485.35 192.193 485.221 191.89 485.221 191.543C485.221 191.195 485.35 190.898 485.608 190.651C485.866 190.393 486.163 190.264 486.499 190.264C486.847 190.264 487.144 190.393 487.391 190.651C487.649 190.898 487.778 191.195 487.778 191.543C487.778 191.89 487.649 192.193 487.391 192.451C487.144 192.698 486.847 192.821 486.499 192.821ZM492.785 202.795C491.854 202.795 491.148 202.565 490.666 202.105C490.195 201.646 489.959 200.99 489.959 200.137V196.067H488.597V194.183H489.959V191.559H492.18V194.183H494.282V196.067H492.18V199.65C492.18 200.008 492.258 200.283 492.415 200.474C492.572 200.653 492.802 200.743 493.105 200.743C493.217 200.743 493.34 200.72 493.475 200.676C493.609 200.62 493.749 200.541 493.895 200.44L494.669 202.105C494.4 202.307 494.097 202.47 493.761 202.593C493.435 202.728 493.11 202.795 492.785 202.795ZM495.886 202.593V194.183H498.106V202.593H495.886ZM496.996 192.821C496.659 192.821 496.362 192.698 496.104 192.451C495.846 192.193 495.717 191.89 495.717 191.543C495.717 191.195 495.846 190.898 496.104 190.651C496.362 190.393 496.659 190.264 496.996 190.264C497.343 190.264 497.64 190.393 497.887 190.651C498.145 190.898 498.274 191.195 498.274 191.543C498.274 191.89 498.145 192.193 497.887 192.451C497.64 192.698 497.343 192.821 496.996 192.821ZM503.769 202.795C502.917 202.795 502.155 202.61 501.482 202.24C500.82 201.859 500.299 201.337 499.918 200.676C499.548 200.014 499.362 199.252 499.362 198.388C499.362 197.525 499.548 196.762 499.918 196.101C500.288 195.439 500.803 194.923 501.465 194.553C502.126 194.172 502.883 193.981 503.736 193.981C504.599 193.981 505.361 194.172 506.023 194.553C506.685 194.923 507.2 195.439 507.57 196.101C507.94 196.762 508.125 197.525 508.125 198.388C508.125 199.252 507.94 200.014 507.57 200.676C507.2 201.337 506.685 201.859 506.023 202.24C505.373 202.61 504.621 202.795 503.769 202.795ZM503.769 200.743C504.184 200.743 504.548 200.642 504.862 200.44C505.176 200.238 505.417 199.964 505.586 199.616C505.765 199.257 505.855 198.848 505.855 198.388C505.855 197.928 505.765 197.525 505.586 197.177C505.406 196.818 505.154 196.538 504.829 196.336C504.515 196.134 504.15 196.033 503.736 196.033C503.332 196.033 502.967 196.134 502.642 196.336C502.328 196.538 502.082 196.818 501.902 197.177C501.723 197.525 501.633 197.928 501.633 198.388C501.633 198.848 501.723 199.257 501.902 199.616C502.082 199.964 502.334 200.238 502.659 200.44C502.984 200.642 503.354 200.743 503.769 200.743ZM509.253 202.593V194.183H511.339L511.44 195.327C511.709 194.89 512.051 194.559 512.466 194.335C512.892 194.099 513.374 193.981 513.912 193.981C514.574 193.981 515.14 194.116 515.611 194.385C516.082 194.654 516.441 195.075 516.687 195.647C516.934 196.207 517.052 196.936 517.041 197.833V202.593H514.82V198.287C514.82 197.715 514.753 197.272 514.619 196.959C514.495 196.645 514.316 196.42 514.08 196.286C513.845 196.14 513.57 196.067 513.256 196.067C512.684 196.056 512.241 196.23 511.928 196.588C511.625 196.947 511.473 197.48 511.473 198.186V202.593H509.253Z" fill="black"/>
<path d="M569.927 175.892C569.54 175.892 569.226 176.206 569.226 176.593C569.226 176.98 569.54 177.294 569.927 177.294V176.593V175.892ZM675.544 177.089C675.818 176.815 675.818 176.371 675.544 176.097L671.084 171.638C670.81 171.364 670.367 171.364 670.093 171.638C669.819 171.911 669.819 172.355 670.093 172.629L674.057 176.593L670.093 180.557C669.819 180.831 669.819 181.275 670.093 181.548C670.367 181.822 670.81 181.822 671.084 181.548L675.544 177.089ZM569.927 176.593V177.294L675.049 177.294V176.593V175.892L569.927 175.892V176.593Z" fill="#7E837C"/>
<rect x="675.049" y="96" width="175.903" height="161.186" rx="16.8194" fill="#00A8B5"/>
<path d="M710.497 172.828C709.521 172.828 708.675 172.638 707.957 172.257C707.239 171.875 706.684 171.343 706.292 170.659C705.911 169.964 705.72 169.145 705.72 168.203V160.819H708.024V168.203C708.024 168.708 708.125 169.151 708.327 169.532C708.54 169.902 708.832 170.188 709.202 170.39C709.583 170.592 710.026 170.692 710.53 170.692C711.035 170.692 711.472 170.592 711.842 170.39C712.224 170.188 712.515 169.902 712.717 169.532C712.93 169.151 713.037 168.708 713.037 168.203V160.819H715.341V168.203C715.341 169.145 715.139 169.964 714.735 170.659C714.343 171.343 713.782 171.875 713.053 172.257C712.336 172.638 711.484 172.828 710.497 172.828ZM720.22 172.795C719.682 172.795 719.177 172.716 718.706 172.559C718.235 172.391 717.821 172.156 717.462 171.853C717.103 171.539 716.823 171.158 716.621 170.709L718.521 169.835C718.69 170.104 718.919 170.339 719.211 170.541C719.503 170.732 719.839 170.827 720.22 170.827C720.59 170.827 720.876 170.777 721.078 170.676C721.28 170.563 721.381 170.406 721.381 170.205C721.381 170.003 721.297 169.857 721.128 169.767C720.971 169.666 720.753 169.582 720.472 169.515L719.699 169.313C718.891 169.1 718.252 168.764 717.781 168.304C717.322 167.833 717.092 167.295 717.092 166.689C717.092 165.826 717.366 165.159 717.916 164.688C718.477 164.217 719.267 163.981 720.287 163.981C720.814 163.981 721.302 164.06 721.751 164.217C722.21 164.374 722.603 164.593 722.928 164.873C723.253 165.153 723.478 165.478 723.601 165.848L721.768 166.689C721.689 166.465 721.498 166.286 721.196 166.151C720.893 166.005 720.59 165.933 720.287 165.933C719.985 165.933 719.749 166 719.581 166.134C719.424 166.258 719.346 166.432 719.346 166.656C719.346 166.802 719.424 166.925 719.581 167.026C719.738 167.115 719.962 167.194 720.254 167.261L721.347 167.53C721.896 167.665 722.334 167.884 722.659 168.186C722.995 168.478 723.236 168.809 723.382 169.179C723.539 169.537 723.618 169.891 723.618 170.238C723.618 170.743 723.466 171.191 723.164 171.584C722.872 171.965 722.468 172.262 721.953 172.475C721.448 172.688 720.87 172.795 720.22 172.795ZM727.298 172.795C726.289 172.795 725.504 172.571 724.943 172.122C724.394 171.674 724.119 171.04 724.119 170.221C724.119 169.324 724.416 168.652 725.011 168.203C725.616 167.743 726.463 167.514 727.55 167.514H729.535C729.457 166.998 729.294 166.605 729.047 166.336C728.801 166.056 728.447 165.916 727.988 165.916C727.629 165.916 727.304 165.994 727.012 166.151C726.721 166.308 726.474 166.549 726.272 166.874L724.321 166.202C724.478 165.843 724.708 165.495 725.011 165.159C725.313 164.811 725.706 164.531 726.188 164.318C726.681 164.094 727.281 163.981 727.988 163.981C728.84 163.981 729.546 164.144 730.107 164.469C730.679 164.794 731.099 165.254 731.368 165.848C731.649 166.432 731.783 167.127 731.772 167.934L731.722 172.593H729.653L729.619 171.617C729.406 171.999 729.103 172.29 728.711 172.492C728.33 172.694 727.859 172.795 727.298 172.795ZM727.668 170.945C728.027 170.945 728.352 170.861 728.644 170.692C728.935 170.524 729.165 170.306 729.333 170.036C729.501 169.767 729.586 169.487 729.586 169.195V169.162H728.324C727.595 169.162 727.091 169.252 726.81 169.431C726.53 169.599 726.39 169.84 726.39 170.154C726.39 170.401 726.502 170.597 726.726 170.743C726.95 170.877 727.264 170.945 727.668 170.945ZM736.989 176.176C736.35 176.176 735.784 176.131 735.291 176.041C734.797 175.951 734.382 175.834 734.046 175.688C733.71 175.542 733.435 175.396 733.222 175.25L734.097 173.468C734.254 173.557 734.461 173.658 734.719 173.77C734.977 173.894 735.285 173.995 735.644 174.073C736.003 174.163 736.418 174.208 736.889 174.208C737.337 174.208 737.73 174.118 738.066 173.939C738.414 173.77 738.683 173.501 738.873 173.131C739.075 172.772 739.176 172.313 739.176 171.752V170.945C738.896 171.382 738.531 171.73 738.083 171.988C737.634 172.234 737.124 172.358 736.552 172.358C735.778 172.358 735.106 172.189 734.534 171.853C733.973 171.517 733.536 171.046 733.222 170.44C732.908 169.835 732.751 169.117 732.751 168.287C732.751 167.413 732.908 166.656 733.222 166.017C733.536 165.366 733.973 164.867 734.534 164.52C735.106 164.161 735.778 163.981 736.552 163.981C737.124 163.981 737.634 164.116 738.083 164.385C738.531 164.643 738.896 165.013 739.176 165.495V164.183H741.396V171.685C741.396 172.627 741.217 173.434 740.858 174.107C740.499 174.791 739.989 175.307 739.327 175.654C738.677 176.002 737.898 176.176 736.989 176.176ZM737.191 170.491C737.573 170.491 737.903 170.395 738.184 170.205C738.475 170.003 738.699 169.734 738.856 169.397C739.013 169.05 739.092 168.657 739.092 168.22C739.092 167.771 739.008 167.379 738.84 167.043C738.683 166.706 738.458 166.443 738.167 166.252C737.887 166.061 737.556 165.966 737.175 165.966C736.782 165.966 736.434 166.061 736.132 166.252C735.829 166.443 735.593 166.706 735.425 167.043C735.257 167.379 735.167 167.771 735.156 168.22C735.167 168.657 735.257 169.05 735.425 169.397C735.593 169.734 735.829 170.003 736.132 170.205C736.446 170.395 736.799 170.491 737.191 170.491ZM746.771 172.795C745.942 172.795 745.207 172.61 744.568 172.24C743.929 171.859 743.424 171.337 743.054 170.676C742.696 170.014 742.516 169.252 742.516 168.388C742.516 167.525 742.701 166.762 743.071 166.101C743.452 165.439 743.968 164.923 744.619 164.553C745.28 164.172 746.037 163.981 746.889 163.981C747.629 163.981 748.308 164.178 748.924 164.57C749.552 164.951 750.051 165.518 750.421 166.269C750.802 167.009 750.993 167.912 750.993 168.977H744.837C744.893 169.537 745.134 169.986 745.56 170.322C745.987 170.648 746.469 170.81 747.007 170.81C747.467 170.81 747.842 170.715 748.134 170.524C748.425 170.322 748.65 170.064 748.807 169.751L750.791 170.524C750.556 170.995 750.247 171.404 749.866 171.752C749.496 172.088 749.053 172.346 748.537 172.526C748.022 172.705 747.433 172.795 746.771 172.795ZM744.955 167.329H748.588C748.554 166.981 748.442 166.701 748.252 166.488C748.061 166.275 747.837 166.118 747.579 166.017C747.321 165.916 747.069 165.865 746.822 165.865C746.586 165.865 746.329 165.916 746.048 166.017C745.779 166.106 745.538 166.258 745.325 166.471C745.123 166.684 745 166.97 744.955 167.329ZM755.618 172.593V164.183H757.838V165.731C758.186 165.204 758.623 164.811 759.15 164.553C759.689 164.284 760.244 164.15 760.815 164.15V166.303C760.3 166.303 759.812 166.364 759.352 166.488C758.904 166.611 758.539 166.813 758.259 167.093C757.979 167.373 757.838 167.732 757.838 168.17V172.593H755.618ZM764.649 172.795C763.976 172.795 763.404 172.66 762.933 172.391C762.473 172.122 762.12 171.707 761.874 171.147C761.627 170.575 761.504 169.84 761.504 168.943V164.183H763.724V168.489C763.724 169.05 763.785 169.493 763.909 169.818C764.043 170.132 764.228 170.362 764.464 170.507C764.71 170.642 764.985 170.709 765.288 170.709C765.871 170.72 766.314 170.547 766.617 170.188C766.919 169.818 767.071 169.285 767.071 168.59V164.183H769.291V172.593H767.205L767.121 171.449C766.841 171.875 766.488 172.206 766.062 172.442C765.647 172.677 765.176 172.795 764.649 172.795ZM770.878 172.593V160.819H773.098V172.593H770.878ZM778.482 172.795C777.652 172.795 776.918 172.61 776.279 172.24C775.639 171.859 775.135 171.337 774.765 170.676C774.406 170.014 774.227 169.252 774.227 168.388C774.227 167.525 774.412 166.762 774.782 166.101C775.163 165.439 775.679 164.923 776.329 164.553C776.991 164.172 777.747 163.981 778.6 163.981C779.34 163.981 780.018 164.178 780.635 164.57C781.263 164.951 781.762 165.518 782.132 166.269C782.513 167.009 782.704 167.912 782.704 168.977H776.548C776.604 169.537 776.845 169.986 777.271 170.322C777.697 170.648 778.179 170.81 778.717 170.81C779.177 170.81 779.553 170.715 779.844 170.524C780.136 170.322 780.36 170.064 780.517 169.751L782.502 170.524C782.266 170.995 781.958 171.404 781.577 171.752C781.207 172.088 780.764 172.346 780.248 172.526C779.732 172.705 779.143 172.795 778.482 172.795ZM776.665 167.329H780.298C780.265 166.981 780.153 166.701 779.962 166.488C779.771 166.275 779.547 166.118 779.289 166.017C779.031 165.916 778.779 165.865 778.532 165.865C778.297 165.865 778.039 165.916 777.759 166.017C777.49 166.106 777.249 166.258 777.035 166.471C776.834 166.684 776.71 166.97 776.665 167.329ZM786.803 172.795C786.264 172.795 785.76 172.716 785.289 172.559C784.818 172.391 784.403 172.156 784.044 171.853C783.685 171.539 783.405 171.158 783.203 170.709L785.104 169.835C785.272 170.104 785.502 170.339 785.794 170.541C786.085 170.732 786.421 170.827 786.803 170.827C787.173 170.827 787.459 170.777 787.66 170.676C787.862 170.563 787.963 170.406 787.963 170.205C787.963 170.003 787.879 169.857 787.711 169.767C787.554 169.666 787.335 169.582 787.055 169.515L786.281 169.313C785.474 169.1 784.835 168.764 784.364 168.304C783.904 167.833 783.674 167.295 783.674 166.689C783.674 165.826 783.949 165.159 784.498 164.688C785.059 164.217 785.85 163.981 786.87 163.981C787.397 163.981 787.885 164.06 788.333 164.217C788.793 164.374 789.185 164.593 789.511 164.873C789.836 165.153 790.06 165.478 790.183 165.848L788.35 166.689C788.272 166.465 788.081 166.286 787.778 166.151C787.475 166.005 787.173 165.933 786.87 165.933C786.567 165.933 786.332 166 786.164 166.134C786.007 166.258 785.928 166.432 785.928 166.656C785.928 166.802 786.007 166.925 786.164 167.026C786.321 167.115 786.545 167.194 786.836 167.261L787.93 167.53C788.479 167.665 788.916 167.884 789.241 168.186C789.578 168.478 789.819 168.809 789.965 169.179C790.122 169.537 790.2 169.891 790.2 170.238C790.2 170.743 790.049 171.191 789.746 171.584C789.455 171.965 789.051 172.262 788.535 172.475C788.03 172.688 787.453 172.795 786.803 172.795ZM797.552 172.795C796.543 172.795 795.758 172.571 795.197 172.122C794.648 171.674 794.373 171.04 794.373 170.221C794.373 169.324 794.67 168.652 795.265 168.203C795.87 167.743 796.717 167.514 797.804 167.514H799.789C799.71 166.998 799.548 166.605 799.301 166.336C799.055 166.056 798.701 165.916 798.242 165.916C797.883 165.916 797.558 165.994 797.266 166.151C796.975 166.308 796.728 166.549 796.526 166.874L794.575 166.202C794.732 165.843 794.962 165.495 795.265 165.159C795.567 164.811 795.96 164.531 796.442 164.318C796.935 164.094 797.535 163.981 798.242 163.981C799.094 163.981 799.8 164.144 800.361 164.469C800.933 164.794 801.353 165.254 801.622 165.848C801.903 166.432 802.037 167.127 802.026 167.934L801.975 172.593H799.907L799.873 171.617C799.66 171.999 799.357 172.29 798.965 172.492C798.584 172.694 798.113 172.795 797.552 172.795ZM797.922 170.945C798.281 170.945 798.606 170.861 798.898 170.692C799.189 170.524 799.419 170.306 799.587 170.036C799.755 169.767 799.839 169.487 799.839 169.195V169.162H798.578C797.849 169.162 797.345 169.252 797.064 169.431C796.784 169.599 796.644 169.84 796.644 170.154C796.644 170.401 796.756 170.597 796.98 170.743C797.204 170.877 797.518 170.945 797.922 170.945ZM803.459 172.593V164.183H805.545L805.646 165.327C805.915 164.89 806.257 164.559 806.672 164.335C807.098 164.099 807.58 163.981 808.118 163.981C808.78 163.981 809.346 164.116 809.817 164.385C810.288 164.654 810.647 165.075 810.893 165.647C811.14 166.207 811.258 166.936 811.246 167.833V172.593H809.026V168.287C809.026 167.715 808.959 167.272 808.824 166.959C808.701 166.645 808.522 166.42 808.286 166.286C808.051 166.14 807.776 166.067 807.462 166.067C806.89 166.056 806.447 166.23 806.133 166.588C805.831 166.947 805.679 167.48 805.679 168.186V172.593H803.459ZM816.029 172.795C815.255 172.795 814.583 172.615 814.011 172.257C813.45 171.898 813.013 171.388 812.699 170.726C812.385 170.064 812.228 169.285 812.228 168.388C812.228 167.48 812.385 166.701 812.699 166.05C813.013 165.389 813.45 164.879 814.011 164.52C814.583 164.161 815.255 163.981 816.029 163.981C816.579 163.981 817.066 164.099 817.492 164.335C817.93 164.559 818.283 164.884 818.552 165.31V160.819H820.772V172.593H818.67L818.603 171.416C818.322 171.853 817.963 172.195 817.526 172.442C817.089 172.677 816.59 172.795 816.029 172.795ZM816.601 170.76C816.971 170.76 817.296 170.67 817.577 170.491C817.868 170.3 818.098 170.036 818.266 169.7C818.434 169.364 818.53 168.982 818.552 168.556V168.22C818.53 167.794 818.434 167.418 818.266 167.093C818.098 166.757 817.868 166.499 817.577 166.319C817.285 166.129 816.954 166.033 816.584 166.033C816.181 166.033 815.822 166.134 815.508 166.336C815.205 166.527 814.964 166.802 814.785 167.16C814.616 167.519 814.532 167.928 814.532 168.388C814.532 168.848 814.622 169.257 814.801 169.616C814.981 169.975 815.222 170.255 815.525 170.457C815.839 170.659 816.197 170.76 816.601 170.76ZM715.872 192.795C715.301 192.795 714.802 192.677 714.376 192.442C713.949 192.195 713.591 191.847 713.299 191.399L713.215 192.593H711.113V180.819H713.333V185.327C713.613 184.89 713.966 184.559 714.392 184.335C714.818 184.099 715.312 183.981 715.872 183.981C716.646 183.981 717.313 184.161 717.874 184.52C718.446 184.879 718.889 185.389 719.203 186.05C719.517 186.701 719.674 187.48 719.674 188.388C719.674 189.285 719.517 190.064 719.203 190.726C718.889 191.388 718.446 191.898 717.874 192.257C717.313 192.615 716.646 192.795 715.872 192.795ZM715.301 190.76C715.704 190.76 716.057 190.659 716.36 190.457C716.674 190.255 716.921 189.975 717.1 189.616C717.28 189.257 717.369 188.848 717.369 188.388C717.369 187.928 717.28 187.519 717.1 187.16C716.932 186.802 716.691 186.527 716.377 186.336C716.074 186.134 715.721 186.033 715.317 186.033C714.936 186.033 714.594 186.134 714.291 186.336C713.989 186.538 713.753 186.818 713.585 187.177C713.417 187.525 713.333 187.928 713.333 188.388C713.333 188.848 713.417 189.257 713.585 189.616C713.753 189.975 713.983 190.255 714.275 190.457C714.577 190.659 714.919 190.76 715.301 190.76ZM724.597 192.795C723.767 192.795 723.033 192.61 722.393 192.24C721.754 191.859 721.25 191.337 720.88 190.676C720.521 190.014 720.341 189.252 720.341 188.388C720.341 187.525 720.526 186.762 720.896 186.101C721.278 185.439 721.794 184.923 722.444 184.553C723.105 184.172 723.862 183.981 724.714 183.981C725.455 183.981 726.133 184.178 726.75 184.57C727.378 184.951 727.877 185.518 728.247 186.269C728.628 187.009 728.818 187.912 728.818 188.977H722.663C722.719 189.537 722.96 189.986 723.386 190.322C723.812 190.648 724.294 190.81 724.832 190.81C725.292 190.81 725.668 190.715 725.959 190.524C726.251 190.322 726.475 190.064 726.632 189.751L728.617 190.524C728.381 190.995 728.073 191.404 727.692 191.752C727.321 192.088 726.879 192.346 726.363 192.526C725.847 192.705 725.258 192.795 724.597 192.795ZM722.78 187.329H726.413C726.38 186.981 726.267 186.701 726.077 186.488C725.886 186.275 725.662 186.118 725.404 186.017C725.146 185.916 724.894 185.865 724.647 185.865C724.412 185.865 724.154 185.916 723.874 186.017C723.604 186.106 723.363 186.258 723.15 186.471C722.948 186.684 722.825 186.97 722.78 187.329ZM732.917 192.795C732.379 192.795 731.875 192.716 731.404 192.559C730.933 192.391 730.518 192.156 730.159 191.853C729.8 191.539 729.52 191.158 729.318 190.709L731.219 189.835C731.387 190.104 731.617 190.339 731.908 190.541C732.2 190.732 732.536 190.827 732.917 190.827C733.288 190.827 733.573 190.777 733.775 190.676C733.977 190.563 734.078 190.406 734.078 190.205C734.078 190.003 733.994 189.857 733.826 189.767C733.669 189.666 733.45 189.582 733.17 189.515L732.396 189.313C731.589 189.1 730.95 188.764 730.479 188.304C730.019 187.833 729.789 187.295 729.789 186.689C729.789 185.826 730.064 185.159 730.613 184.688C731.174 184.217 731.964 183.981 732.985 183.981C733.512 183.981 734 184.06 734.448 184.217C734.908 184.374 735.3 184.593 735.625 184.873C735.951 185.153 736.175 185.478 736.298 185.848L734.465 186.689C734.386 186.465 734.196 186.286 733.893 186.151C733.59 186.005 733.288 185.933 732.985 185.933C732.682 185.933 732.447 186 732.278 186.134C732.121 186.258 732.043 186.432 732.043 186.656C732.043 186.802 732.121 186.925 732.278 187.026C732.435 187.115 732.66 187.194 732.951 187.261L734.044 187.53C734.594 187.665 735.031 187.884 735.356 188.186C735.693 188.478 735.934 188.809 736.08 189.179C736.237 189.537 736.315 189.891 736.315 190.238C736.315 190.743 736.164 191.191 735.861 191.584C735.569 191.965 735.166 192.262 734.65 192.475C734.145 192.688 733.568 192.795 732.917 192.795ZM740.735 192.795C739.805 192.795 739.098 192.565 738.616 192.105C738.145 191.646 737.91 190.99 737.91 190.137V186.067H736.547V184.183H737.91V181.559H740.13V184.183H742.232V186.067H740.13V189.65C740.13 190.008 740.208 190.283 740.365 190.474C740.522 190.653 740.752 190.743 741.055 190.743C741.167 190.743 741.291 190.72 741.425 190.676C741.56 190.62 741.7 190.541 741.846 190.44L742.619 192.105C742.35 192.307 742.047 192.47 741.711 192.593C741.386 192.728 741.061 192.795 740.735 192.795ZM747.457 195.957V184.183H749.543L749.643 185.377C749.924 184.929 750.277 184.587 750.703 184.352C751.14 184.105 751.645 183.981 752.217 183.981C752.991 183.981 753.658 184.161 754.218 184.52C754.79 184.879 755.233 185.389 755.547 186.05C755.861 186.701 756.018 187.48 756.018 188.388C756.018 189.285 755.861 190.064 755.547 190.726C755.233 191.388 754.79 191.898 754.218 192.257C753.658 192.615 752.991 192.795 752.217 192.795C751.656 192.795 751.163 192.677 750.737 192.442C750.311 192.206 749.957 191.875 749.677 191.449V195.957H747.457ZM751.645 190.76C752.049 190.76 752.402 190.659 752.705 190.457C753.019 190.255 753.265 189.975 753.445 189.616C753.624 189.257 753.714 188.848 753.714 188.388C753.714 187.928 753.624 187.519 753.445 187.16C753.276 186.802 753.035 186.527 752.721 186.336C752.419 186.134 752.065 186.033 751.662 186.033C751.281 186.033 750.939 186.134 750.636 186.336C750.333 186.538 750.098 186.818 749.929 187.177C749.761 187.525 749.677 187.928 749.677 188.388C749.677 188.848 749.761 189.257 749.929 189.616C750.098 189.975 750.327 190.255 750.619 190.457C750.922 190.659 751.264 190.76 751.645 190.76ZM757.138 192.593V184.183H759.358V185.731C759.706 185.204 760.143 184.811 760.67 184.553C761.208 184.284 761.763 184.15 762.335 184.15V186.303C761.819 186.303 761.332 186.364 760.872 186.488C760.423 186.611 760.059 186.813 759.779 187.093C759.498 187.373 759.358 187.732 759.358 188.17V192.593H757.138ZM765.899 192.795C764.89 192.795 764.105 192.571 763.545 192.122C762.995 191.674 762.72 191.04 762.72 190.221C762.72 189.324 763.018 188.652 763.612 188.203C764.217 187.743 765.064 187.514 766.152 187.514H768.136C768.058 186.998 767.895 186.605 767.649 186.336C767.402 186.056 767.049 185.916 766.589 185.916C766.23 185.916 765.905 185.994 765.613 186.151C765.322 186.308 765.075 186.549 764.873 186.874L762.922 186.202C763.079 185.843 763.309 185.495 763.612 185.159C763.915 184.811 764.307 184.531 764.789 184.318C765.283 184.094 765.882 183.981 766.589 183.981C767.441 183.981 768.147 184.144 768.708 184.469C769.28 184.794 769.7 185.254 769.97 185.848C770.25 186.432 770.384 187.127 770.373 187.934L770.323 192.593H768.254L768.22 191.617C768.007 191.999 767.705 192.29 767.312 192.492C766.931 192.694 766.46 192.795 765.899 192.795ZM766.269 190.945C766.628 190.945 766.953 190.861 767.245 190.692C767.536 190.524 767.766 190.306 767.934 190.036C768.103 189.767 768.187 189.487 768.187 189.195V189.162H766.925C766.196 189.162 765.692 189.252 765.412 189.431C765.131 189.599 764.991 189.84 764.991 190.154C764.991 190.401 765.103 190.597 765.327 190.743C765.552 190.877 765.866 190.945 766.269 190.945ZM775.86 192.795C774.985 192.795 774.206 192.61 773.522 192.24C772.838 191.859 772.305 191.337 771.924 190.676C771.543 190.003 771.352 189.24 771.352 188.388C771.352 187.525 771.543 186.762 771.924 186.101C772.305 185.439 772.832 184.923 773.505 184.553C774.178 184.172 774.952 183.981 775.826 183.981C776.667 183.981 777.435 184.189 778.13 184.604C778.826 185.019 779.33 185.619 779.644 186.403L777.559 187.144C777.402 186.818 777.155 186.56 776.819 186.37C776.493 186.168 776.129 186.067 775.725 186.067C775.31 186.067 774.946 186.168 774.632 186.37C774.318 186.56 774.071 186.83 773.892 187.177C773.713 187.525 773.623 187.928 773.623 188.388C773.623 188.848 773.713 189.252 773.892 189.599C774.071 189.936 774.324 190.205 774.649 190.406C774.974 190.608 775.344 190.709 775.759 190.709C776.163 190.709 776.527 190.603 776.852 190.39C777.189 190.177 777.435 189.896 777.592 189.549L779.695 190.289C779.369 191.085 778.859 191.702 778.164 192.139C777.48 192.576 776.712 192.795 775.86 192.795ZM784.116 192.795C783.186 192.795 782.479 192.565 781.997 192.105C781.526 191.646 781.291 190.99 781.291 190.137V186.067H779.928V184.183H781.291V181.559H783.511V184.183H785.613V186.067H783.511V189.65C783.511 190.008 783.589 190.283 783.746 190.474C783.903 190.653 784.133 190.743 784.436 190.743C784.548 190.743 784.671 190.72 784.806 190.676C784.941 190.62 785.081 190.541 785.227 190.44L786 192.105C785.731 192.307 785.428 192.47 785.092 192.593C784.767 192.728 784.442 192.795 784.116 192.795ZM787.217 192.593V184.183H789.437V192.593H787.217ZM788.327 182.821C787.991 182.821 787.694 182.698 787.436 182.451C787.178 182.193 787.049 181.89 787.049 181.543C787.049 181.195 787.178 180.898 787.436 180.651C787.694 180.393 787.991 180.264 788.327 180.264C788.675 180.264 788.972 180.393 789.218 180.651C789.476 180.898 789.605 181.195 789.605 181.543C789.605 181.89 789.476 182.193 789.218 182.451C788.972 182.698 788.675 182.821 788.327 182.821ZM795.201 192.795C794.327 192.795 793.548 192.61 792.864 192.24C792.18 191.859 791.647 191.337 791.266 190.676C790.884 190.003 790.694 189.24 790.694 188.388C790.694 187.525 790.884 186.762 791.266 186.101C791.647 185.439 792.174 184.923 792.847 184.553C793.52 184.172 794.293 183.981 795.168 183.981C796.009 183.981 796.777 184.189 797.472 184.604C798.167 185.019 798.672 185.619 798.986 186.403L796.9 187.144C796.743 186.818 796.497 186.56 796.16 186.37C795.835 186.168 795.471 186.067 795.067 186.067C794.652 186.067 794.288 186.168 793.974 186.37C793.66 186.56 793.413 186.83 793.234 187.177C793.054 187.525 792.964 187.928 792.964 188.388C792.964 188.848 793.054 189.252 793.234 189.599C793.413 189.936 793.665 190.205 793.99 190.406C794.316 190.608 794.686 190.709 795.101 190.709C795.504 190.709 795.869 190.603 796.194 190.39C796.53 190.177 796.777 189.896 796.934 189.549L799.036 190.289C798.711 191.085 798.201 191.702 797.506 192.139C796.822 192.576 796.054 192.795 795.201 192.795ZM803.794 192.795C802.965 192.795 802.23 192.61 801.591 192.24C800.952 191.859 800.447 191.337 800.077 190.676C799.719 190.014 799.539 189.252 799.539 188.388C799.539 187.525 799.724 186.762 800.094 186.101C800.475 185.439 800.991 184.923 801.642 184.553C802.303 184.172 803.06 183.981 803.912 183.981C804.652 183.981 805.331 184.178 805.947 184.57C806.575 184.951 807.074 185.518 807.444 186.269C807.826 187.009 808.016 187.912 808.016 188.977H801.86C801.916 189.537 802.157 189.986 802.583 190.322C803.01 190.648 803.492 190.81 804.03 190.81C804.49 190.81 804.865 190.715 805.157 190.524C805.448 190.322 805.673 190.064 805.83 189.751L807.814 190.524C807.579 190.995 807.27 191.404 806.889 191.752C806.519 192.088 806.076 192.346 805.561 192.526C805.045 192.705 804.456 192.795 803.794 192.795ZM801.978 187.329H805.611C805.577 186.981 805.465 186.701 805.275 186.488C805.084 186.275 804.86 186.118 804.602 186.017C804.344 185.916 804.092 185.865 803.845 185.865C803.609 185.865 803.352 185.916 803.071 186.017C802.802 186.106 802.561 186.258 802.348 186.471C802.146 186.684 802.023 186.97 801.978 187.329ZM812.115 192.795C811.577 192.795 811.072 192.716 810.601 192.559C810.131 192.391 809.716 192.156 809.357 191.853C808.998 191.539 808.718 191.158 808.516 190.709L810.416 189.835C810.585 190.104 810.815 190.339 811.106 190.541C811.398 190.732 811.734 190.827 812.115 190.827C812.485 190.827 812.771 190.777 812.973 190.676C813.175 190.563 813.276 190.406 813.276 190.205C813.276 190.003 813.192 189.857 813.023 189.767C812.866 189.666 812.648 189.582 812.368 189.515L811.594 189.313C810.786 189.1 810.147 188.764 809.676 188.304C809.217 187.833 808.987 187.295 808.987 186.689C808.987 185.826 809.262 185.159 809.811 184.688C810.372 184.217 811.162 183.981 812.182 183.981C812.71 183.981 813.197 184.06 813.646 184.217C814.106 184.374 814.498 184.593 814.823 184.873C815.148 185.153 815.373 185.478 815.496 185.848L813.663 186.689C813.584 186.465 813.393 186.286 813.091 186.151C812.788 186.005 812.485 185.933 812.182 185.933C811.88 185.933 811.644 186 811.476 186.134C811.319 186.258 811.241 186.432 811.241 186.656C811.241 186.802 811.319 186.925 811.476 187.026C811.633 187.115 811.857 187.194 812.149 187.261L813.242 187.53C813.792 187.665 814.229 187.884 814.554 188.186C814.89 188.478 815.132 188.809 815.277 189.179C815.434 189.537 815.513 189.891 815.513 190.238C815.513 190.743 815.361 191.191 815.059 191.584C814.767 191.965 814.363 192.262 813.848 192.475C813.343 192.688 812.766 192.795 812.115 192.795Z" fill="black"/>
<path d="M850.951 175.892C850.564 175.892 850.251 176.206 850.251 176.593C850.251 176.98 850.564 177.294 850.951 177.294V176.593V175.892ZM956.568 177.089C956.842 176.815 956.842 176.371 956.568 176.097L952.108 171.638C951.835 171.364 951.391 171.364 951.117 171.638C950.844 171.911 950.844 172.355 951.117 172.629L955.082 176.593L951.117 180.557C950.844 180.831 950.844 181.275 951.117 181.548C951.391 181.822 951.835 181.822 952.108 181.548L956.568 177.089ZM850.951 176.593V177.294L956.073 177.294V176.593V175.892L850.951 175.892V176.593Z" fill="#7E837C"/>
<rect x="956.073" y="96" width="175.903" height="161.186" rx="16.8194" fill="#00A8B5"/>
<path d="M983.903 172.593V160.803H986.207V165.512H991.657V160.819H993.961V172.593H991.657V167.631H986.207V172.593H983.903ZM998.67 172.593V162.922H995.138V160.819H1004.49V162.922H1000.97V172.593H998.67ZM1005.67 172.593V160.819H1008.17L1011.6 165.899L1015.04 160.819H1017.52V172.593H1015.24V164.419L1011.6 169.767L1007.97 164.436V172.593H1005.67ZM1019.75 172.593V160.819H1022.06V170.491H1027.24V172.593H1019.75ZM1034.53 172.795C1033.52 172.795 1032.73 172.571 1032.17 172.122C1031.62 171.674 1031.35 171.04 1031.35 170.221C1031.35 169.324 1031.64 168.652 1032.24 168.203C1032.84 167.743 1033.69 167.514 1034.78 167.514H1036.76C1036.68 166.998 1036.52 166.605 1036.28 166.336C1036.03 166.056 1035.68 165.916 1035.22 165.916C1034.86 165.916 1034.53 165.994 1034.24 166.151C1033.95 166.308 1033.7 166.549 1033.5 166.874L1031.55 166.202C1031.71 165.843 1031.94 165.495 1032.24 165.159C1032.54 164.811 1032.93 164.531 1033.42 164.318C1033.91 164.094 1034.51 163.981 1035.22 163.981C1036.07 163.981 1036.77 164.144 1037.33 164.469C1037.91 164.794 1038.33 165.254 1038.6 165.848C1038.88 166.432 1039.01 167.127 1039 167.934L1038.95 172.593H1036.88L1036.85 171.617C1036.63 171.999 1036.33 172.29 1035.94 172.492C1035.56 172.694 1035.09 172.795 1034.53 172.795ZM1034.9 170.945C1035.25 170.945 1035.58 170.861 1035.87 170.692C1036.16 170.524 1036.39 170.306 1036.56 170.036C1036.73 169.767 1036.81 169.487 1036.81 169.195V169.162H1035.55C1034.82 169.162 1034.32 169.252 1034.04 169.431C1033.76 169.599 1033.62 169.84 1033.62 170.154C1033.62 170.401 1033.73 170.597 1033.95 170.743C1034.18 170.877 1034.49 170.945 1034.9 170.945ZM1040.43 172.593V164.183H1042.52L1042.62 165.327C1042.89 164.89 1043.23 164.559 1043.65 164.335C1044.07 164.099 1044.55 163.981 1045.09 163.981C1045.75 163.981 1046.32 164.116 1046.79 164.385C1047.26 164.654 1047.62 165.075 1047.87 165.647C1048.11 166.207 1048.23 166.936 1048.22 167.833V172.593H1046V168.287C1046 167.715 1045.93 167.272 1045.8 166.959C1045.67 166.645 1045.5 166.42 1045.26 166.286C1045.02 166.14 1044.75 166.067 1044.44 166.067C1043.86 166.056 1043.42 166.23 1043.11 166.588C1042.8 166.947 1042.65 167.48 1042.65 168.186V172.593H1040.43ZM1053 172.795C1052.23 172.795 1051.56 172.615 1050.98 172.257C1050.42 171.898 1049.99 171.388 1049.67 170.726C1049.36 170.064 1049.2 169.285 1049.2 168.388C1049.2 167.48 1049.36 166.701 1049.67 166.05C1049.99 165.389 1050.42 164.879 1050.98 164.52C1051.56 164.161 1052.23 163.981 1053 163.981C1053.55 163.981 1054.04 164.099 1054.47 164.335C1054.9 164.559 1055.26 164.884 1055.53 165.31V160.819H1057.75V172.593H1055.64L1055.58 171.416C1055.3 171.853 1054.94 172.195 1054.5 172.442C1054.06 172.677 1053.56 172.795 1053 172.795ZM1053.57 170.76C1053.94 170.76 1054.27 170.67 1054.55 170.491C1054.84 170.3 1055.07 170.036 1055.24 169.7C1055.41 169.364 1055.5 168.982 1055.53 168.556V168.22C1055.5 167.794 1055.41 167.418 1055.24 167.093C1055.07 166.757 1054.84 166.499 1054.55 166.319C1054.26 166.129 1053.93 166.033 1053.56 166.033C1053.15 166.033 1052.8 166.134 1052.48 166.336C1052.18 166.527 1051.94 166.802 1051.76 167.16C1051.59 167.519 1051.51 167.928 1051.51 168.388C1051.51 168.848 1051.6 169.257 1051.78 169.616C1051.95 169.975 1052.2 170.255 1052.5 170.457C1052.81 170.659 1053.17 170.76 1053.57 170.76ZM1063.31 172.593V160.819H1067.69C1068.52 160.819 1069.25 160.982 1069.89 161.307C1070.53 161.632 1071.03 162.081 1071.39 162.653C1071.75 163.213 1071.92 163.869 1071.92 164.621C1071.92 165.394 1071.72 166.078 1071.3 166.673C1070.89 167.256 1070.34 167.699 1069.67 168.001L1072.4 172.593H1069.79L1067.38 168.422C1067.32 168.422 1067.24 168.422 1067.17 168.422C1067.1 168.422 1067.02 168.422 1066.95 168.422H1065.62V172.593H1063.31ZM1065.62 166.319H1067.7C1068.05 166.319 1068.36 166.246 1068.63 166.101C1068.91 165.955 1069.13 165.753 1069.28 165.495C1069.45 165.237 1069.54 164.946 1069.54 164.621C1069.54 164.116 1069.35 163.707 1068.98 163.393C1068.62 163.079 1068.16 162.922 1067.59 162.922H1065.62V166.319ZM1077.3 172.795C1076.47 172.795 1075.74 172.61 1075.1 172.24C1074.46 171.859 1073.95 171.337 1073.58 170.676C1073.22 170.014 1073.04 169.252 1073.04 168.388C1073.04 167.525 1073.23 166.762 1073.6 166.101C1073.98 165.439 1074.5 164.923 1075.15 164.553C1075.81 164.172 1076.56 163.981 1077.42 163.981C1078.16 163.981 1078.84 164.178 1079.45 164.57C1080.08 164.951 1080.58 165.518 1080.95 166.269C1081.33 167.009 1081.52 167.912 1081.52 168.977H1075.37C1075.42 169.537 1075.66 169.986 1076.09 170.322C1076.51 170.648 1077 170.81 1077.53 170.81C1077.99 170.81 1078.37 170.715 1078.66 170.524C1078.95 170.322 1079.18 170.064 1079.33 169.751L1081.32 170.524C1081.08 170.995 1080.78 171.404 1080.39 171.752C1080.02 172.088 1079.58 172.346 1079.07 172.526C1078.55 172.705 1077.96 172.795 1077.3 172.795ZM1075.48 167.329H1079.12C1079.08 166.981 1078.97 166.701 1078.78 166.488C1078.59 166.275 1078.36 166.118 1078.11 166.017C1077.85 165.916 1077.6 165.865 1077.35 165.865C1077.11 165.865 1076.86 165.916 1076.58 166.017C1076.31 166.106 1076.07 166.258 1075.85 166.471C1075.65 166.684 1075.53 166.97 1075.48 167.329ZM1085.2 172.795C1084.19 172.795 1083.41 172.571 1082.84 172.122C1082.3 171.674 1082.02 171.04 1082.02 170.221C1082.02 169.324 1082.32 168.652 1082.91 168.203C1083.52 167.743 1084.36 167.514 1085.45 167.514H1087.44C1087.36 166.998 1087.2 166.605 1086.95 166.336C1086.7 166.056 1086.35 165.916 1085.89 165.916C1085.53 165.916 1085.21 165.994 1084.91 166.151C1084.62 166.308 1084.38 166.549 1084.17 166.874L1082.22 166.202C1082.38 165.843 1082.61 165.495 1082.91 165.159C1083.21 164.811 1083.61 164.531 1084.09 164.318C1084.58 164.094 1085.18 163.981 1085.89 163.981C1086.74 163.981 1087.45 164.144 1088.01 164.469C1088.58 164.794 1089 165.254 1089.27 165.848C1089.55 166.432 1089.68 167.127 1089.67 167.934L1089.62 172.593H1087.55L1087.52 171.617C1087.31 171.999 1087 172.29 1086.61 172.492C1086.23 172.694 1085.76 172.795 1085.2 172.795ZM1085.57 170.945C1085.93 170.945 1086.25 170.861 1086.55 170.692C1086.84 170.524 1087.07 170.306 1087.23 170.036C1087.4 169.767 1087.49 169.487 1087.49 169.195V169.162H1086.23C1085.5 169.162 1084.99 169.252 1084.71 169.431C1084.43 169.599 1084.29 169.84 1084.29 170.154C1084.29 170.401 1084.4 170.597 1084.63 170.743C1084.85 170.877 1085.17 170.945 1085.57 170.945ZM1095.16 172.795C1094.29 172.795 1093.51 172.61 1092.82 172.24C1092.14 171.859 1091.61 171.337 1091.22 170.676C1090.84 170.003 1090.65 169.24 1090.65 168.388C1090.65 167.525 1090.84 166.762 1091.22 166.101C1091.61 165.439 1092.13 164.923 1092.81 164.553C1093.48 164.172 1094.25 163.981 1095.13 163.981C1095.97 163.981 1096.74 164.189 1097.43 164.604C1098.13 165.019 1098.63 165.619 1098.94 166.403L1096.86 167.144C1096.7 166.818 1096.46 166.56 1096.12 166.37C1095.79 166.168 1095.43 166.067 1095.03 166.067C1094.61 166.067 1094.25 166.168 1093.93 166.37C1093.62 166.56 1093.37 166.83 1093.19 167.177C1093.01 167.525 1092.92 167.928 1092.92 168.388C1092.92 168.848 1093.01 169.252 1093.19 169.599C1093.37 169.936 1093.62 170.205 1093.95 170.406C1094.27 170.608 1094.64 170.709 1095.06 170.709C1095.46 170.709 1095.83 170.603 1096.15 170.39C1096.49 170.177 1096.74 169.896 1096.89 169.549L1098.99 170.289C1098.67 171.085 1098.16 171.702 1097.46 172.139C1096.78 172.576 1096.01 172.795 1095.16 172.795ZM1103.42 172.795C1102.49 172.795 1101.78 172.565 1101.3 172.105C1100.83 171.646 1100.59 170.99 1100.59 170.137V166.067H1099.23V164.183H1100.59V161.559H1102.81V164.183H1104.91V166.067H1102.81V169.65C1102.81 170.008 1102.89 170.283 1103.05 170.474C1103.2 170.653 1103.43 170.743 1103.74 170.743C1103.85 170.743 1103.97 170.72 1104.11 170.676C1104.24 170.62 1104.38 170.541 1104.53 170.44L1105.3 172.105C1105.03 172.307 1104.73 172.47 1104.39 172.593C1104.07 172.728 1103.74 172.795 1103.42 172.795ZM1030.41 192.795C1029.53 192.795 1028.75 192.61 1028.07 192.24C1027.38 191.859 1026.85 191.337 1026.47 190.676C1026.09 190.003 1025.9 189.24 1025.9 188.388C1025.9 187.525 1026.09 186.762 1026.47 186.101C1026.85 185.439 1027.38 184.923 1028.05 184.553C1028.72 184.172 1029.5 183.981 1030.37 183.981C1031.21 183.981 1031.98 184.189 1032.68 184.604C1033.37 185.019 1033.88 185.619 1034.19 186.403L1032.1 187.144C1031.95 186.818 1031.7 186.56 1031.36 186.37C1031.04 186.168 1030.67 186.067 1030.27 186.067C1029.86 186.067 1029.49 186.168 1029.18 186.37C1028.86 186.56 1028.62 186.83 1028.44 187.177C1028.26 187.525 1028.17 187.928 1028.17 188.388C1028.17 188.848 1028.26 189.252 1028.44 189.599C1028.62 189.936 1028.87 190.205 1029.19 190.406C1029.52 190.608 1029.89 190.709 1030.3 190.709C1030.71 190.709 1031.07 190.603 1031.4 190.39C1031.73 190.177 1031.98 189.896 1032.14 189.549L1034.24 190.289C1033.92 191.085 1033.41 191.702 1032.71 192.139C1032.03 192.576 1031.26 192.795 1030.41 192.795ZM1039.15 192.795C1038.3 192.795 1037.54 192.61 1036.86 192.24C1036.2 191.859 1035.68 191.337 1035.3 190.676C1034.93 190.014 1034.74 189.252 1034.74 188.388C1034.74 187.525 1034.93 186.762 1035.3 186.101C1035.67 185.439 1036.18 184.923 1036.85 184.553C1037.51 184.172 1038.26 183.981 1039.12 183.981C1039.98 183.981 1040.74 184.172 1041.4 184.553C1042.07 184.923 1042.58 185.439 1042.95 186.101C1043.32 186.762 1043.51 187.525 1043.51 188.388C1043.51 189.252 1043.32 190.014 1042.95 190.676C1042.58 191.337 1042.07 191.859 1041.4 192.24C1040.75 192.61 1040 192.795 1039.15 192.795ZM1039.15 190.743C1039.56 190.743 1039.93 190.642 1040.24 190.44C1040.56 190.238 1040.8 189.964 1040.97 189.616C1041.15 189.257 1041.24 188.848 1041.24 188.388C1041.24 187.928 1041.15 187.525 1040.97 187.177C1040.79 186.818 1040.53 186.538 1040.21 186.336C1039.9 186.134 1039.53 186.033 1039.12 186.033C1038.71 186.033 1038.35 186.134 1038.02 186.336C1037.71 186.538 1037.46 186.818 1037.28 187.177C1037.1 187.525 1037.01 187.928 1037.01 188.388C1037.01 188.848 1037.1 189.257 1037.28 189.616C1037.46 189.964 1037.71 190.238 1038.04 190.44C1038.37 190.642 1038.74 190.743 1039.15 190.743ZM1047.98 192.795C1047.21 192.795 1046.53 192.615 1045.96 192.257C1045.4 191.898 1044.96 191.388 1044.65 190.726C1044.34 190.064 1044.18 189.285 1044.18 188.388C1044.18 187.48 1044.34 186.701 1044.65 186.05C1044.96 185.389 1045.4 184.879 1045.96 184.52C1046.53 184.161 1047.21 183.981 1047.98 183.981C1048.53 183.981 1049.02 184.099 1049.44 184.335C1049.88 184.559 1050.23 184.884 1050.5 185.31V180.819H1052.72V192.593H1050.62L1050.55 191.416C1050.27 191.853 1049.92 192.195 1049.48 192.442C1049.04 192.677 1048.54 192.795 1047.98 192.795ZM1048.55 190.76C1048.92 190.76 1049.25 190.67 1049.53 190.491C1049.82 190.3 1050.05 190.036 1050.22 189.7C1050.39 189.364 1050.48 188.982 1050.5 188.556V188.22C1050.48 187.794 1050.39 187.418 1050.22 187.093C1050.05 186.757 1049.82 186.499 1049.53 186.319C1049.24 186.129 1048.91 186.033 1048.54 186.033C1048.13 186.033 1047.77 186.134 1047.46 186.336C1047.16 186.527 1046.92 186.802 1046.74 187.16C1046.57 187.519 1046.48 187.928 1046.48 188.388C1046.48 188.848 1046.57 189.257 1046.75 189.616C1046.93 189.975 1047.17 190.255 1047.48 190.457C1047.79 190.659 1048.15 190.76 1048.55 190.76ZM1058.1 192.795C1057.27 192.795 1056.54 192.61 1055.9 192.24C1055.26 191.859 1054.75 191.337 1054.38 190.676C1054.03 190.014 1053.85 189.252 1053.85 188.388C1053.85 187.525 1054.03 186.762 1054.4 186.101C1054.78 185.439 1055.3 184.923 1055.95 184.553C1056.61 184.172 1057.37 183.981 1058.22 183.981C1058.96 183.981 1059.64 184.178 1060.25 184.57C1060.88 184.951 1061.38 185.518 1061.75 186.269C1062.13 187.009 1062.32 187.912 1062.32 188.977H1056.17C1056.22 189.537 1056.46 189.986 1056.89 190.322C1057.32 190.648 1057.8 190.81 1058.34 190.81C1058.8 190.81 1059.17 190.715 1059.46 190.524C1059.76 190.322 1059.98 190.064 1060.14 189.751L1062.12 190.524C1061.89 190.995 1061.58 191.404 1061.2 191.752C1060.83 192.088 1060.38 192.346 1059.87 192.526C1059.35 192.705 1058.76 192.795 1058.1 192.795ZM1056.29 187.329H1059.92C1059.88 186.981 1059.77 186.701 1059.58 186.488C1059.39 186.275 1059.17 186.118 1058.91 186.017C1058.65 185.916 1058.4 185.865 1058.15 185.865C1057.92 185.865 1057.66 185.916 1057.38 186.017C1057.11 186.106 1056.87 186.258 1056.66 186.471C1056.45 186.684 1056.33 186.97 1056.29 187.329Z" fill="black"/>
<path d="M1131.98 175.892C1131.59 175.892 1131.28 176.206 1131.28 176.593C1131.28 176.98 1131.59 177.294 1131.98 177.294V176.593V175.892ZM1237.59 177.089C1237.87 176.815 1237.87 176.371 1237.59 176.097L1233.13 171.638C1232.86 171.364 1232.42 171.364 1232.14 171.638C1231.87 171.911 1231.87 172.355 1232.14 172.629L1236.11 176.593L1232.14 180.557C1231.87 180.831 1231.87 181.275 1232.14 181.548C1232.42 181.822 1232.86 181.822 1233.13 181.548L1237.59 177.089ZM1131.98 176.593V177.294L1237.1 177.294V176.593V175.892L1131.98 175.892V176.593Z" fill="#7E837C"/>
<rect x="1237.1" y="96" width="175.903" height="161.186" rx="16.8194" fill="#00A8B5"/>
<path d="M1308.98 172.593V160.819H1316.53V162.922H1311.28V165.748H1315.65V167.85H1311.28V172.593H1308.98ZM1317.77 172.593V164.183H1319.99V172.593H1317.77ZM1318.88 162.821C1318.54 162.821 1318.25 162.698 1317.99 162.451C1317.73 162.193 1317.6 161.89 1317.6 161.543C1317.6 161.195 1317.73 160.898 1317.99 160.651C1318.25 160.393 1318.54 160.264 1318.88 160.264C1319.23 160.264 1319.52 160.393 1319.77 160.651C1320.03 160.898 1320.16 161.195 1320.16 161.543C1320.16 161.89 1320.03 162.193 1319.77 162.451C1319.52 162.698 1319.23 162.821 1318.88 162.821ZM1321.7 172.593V164.183H1323.79L1323.89 165.327C1324.16 164.89 1324.5 164.559 1324.91 164.335C1325.34 164.099 1325.82 163.981 1326.36 163.981C1327.02 163.981 1327.59 164.116 1328.06 164.385C1328.53 164.654 1328.89 165.075 1329.13 165.647C1329.38 166.207 1329.5 166.936 1329.49 167.833V172.593H1327.27V168.287C1327.27 167.715 1327.2 167.272 1327.06 166.959C1326.94 166.645 1326.76 166.42 1326.53 166.286C1326.29 166.14 1326.02 166.067 1325.7 166.067C1325.13 166.056 1324.69 166.23 1324.37 166.588C1324.07 166.947 1323.92 167.48 1323.92 168.186V172.593H1321.7ZM1333.65 172.795C1332.64 172.795 1331.85 172.571 1331.29 172.122C1330.74 171.674 1330.47 171.04 1330.47 170.221C1330.47 169.324 1330.77 168.652 1331.36 168.203C1331.97 167.743 1332.81 167.514 1333.9 167.514H1335.88C1335.81 166.998 1335.64 166.605 1335.4 166.336C1335.15 166.056 1334.8 165.916 1334.34 165.916C1333.98 165.916 1333.65 165.994 1333.36 166.151C1333.07 166.308 1332.82 166.549 1332.62 166.874L1330.67 166.202C1330.83 165.843 1331.06 165.495 1331.36 165.159C1331.66 164.811 1332.06 164.531 1332.54 164.318C1333.03 164.094 1333.63 163.981 1334.34 163.981C1335.19 163.981 1335.9 164.144 1336.46 164.469C1337.03 164.794 1337.45 165.254 1337.72 165.848C1338 166.432 1338.13 167.127 1338.12 167.934L1338.07 172.593H1336L1335.97 171.617C1335.76 171.999 1335.45 172.29 1335.06 172.492C1334.68 172.694 1334.21 172.795 1333.65 172.795ZM1334.02 170.945C1334.38 170.945 1334.7 170.861 1334.99 170.692C1335.28 170.524 1335.51 170.306 1335.68 170.036C1335.85 169.767 1335.93 169.487 1335.93 169.195V169.162H1334.67C1333.94 169.162 1333.44 169.252 1333.16 169.431C1332.88 169.599 1332.74 169.84 1332.74 170.154C1332.74 170.401 1332.85 170.597 1333.08 170.743C1333.3 170.877 1333.61 170.945 1334.02 170.945ZM1339.55 172.593V160.819H1341.77V172.593H1339.55ZM1272.3 192.795C1271.53 192.795 1270.85 192.615 1270.28 192.257C1269.72 191.898 1269.28 191.388 1268.97 190.726C1268.66 190.064 1268.5 189.285 1268.5 188.388C1268.5 187.48 1268.66 186.701 1268.97 186.05C1269.28 185.389 1269.72 184.879 1270.28 184.52C1270.85 184.161 1271.53 183.981 1272.3 183.981C1272.85 183.981 1273.34 184.099 1273.76 184.335C1274.2 184.559 1274.55 184.884 1274.82 185.31V180.819H1277.04V192.593H1274.94L1274.87 191.416C1274.59 191.853 1274.23 192.195 1273.8 192.442C1273.36 192.677 1272.86 192.795 1272.3 192.795ZM1272.87 190.76C1273.24 190.76 1273.57 190.67 1273.85 190.491C1274.14 190.3 1274.37 190.036 1274.54 189.7C1274.7 189.364 1274.8 188.982 1274.82 188.556V188.22C1274.8 187.794 1274.7 187.418 1274.54 187.093C1274.37 186.757 1274.14 186.499 1273.85 186.319C1273.56 186.129 1273.22 186.033 1272.85 186.033C1272.45 186.033 1272.09 186.134 1271.78 186.336C1271.48 186.527 1271.23 186.802 1271.05 187.16C1270.89 187.519 1270.8 187.928 1270.8 188.388C1270.8 188.848 1270.89 189.257 1271.07 189.616C1271.25 189.975 1271.49 190.255 1271.79 190.457C1272.11 190.659 1272.47 190.76 1272.87 190.76ZM1282.57 192.795C1281.72 192.795 1280.96 192.61 1280.28 192.24C1279.62 191.859 1279.1 191.337 1278.72 190.676C1278.35 190.014 1278.16 189.252 1278.16 188.388C1278.16 187.525 1278.35 186.762 1278.72 186.101C1279.09 185.439 1279.61 184.923 1280.27 184.553C1280.93 184.172 1281.69 183.981 1282.54 183.981C1283.4 183.981 1284.16 184.172 1284.83 184.553C1285.49 184.923 1286 185.439 1286.37 186.101C1286.74 186.762 1286.93 187.525 1286.93 188.388C1286.93 189.252 1286.74 190.014 1286.37 190.676C1286 191.337 1285.49 191.859 1284.83 192.24C1284.17 192.61 1283.42 192.795 1282.57 192.795ZM1282.57 190.743C1282.99 190.743 1283.35 190.642 1283.66 190.44C1283.98 190.238 1284.22 189.964 1284.39 189.616C1284.57 189.257 1284.66 188.848 1284.66 188.388C1284.66 187.928 1284.57 187.525 1284.39 187.177C1284.21 186.818 1283.96 186.538 1283.63 186.336C1283.32 186.134 1282.95 186.033 1282.54 186.033C1282.13 186.033 1281.77 186.134 1281.44 186.336C1281.13 186.538 1280.88 186.818 1280.7 187.177C1280.53 187.525 1280.44 187.928 1280.44 188.388C1280.44 188.848 1280.53 189.257 1280.7 189.616C1280.88 189.964 1281.14 190.238 1281.46 190.44C1281.79 190.642 1282.16 190.743 1282.57 190.743ZM1292.11 192.795C1291.23 192.795 1290.46 192.61 1289.77 192.24C1289.09 191.859 1288.55 191.337 1288.17 190.676C1287.79 190.003 1287.6 189.24 1287.6 188.388C1287.6 187.525 1287.79 186.762 1288.17 186.101C1288.55 185.439 1289.08 184.923 1289.75 184.553C1290.43 184.172 1291.2 183.981 1292.08 183.981C1292.92 183.981 1293.68 184.189 1294.38 184.604C1295.07 185.019 1295.58 185.619 1295.89 186.403L1293.81 187.144C1293.65 186.818 1293.4 186.56 1293.07 186.37C1292.74 186.168 1292.38 186.067 1291.97 186.067C1291.56 186.067 1291.2 186.168 1290.88 186.37C1290.57 186.56 1290.32 186.83 1290.14 187.177C1289.96 187.525 1289.87 187.928 1289.87 188.388C1289.87 188.848 1289.96 189.252 1290.14 189.599C1290.32 189.936 1290.57 190.205 1290.9 190.406C1291.22 190.608 1291.59 190.709 1292.01 190.709C1292.41 190.709 1292.78 190.603 1293.1 190.39C1293.44 190.177 1293.68 189.896 1293.84 189.549L1295.94 190.289C1295.62 191.085 1295.11 191.702 1294.41 192.139C1293.73 192.576 1292.96 192.795 1292.11 192.795ZM1299.89 192.795C1299.22 192.795 1298.65 192.66 1298.18 192.391C1297.72 192.122 1297.37 191.707 1297.12 191.147C1296.87 190.575 1296.75 189.84 1296.75 188.943V184.183H1298.97V188.489C1298.97 189.05 1299.03 189.493 1299.15 189.818C1299.29 190.132 1299.47 190.362 1299.71 190.507C1299.96 190.642 1300.23 190.709 1300.53 190.709C1301.12 190.72 1301.56 190.547 1301.86 190.188C1302.17 189.818 1302.32 189.285 1302.32 188.59V184.183H1304.54V192.593H1302.45L1302.37 191.449C1302.09 191.875 1301.73 192.206 1301.31 192.442C1300.89 192.677 1300.42 192.795 1299.89 192.795ZM1306.12 192.593V184.183H1308.21L1308.31 185.277C1308.57 184.85 1308.9 184.531 1309.3 184.318C1309.71 184.094 1310.15 183.981 1310.65 183.981C1311.33 183.981 1311.9 184.127 1312.36 184.419C1312.83 184.71 1313.18 185.159 1313.39 185.764C1313.64 185.192 1313.98 184.755 1314.43 184.452C1314.88 184.138 1315.4 183.981 1316 183.981C1316.98 183.981 1317.73 184.295 1318.25 184.923C1318.77 185.54 1319.02 186.493 1319.02 187.783V192.593H1316.8V188.287C1316.8 187.715 1316.74 187.272 1316.62 186.959C1316.5 186.645 1316.33 186.42 1316.11 186.286C1315.9 186.14 1315.65 186.067 1315.36 186.067C1314.82 186.056 1314.4 186.23 1314.11 186.588C1313.82 186.947 1313.68 187.48 1313.68 188.186V192.593H1311.46V188.287C1311.46 187.715 1311.39 187.272 1311.27 186.959C1311.16 186.645 1310.99 186.42 1310.77 186.286C1310.55 186.14 1310.3 186.067 1310.01 186.067C1309.47 186.056 1309.06 186.23 1308.76 186.588C1308.48 186.947 1308.34 187.48 1308.34 188.186V192.593H1306.12ZM1324.26 192.795C1323.43 192.795 1322.69 192.61 1322.05 192.24C1321.41 191.859 1320.91 191.337 1320.54 190.676C1320.18 190.014 1320 189.252 1320 188.388C1320 187.525 1320.19 186.762 1320.56 186.101C1320.94 185.439 1321.45 184.923 1322.1 184.553C1322.77 184.172 1323.52 183.981 1324.37 183.981C1325.11 183.981 1325.79 184.178 1326.41 184.57C1327.04 184.951 1327.54 185.518 1327.91 186.269C1328.29 187.009 1328.48 187.912 1328.48 188.977H1322.32C1322.38 189.537 1322.62 189.986 1323.05 190.322C1323.47 190.648 1323.95 190.81 1324.49 190.81C1324.95 190.81 1325.33 190.715 1325.62 190.524C1325.91 190.322 1326.13 190.064 1326.29 189.751L1328.28 190.524C1328.04 190.995 1327.73 191.404 1327.35 191.752C1326.98 192.088 1326.54 192.346 1326.02 192.526C1325.51 192.705 1324.92 192.795 1324.26 192.795ZM1322.44 187.329H1326.07C1326.04 186.981 1325.93 186.701 1325.74 186.488C1325.55 186.275 1325.32 186.118 1325.06 186.017C1324.81 185.916 1324.55 185.865 1324.31 185.865C1324.07 185.865 1323.81 185.916 1323.53 186.017C1323.26 186.106 1323.02 186.258 1322.81 186.471C1322.61 186.684 1322.48 186.97 1322.44 187.329ZM1329.43 192.593V184.183H1331.52L1331.62 185.327C1331.89 184.89 1332.23 184.559 1332.64 184.335C1333.07 184.099 1333.55 183.981 1334.09 183.981C1334.75 183.981 1335.32 184.116 1335.79 184.385C1336.26 184.654 1336.62 185.075 1336.87 185.647C1337.11 186.207 1337.23 186.936 1337.22 187.833V192.593H1335V188.287C1335 187.715 1334.93 187.272 1334.8 186.959C1334.67 186.645 1334.49 186.42 1334.26 186.286C1334.02 186.14 1333.75 186.067 1333.43 186.067C1332.86 186.056 1332.42 186.23 1332.11 186.588C1331.8 186.947 1331.65 187.48 1331.65 188.186V192.593H1329.43ZM1342.12 192.795C1341.19 192.795 1340.48 192.565 1340 192.105C1339.53 191.646 1339.29 190.99 1339.29 190.137V186.067H1337.93V184.183H1339.29V181.559H1341.51V184.183H1343.62V186.067H1341.51V189.65C1341.51 190.008 1341.59 190.283 1341.75 190.474C1341.91 190.653 1342.14 190.743 1342.44 190.743C1342.55 190.743 1342.67 190.72 1342.81 190.676C1342.94 190.62 1343.08 190.541 1343.23 190.44L1344 192.105C1343.73 192.307 1343.43 192.47 1343.1 192.593C1342.77 192.728 1342.44 192.795 1342.12 192.795ZM1347.66 192.795C1346.65 192.795 1345.87 192.571 1345.31 192.122C1344.76 191.674 1344.48 191.04 1344.48 190.221C1344.48 189.324 1344.78 188.652 1345.38 188.203C1345.98 187.743 1346.83 187.514 1347.92 187.514H1349.9C1349.82 186.998 1349.66 186.605 1349.41 186.336C1349.17 186.056 1348.81 185.916 1348.35 185.916C1347.99 185.916 1347.67 185.994 1347.38 186.151C1347.09 186.308 1346.84 186.549 1346.64 186.874L1344.69 186.202C1344.84 185.843 1345.07 185.495 1345.38 185.159C1345.68 184.811 1346.07 184.531 1346.55 184.318C1347.05 184.094 1347.65 183.981 1348.35 183.981C1349.2 183.981 1349.91 184.144 1350.47 184.469C1351.04 184.794 1351.46 185.254 1351.73 185.848C1352.01 186.432 1352.15 187.127 1352.14 187.934L1352.09 192.593H1350.02L1349.98 191.617C1349.77 191.999 1349.47 192.29 1349.08 192.492C1348.69 192.694 1348.22 192.795 1347.66 192.795ZM1348.03 190.945C1348.39 190.945 1348.72 190.861 1349.01 190.692C1349.3 190.524 1349.53 190.306 1349.7 190.036C1349.87 189.767 1349.95 189.487 1349.95 189.195V189.162H1348.69C1347.96 189.162 1347.46 189.252 1347.17 189.431C1346.89 189.599 1346.75 189.84 1346.75 190.154C1346.75 190.401 1346.87 190.597 1347.09 190.743C1347.32 190.877 1347.63 190.945 1348.03 190.945ZM1357.03 192.795C1356.1 192.795 1355.4 192.565 1354.92 192.105C1354.44 191.646 1354.21 190.99 1354.21 190.137V186.067H1352.85V184.183H1354.21V181.559H1356.43V184.183H1358.53V186.067H1356.43V189.65C1356.43 190.008 1356.51 190.283 1356.66 190.474C1356.82 190.653 1357.05 190.743 1357.35 190.743C1357.47 190.743 1357.59 190.72 1357.72 190.676C1357.86 190.62 1358 190.541 1358.14 190.44L1358.92 192.105C1358.65 192.307 1358.35 192.47 1358.01 192.593C1357.68 192.728 1357.36 192.795 1357.03 192.795ZM1360.14 192.593V184.183H1362.36V192.593H1360.14ZM1361.25 182.821C1360.91 182.821 1360.61 182.698 1360.35 182.451C1360.1 182.193 1359.97 181.89 1359.97 181.543C1359.97 181.195 1360.1 180.898 1360.35 180.651C1360.61 180.393 1360.91 180.264 1361.25 180.264C1361.59 180.264 1361.89 180.393 1362.14 180.651C1362.39 180.898 1362.52 181.195 1362.52 181.543C1362.52 181.89 1362.39 182.193 1362.14 182.451C1361.89 182.698 1361.59 182.821 1361.25 182.821ZM1368.02 192.795C1367.17 192.795 1366.4 192.61 1365.73 192.24C1365.07 191.859 1364.55 191.337 1364.17 190.676C1363.8 190.014 1363.61 189.252 1363.61 188.388C1363.61 187.525 1363.8 186.762 1364.17 186.101C1364.54 185.439 1365.05 184.923 1365.71 184.553C1366.38 184.172 1367.13 183.981 1367.99 183.981C1368.85 183.981 1369.61 184.172 1370.27 184.553C1370.93 184.923 1371.45 185.439 1371.82 186.101C1372.19 186.762 1372.37 187.525 1372.37 188.388C1372.37 189.252 1372.19 190.014 1371.82 190.676C1371.45 191.337 1370.93 191.859 1370.27 192.24C1369.62 192.61 1368.87 192.795 1368.02 192.795ZM1368.02 190.743C1368.43 190.743 1368.8 190.642 1369.11 190.44C1369.43 190.238 1369.67 189.964 1369.84 189.616C1370.01 189.257 1370.1 188.848 1370.1 188.388C1370.1 187.928 1370.01 187.525 1369.84 187.177C1369.66 186.818 1369.4 186.538 1369.08 186.336C1368.76 186.134 1368.4 186.033 1367.99 186.033C1367.58 186.033 1367.22 186.134 1366.89 186.336C1366.58 186.538 1366.33 186.818 1366.15 187.177C1365.97 187.525 1365.88 187.928 1365.88 188.388C1365.88 188.848 1365.97 189.257 1366.15 189.616C1366.33 189.964 1366.58 190.238 1366.91 190.44C1367.23 190.642 1367.6 190.743 1368.02 190.743ZM1373.5 192.593V184.183H1375.59L1375.69 185.327C1375.96 184.89 1376.3 184.559 1376.72 184.335C1377.14 184.099 1377.62 183.981 1378.16 183.981C1378.82 183.981 1379.39 184.116 1379.86 184.385C1380.33 184.654 1380.69 185.075 1380.94 185.647C1381.18 186.207 1381.3 186.936 1381.29 187.833V192.593H1379.07V188.287C1379.07 187.715 1379 187.272 1378.87 186.959C1378.74 186.645 1378.57 186.42 1378.33 186.286C1378.09 186.14 1377.82 186.067 1377.51 186.067C1376.93 186.056 1376.49 186.23 1376.18 186.588C1375.87 186.947 1375.72 187.48 1375.72 188.186V192.593H1373.5Z" fill="black"/>
</svg>
