<svg width="600" height="758" viewBox="0 0 600 758" fill="none" xmlns="http://www.w3.org/2000/svg">
<rect x="0.5" y="0.5" width="599" height="757" rx="15.5" fill="white"/>
<rect x="0.5" y="0.5" width="599" height="757" rx="15.5" stroke="#E5E6E5"/>
<path d="M421.857 31.999C422.55 33.1959 423.092 34.4904 423.457 35.8574L422.976 35.9863C423.318 37.2659 423.5 38.6113 423.5 40V45.0225H424V50.0449H423.5V60.0889H424V65.1113H423.5V75.1562H424V80.1777H423.5V90.2227H424V95.2451H423.5V105.289H424V110.312H423.5V120.355H424V125.378H423.5V135.423H424V140.444H423.5V150.489H424V155.512H423.5V165.556H424V170.578H423.5V180.622H424V185.645H423.5V195.689H424V200.711H423.5V210.756H424V215.778H423.5V225.822H424V230.845H423.5V240.889H424V245.911H423.5V255.956H424V260.978H423.5V271.022H424V276.045H423.5V286.089H424V291.111H423.5V301.155H424V306.178H423.5V316.223H424V321.244H423.5V331.289H424V336.312H423.5V346.355H424V351.378H423.5V361.422H424V366.444H423.5V376.489H424V381.511H423.5V391.556H424V396.578H423.5V406.622H424V411.645H423.5V421.688H424V426.711H423.5V436.756H424V441.777H423.5V451.822H424V456.845H423.5V466.889H424V471.911H423.5V481.955H424V486.978H423.5V497.022H424V502.045H423.5V512.089H424V517.111H423.5V527.155H424V532.178H423.5V542.223H424V547.244H423.5V557.289H424V562.312H423.5V572.355H424V577.378H423.5V587.422H424V592.444H423.5V602.489H424V607.511H423.5V617.556H424V622.578H423.5V632.622H424V637.645H423.5V647.688H424V652.711H423.5V662.756H424V667.777H423.5V677.822H424V682.845H423.5V692.889H424V697.911H423.5V707.955H424V712.978H423.5V718C423.5 719.389 423.318 720.734 422.976 722.014L423.457 722.142C423.092 723.509 422.55 724.803 421.857 726L421.426 725.751C420.065 728.103 418.103 730.065 415.751 731.426L416 731.857C414.803 732.55 413.509 733.092 412.142 733.457L412.014 732.976C410.734 733.318 409.389 733.5 408 733.5H402.857V734H397.714V733.5H387.429V734H382.286V733.5H372V734H366.857V733.5H356.571V734H351.429V733.5H341.143V734H336V733.5H325.714V734H320.571V733.5H310.286V734H305.143V733.5H294.857V734H289.714V733.5H279.429V734H274.286V733.5H264V734H258.857V733.5H248.571V734H243.429V733.5H233.143V734H228V733.5H217.714V734H212.571V733.5H202.286V734H197.143V733.5H192C190.611 733.5 189.266 733.318 187.986 732.976L187.857 733.457C186.49 733.092 185.196 732.55 183.999 731.857L184.249 731.426C181.897 730.065 179.935 728.103 178.574 725.751L178.142 726C177.449 724.803 176.907 723.509 176.542 722.142L177.024 722.014C176.682 720.734 176.5 719.389 176.5 718V712.978H176V707.955H176.5V697.911H176V692.889H176.5V682.844H176V677.822H176.5V667.777H176V662.755H176.5V652.711H176V647.688H176.5V637.645H176V632.622H176.5V622.577H176V617.556H176.5V607.511H176V602.488H176.5V592.444H176V587.422H176.5V577.378H176V572.355H176.5V562.311H176V557.289H176.5V547.244H176V542.222H176.5V532.178H176V527.155H176.5V517.111H176V512.089H176.5V502.044H176V497.022H176.5V486.978H176V481.955H176.5V471.911H176V466.889H176.5V456.845H176V451.822H176.5V441.777H176V436.756H176.5V426.711H176V421.688H176.5V411.645H176V406.622H176.5V396.578H176V391.556H176.5V381.511H176V376.489H176.5V366.444H176V361.422H176.5V351.378H176V346.355H176.5V336.312H176V331.289H176.5V321.244H176V316.223H176.5V306.178H176V301.155H176.5V291.111H176V286.089H176.5V276.045H176V271.022H176.5V260.978H176V255.955H176.5V245.911H176V240.889H176.5V230.845H176V225.822H176.5V215.777H176V210.756H176.5V200.711H176V195.688H176.5V185.645H176V180.622H176.5V170.578H176V165.556H176.5V155.511H176V150.489H176.5V140.444H176V135.422H176.5V125.378H176V120.355H176.5V110.312H176V105.289H176.5V95.2441H176V90.2227H176.5V80.1777H176V75.1553H176.5V65.1113H176V60.0889H176.5V50.0449H176V45.0225H176.5V40C176.5 38.6113 176.682 37.2659 177.024 35.9863L176.542 35.8574C176.904 34.5046 177.438 33.2226 178.12 32.0361L178.142 31.999L178.574 32.249C179.935 29.8968 181.897 27.9352 184.249 26.5742L183.999 26.1416C185.196 25.4492 186.491 24.9074 187.857 24.542L187.986 25.0244C189.266 24.6824 190.611 24.5 192 24.5H197.143V24H202.286V24.5H212.571V24H217.714V24.5H228V24H233.143V24.5H243.429V24H248.571V24.5H258.857V24H264V24.5H274.286V24H279.429V24.5H289.714V24H294.857V24.5H305.143V24H310.286V24.5H320.571V24H325.714V24.5H336V24H341.143V24.5H351.429V24H356.571V24.5H366.857V24H372V24.5H382.286V24H387.429V24.5H397.714V24H402.857V24.5H408C409.389 24.5 410.734 24.6824 412.014 25.0244L412.142 24.542C413.509 24.9073 414.803 25.4492 416 26.1416L415.751 26.5742C418.103 27.9352 420.065 29.8968 421.426 32.249L421.857 31.999Z" stroke="#8A38F5" stroke-dasharray="10 5"/>
<path d="M201.008 59V48.57H202.912V57.32H207.378V59H201.008ZM210.766 59.168C210.234 59.168 209.772 59.0793 209.38 58.902C208.988 58.7247 208.684 58.4727 208.47 58.146C208.255 57.81 208.148 57.4227 208.148 56.984C208.148 56.564 208.241 56.1907 208.428 55.864C208.614 55.528 208.904 55.248 209.296 55.024C209.688 54.8 210.182 54.6413 210.78 54.548L213.272 54.142V55.542L211.13 55.906C210.766 55.9713 210.495 56.088 210.318 56.256C210.14 56.424 210.052 56.6433 210.052 56.914C210.052 57.1753 210.15 57.3853 210.346 57.544C210.551 57.6933 210.803 57.768 211.102 57.768C211.484 57.768 211.82 57.6887 212.11 57.53C212.408 57.362 212.637 57.1333 212.796 56.844C212.964 56.5547 213.048 56.2373 213.048 55.892V53.932C213.048 53.6053 212.917 53.3347 212.656 53.12C212.404 52.896 212.068 52.784 211.648 52.784C211.256 52.784 210.906 52.8913 210.598 53.106C210.299 53.3113 210.08 53.5867 209.94 53.932L208.442 53.204C208.591 52.8027 208.824 52.4573 209.142 52.168C209.468 51.8693 209.851 51.636 210.29 51.468C210.728 51.3 211.204 51.216 211.718 51.216C212.343 51.216 212.894 51.3327 213.37 51.566C213.846 51.79 214.214 52.1073 214.476 52.518C214.746 52.9193 214.882 53.3907 214.882 53.932V59H213.146V57.698L213.538 57.67C213.342 57.9967 213.108 58.272 212.838 58.496C212.567 58.7107 212.259 58.8787 211.914 59C211.568 59.112 211.186 59.168 210.766 59.168ZM220.735 59.168C220.184 59.168 219.675 59.0607 219.209 58.846C218.751 58.622 218.387 58.3047 218.117 57.894L218.299 57.53V59H216.577V48.402H218.411V52.896L218.131 52.518C218.392 52.1073 218.747 51.79 219.195 51.566C219.643 51.3327 220.161 51.216 220.749 51.216C221.467 51.216 222.116 51.3933 222.695 51.748C223.273 52.1027 223.731 52.5787 224.067 53.176C224.412 53.7733 224.585 54.4453 224.585 55.192C224.585 55.9293 224.417 56.6013 224.081 57.208C223.745 57.8147 223.287 58.2953 222.709 58.65C222.13 58.9953 221.472 59.168 220.735 59.168ZM220.525 57.488C220.945 57.488 221.318 57.39 221.645 57.194C221.971 56.998 222.223 56.7273 222.401 56.382C222.587 56.0367 222.681 55.64 222.681 55.192C222.681 54.744 222.587 54.352 222.401 54.016C222.223 53.6707 221.971 53.4 221.645 53.204C221.318 52.9987 220.945 52.896 220.525 52.896C220.123 52.896 219.759 52.994 219.433 53.19C219.115 53.386 218.863 53.6613 218.677 54.016C218.499 54.3613 218.411 54.7533 218.411 55.192C218.411 55.64 218.499 56.0367 218.677 56.382C218.863 56.7273 219.115 56.998 219.433 57.194C219.759 57.39 220.123 57.488 220.525 57.488ZM229.595 59.168C228.811 59.168 228.125 58.9907 227.537 58.636C226.949 58.2813 226.492 57.8007 226.165 57.194C225.838 56.5873 225.675 55.9153 225.675 55.178C225.675 54.4127 225.838 53.736 226.165 53.148C226.501 52.5507 226.954 52.0793 227.523 51.734C228.102 51.3887 228.746 51.216 229.455 51.216C230.052 51.216 230.575 51.314 231.023 51.51C231.48 51.706 231.868 51.9767 232.185 52.322C232.502 52.6673 232.745 53.064 232.913 53.512C233.081 53.9507 233.165 54.4267 233.165 54.94C233.165 55.0707 233.156 55.206 233.137 55.346C233.128 55.486 233.104 55.6073 233.067 55.71H227.187V54.31H232.031L231.163 54.968C231.247 54.5387 231.224 54.156 231.093 53.82C230.972 53.484 230.766 53.218 230.477 53.022C230.197 52.826 229.856 52.728 229.455 52.728C229.072 52.728 228.732 52.826 228.433 53.022C228.134 53.2087 227.906 53.4887 227.747 53.862C227.598 54.226 227.542 54.6693 227.579 55.192C227.542 55.6587 227.602 56.074 227.761 56.438C227.929 56.7927 228.172 57.068 228.489 57.264C228.816 57.46 229.189 57.558 229.609 57.558C230.029 57.558 230.384 57.4693 230.673 57.292C230.972 57.1147 231.205 56.8767 231.373 56.578L232.857 57.306C232.708 57.67 232.474 57.992 232.157 58.272C231.84 58.552 231.462 58.7713 231.023 58.93C230.594 59.0887 230.118 59.168 229.595 59.168ZM234.555 59V48.402H236.389V59H234.555Z" fill="#171816"/>
<g clip-path="url(#clip0_6_370)">
<rect x="200" y="65.5" width="158" height="6" rx="3" fill="#E9E5D3"/>
<rect x="200" y="65.5" width="97" height="6" rx="3" fill="#27AC02"/>
</g>
<path d="M370.574 74.168C370.023 74.168 369.496 74.0653 368.992 73.86C368.497 73.6547 368.068 73.3653 367.704 72.992C367.349 72.6093 367.107 72.1567 366.976 71.634L368.628 71.046C368.787 71.522 369.043 71.8767 369.398 72.11C369.753 72.334 370.145 72.446 370.574 72.446C370.929 72.446 371.241 72.3713 371.512 72.222C371.792 72.0633 372.007 71.8487 372.156 71.578C372.305 71.298 372.38 70.976 372.38 70.612C372.38 70.248 372.301 69.9307 372.142 69.66C371.993 69.3893 371.783 69.1793 371.512 69.03C371.241 68.8713 370.929 68.792 370.574 68.792C370.21 68.792 369.879 68.8713 369.58 69.03C369.291 69.1887 369.081 69.4173 368.95 69.716L367.396 69.366L368.222 63.57H373.906V65.18H368.978L369.692 64.354L369.104 68.722L368.558 68.274C368.819 67.8913 369.137 67.6113 369.51 67.434C369.893 67.2567 370.355 67.168 370.896 67.168C371.587 67.168 372.184 67.3173 372.688 67.616C373.201 67.9147 373.598 68.3207 373.878 68.834C374.158 69.3473 374.298 69.94 374.298 70.612C374.298 71.284 374.135 71.8907 373.808 72.432C373.481 72.9733 373.038 73.398 372.478 73.706C371.918 74.014 371.283 74.168 370.574 74.168ZM379.985 74.168C379.155 74.168 378.427 73.944 377.801 73.496C377.176 73.048 376.686 72.418 376.331 71.606C375.986 70.794 375.813 69.8513 375.813 68.778C375.813 67.6953 375.986 66.7527 376.331 65.95C376.677 65.1473 377.162 64.522 377.787 64.074C378.413 63.626 379.141 63.402 379.971 63.402C380.821 63.402 381.553 63.626 382.169 64.074C382.795 64.522 383.285 65.152 383.639 65.964C383.994 66.7667 384.171 67.7047 384.171 68.778C384.171 69.8513 383.994 70.794 383.639 71.606C383.294 72.4087 382.809 73.0387 382.183 73.496C381.558 73.944 380.825 74.168 379.985 74.168ZM379.999 72.432C380.475 72.432 380.881 72.2873 381.217 71.998C381.553 71.6993 381.81 71.2793 381.987 70.738C382.174 70.1873 382.267 69.534 382.267 68.778C382.267 68.022 382.174 67.3733 381.987 66.832C381.81 66.2813 381.549 65.8613 381.203 65.572C380.867 65.2827 380.457 65.138 379.971 65.138C379.505 65.138 379.103 65.2827 378.767 65.572C378.431 65.8613 378.17 66.2813 377.983 66.832C377.806 67.3733 377.717 68.022 377.717 68.778C377.717 69.5247 377.806 70.1733 377.983 70.724C378.17 71.2653 378.431 71.6853 378.767 71.984C379.113 72.2827 379.523 72.432 379.999 72.432ZM387.083 74L395.539 63.57H397.499L389.043 74H387.083ZM388.721 68.862C388.199 68.862 387.727 68.7407 387.307 68.498C386.897 68.246 386.57 67.9147 386.327 67.504C386.085 67.0933 385.963 66.636 385.963 66.132C385.963 65.628 386.085 65.1707 386.327 64.76C386.57 64.34 386.897 64.0087 387.307 63.766C387.727 63.5233 388.194 63.402 388.707 63.402C389.23 63.402 389.697 63.5233 390.107 63.766C390.518 64.0087 390.845 64.34 391.087 64.76C391.33 65.1707 391.451 65.628 391.451 66.132C391.451 66.636 391.33 67.0933 391.087 67.504C390.845 67.9147 390.518 68.246 390.107 68.498C389.697 68.7407 389.235 68.862 388.721 68.862ZM388.707 67.448C388.987 67.448 389.221 67.3873 389.407 67.266C389.594 67.1353 389.734 66.972 389.827 66.776C389.93 66.5707 389.981 66.356 389.981 66.132C389.981 65.8987 389.93 65.684 389.827 65.488C389.734 65.292 389.594 65.1287 389.407 64.998C389.221 64.8673 388.987 64.802 388.707 64.802C388.446 64.802 388.217 64.8673 388.021 64.998C387.835 65.1287 387.69 65.2967 387.587 65.502C387.485 65.698 387.433 65.908 387.433 66.132C387.433 66.3467 387.485 66.5567 387.587 66.762C387.69 66.9673 387.835 67.1353 388.021 67.266C388.217 67.3873 388.446 67.448 388.707 67.448ZM395.819 74.168C395.306 74.168 394.839 74.0467 394.419 73.804C394.009 73.552 393.682 73.2207 393.439 72.81C393.197 72.3993 393.075 71.942 393.075 71.438C393.075 70.934 393.197 70.4767 393.439 70.066C393.682 69.646 394.009 69.3147 394.419 69.072C394.839 68.8293 395.306 68.708 395.819 68.708C396.342 68.708 396.809 68.8293 397.219 69.072C397.63 69.3147 397.957 69.646 398.199 70.066C398.442 70.4767 398.563 70.934 398.563 71.438C398.563 71.942 398.442 72.3993 398.199 72.81C397.957 73.2207 397.63 73.552 397.219 73.804C396.809 74.0467 396.342 74.168 395.819 74.168ZM395.819 72.754C396.09 72.754 396.319 72.6933 396.505 72.572C396.701 72.4413 396.846 72.278 396.939 72.082C397.042 71.8767 397.093 71.662 397.093 71.438C397.093 71.2047 397.042 70.99 396.939 70.794C396.846 70.598 396.701 70.4347 396.505 70.304C396.319 70.1733 396.09 70.108 395.819 70.108C395.558 70.108 395.329 70.1733 395.133 70.304C394.947 70.4347 394.802 70.6027 394.699 70.808C394.597 71.004 394.545 71.214 394.545 71.438C394.545 71.6527 394.597 71.8627 394.699 72.068C394.802 72.2733 394.947 72.4413 395.133 72.572C395.329 72.6933 395.558 72.754 395.819 72.754Z" fill="#171816"/>
<path d="M201.008 109V98.57H202.912V107.32H207.378V109H201.008ZM210.766 109.168C210.234 109.168 209.772 109.079 209.38 108.902C208.988 108.725 208.684 108.473 208.47 108.146C208.255 107.81 208.148 107.423 208.148 106.984C208.148 106.564 208.241 106.191 208.428 105.864C208.614 105.528 208.904 105.248 209.296 105.024C209.688 104.8 210.182 104.641 210.78 104.548L213.272 104.142V105.542L211.13 105.906C210.766 105.971 210.495 106.088 210.318 106.256C210.14 106.424 210.052 106.643 210.052 106.914C210.052 107.175 210.15 107.385 210.346 107.544C210.551 107.693 210.803 107.768 211.102 107.768C211.484 107.768 211.82 107.689 212.11 107.53C212.408 107.362 212.637 107.133 212.796 106.844C212.964 106.555 213.048 106.237 213.048 105.892V103.932C213.048 103.605 212.917 103.335 212.656 103.12C212.404 102.896 212.068 102.784 211.648 102.784C211.256 102.784 210.906 102.891 210.598 103.106C210.299 103.311 210.08 103.587 209.94 103.932L208.442 103.204C208.591 102.803 208.824 102.457 209.142 102.168C209.468 101.869 209.851 101.636 210.29 101.468C210.728 101.3 211.204 101.216 211.718 101.216C212.343 101.216 212.894 101.333 213.37 101.566C213.846 101.79 214.214 102.107 214.476 102.518C214.746 102.919 214.882 103.391 214.882 103.932V109H213.146V107.698L213.538 107.67C213.342 107.997 213.108 108.272 212.838 108.496C212.567 108.711 212.259 108.879 211.914 109C211.568 109.112 211.186 109.168 210.766 109.168ZM220.735 109.168C220.184 109.168 219.675 109.061 219.209 108.846C218.751 108.622 218.387 108.305 218.117 107.894L218.299 107.53V109H216.577V98.402H218.411V102.896L218.131 102.518C218.392 102.107 218.747 101.79 219.195 101.566C219.643 101.333 220.161 101.216 220.749 101.216C221.467 101.216 222.116 101.393 222.695 101.748C223.273 102.103 223.731 102.579 224.067 103.176C224.412 103.773 224.585 104.445 224.585 105.192C224.585 105.929 224.417 106.601 224.081 107.208C223.745 107.815 223.287 108.295 222.709 108.65C222.13 108.995 221.472 109.168 220.735 109.168ZM220.525 107.488C220.945 107.488 221.318 107.39 221.645 107.194C221.971 106.998 222.223 106.727 222.401 106.382C222.587 106.037 222.681 105.64 222.681 105.192C222.681 104.744 222.587 104.352 222.401 104.016C222.223 103.671 221.971 103.4 221.645 103.204C221.318 102.999 220.945 102.896 220.525 102.896C220.123 102.896 219.759 102.994 219.433 103.19C219.115 103.386 218.863 103.661 218.677 104.016C218.499 104.361 218.411 104.753 218.411 105.192C218.411 105.64 218.499 106.037 218.677 106.382C218.863 106.727 219.115 106.998 219.433 107.194C219.759 107.39 220.123 107.488 220.525 107.488ZM229.595 109.168C228.811 109.168 228.125 108.991 227.537 108.636C226.949 108.281 226.492 107.801 226.165 107.194C225.838 106.587 225.675 105.915 225.675 105.178C225.675 104.413 225.838 103.736 226.165 103.148C226.501 102.551 226.954 102.079 227.523 101.734C228.102 101.389 228.746 101.216 229.455 101.216C230.052 101.216 230.575 101.314 231.023 101.51C231.48 101.706 231.868 101.977 232.185 102.322C232.502 102.667 232.745 103.064 232.913 103.512C233.081 103.951 233.165 104.427 233.165 104.94C233.165 105.071 233.156 105.206 233.137 105.346C233.128 105.486 233.104 105.607 233.067 105.71H227.187V104.31H232.031L231.163 104.968C231.247 104.539 231.224 104.156 231.093 103.82C230.972 103.484 230.766 103.218 230.477 103.022C230.197 102.826 229.856 102.728 229.455 102.728C229.072 102.728 228.732 102.826 228.433 103.022C228.134 103.209 227.906 103.489 227.747 103.862C227.598 104.226 227.542 104.669 227.579 105.192C227.542 105.659 227.602 106.074 227.761 106.438C227.929 106.793 228.172 107.068 228.489 107.264C228.816 107.46 229.189 107.558 229.609 107.558C230.029 107.558 230.384 107.469 230.673 107.292C230.972 107.115 231.205 106.877 231.373 106.578L232.857 107.306C232.708 107.67 232.474 107.992 232.157 108.272C231.84 108.552 231.462 108.771 231.023 108.93C230.594 109.089 230.118 109.168 229.595 109.168ZM234.555 109V98.402H236.389V109H234.555Z" fill="#171816"/>
<g clip-path="url(#clip1_6_370)">
<rect x="200" y="114.5" width="158" height="8" rx="4" fill="#E9E5D3"/>
<rect x="200" y="114.5" width="97" height="8" rx="4" fill="#27AC02"/>
</g>
<path d="M370.574 124.168C370.023 124.168 369.496 124.065 368.992 123.86C368.497 123.655 368.068 123.365 367.704 122.992C367.349 122.609 367.107 122.157 366.976 121.634L368.628 121.046C368.787 121.522 369.043 121.877 369.398 122.11C369.753 122.334 370.145 122.446 370.574 122.446C370.929 122.446 371.241 122.371 371.512 122.222C371.792 122.063 372.007 121.849 372.156 121.578C372.305 121.298 372.38 120.976 372.38 120.612C372.38 120.248 372.301 119.931 372.142 119.66C371.993 119.389 371.783 119.179 371.512 119.03C371.241 118.871 370.929 118.792 370.574 118.792C370.21 118.792 369.879 118.871 369.58 119.03C369.291 119.189 369.081 119.417 368.95 119.716L367.396 119.366L368.222 113.57H373.906V115.18H368.978L369.692 114.354L369.104 118.722L368.558 118.274C368.819 117.891 369.137 117.611 369.51 117.434C369.893 117.257 370.355 117.168 370.896 117.168C371.587 117.168 372.184 117.317 372.688 117.616C373.201 117.915 373.598 118.321 373.878 118.834C374.158 119.347 374.298 119.94 374.298 120.612C374.298 121.284 374.135 121.891 373.808 122.432C373.481 122.973 373.038 123.398 372.478 123.706C371.918 124.014 371.283 124.168 370.574 124.168ZM379.985 124.168C379.155 124.168 378.427 123.944 377.801 123.496C377.176 123.048 376.686 122.418 376.331 121.606C375.986 120.794 375.813 119.851 375.813 118.778C375.813 117.695 375.986 116.753 376.331 115.95C376.677 115.147 377.162 114.522 377.787 114.074C378.413 113.626 379.141 113.402 379.971 113.402C380.821 113.402 381.553 113.626 382.169 114.074C382.795 114.522 383.285 115.152 383.639 115.964C383.994 116.767 384.171 117.705 384.171 118.778C384.171 119.851 383.994 120.794 383.639 121.606C383.294 122.409 382.809 123.039 382.183 123.496C381.558 123.944 380.825 124.168 379.985 124.168ZM379.999 122.432C380.475 122.432 380.881 122.287 381.217 121.998C381.553 121.699 381.81 121.279 381.987 120.738C382.174 120.187 382.267 119.534 382.267 118.778C382.267 118.022 382.174 117.373 381.987 116.832C381.81 116.281 381.549 115.861 381.203 115.572C380.867 115.283 380.457 115.138 379.971 115.138C379.505 115.138 379.103 115.283 378.767 115.572C378.431 115.861 378.17 116.281 377.983 116.832C377.806 117.373 377.717 118.022 377.717 118.778C377.717 119.525 377.806 120.173 377.983 120.724C378.17 121.265 378.431 121.685 378.767 121.984C379.113 122.283 379.523 122.432 379.999 122.432ZM387.083 124L395.539 113.57H397.499L389.043 124H387.083ZM388.721 118.862C388.199 118.862 387.727 118.741 387.307 118.498C386.897 118.246 386.57 117.915 386.327 117.504C386.085 117.093 385.963 116.636 385.963 116.132C385.963 115.628 386.085 115.171 386.327 114.76C386.57 114.34 386.897 114.009 387.307 113.766C387.727 113.523 388.194 113.402 388.707 113.402C389.23 113.402 389.697 113.523 390.107 113.766C390.518 114.009 390.845 114.34 391.087 114.76C391.33 115.171 391.451 115.628 391.451 116.132C391.451 116.636 391.33 117.093 391.087 117.504C390.845 117.915 390.518 118.246 390.107 118.498C389.697 118.741 389.235 118.862 388.721 118.862ZM388.707 117.448C388.987 117.448 389.221 117.387 389.407 117.266C389.594 117.135 389.734 116.972 389.827 116.776C389.93 116.571 389.981 116.356 389.981 116.132C389.981 115.899 389.93 115.684 389.827 115.488C389.734 115.292 389.594 115.129 389.407 114.998C389.221 114.867 388.987 114.802 388.707 114.802C388.446 114.802 388.217 114.867 388.021 114.998C387.835 115.129 387.69 115.297 387.587 115.502C387.485 115.698 387.433 115.908 387.433 116.132C387.433 116.347 387.485 116.557 387.587 116.762C387.69 116.967 387.835 117.135 388.021 117.266C388.217 117.387 388.446 117.448 388.707 117.448ZM395.819 124.168C395.306 124.168 394.839 124.047 394.419 123.804C394.009 123.552 393.682 123.221 393.439 122.81C393.197 122.399 393.075 121.942 393.075 121.438C393.075 120.934 393.197 120.477 393.439 120.066C393.682 119.646 394.009 119.315 394.419 119.072C394.839 118.829 395.306 118.708 395.819 118.708C396.342 118.708 396.809 118.829 397.219 119.072C397.63 119.315 397.957 119.646 398.199 120.066C398.442 120.477 398.563 120.934 398.563 121.438C398.563 121.942 398.442 122.399 398.199 122.81C397.957 123.221 397.63 123.552 397.219 123.804C396.809 124.047 396.342 124.168 395.819 124.168ZM395.819 122.754C396.09 122.754 396.319 122.693 396.505 122.572C396.701 122.441 396.846 122.278 396.939 122.082C397.042 121.877 397.093 121.662 397.093 121.438C397.093 121.205 397.042 120.99 396.939 120.794C396.846 120.598 396.701 120.435 396.505 120.304C396.319 120.173 396.09 120.108 395.819 120.108C395.558 120.108 395.329 120.173 395.133 120.304C394.947 120.435 394.802 120.603 394.699 120.808C394.597 121.004 394.545 121.214 394.545 121.438C394.545 121.653 394.597 121.863 394.699 122.068C394.802 122.273 394.947 122.441 395.133 122.572C395.329 122.693 395.558 122.754 395.819 122.754Z" fill="#171816"/>
<path d="M201.008 159V148.57H202.912V157.32H207.378V159H201.008ZM210.766 159.168C210.234 159.168 209.772 159.079 209.38 158.902C208.988 158.725 208.684 158.473 208.47 158.146C208.255 157.81 208.148 157.423 208.148 156.984C208.148 156.564 208.241 156.191 208.428 155.864C208.614 155.528 208.904 155.248 209.296 155.024C209.688 154.8 210.182 154.641 210.78 154.548L213.272 154.142V155.542L211.13 155.906C210.766 155.971 210.495 156.088 210.318 156.256C210.14 156.424 210.052 156.643 210.052 156.914C210.052 157.175 210.15 157.385 210.346 157.544C210.551 157.693 210.803 157.768 211.102 157.768C211.484 157.768 211.82 157.689 212.11 157.53C212.408 157.362 212.637 157.133 212.796 156.844C212.964 156.555 213.048 156.237 213.048 155.892V153.932C213.048 153.605 212.917 153.335 212.656 153.12C212.404 152.896 212.068 152.784 211.648 152.784C211.256 152.784 210.906 152.891 210.598 153.106C210.299 153.311 210.08 153.587 209.94 153.932L208.442 153.204C208.591 152.803 208.824 152.457 209.142 152.168C209.468 151.869 209.851 151.636 210.29 151.468C210.728 151.3 211.204 151.216 211.718 151.216C212.343 151.216 212.894 151.333 213.37 151.566C213.846 151.79 214.214 152.107 214.476 152.518C214.746 152.919 214.882 153.391 214.882 153.932V159H213.146V157.698L213.538 157.67C213.342 157.997 213.108 158.272 212.838 158.496C212.567 158.711 212.259 158.879 211.914 159C211.568 159.112 211.186 159.168 210.766 159.168ZM220.735 159.168C220.184 159.168 219.675 159.061 219.209 158.846C218.751 158.622 218.387 158.305 218.117 157.894L218.299 157.53V159H216.577V148.402H218.411V152.896L218.131 152.518C218.392 152.107 218.747 151.79 219.195 151.566C219.643 151.333 220.161 151.216 220.749 151.216C221.467 151.216 222.116 151.393 222.695 151.748C223.273 152.103 223.731 152.579 224.067 153.176C224.412 153.773 224.585 154.445 224.585 155.192C224.585 155.929 224.417 156.601 224.081 157.208C223.745 157.815 223.287 158.295 222.709 158.65C222.13 158.995 221.472 159.168 220.735 159.168ZM220.525 157.488C220.945 157.488 221.318 157.39 221.645 157.194C221.971 156.998 222.223 156.727 222.401 156.382C222.587 156.037 222.681 155.64 222.681 155.192C222.681 154.744 222.587 154.352 222.401 154.016C222.223 153.671 221.971 153.4 221.645 153.204C221.318 152.999 220.945 152.896 220.525 152.896C220.123 152.896 219.759 152.994 219.433 153.19C219.115 153.386 218.863 153.661 218.677 154.016C218.499 154.361 218.411 154.753 218.411 155.192C218.411 155.64 218.499 156.037 218.677 156.382C218.863 156.727 219.115 156.998 219.433 157.194C219.759 157.39 220.123 157.488 220.525 157.488ZM229.595 159.168C228.811 159.168 228.125 158.991 227.537 158.636C226.949 158.281 226.492 157.801 226.165 157.194C225.838 156.587 225.675 155.915 225.675 155.178C225.675 154.413 225.838 153.736 226.165 153.148C226.501 152.551 226.954 152.079 227.523 151.734C228.102 151.389 228.746 151.216 229.455 151.216C230.052 151.216 230.575 151.314 231.023 151.51C231.48 151.706 231.868 151.977 232.185 152.322C232.502 152.667 232.745 153.064 232.913 153.512C233.081 153.951 233.165 154.427 233.165 154.94C233.165 155.071 233.156 155.206 233.137 155.346C233.128 155.486 233.104 155.607 233.067 155.71H227.187V154.31H232.031L231.163 154.968C231.247 154.539 231.224 154.156 231.093 153.82C230.972 153.484 230.766 153.218 230.477 153.022C230.197 152.826 229.856 152.728 229.455 152.728C229.072 152.728 228.732 152.826 228.433 153.022C228.134 153.209 227.906 153.489 227.747 153.862C227.598 154.226 227.542 154.669 227.579 155.192C227.542 155.659 227.602 156.074 227.761 156.438C227.929 156.793 228.172 157.068 228.489 157.264C228.816 157.46 229.189 157.558 229.609 157.558C230.029 157.558 230.384 157.469 230.673 157.292C230.972 157.115 231.205 156.877 231.373 156.578L232.857 157.306C232.708 157.67 232.474 157.992 232.157 158.272C231.84 158.552 231.462 158.771 231.023 158.93C230.594 159.089 230.118 159.168 229.595 159.168ZM234.555 159V148.402H236.389V159H234.555Z" fill="#171816"/>
<rect x="200" y="163" width="158" height="12" rx="6" fill="#E9E5D3"/>
<rect x="200" y="163" width="97" height="12" rx="6" fill="#27AC02"/>
<path d="M370.574 174.668C370.023 174.668 369.496 174.565 368.992 174.36C368.497 174.155 368.068 173.865 367.704 173.492C367.349 173.109 367.107 172.657 366.976 172.134L368.628 171.546C368.787 172.022 369.043 172.377 369.398 172.61C369.753 172.834 370.145 172.946 370.574 172.946C370.929 172.946 371.241 172.871 371.512 172.722C371.792 172.563 372.007 172.349 372.156 172.078C372.305 171.798 372.38 171.476 372.38 171.112C372.38 170.748 372.301 170.431 372.142 170.16C371.993 169.889 371.783 169.679 371.512 169.53C371.241 169.371 370.929 169.292 370.574 169.292C370.21 169.292 369.879 169.371 369.58 169.53C369.291 169.689 369.081 169.917 368.95 170.216L367.396 169.866L368.222 164.07H373.906V165.68H368.978L369.692 164.854L369.104 169.222L368.558 168.774C368.819 168.391 369.137 168.111 369.51 167.934C369.893 167.757 370.355 167.668 370.896 167.668C371.587 167.668 372.184 167.817 372.688 168.116C373.201 168.415 373.598 168.821 373.878 169.334C374.158 169.847 374.298 170.44 374.298 171.112C374.298 171.784 374.135 172.391 373.808 172.932C373.481 173.473 373.038 173.898 372.478 174.206C371.918 174.514 371.283 174.668 370.574 174.668ZM379.985 174.668C379.155 174.668 378.427 174.444 377.801 173.996C377.176 173.548 376.686 172.918 376.331 172.106C375.986 171.294 375.813 170.351 375.813 169.278C375.813 168.195 375.986 167.253 376.331 166.45C376.677 165.647 377.162 165.022 377.787 164.574C378.413 164.126 379.141 163.902 379.971 163.902C380.821 163.902 381.553 164.126 382.169 164.574C382.795 165.022 383.285 165.652 383.639 166.464C383.994 167.267 384.171 168.205 384.171 169.278C384.171 170.351 383.994 171.294 383.639 172.106C383.294 172.909 382.809 173.539 382.183 173.996C381.558 174.444 380.825 174.668 379.985 174.668ZM379.999 172.932C380.475 172.932 380.881 172.787 381.217 172.498C381.553 172.199 381.81 171.779 381.987 171.238C382.174 170.687 382.267 170.034 382.267 169.278C382.267 168.522 382.174 167.873 381.987 167.332C381.81 166.781 381.549 166.361 381.203 166.072C380.867 165.783 380.457 165.638 379.971 165.638C379.505 165.638 379.103 165.783 378.767 166.072C378.431 166.361 378.17 166.781 377.983 167.332C377.806 167.873 377.717 168.522 377.717 169.278C377.717 170.025 377.806 170.673 377.983 171.224C378.17 171.765 378.431 172.185 378.767 172.484C379.113 172.783 379.523 172.932 379.999 172.932ZM387.083 174.5L395.539 164.07H397.499L389.043 174.5H387.083ZM388.721 169.362C388.199 169.362 387.727 169.241 387.307 168.998C386.897 168.746 386.57 168.415 386.327 168.004C386.085 167.593 385.963 167.136 385.963 166.632C385.963 166.128 386.085 165.671 386.327 165.26C386.57 164.84 386.897 164.509 387.307 164.266C387.727 164.023 388.194 163.902 388.707 163.902C389.23 163.902 389.697 164.023 390.107 164.266C390.518 164.509 390.845 164.84 391.087 165.26C391.33 165.671 391.451 166.128 391.451 166.632C391.451 167.136 391.33 167.593 391.087 168.004C390.845 168.415 390.518 168.746 390.107 168.998C389.697 169.241 389.235 169.362 388.721 169.362ZM388.707 167.948C388.987 167.948 389.221 167.887 389.407 167.766C389.594 167.635 389.734 167.472 389.827 167.276C389.93 167.071 389.981 166.856 389.981 166.632C389.981 166.399 389.93 166.184 389.827 165.988C389.734 165.792 389.594 165.629 389.407 165.498C389.221 165.367 388.987 165.302 388.707 165.302C388.446 165.302 388.217 165.367 388.021 165.498C387.835 165.629 387.69 165.797 387.587 166.002C387.485 166.198 387.433 166.408 387.433 166.632C387.433 166.847 387.485 167.057 387.587 167.262C387.69 167.467 387.835 167.635 388.021 167.766C388.217 167.887 388.446 167.948 388.707 167.948ZM395.819 174.668C395.306 174.668 394.839 174.547 394.419 174.304C394.009 174.052 393.682 173.721 393.439 173.31C393.197 172.899 393.075 172.442 393.075 171.938C393.075 171.434 393.197 170.977 393.439 170.566C393.682 170.146 394.009 169.815 394.419 169.572C394.839 169.329 395.306 169.208 395.819 169.208C396.342 169.208 396.809 169.329 397.219 169.572C397.63 169.815 397.957 170.146 398.199 170.566C398.442 170.977 398.563 171.434 398.563 171.938C398.563 172.442 398.442 172.899 398.199 173.31C397.957 173.721 397.63 174.052 397.219 174.304C396.809 174.547 396.342 174.668 395.819 174.668ZM395.819 173.254C396.09 173.254 396.319 173.193 396.505 173.072C396.701 172.941 396.846 172.778 396.939 172.582C397.042 172.377 397.093 172.162 397.093 171.938C397.093 171.705 397.042 171.49 396.939 171.294C396.846 171.098 396.701 170.935 396.505 170.804C396.319 170.673 396.09 170.608 395.819 170.608C395.558 170.608 395.329 170.673 395.133 170.804C394.947 170.935 394.802 171.103 394.699 171.308C394.597 171.504 394.545 171.714 394.545 171.938C394.545 172.153 394.597 172.363 394.699 172.568C394.802 172.773 394.947 172.941 395.133 173.072C395.329 173.193 395.558 173.254 395.819 173.254Z" fill="#171816"/>
<circle cx="232" cy="231" r="29" stroke="#E9E5D3" stroke-width="6"/>
<path d="M232 201.995C232 200.341 233.344 198.985 234.99 199.14C242.38 199.833 249.335 203.08 254.627 208.373C260.629 214.374 264 222.513 264 231C264 239.487 260.629 247.626 254.627 253.627C249.335 258.92 242.38 262.167 234.99 262.86C233.344 263.015 232 261.659 232 260.005C232 258.352 233.345 257.029 234.988 256.839C240.787 256.168 246.224 253.561 250.393 249.393C255.271 244.515 258.011 237.899 258.011 231C258.011 224.101 255.271 217.485 250.393 212.607C246.224 208.439 240.787 205.832 234.988 205.161C233.345 204.971 232 203.648 232 201.995Z" fill="#27AC02"/>
<path d="M219.574 237.168C219.023 237.168 218.496 237.065 217.992 236.86C217.497 236.655 217.068 236.365 216.704 235.992C216.349 235.609 216.107 235.157 215.976 234.634L217.628 234.046C217.787 234.522 218.043 234.877 218.398 235.11C218.753 235.334 219.145 235.446 219.574 235.446C219.929 235.446 220.241 235.371 220.512 235.222C220.792 235.063 221.007 234.849 221.156 234.578C221.305 234.298 221.38 233.976 221.38 233.612C221.38 233.248 221.301 232.931 221.142 232.66C220.993 232.389 220.783 232.179 220.512 232.03C220.241 231.871 219.929 231.792 219.574 231.792C219.21 231.792 218.879 231.871 218.58 232.03C218.291 232.189 218.081 232.417 217.95 232.716L216.396 232.366L217.222 226.57H222.906V228.18H217.978L218.692 227.354L218.104 231.722L217.558 231.274C217.819 230.891 218.137 230.611 218.51 230.434C218.893 230.257 219.355 230.168 219.896 230.168C220.587 230.168 221.184 230.317 221.688 230.616C222.201 230.915 222.598 231.321 222.878 231.834C223.158 232.347 223.298 232.94 223.298 233.612C223.298 234.284 223.135 234.891 222.808 235.432C222.481 235.973 222.038 236.398 221.478 236.706C220.918 237.014 220.283 237.168 219.574 237.168ZM228.985 237.168C228.155 237.168 227.427 236.944 226.801 236.496C226.176 236.048 225.686 235.418 225.331 234.606C224.986 233.794 224.813 232.851 224.813 231.778C224.813 230.695 224.986 229.753 225.331 228.95C225.677 228.147 226.162 227.522 226.787 227.074C227.413 226.626 228.141 226.402 228.971 226.402C229.821 226.402 230.553 226.626 231.169 227.074C231.795 227.522 232.285 228.152 232.639 228.964C232.994 229.767 233.171 230.705 233.171 231.778C233.171 232.851 232.994 233.794 232.639 234.606C232.294 235.409 231.809 236.039 231.183 236.496C230.558 236.944 229.825 237.168 228.985 237.168ZM228.999 235.432C229.475 235.432 229.881 235.287 230.217 234.998C230.553 234.699 230.81 234.279 230.987 233.738C231.174 233.187 231.267 232.534 231.267 231.778C231.267 231.022 231.174 230.373 230.987 229.832C230.81 229.281 230.549 228.861 230.203 228.572C229.867 228.283 229.457 228.138 228.971 228.138C228.505 228.138 228.103 228.283 227.767 228.572C227.431 228.861 227.17 229.281 226.983 229.832C226.806 230.373 226.717 231.022 226.717 231.778C226.717 232.525 226.806 233.173 226.983 233.724C227.17 234.265 227.431 234.685 227.767 234.984C228.113 235.283 228.523 235.432 228.999 235.432ZM236.083 237L244.539 226.57H246.499L238.043 237H236.083ZM237.721 231.862C237.199 231.862 236.727 231.741 236.307 231.498C235.897 231.246 235.57 230.915 235.327 230.504C235.085 230.093 234.963 229.636 234.963 229.132C234.963 228.628 235.085 228.171 235.327 227.76C235.57 227.34 235.897 227.009 236.307 226.766C236.727 226.523 237.194 226.402 237.707 226.402C238.23 226.402 238.697 226.523 239.107 226.766C239.518 227.009 239.845 227.34 240.087 227.76C240.33 228.171 240.451 228.628 240.451 229.132C240.451 229.636 240.33 230.093 240.087 230.504C239.845 230.915 239.518 231.246 239.107 231.498C238.697 231.741 238.235 231.862 237.721 231.862ZM237.707 230.448C237.987 230.448 238.221 230.387 238.407 230.266C238.594 230.135 238.734 229.972 238.827 229.776C238.93 229.571 238.981 229.356 238.981 229.132C238.981 228.899 238.93 228.684 238.827 228.488C238.734 228.292 238.594 228.129 238.407 227.998C238.221 227.867 237.987 227.802 237.707 227.802C237.446 227.802 237.217 227.867 237.021 227.998C236.835 228.129 236.69 228.297 236.587 228.502C236.485 228.698 236.433 228.908 236.433 229.132C236.433 229.347 236.485 229.557 236.587 229.762C236.69 229.967 236.835 230.135 237.021 230.266C237.217 230.387 237.446 230.448 237.707 230.448ZM244.819 237.168C244.306 237.168 243.839 237.047 243.419 236.804C243.009 236.552 242.682 236.221 242.439 235.81C242.197 235.399 242.075 234.942 242.075 234.438C242.075 233.934 242.197 233.477 242.439 233.066C242.682 232.646 243.009 232.315 243.419 232.072C243.839 231.829 244.306 231.708 244.819 231.708C245.342 231.708 245.809 231.829 246.219 232.072C246.63 232.315 246.957 232.646 247.199 233.066C247.442 233.477 247.563 233.934 247.563 234.438C247.563 234.942 247.442 235.399 247.199 235.81C246.957 236.221 246.63 236.552 246.219 236.804C245.809 237.047 245.342 237.168 244.819 237.168ZM244.819 235.754C245.09 235.754 245.319 235.693 245.505 235.572C245.701 235.441 245.846 235.278 245.939 235.082C246.042 234.877 246.093 234.662 246.093 234.438C246.093 234.205 246.042 233.99 245.939 233.794C245.846 233.598 245.701 233.435 245.505 233.304C245.319 233.173 245.09 233.108 244.819 233.108C244.558 233.108 244.329 233.173 244.133 233.304C243.947 233.435 243.802 233.603 243.699 233.808C243.597 234.004 243.545 234.214 243.545 234.438C243.545 234.653 243.597 234.863 243.699 235.068C243.802 235.273 243.947 235.441 244.133 235.572C244.329 235.693 244.558 235.754 244.819 235.754Z" fill="#171816"/>
<path d="M214.394 278V267.57H216.298V276.32H220.764V278H214.394ZM224.151 278.168C223.619 278.168 223.157 278.079 222.765 277.902C222.373 277.725 222.07 277.473 221.855 277.146C221.641 276.81 221.533 276.423 221.533 275.984C221.533 275.564 221.627 275.191 221.813 274.864C222 274.528 222.289 274.248 222.681 274.024C223.073 273.8 223.568 273.641 224.165 273.548L226.657 273.142V274.542L224.515 274.906C224.151 274.971 223.881 275.088 223.703 275.256C223.526 275.424 223.437 275.643 223.437 275.914C223.437 276.175 223.535 276.385 223.731 276.544C223.937 276.693 224.189 276.768 224.487 276.768C224.87 276.768 225.206 276.689 225.495 276.53C225.794 276.362 226.023 276.133 226.181 275.844C226.349 275.555 226.433 275.237 226.433 274.892V272.932C226.433 272.605 226.303 272.335 226.041 272.12C225.789 271.896 225.453 271.784 225.033 271.784C224.641 271.784 224.291 271.891 223.983 272.106C223.685 272.311 223.465 272.587 223.325 272.932L221.827 272.204C221.977 271.803 222.21 271.457 222.527 271.168C222.854 270.869 223.237 270.636 223.675 270.468C224.114 270.3 224.59 270.216 225.103 270.216C225.729 270.216 226.279 270.333 226.755 270.566C227.231 270.79 227.6 271.107 227.861 271.518C228.132 271.919 228.267 272.391 228.267 272.932V278H226.531V276.698L226.923 276.67C226.727 276.997 226.494 277.272 226.223 277.496C225.953 277.711 225.645 277.879 225.299 278C224.954 278.112 224.571 278.168 224.151 278.168ZM234.12 278.168C233.57 278.168 233.061 278.061 232.594 277.846C232.137 277.622 231.773 277.305 231.502 276.894L231.684 276.53V278H229.962V267.402H231.796V271.896L231.516 271.518C231.778 271.107 232.132 270.79 232.58 270.566C233.028 270.333 233.546 270.216 234.134 270.216C234.853 270.216 235.502 270.393 236.08 270.748C236.659 271.103 237.116 271.579 237.452 272.176C237.798 272.773 237.97 273.445 237.97 274.192C237.97 274.929 237.802 275.601 237.466 276.208C237.13 276.815 236.673 277.295 236.094 277.65C235.516 277.995 234.858 278.168 234.12 278.168ZM233.91 276.488C234.33 276.488 234.704 276.39 235.03 276.194C235.357 275.998 235.609 275.727 235.786 275.382C235.973 275.037 236.066 274.64 236.066 274.192C236.066 273.744 235.973 273.352 235.786 273.016C235.609 272.671 235.357 272.4 235.03 272.204C234.704 271.999 234.33 271.896 233.91 271.896C233.509 271.896 233.145 271.994 232.818 272.19C232.501 272.386 232.249 272.661 232.062 273.016C231.885 273.361 231.796 273.753 231.796 274.192C231.796 274.64 231.885 275.037 232.062 275.382C232.249 275.727 232.501 275.998 232.818 276.194C233.145 276.39 233.509 276.488 233.91 276.488ZM242.981 278.168C242.197 278.168 241.511 277.991 240.923 277.636C240.335 277.281 239.877 276.801 239.551 276.194C239.224 275.587 239.061 274.915 239.061 274.178C239.061 273.413 239.224 272.736 239.551 272.148C239.887 271.551 240.339 271.079 240.909 270.734C241.487 270.389 242.131 270.216 242.841 270.216C243.438 270.216 243.961 270.314 244.409 270.51C244.866 270.706 245.253 270.977 245.571 271.322C245.888 271.667 246.131 272.064 246.299 272.512C246.467 272.951 246.551 273.427 246.551 273.94C246.551 274.071 246.541 274.206 246.523 274.346C246.513 274.486 246.49 274.607 246.453 274.71H240.573V273.31H245.417L244.549 273.968C244.633 273.539 244.609 273.156 244.479 272.82C244.357 272.484 244.152 272.218 243.863 272.022C243.583 271.826 243.242 271.728 242.841 271.728C242.458 271.728 242.117 271.826 241.819 272.022C241.52 272.209 241.291 272.489 241.133 272.862C240.983 273.226 240.927 273.669 240.965 274.192C240.927 274.659 240.988 275.074 241.147 275.438C241.315 275.793 241.557 276.068 241.875 276.264C242.201 276.46 242.575 276.558 242.995 276.558C243.415 276.558 243.769 276.469 244.059 276.292C244.357 276.115 244.591 275.877 244.759 275.578L246.243 276.306C246.093 276.67 245.86 276.992 245.543 277.272C245.225 277.552 244.847 277.771 244.409 277.93C243.979 278.089 243.503 278.168 242.981 278.168ZM247.941 278V267.402H249.775V278H247.941Z" fill="#171816"/>
<circle cx="256" cy="358" r="52" stroke="#E9E5D3" stroke-width="8"/>
<path d="M256 305.989C256 303.786 257.788 301.985 259.986 302.142C273.381 303.097 286.039 308.844 295.598 318.402C306.1 328.904 312 343.148 312 358C312 372.852 306.1 387.096 295.598 397.598C286.039 407.156 273.381 412.903 259.986 413.858C257.788 414.015 256 412.214 256 410.011C256 407.808 257.789 406.039 259.985 405.856C271.262 404.918 281.895 400.018 289.956 391.956C298.962 382.951 304.022 370.736 304.022 358C304.022 345.264 298.962 333.049 289.956 324.044C281.895 315.982 271.262 311.082 259.985 310.144C257.789 309.961 256 308.192 256 305.989Z" fill="#27AC02"/>
<path d="M241.799 364.692C241.17 364.692 240.567 364.575 239.991 364.34C239.426 364.105 238.935 363.775 238.519 363.348C238.114 362.911 237.836 362.393 237.687 361.796L239.575 361.124C239.756 361.668 240.05 362.073 240.455 362.34C240.86 362.596 241.308 362.724 241.799 362.724C242.204 362.724 242.562 362.639 242.871 362.468C243.191 362.287 243.436 362.041 243.607 361.732C243.778 361.412 243.863 361.044 243.863 360.628C243.863 360.212 243.772 359.849 243.591 359.54C243.42 359.231 243.18 358.991 242.871 358.82C242.562 358.639 242.204 358.548 241.799 358.548C241.383 358.548 241.004 358.639 240.663 358.82C240.332 359.001 240.092 359.263 239.943 359.604L238.167 359.204L239.111 352.58H245.607V354.42H239.975L240.791 353.476L240.119 358.468L239.495 357.956C239.794 357.519 240.156 357.199 240.583 356.996C241.02 356.793 241.548 356.692 242.167 356.692C242.956 356.692 243.639 356.863 244.215 357.204C244.802 357.545 245.255 358.009 245.575 358.596C245.895 359.183 246.055 359.86 246.055 360.628C246.055 361.396 245.868 362.089 245.495 362.708C245.122 363.327 244.615 363.812 243.975 364.164C243.335 364.516 242.61 364.692 241.799 364.692ZM252.555 364.692C251.605 364.692 250.773 364.436 250.059 363.924C249.344 363.412 248.784 362.692 248.379 361.764C247.984 360.836 247.787 359.759 247.787 358.532C247.787 357.295 247.984 356.217 248.379 355.3C248.773 354.383 249.328 353.668 250.043 353.156C250.757 352.644 251.589 352.388 252.539 352.388C253.509 352.388 254.347 352.644 255.051 353.156C255.765 353.668 256.325 354.388 256.731 355.316C257.136 356.233 257.339 357.305 257.339 358.532C257.339 359.759 257.136 360.836 256.731 361.764C256.336 362.681 255.781 363.401 255.067 363.924C254.352 364.436 253.515 364.692 252.555 364.692ZM252.571 362.708C253.115 362.708 253.579 362.543 253.963 362.212C254.347 361.871 254.64 361.391 254.843 360.772C255.056 360.143 255.163 359.396 255.163 358.532C255.163 357.668 255.056 356.927 254.843 356.308C254.64 355.679 254.341 355.199 253.947 354.868C253.563 354.537 253.093 354.372 252.539 354.372C252.005 354.372 251.547 354.537 251.163 354.868C250.779 355.199 250.48 355.679 250.267 356.308C250.064 356.927 249.963 357.668 249.963 358.532C249.963 359.385 250.064 360.127 250.267 360.756C250.48 361.375 250.779 361.855 251.163 362.196C251.557 362.537 252.027 362.708 252.571 362.708ZM260.667 364.5L270.331 352.58H272.571L262.907 364.5H260.667ZM262.539 358.628C261.941 358.628 261.403 358.489 260.923 358.212C260.453 357.924 260.08 357.545 259.803 357.076C259.525 356.607 259.387 356.084 259.387 355.508C259.387 354.932 259.525 354.409 259.803 353.94C260.08 353.46 260.453 353.081 260.923 352.804C261.403 352.527 261.936 352.388 262.523 352.388C263.12 352.388 263.653 352.527 264.123 352.804C264.592 353.081 264.965 353.46 265.243 353.94C265.52 354.409 265.659 354.932 265.659 355.508C265.659 356.084 265.52 356.607 265.243 357.076C264.965 357.545 264.592 357.924 264.123 358.212C263.653 358.489 263.125 358.628 262.539 358.628ZM262.523 357.012C262.843 357.012 263.109 356.943 263.323 356.804C263.536 356.655 263.696 356.468 263.803 356.244C263.92 356.009 263.979 355.764 263.979 355.508C263.979 355.241 263.92 354.996 263.803 354.772C263.696 354.548 263.536 354.361 263.323 354.212C263.109 354.063 262.843 353.988 262.523 353.988C262.224 353.988 261.963 354.063 261.739 354.212C261.525 354.361 261.36 354.553 261.243 354.788C261.125 355.012 261.067 355.252 261.067 355.508C261.067 355.753 261.125 355.993 261.243 356.228C261.36 356.463 261.525 356.655 261.739 356.804C261.963 356.943 262.224 357.012 262.523 357.012ZM270.651 364.692C270.064 364.692 269.531 364.553 269.051 364.276C268.581 363.988 268.208 363.609 267.931 363.14C267.653 362.671 267.515 362.148 267.515 361.572C267.515 360.996 267.653 360.473 267.931 360.004C268.208 359.524 268.581 359.145 269.051 358.868C269.531 358.591 270.064 358.452 270.651 358.452C271.248 358.452 271.781 358.591 272.251 358.868C272.72 359.145 273.093 359.524 273.371 360.004C273.648 360.473 273.787 360.996 273.787 361.572C273.787 362.148 273.648 362.671 273.371 363.14C273.093 363.609 272.72 363.988 272.251 364.276C271.781 364.553 271.248 364.692 270.651 364.692ZM270.651 363.076C270.96 363.076 271.221 363.007 271.435 362.868C271.659 362.719 271.824 362.532 271.931 362.308C272.048 362.073 272.107 361.828 272.107 361.572C272.107 361.305 272.048 361.06 271.931 360.836C271.824 360.612 271.659 360.425 271.435 360.276C271.221 360.127 270.96 360.052 270.651 360.052C270.352 360.052 270.091 360.127 269.867 360.276C269.653 360.425 269.488 360.617 269.371 360.852C269.253 361.076 269.195 361.316 269.195 361.572C269.195 361.817 269.253 362.057 269.371 362.292C269.488 362.527 269.653 362.719 269.867 362.868C270.091 363.007 270.352 363.076 270.651 363.076Z" fill="#171816"/>
<path d="M235.879 441V429.08H238.055V439.08H243.159V441H235.879ZM247.03 441.192C246.422 441.192 245.894 441.091 245.446 440.888C244.998 440.685 244.651 440.397 244.406 440.024C244.161 439.64 244.038 439.197 244.038 438.696C244.038 438.216 244.145 437.789 244.358 437.416C244.571 437.032 244.902 436.712 245.35 436.456C245.798 436.2 246.363 436.019 247.046 435.912L249.894 435.448V437.048L247.446 437.464C247.03 437.539 246.721 437.672 246.518 437.864C246.315 438.056 246.214 438.307 246.214 438.616C246.214 438.915 246.326 439.155 246.55 439.336C246.785 439.507 247.073 439.592 247.414 439.592C247.851 439.592 248.235 439.501 248.566 439.32C248.907 439.128 249.169 438.867 249.35 438.536C249.542 438.205 249.638 437.843 249.638 437.448V435.208C249.638 434.835 249.489 434.525 249.19 434.28C248.902 434.024 248.518 433.896 248.038 433.896C247.59 433.896 247.19 434.019 246.838 434.264C246.497 434.499 246.246 434.813 246.086 435.208L244.374 434.376C244.545 433.917 244.811 433.523 245.174 433.192C245.547 432.851 245.985 432.584 246.486 432.392C246.987 432.2 247.531 432.104 248.118 432.104C248.833 432.104 249.462 432.237 250.006 432.504C250.55 432.76 250.971 433.123 251.27 433.592C251.579 434.051 251.734 434.589 251.734 435.208V441H249.75V439.512L250.198 439.48C249.974 439.853 249.707 440.168 249.398 440.424C249.089 440.669 248.737 440.861 248.342 441C247.947 441.128 247.51 441.192 247.03 441.192ZM258.423 441.192C257.794 441.192 257.213 441.069 256.679 440.824C256.157 440.568 255.741 440.205 255.431 439.736L255.639 439.32V441H253.671V428.888H255.767V434.024L255.447 433.592C255.746 433.123 256.151 432.76 256.663 432.504C257.175 432.237 257.767 432.104 258.439 432.104C259.261 432.104 260.002 432.307 260.663 432.712C261.325 433.117 261.847 433.661 262.231 434.344C262.626 435.027 262.823 435.795 262.823 436.648C262.823 437.491 262.631 438.259 262.247 438.952C261.863 439.645 261.341 440.195 260.679 440.6C260.018 440.995 259.266 441.192 258.423 441.192ZM258.183 439.272C258.663 439.272 259.09 439.16 259.463 438.936C259.837 438.712 260.125 438.403 260.327 438.008C260.541 437.613 260.647 437.16 260.647 436.648C260.647 436.136 260.541 435.688 260.327 435.304C260.125 434.909 259.837 434.6 259.463 434.376C259.09 434.141 258.663 434.024 258.183 434.024C257.725 434.024 257.309 434.136 256.935 434.36C256.573 434.584 256.285 434.899 256.071 435.304C255.869 435.699 255.767 436.147 255.767 436.648C255.767 437.16 255.869 437.613 256.071 438.008C256.285 438.403 256.573 438.712 256.935 438.936C257.309 439.16 257.725 439.272 258.183 439.272ZM268.549 441.192C267.653 441.192 266.869 440.989 266.197 440.584C265.525 440.179 265.003 439.629 264.629 438.936C264.256 438.243 264.069 437.475 264.069 436.632C264.069 435.757 264.256 434.984 264.629 434.312C265.013 433.629 265.531 433.091 266.181 432.696C266.843 432.301 267.579 432.104 268.389 432.104C269.072 432.104 269.669 432.216 270.181 432.44C270.704 432.664 271.147 432.973 271.509 433.368C271.872 433.763 272.149 434.216 272.341 434.728C272.533 435.229 272.629 435.773 272.629 436.36C272.629 436.509 272.619 436.664 272.597 436.824C272.587 436.984 272.56 437.123 272.517 437.24H265.797V435.64H271.333L270.341 436.392C270.437 435.901 270.411 435.464 270.261 435.08C270.123 434.696 269.888 434.392 269.557 434.168C269.237 433.944 268.848 433.832 268.389 433.832C267.952 433.832 267.563 433.944 267.221 434.168C266.88 434.381 266.619 434.701 266.437 435.128C266.267 435.544 266.203 436.051 266.245 436.648C266.203 437.181 266.272 437.656 266.453 438.072C266.645 438.477 266.923 438.792 267.285 439.016C267.659 439.24 268.085 439.352 268.565 439.352C269.045 439.352 269.451 439.251 269.781 439.048C270.123 438.845 270.389 438.573 270.581 438.232L272.277 439.064C272.107 439.48 271.84 439.848 271.477 440.168C271.115 440.488 270.683 440.739 270.181 440.92C269.691 441.101 269.147 441.192 268.549 441.192ZM274.218 441V428.888H276.314V441H274.218Z" fill="#171816"/>
<circle cx="300" cy="570" r="92" stroke="#E9E5D3" stroke-width="16"/>
<path d="M300 477.995C300 473.58 303.586 469.967 307.987 470.319C331.585 472.209 353.849 482.428 370.711 499.289C389.464 518.043 400 543.478 400 570C400 596.522 389.464 621.957 370.711 640.711C353.849 657.572 331.585 667.791 307.988 669.681C303.586 670.033 300 666.42 300 662.005C300 657.589 303.588 654.049 307.984 653.629C327.335 651.783 345.542 643.265 359.404 629.404C375.158 613.649 384.009 592.281 384.009 570C384.009 547.719 375.158 526.351 359.404 510.596C345.542 496.735 327.335 488.217 307.984 486.371C303.588 485.951 300 482.411 300 477.995Z" fill="#27AC02"/>
<path d="M271.598 583.134C270.339 583.134 269.134 582.899 267.982 582.43C266.851 581.961 265.87 581.299 265.038 580.446C264.227 579.571 263.672 578.537 263.374 577.342L267.15 575.998C267.512 577.086 268.099 577.897 268.91 578.43C269.72 578.942 270.616 579.198 271.598 579.198C272.408 579.198 273.123 579.027 273.742 578.686C274.382 578.323 274.872 577.833 275.214 577.214C275.555 576.574 275.726 575.838 275.726 575.006C275.726 574.174 275.544 573.449 275.182 572.83C274.84 572.211 274.36 571.731 273.742 571.39C273.123 571.027 272.408 570.846 271.598 570.846C270.766 570.846 270.008 571.027 269.326 571.39C268.664 571.753 268.184 572.275 267.886 572.958L264.334 572.158L266.222 558.91H279.214V562.59H267.95L269.582 560.702L268.238 570.686L266.99 569.662C267.587 568.787 268.312 568.147 269.166 567.742C270.04 567.337 271.096 567.134 272.334 567.134C273.912 567.134 275.278 567.475 276.43 568.158C277.603 568.841 278.51 569.769 279.15 570.942C279.79 572.115 280.11 573.47 280.11 575.006C280.11 576.542 279.736 577.929 278.99 579.166C278.243 580.403 277.23 581.374 275.95 582.078C274.67 582.782 273.219 583.134 271.598 583.134ZM293.109 583.134C291.211 583.134 289.547 582.622 288.117 581.598C286.688 580.574 285.568 579.134 284.757 577.278C283.968 575.422 283.573 573.267 283.573 570.814C283.573 568.339 283.968 566.185 284.757 564.35C285.547 562.515 286.656 561.086 288.085 560.062C289.515 559.038 291.179 558.526 293.077 558.526C295.019 558.526 296.693 559.038 298.101 560.062C299.531 561.086 300.651 562.526 301.461 564.382C302.272 566.217 302.677 568.361 302.677 570.814C302.677 573.267 302.272 575.422 301.461 577.278C300.672 579.113 299.563 580.553 298.133 581.598C296.704 582.622 295.029 583.134 293.109 583.134ZM293.141 579.166C294.229 579.166 295.157 578.835 295.925 578.174C296.693 577.491 297.28 576.531 297.685 575.294C298.112 574.035 298.325 572.542 298.325 570.814C298.325 569.086 298.112 567.603 297.685 566.366C297.28 565.107 296.683 564.147 295.893 563.486C295.125 562.825 294.187 562.494 293.077 562.494C292.011 562.494 291.093 562.825 290.325 563.486C289.557 564.147 288.96 565.107 288.533 566.366C288.128 567.603 287.925 569.086 287.925 570.814C287.925 572.521 288.128 574.003 288.533 575.262C288.96 576.499 289.557 577.459 290.325 578.142C291.115 578.825 292.053 579.166 293.141 579.166ZM309.334 582.75L328.662 558.91H333.142L313.814 582.75H309.334ZM313.078 571.006C311.883 571.006 310.806 570.729 309.846 570.174C308.907 569.598 308.16 568.841 307.606 567.902C307.051 566.963 306.774 565.918 306.774 564.766C306.774 563.614 307.051 562.569 307.606 561.63C308.16 560.67 308.907 559.913 309.846 559.358C310.806 558.803 311.872 558.526 313.046 558.526C314.24 558.526 315.307 558.803 316.246 559.358C317.184 559.913 317.931 560.67 318.486 561.63C319.04 562.569 319.318 563.614 319.318 564.766C319.318 565.918 319.04 566.963 318.486 567.902C317.931 568.841 317.184 569.598 316.246 570.174C315.307 570.729 314.251 571.006 313.078 571.006ZM313.046 567.774C313.686 567.774 314.219 567.635 314.646 567.358C315.072 567.059 315.392 566.686 315.606 566.238C315.84 565.769 315.958 565.278 315.958 564.766C315.958 564.233 315.84 563.742 315.606 563.294C315.392 562.846 315.072 562.473 314.646 562.174C314.219 561.875 313.686 561.726 313.046 561.726C312.448 561.726 311.926 561.875 311.478 562.174C311.051 562.473 310.72 562.857 310.486 563.326C310.251 563.774 310.134 564.254 310.134 564.766C310.134 565.257 310.251 565.737 310.486 566.206C310.72 566.675 311.051 567.059 311.478 567.358C311.926 567.635 312.448 567.774 313.046 567.774ZM329.302 583.134C328.128 583.134 327.062 582.857 326.102 582.302C325.163 581.726 324.416 580.969 323.862 580.03C323.307 579.091 323.03 578.046 323.03 576.894C323.03 575.742 323.307 574.697 323.862 573.758C324.416 572.798 325.163 572.041 326.102 571.486C327.062 570.931 328.128 570.654 329.302 570.654C330.496 570.654 331.563 570.931 332.502 571.486C333.44 572.041 334.187 572.798 334.742 573.758C335.296 574.697 335.574 575.742 335.574 576.894C335.574 578.046 335.296 579.091 334.742 580.03C334.187 580.969 333.44 581.726 332.502 582.302C331.563 582.857 330.496 583.134 329.302 583.134ZM329.302 579.902C329.92 579.902 330.443 579.763 330.87 579.486C331.318 579.187 331.648 578.814 331.862 578.366C332.096 577.897 332.214 577.406 332.214 576.894C332.214 576.361 332.096 575.87 331.862 575.422C331.648 574.974 331.318 574.601 330.87 574.302C330.443 574.003 329.92 573.854 329.302 573.854C328.704 573.854 328.182 574.003 327.734 574.302C327.307 574.601 326.976 574.985 326.742 575.454C326.507 575.902 326.39 576.382 326.39 576.894C326.39 577.385 326.507 577.865 326.742 578.334C326.976 578.803 327.307 579.187 327.734 579.486C328.182 579.763 328.704 579.902 329.302 579.902Z" fill="#171816"/>
<path d="M279.879 705V693.08H282.055V703.08H287.159V705H279.879ZM291.03 705.192C290.422 705.192 289.894 705.091 289.446 704.888C288.998 704.685 288.651 704.397 288.406 704.024C288.161 703.64 288.038 703.197 288.038 702.696C288.038 702.216 288.145 701.789 288.358 701.416C288.571 701.032 288.902 700.712 289.35 700.456C289.798 700.2 290.363 700.019 291.046 699.912L293.894 699.448V701.048L291.446 701.464C291.03 701.539 290.721 701.672 290.518 701.864C290.315 702.056 290.214 702.307 290.214 702.616C290.214 702.915 290.326 703.155 290.55 703.336C290.785 703.507 291.073 703.592 291.414 703.592C291.851 703.592 292.235 703.501 292.566 703.32C292.907 703.128 293.169 702.867 293.35 702.536C293.542 702.205 293.638 701.843 293.638 701.448V699.208C293.638 698.835 293.489 698.525 293.19 698.28C292.902 698.024 292.518 697.896 292.038 697.896C291.59 697.896 291.19 698.019 290.838 698.264C290.497 698.499 290.246 698.813 290.086 699.208L288.374 698.376C288.545 697.917 288.811 697.523 289.174 697.192C289.547 696.851 289.985 696.584 290.486 696.392C290.987 696.2 291.531 696.104 292.118 696.104C292.833 696.104 293.462 696.237 294.006 696.504C294.55 696.76 294.971 697.123 295.27 697.592C295.579 698.051 295.734 698.589 295.734 699.208V705H293.75V703.512L294.198 703.48C293.974 703.853 293.707 704.168 293.398 704.424C293.089 704.669 292.737 704.861 292.342 705C291.947 705.128 291.51 705.192 291.03 705.192ZM302.423 705.192C301.794 705.192 301.213 705.069 300.679 704.824C300.157 704.568 299.741 704.205 299.431 703.736L299.639 703.32V705H297.671V692.888H299.767V698.024L299.447 697.592C299.746 697.123 300.151 696.76 300.663 696.504C301.175 696.237 301.767 696.104 302.439 696.104C303.261 696.104 304.002 696.307 304.663 696.712C305.325 697.117 305.847 697.661 306.231 698.344C306.626 699.027 306.823 699.795 306.823 700.648C306.823 701.491 306.631 702.259 306.247 702.952C305.863 703.645 305.341 704.195 304.679 704.6C304.018 704.995 303.266 705.192 302.423 705.192ZM302.183 703.272C302.663 703.272 303.09 703.16 303.463 702.936C303.837 702.712 304.125 702.403 304.327 702.008C304.541 701.613 304.647 701.16 304.647 700.648C304.647 700.136 304.541 699.688 304.327 699.304C304.125 698.909 303.837 698.6 303.463 698.376C303.09 698.141 302.663 698.024 302.183 698.024C301.725 698.024 301.309 698.136 300.935 698.36C300.573 698.584 300.285 698.899 300.071 699.304C299.869 699.699 299.767 700.147 299.767 700.648C299.767 701.16 299.869 701.613 300.071 702.008C300.285 702.403 300.573 702.712 300.935 702.936C301.309 703.16 301.725 703.272 302.183 703.272ZM312.549 705.192C311.653 705.192 310.869 704.989 310.197 704.584C309.525 704.179 309.003 703.629 308.629 702.936C308.256 702.243 308.069 701.475 308.069 700.632C308.069 699.757 308.256 698.984 308.629 698.312C309.013 697.629 309.531 697.091 310.181 696.696C310.843 696.301 311.579 696.104 312.389 696.104C313.072 696.104 313.669 696.216 314.181 696.44C314.704 696.664 315.147 696.973 315.509 697.368C315.872 697.763 316.149 698.216 316.341 698.728C316.533 699.229 316.629 699.773 316.629 700.36C316.629 700.509 316.619 700.664 316.597 700.824C316.587 700.984 316.56 701.123 316.517 701.24H309.797V699.64H315.333L314.341 700.392C314.437 699.901 314.411 699.464 314.261 699.08C314.123 698.696 313.888 698.392 313.557 698.168C313.237 697.944 312.848 697.832 312.389 697.832C311.952 697.832 311.563 697.944 311.221 698.168C310.88 698.381 310.619 698.701 310.437 699.128C310.267 699.544 310.203 700.051 310.245 700.648C310.203 701.181 310.272 701.656 310.453 702.072C310.645 702.477 310.923 702.792 311.285 703.016C311.659 703.24 312.085 703.352 312.565 703.352C313.045 703.352 313.451 703.251 313.781 703.048C314.123 702.845 314.389 702.573 314.581 702.232L316.277 703.064C316.107 703.48 315.84 703.848 315.477 704.168C315.115 704.488 314.683 704.739 314.181 704.92C313.691 705.101 313.147 705.192 312.549 705.192ZM318.218 705V692.888H320.314V705H318.218Z" fill="#171816"/>
<defs>
<clipPath id="clip0_6_370">
<rect x="200" y="65.5" width="158" height="6" rx="3" fill="white"/>
</clipPath>
<clipPath id="clip1_6_370">
<rect x="200" y="114.5" width="158" height="8" rx="4" fill="white"/>
</clipPath>
</defs>
</svg>
