<svg width="600" height="304" viewBox="0 0 600 304" fill="none" xmlns="http://www.w3.org/2000/svg">
<rect x="0.5" y="0.5" width="599" height="303" rx="15.5" fill="white"/>
<rect x="0.5" y="0.5" width="599" height="303" rx="15.5" stroke="#E6E7E5"/>
<path d="M153.47 37L150.302 28.06H151.826L154.418 35.692H154.118L156.698 28.06H158.222L155.054 37H153.47ZM161.592 37.144C160.944 37.144 160.368 36.996 159.864 36.7C159.368 36.396 158.98 35.988 158.7 35.476C158.42 34.956 158.28 34.376 158.28 33.736C158.28 33.08 158.42 32.5 158.7 31.996C158.988 31.492 159.372 31.096 159.852 30.808C160.332 30.512 160.876 30.364 161.484 30.364C161.972 30.364 162.408 30.448 162.792 30.616C163.176 30.784 163.5 31.016 163.764 31.312C164.028 31.6 164.228 31.932 164.364 32.308C164.508 32.684 164.58 33.084 164.58 33.508C164.58 33.612 164.576 33.72 164.568 33.832C164.56 33.944 164.544 34.048 164.52 34.144H159.348V33.064H163.752L163.104 33.556C163.184 33.164 163.156 32.816 163.02 32.512C162.892 32.2 162.692 31.956 162.42 31.78C162.156 31.596 161.844 31.504 161.484 31.504C161.124 31.504 160.804 31.596 160.524 31.78C160.244 31.956 160.028 32.212 159.876 32.548C159.724 32.876 159.664 33.276 159.696 33.748C159.656 34.188 159.716 34.572 159.876 34.9C160.044 35.228 160.276 35.484 160.572 35.668C160.876 35.852 161.22 35.944 161.604 35.944C161.996 35.944 162.328 35.856 162.6 35.68C162.88 35.504 163.1 35.276 163.26 34.996L164.364 35.536C164.236 35.84 164.036 36.116 163.764 36.364C163.5 36.604 163.18 36.796 162.804 36.94C162.436 37.076 162.032 37.144 161.592 37.144ZM165.903 37V30.508H167.199V31.816L167.079 31.624C167.223 31.2 167.455 30.896 167.775 30.712C168.095 30.52 168.479 30.424 168.927 30.424H169.323V31.66H168.759C168.311 31.66 167.947 31.8 167.667 32.08C167.395 32.352 167.259 32.744 167.259 33.256V37H165.903ZM172.651 37.144C171.987 37.144 171.403 36.98 170.899 36.652C170.403 36.324 170.055 35.884 169.855 35.332L170.899 34.84C171.075 35.208 171.315 35.5 171.619 35.716C171.931 35.932 172.275 36.04 172.651 36.04C172.971 36.04 173.231 35.968 173.431 35.824C173.631 35.68 173.731 35.484 173.731 35.236C173.731 35.076 173.687 34.948 173.599 34.852C173.511 34.748 173.399 34.664 173.263 34.6C173.135 34.536 173.003 34.488 172.867 34.456L171.847 34.168C171.287 34.008 170.867 33.768 170.587 33.448C170.315 33.12 170.179 32.74 170.179 32.308C170.179 31.916 170.279 31.576 170.479 31.288C170.679 30.992 170.955 30.764 171.307 30.604C171.659 30.444 172.055 30.364 172.495 30.364C173.087 30.364 173.615 30.512 174.079 30.808C174.543 31.096 174.871 31.5 175.063 32.02L174.019 32.512C173.891 32.2 173.687 31.952 173.407 31.768C173.135 31.584 172.827 31.492 172.483 31.492C172.187 31.492 171.951 31.564 171.775 31.708C171.599 31.844 171.511 32.024 171.511 32.248C171.511 32.4 171.551 32.528 171.631 32.632C171.711 32.728 171.815 32.808 171.943 32.872C172.071 32.928 172.203 32.976 172.339 33.016L173.395 33.328C173.931 33.48 174.343 33.72 174.631 34.048C174.919 34.368 175.063 34.752 175.063 35.2C175.063 35.584 174.959 35.924 174.751 36.22C174.551 36.508 174.271 36.736 173.911 36.904C173.551 37.064 173.131 37.144 172.651 37.144ZM178.336 37.144C177.896 37.144 177.508 37.068 177.172 36.916C176.844 36.756 176.588 36.54 176.404 36.268C176.22 35.988 176.128 35.66 176.128 35.284C176.128 34.932 176.204 34.616 176.356 34.336C176.516 34.056 176.76 33.82 177.088 33.628C177.416 33.436 177.828 33.3 178.324 33.22L180.58 32.848V33.916L178.588 34.264C178.228 34.328 177.964 34.444 177.796 34.612C177.628 34.772 177.544 34.98 177.544 35.236C177.544 35.484 177.636 35.688 177.82 35.848C178.012 36 178.256 36.076 178.552 36.076C178.92 36.076 179.24 35.996 179.512 35.836C179.792 35.676 180.008 35.464 180.16 35.2C180.312 34.928 180.388 34.628 180.388 34.3V32.632C180.388 32.312 180.268 32.052 180.028 31.852C179.796 31.644 179.484 31.54 179.092 31.54C178.732 31.54 178.416 31.636 178.144 31.828C177.88 32.012 177.684 32.252 177.556 32.548L176.428 31.984C176.548 31.664 176.744 31.384 177.016 31.144C177.288 30.896 177.604 30.704 177.964 30.568C178.332 30.432 178.72 30.364 179.128 30.364C179.64 30.364 180.092 30.46 180.484 30.652C180.884 30.844 181.192 31.112 181.408 31.456C181.632 31.792 181.744 32.184 181.744 32.632V37H180.448V35.824L180.724 35.86C180.572 36.124 180.376 36.352 180.136 36.544C179.904 36.736 179.636 36.884 179.332 36.988C179.036 37.092 178.704 37.144 178.336 37.144ZM179.956 29.32C179.74 29.32 179.56 29.284 179.416 29.212C179.28 29.14 179.16 29.06 179.056 28.972C178.96 28.884 178.86 28.804 178.756 28.732C178.66 28.66 178.544 28.624 178.408 28.624C178.272 28.624 178.168 28.676 178.096 28.78C178.024 28.884 177.988 29.048 177.988 29.272H176.92C176.92 28.68 177.052 28.244 177.316 27.964C177.58 27.676 177.908 27.532 178.3 27.532C178.524 27.532 178.704 27.568 178.84 27.64C178.984 27.704 179.108 27.784 179.212 27.88C179.316 27.968 179.416 28.048 179.512 28.12C179.616 28.184 179.732 28.216 179.86 28.216C180.012 28.216 180.12 28.16 180.184 28.048C180.256 27.936 180.292 27.78 180.292 27.58H181.348C181.348 28.14 181.212 28.572 180.94 28.876C180.676 29.172 180.348 29.32 179.956 29.32ZM186.461 37.144C185.837 37.144 185.265 36.996 184.745 36.7C184.233 36.404 183.825 36 183.521 35.488C183.217 34.976 183.065 34.396 183.065 33.748C183.065 33.092 183.217 32.512 183.521 32.008C183.825 31.496 184.233 31.096 184.745 30.808C185.257 30.512 185.829 30.364 186.461 30.364C187.101 30.364 187.673 30.512 188.177 30.808C188.689 31.096 189.093 31.496 189.389 32.008C189.693 32.512 189.845 33.092 189.845 33.748C189.845 34.404 189.693 34.988 189.389 35.5C189.085 36.012 188.677 36.416 188.165 36.712C187.653 37 187.085 37.144 186.461 37.144ZM186.461 35.884C186.845 35.884 187.185 35.792 187.481 35.608C187.777 35.424 188.009 35.172 188.177 34.852C188.353 34.524 188.441 34.156 188.441 33.748C188.441 33.34 188.353 32.976 188.177 32.656C188.009 32.336 187.777 32.084 187.481 31.9C187.185 31.716 186.845 31.624 186.461 31.624C186.085 31.624 185.745 31.716 185.441 31.9C185.145 32.084 184.909 32.336 184.733 32.656C184.565 32.976 184.481 33.34 184.481 33.748C184.481 34.156 184.565 34.524 184.733 34.852C184.909 35.172 185.145 35.424 185.441 35.608C185.745 35.792 186.085 35.884 186.461 35.884ZM196.351 37.144C195.703 37.144 195.127 36.996 194.623 36.7C194.127 36.396 193.731 35.988 193.435 35.476C193.147 34.964 193.003 34.384 193.003 33.736C193.003 33.096 193.147 32.52 193.435 32.008C193.723 31.496 194.119 31.096 194.623 30.808C195.127 30.512 195.703 30.364 196.351 30.364C196.791 30.364 197.203 30.444 197.587 30.604C197.971 30.756 198.303 30.968 198.583 31.24C198.871 31.512 199.083 31.828 199.219 32.188L198.031 32.74C197.895 32.404 197.675 32.136 197.371 31.936C197.075 31.728 196.735 31.624 196.351 31.624C195.983 31.624 195.651 31.716 195.355 31.9C195.067 32.076 194.839 32.328 194.671 32.656C194.503 32.976 194.419 33.34 194.419 33.748C194.419 34.156 194.503 34.524 194.671 34.852C194.839 35.172 195.067 35.424 195.355 35.608C195.651 35.792 195.983 35.884 196.351 35.884C196.743 35.884 197.083 35.784 197.371 35.584C197.667 35.376 197.887 35.1 198.031 34.756L199.219 35.32C199.091 35.664 198.883 35.976 198.595 36.256C198.315 36.528 197.983 36.744 197.599 36.904C197.215 37.064 196.799 37.144 196.351 37.144ZM203.676 37.144C203.052 37.144 202.48 36.996 201.96 36.7C201.448 36.404 201.04 36 200.736 35.488C200.432 34.976 200.28 34.396 200.28 33.748C200.28 33.092 200.432 32.512 200.736 32.008C201.04 31.496 201.448 31.096 201.96 30.808C202.472 30.512 203.044 30.364 203.676 30.364C204.316 30.364 204.888 30.512 205.392 30.808C205.904 31.096 206.308 31.496 206.604 32.008C206.908 32.512 207.06 33.092 207.06 33.748C207.06 34.404 206.908 34.988 206.604 35.5C206.3 36.012 205.892 36.416 205.38 36.712C204.868 37 204.3 37.144 203.676 37.144ZM203.676 35.884C204.06 35.884 204.4 35.792 204.696 35.608C204.992 35.424 205.224 35.172 205.392 34.852C205.568 34.524 205.656 34.156 205.656 33.748C205.656 33.34 205.568 32.976 205.392 32.656C205.224 32.336 204.992 32.084 204.696 31.9C204.4 31.716 204.06 31.624 203.676 31.624C203.3 31.624 202.96 31.716 202.656 31.9C202.36 32.084 202.124 32.336 201.948 32.656C201.78 32.976 201.696 33.34 201.696 33.748C201.696 34.156 201.78 34.524 201.948 34.852C202.124 35.172 202.36 35.424 202.656 35.608C202.96 35.792 203.3 35.884 203.676 35.884ZM208.384 37V30.508H209.68V31.816L209.56 31.624C209.704 31.2 209.936 30.896 210.256 30.712C210.576 30.52 210.96 30.424 211.408 30.424H211.804V31.66H211.24C210.792 31.66 210.428 31.8 210.148 32.08C209.876 32.352 209.74 32.744 209.74 33.256V37H208.384ZM212.731 37V30.508H214.027V31.816L213.907 31.624C214.051 31.2 214.283 30.896 214.603 30.712C214.923 30.52 215.307 30.424 215.755 30.424H216.151V31.66H215.587C215.139 31.66 214.775 31.8 214.495 32.08C214.223 32.352 214.087 32.744 214.087 33.256V37H212.731ZM217.079 37V30.508H218.435V37H217.079ZM217.079 29.62V28.06H218.435V29.62H217.079ZM223.153 39.64C222.681 39.64 222.245 39.564 221.845 39.412C221.445 39.26 221.101 39.048 220.813 38.776C220.525 38.512 220.309 38.2 220.165 37.84L221.413 37.324C221.525 37.628 221.729 37.88 222.025 38.08C222.329 38.28 222.701 38.38 223.141 38.38C223.485 38.38 223.793 38.312 224.065 38.176C224.337 38.048 224.553 37.856 224.713 37.6C224.873 37.352 224.953 37.052 224.953 36.7V35.236L225.193 35.512C224.969 35.928 224.657 36.244 224.257 36.46C223.865 36.676 223.421 36.784 222.925 36.784C222.325 36.784 221.785 36.644 221.305 36.364C220.825 36.084 220.445 35.7 220.165 35.212C219.893 34.724 219.757 34.176 219.757 33.568C219.757 32.952 219.893 32.404 220.165 31.924C220.445 31.444 220.821 31.064 221.293 30.784C221.765 30.504 222.305 30.364 222.913 30.364C223.409 30.364 223.849 30.472 224.233 30.688C224.625 30.896 224.945 31.2 225.193 31.6L225.013 31.936V30.508H226.297V36.7C226.297 37.26 226.161 37.76 225.889 38.2C225.625 38.648 225.257 39 224.785 39.256C224.313 39.512 223.769 39.64 223.153 39.64ZM223.081 35.524C223.441 35.524 223.761 35.44 224.041 35.272C224.321 35.096 224.541 34.864 224.701 34.576C224.869 34.28 224.953 33.948 224.953 33.58C224.953 33.212 224.869 32.88 224.701 32.584C224.533 32.288 224.309 32.056 224.029 31.888C223.749 31.712 223.433 31.624 223.081 31.624C222.713 31.624 222.385 31.712 222.097 31.888C221.809 32.056 221.581 32.288 221.413 32.584C221.253 32.872 221.173 33.204 221.173 33.58C221.173 33.94 221.253 34.268 221.413 34.564C221.581 34.86 221.809 35.096 222.097 35.272C222.385 35.44 222.713 35.524 223.081 35.524ZM227.884 37V30.508H229.24V37H227.884ZM227.884 29.62V28.06H229.24V29.62H227.884ZM233.825 37.144C233.201 37.144 232.641 36.996 232.145 36.7C231.657 36.396 231.269 35.988 230.981 35.476C230.701 34.964 230.561 34.388 230.561 33.748C230.561 33.108 230.705 32.532 230.993 32.02C231.281 31.508 231.669 31.104 232.157 30.808C232.645 30.512 233.197 30.364 233.813 30.364C234.333 30.364 234.793 30.468 235.193 30.676C235.593 30.884 235.909 31.172 236.141 31.54L235.937 31.852V27.916H237.281V37H235.997V35.68L236.153 35.932C235.929 36.324 235.609 36.624 235.193 36.832C234.777 37.04 234.321 37.144 233.825 37.144ZM233.957 35.884C234.333 35.884 234.669 35.792 234.965 35.608C235.269 35.424 235.505 35.172 235.673 34.852C235.849 34.524 235.937 34.156 235.937 33.748C235.937 33.34 235.849 32.976 235.673 32.656C235.505 32.336 235.269 32.084 234.965 31.9C234.669 31.716 234.333 31.624 233.957 31.624C233.581 31.624 233.241 31.716 232.937 31.9C232.633 32.084 232.397 32.336 232.229 32.656C232.061 32.976 231.977 33.34 231.977 33.748C231.977 34.156 232.061 34.524 232.229 34.852C232.397 35.172 232.629 35.424 232.925 35.608C233.229 35.792 233.573 35.884 233.957 35.884ZM240.808 37.144C240.368 37.144 239.98 37.068 239.644 36.916C239.316 36.756 239.06 36.54 238.876 36.268C238.692 35.988 238.6 35.66 238.6 35.284C238.6 34.932 238.676 34.616 238.828 34.336C238.988 34.056 239.232 33.82 239.56 33.628C239.888 33.436 240.3 33.3 240.796 33.22L243.052 32.848V33.916L241.06 34.264C240.7 34.328 240.436 34.444 240.268 34.612C240.1 34.772 240.016 34.98 240.016 35.236C240.016 35.484 240.108 35.688 240.292 35.848C240.484 36 240.728 36.076 241.024 36.076C241.392 36.076 241.712 35.996 241.984 35.836C242.264 35.676 242.48 35.464 242.632 35.2C242.784 34.928 242.86 34.628 242.86 34.3V32.632C242.86 32.312 242.74 32.052 242.5 31.852C242.268 31.644 241.956 31.54 241.564 31.54C241.204 31.54 240.888 31.636 240.616 31.828C240.352 32.012 240.156 32.252 240.028 32.548L238.9 31.984C239.02 31.664 239.216 31.384 239.488 31.144C239.76 30.896 240.076 30.704 240.436 30.568C240.804 30.432 241.192 30.364 241.6 30.364C242.112 30.364 242.564 30.46 242.956 30.652C243.356 30.844 243.664 31.112 243.88 31.456C244.104 31.792 244.216 32.184 244.216 32.632V37H242.92V35.824L243.196 35.86C243.044 36.124 242.848 36.352 242.608 36.544C242.376 36.736 242.108 36.884 241.804 36.988C241.508 37.092 241.176 37.144 240.808 37.144ZM250.983 37.144C250.335 37.144 249.759 36.996 249.255 36.7C248.759 36.396 248.363 35.988 248.067 35.476C247.779 34.964 247.635 34.384 247.635 33.736C247.635 33.096 247.779 32.52 248.067 32.008C248.355 31.496 248.751 31.096 249.255 30.808C249.759 30.512 250.335 30.364 250.983 30.364C251.423 30.364 251.835 30.444 252.219 30.604C252.603 30.756 252.935 30.968 253.215 31.24C253.503 31.512 253.715 31.828 253.851 32.188L252.663 32.74C252.527 32.404 252.307 32.136 252.003 31.936C251.707 31.728 251.367 31.624 250.983 31.624C250.615 31.624 250.283 31.716 249.987 31.9C249.699 32.076 249.471 32.328 249.303 32.656C249.135 32.976 249.051 33.34 249.051 33.748C249.051 34.156 249.135 34.524 249.303 34.852C249.471 35.172 249.699 35.424 249.987 35.608C250.283 35.792 250.615 35.884 250.983 35.884C251.375 35.884 251.715 35.784 252.003 35.584C252.299 35.376 252.519 35.1 252.663 34.756L253.851 35.32C253.723 35.664 253.515 35.976 253.227 36.256C252.947 36.528 252.615 36.744 252.231 36.904C251.847 37.064 251.431 37.144 250.983 37.144ZM258.309 37.144C257.685 37.144 257.113 36.996 256.593 36.7C256.081 36.404 255.673 36 255.369 35.488C255.065 34.976 254.913 34.396 254.913 33.748C254.913 33.092 255.065 32.512 255.369 32.008C255.673 31.496 256.081 31.096 256.593 30.808C257.105 30.512 257.677 30.364 258.309 30.364C258.949 30.364 259.521 30.512 260.025 30.808C260.537 31.096 260.941 31.496 261.237 32.008C261.541 32.512 261.693 33.092 261.693 33.748C261.693 34.404 261.541 34.988 261.237 35.5C260.933 36.012 260.525 36.416 260.013 36.712C259.501 37 258.933 37.144 258.309 37.144ZM258.309 35.884C258.693 35.884 259.033 35.792 259.329 35.608C259.625 35.424 259.857 35.172 260.025 34.852C260.201 34.524 260.289 34.156 260.289 33.748C260.289 33.34 260.201 32.976 260.025 32.656C259.857 32.336 259.625 32.084 259.329 31.9C259.033 31.716 258.693 31.624 258.309 31.624C257.933 31.624 257.593 31.716 257.289 31.9C256.993 32.084 256.757 32.336 256.581 32.656C256.413 32.976 256.329 33.34 256.329 33.748C256.329 34.156 256.413 34.524 256.581 34.852C256.757 35.172 256.993 35.424 257.289 35.608C257.593 35.792 257.933 35.884 258.309 35.884ZM263.017 37V30.508H264.313V31.912L264.145 31.696C264.281 31.256 264.529 30.924 264.889 30.7C265.249 30.476 265.661 30.364 266.125 30.364C266.645 30.364 267.105 30.504 267.505 30.784C267.913 31.056 268.185 31.42 268.321 31.876L267.937 31.912C268.129 31.392 268.421 31.004 268.813 30.748C269.213 30.492 269.669 30.364 270.181 30.364C270.629 30.364 271.033 30.468 271.393 30.676C271.761 30.884 272.053 31.172 272.269 31.54C272.485 31.908 272.593 32.328 272.593 32.8V37H271.237V33.172C271.237 32.844 271.177 32.568 271.057 32.344C270.945 32.112 270.785 31.936 270.577 31.816C270.377 31.688 270.141 31.624 269.869 31.624C269.597 31.624 269.357 31.688 269.149 31.816C268.941 31.936 268.777 32.112 268.657 32.344C268.537 32.576 268.477 32.852 268.477 33.172V37H267.133V33.172C267.133 32.844 267.073 32.568 266.953 32.344C266.841 32.112 266.681 31.936 266.473 31.816C266.273 31.688 266.033 31.624 265.753 31.624C265.481 31.624 265.241 31.688 265.033 31.816C264.825 31.936 264.661 32.112 264.541 32.344C264.429 32.576 264.373 32.852 264.373 33.172V37H263.017ZM278.086 37.144C277.646 37.144 277.258 37.068 276.922 36.916C276.594 36.756 276.338 36.54 276.154 36.268C275.97 35.988 275.878 35.66 275.878 35.284C275.878 34.932 275.954 34.616 276.106 34.336C276.266 34.056 276.51 33.82 276.838 33.628C277.166 33.436 277.578 33.3 278.074 33.22L280.33 32.848V33.916L278.338 34.264C277.978 34.328 277.714 34.444 277.546 34.612C277.378 34.772 277.294 34.98 277.294 35.236C277.294 35.484 277.386 35.688 277.57 35.848C277.762 36 278.006 36.076 278.302 36.076C278.67 36.076 278.99 35.996 279.262 35.836C279.542 35.676 279.758 35.464 279.91 35.2C280.062 34.928 280.138 34.628 280.138 34.3V32.632C280.138 32.312 280.018 32.052 279.778 31.852C279.546 31.644 279.234 31.54 278.842 31.54C278.482 31.54 278.166 31.636 277.894 31.828C277.63 32.012 277.434 32.252 277.306 32.548L276.178 31.984C276.298 31.664 276.494 31.384 276.766 31.144C277.038 30.896 277.354 30.704 277.714 30.568C278.082 30.432 278.47 30.364 278.878 30.364C279.39 30.364 279.842 30.46 280.234 30.652C280.634 30.844 280.942 31.112 281.158 31.456C281.382 31.792 281.494 32.184 281.494 32.632V37H280.198V35.824L280.474 35.86C280.322 36.124 280.126 36.352 279.886 36.544C279.654 36.736 279.386 36.884 279.082 36.988C278.786 37.092 278.454 37.144 278.086 37.144ZM285.479 37.144C284.815 37.144 284.231 36.98 283.727 36.652C283.231 36.324 282.883 35.884 282.683 35.332L283.727 34.84C283.903 35.208 284.143 35.5 284.447 35.716C284.759 35.932 285.103 36.04 285.479 36.04C285.799 36.04 286.059 35.968 286.259 35.824C286.459 35.68 286.559 35.484 286.559 35.236C286.559 35.076 286.515 34.948 286.427 34.852C286.339 34.748 286.227 34.664 286.091 34.6C285.963 34.536 285.831 34.488 285.695 34.456L284.675 34.168C284.115 34.008 283.695 33.768 283.415 33.448C283.143 33.12 283.007 32.74 283.007 32.308C283.007 31.916 283.107 31.576 283.307 31.288C283.507 30.992 283.783 30.764 284.135 30.604C284.487 30.444 284.883 30.364 285.323 30.364C285.915 30.364 286.443 30.512 286.907 30.808C287.371 31.096 287.699 31.5 287.891 32.02L286.847 32.512C286.719 32.2 286.515 31.952 286.235 31.768C285.963 31.584 285.655 31.492 285.311 31.492C285.015 31.492 284.779 31.564 284.603 31.708C284.427 31.844 284.339 32.024 284.339 32.248C284.339 32.4 284.379 32.528 284.459 32.632C284.539 32.728 284.643 32.808 284.771 32.872C284.899 32.928 285.031 32.976 285.167 33.016L286.223 33.328C286.759 33.48 287.171 33.72 287.459 34.048C287.747 34.368 287.891 34.752 287.891 35.2C287.891 35.584 287.787 35.924 287.579 36.22C287.379 36.508 287.099 36.736 286.739 36.904C286.379 37.064 285.959 37.144 285.479 37.144ZM291.317 39.4V30.508H292.613V31.852L292.457 31.54C292.697 31.172 293.017 30.884 293.417 30.676C293.817 30.468 294.273 30.364 294.785 30.364C295.401 30.364 295.953 30.512 296.441 30.808C296.937 31.104 297.325 31.508 297.605 32.02C297.893 32.532 298.037 33.108 298.037 33.748C298.037 34.388 297.893 34.964 297.605 35.476C297.325 35.988 296.941 36.396 296.453 36.7C295.965 36.996 295.409 37.144 294.785 37.144C294.281 37.144 293.821 37.04 293.405 36.832C292.997 36.624 292.681 36.324 292.457 35.932L292.673 35.68V39.4H291.317ZM294.653 35.884C295.037 35.884 295.377 35.792 295.673 35.608C295.969 35.424 296.201 35.172 296.369 34.852C296.545 34.524 296.633 34.156 296.633 33.748C296.633 33.34 296.545 32.976 296.369 32.656C296.201 32.336 295.969 32.084 295.673 31.9C295.377 31.716 295.037 31.624 294.653 31.624C294.277 31.624 293.937 31.716 293.633 31.9C293.337 32.084 293.101 32.336 292.925 32.656C292.757 32.976 292.673 33.34 292.673 33.748C292.673 34.156 292.757 34.524 292.925 34.852C293.101 35.172 293.337 35.424 293.633 35.608C293.937 35.792 294.277 35.884 294.653 35.884ZM299.356 37V30.508H300.652V31.816L300.532 31.624C300.676 31.2 300.908 30.896 301.228 30.712C301.548 30.52 301.932 30.424 302.38 30.424H302.776V31.66H302.212C301.764 31.66 301.4 31.8 301.12 32.08C300.848 32.352 300.712 32.744 300.712 33.256V37H299.356ZM306.752 37.144C306.104 37.144 305.528 36.996 305.024 36.7C304.528 36.396 304.14 35.988 303.86 35.476C303.58 34.956 303.44 34.376 303.44 33.736C303.44 33.08 303.58 32.5 303.86 31.996C304.148 31.492 304.532 31.096 305.012 30.808C305.492 30.512 306.036 30.364 306.644 30.364C307.132 30.364 307.568 30.448 307.952 30.616C308.336 30.784 308.66 31.016 308.924 31.312C309.188 31.6 309.388 31.932 309.524 32.308C309.668 32.684 309.74 33.084 309.74 33.508C309.74 33.612 309.736 33.72 309.728 33.832C309.72 33.944 309.704 34.048 309.68 34.144H304.508V33.064H308.912L308.264 33.556C308.344 33.164 308.316 32.816 308.18 32.512C308.052 32.2 307.852 31.956 307.58 31.78C307.316 31.596 307.004 31.504 306.644 31.504C306.284 31.504 305.964 31.596 305.684 31.78C305.404 31.956 305.188 32.212 305.036 32.548C304.884 32.876 304.824 33.276 304.856 33.748C304.816 34.188 304.876 34.572 305.036 34.9C305.204 35.228 305.436 35.484 305.732 35.668C306.036 35.852 306.38 35.944 306.764 35.944C307.156 35.944 307.488 35.856 307.76 35.68C308.04 35.504 308.26 35.276 308.42 34.996L309.524 35.536C309.396 35.84 309.196 36.116 308.924 36.364C308.66 36.604 308.34 36.796 307.964 36.94C307.596 37.076 307.192 37.144 306.752 37.144ZM311.063 37V30.508H312.359V31.912L312.191 31.696C312.327 31.256 312.575 30.924 312.935 30.7C313.295 30.476 313.707 30.364 314.171 30.364C314.691 30.364 315.151 30.504 315.551 30.784C315.959 31.056 316.231 31.42 316.367 31.876L315.983 31.912C316.175 31.392 316.467 31.004 316.859 30.748C317.259 30.492 317.715 30.364 318.227 30.364C318.675 30.364 319.079 30.468 319.439 30.676C319.807 30.884 320.099 31.172 320.315 31.54C320.531 31.908 320.639 32.328 320.639 32.8V37H319.283V33.172C319.283 32.844 319.223 32.568 319.103 32.344C318.991 32.112 318.831 31.936 318.623 31.816C318.423 31.688 318.187 31.624 317.915 31.624C317.643 31.624 317.403 31.688 317.195 31.816C316.987 31.936 316.823 32.112 316.703 32.344C316.583 32.576 316.523 32.852 316.523 33.172V37H315.179V33.172C315.179 32.844 315.119 32.568 314.999 32.344C314.887 32.112 314.727 31.936 314.519 31.816C314.319 31.688 314.079 31.624 313.799 31.624C313.527 31.624 313.287 31.688 313.079 31.816C312.871 31.936 312.707 32.112 312.587 32.344C312.475 32.576 312.419 32.852 312.419 33.172V37H311.063ZM322.091 37V30.508H323.447V37H322.091ZM322.091 29.62V28.06H323.447V29.62H322.091ZM327.432 37.144C326.768 37.144 326.184 36.98 325.68 36.652C325.184 36.324 324.836 35.884 324.636 35.332L325.68 34.84C325.856 35.208 326.096 35.5 326.4 35.716C326.712 35.932 327.056 36.04 327.432 36.04C327.752 36.04 328.012 35.968 328.212 35.824C328.412 35.68 328.512 35.484 328.512 35.236C328.512 35.076 328.468 34.948 328.38 34.852C328.292 34.748 328.18 34.664 328.044 34.6C327.916 34.536 327.784 34.488 327.648 34.456L326.628 34.168C326.068 34.008 325.648 33.768 325.368 33.448C325.096 33.12 324.96 32.74 324.96 32.308C324.96 31.916 325.06 31.576 325.26 31.288C325.46 30.992 325.736 30.764 326.088 30.604C326.44 30.444 326.836 30.364 327.276 30.364C327.868 30.364 328.396 30.512 328.86 30.808C329.324 31.096 329.652 31.5 329.844 32.02L328.8 32.512C328.672 32.2 328.468 31.952 328.188 31.768C327.916 31.584 327.608 31.492 327.264 31.492C326.968 31.492 326.732 31.564 326.556 31.708C326.38 31.844 326.292 32.024 326.292 32.248C326.292 32.4 326.332 32.528 326.412 32.632C326.492 32.728 326.596 32.808 326.724 32.872C326.852 32.928 326.984 32.976 327.12 33.016L328.176 33.328C328.712 33.48 329.124 33.72 329.412 34.048C329.7 34.368 329.844 34.752 329.844 35.2C329.844 35.584 329.74 35.924 329.532 36.22C329.332 36.508 329.052 36.736 328.692 36.904C328.332 37.064 327.912 37.144 327.432 37.144ZM333.573 37.144C332.909 37.144 332.325 36.98 331.821 36.652C331.325 36.324 330.977 35.884 330.777 35.332L331.821 34.84C331.997 35.208 332.237 35.5 332.541 35.716C332.853 35.932 333.197 36.04 333.573 36.04C333.893 36.04 334.153 35.968 334.353 35.824C334.553 35.68 334.653 35.484 334.653 35.236C334.653 35.076 334.609 34.948 334.521 34.852C334.433 34.748 334.321 34.664 334.185 34.6C334.057 34.536 333.925 34.488 333.789 34.456L332.769 34.168C332.209 34.008 331.789 33.768 331.509 33.448C331.237 33.12 331.101 32.74 331.101 32.308C331.101 31.916 331.201 31.576 331.401 31.288C331.601 30.992 331.877 30.764 332.229 30.604C332.581 30.444 332.977 30.364 333.417 30.364C334.009 30.364 334.537 30.512 335.001 30.808C335.465 31.096 335.793 31.5 335.985 32.02L334.941 32.512C334.813 32.2 334.609 31.952 334.329 31.768C334.057 31.584 333.749 31.492 333.405 31.492C333.109 31.492 332.873 31.564 332.697 31.708C332.521 31.844 332.433 32.024 332.433 32.248C332.433 32.4 332.473 32.528 332.553 32.632C332.633 32.728 332.737 32.808 332.865 32.872C332.993 32.928 333.125 32.976 333.261 33.016L334.317 33.328C334.853 33.48 335.265 33.72 335.553 34.048C335.841 34.368 335.985 34.752 335.985 35.2C335.985 35.584 335.881 35.924 335.673 36.22C335.473 36.508 335.193 36.736 334.833 36.904C334.473 37.064 334.053 37.144 333.573 37.144ZM339.257 37.144C338.817 37.144 338.429 37.068 338.093 36.916C337.765 36.756 337.509 36.54 337.325 36.268C337.141 35.988 337.049 35.66 337.049 35.284C337.049 34.932 337.125 34.616 337.277 34.336C337.437 34.056 337.681 33.82 338.009 33.628C338.337 33.436 338.749 33.3 339.245 33.22L341.501 32.848V33.916L339.509 34.264C339.149 34.328 338.885 34.444 338.717 34.612C338.549 34.772 338.465 34.98 338.465 35.236C338.465 35.484 338.557 35.688 338.741 35.848C338.933 36 339.177 36.076 339.473 36.076C339.841 36.076 340.161 35.996 340.433 35.836C340.713 35.676 340.929 35.464 341.081 35.2C341.233 34.928 341.309 34.628 341.309 34.3V32.632C341.309 32.312 341.189 32.052 340.949 31.852C340.717 31.644 340.405 31.54 340.013 31.54C339.653 31.54 339.337 31.636 339.065 31.828C338.801 32.012 338.605 32.252 338.477 32.548L337.349 31.984C337.469 31.664 337.665 31.384 337.937 31.144C338.209 30.896 338.525 30.704 338.885 30.568C339.253 30.432 339.641 30.364 340.049 30.364C340.561 30.364 341.013 30.46 341.405 30.652C341.805 30.844 342.113 31.112 342.329 31.456C342.553 31.792 342.665 32.184 342.665 32.632V37H341.369V35.824L341.645 35.86C341.493 36.124 341.297 36.352 341.057 36.544C340.825 36.736 340.557 36.884 340.253 36.988C339.957 37.092 339.625 37.144 339.257 37.144ZM346.651 37.144C345.987 37.144 345.403 36.98 344.899 36.652C344.403 36.324 344.055 35.884 343.855 35.332L344.899 34.84C345.075 35.208 345.315 35.5 345.619 35.716C345.931 35.932 346.275 36.04 346.651 36.04C346.971 36.04 347.231 35.968 347.431 35.824C347.631 35.68 347.731 35.484 347.731 35.236C347.731 35.076 347.687 34.948 347.599 34.852C347.511 34.748 347.399 34.664 347.263 34.6C347.135 34.536 347.003 34.488 346.867 34.456L345.847 34.168C345.287 34.008 344.867 33.768 344.587 33.448C344.315 33.12 344.179 32.74 344.179 32.308C344.179 31.916 344.279 31.576 344.479 31.288C344.679 30.992 344.955 30.764 345.307 30.604C345.659 30.444 346.055 30.364 346.495 30.364C347.087 30.364 347.615 30.512 348.079 30.808C348.543 31.096 348.871 31.5 349.063 32.02L348.019 32.512C347.891 32.2 347.687 31.952 347.407 31.768C347.135 31.584 346.827 31.492 346.483 31.492C346.187 31.492 345.951 31.564 345.775 31.708C345.599 31.844 345.511 32.024 345.511 32.248C345.511 32.4 345.551 32.528 345.631 32.632C345.711 32.728 345.815 32.808 345.943 32.872C346.071 32.928 346.203 32.976 346.339 33.016L347.395 33.328C347.931 33.48 348.343 33.72 348.631 34.048C348.919 34.368 349.063 34.752 349.063 35.2C349.063 35.584 348.959 35.924 348.751 36.22C348.551 36.508 348.271 36.736 347.911 36.904C347.551 37.064 347.131 37.144 346.651 37.144ZM355.537 37.144C354.889 37.144 354.313 36.996 353.809 36.7C353.313 36.396 352.925 35.988 352.645 35.476C352.365 34.956 352.225 34.376 352.225 33.736C352.225 33.08 352.365 32.5 352.645 31.996C352.933 31.492 353.317 31.096 353.797 30.808C354.277 30.512 354.821 30.364 355.429 30.364C355.917 30.364 356.353 30.448 356.737 30.616C357.121 30.784 357.445 31.016 357.709 31.312C357.973 31.6 358.173 31.932 358.309 32.308C358.453 32.684 358.525 33.084 358.525 33.508C358.525 33.612 358.521 33.72 358.513 33.832C358.505 33.944 358.489 34.048 358.465 34.144H353.293V33.064H357.697L357.049 33.556C357.129 33.164 357.101 32.816 356.965 32.512C356.837 32.2 356.637 31.956 356.365 31.78C356.101 31.596 355.789 31.504 355.429 31.504C355.069 31.504 354.749 31.596 354.469 31.78C354.189 31.956 353.973 32.212 353.821 32.548C353.669 32.876 353.609 33.276 353.641 33.748C353.601 34.188 353.661 34.572 353.821 34.9C353.989 35.228 354.221 35.484 354.517 35.668C354.821 35.852 355.165 35.944 355.549 35.944C355.941 35.944 356.273 35.856 356.545 35.68C356.825 35.504 357.045 35.276 357.205 34.996L358.309 35.536C358.181 35.84 357.981 36.116 357.709 36.364C357.445 36.604 357.125 36.796 356.749 36.94C356.381 37.076 355.977 37.144 355.537 37.144ZM361.946 37V30.508H363.242V31.816L363.122 31.624C363.266 31.2 363.498 30.896 363.818 30.712C364.138 30.52 364.522 30.424 364.97 30.424H365.366V31.66H364.802C364.354 31.66 363.99 31.8 363.71 32.08C363.438 32.352 363.302 32.744 363.302 33.256V37H361.946ZM369.342 37.144C368.694 37.144 368.118 36.996 367.614 36.7C367.118 36.396 366.73 35.988 366.45 35.476C366.17 34.956 366.03 34.376 366.03 33.736C366.03 33.08 366.17 32.5 366.45 31.996C366.738 31.492 367.122 31.096 367.602 30.808C368.082 30.512 368.626 30.364 369.234 30.364C369.722 30.364 370.158 30.448 370.542 30.616C370.926 30.784 371.25 31.016 371.514 31.312C371.778 31.6 371.978 31.932 372.114 32.308C372.258 32.684 372.33 33.084 372.33 33.508C372.33 33.612 372.326 33.72 372.318 33.832C372.31 33.944 372.294 34.048 372.27 34.144H367.098V33.064H371.502L370.854 33.556C370.934 33.164 370.906 32.816 370.77 32.512C370.642 32.2 370.442 31.956 370.17 31.78C369.906 31.596 369.594 31.504 369.234 31.504C368.874 31.504 368.554 31.596 368.274 31.78C367.994 31.956 367.778 32.212 367.626 32.548C367.474 32.876 367.414 33.276 367.446 33.748C367.406 34.188 367.466 34.572 367.626 34.9C367.794 35.228 368.026 35.484 368.322 35.668C368.626 35.852 368.97 35.944 369.354 35.944C369.746 35.944 370.078 35.856 370.35 35.68C370.63 35.504 370.85 35.276 371.01 34.996L372.114 35.536C371.986 35.84 371.786 36.116 371.514 36.364C371.25 36.604 370.93 36.796 370.554 36.94C370.186 37.076 369.782 37.144 369.342 37.144ZM376.785 39.64C376.313 39.64 375.877 39.564 375.477 39.412C375.077 39.26 374.733 39.048 374.445 38.776C374.157 38.512 373.941 38.2 373.797 37.84L375.045 37.324C375.157 37.628 375.361 37.88 375.657 38.08C375.961 38.28 376.333 38.38 376.773 38.38C377.117 38.38 377.425 38.312 377.697 38.176C377.969 38.048 378.185 37.856 378.345 37.6C378.505 37.352 378.585 37.052 378.585 36.7V35.236L378.825 35.512C378.601 35.928 378.289 36.244 377.889 36.46C377.497 36.676 377.053 36.784 376.557 36.784C375.957 36.784 375.417 36.644 374.937 36.364C374.457 36.084 374.077 35.7 373.797 35.212C373.525 34.724 373.389 34.176 373.389 33.568C373.389 32.952 373.525 32.404 373.797 31.924C374.077 31.444 374.453 31.064 374.925 30.784C375.397 30.504 375.937 30.364 376.545 30.364C377.041 30.364 377.481 30.472 377.865 30.688C378.257 30.896 378.577 31.2 378.825 31.6L378.645 31.936V30.508H379.929V36.7C379.929 37.26 379.793 37.76 379.521 38.2C379.257 38.648 378.889 39 378.417 39.256C377.945 39.512 377.401 39.64 376.785 39.64ZM376.713 35.524C377.073 35.524 377.393 35.44 377.673 35.272C377.953 35.096 378.173 34.864 378.333 34.576C378.501 34.28 378.585 33.948 378.585 33.58C378.585 33.212 378.501 32.88 378.333 32.584C378.165 32.288 377.941 32.056 377.661 31.888C377.381 31.712 377.065 31.624 376.713 31.624C376.345 31.624 376.017 31.712 375.729 31.888C375.441 32.056 375.213 32.288 375.045 32.584C374.885 32.872 374.805 33.204 374.805 33.58C374.805 33.94 374.885 34.268 375.045 34.564C375.213 34.86 375.441 35.096 375.729 35.272C376.017 35.44 376.345 35.524 376.713 35.524ZM381.517 37V30.508H382.813V31.816L382.693 31.624C382.837 31.2 383.069 30.896 383.389 30.712C383.709 30.52 384.093 30.424 384.541 30.424H384.937V31.66H384.373C383.925 31.66 383.561 31.8 383.281 32.08C383.009 32.352 382.873 32.744 382.873 33.256V37H381.517ZM387.808 37.144C387.368 37.144 386.98 37.068 386.644 36.916C386.316 36.756 386.06 36.54 385.876 36.268C385.692 35.988 385.6 35.66 385.6 35.284C385.6 34.932 385.676 34.616 385.828 34.336C385.988 34.056 386.232 33.82 386.56 33.628C386.888 33.436 387.3 33.3 387.796 33.22L390.052 32.848V33.916L388.06 34.264C387.7 34.328 387.436 34.444 387.268 34.612C387.1 34.772 387.016 34.98 387.016 35.236C387.016 35.484 387.108 35.688 387.292 35.848C387.484 36 387.728 36.076 388.024 36.076C388.392 36.076 388.712 35.996 388.984 35.836C389.264 35.676 389.48 35.464 389.632 35.2C389.784 34.928 389.86 34.628 389.86 34.3V32.632C389.86 32.312 389.74 32.052 389.5 31.852C389.268 31.644 388.956 31.54 388.564 31.54C388.204 31.54 387.888 31.636 387.616 31.828C387.352 32.012 387.156 32.252 387.028 32.548L385.9 31.984C386.02 31.664 386.216 31.384 386.488 31.144C386.76 30.896 387.076 30.704 387.436 30.568C387.804 30.432 388.192 30.364 388.6 30.364C389.112 30.364 389.564 30.46 389.956 30.652C390.356 30.844 390.664 31.112 390.88 31.456C391.104 31.792 391.216 32.184 391.216 32.632V37H389.92V35.824L390.196 35.86C390.044 36.124 389.848 36.352 389.608 36.544C389.376 36.736 389.108 36.884 388.804 36.988C388.508 37.092 388.176 37.144 387.808 37.144ZM395.202 37.144C394.538 37.144 393.954 36.98 393.45 36.652C392.954 36.324 392.606 35.884 392.406 35.332L393.45 34.84C393.626 35.208 393.866 35.5 394.17 35.716C394.482 35.932 394.826 36.04 395.202 36.04C395.522 36.04 395.782 35.968 395.982 35.824C396.182 35.68 396.282 35.484 396.282 35.236C396.282 35.076 396.238 34.948 396.15 34.852C396.062 34.748 395.95 34.664 395.814 34.6C395.686 34.536 395.554 34.488 395.418 34.456L394.398 34.168C393.838 34.008 393.418 33.768 393.138 33.448C392.866 33.12 392.73 32.74 392.73 32.308C392.73 31.916 392.83 31.576 393.03 31.288C393.23 30.992 393.506 30.764 393.858 30.604C394.21 30.444 394.606 30.364 395.046 30.364C395.638 30.364 396.166 30.512 396.63 30.808C397.094 31.096 397.422 31.5 397.614 32.02L396.57 32.512C396.442 32.2 396.238 31.952 395.958 31.768C395.686 31.584 395.378 31.492 395.034 31.492C394.738 31.492 394.502 31.564 394.326 31.708C394.15 31.844 394.062 32.024 394.062 32.248C394.062 32.4 394.102 32.528 394.182 32.632C394.262 32.728 394.366 32.808 394.494 32.872C394.622 32.928 394.754 32.976 394.89 33.016L395.946 33.328C396.482 33.48 396.894 33.72 397.182 34.048C397.47 34.368 397.614 34.752 397.614 35.2C397.614 35.584 397.51 35.924 397.302 36.22C397.102 36.508 396.822 36.736 396.462 36.904C396.102 37.064 395.682 37.144 395.202 37.144ZM404.04 37.144C403.416 37.144 402.856 36.996 402.36 36.7C401.872 36.396 401.484 35.988 401.196 35.476C400.916 34.964 400.776 34.388 400.776 33.748C400.776 33.108 400.92 32.532 401.208 32.02C401.496 31.508 401.884 31.104 402.372 30.808C402.86 30.512 403.412 30.364 404.028 30.364C404.548 30.364 405.008 30.468 405.408 30.676C405.808 30.884 406.124 31.172 406.356 31.54L406.152 31.852V27.916H407.496V37H406.212V35.68L406.368 35.932C406.144 36.324 405.824 36.624 405.408 36.832C404.992 37.04 404.536 37.144 404.04 37.144ZM404.172 35.884C404.548 35.884 404.884 35.792 405.18 35.608C405.484 35.424 405.72 35.172 405.888 34.852C406.064 34.524 406.152 34.156 406.152 33.748C406.152 33.34 406.064 32.976 405.888 32.656C405.72 32.336 405.484 32.084 405.18 31.9C404.884 31.716 404.548 31.624 404.172 31.624C403.796 31.624 403.456 31.716 403.152 31.9C402.848 32.084 402.612 32.336 402.444 32.656C402.276 32.976 402.192 33.34 402.192 33.748C402.192 34.156 402.276 34.524 402.444 34.852C402.612 35.172 402.844 35.424 403.14 35.608C403.444 35.792 403.788 35.884 404.172 35.884ZM412.127 37.144C411.479 37.144 410.903 36.996 410.399 36.7C409.903 36.396 409.515 35.988 409.235 35.476C408.955 34.956 408.815 34.376 408.815 33.736C408.815 33.08 408.955 32.5 409.235 31.996C409.523 31.492 409.907 31.096 410.387 30.808C410.867 30.512 411.411 30.364 412.019 30.364C412.507 30.364 412.943 30.448 413.327 30.616C413.711 30.784 414.035 31.016 414.299 31.312C414.563 31.6 414.763 31.932 414.899 32.308C415.043 32.684 415.115 33.084 415.115 33.508C415.115 33.612 415.111 33.72 415.103 33.832C415.095 33.944 415.079 34.048 415.055 34.144H409.883V33.064H414.287L413.639 33.556C413.719 33.164 413.691 32.816 413.555 32.512C413.427 32.2 413.227 31.956 412.955 31.78C412.691 31.596 412.379 31.504 412.019 31.504C411.659 31.504 411.339 31.596 411.059 31.78C410.779 31.956 410.563 32.212 410.411 32.548C410.259 32.876 410.199 33.276 410.231 33.748C410.191 34.188 410.251 34.572 410.411 34.9C410.579 35.228 410.811 35.484 411.107 35.668C411.411 35.852 411.755 35.944 412.139 35.944C412.531 35.944 412.863 35.856 413.135 35.68C413.415 35.504 413.635 35.276 413.795 34.996L414.899 35.536C414.771 35.84 414.571 36.116 414.299 36.364C414.035 36.604 413.715 36.796 413.339 36.94C412.971 37.076 412.567 37.144 412.127 37.144ZM421.584 37.144C420.936 37.144 420.36 36.996 419.856 36.7C419.36 36.396 418.972 35.988 418.692 35.476C418.412 34.956 418.272 34.376 418.272 33.736C418.272 33.08 418.412 32.5 418.692 31.996C418.98 31.492 419.364 31.096 419.844 30.808C420.324 30.512 420.868 30.364 421.476 30.364C421.964 30.364 422.4 30.448 422.784 30.616C423.168 30.784 423.492 31.016 423.756 31.312C424.02 31.6 424.22 31.932 424.356 32.308C424.5 32.684 424.572 33.084 424.572 33.508C424.572 33.612 424.568 33.72 424.56 33.832C424.552 33.944 424.536 34.048 424.512 34.144H419.34V33.064H423.744L423.096 33.556C423.176 33.164 423.148 32.816 423.012 32.512C422.884 32.2 422.684 31.956 422.412 31.78C422.148 31.596 421.836 31.504 421.476 31.504C421.116 31.504 420.796 31.596 420.516 31.78C420.236 31.956 420.02 32.212 419.868 32.548C419.716 32.876 419.656 33.276 419.688 33.748C419.648 34.188 419.708 34.572 419.868 34.9C420.036 35.228 420.268 35.484 420.564 35.668C420.868 35.852 421.212 35.944 421.596 35.944C421.988 35.944 422.32 35.856 422.592 35.68C422.872 35.504 423.092 35.276 423.252 34.996L424.356 35.536C424.228 35.84 424.028 36.116 423.756 36.364C423.492 36.604 423.172 36.796 422.796 36.94C422.428 37.076 422.024 37.144 421.584 37.144ZM428.296 37.144C427.632 37.144 427.048 36.98 426.544 36.652C426.048 36.324 425.7 35.884 425.5 35.332L426.544 34.84C426.72 35.208 426.96 35.5 427.264 35.716C427.576 35.932 427.92 36.04 428.296 36.04C428.616 36.04 428.876 35.968 429.076 35.824C429.276 35.68 429.376 35.484 429.376 35.236C429.376 35.076 429.332 34.948 429.244 34.852C429.156 34.748 429.044 34.664 428.908 34.6C428.78 34.536 428.648 34.488 428.512 34.456L427.492 34.168C426.932 34.008 426.512 33.768 426.232 33.448C425.96 33.12 425.824 32.74 425.824 32.308C425.824 31.916 425.924 31.576 426.124 31.288C426.324 30.992 426.6 30.764 426.952 30.604C427.304 30.444 427.7 30.364 428.14 30.364C428.732 30.364 429.26 30.512 429.724 30.808C430.188 31.096 430.516 31.5 430.708 32.02L429.664 32.512C429.536 32.2 429.332 31.952 429.052 31.768C428.78 31.584 428.472 31.492 428.128 31.492C427.832 31.492 427.596 31.564 427.42 31.708C427.244 31.844 427.156 32.024 427.156 32.248C427.156 32.4 427.196 32.528 427.276 32.632C427.356 32.728 427.46 32.808 427.588 32.872C427.716 32.928 427.848 32.976 427.984 33.016L429.04 33.328C429.576 33.48 429.988 33.72 430.276 34.048C430.564 34.368 430.708 34.752 430.708 35.2C430.708 35.584 430.604 35.924 430.396 36.22C430.196 36.508 429.916 36.736 429.556 36.904C429.196 37.064 428.776 37.144 428.296 37.144ZM434.844 37.072C434.164 37.072 433.636 36.88 433.26 36.496C432.884 36.112 432.696 35.572 432.696 34.876V31.732H431.556V30.508H431.736C432.04 30.508 432.276 30.42 432.444 30.244C432.612 30.068 432.696 29.828 432.696 29.524V29.02H434.052V30.508H435.528V31.732H434.052V34.816C434.052 35.04 434.088 35.232 434.16 35.392C434.232 35.544 434.348 35.664 434.508 35.752C434.668 35.832 434.876 35.872 435.132 35.872C435.196 35.872 435.268 35.868 435.348 35.86C435.428 35.852 435.504 35.844 435.576 35.836V37C435.464 37.016 435.34 37.032 435.204 37.048C435.068 37.064 434.948 37.072 434.844 37.072ZM436.899 37V30.508H438.255V37H436.899ZM436.899 29.62V28.06H438.255V29.62H436.899ZM439.841 37V27.916H441.197V37H439.841ZM445.914 37.144C445.29 37.144 444.718 36.996 444.198 36.7C443.686 36.404 443.278 36 442.974 35.488C442.67 34.976 442.518 34.396 442.518 33.748C442.518 33.092 442.67 32.512 442.974 32.008C443.278 31.496 443.686 31.096 444.198 30.808C444.71 30.512 445.282 30.364 445.914 30.364C446.554 30.364 447.126 30.512 447.63 30.808C448.142 31.096 448.546 31.496 448.842 32.008C449.146 32.512 449.298 33.092 449.298 33.748C449.298 34.404 449.146 34.988 448.842 35.5C448.538 36.012 448.13 36.416 447.618 36.712C447.106 37 446.538 37.144 445.914 37.144ZM445.914 35.884C446.298 35.884 446.638 35.792 446.934 35.608C447.23 35.424 447.462 35.172 447.63 34.852C447.806 34.524 447.894 34.156 447.894 33.748C447.894 33.34 447.806 32.976 447.63 32.656C447.462 32.336 447.23 32.084 446.934 31.9C446.638 31.716 446.298 31.624 445.914 31.624C445.538 31.624 445.198 31.716 444.894 31.9C444.598 32.084 444.362 32.336 444.186 32.656C444.018 32.976 443.934 33.34 443.934 33.748C443.934 34.156 444.018 34.524 444.186 34.852C444.362 35.172 444.598 35.424 444.894 35.608C445.198 35.792 445.538 35.884 445.914 35.884Z" fill="black"/>
<rect x="188.5" y="56.5" width="223" height="223" rx="4.5" fill="white"/>
<rect x="188.5" y="56.5" width="223" height="223" rx="4.5" stroke="#9747FF" stroke-dasharray="10 5"/>
<g clip-path="url(#clip0_0_161)">
<circle cx="228" cy="96" r="16" fill="#E5E6E5"/>
<rect x="212" y="80" width="32" height="32" fill="url(#paint0_linear_0_161)"/>
</g>
<g clip-path="url(#clip1_0_161)">
<path d="M292 88C292 83.5817 295.582 80 300 80H380C384.418 80 388 83.5817 388 88C388 92.4183 384.418 96 380 96H300C295.582 96 292 92.4183 292 88Z" fill="#E5E6E5"/>
<rect opacity="0.5" x="292" y="80" width="96" height="16" fill="url(#paint1_linear_0_161)"/>
</g>
<g clip-path="url(#clip2_0_161)">
<circle cx="232" cy="156" r="20" fill="#E5E6E5"/>
<rect x="212" y="136" width="40" height="40" fill="url(#paint2_linear_0_161)"/>
</g>
<g clip-path="url(#clip3_0_161)">
<path d="M292 144C292 139.582 295.582 136 300 136H380C384.418 136 388 139.582 388 144V152C388 156.418 384.418 160 380 160H300C295.582 160 292 156.418 292 152V144Z" fill="#E5E6E5"/>
<rect opacity="0.5" x="292" y="136" width="96" height="24" fill="url(#paint3_linear_0_161)"/>
</g>
<g clip-path="url(#clip4_0_161)">
<circle cx="240" cy="228" r="28" fill="#E5E6E5"/>
<rect x="212" y="200" width="56" height="56" fill="url(#paint4_linear_0_161)"/>
</g>
<g clip-path="url(#clip5_0_161)">
<path d="M292 208C292 203.582 295.582 200 300 200H380C384.418 200 388 203.582 388 208V248C388 252.418 384.418 256 380 256H300C295.582 256 292 252.418 292 248V208Z" fill="#E5E6E5"/>
<rect opacity="0.5" x="292" y="200" width="96" height="56" fill="url(#paint5_linear_0_161)"/>
</g>
<defs>
<linearGradient id="paint0_linear_0_161" x1="244" y1="96" x2="212" y2="96" gradientUnits="userSpaceOnUse">
<stop stop-color="white" stop-opacity="0"/>
<stop offset="0.5" stop-color="white"/>
<stop offset="1" stop-color="white" stop-opacity="0"/>
</linearGradient>
<linearGradient id="paint1_linear_0_161" x1="388" y1="88" x2="292" y2="88" gradientUnits="userSpaceOnUse">
<stop stop-color="white" stop-opacity="0"/>
<stop offset="0.5" stop-color="white"/>
<stop offset="1" stop-color="white" stop-opacity="0"/>
</linearGradient>
<linearGradient id="paint2_linear_0_161" x1="252" y1="156" x2="212" y2="156" gradientUnits="userSpaceOnUse">
<stop stop-color="white" stop-opacity="0"/>
<stop offset="0.5" stop-color="white"/>
<stop offset="1" stop-color="white" stop-opacity="0"/>
</linearGradient>
<linearGradient id="paint3_linear_0_161" x1="388" y1="148" x2="292" y2="148" gradientUnits="userSpaceOnUse">
<stop stop-color="white" stop-opacity="0"/>
<stop offset="0.5" stop-color="white"/>
<stop offset="1" stop-color="white" stop-opacity="0"/>
</linearGradient>
<linearGradient id="paint4_linear_0_161" x1="268" y1="228" x2="212" y2="228" gradientUnits="userSpaceOnUse">
<stop stop-color="white" stop-opacity="0"/>
<stop offset="0.5" stop-color="white"/>
<stop offset="1" stop-color="white" stop-opacity="0"/>
</linearGradient>
<linearGradient id="paint5_linear_0_161" x1="388" y1="228" x2="292" y2="228" gradientUnits="userSpaceOnUse">
<stop stop-color="white" stop-opacity="0"/>
<stop offset="0.5" stop-color="white"/>
<stop offset="1" stop-color="white" stop-opacity="0"/>
</linearGradient>
<clipPath id="clip0_0_161">
<path d="M212 96C212 87.1634 219.163 80 228 80C236.837 80 244 87.1634 244 96C244 104.837 236.837 112 228 112C219.163 112 212 104.837 212 96Z" fill="white"/>
</clipPath>
<clipPath id="clip1_0_161">
<rect width="96" height="16" fill="white" transform="translate(292 80)"/>
</clipPath>
<clipPath id="clip2_0_161">
<path d="M212 156C212 144.954 220.954 136 232 136C243.046 136 252 144.954 252 156C252 167.046 243.046 176 232 176C220.954 176 212 167.046 212 156Z" fill="white"/>
</clipPath>
<clipPath id="clip3_0_161">
<rect width="96" height="24" fill="white" transform="translate(292 136)"/>
</clipPath>
<clipPath id="clip4_0_161">
<path d="M212 228C212 212.536 224.536 200 240 200C255.464 200 268 212.536 268 228C268 243.464 255.464 256 240 256C224.536 256 212 243.464 212 228Z" fill="white"/>
</clipPath>
<clipPath id="clip5_0_161">
<rect width="96" height="56" fill="white" transform="translate(292 200)"/>
</clipPath>
</defs>
</svg>
