<svg width="600" height="304" viewBox="0 0 600 304" fill="none" xmlns="http://www.w3.org/2000/svg">
<rect x="0.5" y="0.5" width="599" height="303" rx="15.5" fill="white"/>
<rect x="0.5" y="0.5" width="599" height="303" rx="15.5" stroke="#E6E7E5"/>
<path d="M212.187 37L209.019 28.06H210.543L213.135 35.692H212.835L215.415 28.06H216.939L213.771 37H212.187ZM220.309 37.144C219.661 37.144 219.085 36.996 218.581 36.7C218.085 36.396 217.697 35.988 217.417 35.476C217.137 34.956 216.997 34.376 216.997 33.736C216.997 33.08 217.137 32.5 217.417 31.996C217.705 31.492 218.089 31.096 218.569 30.808C219.049 30.512 219.593 30.364 220.201 30.364C220.689 30.364 221.125 30.448 221.509 30.616C221.893 30.784 222.217 31.016 222.481 31.312C222.745 31.6 222.945 31.932 223.081 32.308C223.225 32.684 223.297 33.084 223.297 33.508C223.297 33.612 223.293 33.72 223.285 33.832C223.277 33.944 223.261 34.048 223.237 34.144H218.065V33.064H222.469L221.821 33.556C221.901 33.164 221.873 32.816 221.737 32.512C221.609 32.2 221.409 31.956 221.137 31.78C220.873 31.596 220.561 31.504 220.201 31.504C219.841 31.504 219.521 31.596 219.241 31.78C218.961 31.956 218.745 32.212 218.593 32.548C218.441 32.876 218.381 33.276 218.413 33.748C218.373 34.188 218.433 34.572 218.593 34.9C218.761 35.228 218.993 35.484 219.289 35.668C219.593 35.852 219.937 35.944 220.321 35.944C220.713 35.944 221.045 35.856 221.317 35.68C221.597 35.504 221.817 35.276 221.977 34.996L223.081 35.536C222.953 35.84 222.753 36.116 222.481 36.364C222.217 36.604 221.897 36.796 221.521 36.94C221.153 37.076 220.749 37.144 220.309 37.144ZM224.62 37V30.508H225.916V31.816L225.796 31.624C225.94 31.2 226.172 30.896 226.492 30.712C226.812 30.52 227.196 30.424 227.644 30.424H228.04V31.66H227.476C227.028 31.66 226.664 31.8 226.384 32.08C226.112 32.352 225.976 32.744 225.976 33.256V37H224.62ZM231.368 37.144C230.704 37.144 230.12 36.98 229.616 36.652C229.12 36.324 228.772 35.884 228.572 35.332L229.616 34.84C229.792 35.208 230.032 35.5 230.336 35.716C230.648 35.932 230.992 36.04 231.368 36.04C231.688 36.04 231.948 35.968 232.148 35.824C232.348 35.68 232.448 35.484 232.448 35.236C232.448 35.076 232.404 34.948 232.316 34.852C232.228 34.748 232.116 34.664 231.98 34.6C231.852 34.536 231.72 34.488 231.584 34.456L230.564 34.168C230.004 34.008 229.584 33.768 229.304 33.448C229.032 33.12 228.896 32.74 228.896 32.308C228.896 31.916 228.996 31.576 229.196 31.288C229.396 30.992 229.672 30.764 230.024 30.604C230.376 30.444 230.772 30.364 231.212 30.364C231.804 30.364 232.332 30.512 232.796 30.808C233.26 31.096 233.588 31.5 233.78 32.02L232.736 32.512C232.608 32.2 232.404 31.952 232.124 31.768C231.852 31.584 231.544 31.492 231.2 31.492C230.904 31.492 230.668 31.564 230.492 31.708C230.316 31.844 230.228 32.024 230.228 32.248C230.228 32.4 230.268 32.528 230.348 32.632C230.428 32.728 230.532 32.808 230.66 32.872C230.788 32.928 230.92 32.976 231.056 33.016L232.112 33.328C232.648 33.48 233.06 33.72 233.348 34.048C233.636 34.368 233.78 34.752 233.78 35.2C233.78 35.584 233.676 35.924 233.468 36.22C233.268 36.508 232.988 36.736 232.628 36.904C232.268 37.064 231.848 37.144 231.368 37.144ZM237.052 37.144C236.612 37.144 236.224 37.068 235.888 36.916C235.56 36.756 235.304 36.54 235.12 36.268C234.936 35.988 234.844 35.66 234.844 35.284C234.844 34.932 234.92 34.616 235.072 34.336C235.232 34.056 235.476 33.82 235.804 33.628C236.132 33.436 236.544 33.3 237.04 33.22L239.296 32.848V33.916L237.304 34.264C236.944 34.328 236.68 34.444 236.512 34.612C236.344 34.772 236.26 34.98 236.26 35.236C236.26 35.484 236.352 35.688 236.536 35.848C236.728 36 236.972 36.076 237.268 36.076C237.636 36.076 237.956 35.996 238.228 35.836C238.508 35.676 238.724 35.464 238.876 35.2C239.028 34.928 239.104 34.628 239.104 34.3V32.632C239.104 32.312 238.984 32.052 238.744 31.852C238.512 31.644 238.2 31.54 237.808 31.54C237.448 31.54 237.132 31.636 236.86 31.828C236.596 32.012 236.4 32.252 236.272 32.548L235.144 31.984C235.264 31.664 235.46 31.384 235.732 31.144C236.004 30.896 236.32 30.704 236.68 30.568C237.048 30.432 237.436 30.364 237.844 30.364C238.356 30.364 238.808 30.46 239.2 30.652C239.6 30.844 239.908 31.112 240.124 31.456C240.348 31.792 240.46 32.184 240.46 32.632V37H239.164V35.824L239.44 35.86C239.288 36.124 239.092 36.352 238.852 36.544C238.62 36.736 238.352 36.884 238.048 36.988C237.752 37.092 237.42 37.144 237.052 37.144ZM238.672 29.32C238.456 29.32 238.276 29.284 238.132 29.212C237.996 29.14 237.876 29.06 237.772 28.972C237.676 28.884 237.576 28.804 237.472 28.732C237.376 28.66 237.26 28.624 237.124 28.624C236.988 28.624 236.884 28.676 236.812 28.78C236.74 28.884 236.704 29.048 236.704 29.272H235.636C235.636 28.68 235.768 28.244 236.032 27.964C236.296 27.676 236.624 27.532 237.016 27.532C237.24 27.532 237.42 27.568 237.556 27.64C237.7 27.704 237.824 27.784 237.928 27.88C238.032 27.968 238.132 28.048 238.228 28.12C238.332 28.184 238.448 28.216 238.576 28.216C238.728 28.216 238.836 28.16 238.9 28.048C238.972 27.936 239.008 27.78 239.008 27.58H240.064C240.064 28.14 239.928 28.572 239.656 28.876C239.392 29.172 239.064 29.32 238.672 29.32ZM245.178 37.144C244.554 37.144 243.982 36.996 243.462 36.7C242.95 36.404 242.542 36 242.238 35.488C241.934 34.976 241.782 34.396 241.782 33.748C241.782 33.092 241.934 32.512 242.238 32.008C242.542 31.496 242.95 31.096 243.462 30.808C243.974 30.512 244.546 30.364 245.178 30.364C245.818 30.364 246.39 30.512 246.894 30.808C247.406 31.096 247.81 31.496 248.106 32.008C248.41 32.512 248.562 33.092 248.562 33.748C248.562 34.404 248.41 34.988 248.106 35.5C247.802 36.012 247.394 36.416 246.882 36.712C246.37 37 245.802 37.144 245.178 37.144ZM245.178 35.884C245.562 35.884 245.902 35.792 246.198 35.608C246.494 35.424 246.726 35.172 246.894 34.852C247.07 34.524 247.158 34.156 247.158 33.748C247.158 33.34 247.07 32.976 246.894 32.656C246.726 32.336 246.494 32.084 246.198 31.9C245.902 31.716 245.562 31.624 245.178 31.624C244.802 31.624 244.462 31.716 244.158 31.9C243.862 32.084 243.626 32.336 243.45 32.656C243.282 32.976 243.198 33.34 243.198 33.748C243.198 34.156 243.282 34.524 243.45 34.852C243.626 35.172 243.862 35.424 244.158 35.608C244.462 35.792 244.802 35.884 245.178 35.884ZM251.983 39.4V30.508H253.279V31.852L253.123 31.54C253.363 31.172 253.683 30.884 254.083 30.676C254.483 30.468 254.939 30.364 255.451 30.364C256.067 30.364 256.619 30.512 257.107 30.808C257.603 31.104 257.991 31.508 258.271 32.02C258.559 32.532 258.703 33.108 258.703 33.748C258.703 34.388 258.559 34.964 258.271 35.476C257.991 35.988 257.607 36.396 257.119 36.7C256.631 36.996 256.075 37.144 255.451 37.144C254.947 37.144 254.487 37.04 254.071 36.832C253.663 36.624 253.347 36.324 253.123 35.932L253.339 35.68V39.4H251.983ZM255.319 35.884C255.703 35.884 256.043 35.792 256.339 35.608C256.635 35.424 256.867 35.172 257.035 34.852C257.211 34.524 257.299 34.156 257.299 33.748C257.299 33.34 257.211 32.976 257.035 32.656C256.867 32.336 256.635 32.084 256.339 31.9C256.043 31.716 255.703 31.624 255.319 31.624C254.943 31.624 254.603 31.716 254.299 31.9C254.003 32.084 253.767 32.336 253.591 32.656C253.423 32.976 253.339 33.34 253.339 33.748C253.339 34.156 253.423 34.524 253.591 34.852C253.767 35.172 254.003 35.424 254.299 35.608C254.603 35.792 254.943 35.884 255.319 35.884ZM260.022 37V30.508H261.318V31.816L261.198 31.624C261.342 31.2 261.574 30.896 261.894 30.712C262.214 30.52 262.598 30.424 263.046 30.424H263.442V31.66H262.878C262.43 31.66 262.066 31.8 261.786 32.08C261.514 32.352 261.378 32.744 261.378 33.256V37H260.022ZM267.502 37.144C266.878 37.144 266.306 36.996 265.786 36.7C265.274 36.404 264.866 36 264.562 35.488C264.258 34.976 264.106 34.396 264.106 33.748C264.106 33.092 264.258 32.512 264.562 32.008C264.866 31.496 265.274 31.096 265.786 30.808C266.298 30.512 266.87 30.364 267.502 30.364C268.142 30.364 268.714 30.512 269.218 30.808C269.73 31.096 270.134 31.496 270.43 32.008C270.734 32.512 270.886 33.092 270.886 33.748C270.886 34.404 270.734 34.988 270.43 35.5C270.126 36.012 269.718 36.416 269.206 36.712C268.694 37 268.126 37.144 267.502 37.144ZM267.502 35.884C267.886 35.884 268.226 35.792 268.522 35.608C268.818 35.424 269.05 35.172 269.218 34.852C269.394 34.524 269.482 34.156 269.482 33.748C269.482 33.34 269.394 32.976 269.218 32.656C269.05 32.336 268.818 32.084 268.522 31.9C268.226 31.716 267.886 31.624 267.502 31.624C267.126 31.624 266.786 31.716 266.482 31.9C266.186 32.084 265.95 32.336 265.774 32.656C265.606 32.976 265.522 33.34 265.522 33.748C265.522 34.156 265.606 34.524 265.774 34.852C265.95 35.172 266.186 35.424 266.482 35.608C266.786 35.792 267.126 35.884 267.502 35.884ZM272.21 39.4V30.508H273.506V31.852L273.35 31.54C273.59 31.172 273.91 30.884 274.31 30.676C274.71 30.468 275.166 30.364 275.678 30.364C276.294 30.364 276.846 30.512 277.334 30.808C277.83 31.104 278.218 31.508 278.498 32.02C278.786 32.532 278.93 33.108 278.93 33.748C278.93 34.388 278.786 34.964 278.498 35.476C278.218 35.988 277.834 36.396 277.346 36.7C276.858 36.996 276.302 37.144 275.678 37.144C275.174 37.144 274.714 37.04 274.298 36.832C273.89 36.624 273.574 36.324 273.35 35.932L273.566 35.68V39.4H272.21ZM275.546 35.884C275.93 35.884 276.27 35.792 276.566 35.608C276.862 35.424 277.094 35.172 277.262 34.852C277.438 34.524 277.526 34.156 277.526 33.748C277.526 33.34 277.438 32.976 277.262 32.656C277.094 32.336 276.862 32.084 276.566 31.9C276.27 31.716 275.93 31.624 275.546 31.624C275.17 31.624 274.83 31.716 274.526 31.9C274.23 32.084 273.994 32.336 273.818 32.656C273.65 32.976 273.566 33.34 273.566 33.748C273.566 34.156 273.65 34.524 273.818 34.852C273.994 35.172 274.23 35.424 274.526 35.608C274.83 35.792 275.17 35.884 275.546 35.884ZM283.381 37.144C282.757 37.144 282.185 36.996 281.665 36.7C281.153 36.404 280.745 36 280.441 35.488C280.137 34.976 279.985 34.396 279.985 33.748C279.985 33.092 280.137 32.512 280.441 32.008C280.745 31.496 281.153 31.096 281.665 30.808C282.177 30.512 282.749 30.364 283.381 30.364C284.021 30.364 284.593 30.512 285.097 30.808C285.609 31.096 286.013 31.496 286.309 32.008C286.613 32.512 286.765 33.092 286.765 33.748C286.765 34.404 286.613 34.988 286.309 35.5C286.005 36.012 285.597 36.416 285.085 36.712C284.573 37 284.005 37.144 283.381 37.144ZM283.381 35.884C283.765 35.884 284.105 35.792 284.401 35.608C284.697 35.424 284.929 35.172 285.097 34.852C285.273 34.524 285.361 34.156 285.361 33.748C285.361 33.34 285.273 32.976 285.097 32.656C284.929 32.336 284.697 32.084 284.401 31.9C284.105 31.716 283.765 31.624 283.381 31.624C283.005 31.624 282.665 31.716 282.361 31.9C282.065 32.084 281.829 32.336 281.653 32.656C281.485 32.976 281.401 33.34 281.401 33.748C281.401 34.156 281.485 34.524 281.653 34.852C281.829 35.172 282.065 35.424 282.361 35.608C282.665 35.792 283.005 35.884 283.381 35.884ZM290.489 37.144C289.825 37.144 289.241 36.98 288.737 36.652C288.241 36.324 287.893 35.884 287.693 35.332L288.737 34.84C288.913 35.208 289.153 35.5 289.457 35.716C289.769 35.932 290.113 36.04 290.489 36.04C290.809 36.04 291.069 35.968 291.269 35.824C291.469 35.68 291.569 35.484 291.569 35.236C291.569 35.076 291.525 34.948 291.437 34.852C291.349 34.748 291.237 34.664 291.101 34.6C290.973 34.536 290.841 34.488 290.705 34.456L289.685 34.168C289.125 34.008 288.705 33.768 288.425 33.448C288.153 33.12 288.017 32.74 288.017 32.308C288.017 31.916 288.117 31.576 288.317 31.288C288.517 30.992 288.793 30.764 289.145 30.604C289.497 30.444 289.893 30.364 290.333 30.364C290.925 30.364 291.453 30.512 291.917 30.808C292.381 31.096 292.709 31.5 292.901 32.02L291.857 32.512C291.729 32.2 291.525 31.952 291.245 31.768C290.973 31.584 290.665 31.492 290.321 31.492C290.025 31.492 289.789 31.564 289.613 31.708C289.437 31.844 289.349 32.024 289.349 32.248C289.349 32.4 289.389 32.528 289.469 32.632C289.549 32.728 289.653 32.808 289.781 32.872C289.909 32.928 290.041 32.976 290.177 33.016L291.233 33.328C291.769 33.48 292.181 33.72 292.469 34.048C292.757 34.368 292.901 34.752 292.901 35.2C292.901 35.584 292.797 35.924 292.589 36.22C292.389 36.508 292.109 36.736 291.749 36.904C291.389 37.064 290.969 37.144 290.489 37.144ZM297.038 37.072C296.358 37.072 295.83 36.88 295.454 36.496C295.078 36.112 294.89 35.572 294.89 34.876V31.732H293.75V30.508H293.93C294.234 30.508 294.47 30.42 294.638 30.244C294.806 30.068 294.89 29.828 294.89 29.524V29.02H296.246V30.508H297.722V31.732H296.246V34.816C296.246 35.04 296.282 35.232 296.354 35.392C296.426 35.544 296.542 35.664 296.702 35.752C296.862 35.832 297.07 35.872 297.326 35.872C297.39 35.872 297.462 35.868 297.542 35.86C297.622 35.852 297.698 35.844 297.77 35.836V37C297.658 37.016 297.534 37.032 297.398 37.048C297.262 37.064 297.142 37.072 297.038 37.072ZM300.978 37.144C300.538 37.144 300.15 37.068 299.814 36.916C299.486 36.756 299.23 36.54 299.046 36.268C298.862 35.988 298.77 35.66 298.77 35.284C298.77 34.932 298.846 34.616 298.998 34.336C299.158 34.056 299.402 33.82 299.73 33.628C300.058 33.436 300.47 33.3 300.966 33.22L303.222 32.848V33.916L301.23 34.264C300.87 34.328 300.606 34.444 300.438 34.612C300.27 34.772 300.186 34.98 300.186 35.236C300.186 35.484 300.278 35.688 300.462 35.848C300.654 36 300.898 36.076 301.194 36.076C301.562 36.076 301.882 35.996 302.154 35.836C302.434 35.676 302.65 35.464 302.802 35.2C302.954 34.928 303.03 34.628 303.03 34.3V32.632C303.03 32.312 302.91 32.052 302.67 31.852C302.438 31.644 302.126 31.54 301.734 31.54C301.374 31.54 301.058 31.636 300.786 31.828C300.522 32.012 300.326 32.252 300.198 32.548L299.07 31.984C299.19 31.664 299.386 31.384 299.658 31.144C299.93 30.896 300.246 30.704 300.606 30.568C300.974 30.432 301.362 30.364 301.77 30.364C302.282 30.364 302.734 30.46 303.126 30.652C303.526 30.844 303.834 31.112 304.05 31.456C304.274 31.792 304.386 32.184 304.386 32.632V37H303.09V35.824L303.366 35.86C303.214 36.124 303.018 36.352 302.778 36.544C302.546 36.736 302.278 36.884 301.974 36.988C301.678 37.092 301.346 37.144 300.978 37.144ZM311.069 37.144C310.445 37.144 309.885 36.996 309.389 36.7C308.901 36.396 308.513 35.988 308.225 35.476C307.945 34.964 307.805 34.388 307.805 33.748C307.805 33.108 307.949 32.532 308.237 32.02C308.525 31.508 308.913 31.104 309.401 30.808C309.889 30.512 310.441 30.364 311.057 30.364C311.577 30.364 312.037 30.468 312.437 30.676C312.837 30.884 313.153 31.172 313.385 31.54L313.181 31.852V27.916H314.525V37H313.241V35.68L313.397 35.932C313.173 36.324 312.853 36.624 312.437 36.832C312.021 37.04 311.565 37.144 311.069 37.144ZM311.201 35.884C311.577 35.884 311.913 35.792 312.209 35.608C312.513 35.424 312.749 35.172 312.917 34.852C313.093 34.524 313.181 34.156 313.181 33.748C313.181 33.34 313.093 32.976 312.917 32.656C312.749 32.336 312.513 32.084 312.209 31.9C311.913 31.716 311.577 31.624 311.201 31.624C310.825 31.624 310.485 31.716 310.181 31.9C309.877 32.084 309.641 32.336 309.473 32.656C309.305 32.976 309.221 33.34 309.221 33.748C309.221 34.156 309.305 34.524 309.473 34.852C309.641 35.172 309.873 35.424 310.169 35.608C310.473 35.792 310.817 35.884 311.201 35.884ZM319.24 37.144C318.616 37.144 318.044 36.996 317.524 36.7C317.012 36.404 316.604 36 316.3 35.488C315.996 34.976 315.844 34.396 315.844 33.748C315.844 33.092 315.996 32.512 316.3 32.008C316.604 31.496 317.012 31.096 317.524 30.808C318.036 30.512 318.608 30.364 319.24 30.364C319.88 30.364 320.452 30.512 320.956 30.808C321.468 31.096 321.872 31.496 322.168 32.008C322.472 32.512 322.624 33.092 322.624 33.748C322.624 34.404 322.472 34.988 322.168 35.5C321.864 36.012 321.456 36.416 320.944 36.712C320.432 37 319.864 37.144 319.24 37.144ZM319.24 35.884C319.624 35.884 319.964 35.792 320.26 35.608C320.556 35.424 320.788 35.172 320.956 34.852C321.132 34.524 321.22 34.156 321.22 33.748C321.22 33.34 321.132 32.976 320.956 32.656C320.788 32.336 320.556 32.084 320.26 31.9C319.964 31.716 319.624 31.624 319.24 31.624C318.864 31.624 318.524 31.716 318.22 31.9C317.924 32.084 317.688 32.336 317.512 32.656C317.344 32.976 317.26 33.34 317.26 33.748C317.26 34.156 317.344 34.524 317.512 34.852C317.688 35.172 317.924 35.424 318.22 35.608C318.524 35.792 318.864 35.884 319.24 35.884ZM329.514 37.144C329.01 37.144 328.55 37.04 328.134 36.832C327.726 36.624 327.41 36.324 327.186 35.932L327.342 35.68V37H326.046V27.916H327.402V31.852L327.186 31.54C327.426 31.172 327.746 30.884 328.146 30.676C328.546 30.468 329.002 30.364 329.514 30.364C330.13 30.364 330.682 30.512 331.17 30.808C331.666 31.104 332.054 31.508 332.334 32.02C332.622 32.532 332.766 33.108 332.766 33.748C332.766 34.388 332.622 34.964 332.334 35.476C332.054 35.988 331.67 36.396 331.182 36.7C330.694 36.996 330.138 37.144 329.514 37.144ZM329.382 35.884C329.766 35.884 330.106 35.792 330.402 35.608C330.698 35.424 330.93 35.172 331.098 34.852C331.274 34.524 331.362 34.156 331.362 33.748C331.362 33.34 331.274 32.976 331.098 32.656C330.93 32.336 330.698 32.084 330.402 31.9C330.106 31.716 329.766 31.624 329.382 31.624C329.006 31.624 328.666 31.716 328.362 31.9C328.066 32.084 327.83 32.336 327.654 32.656C327.486 32.976 327.402 33.34 327.402 33.748C327.402 34.156 327.486 34.524 327.654 34.852C327.83 35.172 328.066 35.424 328.362 35.608C328.666 35.792 329.006 35.884 329.382 35.884ZM337.133 37.144C336.485 37.144 335.909 36.996 335.405 36.7C334.909 36.396 334.521 35.988 334.241 35.476C333.961 34.956 333.821 34.376 333.821 33.736C333.821 33.08 333.961 32.5 334.241 31.996C334.529 31.492 334.913 31.096 335.393 30.808C335.873 30.512 336.417 30.364 337.025 30.364C337.513 30.364 337.949 30.448 338.333 30.616C338.717 30.784 339.041 31.016 339.305 31.312C339.569 31.6 339.769 31.932 339.905 32.308C340.049 32.684 340.121 33.084 340.121 33.508C340.121 33.612 340.117 33.72 340.109 33.832C340.101 33.944 340.085 34.048 340.061 34.144H334.889V33.064H339.293L338.645 33.556C338.725 33.164 338.697 32.816 338.561 32.512C338.433 32.2 338.233 31.956 337.961 31.78C337.697 31.596 337.385 31.504 337.025 31.504C336.665 31.504 336.345 31.596 336.065 31.78C335.785 31.956 335.569 32.212 335.417 32.548C335.265 32.876 335.205 33.276 335.237 33.748C335.197 34.188 335.257 34.572 335.417 34.9C335.585 35.228 335.817 35.484 336.113 35.668C336.417 35.852 336.761 35.944 337.145 35.944C337.537 35.944 337.869 35.856 338.141 35.68C338.421 35.504 338.641 35.276 338.801 34.996L339.905 35.536C339.777 35.84 339.577 36.116 339.305 36.364C339.041 36.604 338.721 36.796 338.345 36.94C337.977 37.076 337.573 37.144 337.133 37.144ZM341.444 37V30.508H342.74V31.78L342.584 31.612C342.744 31.204 343 30.896 343.352 30.688C343.704 30.472 344.112 30.364 344.576 30.364C345.056 30.364 345.48 30.468 345.848 30.676C346.216 30.884 346.504 31.172 346.712 31.54C346.92 31.908 347.024 32.332 347.024 32.812V37H345.68V33.172C345.68 32.844 345.62 32.568 345.5 32.344C345.38 32.112 345.208 31.936 344.984 31.816C344.768 31.688 344.52 31.624 344.24 31.624C343.96 31.624 343.708 31.688 343.484 31.816C343.268 31.936 343.1 32.112 342.98 32.344C342.86 32.576 342.8 32.852 342.8 33.172V37H341.444ZM351.56 37.144C350.912 37.144 350.336 36.996 349.832 36.7C349.336 36.396 348.94 35.988 348.644 35.476C348.356 34.964 348.212 34.384 348.212 33.736C348.212 33.096 348.356 32.52 348.644 32.008C348.932 31.496 349.328 31.096 349.832 30.808C350.336 30.512 350.912 30.364 351.56 30.364C352 30.364 352.412 30.444 352.796 30.604C353.18 30.756 353.512 30.968 353.792 31.24C354.08 31.512 354.292 31.828 354.428 32.188L353.24 32.74C353.104 32.404 352.884 32.136 352.58 31.936C352.284 31.728 351.944 31.624 351.56 31.624C351.192 31.624 350.86 31.716 350.564 31.9C350.276 32.076 350.048 32.328 349.88 32.656C349.712 32.976 349.628 33.34 349.628 33.748C349.628 34.156 349.712 34.524 349.88 34.852C350.048 35.172 350.276 35.424 350.564 35.608C350.86 35.792 351.192 35.884 351.56 35.884C351.952 35.884 352.292 35.784 352.58 35.584C352.876 35.376 353.096 35.1 353.24 34.756L354.428 35.32C354.3 35.664 354.092 35.976 353.804 36.256C353.524 36.528 353.192 36.744 352.808 36.904C352.424 37.064 352.008 37.144 351.56 37.144ZM355.753 37V27.916H357.109V31.78L356.893 31.612C357.053 31.204 357.309 30.896 357.661 30.688C358.013 30.472 358.421 30.364 358.885 30.364C359.365 30.364 359.789 30.468 360.157 30.676C360.525 30.884 360.813 31.172 361.021 31.54C361.229 31.908 361.333 32.328 361.333 32.8V37H359.989V33.172C359.989 32.844 359.925 32.568 359.797 32.344C359.677 32.112 359.509 31.936 359.293 31.816C359.077 31.688 358.829 31.624 358.549 31.624C358.277 31.624 358.029 31.688 357.805 31.816C357.589 31.936 357.417 32.112 357.289 32.344C357.169 32.576 357.109 32.852 357.109 33.172V37H355.753ZM362.784 37V30.508H364.08V31.912L363.912 31.696C364.048 31.256 364.296 30.924 364.656 30.7C365.016 30.476 365.428 30.364 365.892 30.364C366.412 30.364 366.872 30.504 367.272 30.784C367.68 31.056 367.952 31.42 368.088 31.876L367.704 31.912C367.896 31.392 368.188 31.004 368.58 30.748C368.98 30.492 369.436 30.364 369.948 30.364C370.396 30.364 370.8 30.468 371.16 30.676C371.528 30.884 371.82 31.172 372.036 31.54C372.252 31.908 372.36 32.328 372.36 32.8V37H371.004V33.172C371.004 32.844 370.944 32.568 370.824 32.344C370.712 32.112 370.552 31.936 370.344 31.816C370.144 31.688 369.908 31.624 369.636 31.624C369.364 31.624 369.124 31.688 368.916 31.816C368.708 31.936 368.544 32.112 368.424 32.344C368.304 32.576 368.244 32.852 368.244 33.172V37H366.9V33.172C366.9 32.844 366.84 32.568 366.72 32.344C366.608 32.112 366.448 31.936 366.24 31.816C366.04 31.688 365.8 31.624 365.52 31.624C365.248 31.624 365.008 31.688 364.8 31.816C364.592 31.936 364.428 32.112 364.308 32.344C364.196 32.576 364.14 32.852 364.14 33.172V37H362.784ZM375.756 37.144C375.316 37.144 374.928 37.068 374.592 36.916C374.264 36.756 374.008 36.54 373.824 36.268C373.64 35.988 373.548 35.66 373.548 35.284C373.548 34.932 373.624 34.616 373.776 34.336C373.936 34.056 374.18 33.82 374.508 33.628C374.836 33.436 375.248 33.3 375.744 33.22L378 32.848V33.916L376.008 34.264C375.648 34.328 375.384 34.444 375.216 34.612C375.048 34.772 374.964 34.98 374.964 35.236C374.964 35.484 375.056 35.688 375.24 35.848C375.432 36 375.676 36.076 375.972 36.076C376.34 36.076 376.66 35.996 376.932 35.836C377.212 35.676 377.428 35.464 377.58 35.2C377.732 34.928 377.808 34.628 377.808 34.3V32.632C377.808 32.312 377.688 32.052 377.448 31.852C377.216 31.644 376.904 31.54 376.512 31.54C376.152 31.54 375.836 31.636 375.564 31.828C375.3 32.012 375.104 32.252 374.976 32.548L373.848 31.984C373.968 31.664 374.164 31.384 374.436 31.144C374.708 30.896 375.024 30.704 375.384 30.568C375.752 30.432 376.14 30.364 376.548 30.364C377.06 30.364 377.512 30.46 377.904 30.652C378.304 30.844 378.612 31.112 378.828 31.456C379.052 31.792 379.164 32.184 379.164 32.632V37H377.868V35.824L378.144 35.86C377.992 36.124 377.796 36.352 377.556 36.544C377.324 36.736 377.056 36.884 376.752 36.988C376.456 37.092 376.124 37.144 375.756 37.144ZM380.749 37V30.508H382.045V31.816L381.925 31.624C382.069 31.2 382.301 30.896 382.621 30.712C382.941 30.52 383.325 30.424 383.773 30.424H384.169V31.66H383.605C383.157 31.66 382.793 31.8 382.513 32.08C382.241 32.352 382.105 32.744 382.105 33.256V37H380.749ZM385.097 37V27.916H386.453V34L385.925 33.868L389.177 30.508H390.869L388.421 33.112L390.977 37H389.417L387.137 33.556L387.941 33.448L386.021 35.488L386.453 34.588V37H385.097Z" fill="black"/>
<rect x="188.5" y="56.5" width="223" height="223" rx="4.5" fill="white"/>
<rect x="188.5" y="56.5" width="223" height="223" rx="4.5" stroke="#9747FF" stroke-dasharray="10 5"/>
<g clip-path="url(#clip0_0_121)">
<rect x="212" y="200" width="96" height="56" fill="#E0E1DF"/>
</g>
<g clip-path="url(#clip1_0_121)">
<rect x="212" y="136" width="96" height="40" fill="#E0E1DF"/>
</g>
<g clip-path="url(#clip2_0_121)">
<rect x="212" y="80" width="96" height="32" fill="#E0E1DF"/>
</g>
<g clip-path="url(#clip3_0_121)">
<rect x="292" y="200" width="96" height="56" fill="#E0E1DF"/>
<rect opacity="0.5" x="196" y="200" width="128" height="56" fill="url(#paint0_linear_0_121)"/>
</g>
<g clip-path="url(#clip4_0_121)">
<rect x="292" y="136" width="96" height="24" fill="#E0E1DF"/>
<rect opacity="0.5" x="196" y="136" width="128" height="24" fill="url(#paint1_linear_0_121)"/>
</g>
<g clip-path="url(#clip5_0_121)">
<rect x="292" y="80" width="96" height="16" fill="#E0E1DF"/>
<rect opacity="0.5" x="196" y="80" width="128" height="16" fill="url(#paint2_linear_0_121)"/>
</g>
<defs>
<linearGradient id="paint0_linear_0_121" x1="324" y1="228" x2="196" y2="228" gradientUnits="userSpaceOnUse">
<stop stop-color="white" stop-opacity="0"/>
<stop offset="0.5" stop-color="white"/>
<stop offset="1" stop-color="white" stop-opacity="0"/>
</linearGradient>
<linearGradient id="paint1_linear_0_121" x1="324" y1="148" x2="196" y2="148" gradientUnits="userSpaceOnUse">
<stop stop-color="white" stop-opacity="0"/>
<stop offset="0.5" stop-color="white"/>
<stop offset="1" stop-color="white" stop-opacity="0"/>
</linearGradient>
<linearGradient id="paint2_linear_0_121" x1="324" y1="88" x2="196" y2="88" gradientUnits="userSpaceOnUse">
<stop stop-color="white" stop-opacity="0"/>
<stop offset="0.5" stop-color="white"/>
<stop offset="1" stop-color="white" stop-opacity="0"/>
</linearGradient>
<clipPath id="clip0_0_121">
<rect x="212" y="200" width="56" height="56" rx="4" fill="white"/>
</clipPath>
<clipPath id="clip1_0_121">
<rect x="212" y="136" width="40" height="40" rx="4" fill="white"/>
</clipPath>
<clipPath id="clip2_0_121">
<rect x="212" y="80" width="32" height="32" rx="4" fill="white"/>
</clipPath>
<clipPath id="clip3_0_121">
<rect width="96" height="56" fill="white" transform="translate(292 200)"/>
</clipPath>
<clipPath id="clip4_0_121">
<rect width="96" height="24" fill="white" transform="translate(292 136)"/>
</clipPath>
<clipPath id="clip5_0_121">
<rect width="96" height="16" fill="white" transform="translate(292 80)"/>
</clipPath>
</defs>
</svg>
