<svg width="600" height="304" viewBox="0 0 600 304" fill="none" xmlns="http://www.w3.org/2000/svg">
<rect x="0.5" y="0.5" width="599" height="303" rx="15.5" fill="white"/>
<rect x="0.5" y="0.5" width="599" height="303" rx="15.5" stroke="#E6E7E5"/>
<path d="M190.428 37V28.06H193.68C194.28 28.06 194.808 28.172 195.264 28.396C195.728 28.612 196.088 28.932 196.344 29.356C196.6 29.772 196.728 30.272 196.728 30.856C196.728 31.432 196.596 31.928 196.332 32.344C196.076 32.76 195.72 33.08 195.264 33.304C194.808 33.528 194.28 33.64 193.68 33.64H191.844V37H190.428ZM191.844 32.38H193.716C194.036 32.38 194.316 32.316 194.556 32.188C194.796 32.06 194.984 31.884 195.12 31.66C195.256 31.428 195.324 31.156 195.324 30.844C195.324 30.532 195.256 30.264 195.12 30.04C194.984 29.808 194.796 29.632 194.556 29.512C194.316 29.384 194.036 29.32 193.716 29.32H191.844V32.38ZM198.054 37V30.508H199.35V31.816L199.23 31.624C199.374 31.2 199.606 30.896 199.926 30.712C200.246 30.52 200.63 30.424 201.078 30.424H201.474V31.66H200.91C200.462 31.66 200.098 31.8 199.818 32.08C199.546 32.352 199.41 32.744 199.41 33.256V37H198.054ZM205.533 37.144C204.909 37.144 204.337 36.996 203.817 36.7C203.305 36.404 202.897 36 202.593 35.488C202.289 34.976 202.137 34.396 202.137 33.748C202.137 33.092 202.289 32.512 202.593 32.008C202.897 31.496 203.305 31.096 203.817 30.808C204.329 30.512 204.901 30.364 205.533 30.364C206.173 30.364 206.745 30.512 207.249 30.808C207.761 31.096 208.165 31.496 208.461 32.008C208.765 32.512 208.917 33.092 208.917 33.748C208.917 34.404 208.765 34.988 208.461 35.5C208.157 36.012 207.749 36.416 207.237 36.712C206.725 37 206.157 37.144 205.533 37.144ZM205.533 35.884C205.917 35.884 206.257 35.792 206.553 35.608C206.849 35.424 207.081 35.172 207.249 34.852C207.425 34.524 207.513 34.156 207.513 33.748C207.513 33.34 207.425 32.976 207.249 32.656C207.081 32.336 206.849 32.084 206.553 31.9C206.257 31.716 205.917 31.624 205.533 31.624C205.157 31.624 204.817 31.716 204.513 31.9C204.217 32.084 203.981 32.336 203.805 32.656C203.637 32.976 203.553 33.34 203.553 33.748C203.553 34.156 203.637 34.524 203.805 34.852C203.981 35.172 204.217 35.424 204.513 35.608C204.817 35.792 205.157 35.884 205.533 35.884ZM210.241 39.4V30.508H211.537V31.852L211.381 31.54C211.621 31.172 211.941 30.884 212.341 30.676C212.741 30.468 213.197 30.364 213.709 30.364C214.325 30.364 214.877 30.512 215.365 30.808C215.861 31.104 216.249 31.508 216.529 32.02C216.817 32.532 216.961 33.108 216.961 33.748C216.961 34.388 216.817 34.964 216.529 35.476C216.249 35.988 215.865 36.396 215.377 36.7C214.889 36.996 214.333 37.144 213.709 37.144C213.205 37.144 212.745 37.04 212.329 36.832C211.921 36.624 211.605 36.324 211.381 35.932L211.597 35.68V39.4H210.241ZM213.577 35.884C213.961 35.884 214.301 35.792 214.597 35.608C214.893 35.424 215.125 35.172 215.293 34.852C215.469 34.524 215.557 34.156 215.557 33.748C215.557 33.34 215.469 32.976 215.293 32.656C215.125 32.336 214.893 32.084 214.597 31.9C214.301 31.716 213.961 31.624 213.577 31.624C213.201 31.624 212.861 31.716 212.557 31.9C212.261 32.084 212.025 32.336 211.849 32.656C211.681 32.976 211.597 33.34 211.597 33.748C211.597 34.156 211.681 34.524 211.849 34.852C212.025 35.172 212.261 35.424 212.557 35.608C212.861 35.792 213.201 35.884 213.577 35.884ZM221.412 37.144C220.788 37.144 220.216 36.996 219.696 36.7C219.184 36.404 218.776 36 218.472 35.488C218.168 34.976 218.016 34.396 218.016 33.748C218.016 33.092 218.168 32.512 218.472 32.008C218.776 31.496 219.184 31.096 219.696 30.808C220.208 30.512 220.78 30.364 221.412 30.364C222.052 30.364 222.624 30.512 223.128 30.808C223.64 31.096 224.044 31.496 224.34 32.008C224.644 32.512 224.796 33.092 224.796 33.748C224.796 34.404 224.644 34.988 224.34 35.5C224.036 36.012 223.628 36.416 223.116 36.712C222.604 37 222.036 37.144 221.412 37.144ZM221.412 35.884C221.796 35.884 222.136 35.792 222.432 35.608C222.728 35.424 222.96 35.172 223.128 34.852C223.304 34.524 223.392 34.156 223.392 33.748C223.392 33.34 223.304 32.976 223.128 32.656C222.96 32.336 222.728 32.084 222.432 31.9C222.136 31.716 221.796 31.624 221.412 31.624C221.036 31.624 220.696 31.716 220.392 31.9C220.096 32.084 219.86 32.336 219.684 32.656C219.516 32.976 219.432 33.34 219.432 33.748C219.432 34.156 219.516 34.524 219.684 34.852C219.86 35.172 220.096 35.424 220.392 35.608C220.696 35.792 221.036 35.884 221.412 35.884ZM228.52 37.144C227.856 37.144 227.272 36.98 226.768 36.652C226.272 36.324 225.924 35.884 225.724 35.332L226.768 34.84C226.944 35.208 227.184 35.5 227.488 35.716C227.8 35.932 228.144 36.04 228.52 36.04C228.84 36.04 229.1 35.968 229.3 35.824C229.5 35.68 229.6 35.484 229.6 35.236C229.6 35.076 229.556 34.948 229.468 34.852C229.38 34.748 229.268 34.664 229.132 34.6C229.004 34.536 228.872 34.488 228.736 34.456L227.716 34.168C227.156 34.008 226.736 33.768 226.456 33.448C226.184 33.12 226.048 32.74 226.048 32.308C226.048 31.916 226.148 31.576 226.348 31.288C226.548 30.992 226.824 30.764 227.176 30.604C227.528 30.444 227.924 30.364 228.364 30.364C228.956 30.364 229.484 30.512 229.948 30.808C230.412 31.096 230.74 31.5 230.932 32.02L229.888 32.512C229.76 32.2 229.556 31.952 229.276 31.768C229.004 31.584 228.696 31.492 228.352 31.492C228.056 31.492 227.82 31.564 227.644 31.708C227.468 31.844 227.38 32.024 227.38 32.248C227.38 32.4 227.42 32.528 227.5 32.632C227.58 32.728 227.684 32.808 227.812 32.872C227.94 32.928 228.072 32.976 228.208 33.016L229.264 33.328C229.8 33.48 230.212 33.72 230.5 34.048C230.788 34.368 230.932 34.752 230.932 35.2C230.932 35.584 230.828 35.924 230.62 36.22C230.42 36.508 230.14 36.736 229.78 36.904C229.42 37.064 229 37.144 228.52 37.144ZM235.309 37.144C234.661 37.144 234.085 36.996 233.581 36.7C233.085 36.396 232.697 35.988 232.417 35.476C232.137 34.956 231.997 34.376 231.997 33.736C231.997 33.08 232.137 32.5 232.417 31.996C232.705 31.492 233.089 31.096 233.569 30.808C234.049 30.512 234.593 30.364 235.201 30.364C235.689 30.364 236.125 30.448 236.509 30.616C236.893 30.784 237.217 31.016 237.481 31.312C237.745 31.6 237.945 31.932 238.081 32.308C238.225 32.684 238.297 33.084 238.297 33.508C238.297 33.612 238.293 33.72 238.285 33.832C238.277 33.944 238.261 34.048 238.237 34.144H233.065V33.064H237.469L236.821 33.556C236.901 33.164 236.873 32.816 236.737 32.512C236.609 32.2 236.409 31.956 236.137 31.78C235.873 31.596 235.561 31.504 235.201 31.504C234.841 31.504 234.521 31.596 234.241 31.78C233.961 31.956 233.745 32.212 233.593 32.548C233.441 32.876 233.381 33.276 233.413 33.748C233.373 34.188 233.433 34.572 233.593 34.9C233.761 35.228 233.993 35.484 234.289 35.668C234.593 35.852 234.937 35.944 235.321 35.944C235.713 35.944 236.045 35.856 236.317 35.68C236.597 35.504 236.817 35.276 236.977 34.996L238.081 35.536C237.953 35.84 237.753 36.116 237.481 36.364C237.217 36.604 236.897 36.796 236.521 36.94C236.153 37.076 235.749 37.144 235.309 37.144ZM242.62 37.144C241.996 37.144 241.436 36.996 240.94 36.7C240.452 36.396 240.064 35.988 239.776 35.476C239.496 34.964 239.356 34.388 239.356 33.748C239.356 33.108 239.5 32.532 239.788 32.02C240.076 31.508 240.464 31.104 240.952 30.808C241.44 30.512 241.992 30.364 242.608 30.364C243.128 30.364 243.588 30.468 243.988 30.676C244.388 30.884 244.704 31.172 244.936 31.54L244.732 31.852V27.916H246.076V37H244.792V35.68L244.948 35.932C244.724 36.324 244.404 36.624 243.988 36.832C243.572 37.04 243.116 37.144 242.62 37.144ZM242.752 35.884C243.128 35.884 243.464 35.792 243.76 35.608C244.064 35.424 244.3 35.172 244.468 34.852C244.644 34.524 244.732 34.156 244.732 33.748C244.732 33.34 244.644 32.976 244.468 32.656C244.3 32.336 244.064 32.084 243.76 31.9C243.464 31.716 243.128 31.624 242.752 31.624C242.376 31.624 242.036 31.716 241.732 31.9C241.428 32.084 241.192 32.336 241.024 32.656C240.856 32.976 240.772 33.34 240.772 33.748C240.772 34.156 240.856 34.524 241.024 34.852C241.192 35.172 241.424 35.424 241.72 35.608C242.024 35.792 242.368 35.884 242.752 35.884ZM251.641 37L249.097 30.508H250.573L252.529 35.8H251.989L253.945 30.508H255.433L252.877 37H251.641ZM259.285 37.144C258.637 37.144 258.061 36.996 257.557 36.7C257.061 36.396 256.673 35.988 256.393 35.476C256.113 34.956 255.973 34.376 255.973 33.736C255.973 33.08 256.113 32.5 256.393 31.996C256.681 31.492 257.065 31.096 257.545 30.808C258.025 30.512 258.569 30.364 259.177 30.364C259.665 30.364 260.101 30.448 260.485 30.616C260.869 30.784 261.193 31.016 261.457 31.312C261.721 31.6 261.921 31.932 262.057 32.308C262.201 32.684 262.273 33.084 262.273 33.508C262.273 33.612 262.269 33.72 262.261 33.832C262.253 33.944 262.237 34.048 262.213 34.144H257.041V33.064H261.445L260.797 33.556C260.877 33.164 260.849 32.816 260.713 32.512C260.585 32.2 260.385 31.956 260.113 31.78C259.849 31.596 259.537 31.504 259.177 31.504C258.817 31.504 258.497 31.596 258.217 31.78C257.937 31.956 257.721 32.212 257.569 32.548C257.417 32.876 257.357 33.276 257.389 33.748C257.349 34.188 257.409 34.572 257.569 34.9C257.737 35.228 257.969 35.484 258.265 35.668C258.569 35.852 258.913 35.944 259.297 35.944C259.689 35.944 260.021 35.856 260.293 35.68C260.573 35.504 260.793 35.276 260.953 34.996L262.057 35.536C261.929 35.84 261.729 36.116 261.457 36.364C261.193 36.604 260.873 36.796 260.497 36.94C260.129 37.076 259.725 37.144 259.285 37.144ZM263.597 37V30.508H264.893V31.816L264.773 31.624C264.917 31.2 265.149 30.896 265.469 30.712C265.789 30.52 266.173 30.424 266.621 30.424H267.017V31.66H266.453C266.005 31.66 265.641 31.8 265.361 32.08C265.089 32.352 264.953 32.744 264.953 33.256V37H263.597ZM270.344 37.144C269.68 37.144 269.096 36.98 268.592 36.652C268.096 36.324 267.748 35.884 267.548 35.332L268.592 34.84C268.768 35.208 269.008 35.5 269.312 35.716C269.624 35.932 269.968 36.04 270.344 36.04C270.664 36.04 270.924 35.968 271.124 35.824C271.324 35.68 271.424 35.484 271.424 35.236C271.424 35.076 271.38 34.948 271.292 34.852C271.204 34.748 271.092 34.664 270.956 34.6C270.828 34.536 270.696 34.488 270.56 34.456L269.54 34.168C268.98 34.008 268.56 33.768 268.28 33.448C268.008 33.12 267.872 32.74 267.872 32.308C267.872 31.916 267.972 31.576 268.172 31.288C268.372 30.992 268.648 30.764 269 30.604C269.352 30.444 269.748 30.364 270.188 30.364C270.78 30.364 271.308 30.512 271.772 30.808C272.236 31.096 272.564 31.5 272.756 32.02L271.712 32.512C271.584 32.2 271.38 31.952 271.1 31.768C270.828 31.584 270.52 31.492 270.176 31.492C269.88 31.492 269.644 31.564 269.468 31.708C269.292 31.844 269.204 32.024 269.204 32.248C269.204 32.4 269.244 32.528 269.324 32.632C269.404 32.728 269.508 32.808 269.636 32.872C269.764 32.928 269.896 32.976 270.032 33.016L271.088 33.328C271.624 33.48 272.036 33.72 272.324 34.048C272.612 34.368 272.756 34.752 272.756 35.2C272.756 35.584 272.652 35.924 272.444 36.22C272.244 36.508 271.964 36.736 271.604 36.904C271.244 37.064 270.824 37.144 270.344 37.144ZM274.085 37V30.508H275.441V37H274.085ZM274.085 29.62V28.06H275.441V29.62H274.085ZM280.158 37.144C279.534 37.144 278.962 36.996 278.442 36.7C277.93 36.404 277.522 36 277.218 35.488C276.914 34.976 276.762 34.396 276.762 33.748C276.762 33.092 276.914 32.512 277.218 32.008C277.522 31.496 277.93 31.096 278.442 30.808C278.954 30.512 279.526 30.364 280.158 30.364C280.798 30.364 281.37 30.512 281.874 30.808C282.386 31.096 282.79 31.496 283.086 32.008C283.39 32.512 283.542 33.092 283.542 33.748C283.542 34.404 283.39 34.988 283.086 35.5C282.782 36.012 282.374 36.416 281.862 36.712C281.35 37 280.782 37.144 280.158 37.144ZM280.158 35.884C280.542 35.884 280.882 35.792 281.178 35.608C281.474 35.424 281.706 35.172 281.874 34.852C282.05 34.524 282.138 34.156 282.138 33.748C282.138 33.34 282.05 32.976 281.874 32.656C281.706 32.336 281.474 32.084 281.178 31.9C280.882 31.716 280.542 31.624 280.158 31.624C279.782 31.624 279.442 31.716 279.138 31.9C278.842 32.084 278.606 32.336 278.43 32.656C278.262 32.976 278.178 33.34 278.178 33.748C278.178 34.156 278.262 34.524 278.43 34.852C278.606 35.172 278.842 35.424 279.138 35.608C279.442 35.792 279.782 35.884 280.158 35.884ZM284.866 37V30.508H286.162V31.78L286.006 31.612C286.166 31.204 286.422 30.896 286.774 30.688C287.126 30.472 287.534 30.364 287.998 30.364C288.478 30.364 288.902 30.468 289.27 30.676C289.638 30.884 289.926 31.172 290.134 31.54C290.342 31.908 290.446 32.332 290.446 32.812V37H289.102V33.172C289.102 32.844 289.042 32.568 288.922 32.344C288.802 32.112 288.63 31.936 288.406 31.816C288.19 31.688 287.942 31.624 287.662 31.624C287.382 31.624 287.13 31.688 286.906 31.816C286.69 31.936 286.522 32.112 286.402 32.344C286.282 32.576 286.222 32.852 286.222 33.172V37H284.866ZM294.727 37V31.732H293.527V30.508H294.727V30.172C294.727 29.684 294.827 29.276 295.027 28.948C295.227 28.612 295.503 28.356 295.855 28.18C296.215 28.004 296.627 27.916 297.091 27.916C297.179 27.916 297.279 27.924 297.391 27.94C297.503 27.948 297.595 27.96 297.667 27.976V29.152C297.603 29.136 297.531 29.128 297.451 29.128C297.371 29.12 297.307 29.116 297.259 29.116C296.899 29.116 296.611 29.2 296.395 29.368C296.179 29.528 296.071 29.796 296.071 30.172V30.508H297.559V31.732H296.071V37H294.727ZM298.765 37V30.508H300.061V31.816L299.941 31.624C300.085 31.2 300.317 30.896 300.637 30.712C300.957 30.52 301.341 30.424 301.789 30.424H302.185V31.66H301.621C301.173 31.66 300.809 31.8 300.529 32.08C300.257 32.352 300.121 32.744 300.121 33.256V37H298.765ZM306.244 37.144C305.62 37.144 305.048 36.996 304.528 36.7C304.016 36.404 303.608 36 303.304 35.488C303 34.976 302.848 34.396 302.848 33.748C302.848 33.092 303 32.512 303.304 32.008C303.608 31.496 304.016 31.096 304.528 30.808C305.04 30.512 305.612 30.364 306.244 30.364C306.884 30.364 307.456 30.512 307.96 30.808C308.472 31.096 308.876 31.496 309.172 32.008C309.476 32.512 309.628 33.092 309.628 33.748C309.628 34.404 309.476 34.988 309.172 35.5C308.868 36.012 308.46 36.416 307.948 36.712C307.436 37 306.868 37.144 306.244 37.144ZM306.244 35.884C306.628 35.884 306.968 35.792 307.264 35.608C307.56 35.424 307.792 35.172 307.96 34.852C308.136 34.524 308.224 34.156 308.224 33.748C308.224 33.34 308.136 32.976 307.96 32.656C307.792 32.336 307.56 32.084 307.264 31.9C306.968 31.716 306.628 31.624 306.244 31.624C305.868 31.624 305.528 31.716 305.224 31.9C304.928 32.084 304.692 32.336 304.516 32.656C304.348 32.976 304.264 33.34 304.264 33.748C304.264 34.156 304.348 34.524 304.516 34.852C304.692 35.172 304.928 35.424 305.224 35.608C305.528 35.792 305.868 35.884 306.244 35.884ZM310.952 37V30.508H312.248V31.912L312.08 31.696C312.216 31.256 312.464 30.924 312.824 30.7C313.184 30.476 313.596 30.364 314.06 30.364C314.58 30.364 315.04 30.504 315.44 30.784C315.848 31.056 316.12 31.42 316.256 31.876L315.872 31.912C316.064 31.392 316.356 31.004 316.748 30.748C317.148 30.492 317.604 30.364 318.116 30.364C318.564 30.364 318.968 30.468 319.328 30.676C319.696 30.884 319.988 31.172 320.204 31.54C320.42 31.908 320.528 32.328 320.528 32.8V37H319.172V33.172C319.172 32.844 319.112 32.568 318.992 32.344C318.88 32.112 318.72 31.936 318.512 31.816C318.312 31.688 318.076 31.624 317.804 31.624C317.532 31.624 317.292 31.688 317.084 31.816C316.876 31.936 316.712 32.112 316.592 32.344C316.472 32.576 316.412 32.852 316.412 33.172V37H315.068V33.172C315.068 32.844 315.008 32.568 314.888 32.344C314.776 32.112 314.616 31.936 314.408 31.816C314.208 31.688 313.968 31.624 313.688 31.624C313.416 31.624 313.176 31.688 312.968 31.816C312.76 31.936 312.596 32.112 312.476 32.344C312.364 32.576 312.308 32.852 312.308 33.172V37H310.952ZM326.885 37.072C326.205 37.072 325.677 36.88 325.301 36.496C324.925 36.112 324.737 35.572 324.737 34.876V31.732H323.597V30.508H323.777C324.081 30.508 324.317 30.42 324.485 30.244C324.653 30.068 324.737 29.828 324.737 29.524V29.02H326.093V30.508H327.569V31.732H326.093V34.816C326.093 35.04 326.129 35.232 326.201 35.392C326.273 35.544 326.389 35.664 326.549 35.752C326.709 35.832 326.917 35.872 327.173 35.872C327.237 35.872 327.309 35.868 327.389 35.86C327.469 35.852 327.545 35.844 327.617 35.836V37C327.505 37.016 327.381 37.032 327.245 37.048C327.109 37.064 326.989 37.072 326.885 37.072ZM328.94 37V27.916H330.296V31.78L330.08 31.612C330.24 31.204 330.496 30.896 330.848 30.688C331.2 30.472 331.608 30.364 332.072 30.364C332.552 30.364 332.976 30.468 333.344 30.676C333.712 30.884 334 31.172 334.208 31.54C334.416 31.908 334.52 32.328 334.52 32.8V37H333.176V33.172C333.176 32.844 333.112 32.568 332.984 32.344C332.864 32.112 332.696 31.936 332.48 31.816C332.264 31.688 332.016 31.624 331.736 31.624C331.464 31.624 331.216 31.688 330.992 31.816C330.776 31.936 330.604 32.112 330.476 32.344C330.356 32.576 330.296 32.852 330.296 33.172V37H328.94ZM339.02 37.144C338.372 37.144 337.796 36.996 337.292 36.7C336.796 36.396 336.408 35.988 336.128 35.476C335.848 34.956 335.708 34.376 335.708 33.736C335.708 33.08 335.848 32.5 336.128 31.996C336.416 31.492 336.8 31.096 337.28 30.808C337.76 30.512 338.304 30.364 338.912 30.364C339.4 30.364 339.836 30.448 340.22 30.616C340.604 30.784 340.928 31.016 341.192 31.312C341.456 31.6 341.656 31.932 341.792 32.308C341.936 32.684 342.008 33.084 342.008 33.508C342.008 33.612 342.004 33.72 341.996 33.832C341.988 33.944 341.972 34.048 341.948 34.144H336.776V33.064H341.18L340.532 33.556C340.612 33.164 340.584 32.816 340.448 32.512C340.32 32.2 340.12 31.956 339.848 31.78C339.584 31.596 339.272 31.504 338.912 31.504C338.552 31.504 338.232 31.596 337.952 31.78C337.672 31.956 337.456 32.212 337.304 32.548C337.152 32.876 337.092 33.276 337.124 33.748C337.084 34.188 337.144 34.572 337.304 34.9C337.472 35.228 337.704 35.484 338 35.668C338.304 35.852 338.648 35.944 339.032 35.944C339.424 35.944 339.756 35.856 340.028 35.68C340.308 35.504 340.528 35.276 340.688 34.996L341.792 35.536C341.664 35.84 341.464 36.116 341.192 36.364C340.928 36.604 340.608 36.796 340.232 36.94C339.864 37.076 339.46 37.144 339.02 37.144ZM348.897 37.144C348.393 37.144 347.933 37.04 347.517 36.832C347.109 36.624 346.793 36.324 346.569 35.932L346.725 35.68V37H345.429V27.916H346.785V31.852L346.569 31.54C346.809 31.172 347.129 30.884 347.529 30.676C347.929 30.468 348.385 30.364 348.897 30.364C349.513 30.364 350.065 30.512 350.553 30.808C351.049 31.104 351.437 31.508 351.717 32.02C352.005 32.532 352.149 33.108 352.149 33.748C352.149 34.388 352.005 34.964 351.717 35.476C351.437 35.988 351.053 36.396 350.565 36.7C350.077 36.996 349.521 37.144 348.897 37.144ZM348.765 35.884C349.149 35.884 349.489 35.792 349.785 35.608C350.081 35.424 350.313 35.172 350.481 34.852C350.657 34.524 350.745 34.156 350.745 33.748C350.745 33.34 350.657 32.976 350.481 32.656C350.313 32.336 350.081 32.084 349.785 31.9C349.489 31.716 349.149 31.624 348.765 31.624C348.389 31.624 348.049 31.716 347.745 31.9C347.449 32.084 347.213 32.336 347.037 32.656C346.869 32.976 346.785 33.34 346.785 33.748C346.785 34.156 346.869 34.524 347.037 34.852C347.213 35.172 347.449 35.424 347.745 35.608C348.049 35.792 348.389 35.884 348.765 35.884ZM356.516 37.144C355.868 37.144 355.292 36.996 354.788 36.7C354.292 36.396 353.904 35.988 353.624 35.476C353.344 34.956 353.204 34.376 353.204 33.736C353.204 33.08 353.344 32.5 353.624 31.996C353.912 31.492 354.296 31.096 354.776 30.808C355.256 30.512 355.8 30.364 356.408 30.364C356.896 30.364 357.332 30.448 357.716 30.616C358.1 30.784 358.424 31.016 358.688 31.312C358.952 31.6 359.152 31.932 359.288 32.308C359.432 32.684 359.504 33.084 359.504 33.508C359.504 33.612 359.5 33.72 359.492 33.832C359.484 33.944 359.468 34.048 359.444 34.144H354.272V33.064H358.676L358.028 33.556C358.108 33.164 358.08 32.816 357.944 32.512C357.816 32.2 357.616 31.956 357.344 31.78C357.08 31.596 356.768 31.504 356.408 31.504C356.048 31.504 355.728 31.596 355.448 31.78C355.168 31.956 354.952 32.212 354.8 32.548C354.648 32.876 354.588 33.276 354.62 33.748C354.58 34.188 354.64 34.572 354.8 34.9C354.968 35.228 355.2 35.484 355.496 35.668C355.8 35.852 356.144 35.944 356.528 35.944C356.92 35.944 357.252 35.856 357.524 35.68C357.804 35.504 358.024 35.276 358.184 34.996L359.288 35.536C359.16 35.84 358.96 36.116 358.688 36.364C358.424 36.604 358.104 36.796 357.728 36.94C357.36 37.076 356.956 37.144 356.516 37.144ZM360.827 37V30.508H362.123V31.78L361.967 31.612C362.127 31.204 362.383 30.896 362.735 30.688C363.087 30.472 363.495 30.364 363.959 30.364C364.439 30.364 364.863 30.468 365.231 30.676C365.599 30.884 365.887 31.172 366.095 31.54C366.303 31.908 366.407 32.332 366.407 32.812V37H365.063V33.172C365.063 32.844 365.003 32.568 364.883 32.344C364.763 32.112 364.591 31.936 364.367 31.816C364.151 31.688 363.903 31.624 363.623 31.624C363.343 31.624 363.091 31.688 362.867 31.816C362.651 31.936 362.483 32.112 362.363 32.344C362.243 32.576 362.183 32.852 362.183 33.172V37H360.827ZM370.942 37.144C370.294 37.144 369.718 36.996 369.214 36.7C368.718 36.396 368.322 35.988 368.026 35.476C367.738 34.964 367.594 34.384 367.594 33.736C367.594 33.096 367.738 32.52 368.026 32.008C368.314 31.496 368.71 31.096 369.214 30.808C369.718 30.512 370.294 30.364 370.942 30.364C371.382 30.364 371.794 30.444 372.178 30.604C372.562 30.756 372.894 30.968 373.174 31.24C373.462 31.512 373.674 31.828 373.81 32.188L372.622 32.74C372.486 32.404 372.266 32.136 371.962 31.936C371.666 31.728 371.326 31.624 370.942 31.624C370.574 31.624 370.242 31.716 369.946 31.9C369.658 32.076 369.43 32.328 369.262 32.656C369.094 32.976 369.01 33.34 369.01 33.748C369.01 34.156 369.094 34.524 369.262 34.852C369.43 35.172 369.658 35.424 369.946 35.608C370.242 35.792 370.574 35.884 370.942 35.884C371.334 35.884 371.674 35.784 371.962 35.584C372.258 35.376 372.478 35.1 372.622 34.756L373.81 35.32C373.682 35.664 373.474 35.976 373.186 36.256C372.906 36.528 372.574 36.744 372.19 36.904C371.806 37.064 371.39 37.144 370.942 37.144ZM375.136 37V27.916H376.492V31.78L376.276 31.612C376.436 31.204 376.692 30.896 377.044 30.688C377.396 30.472 377.804 30.364 378.268 30.364C378.748 30.364 379.172 30.468 379.54 30.676C379.908 30.884 380.196 31.172 380.404 31.54C380.612 31.908 380.716 32.328 380.716 32.8V37H379.372V33.172C379.372 32.844 379.308 32.568 379.18 32.344C379.06 32.112 378.892 31.936 378.676 31.816C378.46 31.688 378.212 31.624 377.932 31.624C377.66 31.624 377.412 31.688 377.188 31.816C376.972 31.936 376.8 32.112 376.672 32.344C376.552 32.576 376.492 32.852 376.492 33.172V37H375.136ZM382.167 37V30.508H383.463V31.912L383.295 31.696C383.431 31.256 383.679 30.924 384.039 30.7C384.399 30.476 384.811 30.364 385.275 30.364C385.795 30.364 386.255 30.504 386.655 30.784C387.063 31.056 387.335 31.42 387.471 31.876L387.087 31.912C387.279 31.392 387.571 31.004 387.963 30.748C388.363 30.492 388.819 30.364 389.331 30.364C389.779 30.364 390.183 30.468 390.543 30.676C390.911 30.884 391.203 31.172 391.419 31.54C391.635 31.908 391.743 32.328 391.743 32.8V37H390.387V33.172C390.387 32.844 390.327 32.568 390.207 32.344C390.095 32.112 389.935 31.936 389.727 31.816C389.527 31.688 389.291 31.624 389.019 31.624C388.747 31.624 388.507 31.688 388.299 31.816C388.091 31.936 387.927 32.112 387.807 32.344C387.687 32.576 387.627 32.852 387.627 33.172V37H386.283V33.172C386.283 32.844 386.223 32.568 386.103 32.344C385.991 32.112 385.831 31.936 385.623 31.816C385.423 31.688 385.183 31.624 384.903 31.624C384.631 31.624 384.391 31.688 384.183 31.816C383.975 31.936 383.811 32.112 383.691 32.344C383.579 32.576 383.523 32.852 383.523 33.172V37H382.167ZM395.138 37.144C394.698 37.144 394.31 37.068 393.974 36.916C393.646 36.756 393.39 36.54 393.206 36.268C393.022 35.988 392.93 35.66 392.93 35.284C392.93 34.932 393.006 34.616 393.158 34.336C393.318 34.056 393.562 33.82 393.89 33.628C394.218 33.436 394.63 33.3 395.126 33.22L397.382 32.848V33.916L395.39 34.264C395.03 34.328 394.766 34.444 394.598 34.612C394.43 34.772 394.346 34.98 394.346 35.236C394.346 35.484 394.438 35.688 394.622 35.848C394.814 36 395.058 36.076 395.354 36.076C395.722 36.076 396.042 35.996 396.314 35.836C396.594 35.676 396.81 35.464 396.962 35.2C397.114 34.928 397.19 34.628 397.19 34.3V32.632C397.19 32.312 397.07 32.052 396.83 31.852C396.598 31.644 396.286 31.54 395.894 31.54C395.534 31.54 395.218 31.636 394.946 31.828C394.682 32.012 394.486 32.252 394.358 32.548L393.23 31.984C393.35 31.664 393.546 31.384 393.818 31.144C394.09 30.896 394.406 30.704 394.766 30.568C395.134 30.432 395.522 30.364 395.93 30.364C396.442 30.364 396.894 30.46 397.286 30.652C397.686 30.844 397.994 31.112 398.21 31.456C398.434 31.792 398.546 32.184 398.546 32.632V37H397.25V35.824L397.526 35.86C397.374 36.124 397.178 36.352 396.938 36.544C396.706 36.736 396.438 36.884 396.134 36.988C395.838 37.092 395.506 37.144 395.138 37.144ZM400.132 37V30.508H401.428V31.816L401.308 31.624C401.452 31.2 401.684 30.896 402.004 30.712C402.324 30.52 402.708 30.424 403.156 30.424H403.552V31.66H402.988C402.54 31.66 402.176 31.8 401.896 32.08C401.624 32.352 401.488 32.744 401.488 33.256V37H400.132ZM404.479 37V27.916H405.836V34L405.308 33.868L408.56 30.508H410.252L407.804 33.112L410.36 37H408.8L406.52 33.556L407.324 33.448L405.404 35.488L405.836 34.588V37H404.479Z" fill="black"/>
<rect x="188.5" y="56.5" width="223" height="223" rx="4.5" fill="white"/>
<rect x="188.5" y="56.5" width="223" height="223" rx="4.5" stroke="#9747FF" stroke-dasharray="10 5"/>
<g clip-path="url(#clip0_15_144)">
<rect x="212" y="200" width="96" height="56" fill="#E0E1DF"/>
</g>
<g clip-path="url(#clip1_15_144)">
<rect x="212" y="136" width="96" height="40" fill="#E0E1DF"/>
</g>
<g clip-path="url(#clip2_15_144)">
<rect x="212" y="80" width="96" height="32" fill="#E0E1DF"/>
</g>
<g clip-path="url(#clip3_15_144)">
<rect x="292" y="200" width="96" height="56" fill="#E0E1DF"/>
<rect opacity="0.5" x="196" y="200" width="128" height="56" fill="url(#paint0_linear_15_144)"/>
</g>
<g clip-path="url(#clip4_15_144)">
<rect x="292" y="136" width="96" height="24" fill="#E0E1DF"/>
<rect opacity="0.5" x="196" y="136" width="128" height="24" fill="url(#paint1_linear_15_144)"/>
</g>
<g clip-path="url(#clip5_15_144)">
<rect x="292" y="80" width="96" height="16" fill="#E0E1DF"/>
<rect opacity="0.5" x="196" y="80" width="128" height="16" fill="url(#paint2_linear_15_144)"/>
</g>
<defs>
<linearGradient id="paint0_linear_15_144" x1="324" y1="228" x2="196" y2="228" gradientUnits="userSpaceOnUse">
<stop stop-color="white" stop-opacity="0"/>
<stop offset="0.5" stop-color="white"/>
<stop offset="1" stop-color="white" stop-opacity="0"/>
</linearGradient>
<linearGradient id="paint1_linear_15_144" x1="324" y1="148" x2="196" y2="148" gradientUnits="userSpaceOnUse">
<stop stop-color="white" stop-opacity="0"/>
<stop offset="0.5" stop-color="white"/>
<stop offset="1" stop-color="white" stop-opacity="0"/>
</linearGradient>
<linearGradient id="paint2_linear_15_144" x1="324" y1="88" x2="196" y2="88" gradientUnits="userSpaceOnUse">
<stop stop-color="white" stop-opacity="0"/>
<stop offset="0.5" stop-color="white"/>
<stop offset="1" stop-color="white" stop-opacity="0"/>
</linearGradient>
<clipPath id="clip0_15_144">
<rect x="212" y="200" width="56" height="56" rx="4" fill="white"/>
</clipPath>
<clipPath id="clip1_15_144">
<rect x="212" y="136" width="40" height="40" rx="4" fill="white"/>
</clipPath>
<clipPath id="clip2_15_144">
<rect x="212" y="80" width="32" height="32" rx="4" fill="white"/>
</clipPath>
<clipPath id="clip3_15_144">
<rect width="96" height="56" fill="white" transform="translate(292 200)"/>
</clipPath>
<clipPath id="clip4_15_144">
<rect width="96" height="24" fill="white" transform="translate(292 136)"/>
</clipPath>
<clipPath id="clip5_15_144">
<rect width="96" height="16" fill="white" transform="translate(292 80)"/>
</clipPath>
</defs>
</svg>
