<svg width="600" height="304" viewBox="0 0 600 304" fill="none" xmlns="http://www.w3.org/2000/svg">
<rect x="0.5" y="0.5" width="599" height="303" rx="15.5" fill="white"/>
<rect x="0.5" y="0.5" width="599" height="303" rx="15.5" stroke="#E6E7E5"/>
<path d="M153.212 37L150.044 28.06H151.568L154.16 35.692H153.86L156.44 28.06H157.964L154.796 37H153.212ZM161.334 37.144C160.686 37.144 160.11 36.996 159.606 36.7C159.11 36.396 158.722 35.988 158.442 35.476C158.162 34.956 158.022 34.376 158.022 33.736C158.022 33.08 158.162 32.5 158.442 31.996C158.73 31.492 159.114 31.096 159.594 30.808C160.074 30.512 160.618 30.364 161.226 30.364C161.714 30.364 162.15 30.448 162.534 30.616C162.918 30.784 163.242 31.016 163.506 31.312C163.77 31.6 163.97 31.932 164.106 32.308C164.25 32.684 164.322 33.084 164.322 33.508C164.322 33.612 164.318 33.72 164.31 33.832C164.302 33.944 164.286 34.048 164.262 34.144H159.09V33.064H163.494L162.846 33.556C162.926 33.164 162.898 32.816 162.762 32.512C162.634 32.2 162.434 31.956 162.162 31.78C161.898 31.596 161.586 31.504 161.226 31.504C160.866 31.504 160.546 31.596 160.266 31.78C159.986 31.956 159.77 32.212 159.618 32.548C159.466 32.876 159.406 33.276 159.438 33.748C159.398 34.188 159.458 34.572 159.618 34.9C159.786 35.228 160.018 35.484 160.314 35.668C160.618 35.852 160.962 35.944 161.346 35.944C161.738 35.944 162.07 35.856 162.342 35.68C162.622 35.504 162.842 35.276 163.002 34.996L164.106 35.536C163.978 35.84 163.778 36.116 163.506 36.364C163.242 36.604 162.922 36.796 162.546 36.94C162.178 37.076 161.774 37.144 161.334 37.144ZM165.646 37V30.508H166.942V31.816L166.822 31.624C166.966 31.2 167.198 30.896 167.518 30.712C167.838 30.52 168.222 30.424 168.67 30.424H169.066V31.66H168.502C168.054 31.66 167.69 31.8 167.41 32.08C167.138 32.352 167.002 32.744 167.002 33.256V37H165.646ZM172.393 37.144C171.729 37.144 171.145 36.98 170.641 36.652C170.145 36.324 169.797 35.884 169.597 35.332L170.641 34.84C170.817 35.208 171.057 35.5 171.361 35.716C171.673 35.932 172.017 36.04 172.393 36.04C172.713 36.04 172.973 35.968 173.173 35.824C173.373 35.68 173.473 35.484 173.473 35.236C173.473 35.076 173.429 34.948 173.341 34.852C173.253 34.748 173.141 34.664 173.005 34.6C172.877 34.536 172.745 34.488 172.609 34.456L171.589 34.168C171.029 34.008 170.609 33.768 170.329 33.448C170.057 33.12 169.921 32.74 169.921 32.308C169.921 31.916 170.021 31.576 170.221 31.288C170.421 30.992 170.697 30.764 171.049 30.604C171.401 30.444 171.797 30.364 172.237 30.364C172.829 30.364 173.357 30.512 173.821 30.808C174.285 31.096 174.613 31.5 174.805 32.02L173.761 32.512C173.633 32.2 173.429 31.952 173.149 31.768C172.877 31.584 172.569 31.492 172.225 31.492C171.929 31.492 171.693 31.564 171.517 31.708C171.341 31.844 171.253 32.024 171.253 32.248C171.253 32.4 171.293 32.528 171.373 32.632C171.453 32.728 171.557 32.808 171.685 32.872C171.813 32.928 171.945 32.976 172.081 33.016L173.137 33.328C173.673 33.48 174.085 33.72 174.373 34.048C174.661 34.368 174.805 34.752 174.805 35.2C174.805 35.584 174.701 35.924 174.493 36.22C174.293 36.508 174.013 36.736 173.653 36.904C173.293 37.064 172.873 37.144 172.393 37.144ZM176.134 37V30.508H177.49V37H176.134ZM176.134 29.62V28.06H177.49V29.62H176.134ZM182.207 37.144C181.583 37.144 181.011 36.996 180.491 36.7C179.979 36.404 179.571 36 179.267 35.488C178.963 34.976 178.811 34.396 178.811 33.748C178.811 33.092 178.963 32.512 179.267 32.008C179.571 31.496 179.979 31.096 180.491 30.808C181.003 30.512 181.575 30.364 182.207 30.364C182.847 30.364 183.419 30.512 183.923 30.808C184.435 31.096 184.839 31.496 185.135 32.008C185.439 32.512 185.591 33.092 185.591 33.748C185.591 34.404 185.439 34.988 185.135 35.5C184.831 36.012 184.423 36.416 183.911 36.712C183.399 37 182.831 37.144 182.207 37.144ZM182.207 35.884C182.591 35.884 182.931 35.792 183.227 35.608C183.523 35.424 183.755 35.172 183.923 34.852C184.099 34.524 184.187 34.156 184.187 33.748C184.187 33.34 184.099 32.976 183.923 32.656C183.755 32.336 183.523 32.084 183.227 31.9C182.931 31.716 182.591 31.624 182.207 31.624C181.831 31.624 181.491 31.716 181.187 31.9C180.891 32.084 180.655 32.336 180.479 32.656C180.311 32.976 180.227 33.34 180.227 33.748C180.227 34.156 180.311 34.524 180.479 34.852C180.655 35.172 180.891 35.424 181.187 35.608C181.491 35.792 181.831 35.884 182.207 35.884ZM186.915 37V30.508H188.211V31.78L188.055 31.612C188.215 31.204 188.471 30.896 188.823 30.688C189.175 30.472 189.583 30.364 190.047 30.364C190.527 30.364 190.951 30.468 191.319 30.676C191.687 30.884 191.975 31.172 192.183 31.54C192.391 31.908 192.495 32.332 192.495 32.812V37H191.151V33.172C191.151 32.844 191.091 32.568 190.971 32.344C190.851 32.112 190.679 31.936 190.455 31.816C190.239 31.688 189.991 31.624 189.711 31.624C189.431 31.624 189.179 31.688 188.955 31.816C188.739 31.936 188.571 32.112 188.451 32.344C188.331 32.576 188.271 32.852 188.271 33.172V37H186.915ZM196.044 37V30.508H197.34V31.816L197.22 31.624C197.364 31.2 197.596 30.896 197.916 30.712C198.236 30.52 198.62 30.424 199.068 30.424H199.464V31.66H198.9C198.452 31.66 198.088 31.8 197.808 32.08C197.536 32.352 197.4 32.744 197.4 33.256V37H196.044ZM203.44 37.144C202.792 37.144 202.216 36.996 201.712 36.7C201.216 36.396 200.828 35.988 200.548 35.476C200.268 34.956 200.128 34.376 200.128 33.736C200.128 33.08 200.268 32.5 200.548 31.996C200.836 31.492 201.22 31.096 201.7 30.808C202.18 30.512 202.724 30.364 203.332 30.364C203.82 30.364 204.256 30.448 204.64 30.616C205.024 30.784 205.348 31.016 205.612 31.312C205.876 31.6 206.076 31.932 206.212 32.308C206.356 32.684 206.428 33.084 206.428 33.508C206.428 33.612 206.424 33.72 206.416 33.832C206.408 33.944 206.392 34.048 206.368 34.144H201.196V33.064H205.6L204.952 33.556C205.032 33.164 205.004 32.816 204.868 32.512C204.74 32.2 204.54 31.956 204.268 31.78C204.004 31.596 203.692 31.504 203.332 31.504C202.972 31.504 202.652 31.596 202.372 31.78C202.092 31.956 201.876 32.212 201.724 32.548C201.572 32.876 201.512 33.276 201.544 33.748C201.504 34.188 201.564 34.572 201.724 34.9C201.892 35.228 202.124 35.484 202.42 35.668C202.724 35.852 203.068 35.944 203.452 35.944C203.844 35.944 204.176 35.856 204.448 35.68C204.728 35.504 204.948 35.276 205.108 34.996L206.212 35.536C206.084 35.84 205.884 36.116 205.612 36.364C205.348 36.604 205.028 36.796 204.652 36.94C204.284 37.076 203.88 37.144 203.44 37.144ZM209.518 37L206.974 30.508H208.45L210.406 35.8H209.866L211.822 30.508H213.31L210.754 37H209.518ZM214.231 37V30.508H215.587V37H214.231ZM214.231 29.62V28.06H215.587V29.62H214.231ZM219.573 37.144C218.909 37.144 218.325 36.98 217.821 36.652C217.325 36.324 216.977 35.884 216.777 35.332L217.821 34.84C217.997 35.208 218.237 35.5 218.541 35.716C218.853 35.932 219.197 36.04 219.573 36.04C219.893 36.04 220.153 35.968 220.353 35.824C220.553 35.68 220.653 35.484 220.653 35.236C220.653 35.076 220.609 34.948 220.521 34.852C220.433 34.748 220.321 34.664 220.185 34.6C220.057 34.536 219.925 34.488 219.789 34.456L218.769 34.168C218.209 34.008 217.789 33.768 217.509 33.448C217.237 33.12 217.101 32.74 217.101 32.308C217.101 31.916 217.201 31.576 217.401 31.288C217.601 30.992 217.877 30.764 218.229 30.604C218.581 30.444 218.977 30.364 219.417 30.364C220.009 30.364 220.537 30.512 221.001 30.808C221.465 31.096 221.793 31.5 221.985 32.02L220.941 32.512C220.813 32.2 220.609 31.952 220.329 31.768C220.057 31.584 219.749 31.492 219.405 31.492C219.109 31.492 218.873 31.564 218.697 31.708C218.521 31.844 218.433 32.024 218.433 32.248C218.433 32.4 218.473 32.528 218.553 32.632C218.633 32.728 218.737 32.808 218.865 32.872C218.993 32.928 219.125 32.976 219.261 33.016L220.317 33.328C220.853 33.48 221.265 33.72 221.553 34.048C221.841 34.368 221.985 34.752 221.985 35.2C221.985 35.584 221.881 35.924 221.673 36.22C221.473 36.508 221.193 36.736 220.833 36.904C220.473 37.064 220.053 37.144 219.573 37.144ZM226.361 37.144C225.713 37.144 225.137 36.996 224.633 36.7C224.137 36.396 223.749 35.988 223.469 35.476C223.189 34.956 223.049 34.376 223.049 33.736C223.049 33.08 223.189 32.5 223.469 31.996C223.757 31.492 224.141 31.096 224.621 30.808C225.101 30.512 225.645 30.364 226.253 30.364C226.741 30.364 227.177 30.448 227.561 30.616C227.945 30.784 228.269 31.016 228.533 31.312C228.797 31.6 228.997 31.932 229.133 32.308C229.277 32.684 229.349 33.084 229.349 33.508C229.349 33.612 229.345 33.72 229.337 33.832C229.329 33.944 229.313 34.048 229.289 34.144H224.117V33.064H228.521L227.873 33.556C227.953 33.164 227.925 32.816 227.789 32.512C227.661 32.2 227.461 31.956 227.189 31.78C226.925 31.596 226.613 31.504 226.253 31.504C225.893 31.504 225.573 31.596 225.293 31.78C225.013 31.956 224.797 32.212 224.645 32.548C224.493 32.876 224.433 33.276 224.465 33.748C224.425 34.188 224.485 34.572 224.645 34.9C224.813 35.228 225.045 35.484 225.341 35.668C225.645 35.852 225.989 35.944 226.373 35.944C226.765 35.944 227.097 35.856 227.369 35.68C227.649 35.504 227.869 35.276 228.029 34.996L229.133 35.536C229.005 35.84 228.805 36.116 228.533 36.364C228.269 36.604 227.949 36.796 227.573 36.94C227.205 37.076 226.801 37.144 226.361 37.144ZM233.673 37.144C233.049 37.144 232.489 36.996 231.993 36.7C231.505 36.396 231.117 35.988 230.829 35.476C230.549 34.964 230.409 34.388 230.409 33.748C230.409 33.108 230.553 32.532 230.841 32.02C231.129 31.508 231.517 31.104 232.005 30.808C232.493 30.512 233.045 30.364 233.661 30.364C234.181 30.364 234.641 30.468 235.041 30.676C235.441 30.884 235.757 31.172 235.989 31.54L235.785 31.852V27.916H237.129V37H235.845V35.68L236.001 35.932C235.777 36.324 235.457 36.624 235.041 36.832C234.625 37.04 234.169 37.144 233.673 37.144ZM233.805 35.884C234.181 35.884 234.517 35.792 234.813 35.608C235.117 35.424 235.353 35.172 235.521 34.852C235.697 34.524 235.785 34.156 235.785 33.748C235.785 33.34 235.697 32.976 235.521 32.656C235.353 32.336 235.117 32.084 234.813 31.9C234.517 31.716 234.181 31.624 233.805 31.624C233.429 31.624 233.089 31.716 232.785 31.9C232.481 32.084 232.245 32.336 232.077 32.656C231.909 32.976 231.825 33.34 231.825 33.748C231.825 34.156 231.909 34.524 232.077 34.852C232.245 35.172 232.477 35.424 232.773 35.608C233.077 35.792 233.421 35.884 233.805 35.884ZM242.754 37.144C242.314 37.144 241.926 37.068 241.59 36.916C241.262 36.756 241.006 36.54 240.822 36.268C240.638 35.988 240.546 35.66 240.546 35.284C240.546 34.932 240.622 34.616 240.774 34.336C240.934 34.056 241.178 33.82 241.506 33.628C241.834 33.436 242.246 33.3 242.742 33.22L244.998 32.848V33.916L243.006 34.264C242.646 34.328 242.382 34.444 242.214 34.612C242.046 34.772 241.962 34.98 241.962 35.236C241.962 35.484 242.054 35.688 242.238 35.848C242.43 36 242.674 36.076 242.97 36.076C243.338 36.076 243.658 35.996 243.93 35.836C244.21 35.676 244.426 35.464 244.578 35.2C244.73 34.928 244.806 34.628 244.806 34.3V32.632C244.806 32.312 244.686 32.052 244.446 31.852C244.214 31.644 243.902 31.54 243.51 31.54C243.15 31.54 242.834 31.636 242.562 31.828C242.298 32.012 242.102 32.252 241.974 32.548L240.846 31.984C240.966 31.664 241.162 31.384 241.434 31.144C241.706 30.896 242.022 30.704 242.382 30.568C242.75 30.432 243.138 30.364 243.546 30.364C244.058 30.364 244.51 30.46 244.902 30.652C245.302 30.844 245.61 31.112 245.826 31.456C246.05 31.792 246.162 32.184 246.162 32.632V37H244.866V35.824L245.142 35.86C244.99 36.124 244.794 36.352 244.554 36.544C244.322 36.736 244.054 36.884 243.75 36.988C243.454 37.092 243.122 37.144 242.754 37.144ZM250.879 39.64C250.407 39.64 249.971 39.564 249.571 39.412C249.171 39.26 248.827 39.048 248.539 38.776C248.251 38.512 248.035 38.2 247.891 37.84L249.139 37.324C249.251 37.628 249.455 37.88 249.751 38.08C250.055 38.28 250.427 38.38 250.867 38.38C251.211 38.38 251.519 38.312 251.791 38.176C252.063 38.048 252.279 37.856 252.439 37.6C252.599 37.352 252.679 37.052 252.679 36.7V35.236L252.919 35.512C252.695 35.928 252.383 36.244 251.983 36.46C251.591 36.676 251.147 36.784 250.651 36.784C250.051 36.784 249.511 36.644 249.031 36.364C248.551 36.084 248.171 35.7 247.891 35.212C247.619 34.724 247.483 34.176 247.483 33.568C247.483 32.952 247.619 32.404 247.891 31.924C248.171 31.444 248.547 31.064 249.019 30.784C249.491 30.504 250.031 30.364 250.639 30.364C251.135 30.364 251.575 30.472 251.959 30.688C252.351 30.896 252.671 31.2 252.919 31.6L252.739 31.936V30.508H254.023V36.7C254.023 37.26 253.887 37.76 253.615 38.2C253.351 38.648 252.983 39 252.511 39.256C252.039 39.512 251.495 39.64 250.879 39.64ZM250.807 35.524C251.167 35.524 251.487 35.44 251.767 35.272C252.047 35.096 252.267 34.864 252.427 34.576C252.595 34.28 252.679 33.948 252.679 33.58C252.679 33.212 252.595 32.88 252.427 32.584C252.259 32.288 252.035 32.056 251.755 31.888C251.475 31.712 251.159 31.624 250.807 31.624C250.439 31.624 250.111 31.712 249.823 31.888C249.535 32.056 249.307 32.288 249.139 32.584C248.979 32.872 248.899 33.204 248.899 33.58C248.899 33.94 248.979 34.268 249.139 34.564C249.307 34.86 249.535 35.096 249.823 35.272C250.111 35.44 250.439 35.524 250.807 35.524ZM257.554 37.144C257.114 37.144 256.726 37.068 256.39 36.916C256.062 36.756 255.806 36.54 255.622 36.268C255.438 35.988 255.346 35.66 255.346 35.284C255.346 34.932 255.422 34.616 255.574 34.336C255.734 34.056 255.978 33.82 256.306 33.628C256.634 33.436 257.046 33.3 257.542 33.22L259.798 32.848V33.916L257.806 34.264C257.446 34.328 257.182 34.444 257.014 34.612C256.846 34.772 256.762 34.98 256.762 35.236C256.762 35.484 256.854 35.688 257.038 35.848C257.23 36 257.474 36.076 257.77 36.076C258.138 36.076 258.458 35.996 258.73 35.836C259.01 35.676 259.226 35.464 259.378 35.2C259.53 34.928 259.606 34.628 259.606 34.3V32.632C259.606 32.312 259.486 32.052 259.246 31.852C259.014 31.644 258.702 31.54 258.31 31.54C257.95 31.54 257.634 31.636 257.362 31.828C257.098 32.012 256.902 32.252 256.774 32.548L255.646 31.984C255.766 31.664 255.962 31.384 256.234 31.144C256.506 30.896 256.822 30.704 257.182 30.568C257.55 30.432 257.938 30.364 258.346 30.364C258.858 30.364 259.31 30.46 259.702 30.652C260.102 30.844 260.41 31.112 260.626 31.456C260.85 31.792 260.962 32.184 260.962 32.632V37H259.666V35.824L259.942 35.86C259.79 36.124 259.594 36.352 259.354 36.544C259.122 36.736 258.854 36.884 258.55 36.988C258.254 37.092 257.922 37.144 257.554 37.144ZM262.548 37V30.508H263.904V37H262.548ZM262.548 29.62V28.06H263.904V29.62H262.548ZM265.489 37V30.508H266.785V31.78L266.629 31.612C266.789 31.204 267.045 30.896 267.397 30.688C267.749 30.472 268.157 30.364 268.621 30.364C269.101 30.364 269.525 30.468 269.893 30.676C270.261 30.884 270.549 31.172 270.757 31.54C270.965 31.908 271.069 32.332 271.069 32.812V37H269.725V33.172C269.725 32.844 269.665 32.568 269.545 32.344C269.425 32.112 269.253 31.936 269.029 31.816C268.813 31.688 268.565 31.624 268.285 31.624C268.005 31.624 267.753 31.688 267.529 31.816C267.313 31.936 267.145 32.112 267.025 32.344C266.905 32.576 266.845 32.852 266.845 33.172V37H265.489ZM274.921 37.144C274.257 37.144 273.673 36.98 273.169 36.652C272.673 36.324 272.325 35.884 272.125 35.332L273.169 34.84C273.345 35.208 273.585 35.5 273.889 35.716C274.201 35.932 274.545 36.04 274.921 36.04C275.241 36.04 275.501 35.968 275.701 35.824C275.901 35.68 276.001 35.484 276.001 35.236C276.001 35.076 275.957 34.948 275.869 34.852C275.781 34.748 275.669 34.664 275.533 34.6C275.405 34.536 275.273 34.488 275.137 34.456L274.117 34.168C273.557 34.008 273.137 33.768 272.857 33.448C272.585 33.12 272.449 32.74 272.449 32.308C272.449 31.916 272.549 31.576 272.749 31.288C272.949 30.992 273.225 30.764 273.577 30.604C273.929 30.444 274.325 30.364 274.765 30.364C275.357 30.364 275.885 30.512 276.349 30.808C276.813 31.096 277.141 31.5 277.333 32.02L276.289 32.512C276.161 32.2 275.957 31.952 275.677 31.768C275.405 31.584 275.097 31.492 274.753 31.492C274.457 31.492 274.221 31.564 274.045 31.708C273.869 31.844 273.781 32.024 273.781 32.248C273.781 32.4 273.821 32.528 273.901 32.632C273.981 32.728 274.085 32.808 274.213 32.872C274.341 32.928 274.473 32.976 274.609 33.016L275.665 33.328C276.201 33.48 276.613 33.72 276.901 34.048C277.189 34.368 277.333 34.752 277.333 35.2C277.333 35.584 277.229 35.924 277.021 36.22C276.821 36.508 276.541 36.736 276.181 36.904C275.821 37.064 275.401 37.144 274.921 37.144ZM281.469 37.072C280.789 37.072 280.261 36.88 279.885 36.496C279.509 36.112 279.321 35.572 279.321 34.876V31.732H278.181V30.508H278.361C278.665 30.508 278.901 30.42 279.069 30.244C279.237 30.068 279.321 29.828 279.321 29.524V29.02H280.677V30.508H282.153V31.732H280.677V34.816C280.677 35.04 280.713 35.232 280.785 35.392C280.857 35.544 280.973 35.664 281.133 35.752C281.293 35.832 281.501 35.872 281.757 35.872C281.821 35.872 281.893 35.868 281.973 35.86C282.053 35.852 282.129 35.844 282.201 35.836V37C282.089 37.016 281.965 37.032 281.829 37.048C281.693 37.064 281.573 37.072 281.469 37.072ZM288.43 37.072C287.75 37.072 287.222 36.88 286.846 36.496C286.47 36.112 286.282 35.572 286.282 34.876V31.732H285.142V30.508H285.322C285.626 30.508 285.862 30.42 286.03 30.244C286.198 30.068 286.282 29.828 286.282 29.524V29.02H287.638V30.508H289.114V31.732H287.638V34.816C287.638 35.04 287.674 35.232 287.746 35.392C287.818 35.544 287.934 35.664 288.094 35.752C288.254 35.832 288.462 35.872 288.718 35.872C288.782 35.872 288.854 35.868 288.934 35.86C289.014 35.852 289.09 35.844 289.162 35.836V37C289.05 37.016 288.926 37.032 288.79 37.048C288.654 37.064 288.534 37.072 288.43 37.072ZM290.485 37V27.916H291.841V31.78L291.625 31.612C291.785 31.204 292.041 30.896 292.393 30.688C292.745 30.472 293.153 30.364 293.617 30.364C294.097 30.364 294.521 30.468 294.889 30.676C295.257 30.884 295.545 31.172 295.753 31.54C295.961 31.908 296.065 32.328 296.065 32.8V37H294.721V33.172C294.721 32.844 294.657 32.568 294.529 32.344C294.409 32.112 294.241 31.936 294.025 31.816C293.809 31.688 293.561 31.624 293.281 31.624C293.009 31.624 292.761 31.688 292.537 31.816C292.321 31.936 292.149 32.112 292.021 32.344C291.901 32.576 291.841 32.852 291.841 33.172V37H290.485ZM300.565 37.144C299.917 37.144 299.341 36.996 298.837 36.7C298.341 36.396 297.953 35.988 297.673 35.476C297.393 34.956 297.253 34.376 297.253 33.736C297.253 33.08 297.393 32.5 297.673 31.996C297.961 31.492 298.345 31.096 298.825 30.808C299.305 30.512 299.849 30.364 300.457 30.364C300.945 30.364 301.381 30.448 301.765 30.616C302.149 30.784 302.473 31.016 302.737 31.312C303.001 31.6 303.201 31.932 303.337 32.308C303.481 32.684 303.553 33.084 303.553 33.508C303.553 33.612 303.549 33.72 303.541 33.832C303.533 33.944 303.517 34.048 303.493 34.144H298.321V33.064H302.725L302.077 33.556C302.157 33.164 302.129 32.816 301.993 32.512C301.865 32.2 301.665 31.956 301.393 31.78C301.129 31.596 300.817 31.504 300.457 31.504C300.097 31.504 299.777 31.596 299.497 31.78C299.217 31.956 299.001 32.212 298.849 32.548C298.697 32.876 298.637 33.276 298.669 33.748C298.629 34.188 298.689 34.572 298.849 34.9C299.017 35.228 299.249 35.484 299.545 35.668C299.849 35.852 300.193 35.944 300.577 35.944C300.969 35.944 301.301 35.856 301.573 35.68C301.853 35.504 302.073 35.276 302.233 34.996L303.337 35.536C303.209 35.84 303.009 36.116 302.737 36.364C302.473 36.604 302.153 36.796 301.777 36.94C301.409 37.076 301.005 37.144 300.565 37.144ZM310.106 39.64C309.634 39.64 309.198 39.564 308.798 39.412C308.398 39.26 308.054 39.048 307.766 38.776C307.478 38.512 307.262 38.2 307.118 37.84L308.366 37.324C308.478 37.628 308.682 37.88 308.978 38.08C309.282 38.28 309.654 38.38 310.094 38.38C310.438 38.38 310.746 38.312 311.018 38.176C311.29 38.048 311.506 37.856 311.666 37.6C311.826 37.352 311.906 37.052 311.906 36.7V35.236L312.146 35.512C311.922 35.928 311.61 36.244 311.21 36.46C310.818 36.676 310.374 36.784 309.878 36.784C309.278 36.784 308.738 36.644 308.258 36.364C307.778 36.084 307.398 35.7 307.118 35.212C306.846 34.724 306.71 34.176 306.71 33.568C306.71 32.952 306.846 32.404 307.118 31.924C307.398 31.444 307.774 31.064 308.246 30.784C308.718 30.504 309.258 30.364 309.866 30.364C310.362 30.364 310.802 30.472 311.186 30.688C311.578 30.896 311.898 31.2 312.146 31.6L311.966 31.936V30.508H313.25V36.7C313.25 37.26 313.114 37.76 312.842 38.2C312.578 38.648 312.21 39 311.738 39.256C311.266 39.512 310.722 39.64 310.106 39.64ZM310.034 35.524C310.394 35.524 310.714 35.44 310.994 35.272C311.274 35.096 311.494 34.864 311.654 34.576C311.822 34.28 311.906 33.948 311.906 33.58C311.906 33.212 311.822 32.88 311.654 32.584C311.486 32.288 311.262 32.056 310.982 31.888C310.702 31.712 310.386 31.624 310.034 31.624C309.666 31.624 309.338 31.712 309.05 31.888C308.762 32.056 308.534 32.288 308.366 32.584C308.206 32.872 308.126 33.204 308.126 33.58C308.126 33.94 308.206 34.268 308.366 34.564C308.534 34.86 308.762 35.096 309.05 35.272C309.338 35.44 309.666 35.524 310.034 35.524ZM317.153 37.144C316.665 37.144 316.237 37.036 315.869 36.82C315.501 36.596 315.213 36.288 315.005 35.896C314.805 35.496 314.705 35.036 314.705 34.516V30.508H316.061V34.396C316.061 34.692 316.121 34.952 316.241 35.176C316.361 35.4 316.529 35.576 316.745 35.704C316.961 35.824 317.209 35.884 317.489 35.884C317.777 35.884 318.029 35.82 318.245 35.692C318.461 35.564 318.629 35.384 318.749 35.152C318.877 34.92 318.941 34.648 318.941 34.336V30.508H320.285V37H319.001V35.728L319.145 35.896C318.993 36.296 318.741 36.604 318.389 36.82C318.037 37.036 317.625 37.144 317.153 37.144ZM321.868 37V30.508H323.224V37H321.868ZM321.868 29.62V28.06H323.224V29.62H321.868ZM327.81 37.144C327.186 37.144 326.626 36.996 326.13 36.7C325.642 36.396 325.254 35.988 324.966 35.476C324.686 34.964 324.546 34.388 324.546 33.748C324.546 33.108 324.69 32.532 324.978 32.02C325.266 31.508 325.654 31.104 326.142 30.808C326.63 30.512 327.182 30.364 327.798 30.364C328.318 30.364 328.778 30.468 329.178 30.676C329.578 30.884 329.894 31.172 330.126 31.54L329.922 31.852V27.916H331.266V37H329.982V35.68L330.138 35.932C329.914 36.324 329.594 36.624 329.178 36.832C328.762 37.04 328.306 37.144 327.81 37.144ZM327.942 35.884C328.318 35.884 328.654 35.792 328.95 35.608C329.254 35.424 329.49 35.172 329.658 34.852C329.834 34.524 329.922 34.156 329.922 33.748C329.922 33.34 329.834 32.976 329.658 32.656C329.49 32.336 329.254 32.084 328.95 31.9C328.654 31.716 328.318 31.624 327.942 31.624C327.566 31.624 327.226 31.716 326.922 31.9C326.618 32.084 326.382 32.336 326.214 32.656C326.046 32.976 325.962 33.34 325.962 33.748C325.962 34.156 326.046 34.524 326.214 34.852C326.382 35.172 326.614 35.424 326.91 35.608C327.214 35.792 327.558 35.884 327.942 35.884ZM335.897 37.144C335.249 37.144 334.673 36.996 334.169 36.7C333.673 36.396 333.285 35.988 333.005 35.476C332.725 34.956 332.585 34.376 332.585 33.736C332.585 33.08 332.725 32.5 333.005 31.996C333.293 31.492 333.677 31.096 334.157 30.808C334.637 30.512 335.181 30.364 335.789 30.364C336.277 30.364 336.713 30.448 337.097 30.616C337.481 30.784 337.805 31.016 338.069 31.312C338.333 31.6 338.533 31.932 338.669 32.308C338.813 32.684 338.885 33.084 338.885 33.508C338.885 33.612 338.881 33.72 338.873 33.832C338.865 33.944 338.849 34.048 338.825 34.144H333.653V33.064H338.057L337.409 33.556C337.489 33.164 337.461 32.816 337.325 32.512C337.197 32.2 336.997 31.956 336.725 31.78C336.461 31.596 336.149 31.504 335.789 31.504C335.429 31.504 335.109 31.596 334.829 31.78C334.549 31.956 334.333 32.212 334.181 32.548C334.029 32.876 333.969 33.276 334.001 33.748C333.961 34.188 334.021 34.572 334.181 34.9C334.349 35.228 334.581 35.484 334.877 35.668C335.181 35.852 335.525 35.944 335.909 35.944C336.301 35.944 336.633 35.856 336.905 35.68C337.185 35.504 337.405 35.276 337.565 34.996L338.669 35.536C338.541 35.84 338.341 36.116 338.069 36.364C337.805 36.604 337.485 36.796 337.109 36.94C336.741 37.076 336.337 37.144 335.897 37.144ZM340.208 37V27.916H341.564V37H340.208ZM343.149 37V30.508H344.505V37H343.149ZM343.149 29.62V28.06H344.505V29.62H343.149ZM346.091 37V30.508H347.387V31.78L347.231 31.612C347.391 31.204 347.647 30.896 347.999 30.688C348.351 30.472 348.759 30.364 349.223 30.364C349.703 30.364 350.127 30.468 350.495 30.676C350.863 30.884 351.151 31.172 351.359 31.54C351.567 31.908 351.671 32.332 351.671 32.812V37H350.327V33.172C350.327 32.844 350.267 32.568 350.147 32.344C350.027 32.112 349.855 31.936 349.631 31.816C349.415 31.688 349.167 31.624 348.887 31.624C348.607 31.624 348.355 31.688 348.131 31.816C347.915 31.936 347.747 32.112 347.627 32.344C347.507 32.576 347.447 32.852 347.447 33.172V37H346.091ZM356.17 37.144C355.522 37.144 354.946 36.996 354.442 36.7C353.946 36.396 353.558 35.988 353.278 35.476C352.998 34.956 352.858 34.376 352.858 33.736C352.858 33.08 352.998 32.5 353.278 31.996C353.566 31.492 353.95 31.096 354.43 30.808C354.91 30.512 355.454 30.364 356.062 30.364C356.55 30.364 356.986 30.448 357.37 30.616C357.754 30.784 358.078 31.016 358.342 31.312C358.606 31.6 358.806 31.932 358.942 32.308C359.086 32.684 359.158 33.084 359.158 33.508C359.158 33.612 359.154 33.72 359.146 33.832C359.138 33.944 359.122 34.048 359.098 34.144H353.926V33.064H358.33L357.682 33.556C357.762 33.164 357.734 32.816 357.598 32.512C357.47 32.2 357.27 31.956 356.998 31.78C356.734 31.596 356.422 31.504 356.062 31.504C355.702 31.504 355.382 31.596 355.102 31.78C354.822 31.956 354.606 32.212 354.454 32.548C354.302 32.876 354.242 33.276 354.274 33.748C354.234 34.188 354.294 34.572 354.454 34.9C354.622 35.228 354.854 35.484 355.15 35.668C355.454 35.852 355.798 35.944 356.182 35.944C356.574 35.944 356.906 35.856 357.178 35.68C357.458 35.504 357.678 35.276 357.838 34.996L358.942 35.536C358.814 35.84 358.614 36.116 358.342 36.364C358.078 36.604 357.758 36.796 357.382 36.94C357.014 37.076 356.61 37.144 356.17 37.144ZM362.881 37.144C362.217 37.144 361.633 36.98 361.129 36.652C360.633 36.324 360.285 35.884 360.085 35.332L361.129 34.84C361.305 35.208 361.545 35.5 361.849 35.716C362.161 35.932 362.505 36.04 362.881 36.04C363.201 36.04 363.461 35.968 363.661 35.824C363.861 35.68 363.961 35.484 363.961 35.236C363.961 35.076 363.917 34.948 363.829 34.852C363.741 34.748 363.629 34.664 363.493 34.6C363.365 34.536 363.233 34.488 363.097 34.456L362.077 34.168C361.517 34.008 361.097 33.768 360.817 33.448C360.545 33.12 360.409 32.74 360.409 32.308C360.409 31.916 360.509 31.576 360.709 31.288C360.909 30.992 361.185 30.764 361.537 30.604C361.889 30.444 362.285 30.364 362.725 30.364C363.317 30.364 363.845 30.512 364.309 30.808C364.773 31.096 365.101 31.5 365.293 32.02L364.249 32.512C364.121 32.2 363.917 31.952 363.637 31.768C363.365 31.584 363.057 31.492 362.713 31.492C362.417 31.492 362.181 31.564 362.005 31.708C361.829 31.844 361.741 32.024 361.741 32.248C361.741 32.4 361.781 32.528 361.861 32.632C361.941 32.728 362.045 32.808 362.173 32.872C362.301 32.928 362.433 32.976 362.569 33.016L363.625 33.328C364.161 33.48 364.573 33.72 364.861 34.048C365.149 34.368 365.293 34.752 365.293 35.2C365.293 35.584 365.189 35.924 364.981 36.22C364.781 36.508 364.501 36.736 364.141 36.904C363.781 37.064 363.361 37.144 362.881 37.144ZM370.664 37.144C370.224 37.144 369.836 37.068 369.5 36.916C369.172 36.756 368.916 36.54 368.732 36.268C368.548 35.988 368.456 35.66 368.456 35.284C368.456 34.932 368.532 34.616 368.684 34.336C368.844 34.056 369.088 33.82 369.416 33.628C369.744 33.436 370.156 33.3 370.652 33.22L372.908 32.848V33.916L370.916 34.264C370.556 34.328 370.292 34.444 370.124 34.612C369.956 34.772 369.872 34.98 369.872 35.236C369.872 35.484 369.964 35.688 370.148 35.848C370.34 36 370.584 36.076 370.88 36.076C371.248 36.076 371.568 35.996 371.84 35.836C372.12 35.676 372.336 35.464 372.488 35.2C372.64 34.928 372.716 34.628 372.716 34.3V32.632C372.716 32.312 372.596 32.052 372.356 31.852C372.124 31.644 371.812 31.54 371.42 31.54C371.06 31.54 370.744 31.636 370.472 31.828C370.208 32.012 370.012 32.252 369.884 32.548L368.756 31.984C368.876 31.664 369.072 31.384 369.344 31.144C369.616 30.896 369.932 30.704 370.292 30.568C370.66 30.432 371.048 30.364 371.456 30.364C371.968 30.364 372.42 30.46 372.812 30.652C373.212 30.844 373.52 31.112 373.736 31.456C373.96 31.792 374.072 32.184 374.072 32.632V37H372.776V35.824L373.052 35.86C372.9 36.124 372.704 36.352 372.464 36.544C372.232 36.736 371.964 36.884 371.66 36.988C371.364 37.092 371.032 37.144 370.664 37.144ZM375.657 37V30.508H376.953V31.78L376.797 31.612C376.957 31.204 377.213 30.896 377.565 30.688C377.917 30.472 378.325 30.364 378.789 30.364C379.269 30.364 379.693 30.468 380.061 30.676C380.429 30.884 380.717 31.172 380.925 31.54C381.133 31.908 381.237 32.332 381.237 32.812V37H379.893V33.172C379.893 32.844 379.833 32.568 379.713 32.344C379.593 32.112 379.421 31.936 379.197 31.816C378.981 31.688 378.733 31.624 378.453 31.624C378.173 31.624 377.921 31.688 377.697 31.816C377.481 31.936 377.313 32.112 377.193 32.344C377.073 32.576 377.013 32.852 377.013 33.172V37H375.657ZM385.688 37.144C385.064 37.144 384.504 36.996 384.008 36.7C383.52 36.396 383.132 35.988 382.844 35.476C382.564 34.964 382.424 34.388 382.424 33.748C382.424 33.108 382.568 32.532 382.856 32.02C383.144 31.508 383.532 31.104 384.02 30.808C384.508 30.512 385.06 30.364 385.676 30.364C386.196 30.364 386.656 30.468 387.056 30.676C387.456 30.884 387.772 31.172 388.004 31.54L387.8 31.852V27.916H389.144V37H387.86V35.68L388.016 35.932C387.792 36.324 387.472 36.624 387.056 36.832C386.64 37.04 386.184 37.144 385.688 37.144ZM385.82 35.884C386.196 35.884 386.532 35.792 386.828 35.608C387.132 35.424 387.368 35.172 387.536 34.852C387.712 34.524 387.8 34.156 387.8 33.748C387.8 33.34 387.712 32.976 387.536 32.656C387.368 32.336 387.132 32.084 386.828 31.9C386.532 31.716 386.196 31.624 385.82 31.624C385.444 31.624 385.104 31.716 384.8 31.9C384.496 32.084 384.26 32.336 384.092 32.656C383.924 32.976 383.84 33.34 383.84 33.748C383.84 34.156 383.924 34.524 384.092 34.852C384.26 35.172 384.492 35.424 384.788 35.608C385.092 35.792 385.436 35.884 385.82 35.884ZM395.225 37.144C394.561 37.144 393.977 36.98 393.473 36.652C392.977 36.324 392.629 35.884 392.429 35.332L393.473 34.84C393.649 35.208 393.889 35.5 394.193 35.716C394.505 35.932 394.849 36.04 395.225 36.04C395.545 36.04 395.805 35.968 396.005 35.824C396.205 35.68 396.305 35.484 396.305 35.236C396.305 35.076 396.261 34.948 396.173 34.852C396.085 34.748 395.973 34.664 395.837 34.6C395.709 34.536 395.577 34.488 395.441 34.456L394.421 34.168C393.861 34.008 393.441 33.768 393.161 33.448C392.889 33.12 392.753 32.74 392.753 32.308C392.753 31.916 392.853 31.576 393.053 31.288C393.253 30.992 393.529 30.764 393.881 30.604C394.233 30.444 394.629 30.364 395.069 30.364C395.661 30.364 396.189 30.512 396.653 30.808C397.117 31.096 397.445 31.5 397.637 32.02L396.593 32.512C396.465 32.2 396.261 31.952 395.981 31.768C395.709 31.584 395.401 31.492 395.057 31.492C394.761 31.492 394.525 31.564 394.349 31.708C394.173 31.844 394.085 32.024 394.085 32.248C394.085 32.4 394.125 32.528 394.205 32.632C394.285 32.728 394.389 32.808 394.517 32.872C394.645 32.928 394.777 32.976 394.913 33.016L395.969 33.328C396.505 33.48 396.917 33.72 397.205 34.048C397.493 34.368 397.637 34.752 397.637 35.2C397.637 35.584 397.533 35.924 397.325 36.22C397.125 36.508 396.845 36.736 396.485 36.904C396.125 37.064 395.705 37.144 395.225 37.144ZM401.774 37.072C401.094 37.072 400.566 36.88 400.19 36.496C399.814 36.112 399.626 35.572 399.626 34.876V31.732H398.486V30.508H398.666C398.97 30.508 399.206 30.42 399.374 30.244C399.542 30.068 399.626 29.828 399.626 29.524V29.02H400.982V30.508H402.458V31.732H400.982V34.816C400.982 35.04 401.018 35.232 401.09 35.392C401.162 35.544 401.278 35.664 401.438 35.752C401.598 35.832 401.806 35.872 402.062 35.872C402.126 35.872 402.198 35.868 402.278 35.86C402.358 35.852 402.434 35.844 402.506 35.836V37C402.394 37.016 402.27 37.032 402.134 37.048C401.998 37.064 401.878 37.072 401.774 37.072ZM404.405 39.64C404.245 39.64 404.085 39.624 403.925 39.592C403.773 39.568 403.633 39.528 403.505 39.472V38.308C403.601 38.332 403.717 38.352 403.853 38.368C403.989 38.392 404.121 38.404 404.249 38.404C404.625 38.404 404.901 38.32 405.077 38.152C405.261 37.992 405.425 37.744 405.569 37.408L406.001 36.424L405.977 37.564L403.169 30.508H404.621L406.697 35.92H406.205L408.269 30.508H409.733L406.865 37.708C406.713 38.092 406.521 38.428 406.289 38.716C406.065 39.012 405.797 39.24 405.485 39.4C405.181 39.56 404.821 39.64 404.405 39.64ZM410.661 37V27.916H412.017V37H410.661ZM416.651 37.144C416.003 37.144 415.427 36.996 414.923 36.7C414.427 36.396 414.039 35.988 413.759 35.476C413.479 34.956 413.339 34.376 413.339 33.736C413.339 33.08 413.479 32.5 413.759 31.996C414.047 31.492 414.431 31.096 414.911 30.808C415.391 30.512 415.935 30.364 416.543 30.364C417.031 30.364 417.467 30.448 417.851 30.616C418.235 30.784 418.559 31.016 418.823 31.312C419.087 31.6 419.287 31.932 419.423 32.308C419.567 32.684 419.639 33.084 419.639 33.508C419.639 33.612 419.635 33.72 419.627 33.832C419.619 33.944 419.603 34.048 419.579 34.144H414.407V33.064H418.811L418.163 33.556C418.243 33.164 418.215 32.816 418.079 32.512C417.951 32.2 417.751 31.956 417.479 31.78C417.215 31.596 416.903 31.504 416.543 31.504C416.183 31.504 415.863 31.596 415.583 31.78C415.303 31.956 415.087 32.212 414.935 32.548C414.783 32.876 414.723 33.276 414.755 33.748C414.715 34.188 414.775 34.572 414.935 34.9C415.103 35.228 415.335 35.484 415.631 35.668C415.935 35.852 416.279 35.944 416.663 35.944C417.055 35.944 417.387 35.856 417.659 35.68C417.939 35.504 418.159 35.276 418.319 34.996L419.423 35.536C419.295 35.84 419.095 36.116 418.823 36.364C418.559 36.604 418.239 36.796 417.863 36.94C417.495 37.076 417.091 37.144 416.651 37.144ZM423.06 37V30.508H424.356V31.816L424.236 31.624C424.38 31.2 424.612 30.896 424.932 30.712C425.252 30.52 425.636 30.424 426.084 30.424H426.48V31.66H425.916C425.468 31.66 425.104 31.8 424.824 32.08C424.552 32.352 424.416 32.744 424.416 33.256V37H423.06ZM429.723 37.144C429.235 37.144 428.807 37.036 428.439 36.82C428.071 36.596 427.783 36.288 427.575 35.896C427.375 35.496 427.275 35.036 427.275 34.516V30.508H428.631V34.396C428.631 34.692 428.691 34.952 428.811 35.176C428.931 35.4 429.099 35.576 429.315 35.704C429.531 35.824 429.779 35.884 430.059 35.884C430.347 35.884 430.599 35.82 430.815 35.692C431.031 35.564 431.199 35.384 431.319 35.152C431.447 34.92 431.511 34.648 431.511 34.336V30.508H432.855V37H431.571V35.728L431.715 35.896C431.563 36.296 431.311 36.604 430.959 36.82C430.607 37.036 430.195 37.144 429.723 37.144ZM434.438 37V27.916H435.794V37H434.438ZM440.428 37.144C439.78 37.144 439.204 36.996 438.7 36.7C438.204 36.396 437.816 35.988 437.536 35.476C437.256 34.956 437.116 34.376 437.116 33.736C437.116 33.08 437.256 32.5 437.536 31.996C437.824 31.492 438.208 31.096 438.688 30.808C439.168 30.512 439.712 30.364 440.32 30.364C440.808 30.364 441.244 30.448 441.628 30.616C442.012 30.784 442.336 31.016 442.6 31.312C442.864 31.6 443.064 31.932 443.2 32.308C443.344 32.684 443.416 33.084 443.416 33.508C443.416 33.612 443.412 33.72 443.404 33.832C443.396 33.944 443.38 34.048 443.356 34.144H438.184V33.064H442.588L441.94 33.556C442.02 33.164 441.992 32.816 441.856 32.512C441.728 32.2 441.528 31.956 441.256 31.78C440.992 31.596 440.68 31.504 440.32 31.504C439.96 31.504 439.64 31.596 439.36 31.78C439.08 31.956 438.864 32.212 438.712 32.548C438.56 32.876 438.5 33.276 438.532 33.748C438.492 34.188 438.552 34.572 438.712 34.9C438.88 35.228 439.112 35.484 439.408 35.668C439.712 35.852 440.056 35.944 440.44 35.944C440.832 35.944 441.164 35.856 441.436 35.68C441.716 35.504 441.936 35.276 442.096 34.996L443.2 35.536C443.072 35.84 442.872 36.116 442.6 36.364C442.336 36.604 442.016 36.796 441.64 36.94C441.272 37.076 440.868 37.144 440.428 37.144ZM447.139 37.144C446.475 37.144 445.891 36.98 445.387 36.652C444.891 36.324 444.543 35.884 444.343 35.332L445.387 34.84C445.563 35.208 445.803 35.5 446.107 35.716C446.419 35.932 446.763 36.04 447.139 36.04C447.459 36.04 447.719 35.968 447.919 35.824C448.119 35.68 448.219 35.484 448.219 35.236C448.219 35.076 448.175 34.948 448.087 34.852C447.999 34.748 447.887 34.664 447.751 34.6C447.623 34.536 447.491 34.488 447.355 34.456L446.335 34.168C445.775 34.008 445.355 33.768 445.075 33.448C444.803 33.12 444.667 32.74 444.667 32.308C444.667 31.916 444.767 31.576 444.967 31.288C445.167 30.992 445.443 30.764 445.795 30.604C446.147 30.444 446.543 30.364 446.983 30.364C447.575 30.364 448.103 30.512 448.567 30.808C449.031 31.096 449.359 31.5 449.551 32.02L448.507 32.512C448.379 32.2 448.175 31.952 447.895 31.768C447.623 31.584 447.315 31.492 446.971 31.492C446.675 31.492 446.439 31.564 446.263 31.708C446.087 31.844 445.999 32.024 445.999 32.248C445.999 32.4 446.039 32.528 446.119 32.632C446.199 32.728 446.303 32.808 446.431 32.872C446.559 32.928 446.691 32.976 446.827 33.016L447.883 33.328C448.419 33.48 448.831 33.72 449.119 34.048C449.407 34.368 449.551 34.752 449.551 35.2C449.551 35.584 449.447 35.924 449.239 36.22C449.039 36.508 448.759 36.736 448.399 36.904C448.039 37.064 447.619 37.144 447.139 37.144Z" fill="black"/>
<rect x="188.5" y="56.5" width="223" height="223" rx="4.5" fill="white"/>
<rect x="188.5" y="56.5" width="223" height="223" rx="4.5" stroke="#9747FF" stroke-dasharray="10 5"/>
<g clip-path="url(#clip0_15_169)">
<circle cx="228" cy="96" r="16" fill="#E5E6E5"/>
<rect x="212" y="80" width="32" height="32" fill="url(#paint0_linear_15_169)"/>
</g>
<g clip-path="url(#clip1_15_169)">
<path d="M292 88C292 83.5817 295.582 80 300 80H380C384.418 80 388 83.5817 388 88V88C388 92.4183 384.418 96 380 96H300C295.582 96 292 92.4183 292 88V88Z" fill="#E5E6E5"/>
<rect opacity="0.5" x="292" y="80" width="96" height="16" fill="url(#paint1_linear_15_169)"/>
</g>
<g clip-path="url(#clip2_15_169)">
<circle cx="232" cy="156" r="20" fill="#E5E6E5"/>
<rect x="212" y="136" width="40" height="40" fill="url(#paint2_linear_15_169)"/>
</g>
<g clip-path="url(#clip3_15_169)">
<path d="M292 144C292 139.582 295.582 136 300 136H380C384.418 136 388 139.582 388 144V152C388 156.418 384.418 160 380 160H300C295.582 160 292 156.418 292 152V144Z" fill="#E5E6E5"/>
<rect opacity="0.5" x="292" y="136" width="96" height="24" fill="url(#paint3_linear_15_169)"/>
</g>
<g clip-path="url(#clip4_15_169)">
<circle cx="240" cy="228" r="28" fill="#E5E6E5"/>
<rect x="212" y="200" width="56" height="56" fill="url(#paint4_linear_15_169)"/>
</g>
<g clip-path="url(#clip5_15_169)">
<path d="M292 208C292 203.582 295.582 200 300 200H380C384.418 200 388 203.582 388 208V248C388 252.418 384.418 256 380 256H300C295.582 256 292 252.418 292 248V208Z" fill="#E5E6E5"/>
<rect opacity="0.5" x="292" y="200" width="96" height="56" fill="url(#paint5_linear_15_169)"/>
</g>
<defs>
<linearGradient id="paint0_linear_15_169" x1="244" y1="96" x2="212" y2="96" gradientUnits="userSpaceOnUse">
<stop stop-color="white" stop-opacity="0"/>
<stop offset="0.5" stop-color="white"/>
<stop offset="1" stop-color="white" stop-opacity="0"/>
</linearGradient>
<linearGradient id="paint1_linear_15_169" x1="388" y1="88" x2="292" y2="88" gradientUnits="userSpaceOnUse">
<stop stop-color="white" stop-opacity="0"/>
<stop offset="0.5" stop-color="white"/>
<stop offset="1" stop-color="white" stop-opacity="0"/>
</linearGradient>
<linearGradient id="paint2_linear_15_169" x1="252" y1="156" x2="212" y2="156" gradientUnits="userSpaceOnUse">
<stop stop-color="white" stop-opacity="0"/>
<stop offset="0.5" stop-color="white"/>
<stop offset="1" stop-color="white" stop-opacity="0"/>
</linearGradient>
<linearGradient id="paint3_linear_15_169" x1="388" y1="148" x2="292" y2="148" gradientUnits="userSpaceOnUse">
<stop stop-color="white" stop-opacity="0"/>
<stop offset="0.5" stop-color="white"/>
<stop offset="1" stop-color="white" stop-opacity="0"/>
</linearGradient>
<linearGradient id="paint4_linear_15_169" x1="268" y1="228" x2="212" y2="228" gradientUnits="userSpaceOnUse">
<stop stop-color="white" stop-opacity="0"/>
<stop offset="0.5" stop-color="white"/>
<stop offset="1" stop-color="white" stop-opacity="0"/>
</linearGradient>
<linearGradient id="paint5_linear_15_169" x1="388" y1="228" x2="292" y2="228" gradientUnits="userSpaceOnUse">
<stop stop-color="white" stop-opacity="0"/>
<stop offset="0.5" stop-color="white"/>
<stop offset="1" stop-color="white" stop-opacity="0"/>
</linearGradient>
<clipPath id="clip0_15_169">
<path d="M212 96C212 87.1634 219.163 80 228 80V80C236.837 80 244 87.1634 244 96V96C244 104.837 236.837 112 228 112V112C219.163 112 212 104.837 212 96V96Z" fill="white"/>
</clipPath>
<clipPath id="clip1_15_169">
<rect width="96" height="16" fill="white" transform="translate(292 80)"/>
</clipPath>
<clipPath id="clip2_15_169">
<path d="M212 156C212 144.954 220.954 136 232 136V136C243.046 136 252 144.954 252 156V156C252 167.046 243.046 176 232 176V176C220.954 176 212 167.046 212 156V156Z" fill="white"/>
</clipPath>
<clipPath id="clip3_15_169">
<rect width="96" height="24" fill="white" transform="translate(292 136)"/>
</clipPath>
<clipPath id="clip4_15_169">
<path d="M212 228C212 212.536 224.536 200 240 200V200C255.464 200 268 212.536 268 228V228C268 243.464 255.464 256 240 256V256C224.536 256 212 243.464 212 228V228Z" fill="white"/>
</clipPath>
<clipPath id="clip5_15_169">
<rect width="96" height="56" fill="white" transform="translate(292 200)"/>
</clipPath>
</defs>
</svg>
