<svg width="600" height="360" viewBox="0 0 600 360" fill="none" xmlns="http://www.w3.org/2000/svg">
<rect x="0.5" y="0.5" width="599" height="359" rx="15.5" fill="white"/>
<rect x="0.5" y="0.5" width="599" height="359" rx="15.5" stroke="#E6E7E5"/>
<path d="M148.307 37V28.06H149.723V35.74H153.587V37H148.307ZM154.644 37V30.508H156V37H154.644ZM154.644 29.62V28.06H156V29.62H154.644ZM160.717 39.64C160.245 39.64 159.809 39.564 159.409 39.412C159.009 39.26 158.665 39.048 158.377 38.776C158.089 38.512 157.873 38.2 157.729 37.84L158.977 37.324C159.089 37.628 159.293 37.88 159.589 38.08C159.893 38.28 160.265 38.38 160.705 38.38C161.049 38.38 161.357 38.312 161.629 38.176C161.901 38.048 162.117 37.856 162.277 37.6C162.437 37.352 162.517 37.052 162.517 36.7V35.236L162.757 35.512C162.533 35.928 162.221 36.244 161.821 36.46C161.429 36.676 160.985 36.784 160.489 36.784C159.889 36.784 159.349 36.644 158.869 36.364C158.389 36.084 158.009 35.7 157.729 35.212C157.457 34.724 157.321 34.176 157.321 33.568C157.321 32.952 157.457 32.404 157.729 31.924C158.009 31.444 158.385 31.064 158.857 30.784C159.329 30.504 159.869 30.364 160.477 30.364C160.973 30.364 161.413 30.472 161.797 30.688C162.189 30.896 162.509 31.2 162.757 31.6L162.577 31.936V30.508H163.861V36.7C163.861 37.26 163.725 37.76 163.453 38.2C163.189 38.648 162.821 39 162.349 39.256C161.877 39.512 161.333 39.64 160.717 39.64ZM160.645 35.524C161.005 35.524 161.325 35.44 161.605 35.272C161.885 35.096 162.105 34.864 162.265 34.576C162.433 34.28 162.517 33.948 162.517 33.58C162.517 33.212 162.433 32.88 162.265 32.584C162.097 32.288 161.873 32.056 161.593 31.888C161.313 31.712 160.997 31.624 160.645 31.624C160.277 31.624 159.949 31.712 159.661 31.888C159.373 32.056 159.145 32.288 158.977 32.584C158.817 32.872 158.737 33.204 158.737 33.58C158.737 33.94 158.817 34.268 158.977 34.564C159.145 34.86 159.373 35.096 159.661 35.272C159.949 35.44 160.277 35.524 160.645 35.524ZM165.448 37V27.916H166.804V31.78L166.588 31.612C166.748 31.204 167.004 30.896 167.356 30.688C167.708 30.472 168.116 30.364 168.58 30.364C169.06 30.364 169.484 30.468 169.852 30.676C170.22 30.884 170.508 31.172 170.716 31.54C170.924 31.908 171.028 32.328 171.028 32.8V37H169.684V33.172C169.684 32.844 169.62 32.568 169.492 32.344C169.372 32.112 169.204 31.936 168.988 31.816C168.772 31.688 168.524 31.624 168.244 31.624C167.972 31.624 167.724 31.688 167.5 31.816C167.284 31.936 167.112 32.112 166.984 32.344C166.864 32.576 166.804 32.852 166.804 33.172V37H165.448ZM175.288 37.072C174.608 37.072 174.08 36.88 173.704 36.496C173.328 36.112 173.14 35.572 173.14 34.876V31.732H172V30.508H172.18C172.484 30.508 172.72 30.42 172.888 30.244C173.056 30.068 173.14 29.828 173.14 29.524V29.02H174.496V30.508H175.972V31.732H174.496V34.816C174.496 35.04 174.532 35.232 174.604 35.392C174.676 35.544 174.792 35.664 174.952 35.752C175.112 35.832 175.32 35.872 175.576 35.872C175.64 35.872 175.712 35.868 175.792 35.86C175.872 35.852 175.948 35.844 176.02 35.836V37C175.908 37.016 175.784 37.032 175.648 37.048C175.512 37.064 175.392 37.072 175.288 37.072ZM179.572 37V28.06H180.892L184.252 32.716H183.592L186.892 28.06H188.212V37H186.808V29.728L187.336 29.872L183.964 34.48H183.82L180.52 29.872L180.988 29.728V37H179.572ZM193.061 37.144C192.437 37.144 191.865 36.996 191.345 36.7C190.833 36.404 190.425 36 190.121 35.488C189.817 34.976 189.665 34.396 189.665 33.748C189.665 33.092 189.817 32.512 190.121 32.008C190.425 31.496 190.833 31.096 191.345 30.808C191.857 30.512 192.429 30.364 193.061 30.364C193.701 30.364 194.273 30.512 194.777 30.808C195.289 31.096 195.693 31.496 195.989 32.008C196.293 32.512 196.445 33.092 196.445 33.748C196.445 34.404 196.293 34.988 195.989 35.5C195.685 36.012 195.277 36.416 194.765 36.712C194.253 37 193.685 37.144 193.061 37.144ZM193.061 35.884C193.445 35.884 193.785 35.792 194.081 35.608C194.377 35.424 194.609 35.172 194.777 34.852C194.953 34.524 195.041 34.156 195.041 33.748C195.041 33.34 194.953 32.976 194.777 32.656C194.609 32.336 194.377 32.084 194.081 31.9C193.785 31.716 193.445 31.624 193.061 31.624C192.685 31.624 192.345 31.716 192.041 31.9C191.745 32.084 191.509 32.336 191.333 32.656C191.165 32.976 191.081 33.34 191.081 33.748C191.081 34.156 191.165 34.524 191.333 34.852C191.509 35.172 191.745 35.424 192.041 35.608C192.345 35.792 192.685 35.884 193.061 35.884ZM200.769 37.144C200.145 37.144 199.585 36.996 199.089 36.7C198.601 36.396 198.213 35.988 197.925 35.476C197.645 34.964 197.505 34.388 197.505 33.748C197.505 33.108 197.649 32.532 197.937 32.02C198.225 31.508 198.613 31.104 199.101 30.808C199.589 30.512 200.141 30.364 200.757 30.364C201.277 30.364 201.737 30.468 202.137 30.676C202.537 30.884 202.853 31.172 203.085 31.54L202.881 31.852V27.916H204.225V37H202.941V35.68L203.097 35.932C202.873 36.324 202.553 36.624 202.137 36.832C201.721 37.04 201.265 37.144 200.769 37.144ZM200.901 35.884C201.277 35.884 201.613 35.792 201.909 35.608C202.213 35.424 202.449 35.172 202.617 34.852C202.793 34.524 202.881 34.156 202.881 33.748C202.881 33.34 202.793 32.976 202.617 32.656C202.449 32.336 202.213 32.084 201.909 31.9C201.613 31.716 201.277 31.624 200.901 31.624C200.525 31.624 200.185 31.716 199.881 31.9C199.577 32.084 199.341 32.336 199.173 32.656C199.005 32.976 198.921 33.34 198.921 33.748C198.921 34.156 199.005 34.524 199.173 34.852C199.341 35.172 199.573 35.424 199.869 35.608C200.173 35.792 200.517 35.884 200.901 35.884ZM208.856 37.144C208.208 37.144 207.632 36.996 207.128 36.7C206.632 36.396 206.244 35.988 205.964 35.476C205.684 34.956 205.544 34.376 205.544 33.736C205.544 33.08 205.684 32.5 205.964 31.996C206.252 31.492 206.636 31.096 207.116 30.808C207.596 30.512 208.14 30.364 208.748 30.364C209.236 30.364 209.672 30.448 210.056 30.616C210.44 30.784 210.764 31.016 211.028 31.312C211.292 31.6 211.492 31.932 211.628 32.308C211.772 32.684 211.844 33.084 211.844 33.508C211.844 33.612 211.84 33.72 211.832 33.832C211.824 33.944 211.808 34.048 211.784 34.144H206.612V33.064H211.016L210.368 33.556C210.448 33.164 210.42 32.816 210.284 32.512C210.156 32.2 209.956 31.956 209.684 31.78C209.42 31.596 209.108 31.504 208.748 31.504C208.388 31.504 208.068 31.596 207.788 31.78C207.508 31.956 207.292 32.212 207.14 32.548C206.988 32.876 206.928 33.276 206.96 33.748C206.92 34.188 206.98 34.572 207.14 34.9C207.308 35.228 207.54 35.484 207.836 35.668C208.14 35.852 208.484 35.944 208.868 35.944C209.26 35.944 209.592 35.856 209.864 35.68C210.144 35.504 210.364 35.276 210.524 34.996L211.628 35.536C211.5 35.84 211.3 36.116 211.028 36.364C210.764 36.604 210.444 36.796 210.068 36.94C209.7 37.076 209.296 37.144 208.856 37.144ZM218.349 37.144C217.701 37.144 217.125 36.996 216.621 36.7C216.125 36.396 215.729 35.988 215.433 35.476C215.145 34.964 215.001 34.384 215.001 33.736C215.001 33.096 215.145 32.52 215.433 32.008C215.721 31.496 216.117 31.096 216.621 30.808C217.125 30.512 217.701 30.364 218.349 30.364C218.789 30.364 219.201 30.444 219.585 30.604C219.969 30.756 220.301 30.968 220.581 31.24C220.869 31.512 221.081 31.828 221.217 32.188L220.029 32.74C219.893 32.404 219.673 32.136 219.369 31.936C219.073 31.728 218.733 31.624 218.349 31.624C217.981 31.624 217.649 31.716 217.353 31.9C217.065 32.076 216.837 32.328 216.669 32.656C216.501 32.976 216.417 33.34 216.417 33.748C216.417 34.156 216.501 34.524 216.669 34.852C216.837 35.172 217.065 35.424 217.353 35.608C217.649 35.792 217.981 35.884 218.349 35.884C218.741 35.884 219.081 35.784 219.369 35.584C219.665 35.376 219.885 35.1 220.029 34.756L221.217 35.32C221.089 35.664 220.881 35.976 220.593 36.256C220.313 36.528 219.981 36.744 219.597 36.904C219.213 37.064 218.797 37.144 218.349 37.144ZM225.674 37.144C225.05 37.144 224.478 36.996 223.958 36.7C223.446 36.404 223.038 36 222.734 35.488C222.43 34.976 222.278 34.396 222.278 33.748C222.278 33.092 222.43 32.512 222.734 32.008C223.038 31.496 223.446 31.096 223.958 30.808C224.47 30.512 225.042 30.364 225.674 30.364C226.314 30.364 226.886 30.512 227.39 30.808C227.902 31.096 228.306 31.496 228.602 32.008C228.906 32.512 229.058 33.092 229.058 33.748C229.058 34.404 228.906 34.988 228.602 35.5C228.298 36.012 227.89 36.416 227.378 36.712C226.866 37 226.298 37.144 225.674 37.144ZM225.674 35.884C226.058 35.884 226.398 35.792 226.694 35.608C226.99 35.424 227.222 35.172 227.39 34.852C227.566 34.524 227.654 34.156 227.654 33.748C227.654 33.34 227.566 32.976 227.39 32.656C227.222 32.336 226.99 32.084 226.694 31.9C226.398 31.716 226.058 31.624 225.674 31.624C225.298 31.624 224.958 31.716 224.654 31.9C224.358 32.084 224.122 32.336 223.946 32.656C223.778 32.976 223.694 33.34 223.694 33.748C223.694 34.156 223.778 34.524 223.946 34.852C224.122 35.172 224.358 35.424 224.654 35.608C224.958 35.792 225.298 35.884 225.674 35.884ZM230.382 37V30.508H231.678V31.912L231.51 31.696C231.646 31.256 231.894 30.924 232.254 30.7C232.614 30.476 233.026 30.364 233.49 30.364C234.01 30.364 234.47 30.504 234.87 30.784C235.278 31.056 235.55 31.42 235.686 31.876L235.302 31.912C235.494 31.392 235.786 31.004 236.178 30.748C236.578 30.492 237.034 30.364 237.546 30.364C237.994 30.364 238.398 30.468 238.758 30.676C239.126 30.884 239.418 31.172 239.634 31.54C239.85 31.908 239.958 32.328 239.958 32.8V37H238.602V33.172C238.602 32.844 238.542 32.568 238.422 32.344C238.31 32.112 238.15 31.936 237.942 31.816C237.742 31.688 237.506 31.624 237.234 31.624C236.962 31.624 236.722 31.688 236.514 31.816C236.306 31.936 236.142 32.112 236.022 32.344C235.902 32.576 235.842 32.852 235.842 33.172V37H234.498V33.172C234.498 32.844 234.438 32.568 234.318 32.344C234.206 32.112 234.046 31.936 233.838 31.816C233.638 31.688 233.398 31.624 233.118 31.624C232.846 31.624 232.606 31.688 232.398 31.816C232.19 31.936 232.026 32.112 231.906 32.344C231.794 32.576 231.738 32.852 231.738 33.172V37H230.382ZM142.505 53.144C141.857 53.144 141.281 52.996 140.777 52.7C140.281 52.396 139.885 51.988 139.589 51.476C139.301 50.964 139.157 50.384 139.157 49.736C139.157 49.096 139.301 48.52 139.589 48.008C139.877 47.496 140.273 47.096 140.777 46.808C141.281 46.512 141.857 46.364 142.505 46.364C142.945 46.364 143.357 46.444 143.741 46.604C144.125 46.756 144.457 46.968 144.737 47.24C145.025 47.512 145.237 47.828 145.373 48.188L144.185 48.74C144.049 48.404 143.829 48.136 143.525 47.936C143.229 47.728 142.889 47.624 142.505 47.624C142.137 47.624 141.805 47.716 141.509 47.9C141.221 48.076 140.993 48.328 140.825 48.656C140.657 48.976 140.573 49.34 140.573 49.748C140.573 50.156 140.657 50.524 140.825 50.852C140.993 51.172 141.221 51.424 141.509 51.608C141.805 51.792 142.137 51.884 142.505 51.884C142.897 51.884 143.237 51.784 143.525 51.584C143.821 51.376 144.041 51.1 144.185 50.756L145.373 51.32C145.245 51.664 145.037 51.976 144.749 52.256C144.469 52.528 144.137 52.744 143.753 52.904C143.369 53.064 142.953 53.144 142.505 53.144ZM149.83 53.144C149.206 53.144 148.634 52.996 148.114 52.7C147.602 52.404 147.194 52 146.89 51.488C146.586 50.976 146.434 50.396 146.434 49.748C146.434 49.092 146.586 48.512 146.89 48.008C147.194 47.496 147.602 47.096 148.114 46.808C148.626 46.512 149.198 46.364 149.83 46.364C150.47 46.364 151.042 46.512 151.546 46.808C152.058 47.096 152.462 47.496 152.758 48.008C153.062 48.512 153.214 49.092 153.214 49.748C153.214 50.404 153.062 50.988 152.758 51.5C152.454 52.012 152.046 52.416 151.534 52.712C151.022 53 150.454 53.144 149.83 53.144ZM149.83 51.884C150.214 51.884 150.554 51.792 150.85 51.608C151.146 51.424 151.378 51.172 151.546 50.852C151.722 50.524 151.81 50.156 151.81 49.748C151.81 49.34 151.722 48.976 151.546 48.656C151.378 48.336 151.146 48.084 150.85 47.9C150.554 47.716 150.214 47.624 149.83 47.624C149.454 47.624 149.114 47.716 148.81 47.9C148.514 48.084 148.278 48.336 148.102 48.656C147.934 48.976 147.85 49.34 147.85 49.748C147.85 50.156 147.934 50.524 148.102 50.852C148.278 51.172 148.514 51.424 148.81 51.608C149.114 51.792 149.454 51.884 149.83 51.884ZM154.538 53V46.508H155.834V47.78L155.678 47.612C155.838 47.204 156.094 46.896 156.446 46.688C156.798 46.472 157.206 46.364 157.67 46.364C158.15 46.364 158.574 46.468 158.942 46.676C159.31 46.884 159.598 47.172 159.806 47.54C160.014 47.908 160.118 48.332 160.118 48.812V53H158.774V49.172C158.774 48.844 158.714 48.568 158.594 48.344C158.474 48.112 158.302 47.936 158.078 47.816C157.862 47.688 157.614 47.624 157.334 47.624C157.054 47.624 156.802 47.688 156.578 47.816C156.362 47.936 156.194 48.112 156.074 48.344C155.954 48.576 155.894 48.852 155.894 49.172V53H154.538ZM163.969 53.144C163.305 53.144 162.721 52.98 162.217 52.652C161.721 52.324 161.373 51.884 161.173 51.332L162.217 50.84C162.393 51.208 162.633 51.5 162.937 51.716C163.249 51.932 163.593 52.04 163.969 52.04C164.289 52.04 164.549 51.968 164.749 51.824C164.949 51.68 165.049 51.484 165.049 51.236C165.049 51.076 165.005 50.948 164.917 50.852C164.829 50.748 164.717 50.664 164.581 50.6C164.453 50.536 164.321 50.488 164.185 50.456L163.165 50.168C162.605 50.008 162.185 49.768 161.905 49.448C161.633 49.12 161.497 48.74 161.497 48.308C161.497 47.916 161.597 47.576 161.797 47.288C161.997 46.992 162.273 46.764 162.625 46.604C162.977 46.444 163.373 46.364 163.813 46.364C164.405 46.364 164.933 46.512 165.397 46.808C165.861 47.096 166.189 47.5 166.381 48.02L165.337 48.512C165.209 48.2 165.005 47.952 164.725 47.768C164.453 47.584 164.145 47.492 163.801 47.492C163.505 47.492 163.269 47.564 163.093 47.708C162.917 47.844 162.829 48.024 162.829 48.248C162.829 48.4 162.869 48.528 162.949 48.632C163.029 48.728 163.133 48.808 163.261 48.872C163.389 48.928 163.521 48.976 163.657 49.016L164.713 49.328C165.249 49.48 165.661 49.72 165.949 50.048C166.237 50.368 166.381 50.752 166.381 51.2C166.381 51.584 166.277 51.924 166.069 52.22C165.869 52.508 165.589 52.736 165.229 52.904C164.869 53.064 164.449 53.144 163.969 53.144ZM170.518 53.072C169.838 53.072 169.31 52.88 168.934 52.496C168.558 52.112 168.37 51.572 168.37 50.876V47.732H167.23V46.508H167.41C167.714 46.508 167.95 46.42 168.118 46.244C168.286 46.068 168.37 45.828 168.37 45.524V45.02H169.726V46.508H171.202V47.732H169.726V50.816C169.726 51.04 169.762 51.232 169.834 51.392C169.906 51.544 170.022 51.664 170.182 51.752C170.342 51.832 170.55 51.872 170.806 51.872C170.87 51.872 170.942 51.868 171.022 51.86C171.102 51.852 171.178 51.844 171.25 51.836V53C171.138 53.016 171.014 53.032 170.878 53.048C170.742 53.064 170.622 53.072 170.518 53.072ZM172.573 53V46.508H173.869V47.816L173.749 47.624C173.893 47.2 174.125 46.896 174.445 46.712C174.765 46.52 175.149 46.424 175.597 46.424H175.993V47.66H175.429C174.981 47.66 174.617 47.8 174.337 48.08C174.065 48.352 173.929 48.744 173.929 49.256V53H172.573ZM178.865 53.144C178.425 53.144 178.037 53.068 177.701 52.916C177.373 52.756 177.117 52.54 176.933 52.268C176.749 51.988 176.657 51.66 176.657 51.284C176.657 50.932 176.733 50.616 176.885 50.336C177.045 50.056 177.289 49.82 177.617 49.628C177.945 49.436 178.357 49.3 178.853 49.22L181.109 48.848V49.916L179.117 50.264C178.757 50.328 178.493 50.444 178.325 50.612C178.157 50.772 178.073 50.98 178.073 51.236C178.073 51.484 178.165 51.688 178.349 51.848C178.541 52 178.785 52.076 179.081 52.076C179.449 52.076 179.769 51.996 180.041 51.836C180.321 51.676 180.537 51.464 180.689 51.2C180.841 50.928 180.917 50.628 180.917 50.3V48.632C180.917 48.312 180.797 48.052 180.557 47.852C180.325 47.644 180.013 47.54 179.621 47.54C179.261 47.54 178.945 47.636 178.673 47.828C178.409 48.012 178.213 48.252 178.085 48.548L176.957 47.984C177.077 47.664 177.273 47.384 177.545 47.144C177.817 46.896 178.133 46.704 178.493 46.568C178.861 46.432 179.249 46.364 179.657 46.364C180.169 46.364 180.621 46.46 181.013 46.652C181.413 46.844 181.721 47.112 181.937 47.456C182.161 47.792 182.273 48.184 182.273 48.632V53H180.977V51.824L181.253 51.86C181.101 52.124 180.905 52.352 180.665 52.544C180.433 52.736 180.165 52.884 179.861 52.988C179.565 53.092 179.233 53.144 178.865 53.144ZM186.258 53.144C185.594 53.144 185.01 52.98 184.506 52.652C184.01 52.324 183.662 51.884 183.462 51.332L184.506 50.84C184.682 51.208 184.922 51.5 185.226 51.716C185.538 51.932 185.882 52.04 186.258 52.04C186.578 52.04 186.838 51.968 187.038 51.824C187.238 51.68 187.338 51.484 187.338 51.236C187.338 51.076 187.294 50.948 187.206 50.852C187.118 50.748 187.006 50.664 186.87 50.6C186.742 50.536 186.61 50.488 186.474 50.456L185.454 50.168C184.894 50.008 184.474 49.768 184.194 49.448C183.922 49.12 183.786 48.74 183.786 48.308C183.786 47.916 183.886 47.576 184.086 47.288C184.286 46.992 184.562 46.764 184.914 46.604C185.266 46.444 185.662 46.364 186.102 46.364C186.694 46.364 187.222 46.512 187.686 46.808C188.15 47.096 188.478 47.5 188.67 48.02L187.626 48.512C187.498 48.2 187.294 47.952 187.014 47.768C186.742 47.584 186.434 47.492 186.09 47.492C185.794 47.492 185.558 47.564 185.382 47.708C185.206 47.844 185.118 48.024 185.118 48.248C185.118 48.4 185.158 48.528 185.238 48.632C185.318 48.728 185.422 48.808 185.55 48.872C185.678 48.928 185.81 48.976 185.946 49.016L187.002 49.328C187.538 49.48 187.95 49.72 188.238 50.048C188.526 50.368 188.67 50.752 188.67 51.2C188.67 51.584 188.566 51.924 188.358 52.22C188.158 52.508 187.878 52.736 187.518 52.904C187.158 53.064 186.738 53.144 186.258 53.144ZM192.807 53.072C192.127 53.072 191.599 52.88 191.223 52.496C190.847 52.112 190.659 51.572 190.659 50.876V47.732H189.519V46.508H189.699C190.003 46.508 190.239 46.42 190.407 46.244C190.575 46.068 190.659 45.828 190.659 45.524V45.02H192.015V46.508H193.491V47.732H192.015V50.816C192.015 51.04 192.051 51.232 192.123 51.392C192.195 51.544 192.311 51.664 192.471 51.752C192.631 51.832 192.839 51.872 193.095 51.872C193.159 51.872 193.231 51.868 193.311 51.86C193.391 51.852 193.467 51.844 193.539 51.836V53C193.427 53.016 193.303 53.032 193.167 53.048C193.031 53.064 192.911 53.072 192.807 53.072ZM197.793 53.144C197.145 53.144 196.569 52.996 196.065 52.7C195.569 52.396 195.181 51.988 194.901 51.476C194.621 50.956 194.481 50.376 194.481 49.736C194.481 49.08 194.621 48.5 194.901 47.996C195.189 47.492 195.573 47.096 196.053 46.808C196.533 46.512 197.077 46.364 197.685 46.364C198.173 46.364 198.609 46.448 198.993 46.616C199.377 46.784 199.701 47.016 199.965 47.312C200.229 47.6 200.429 47.932 200.565 48.308C200.709 48.684 200.781 49.084 200.781 49.508C200.781 49.612 200.777 49.72 200.769 49.832C200.761 49.944 200.745 50.048 200.721 50.144H195.549V49.064H199.953L199.305 49.556C199.385 49.164 199.357 48.816 199.221 48.512C199.093 48.2 198.893 47.956 198.621 47.78C198.357 47.596 198.045 47.504 197.685 47.504C197.325 47.504 197.005 47.596 196.725 47.78C196.445 47.956 196.229 48.212 196.077 48.548C195.925 48.876 195.865 49.276 195.897 49.748C195.857 50.188 195.917 50.572 196.077 50.9C196.245 51.228 196.477 51.484 196.773 51.668C197.077 51.852 197.421 51.944 197.805 51.944C198.197 51.944 198.529 51.856 198.801 51.68C199.081 51.504 199.301 51.276 199.461 50.996L200.565 51.536C200.437 51.84 200.237 52.116 199.965 52.364C199.701 52.604 199.381 52.796 199.005 52.94C198.637 53.076 198.233 53.144 197.793 53.144ZM207.202 53.144C206.578 53.144 206.018 52.996 205.522 52.7C205.034 52.396 204.646 51.988 204.358 51.476C204.078 50.964 203.938 50.388 203.938 49.748C203.938 49.108 204.082 48.532 204.37 48.02C204.658 47.508 205.046 47.104 205.534 46.808C206.022 46.512 206.574 46.364 207.19 46.364C207.71 46.364 208.17 46.468 208.57 46.676C208.97 46.884 209.286 47.172 209.518 47.54L209.314 47.852V43.916H210.658V53H209.374V51.68L209.53 51.932C209.306 52.324 208.986 52.624 208.57 52.832C208.154 53.04 207.698 53.144 207.202 53.144ZM207.334 51.884C207.71 51.884 208.046 51.792 208.342 51.608C208.646 51.424 208.882 51.172 209.05 50.852C209.226 50.524 209.314 50.156 209.314 49.748C209.314 49.34 209.226 48.976 209.05 48.656C208.882 48.336 208.646 48.084 208.342 47.9C208.046 47.716 207.71 47.624 207.334 47.624C206.958 47.624 206.618 47.716 206.314 47.9C206.01 48.084 205.774 48.336 205.606 48.656C205.438 48.976 205.354 49.34 205.354 49.748C205.354 50.156 205.438 50.524 205.606 50.852C205.774 51.172 206.006 51.424 206.302 51.608C206.606 51.792 206.95 51.884 207.334 51.884ZM215.289 53.144C214.641 53.144 214.065 52.996 213.561 52.7C213.065 52.396 212.677 51.988 212.397 51.476C212.117 50.956 211.977 50.376 211.977 49.736C211.977 49.08 212.117 48.5 212.397 47.996C212.685 47.492 213.069 47.096 213.549 46.808C214.029 46.512 214.573 46.364 215.181 46.364C215.669 46.364 216.105 46.448 216.489 46.616C216.873 46.784 217.197 47.016 217.461 47.312C217.725 47.6 217.925 47.932 218.061 48.308C218.205 48.684 218.277 49.084 218.277 49.508C218.277 49.612 218.273 49.72 218.265 49.832C218.257 49.944 218.241 50.048 218.217 50.144H213.045V49.064H217.449L216.801 49.556C216.881 49.164 216.853 48.816 216.717 48.512C216.589 48.2 216.389 47.956 216.117 47.78C215.853 47.596 215.541 47.504 215.181 47.504C214.821 47.504 214.501 47.596 214.221 47.78C213.941 47.956 213.725 48.212 213.573 48.548C213.421 48.876 213.361 49.276 213.393 49.748C213.353 50.188 213.413 50.572 213.573 50.9C213.741 51.228 213.973 51.484 214.269 51.668C214.573 51.852 214.917 51.944 215.301 51.944C215.693 51.944 216.025 51.856 216.297 51.68C216.577 51.504 216.797 51.276 216.957 50.996L218.061 51.536C217.933 51.84 217.733 52.116 217.461 52.364C217.197 52.604 216.877 52.796 216.501 52.94C216.133 53.076 215.729 53.144 215.289 53.144ZM223.018 53V45.26H221.302V44.06H224.422V53H223.018ZM227.717 53V45.26H226.001V44.06H229.121V53H227.717ZM231.697 53V51.44H233.077V53H231.697ZM231.697 48.068V46.508H233.077V48.068H231.697ZM238.245 53.144C237.621 53.144 237.073 53.024 236.601 52.784C236.137 52.536 235.777 52.208 235.521 51.8C235.265 51.384 235.137 50.924 235.137 50.42C235.137 49.844 235.293 49.348 235.605 48.932C235.925 48.508 236.373 48.2 236.949 48.008L236.889 48.368C236.465 48.208 236.129 47.94 235.881 47.564C235.641 47.18 235.521 46.76 235.521 46.304C235.521 45.848 235.637 45.44 235.869 45.08C236.109 44.72 236.433 44.436 236.841 44.228C237.257 44.02 237.725 43.916 238.245 43.916C238.773 43.916 239.241 44.02 239.649 44.228C240.057 44.428 240.377 44.708 240.609 45.068C240.849 45.428 240.969 45.84 240.969 46.304C240.969 46.776 240.845 47.2 240.597 47.576C240.357 47.944 240.029 48.208 239.613 48.368L239.553 48.008C240.129 48.208 240.577 48.516 240.897 48.932C241.217 49.348 241.377 49.844 241.377 50.42C241.377 50.924 241.245 51.384 240.981 51.8C240.725 52.208 240.361 52.536 239.889 52.784C239.417 53.024 238.869 53.144 238.245 53.144ZM238.245 51.944C238.589 51.944 238.889 51.88 239.145 51.752C239.401 51.616 239.601 51.432 239.745 51.2C239.889 50.968 239.961 50.696 239.961 50.384C239.961 50.072 239.889 49.8 239.745 49.568C239.601 49.336 239.401 49.156 239.145 49.028C238.889 48.9 238.589 48.836 238.245 48.836C237.909 48.836 237.613 48.9 237.357 49.028C237.101 49.156 236.901 49.336 236.757 49.568C236.613 49.8 236.541 50.072 236.541 50.384C236.541 50.696 236.613 50.968 236.757 51.2C236.901 51.432 237.101 51.616 237.357 51.752C237.613 51.88 237.909 51.944 238.245 51.944ZM238.245 47.636C238.501 47.636 238.725 47.584 238.917 47.48C239.117 47.368 239.273 47.216 239.385 47.024C239.497 46.832 239.553 46.616 239.553 46.376C239.553 46.128 239.497 45.912 239.385 45.728C239.273 45.536 239.117 45.388 238.917 45.284C238.725 45.172 238.501 45.116 238.245 45.116C237.997 45.116 237.773 45.172 237.573 45.284C237.373 45.388 237.217 45.536 237.105 45.728C236.993 45.912 236.937 46.128 236.937 46.376C236.937 46.616 236.993 46.832 237.105 47.024C237.217 47.216 237.373 47.368 237.573 47.48C237.773 47.584 237.997 47.636 238.245 47.636ZM245.551 53.144C245.071 53.144 244.619 53.056 244.195 52.88C243.779 52.704 243.419 52.456 243.115 52.136C242.819 51.816 242.607 51.44 242.479 51.008L243.679 50.552C243.839 50.976 244.083 51.304 244.411 51.536C244.739 51.768 245.119 51.884 245.551 51.884C245.903 51.884 246.207 51.816 246.463 51.68C246.727 51.544 246.931 51.352 247.075 51.104C247.227 50.856 247.303 50.556 247.303 50.204C247.303 49.86 247.227 49.564 247.075 49.316C246.931 49.068 246.727 48.88 246.463 48.752C246.207 48.624 245.903 48.56 245.551 48.56C245.407 48.56 245.259 48.572 245.107 48.596C244.963 48.62 244.835 48.652 244.723 48.692L244.411 48.032L246.763 45.26H242.959V44.06H248.347V45.2L246.043 47.96L246.007 47.504C246.543 47.512 247.015 47.632 247.423 47.864C247.831 48.088 248.147 48.4 248.371 48.8C248.603 49.192 248.719 49.648 248.719 50.168C248.719 50.728 248.583 51.236 248.311 51.692C248.039 52.14 247.663 52.496 247.183 52.76C246.711 53.016 246.167 53.144 245.551 53.144Z" fill="black"/>
<path d="M361.426 37V28.06H364.354C365.282 28.06 366.086 28.248 366.766 28.624C367.454 28.992 367.986 29.512 368.362 30.184C368.738 30.856 368.926 31.636 368.926 32.524C368.926 33.404 368.738 34.184 368.362 34.864C367.986 35.536 367.454 36.06 366.766 36.436C366.086 36.812 365.282 37 364.354 37H361.426ZM362.842 35.74H364.378C365.01 35.74 365.558 35.608 366.022 35.344C366.494 35.08 366.858 34.708 367.114 34.228C367.37 33.748 367.498 33.18 367.498 32.524C367.498 31.868 367.366 31.304 367.102 30.832C366.846 30.352 366.486 29.98 366.022 29.716C365.558 29.452 365.01 29.32 364.378 29.32H362.842V35.74ZM372.074 37.144C371.634 37.144 371.246 37.068 370.91 36.916C370.582 36.756 370.326 36.54 370.142 36.268C369.958 35.988 369.866 35.66 369.866 35.284C369.866 34.932 369.942 34.616 370.094 34.336C370.254 34.056 370.498 33.82 370.826 33.628C371.154 33.436 371.566 33.3 372.062 33.22L374.318 32.848V33.916L372.326 34.264C371.966 34.328 371.702 34.444 371.534 34.612C371.366 34.772 371.282 34.98 371.282 35.236C371.282 35.484 371.374 35.688 371.558 35.848C371.75 36 371.994 36.076 372.29 36.076C372.658 36.076 372.978 35.996 373.25 35.836C373.53 35.676 373.746 35.464 373.898 35.2C374.05 34.928 374.126 34.628 374.126 34.3V32.632C374.126 32.312 374.006 32.052 373.766 31.852C373.534 31.644 373.222 31.54 372.83 31.54C372.47 31.54 372.154 31.636 371.882 31.828C371.618 32.012 371.422 32.252 371.294 32.548L370.166 31.984C370.286 31.664 370.482 31.384 370.754 31.144C371.026 30.896 371.342 30.704 371.702 30.568C372.07 30.432 372.458 30.364 372.866 30.364C373.378 30.364 373.83 30.46 374.222 30.652C374.622 30.844 374.93 31.112 375.146 31.456C375.37 31.792 375.482 32.184 375.482 32.632V37H374.186V35.824L374.462 35.86C374.31 36.124 374.114 36.352 373.874 36.544C373.642 36.736 373.374 36.884 373.07 36.988C372.774 37.092 372.442 37.144 372.074 37.144ZM377.067 37V30.508H378.363V31.816L378.243 31.624C378.387 31.2 378.619 30.896 378.939 30.712C379.259 30.52 379.643 30.424 380.091 30.424H380.487V31.66H379.923C379.475 31.66 379.111 31.8 378.831 32.08C378.559 32.352 378.423 32.744 378.423 33.256V37H377.067ZM381.415 37V27.916H382.771V34L382.243 33.868L385.495 30.508H387.187L384.739 33.112L387.295 37H385.735L383.455 33.556L384.259 33.448L382.339 35.488L382.771 34.588V37H381.415ZM390.453 37V28.06H391.773L395.133 32.716H394.473L397.773 28.06H399.093V37H397.689V29.728L398.217 29.872L394.845 34.48H394.701L391.401 29.872L391.869 29.728V37H390.453ZM403.942 37.144C403.318 37.144 402.746 36.996 402.226 36.7C401.714 36.404 401.306 36 401.002 35.488C400.698 34.976 400.546 34.396 400.546 33.748C400.546 33.092 400.698 32.512 401.002 32.008C401.306 31.496 401.714 31.096 402.226 30.808C402.738 30.512 403.31 30.364 403.942 30.364C404.582 30.364 405.154 30.512 405.658 30.808C406.17 31.096 406.574 31.496 406.87 32.008C407.174 32.512 407.326 33.092 407.326 33.748C407.326 34.404 407.174 34.988 406.87 35.5C406.566 36.012 406.158 36.416 405.646 36.712C405.134 37 404.566 37.144 403.942 37.144ZM403.942 35.884C404.326 35.884 404.666 35.792 404.962 35.608C405.258 35.424 405.49 35.172 405.658 34.852C405.834 34.524 405.922 34.156 405.922 33.748C405.922 33.34 405.834 32.976 405.658 32.656C405.49 32.336 405.258 32.084 404.962 31.9C404.666 31.716 404.326 31.624 403.942 31.624C403.566 31.624 403.226 31.716 402.922 31.9C402.626 32.084 402.39 32.336 402.214 32.656C402.046 32.976 401.962 33.34 401.962 33.748C401.962 34.156 402.046 34.524 402.214 34.852C402.39 35.172 402.626 35.424 402.922 35.608C403.226 35.792 403.566 35.884 403.942 35.884ZM411.649 37.144C411.025 37.144 410.465 36.996 409.969 36.7C409.481 36.396 409.093 35.988 408.805 35.476C408.525 34.964 408.385 34.388 408.385 33.748C408.385 33.108 408.529 32.532 408.817 32.02C409.105 31.508 409.493 31.104 409.981 30.808C410.469 30.512 411.021 30.364 411.637 30.364C412.157 30.364 412.617 30.468 413.017 30.676C413.417 30.884 413.733 31.172 413.965 31.54L413.761 31.852V27.916H415.105V37H413.821V35.68L413.977 35.932C413.753 36.324 413.433 36.624 413.017 36.832C412.601 37.04 412.145 37.144 411.649 37.144ZM411.781 35.884C412.157 35.884 412.493 35.792 412.789 35.608C413.093 35.424 413.329 35.172 413.497 34.852C413.673 34.524 413.761 34.156 413.761 33.748C413.761 33.34 413.673 32.976 413.497 32.656C413.329 32.336 413.093 32.084 412.789 31.9C412.493 31.716 412.157 31.624 411.781 31.624C411.405 31.624 411.065 31.716 410.761 31.9C410.457 32.084 410.221 32.336 410.053 32.656C409.885 32.976 409.801 33.34 409.801 33.748C409.801 34.156 409.885 34.524 410.053 34.852C410.221 35.172 410.453 35.424 410.749 35.608C411.053 35.792 411.397 35.884 411.781 35.884ZM419.736 37.144C419.088 37.144 418.512 36.996 418.008 36.7C417.512 36.396 417.124 35.988 416.844 35.476C416.564 34.956 416.424 34.376 416.424 33.736C416.424 33.08 416.564 32.5 416.844 31.996C417.132 31.492 417.516 31.096 417.996 30.808C418.476 30.512 419.02 30.364 419.628 30.364C420.116 30.364 420.552 30.448 420.936 30.616C421.32 30.784 421.644 31.016 421.908 31.312C422.172 31.6 422.372 31.932 422.508 32.308C422.652 32.684 422.724 33.084 422.724 33.508C422.724 33.612 422.72 33.72 422.712 33.832C422.704 33.944 422.688 34.048 422.664 34.144H417.492V33.064H421.896L421.248 33.556C421.328 33.164 421.3 32.816 421.164 32.512C421.036 32.2 420.836 31.956 420.564 31.78C420.3 31.596 419.988 31.504 419.628 31.504C419.268 31.504 418.948 31.596 418.668 31.78C418.388 31.956 418.172 32.212 418.02 32.548C417.868 32.876 417.808 33.276 417.84 33.748C417.8 34.188 417.86 34.572 418.02 34.9C418.188 35.228 418.42 35.484 418.716 35.668C419.02 35.852 419.364 35.944 419.748 35.944C420.14 35.944 420.472 35.856 420.744 35.68C421.024 35.504 421.244 35.276 421.404 34.996L422.508 35.536C422.38 35.84 422.18 36.116 421.908 36.364C421.644 36.604 421.324 36.796 420.948 36.94C420.58 37.076 420.176 37.144 419.736 37.144ZM429.23 37.144C428.582 37.144 428.006 36.996 427.502 36.7C427.006 36.396 426.61 35.988 426.314 35.476C426.026 34.964 425.882 34.384 425.882 33.736C425.882 33.096 426.026 32.52 426.314 32.008C426.602 31.496 426.998 31.096 427.502 30.808C428.006 30.512 428.582 30.364 429.23 30.364C429.67 30.364 430.082 30.444 430.466 30.604C430.85 30.756 431.182 30.968 431.462 31.24C431.75 31.512 431.962 31.828 432.098 32.188L430.91 32.74C430.774 32.404 430.554 32.136 430.25 31.936C429.954 31.728 429.614 31.624 429.23 31.624C428.862 31.624 428.53 31.716 428.234 31.9C427.946 32.076 427.718 32.328 427.55 32.656C427.382 32.976 427.298 33.34 427.298 33.748C427.298 34.156 427.382 34.524 427.55 34.852C427.718 35.172 427.946 35.424 428.234 35.608C428.53 35.792 428.862 35.884 429.23 35.884C429.622 35.884 429.962 35.784 430.25 35.584C430.546 35.376 430.766 35.1 430.91 34.756L432.098 35.32C431.97 35.664 431.762 35.976 431.474 36.256C431.194 36.528 430.862 36.744 430.478 36.904C430.094 37.064 429.678 37.144 429.23 37.144ZM436.555 37.144C435.931 37.144 435.359 36.996 434.839 36.7C434.327 36.404 433.919 36 433.615 35.488C433.311 34.976 433.159 34.396 433.159 33.748C433.159 33.092 433.311 32.512 433.615 32.008C433.919 31.496 434.327 31.096 434.839 30.808C435.351 30.512 435.923 30.364 436.555 30.364C437.195 30.364 437.767 30.512 438.271 30.808C438.783 31.096 439.187 31.496 439.483 32.008C439.787 32.512 439.939 33.092 439.939 33.748C439.939 34.404 439.787 34.988 439.483 35.5C439.179 36.012 438.771 36.416 438.259 36.712C437.747 37 437.179 37.144 436.555 37.144ZM436.555 35.884C436.939 35.884 437.279 35.792 437.575 35.608C437.871 35.424 438.103 35.172 438.271 34.852C438.447 34.524 438.535 34.156 438.535 33.748C438.535 33.34 438.447 32.976 438.271 32.656C438.103 32.336 437.871 32.084 437.575 31.9C437.279 31.716 436.939 31.624 436.555 31.624C436.179 31.624 435.839 31.716 435.535 31.9C435.239 32.084 435.003 32.336 434.827 32.656C434.659 32.976 434.575 33.34 434.575 33.748C434.575 34.156 434.659 34.524 434.827 34.852C435.003 35.172 435.239 35.424 435.535 35.608C435.839 35.792 436.179 35.884 436.555 35.884ZM441.263 37V30.508H442.559V31.912L442.391 31.696C442.527 31.256 442.775 30.924 443.135 30.7C443.495 30.476 443.907 30.364 444.371 30.364C444.891 30.364 445.351 30.504 445.751 30.784C446.159 31.056 446.431 31.42 446.567 31.876L446.183 31.912C446.375 31.392 446.667 31.004 447.059 30.748C447.459 30.492 447.915 30.364 448.427 30.364C448.875 30.364 449.279 30.468 449.639 30.676C450.007 30.884 450.299 31.172 450.515 31.54C450.731 31.908 450.839 32.328 450.839 32.8V37H449.483V33.172C449.483 32.844 449.423 32.568 449.303 32.344C449.191 32.112 449.031 31.936 448.823 31.816C448.623 31.688 448.387 31.624 448.115 31.624C447.843 31.624 447.603 31.688 447.395 31.816C447.187 31.936 447.023 32.112 446.903 32.344C446.783 32.576 446.723 32.852 446.723 33.172V37H445.379V33.172C445.379 32.844 445.319 32.568 445.199 32.344C445.087 32.112 444.927 31.936 444.719 31.816C444.519 31.688 444.279 31.624 443.999 31.624C443.727 31.624 443.487 31.688 443.279 31.816C443.071 31.936 442.907 32.112 442.787 32.344C442.675 32.576 442.619 32.852 442.619 33.172V37H441.263ZM360.64 53.144C359.992 53.144 359.416 52.996 358.912 52.7C358.416 52.396 358.02 51.988 357.724 51.476C357.436 50.964 357.292 50.384 357.292 49.736C357.292 49.096 357.436 48.52 357.724 48.008C358.012 47.496 358.408 47.096 358.912 46.808C359.416 46.512 359.992 46.364 360.64 46.364C361.08 46.364 361.492 46.444 361.876 46.604C362.26 46.756 362.592 46.968 362.872 47.24C363.16 47.512 363.372 47.828 363.508 48.188L362.32 48.74C362.184 48.404 361.964 48.136 361.66 47.936C361.364 47.728 361.024 47.624 360.64 47.624C360.272 47.624 359.94 47.716 359.644 47.9C359.356 48.076 359.128 48.328 358.96 48.656C358.792 48.976 358.708 49.34 358.708 49.748C358.708 50.156 358.792 50.524 358.96 50.852C359.128 51.172 359.356 51.424 359.644 51.608C359.94 51.792 360.272 51.884 360.64 51.884C361.032 51.884 361.372 51.784 361.66 51.584C361.956 51.376 362.176 51.1 362.32 50.756L363.508 51.32C363.38 51.664 363.172 51.976 362.884 52.256C362.604 52.528 362.272 52.744 361.888 52.904C361.504 53.064 361.088 53.144 360.64 53.144ZM367.965 53.144C367.341 53.144 366.769 52.996 366.249 52.7C365.737 52.404 365.329 52 365.025 51.488C364.721 50.976 364.569 50.396 364.569 49.748C364.569 49.092 364.721 48.512 365.025 48.008C365.329 47.496 365.737 47.096 366.249 46.808C366.761 46.512 367.333 46.364 367.965 46.364C368.605 46.364 369.177 46.512 369.681 46.808C370.193 47.096 370.597 47.496 370.893 48.008C371.197 48.512 371.349 49.092 371.349 49.748C371.349 50.404 371.197 50.988 370.893 51.5C370.589 52.012 370.181 52.416 369.669 52.712C369.157 53 368.589 53.144 367.965 53.144ZM367.965 51.884C368.349 51.884 368.689 51.792 368.985 51.608C369.281 51.424 369.513 51.172 369.681 50.852C369.857 50.524 369.945 50.156 369.945 49.748C369.945 49.34 369.857 48.976 369.681 48.656C369.513 48.336 369.281 48.084 368.985 47.9C368.689 47.716 368.349 47.624 367.965 47.624C367.589 47.624 367.249 47.716 366.945 47.9C366.649 48.084 366.413 48.336 366.237 48.656C366.069 48.976 365.985 49.34 365.985 49.748C365.985 50.156 366.069 50.524 366.237 50.852C366.413 51.172 366.649 51.424 366.945 51.608C367.249 51.792 367.589 51.884 367.965 51.884ZM372.673 53V46.508H373.969V47.78L373.813 47.612C373.973 47.204 374.229 46.896 374.581 46.688C374.933 46.472 375.341 46.364 375.805 46.364C376.285 46.364 376.709 46.468 377.077 46.676C377.445 46.884 377.733 47.172 377.941 47.54C378.149 47.908 378.253 48.332 378.253 48.812V53H376.909V49.172C376.909 48.844 376.849 48.568 376.729 48.344C376.609 48.112 376.437 47.936 376.213 47.816C375.997 47.688 375.749 47.624 375.469 47.624C375.189 47.624 374.937 47.688 374.713 47.816C374.497 47.936 374.329 48.112 374.209 48.344C374.089 48.576 374.029 48.852 374.029 49.172V53H372.673ZM382.104 53.144C381.44 53.144 380.856 52.98 380.352 52.652C379.856 52.324 379.508 51.884 379.308 51.332L380.352 50.84C380.528 51.208 380.768 51.5 381.072 51.716C381.384 51.932 381.728 52.04 382.104 52.04C382.424 52.04 382.684 51.968 382.884 51.824C383.084 51.68 383.184 51.484 383.184 51.236C383.184 51.076 383.14 50.948 383.052 50.852C382.964 50.748 382.852 50.664 382.716 50.6C382.588 50.536 382.456 50.488 382.32 50.456L381.3 50.168C380.74 50.008 380.32 49.768 380.04 49.448C379.768 49.12 379.632 48.74 379.632 48.308C379.632 47.916 379.732 47.576 379.932 47.288C380.132 46.992 380.408 46.764 380.76 46.604C381.112 46.444 381.508 46.364 381.948 46.364C382.54 46.364 383.068 46.512 383.532 46.808C383.996 47.096 384.324 47.5 384.516 48.02L383.472 48.512C383.344 48.2 383.14 47.952 382.86 47.768C382.588 47.584 382.28 47.492 381.936 47.492C381.64 47.492 381.404 47.564 381.228 47.708C381.052 47.844 380.964 48.024 380.964 48.248C380.964 48.4 381.004 48.528 381.084 48.632C381.164 48.728 381.268 48.808 381.396 48.872C381.524 48.928 381.656 48.976 381.792 49.016L382.848 49.328C383.384 49.48 383.796 49.72 384.084 50.048C384.372 50.368 384.516 50.752 384.516 51.2C384.516 51.584 384.412 51.924 384.204 52.22C384.004 52.508 383.724 52.736 383.364 52.904C383.004 53.064 382.584 53.144 382.104 53.144ZM388.653 53.072C387.973 53.072 387.445 52.88 387.069 52.496C386.693 52.112 386.505 51.572 386.505 50.876V47.732H385.365V46.508H385.545C385.849 46.508 386.085 46.42 386.253 46.244C386.421 46.068 386.505 45.828 386.505 45.524V45.02H387.861V46.508H389.337V47.732H387.861V50.816C387.861 51.04 387.897 51.232 387.969 51.392C388.041 51.544 388.157 51.664 388.317 51.752C388.477 51.832 388.685 51.872 388.941 51.872C389.005 51.872 389.077 51.868 389.157 51.86C389.237 51.852 389.313 51.844 389.385 51.836V53C389.273 53.016 389.149 53.032 389.013 53.048C388.877 53.064 388.757 53.072 388.653 53.072ZM390.708 53V46.508H392.004V47.816L391.884 47.624C392.028 47.2 392.26 46.896 392.58 46.712C392.9 46.52 393.284 46.424 393.732 46.424H394.128V47.66H393.564C393.116 47.66 392.752 47.8 392.472 48.08C392.2 48.352 392.064 48.744 392.064 49.256V53H390.708ZM397 53.144C396.56 53.144 396.172 53.068 395.836 52.916C395.508 52.756 395.252 52.54 395.068 52.268C394.884 51.988 394.792 51.66 394.792 51.284C394.792 50.932 394.868 50.616 395.02 50.336C395.18 50.056 395.424 49.82 395.752 49.628C396.08 49.436 396.492 49.3 396.988 49.22L399.244 48.848V49.916L397.252 50.264C396.892 50.328 396.628 50.444 396.46 50.612C396.292 50.772 396.208 50.98 396.208 51.236C396.208 51.484 396.3 51.688 396.484 51.848C396.676 52 396.92 52.076 397.216 52.076C397.584 52.076 397.904 51.996 398.176 51.836C398.456 51.676 398.672 51.464 398.824 51.2C398.976 50.928 399.052 50.628 399.052 50.3V48.632C399.052 48.312 398.932 48.052 398.692 47.852C398.46 47.644 398.148 47.54 397.756 47.54C397.396 47.54 397.08 47.636 396.808 47.828C396.544 48.012 396.348 48.252 396.22 48.548L395.092 47.984C395.212 47.664 395.408 47.384 395.68 47.144C395.952 46.896 396.268 46.704 396.628 46.568C396.996 46.432 397.384 46.364 397.792 46.364C398.304 46.364 398.756 46.46 399.148 46.652C399.548 46.844 399.856 47.112 400.072 47.456C400.296 47.792 400.408 48.184 400.408 48.632V53H399.112V51.824L399.388 51.86C399.236 52.124 399.04 52.352 398.8 52.544C398.568 52.736 398.3 52.884 397.996 52.988C397.7 53.092 397.368 53.144 397 53.144ZM404.393 53.144C403.729 53.144 403.145 52.98 402.641 52.652C402.145 52.324 401.797 51.884 401.597 51.332L402.641 50.84C402.817 51.208 403.057 51.5 403.361 51.716C403.673 51.932 404.017 52.04 404.393 52.04C404.713 52.04 404.973 51.968 405.173 51.824C405.373 51.68 405.473 51.484 405.473 51.236C405.473 51.076 405.429 50.948 405.341 50.852C405.253 50.748 405.141 50.664 405.005 50.6C404.877 50.536 404.745 50.488 404.609 50.456L403.589 50.168C403.029 50.008 402.609 49.768 402.329 49.448C402.057 49.12 401.921 48.74 401.921 48.308C401.921 47.916 402.021 47.576 402.221 47.288C402.421 46.992 402.697 46.764 403.049 46.604C403.401 46.444 403.797 46.364 404.237 46.364C404.829 46.364 405.357 46.512 405.821 46.808C406.285 47.096 406.613 47.5 406.805 48.02L405.761 48.512C405.633 48.2 405.429 47.952 405.149 47.768C404.877 47.584 404.569 47.492 404.225 47.492C403.929 47.492 403.693 47.564 403.517 47.708C403.341 47.844 403.253 48.024 403.253 48.248C403.253 48.4 403.293 48.528 403.373 48.632C403.453 48.728 403.557 48.808 403.685 48.872C403.813 48.928 403.945 48.976 404.081 49.016L405.137 49.328C405.673 49.48 406.085 49.72 406.373 50.048C406.661 50.368 406.805 50.752 406.805 51.2C406.805 51.584 406.701 51.924 406.493 52.22C406.293 52.508 406.013 52.736 405.653 52.904C405.293 53.064 404.873 53.144 404.393 53.144ZM410.942 53.072C410.262 53.072 409.734 52.88 409.358 52.496C408.982 52.112 408.794 51.572 408.794 50.876V47.732H407.654V46.508H407.834C408.138 46.508 408.374 46.42 408.542 46.244C408.71 46.068 408.794 45.828 408.794 45.524V45.02H410.15V46.508H411.626V47.732H410.15V50.816C410.15 51.04 410.186 51.232 410.258 51.392C410.33 51.544 410.446 51.664 410.606 51.752C410.766 51.832 410.974 51.872 411.23 51.872C411.294 51.872 411.366 51.868 411.446 51.86C411.526 51.852 411.602 51.844 411.674 51.836V53C411.562 53.016 411.438 53.032 411.302 53.048C411.166 53.064 411.046 53.072 410.942 53.072ZM415.928 53.144C415.28 53.144 414.704 52.996 414.2 52.7C413.704 52.396 413.316 51.988 413.036 51.476C412.756 50.956 412.616 50.376 412.616 49.736C412.616 49.08 412.756 48.5 413.036 47.996C413.324 47.492 413.708 47.096 414.188 46.808C414.668 46.512 415.212 46.364 415.82 46.364C416.308 46.364 416.744 46.448 417.128 46.616C417.512 46.784 417.836 47.016 418.1 47.312C418.364 47.6 418.564 47.932 418.7 48.308C418.844 48.684 418.916 49.084 418.916 49.508C418.916 49.612 418.912 49.72 418.904 49.832C418.896 49.944 418.88 50.048 418.856 50.144H413.684V49.064H418.088L417.44 49.556C417.52 49.164 417.492 48.816 417.356 48.512C417.228 48.2 417.028 47.956 416.756 47.78C416.492 47.596 416.18 47.504 415.82 47.504C415.46 47.504 415.14 47.596 414.86 47.78C414.58 47.956 414.364 48.212 414.212 48.548C414.06 48.876 414 49.276 414.032 49.748C413.992 50.188 414.052 50.572 414.212 50.9C414.38 51.228 414.612 51.484 414.908 51.668C415.212 51.852 415.556 51.944 415.94 51.944C416.332 51.944 416.664 51.856 416.936 51.68C417.216 51.504 417.436 51.276 417.596 50.996L418.7 51.536C418.572 51.84 418.372 52.116 418.1 52.364C417.836 52.604 417.516 52.796 417.14 52.94C416.772 53.076 416.368 53.144 415.928 53.144ZM425.337 53.144C424.713 53.144 424.153 52.996 423.657 52.7C423.169 52.396 422.781 51.988 422.493 51.476C422.213 50.964 422.073 50.388 422.073 49.748C422.073 49.108 422.217 48.532 422.505 48.02C422.793 47.508 423.181 47.104 423.669 46.808C424.157 46.512 424.709 46.364 425.325 46.364C425.845 46.364 426.305 46.468 426.705 46.676C427.105 46.884 427.421 47.172 427.653 47.54L427.449 47.852V43.916H428.793V53H427.509V51.68L427.665 51.932C427.441 52.324 427.121 52.624 426.705 52.832C426.289 53.04 425.833 53.144 425.337 53.144ZM425.469 51.884C425.845 51.884 426.181 51.792 426.477 51.608C426.781 51.424 427.017 51.172 427.185 50.852C427.361 50.524 427.449 50.156 427.449 49.748C427.449 49.34 427.361 48.976 427.185 48.656C427.017 48.336 426.781 48.084 426.477 47.9C426.181 47.716 425.845 47.624 425.469 47.624C425.093 47.624 424.753 47.716 424.449 47.9C424.145 48.084 423.909 48.336 423.741 48.656C423.573 48.976 423.489 49.34 423.489 49.748C423.489 50.156 423.573 50.524 423.741 50.852C423.909 51.172 424.141 51.424 424.437 51.608C424.741 51.792 425.085 51.884 425.469 51.884ZM433.424 53.144C432.776 53.144 432.2 52.996 431.696 52.7C431.2 52.396 430.812 51.988 430.532 51.476C430.252 50.956 430.112 50.376 430.112 49.736C430.112 49.08 430.252 48.5 430.532 47.996C430.82 47.492 431.204 47.096 431.684 46.808C432.164 46.512 432.708 46.364 433.316 46.364C433.804 46.364 434.24 46.448 434.624 46.616C435.008 46.784 435.332 47.016 435.596 47.312C435.86 47.6 436.06 47.932 436.196 48.308C436.34 48.684 436.412 49.084 436.412 49.508C436.412 49.612 436.408 49.72 436.4 49.832C436.392 49.944 436.376 50.048 436.352 50.144H431.18V49.064H435.584L434.936 49.556C435.016 49.164 434.988 48.816 434.852 48.512C434.724 48.2 434.524 47.956 434.252 47.78C433.988 47.596 433.676 47.504 433.316 47.504C432.956 47.504 432.636 47.596 432.356 47.78C432.076 47.956 431.86 48.212 431.708 48.548C431.556 48.876 431.496 49.276 431.528 49.748C431.488 50.188 431.548 50.572 431.708 50.9C431.876 51.228 432.108 51.484 432.404 51.668C432.708 51.852 433.052 51.944 433.436 51.944C433.828 51.944 434.16 51.856 434.432 51.68C434.712 51.504 434.932 51.276 435.092 50.996L436.196 51.536C436.068 51.84 435.868 52.116 435.596 52.364C435.332 52.604 435.012 52.796 434.636 52.94C434.268 53.076 433.864 53.144 433.424 53.144ZM441.153 53V45.26H439.437V44.06H442.557V53H441.153ZM445.132 53V51.44H446.512V53H445.132ZM445.132 48.068V46.508H446.512V48.068H445.132ZM451.416 53.144C450.936 53.144 450.484 53.056 450.06 52.88C449.644 52.704 449.284 52.456 448.98 52.136C448.684 51.816 448.472 51.44 448.344 51.008L449.544 50.552C449.704 50.976 449.948 51.304 450.276 51.536C450.604 51.768 450.984 51.884 451.416 51.884C451.768 51.884 452.072 51.816 452.328 51.68C452.592 51.544 452.796 51.352 452.94 51.104C453.092 50.856 453.168 50.556 453.168 50.204C453.168 49.86 453.092 49.564 452.94 49.316C452.796 49.068 452.592 48.88 452.328 48.752C452.072 48.624 451.768 48.56 451.416 48.56C451.272 48.56 451.124 48.572 450.972 48.596C450.828 48.62 450.7 48.652 450.588 48.692L450.276 48.032L452.628 45.26H448.824V44.06H454.212V45.2L451.908 47.96L451.872 47.504C452.408 47.512 452.88 47.632 453.288 47.864C453.696 48.088 454.012 48.4 454.236 48.8C454.468 49.192 454.584 49.648 454.584 50.168C454.584 50.728 454.448 51.236 454.176 51.692C453.904 52.14 453.528 52.496 453.048 52.76C452.576 53.016 452.032 53.144 451.416 53.144Z" fill="black"/>
<rect x="136.5" y="72.5" width="115" height="263" rx="4.5" stroke="#9747FF" stroke-dasharray="10 5"/>
<path d="M160 296C160 291.582 163.582 288 168 288H220C224.418 288 228 291.582 228 296V304C228 308.418 224.418 312 220 312H168C163.582 312 160 308.418 160 304V296Z" fill="#DBECEA"/>
<path d="M181 294H171C170.735 294 170.48 294.105 170.293 294.293C170.105 294.48 170 294.735 170 295V305C170 305.265 170.105 305.52 170.293 305.707C170.48 305.895 170.735 306 171 306H181C181.265 306 181.52 305.895 181.707 305.707C181.895 305.52 182 305.265 182 305V295C182 294.735 181.895 294.48 181.707 294.293C181.52 294.105 181.265 294 181 294ZM171 305V295.707L180.293 305H171ZM171.707 295H181V304.294L171.707 295Z" fill="#292C28"/>
<path d="M188.924 305V296.06H190.34V303.74H194.204V305H188.924ZM197.205 305.144C196.765 305.144 196.377 305.068 196.041 304.916C195.713 304.756 195.457 304.54 195.273 304.268C195.089 303.988 194.997 303.66 194.997 303.284C194.997 302.932 195.073 302.616 195.225 302.336C195.385 302.056 195.629 301.82 195.957 301.628C196.285 301.436 196.697 301.3 197.193 301.22L199.449 300.848V301.916L197.457 302.264C197.097 302.328 196.833 302.444 196.665 302.612C196.497 302.772 196.413 302.98 196.413 303.236C196.413 303.484 196.505 303.688 196.689 303.848C196.881 304 197.125 304.076 197.421 304.076C197.789 304.076 198.109 303.996 198.381 303.836C198.661 303.676 198.877 303.464 199.029 303.2C199.181 302.928 199.257 302.628 199.257 302.3V300.632C199.257 300.312 199.137 300.052 198.897 299.852C198.665 299.644 198.353 299.54 197.961 299.54C197.601 299.54 197.285 299.636 197.013 299.828C196.749 300.012 196.553 300.252 196.425 300.548L195.297 299.984C195.417 299.664 195.613 299.384 195.885 299.144C196.157 298.896 196.473 298.704 196.833 298.568C197.201 298.432 197.589 298.364 197.997 298.364C198.509 298.364 198.961 298.46 199.353 298.652C199.753 298.844 200.061 299.112 200.277 299.456C200.501 299.792 200.613 300.184 200.613 300.632V305H199.317V303.824L199.593 303.86C199.441 304.124 199.245 304.352 199.005 304.544C198.773 304.736 198.505 304.884 198.201 304.988C197.905 305.092 197.573 305.144 197.205 305.144ZM205.666 305.144C205.162 305.144 204.702 305.04 204.286 304.832C203.878 304.624 203.562 304.324 203.338 303.932L203.494 303.68V305H202.198V295.916H203.554V299.852L203.338 299.54C203.578 299.172 203.898 298.884 204.298 298.676C204.698 298.468 205.154 298.364 205.666 298.364C206.282 298.364 206.834 298.512 207.322 298.808C207.818 299.104 208.206 299.508 208.486 300.02C208.774 300.532 208.918 301.108 208.918 301.748C208.918 302.388 208.774 302.964 208.486 303.476C208.206 303.988 207.822 304.396 207.334 304.7C206.846 304.996 206.29 305.144 205.666 305.144ZM205.534 303.884C205.918 303.884 206.258 303.792 206.554 303.608C206.85 303.424 207.082 303.172 207.25 302.852C207.426 302.524 207.514 302.156 207.514 301.748C207.514 301.34 207.426 300.976 207.25 300.656C207.082 300.336 206.85 300.084 206.554 299.9C206.258 299.716 205.918 299.624 205.534 299.624C205.158 299.624 204.818 299.716 204.514 299.9C204.218 300.084 203.982 300.336 203.806 300.656C203.638 300.976 203.554 301.34 203.554 301.748C203.554 302.156 203.638 302.524 203.806 302.852C203.982 303.172 204.218 303.424 204.514 303.608C204.818 303.792 205.158 303.884 205.534 303.884ZM213.285 305.144C212.637 305.144 212.061 304.996 211.557 304.7C211.061 304.396 210.673 303.988 210.393 303.476C210.113 302.956 209.973 302.376 209.973 301.736C209.973 301.08 210.113 300.5 210.393 299.996C210.681 299.492 211.065 299.096 211.545 298.808C212.025 298.512 212.569 298.364 213.177 298.364C213.665 298.364 214.101 298.448 214.485 298.616C214.869 298.784 215.193 299.016 215.457 299.312C215.721 299.6 215.921 299.932 216.057 300.308C216.201 300.684 216.273 301.084 216.273 301.508C216.273 301.612 216.269 301.72 216.261 301.832C216.253 301.944 216.237 302.048 216.213 302.144H211.041V301.064H215.445L214.797 301.556C214.877 301.164 214.849 300.816 214.713 300.512C214.585 300.2 214.385 299.956 214.113 299.78C213.849 299.596 213.537 299.504 213.177 299.504C212.817 299.504 212.497 299.596 212.217 299.78C211.937 299.956 211.721 300.212 211.569 300.548C211.417 300.876 211.357 301.276 211.389 301.748C211.349 302.188 211.409 302.572 211.569 302.9C211.737 303.228 211.969 303.484 212.265 303.668C212.569 303.852 212.913 303.944 213.297 303.944C213.689 303.944 214.021 303.856 214.293 303.68C214.573 303.504 214.793 303.276 214.953 302.996L216.057 303.536C215.929 303.84 215.729 304.116 215.457 304.364C215.193 304.604 214.873 304.796 214.497 304.94C214.129 305.076 213.725 305.144 213.285 305.144ZM217.597 305V295.916H218.953V305H217.597Z" fill="#171816"/>
<path d="M160 248C160 243.582 163.582 240 168 240H220C224.418 240 228 243.582 228 248V256C228 260.418 224.418 264 220 264H168C163.582 264 160 260.418 160 256V248Z" fill="#FFF5A7"/>
<path d="M181 246H171C170.735 246 170.48 246.105 170.293 246.293C170.105 246.48 170 246.735 170 247V257C170 257.265 170.105 257.52 170.293 257.707C170.48 257.895 170.735 258 171 258H181C181.265 258 181.52 257.895 181.707 257.707C181.895 257.52 182 257.265 182 257V247C182 246.735 181.895 246.48 181.707 246.293C181.52 246.105 181.265 246 181 246ZM171 257V247.707L180.293 257H171ZM171.707 247H181V256.294L171.707 247Z" fill="#292C28"/>
<path d="M188.924 257V248.06H190.34V255.74H194.204V257H188.924ZM197.205 257.144C196.765 257.144 196.377 257.068 196.041 256.916C195.713 256.756 195.457 256.54 195.273 256.268C195.089 255.988 194.997 255.66 194.997 255.284C194.997 254.932 195.073 254.616 195.225 254.336C195.385 254.056 195.629 253.82 195.957 253.628C196.285 253.436 196.697 253.3 197.193 253.22L199.449 252.848V253.916L197.457 254.264C197.097 254.328 196.833 254.444 196.665 254.612C196.497 254.772 196.413 254.98 196.413 255.236C196.413 255.484 196.505 255.688 196.689 255.848C196.881 256 197.125 256.076 197.421 256.076C197.789 256.076 198.109 255.996 198.381 255.836C198.661 255.676 198.877 255.464 199.029 255.2C199.181 254.928 199.257 254.628 199.257 254.3V252.632C199.257 252.312 199.137 252.052 198.897 251.852C198.665 251.644 198.353 251.54 197.961 251.54C197.601 251.54 197.285 251.636 197.013 251.828C196.749 252.012 196.553 252.252 196.425 252.548L195.297 251.984C195.417 251.664 195.613 251.384 195.885 251.144C196.157 250.896 196.473 250.704 196.833 250.568C197.201 250.432 197.589 250.364 197.997 250.364C198.509 250.364 198.961 250.46 199.353 250.652C199.753 250.844 200.061 251.112 200.277 251.456C200.501 251.792 200.613 252.184 200.613 252.632V257H199.317V255.824L199.593 255.86C199.441 256.124 199.245 256.352 199.005 256.544C198.773 256.736 198.505 256.884 198.201 256.988C197.905 257.092 197.573 257.144 197.205 257.144ZM205.666 257.144C205.162 257.144 204.702 257.04 204.286 256.832C203.878 256.624 203.562 256.324 203.338 255.932L203.494 255.68V257H202.198V247.916H203.554V251.852L203.338 251.54C203.578 251.172 203.898 250.884 204.298 250.676C204.698 250.468 205.154 250.364 205.666 250.364C206.282 250.364 206.834 250.512 207.322 250.808C207.818 251.104 208.206 251.508 208.486 252.02C208.774 252.532 208.918 253.108 208.918 253.748C208.918 254.388 208.774 254.964 208.486 255.476C208.206 255.988 207.822 256.396 207.334 256.7C206.846 256.996 206.29 257.144 205.666 257.144ZM205.534 255.884C205.918 255.884 206.258 255.792 206.554 255.608C206.85 255.424 207.082 255.172 207.25 254.852C207.426 254.524 207.514 254.156 207.514 253.748C207.514 253.34 207.426 252.976 207.25 252.656C207.082 252.336 206.85 252.084 206.554 251.9C206.258 251.716 205.918 251.624 205.534 251.624C205.158 251.624 204.818 251.716 204.514 251.9C204.218 252.084 203.982 252.336 203.806 252.656C203.638 252.976 203.554 253.34 203.554 253.748C203.554 254.156 203.638 254.524 203.806 254.852C203.982 255.172 204.218 255.424 204.514 255.608C204.818 255.792 205.158 255.884 205.534 255.884ZM213.285 257.144C212.637 257.144 212.061 256.996 211.557 256.7C211.061 256.396 210.673 255.988 210.393 255.476C210.113 254.956 209.973 254.376 209.973 253.736C209.973 253.08 210.113 252.5 210.393 251.996C210.681 251.492 211.065 251.096 211.545 250.808C212.025 250.512 212.569 250.364 213.177 250.364C213.665 250.364 214.101 250.448 214.485 250.616C214.869 250.784 215.193 251.016 215.457 251.312C215.721 251.6 215.921 251.932 216.057 252.308C216.201 252.684 216.273 253.084 216.273 253.508C216.273 253.612 216.269 253.72 216.261 253.832C216.253 253.944 216.237 254.048 216.213 254.144H211.041V253.064H215.445L214.797 253.556C214.877 253.164 214.849 252.816 214.713 252.512C214.585 252.2 214.385 251.956 214.113 251.78C213.849 251.596 213.537 251.504 213.177 251.504C212.817 251.504 212.497 251.596 212.217 251.78C211.937 251.956 211.721 252.212 211.569 252.548C211.417 252.876 211.357 253.276 211.389 253.748C211.349 254.188 211.409 254.572 211.569 254.9C211.737 255.228 211.969 255.484 212.265 255.668C212.569 255.852 212.913 255.944 213.297 255.944C213.689 255.944 214.021 255.856 214.293 255.68C214.573 255.504 214.793 255.276 214.953 254.996L216.057 255.536C215.929 255.84 215.729 256.116 215.457 256.364C215.193 256.604 214.873 256.796 214.497 256.94C214.129 257.076 213.725 257.144 213.285 257.144ZM217.597 257V247.916H218.953V257H217.597Z" fill="#171816"/>
<path d="M160 200C160 195.582 163.582 192 168 192H220C224.418 192 228 195.582 228 200V208C228 212.418 224.418 216 220 216H168C163.582 216 160 212.418 160 208V200Z" fill="#ECDEDB"/>
<path d="M181 198H171C170.735 198 170.48 198.105 170.293 198.293C170.105 198.48 170 198.735 170 199V209C170 209.265 170.105 209.52 170.293 209.707C170.48 209.895 170.735 210 171 210H181C181.265 210 181.52 209.895 181.707 209.707C181.895 209.52 182 209.265 182 209V199C182 198.735 181.895 198.48 181.707 198.293C181.52 198.105 181.265 198 181 198ZM171 209V199.707L180.293 209H171ZM171.707 199H181V208.294L171.707 199Z" fill="#292C28"/>
<path d="M188.924 209V200.06H190.34V207.74H194.204V209H188.924ZM197.205 209.144C196.765 209.144 196.377 209.068 196.041 208.916C195.713 208.756 195.457 208.54 195.273 208.268C195.089 207.988 194.997 207.66 194.997 207.284C194.997 206.932 195.073 206.616 195.225 206.336C195.385 206.056 195.629 205.82 195.957 205.628C196.285 205.436 196.697 205.3 197.193 205.22L199.449 204.848V205.916L197.457 206.264C197.097 206.328 196.833 206.444 196.665 206.612C196.497 206.772 196.413 206.98 196.413 207.236C196.413 207.484 196.505 207.688 196.689 207.848C196.881 208 197.125 208.076 197.421 208.076C197.789 208.076 198.109 207.996 198.381 207.836C198.661 207.676 198.877 207.464 199.029 207.2C199.181 206.928 199.257 206.628 199.257 206.3V204.632C199.257 204.312 199.137 204.052 198.897 203.852C198.665 203.644 198.353 203.54 197.961 203.54C197.601 203.54 197.285 203.636 197.013 203.828C196.749 204.012 196.553 204.252 196.425 204.548L195.297 203.984C195.417 203.664 195.613 203.384 195.885 203.144C196.157 202.896 196.473 202.704 196.833 202.568C197.201 202.432 197.589 202.364 197.997 202.364C198.509 202.364 198.961 202.46 199.353 202.652C199.753 202.844 200.061 203.112 200.277 203.456C200.501 203.792 200.613 204.184 200.613 204.632V209H199.317V207.824L199.593 207.86C199.441 208.124 199.245 208.352 199.005 208.544C198.773 208.736 198.505 208.884 198.201 208.988C197.905 209.092 197.573 209.144 197.205 209.144ZM205.666 209.144C205.162 209.144 204.702 209.04 204.286 208.832C203.878 208.624 203.562 208.324 203.338 207.932L203.494 207.68V209H202.198V199.916H203.554V203.852L203.338 203.54C203.578 203.172 203.898 202.884 204.298 202.676C204.698 202.468 205.154 202.364 205.666 202.364C206.282 202.364 206.834 202.512 207.322 202.808C207.818 203.104 208.206 203.508 208.486 204.02C208.774 204.532 208.918 205.108 208.918 205.748C208.918 206.388 208.774 206.964 208.486 207.476C208.206 207.988 207.822 208.396 207.334 208.7C206.846 208.996 206.29 209.144 205.666 209.144ZM205.534 207.884C205.918 207.884 206.258 207.792 206.554 207.608C206.85 207.424 207.082 207.172 207.25 206.852C207.426 206.524 207.514 206.156 207.514 205.748C207.514 205.34 207.426 204.976 207.25 204.656C207.082 204.336 206.85 204.084 206.554 203.9C206.258 203.716 205.918 203.624 205.534 203.624C205.158 203.624 204.818 203.716 204.514 203.9C204.218 204.084 203.982 204.336 203.806 204.656C203.638 204.976 203.554 205.34 203.554 205.748C203.554 206.156 203.638 206.524 203.806 206.852C203.982 207.172 204.218 207.424 204.514 207.608C204.818 207.792 205.158 207.884 205.534 207.884ZM213.285 209.144C212.637 209.144 212.061 208.996 211.557 208.7C211.061 208.396 210.673 207.988 210.393 207.476C210.113 206.956 209.973 206.376 209.973 205.736C209.973 205.08 210.113 204.5 210.393 203.996C210.681 203.492 211.065 203.096 211.545 202.808C212.025 202.512 212.569 202.364 213.177 202.364C213.665 202.364 214.101 202.448 214.485 202.616C214.869 202.784 215.193 203.016 215.457 203.312C215.721 203.6 215.921 203.932 216.057 204.308C216.201 204.684 216.273 205.084 216.273 205.508C216.273 205.612 216.269 205.72 216.261 205.832C216.253 205.944 216.237 206.048 216.213 206.144H211.041V205.064H215.445L214.797 205.556C214.877 205.164 214.849 204.816 214.713 204.512C214.585 204.2 214.385 203.956 214.113 203.78C213.849 203.596 213.537 203.504 213.177 203.504C212.817 203.504 212.497 203.596 212.217 203.78C211.937 203.956 211.721 204.212 211.569 204.548C211.417 204.876 211.357 205.276 211.389 205.748C211.349 206.188 211.409 206.572 211.569 206.9C211.737 207.228 211.969 207.484 212.265 207.668C212.569 207.852 212.913 207.944 213.297 207.944C213.689 207.944 214.021 207.856 214.293 207.68C214.573 207.504 214.793 207.276 214.953 206.996L216.057 207.536C215.929 207.84 215.729 208.116 215.457 208.364C215.193 208.604 214.873 208.796 214.497 208.94C214.129 209.076 213.725 209.144 213.285 209.144ZM217.597 209V199.916H218.953V209H217.597Z" fill="#171816"/>
<path d="M160 152C160 147.582 163.582 144 168 144H220C224.418 144 228 147.582 228 152V160C228 164.418 224.418 168 220 168H168C163.582 168 160 164.418 160 160V152Z" fill="#14411E"/>
<path d="M181 150H171C170.735 150 170.48 150.105 170.293 150.293C170.105 150.48 170 150.735 170 151V161C170 161.265 170.105 161.52 170.293 161.707C170.48 161.895 170.735 162 171 162H181C181.265 162 181.52 161.895 181.707 161.707C181.895 161.52 182 161.265 182 161V151C182 150.735 181.895 150.48 181.707 150.293C181.52 150.105 181.265 150 181 150ZM171 161V151.707L180.293 161H171ZM171.707 151H181V160.294L171.707 151Z" fill="white"/>
<path d="M188.924 161V152.06H190.34V159.74H194.204V161H188.924ZM197.205 161.144C196.765 161.144 196.377 161.068 196.041 160.916C195.713 160.756 195.457 160.54 195.273 160.268C195.089 159.988 194.997 159.66 194.997 159.284C194.997 158.932 195.073 158.616 195.225 158.336C195.385 158.056 195.629 157.82 195.957 157.628C196.285 157.436 196.697 157.3 197.193 157.22L199.449 156.848V157.916L197.457 158.264C197.097 158.328 196.833 158.444 196.665 158.612C196.497 158.772 196.413 158.98 196.413 159.236C196.413 159.484 196.505 159.688 196.689 159.848C196.881 160 197.125 160.076 197.421 160.076C197.789 160.076 198.109 159.996 198.381 159.836C198.661 159.676 198.877 159.464 199.029 159.2C199.181 158.928 199.257 158.628 199.257 158.3V156.632C199.257 156.312 199.137 156.052 198.897 155.852C198.665 155.644 198.353 155.54 197.961 155.54C197.601 155.54 197.285 155.636 197.013 155.828C196.749 156.012 196.553 156.252 196.425 156.548L195.297 155.984C195.417 155.664 195.613 155.384 195.885 155.144C196.157 154.896 196.473 154.704 196.833 154.568C197.201 154.432 197.589 154.364 197.997 154.364C198.509 154.364 198.961 154.46 199.353 154.652C199.753 154.844 200.061 155.112 200.277 155.456C200.501 155.792 200.613 156.184 200.613 156.632V161H199.317V159.824L199.593 159.86C199.441 160.124 199.245 160.352 199.005 160.544C198.773 160.736 198.505 160.884 198.201 160.988C197.905 161.092 197.573 161.144 197.205 161.144ZM205.666 161.144C205.162 161.144 204.702 161.04 204.286 160.832C203.878 160.624 203.562 160.324 203.338 159.932L203.494 159.68V161H202.198V151.916H203.554V155.852L203.338 155.54C203.578 155.172 203.898 154.884 204.298 154.676C204.698 154.468 205.154 154.364 205.666 154.364C206.282 154.364 206.834 154.512 207.322 154.808C207.818 155.104 208.206 155.508 208.486 156.02C208.774 156.532 208.918 157.108 208.918 157.748C208.918 158.388 208.774 158.964 208.486 159.476C208.206 159.988 207.822 160.396 207.334 160.7C206.846 160.996 206.29 161.144 205.666 161.144ZM205.534 159.884C205.918 159.884 206.258 159.792 206.554 159.608C206.85 159.424 207.082 159.172 207.25 158.852C207.426 158.524 207.514 158.156 207.514 157.748C207.514 157.34 207.426 156.976 207.25 156.656C207.082 156.336 206.85 156.084 206.554 155.9C206.258 155.716 205.918 155.624 205.534 155.624C205.158 155.624 204.818 155.716 204.514 155.9C204.218 156.084 203.982 156.336 203.806 156.656C203.638 156.976 203.554 157.34 203.554 157.748C203.554 158.156 203.638 158.524 203.806 158.852C203.982 159.172 204.218 159.424 204.514 159.608C204.818 159.792 205.158 159.884 205.534 159.884ZM213.285 161.144C212.637 161.144 212.061 160.996 211.557 160.7C211.061 160.396 210.673 159.988 210.393 159.476C210.113 158.956 209.973 158.376 209.973 157.736C209.973 157.08 210.113 156.5 210.393 155.996C210.681 155.492 211.065 155.096 211.545 154.808C212.025 154.512 212.569 154.364 213.177 154.364C213.665 154.364 214.101 154.448 214.485 154.616C214.869 154.784 215.193 155.016 215.457 155.312C215.721 155.6 215.921 155.932 216.057 156.308C216.201 156.684 216.273 157.084 216.273 157.508C216.273 157.612 216.269 157.72 216.261 157.832C216.253 157.944 216.237 158.048 216.213 158.144H211.041V157.064H215.445L214.797 157.556C214.877 157.164 214.849 156.816 214.713 156.512C214.585 156.2 214.385 155.956 214.113 155.78C213.849 155.596 213.537 155.504 213.177 155.504C212.817 155.504 212.497 155.596 212.217 155.78C211.937 155.956 211.721 156.212 211.569 156.548C211.417 156.876 211.357 157.276 211.389 157.748C211.349 158.188 211.409 158.572 211.569 158.9C211.737 159.228 211.969 159.484 212.265 159.668C212.569 159.852 212.913 159.944 213.297 159.944C213.689 159.944 214.021 159.856 214.293 159.68C214.573 159.504 214.793 159.276 214.953 158.996L216.057 159.536C215.929 159.84 215.729 160.116 215.457 160.364C215.193 160.604 214.873 160.796 214.497 160.94C214.129 161.076 213.725 161.144 213.285 161.144ZM217.597 161V151.916H218.953V161H217.597Z" fill="white"/>
<path d="M160 104C160 99.5817 163.582 96 168 96H220C224.418 96 228 99.5817 228 104V112C228 116.418 224.418 120 220 120H168C163.582 120 160 116.418 160 112V104Z" fill="#E9F5E5"/>
<path d="M181 102H171C170.735 102 170.48 102.105 170.293 102.293C170.105 102.48 170 102.735 170 103V113C170 113.265 170.105 113.52 170.293 113.707C170.48 113.895 170.735 114 171 114H181C181.265 114 181.52 113.895 181.707 113.707C181.895 113.52 182 113.265 182 113V103C182 102.735 181.895 102.48 181.707 102.293C181.52 102.105 181.265 102 181 102ZM171 113V103.707L180.293 113H171ZM171.707 103H181V112.294L171.707 103Z" fill="#292C28"/>
<path d="M188.924 113V104.06H190.34V111.74H194.204V113H188.924ZM197.205 113.144C196.765 113.144 196.377 113.068 196.041 112.916C195.713 112.756 195.457 112.54 195.273 112.268C195.089 111.988 194.997 111.66 194.997 111.284C194.997 110.932 195.073 110.616 195.225 110.336C195.385 110.056 195.629 109.82 195.957 109.628C196.285 109.436 196.697 109.3 197.193 109.22L199.449 108.848V109.916L197.457 110.264C197.097 110.328 196.833 110.444 196.665 110.612C196.497 110.772 196.413 110.98 196.413 111.236C196.413 111.484 196.505 111.688 196.689 111.848C196.881 112 197.125 112.076 197.421 112.076C197.789 112.076 198.109 111.996 198.381 111.836C198.661 111.676 198.877 111.464 199.029 111.2C199.181 110.928 199.257 110.628 199.257 110.3V108.632C199.257 108.312 199.137 108.052 198.897 107.852C198.665 107.644 198.353 107.54 197.961 107.54C197.601 107.54 197.285 107.636 197.013 107.828C196.749 108.012 196.553 108.252 196.425 108.548L195.297 107.984C195.417 107.664 195.613 107.384 195.885 107.144C196.157 106.896 196.473 106.704 196.833 106.568C197.201 106.432 197.589 106.364 197.997 106.364C198.509 106.364 198.961 106.46 199.353 106.652C199.753 106.844 200.061 107.112 200.277 107.456C200.501 107.792 200.613 108.184 200.613 108.632V113H199.317V111.824L199.593 111.86C199.441 112.124 199.245 112.352 199.005 112.544C198.773 112.736 198.505 112.884 198.201 112.988C197.905 113.092 197.573 113.144 197.205 113.144ZM205.666 113.144C205.162 113.144 204.702 113.04 204.286 112.832C203.878 112.624 203.562 112.324 203.338 111.932L203.494 111.68V113H202.198V103.916H203.554V107.852L203.338 107.54C203.578 107.172 203.898 106.884 204.298 106.676C204.698 106.468 205.154 106.364 205.666 106.364C206.282 106.364 206.834 106.512 207.322 106.808C207.818 107.104 208.206 107.508 208.486 108.02C208.774 108.532 208.918 109.108 208.918 109.748C208.918 110.388 208.774 110.964 208.486 111.476C208.206 111.988 207.822 112.396 207.334 112.7C206.846 112.996 206.29 113.144 205.666 113.144ZM205.534 111.884C205.918 111.884 206.258 111.792 206.554 111.608C206.85 111.424 207.082 111.172 207.25 110.852C207.426 110.524 207.514 110.156 207.514 109.748C207.514 109.34 207.426 108.976 207.25 108.656C207.082 108.336 206.85 108.084 206.554 107.9C206.258 107.716 205.918 107.624 205.534 107.624C205.158 107.624 204.818 107.716 204.514 107.9C204.218 108.084 203.982 108.336 203.806 108.656C203.638 108.976 203.554 109.34 203.554 109.748C203.554 110.156 203.638 110.524 203.806 110.852C203.982 111.172 204.218 111.424 204.514 111.608C204.818 111.792 205.158 111.884 205.534 111.884ZM213.285 113.144C212.637 113.144 212.061 112.996 211.557 112.7C211.061 112.396 210.673 111.988 210.393 111.476C210.113 110.956 209.973 110.376 209.973 109.736C209.973 109.08 210.113 108.5 210.393 107.996C210.681 107.492 211.065 107.096 211.545 106.808C212.025 106.512 212.569 106.364 213.177 106.364C213.665 106.364 214.101 106.448 214.485 106.616C214.869 106.784 215.193 107.016 215.457 107.312C215.721 107.6 215.921 107.932 216.057 108.308C216.201 108.684 216.273 109.084 216.273 109.508C216.273 109.612 216.269 109.72 216.261 109.832C216.253 109.944 216.237 110.048 216.213 110.144H211.041V109.064H215.445L214.797 109.556C214.877 109.164 214.849 108.816 214.713 108.512C214.585 108.2 214.385 107.956 214.113 107.78C213.849 107.596 213.537 107.504 213.177 107.504C212.817 107.504 212.497 107.596 212.217 107.78C211.937 107.956 211.721 108.212 211.569 108.548C211.417 108.876 211.357 109.276 211.389 109.748C211.349 110.188 211.409 110.572 211.569 110.9C211.737 111.228 211.969 111.484 212.265 111.668C212.569 111.852 212.913 111.944 213.297 111.944C213.689 111.944 214.021 111.856 214.293 111.68C214.573 111.504 214.793 111.276 214.953 110.996L216.057 111.536C215.929 111.84 215.729 112.116 215.457 112.364C215.193 112.604 214.873 112.796 214.497 112.94C214.129 113.076 213.725 113.144 213.285 113.144ZM217.597 113V103.916H218.953V113H217.597Z" fill="#171816"/>
<path d="M348 88C348 79.1634 355.163 72 364 72H448C456.837 72 464 79.1634 464 88V320C464 328.837 456.837 336 448 336H364C355.163 336 348 328.837 348 320V88Z" fill="#1B1C1A"/>
<path d="M372 104C372 99.5817 375.582 96 380 96H432C436.418 96 440 99.5817 440 104V112C440 116.418 436.418 120 432 120H380C375.582 120 372 116.418 372 112V104Z" fill="#292C28"/>
<path d="M393 102H383C382.735 102 382.48 102.105 382.293 102.293C382.105 102.48 382 102.735 382 103V113C382 113.265 382.105 113.52 382.293 113.707C382.48 113.895 382.735 114 383 114H393C393.265 114 393.52 113.895 393.707 113.707C393.895 113.52 394 113.265 394 113V103C394 102.735 393.895 102.48 393.707 102.293C393.52 102.105 393.265 102 393 102ZM383 113V103.707L392.293 113H383ZM383.707 103H393V112.294L383.707 103Z" fill="#6C7469"/>
<path d="M400.924 113V104.06H402.34V111.74H406.204V113H400.924ZM409.205 113.144C408.765 113.144 408.377 113.068 408.041 112.916C407.713 112.756 407.457 112.54 407.273 112.268C407.089 111.988 406.997 111.66 406.997 111.284C406.997 110.932 407.073 110.616 407.225 110.336C407.385 110.056 407.629 109.82 407.957 109.628C408.285 109.436 408.697 109.3 409.193 109.22L411.449 108.848V109.916L409.457 110.264C409.097 110.328 408.833 110.444 408.665 110.612C408.497 110.772 408.413 110.98 408.413 111.236C408.413 111.484 408.505 111.688 408.689 111.848C408.881 112 409.125 112.076 409.421 112.076C409.789 112.076 410.109 111.996 410.381 111.836C410.661 111.676 410.877 111.464 411.029 111.2C411.181 110.928 411.257 110.628 411.257 110.3V108.632C411.257 108.312 411.137 108.052 410.897 107.852C410.665 107.644 410.353 107.54 409.961 107.54C409.601 107.54 409.285 107.636 409.013 107.828C408.749 108.012 408.553 108.252 408.425 108.548L407.297 107.984C407.417 107.664 407.613 107.384 407.885 107.144C408.157 106.896 408.473 106.704 408.833 106.568C409.201 106.432 409.589 106.364 409.997 106.364C410.509 106.364 410.961 106.46 411.353 106.652C411.753 106.844 412.061 107.112 412.277 107.456C412.501 107.792 412.613 108.184 412.613 108.632V113H411.317V111.824L411.593 111.86C411.441 112.124 411.245 112.352 411.005 112.544C410.773 112.736 410.505 112.884 410.201 112.988C409.905 113.092 409.573 113.144 409.205 113.144ZM417.666 113.144C417.162 113.144 416.702 113.04 416.286 112.832C415.878 112.624 415.562 112.324 415.338 111.932L415.494 111.68V113H414.198V103.916H415.554V107.852L415.338 107.54C415.578 107.172 415.898 106.884 416.298 106.676C416.698 106.468 417.154 106.364 417.666 106.364C418.282 106.364 418.834 106.512 419.322 106.808C419.818 107.104 420.206 107.508 420.486 108.02C420.774 108.532 420.918 109.108 420.918 109.748C420.918 110.388 420.774 110.964 420.486 111.476C420.206 111.988 419.822 112.396 419.334 112.7C418.846 112.996 418.29 113.144 417.666 113.144ZM417.534 111.884C417.918 111.884 418.258 111.792 418.554 111.608C418.85 111.424 419.082 111.172 419.25 110.852C419.426 110.524 419.514 110.156 419.514 109.748C419.514 109.34 419.426 108.976 419.25 108.656C419.082 108.336 418.85 108.084 418.554 107.9C418.258 107.716 417.918 107.624 417.534 107.624C417.158 107.624 416.818 107.716 416.514 107.9C416.218 108.084 415.982 108.336 415.806 108.656C415.638 108.976 415.554 109.34 415.554 109.748C415.554 110.156 415.638 110.524 415.806 110.852C415.982 111.172 416.218 111.424 416.514 111.608C416.818 111.792 417.158 111.884 417.534 111.884ZM425.285 113.144C424.637 113.144 424.061 112.996 423.557 112.7C423.061 112.396 422.673 111.988 422.393 111.476C422.113 110.956 421.973 110.376 421.973 109.736C421.973 109.08 422.113 108.5 422.393 107.996C422.681 107.492 423.065 107.096 423.545 106.808C424.025 106.512 424.569 106.364 425.177 106.364C425.665 106.364 426.101 106.448 426.485 106.616C426.869 106.784 427.193 107.016 427.457 107.312C427.721 107.6 427.921 107.932 428.057 108.308C428.201 108.684 428.273 109.084 428.273 109.508C428.273 109.612 428.269 109.72 428.261 109.832C428.253 109.944 428.237 110.048 428.213 110.144H423.041V109.064H427.445L426.797 109.556C426.877 109.164 426.849 108.816 426.713 108.512C426.585 108.2 426.385 107.956 426.113 107.78C425.849 107.596 425.537 107.504 425.177 107.504C424.817 107.504 424.497 107.596 424.217 107.78C423.937 107.956 423.721 108.212 423.569 108.548C423.417 108.876 423.357 109.276 423.389 109.748C423.349 110.188 423.409 110.572 423.569 110.9C423.737 111.228 423.969 111.484 424.265 111.668C424.569 111.852 424.913 111.944 425.297 111.944C425.689 111.944 426.021 111.856 426.293 111.68C426.573 111.504 426.793 111.276 426.953 110.996L428.057 111.536C427.929 111.84 427.729 112.116 427.457 112.364C427.193 112.604 426.873 112.796 426.497 112.94C426.129 113.076 425.725 113.144 425.285 113.144ZM429.597 113V103.916H430.953V113H429.597Z" fill="white"/>
<path d="M372 152C372 147.582 375.582 144 380 144H432C436.418 144 440 147.582 440 152V160C440 164.418 436.418 168 432 168H380C375.582 168 372 164.418 372 160V152Z" fill="#31E000"/>
<path d="M393 150H383C382.735 150 382.48 150.105 382.293 150.293C382.105 150.48 382 150.735 382 151V161C382 161.265 382.105 161.52 382.293 161.707C382.48 161.895 382.735 162 383 162H393C393.265 162 393.52 161.895 393.707 161.707C393.895 161.52 394 161.265 394 161V151C394 150.735 393.895 150.48 393.707 150.293C393.52 150.105 393.265 150 393 150ZM383 161V151.707L392.293 161H383ZM383.707 151H393V160.294L383.707 151Z" fill="#1B1C1A"/>
<path d="M400.924 161V152.06H402.34V159.74H406.204V161H400.924ZM409.205 161.144C408.765 161.144 408.377 161.068 408.041 160.916C407.713 160.756 407.457 160.54 407.273 160.268C407.089 159.988 406.997 159.66 406.997 159.284C406.997 158.932 407.073 158.616 407.225 158.336C407.385 158.056 407.629 157.82 407.957 157.628C408.285 157.436 408.697 157.3 409.193 157.22L411.449 156.848V157.916L409.457 158.264C409.097 158.328 408.833 158.444 408.665 158.612C408.497 158.772 408.413 158.98 408.413 159.236C408.413 159.484 408.505 159.688 408.689 159.848C408.881 160 409.125 160.076 409.421 160.076C409.789 160.076 410.109 159.996 410.381 159.836C410.661 159.676 410.877 159.464 411.029 159.2C411.181 158.928 411.257 158.628 411.257 158.3V156.632C411.257 156.312 411.137 156.052 410.897 155.852C410.665 155.644 410.353 155.54 409.961 155.54C409.601 155.54 409.285 155.636 409.013 155.828C408.749 156.012 408.553 156.252 408.425 156.548L407.297 155.984C407.417 155.664 407.613 155.384 407.885 155.144C408.157 154.896 408.473 154.704 408.833 154.568C409.201 154.432 409.589 154.364 409.997 154.364C410.509 154.364 410.961 154.46 411.353 154.652C411.753 154.844 412.061 155.112 412.277 155.456C412.501 155.792 412.613 156.184 412.613 156.632V161H411.317V159.824L411.593 159.86C411.441 160.124 411.245 160.352 411.005 160.544C410.773 160.736 410.505 160.884 410.201 160.988C409.905 161.092 409.573 161.144 409.205 161.144ZM417.666 161.144C417.162 161.144 416.702 161.04 416.286 160.832C415.878 160.624 415.562 160.324 415.338 159.932L415.494 159.68V161H414.198V151.916H415.554V155.852L415.338 155.54C415.578 155.172 415.898 154.884 416.298 154.676C416.698 154.468 417.154 154.364 417.666 154.364C418.282 154.364 418.834 154.512 419.322 154.808C419.818 155.104 420.206 155.508 420.486 156.02C420.774 156.532 420.918 157.108 420.918 157.748C420.918 158.388 420.774 158.964 420.486 159.476C420.206 159.988 419.822 160.396 419.334 160.7C418.846 160.996 418.29 161.144 417.666 161.144ZM417.534 159.884C417.918 159.884 418.258 159.792 418.554 159.608C418.85 159.424 419.082 159.172 419.25 158.852C419.426 158.524 419.514 158.156 419.514 157.748C419.514 157.34 419.426 156.976 419.25 156.656C419.082 156.336 418.85 156.084 418.554 155.9C418.258 155.716 417.918 155.624 417.534 155.624C417.158 155.624 416.818 155.716 416.514 155.9C416.218 156.084 415.982 156.336 415.806 156.656C415.638 156.976 415.554 157.34 415.554 157.748C415.554 158.156 415.638 158.524 415.806 158.852C415.982 159.172 416.218 159.424 416.514 159.608C416.818 159.792 417.158 159.884 417.534 159.884ZM425.285 161.144C424.637 161.144 424.061 160.996 423.557 160.7C423.061 160.396 422.673 159.988 422.393 159.476C422.113 158.956 421.973 158.376 421.973 157.736C421.973 157.08 422.113 156.5 422.393 155.996C422.681 155.492 423.065 155.096 423.545 154.808C424.025 154.512 424.569 154.364 425.177 154.364C425.665 154.364 426.101 154.448 426.485 154.616C426.869 154.784 427.193 155.016 427.457 155.312C427.721 155.6 427.921 155.932 428.057 156.308C428.201 156.684 428.273 157.084 428.273 157.508C428.273 157.612 428.269 157.72 428.261 157.832C428.253 157.944 428.237 158.048 428.213 158.144H423.041V157.064H427.445L426.797 157.556C426.877 157.164 426.849 156.816 426.713 156.512C426.585 156.2 426.385 155.956 426.113 155.78C425.849 155.596 425.537 155.504 425.177 155.504C424.817 155.504 424.497 155.596 424.217 155.78C423.937 155.956 423.721 156.212 423.569 156.548C423.417 156.876 423.357 157.276 423.389 157.748C423.349 158.188 423.409 158.572 423.569 158.9C423.737 159.228 423.969 159.484 424.265 159.668C424.569 159.852 424.913 159.944 425.297 159.944C425.689 159.944 426.021 159.856 426.293 159.68C426.573 159.504 426.793 159.276 426.953 158.996L428.057 159.536C427.929 159.84 427.729 160.116 427.457 160.364C427.193 160.604 426.873 160.796 426.497 160.94C426.129 161.076 425.725 161.144 425.285 161.144ZM429.597 161V151.916H430.953V161H429.597Z" fill="#292C28"/>
<path d="M372 200C372 195.582 375.582 192 380 192H432C436.418 192 440 195.582 440 200V208C440 212.418 436.418 216 432 216H380C375.582 216 372 212.418 372 208V200Z" fill="#ECDEDB"/>
<path d="M393 198H383C382.735 198 382.48 198.105 382.293 198.293C382.105 198.48 382 198.735 382 199V209C382 209.265 382.105 209.52 382.293 209.707C382.48 209.895 382.735 210 383 210H393C393.265 210 393.52 209.895 393.707 209.707C393.895 209.52 394 209.265 394 209V199C394 198.735 393.895 198.48 393.707 198.293C393.52 198.105 393.265 198 393 198ZM383 209V199.707L392.293 209H383ZM383.707 199H393V208.294L383.707 199Z" fill="#6C7469"/>
<path d="M400.924 209V200.06H402.34V207.74H406.204V209H400.924ZM409.205 209.144C408.765 209.144 408.377 209.068 408.041 208.916C407.713 208.756 407.457 208.54 407.273 208.268C407.089 207.988 406.997 207.66 406.997 207.284C406.997 206.932 407.073 206.616 407.225 206.336C407.385 206.056 407.629 205.82 407.957 205.628C408.285 205.436 408.697 205.3 409.193 205.22L411.449 204.848V205.916L409.457 206.264C409.097 206.328 408.833 206.444 408.665 206.612C408.497 206.772 408.413 206.98 408.413 207.236C408.413 207.484 408.505 207.688 408.689 207.848C408.881 208 409.125 208.076 409.421 208.076C409.789 208.076 410.109 207.996 410.381 207.836C410.661 207.676 410.877 207.464 411.029 207.2C411.181 206.928 411.257 206.628 411.257 206.3V204.632C411.257 204.312 411.137 204.052 410.897 203.852C410.665 203.644 410.353 203.54 409.961 203.54C409.601 203.54 409.285 203.636 409.013 203.828C408.749 204.012 408.553 204.252 408.425 204.548L407.297 203.984C407.417 203.664 407.613 203.384 407.885 203.144C408.157 202.896 408.473 202.704 408.833 202.568C409.201 202.432 409.589 202.364 409.997 202.364C410.509 202.364 410.961 202.46 411.353 202.652C411.753 202.844 412.061 203.112 412.277 203.456C412.501 203.792 412.613 204.184 412.613 204.632V209H411.317V207.824L411.593 207.86C411.441 208.124 411.245 208.352 411.005 208.544C410.773 208.736 410.505 208.884 410.201 208.988C409.905 209.092 409.573 209.144 409.205 209.144ZM417.666 209.144C417.162 209.144 416.702 209.04 416.286 208.832C415.878 208.624 415.562 208.324 415.338 207.932L415.494 207.68V209H414.198V199.916H415.554V203.852L415.338 203.54C415.578 203.172 415.898 202.884 416.298 202.676C416.698 202.468 417.154 202.364 417.666 202.364C418.282 202.364 418.834 202.512 419.322 202.808C419.818 203.104 420.206 203.508 420.486 204.02C420.774 204.532 420.918 205.108 420.918 205.748C420.918 206.388 420.774 206.964 420.486 207.476C420.206 207.988 419.822 208.396 419.334 208.7C418.846 208.996 418.29 209.144 417.666 209.144ZM417.534 207.884C417.918 207.884 418.258 207.792 418.554 207.608C418.85 207.424 419.082 207.172 419.25 206.852C419.426 206.524 419.514 206.156 419.514 205.748C419.514 205.34 419.426 204.976 419.25 204.656C419.082 204.336 418.85 204.084 418.554 203.9C418.258 203.716 417.918 203.624 417.534 203.624C417.158 203.624 416.818 203.716 416.514 203.9C416.218 204.084 415.982 204.336 415.806 204.656C415.638 204.976 415.554 205.34 415.554 205.748C415.554 206.156 415.638 206.524 415.806 206.852C415.982 207.172 416.218 207.424 416.514 207.608C416.818 207.792 417.158 207.884 417.534 207.884ZM425.285 209.144C424.637 209.144 424.061 208.996 423.557 208.7C423.061 208.396 422.673 207.988 422.393 207.476C422.113 206.956 421.973 206.376 421.973 205.736C421.973 205.08 422.113 204.5 422.393 203.996C422.681 203.492 423.065 203.096 423.545 202.808C424.025 202.512 424.569 202.364 425.177 202.364C425.665 202.364 426.101 202.448 426.485 202.616C426.869 202.784 427.193 203.016 427.457 203.312C427.721 203.6 427.921 203.932 428.057 204.308C428.201 204.684 428.273 205.084 428.273 205.508C428.273 205.612 428.269 205.72 428.261 205.832C428.253 205.944 428.237 206.048 428.213 206.144H423.041V205.064H427.445L426.797 205.556C426.877 205.164 426.849 204.816 426.713 204.512C426.585 204.2 426.385 203.956 426.113 203.78C425.849 203.596 425.537 203.504 425.177 203.504C424.817 203.504 424.497 203.596 424.217 203.78C423.937 203.956 423.721 204.212 423.569 204.548C423.417 204.876 423.357 205.276 423.389 205.748C423.349 206.188 423.409 206.572 423.569 206.9C423.737 207.228 423.969 207.484 424.265 207.668C424.569 207.852 424.913 207.944 425.297 207.944C425.689 207.944 426.021 207.856 426.293 207.68C426.573 207.504 426.793 207.276 426.953 206.996L428.057 207.536C427.929 207.84 427.729 208.116 427.457 208.364C427.193 208.604 426.873 208.796 426.497 208.94C426.129 209.076 425.725 209.144 425.285 209.144ZM429.597 209V199.916H430.953V209H429.597Z" fill="white"/>
<path d="M372 248C372 243.582 375.582 240 380 240H432C436.418 240 440 243.582 440 248V256C440 260.418 436.418 264 432 264H380C375.582 264 372 260.418 372 256V248Z" fill="#FFF5A7"/>
<path d="M393 246H383C382.735 246 382.48 246.105 382.293 246.293C382.105 246.48 382 246.735 382 247V257C382 257.265 382.105 257.52 382.293 257.707C382.48 257.895 382.735 258 383 258H393C393.265 258 393.52 257.895 393.707 257.707C393.895 257.52 394 257.265 394 257V247C394 246.735 393.895 246.48 393.707 246.293C393.52 246.105 393.265 246 393 246ZM383 257V247.707L392.293 257H383ZM383.707 247H393V256.294L383.707 247Z" fill="#6C7469"/>
<path d="M400.924 257V248.06H402.34V255.74H406.204V257H400.924ZM409.205 257.144C408.765 257.144 408.377 257.068 408.041 256.916C407.713 256.756 407.457 256.54 407.273 256.268C407.089 255.988 406.997 255.66 406.997 255.284C406.997 254.932 407.073 254.616 407.225 254.336C407.385 254.056 407.629 253.82 407.957 253.628C408.285 253.436 408.697 253.3 409.193 253.22L411.449 252.848V253.916L409.457 254.264C409.097 254.328 408.833 254.444 408.665 254.612C408.497 254.772 408.413 254.98 408.413 255.236C408.413 255.484 408.505 255.688 408.689 255.848C408.881 256 409.125 256.076 409.421 256.076C409.789 256.076 410.109 255.996 410.381 255.836C410.661 255.676 410.877 255.464 411.029 255.2C411.181 254.928 411.257 254.628 411.257 254.3V252.632C411.257 252.312 411.137 252.052 410.897 251.852C410.665 251.644 410.353 251.54 409.961 251.54C409.601 251.54 409.285 251.636 409.013 251.828C408.749 252.012 408.553 252.252 408.425 252.548L407.297 251.984C407.417 251.664 407.613 251.384 407.885 251.144C408.157 250.896 408.473 250.704 408.833 250.568C409.201 250.432 409.589 250.364 409.997 250.364C410.509 250.364 410.961 250.46 411.353 250.652C411.753 250.844 412.061 251.112 412.277 251.456C412.501 251.792 412.613 252.184 412.613 252.632V257H411.317V255.824L411.593 255.86C411.441 256.124 411.245 256.352 411.005 256.544C410.773 256.736 410.505 256.884 410.201 256.988C409.905 257.092 409.573 257.144 409.205 257.144ZM417.666 257.144C417.162 257.144 416.702 257.04 416.286 256.832C415.878 256.624 415.562 256.324 415.338 255.932L415.494 255.68V257H414.198V247.916H415.554V251.852L415.338 251.54C415.578 251.172 415.898 250.884 416.298 250.676C416.698 250.468 417.154 250.364 417.666 250.364C418.282 250.364 418.834 250.512 419.322 250.808C419.818 251.104 420.206 251.508 420.486 252.02C420.774 252.532 420.918 253.108 420.918 253.748C420.918 254.388 420.774 254.964 420.486 255.476C420.206 255.988 419.822 256.396 419.334 256.7C418.846 256.996 418.29 257.144 417.666 257.144ZM417.534 255.884C417.918 255.884 418.258 255.792 418.554 255.608C418.85 255.424 419.082 255.172 419.25 254.852C419.426 254.524 419.514 254.156 419.514 253.748C419.514 253.34 419.426 252.976 419.25 252.656C419.082 252.336 418.85 252.084 418.554 251.9C418.258 251.716 417.918 251.624 417.534 251.624C417.158 251.624 416.818 251.716 416.514 251.9C416.218 252.084 415.982 252.336 415.806 252.656C415.638 252.976 415.554 253.34 415.554 253.748C415.554 254.156 415.638 254.524 415.806 254.852C415.982 255.172 416.218 255.424 416.514 255.608C416.818 255.792 417.158 255.884 417.534 255.884ZM425.285 257.144C424.637 257.144 424.061 256.996 423.557 256.7C423.061 256.396 422.673 255.988 422.393 255.476C422.113 254.956 421.973 254.376 421.973 253.736C421.973 253.08 422.113 252.5 422.393 251.996C422.681 251.492 423.065 251.096 423.545 250.808C424.025 250.512 424.569 250.364 425.177 250.364C425.665 250.364 426.101 250.448 426.485 250.616C426.869 250.784 427.193 251.016 427.457 251.312C427.721 251.6 427.921 251.932 428.057 252.308C428.201 252.684 428.273 253.084 428.273 253.508C428.273 253.612 428.269 253.72 428.261 253.832C428.253 253.944 428.237 254.048 428.213 254.144H423.041V253.064H427.445L426.797 253.556C426.877 253.164 426.849 252.816 426.713 252.512C426.585 252.2 426.385 251.956 426.113 251.78C425.849 251.596 425.537 251.504 425.177 251.504C424.817 251.504 424.497 251.596 424.217 251.78C423.937 251.956 423.721 252.212 423.569 252.548C423.417 252.876 423.357 253.276 423.389 253.748C423.349 254.188 423.409 254.572 423.569 254.9C423.737 255.228 423.969 255.484 424.265 255.668C424.569 255.852 424.913 255.944 425.297 255.944C425.689 255.944 426.021 255.856 426.293 255.68C426.573 255.504 426.793 255.276 426.953 254.996L428.057 255.536C427.929 255.84 427.729 256.116 427.457 256.364C427.193 256.604 426.873 256.796 426.497 256.94C426.129 257.076 425.725 257.144 425.285 257.144ZM429.597 257V247.916H430.953V257H429.597Z" fill="white"/>
<path d="M372 296C372 291.582 375.582 288 380 288H432C436.418 288 440 291.582 440 296V304C440 308.418 436.418 312 432 312H380C375.582 312 372 308.418 372 304V296Z" fill="#DBECEA"/>
<path d="M393 294H383C382.735 294 382.48 294.105 382.293 294.293C382.105 294.48 382 294.735 382 295V305C382 305.265 382.105 305.52 382.293 305.707C382.48 305.895 382.735 306 383 306H393C393.265 306 393.52 305.895 393.707 305.707C393.895 305.52 394 305.265 394 305V295C394 294.735 393.895 294.48 393.707 294.293C393.52 294.105 393.265 294 393 294ZM383 305V295.707L392.293 305H383ZM383.707 295H393V304.294L383.707 295Z" fill="#6C7469"/>
<path d="M400.924 305V296.06H402.34V303.74H406.204V305H400.924ZM409.205 305.144C408.765 305.144 408.377 305.068 408.041 304.916C407.713 304.756 407.457 304.54 407.273 304.268C407.089 303.988 406.997 303.66 406.997 303.284C406.997 302.932 407.073 302.616 407.225 302.336C407.385 302.056 407.629 301.82 407.957 301.628C408.285 301.436 408.697 301.3 409.193 301.22L411.449 300.848V301.916L409.457 302.264C409.097 302.328 408.833 302.444 408.665 302.612C408.497 302.772 408.413 302.98 408.413 303.236C408.413 303.484 408.505 303.688 408.689 303.848C408.881 304 409.125 304.076 409.421 304.076C409.789 304.076 410.109 303.996 410.381 303.836C410.661 303.676 410.877 303.464 411.029 303.2C411.181 302.928 411.257 302.628 411.257 302.3V300.632C411.257 300.312 411.137 300.052 410.897 299.852C410.665 299.644 410.353 299.54 409.961 299.54C409.601 299.54 409.285 299.636 409.013 299.828C408.749 300.012 408.553 300.252 408.425 300.548L407.297 299.984C407.417 299.664 407.613 299.384 407.885 299.144C408.157 298.896 408.473 298.704 408.833 298.568C409.201 298.432 409.589 298.364 409.997 298.364C410.509 298.364 410.961 298.46 411.353 298.652C411.753 298.844 412.061 299.112 412.277 299.456C412.501 299.792 412.613 300.184 412.613 300.632V305H411.317V303.824L411.593 303.86C411.441 304.124 411.245 304.352 411.005 304.544C410.773 304.736 410.505 304.884 410.201 304.988C409.905 305.092 409.573 305.144 409.205 305.144ZM417.666 305.144C417.162 305.144 416.702 305.04 416.286 304.832C415.878 304.624 415.562 304.324 415.338 303.932L415.494 303.68V305H414.198V295.916H415.554V299.852L415.338 299.54C415.578 299.172 415.898 298.884 416.298 298.676C416.698 298.468 417.154 298.364 417.666 298.364C418.282 298.364 418.834 298.512 419.322 298.808C419.818 299.104 420.206 299.508 420.486 300.02C420.774 300.532 420.918 301.108 420.918 301.748C420.918 302.388 420.774 302.964 420.486 303.476C420.206 303.988 419.822 304.396 419.334 304.7C418.846 304.996 418.29 305.144 417.666 305.144ZM417.534 303.884C417.918 303.884 418.258 303.792 418.554 303.608C418.85 303.424 419.082 303.172 419.25 302.852C419.426 302.524 419.514 302.156 419.514 301.748C419.514 301.34 419.426 300.976 419.25 300.656C419.082 300.336 418.85 300.084 418.554 299.9C418.258 299.716 417.918 299.624 417.534 299.624C417.158 299.624 416.818 299.716 416.514 299.9C416.218 300.084 415.982 300.336 415.806 300.656C415.638 300.976 415.554 301.34 415.554 301.748C415.554 302.156 415.638 302.524 415.806 302.852C415.982 303.172 416.218 303.424 416.514 303.608C416.818 303.792 417.158 303.884 417.534 303.884ZM425.285 305.144C424.637 305.144 424.061 304.996 423.557 304.7C423.061 304.396 422.673 303.988 422.393 303.476C422.113 302.956 421.973 302.376 421.973 301.736C421.973 301.08 422.113 300.5 422.393 299.996C422.681 299.492 423.065 299.096 423.545 298.808C424.025 298.512 424.569 298.364 425.177 298.364C425.665 298.364 426.101 298.448 426.485 298.616C426.869 298.784 427.193 299.016 427.457 299.312C427.721 299.6 427.921 299.932 428.057 300.308C428.201 300.684 428.273 301.084 428.273 301.508C428.273 301.612 428.269 301.72 428.261 301.832C428.253 301.944 428.237 302.048 428.213 302.144H423.041V301.064H427.445L426.797 301.556C426.877 301.164 426.849 300.816 426.713 300.512C426.585 300.2 426.385 299.956 426.113 299.78C425.849 299.596 425.537 299.504 425.177 299.504C424.817 299.504 424.497 299.596 424.217 299.78C423.937 299.956 423.721 300.212 423.569 300.548C423.417 300.876 423.357 301.276 423.389 301.748C423.349 302.188 423.409 302.572 423.569 302.9C423.737 303.228 423.969 303.484 424.265 303.668C424.569 303.852 424.913 303.944 425.297 303.944C425.689 303.944 426.021 303.856 426.293 303.68C426.573 303.504 426.793 303.276 426.953 302.996L428.057 303.536C427.929 303.84 427.729 304.116 427.457 304.364C427.193 304.604 426.873 304.796 426.497 304.94C426.129 305.076 425.725 305.144 425.285 305.144ZM429.597 305V295.916H430.953V305H429.597Z" fill="white"/>
</svg>
