<svg width="600" height="360" viewBox="0 0 600 360" fill="none" xmlns="http://www.w3.org/2000/svg">
<rect x="0.5" y="0.5" width="599" height="359" rx="15.5" fill="white"/>
<rect x="0.5" y="0.5" width="599" height="359" rx="15.5" stroke="#E6E7E5"/>
<path d="M138.836 37V28.06H142.604C143.164 28.06 143.648 28.16 144.056 28.36C144.464 28.552 144.776 28.832 144.992 29.2C145.208 29.56 145.316 29.988 145.316 30.484C145.316 30.916 145.204 31.312 144.98 31.672C144.764 32.024 144.424 32.304 143.96 32.512V31.912C144.368 32.072 144.7 32.276 144.956 32.524C145.212 32.764 145.396 33.036 145.508 33.34C145.628 33.644 145.688 33.964 145.688 34.3C145.688 35.14 145.412 35.8 144.86 36.28C144.316 36.76 143.568 37 142.616 37H138.836ZM140.252 35.74H142.724C143.196 35.74 143.572 35.612 143.852 35.356C144.132 35.092 144.272 34.744 144.272 34.312C144.272 33.872 144.132 33.524 143.852 33.268C143.572 33.004 143.196 32.872 142.724 32.872H140.252V35.74ZM140.252 31.624H142.64C143.024 31.624 143.332 31.516 143.564 31.3C143.796 31.076 143.912 30.784 143.912 30.424C143.912 30.064 143.796 29.784 143.564 29.584C143.332 29.384 143.024 29.284 142.64 29.284H140.252V31.624ZM150.145 37.144C149.521 37.144 148.949 36.996 148.429 36.7C147.917 36.404 147.509 36 147.205 35.488C146.901 34.976 146.749 34.396 146.749 33.748C146.749 33.092 146.901 32.512 147.205 32.008C147.509 31.496 147.917 31.096 148.429 30.808C148.941 30.512 149.513 30.364 150.145 30.364C150.785 30.364 151.357 30.512 151.861 30.808C152.373 31.096 152.777 31.496 153.073 32.008C153.377 32.512 153.529 33.092 153.529 33.748C153.529 34.404 153.377 34.988 153.073 35.5C152.769 36.012 152.361 36.416 151.849 36.712C151.337 37 150.769 37.144 150.145 37.144ZM150.145 35.884C150.529 35.884 150.869 35.792 151.165 35.608C151.461 35.424 151.693 35.172 151.861 34.852C152.037 34.524 152.125 34.156 152.125 33.748C152.125 33.34 152.037 32.976 151.861 32.656C151.693 32.336 151.461 32.084 151.165 31.9C150.869 31.716 150.529 31.624 150.145 31.624C149.769 31.624 149.429 31.716 149.125 31.9C148.829 32.084 148.593 32.336 148.417 32.656C148.249 32.976 148.165 33.34 148.165 33.748C148.165 34.156 148.249 34.524 148.417 34.852C148.593 35.172 148.829 35.424 149.125 35.608C149.429 35.792 149.769 35.884 150.145 35.884ZM157.543 37.072C156.863 37.072 156.335 36.88 155.959 36.496C155.583 36.112 155.395 35.572 155.395 34.876V31.732H154.255V30.508H154.435C154.739 30.508 154.975 30.42 155.143 30.244C155.311 30.068 155.395 29.828 155.395 29.524V29.02H156.751V30.508H158.227V31.732H156.751V34.816C156.751 35.04 156.787 35.232 156.859 35.392C156.931 35.544 157.047 35.664 157.207 35.752C157.367 35.832 157.575 35.872 157.831 35.872C157.895 35.872 157.967 35.868 158.047 35.86C158.127 35.852 158.203 35.844 158.275 35.836V37C158.163 37.016 158.039 37.032 157.903 37.048C157.767 37.064 157.647 37.072 157.543 37.072ZM159.599 37V27.916H160.955V31.78L160.739 31.612C160.899 31.204 161.155 30.896 161.507 30.688C161.859 30.472 162.267 30.364 162.731 30.364C163.211 30.364 163.635 30.468 164.003 30.676C164.371 30.884 164.659 31.172 164.867 31.54C165.075 31.908 165.179 32.328 165.179 32.8V37H163.835V33.172C163.835 32.844 163.771 32.568 163.643 32.344C163.523 32.112 163.355 31.936 163.139 31.816C162.923 31.688 162.675 31.624 162.395 31.624C162.123 31.624 161.875 31.688 161.651 31.816C161.435 31.936 161.263 32.112 161.135 32.344C161.015 32.576 160.955 32.852 160.955 33.172V37H159.599ZM170.612 37L168.068 30.508H169.544L171.5 35.8H170.96L172.916 30.508H174.404L171.848 37H170.612ZM178.256 37.144C177.608 37.144 177.032 36.996 176.528 36.7C176.032 36.396 175.644 35.988 175.364 35.476C175.084 34.956 174.944 34.376 174.944 33.736C174.944 33.08 175.084 32.5 175.364 31.996C175.652 31.492 176.036 31.096 176.516 30.808C176.996 30.512 177.54 30.364 178.148 30.364C178.636 30.364 179.072 30.448 179.456 30.616C179.84 30.784 180.164 31.016 180.428 31.312C180.692 31.6 180.892 31.932 181.028 32.308C181.172 32.684 181.244 33.084 181.244 33.508C181.244 33.612 181.24 33.72 181.232 33.832C181.224 33.944 181.208 34.048 181.184 34.144H176.012V33.064H180.416L179.768 33.556C179.848 33.164 179.82 32.816 179.684 32.512C179.556 32.2 179.356 31.956 179.084 31.78C178.82 31.596 178.508 31.504 178.148 31.504C177.788 31.504 177.468 31.596 177.188 31.78C176.908 31.956 176.692 32.212 176.54 32.548C176.388 32.876 176.328 33.276 176.36 33.748C176.32 34.188 176.38 34.572 176.54 34.9C176.708 35.228 176.94 35.484 177.236 35.668C177.54 35.852 177.884 35.944 178.268 35.944C178.66 35.944 178.992 35.856 179.264 35.68C179.544 35.504 179.764 35.276 179.924 34.996L181.028 35.536C180.9 35.84 180.7 36.116 180.428 36.364C180.164 36.604 179.844 36.796 179.468 36.94C179.1 37.076 178.696 37.144 178.256 37.144ZM182.567 37V30.508H183.863V31.816L183.743 31.624C183.887 31.2 184.119 30.896 184.439 30.712C184.759 30.52 185.143 30.424 185.591 30.424H185.987V31.66H185.423C184.975 31.66 184.611 31.8 184.331 32.08C184.059 32.352 183.923 32.744 183.923 33.256V37H182.567ZM189.315 37.144C188.651 37.144 188.067 36.98 187.563 36.652C187.067 36.324 186.719 35.884 186.519 35.332L187.563 34.84C187.739 35.208 187.979 35.5 188.283 35.716C188.595 35.932 188.939 36.04 189.315 36.04C189.635 36.04 189.895 35.968 190.095 35.824C190.295 35.68 190.395 35.484 190.395 35.236C190.395 35.076 190.351 34.948 190.263 34.852C190.175 34.748 190.063 34.664 189.927 34.6C189.799 34.536 189.667 34.488 189.531 34.456L188.511 34.168C187.951 34.008 187.531 33.768 187.251 33.448C186.979 33.12 186.843 32.74 186.843 32.308C186.843 31.916 186.943 31.576 187.143 31.288C187.343 30.992 187.619 30.764 187.971 30.604C188.323 30.444 188.719 30.364 189.159 30.364C189.751 30.364 190.279 30.512 190.743 30.808C191.207 31.096 191.535 31.5 191.727 32.02L190.683 32.512C190.555 32.2 190.351 31.952 190.071 31.768C189.799 31.584 189.491 31.492 189.147 31.492C188.851 31.492 188.615 31.564 188.439 31.708C188.263 31.844 188.175 32.024 188.175 32.248C188.175 32.4 188.215 32.528 188.295 32.632C188.375 32.728 188.479 32.808 188.607 32.872C188.735 32.928 188.867 32.976 189.003 33.016L190.059 33.328C190.595 33.48 191.007 33.72 191.295 34.048C191.583 34.368 191.727 34.752 191.727 35.2C191.727 35.584 191.623 35.924 191.415 36.22C191.215 36.508 190.935 36.736 190.575 36.904C190.215 37.064 189.795 37.144 189.315 37.144ZM193.056 37V30.508H194.412V37H193.056ZM193.056 29.62V28.06H194.412V29.62H193.056ZM199.129 37.144C198.505 37.144 197.933 36.996 197.413 36.7C196.901 36.404 196.493 36 196.189 35.488C195.885 34.976 195.733 34.396 195.733 33.748C195.733 33.092 195.885 32.512 196.189 32.008C196.493 31.496 196.901 31.096 197.413 30.808C197.925 30.512 198.497 30.364 199.129 30.364C199.769 30.364 200.341 30.512 200.845 30.808C201.357 31.096 201.761 31.496 202.057 32.008C202.361 32.512 202.513 33.092 202.513 33.748C202.513 34.404 202.361 34.988 202.057 35.5C201.753 36.012 201.345 36.416 200.833 36.712C200.321 37 199.753 37.144 199.129 37.144ZM199.129 35.884C199.513 35.884 199.853 35.792 200.149 35.608C200.445 35.424 200.677 35.172 200.845 34.852C201.021 34.524 201.109 34.156 201.109 33.748C201.109 33.34 201.021 32.976 200.845 32.656C200.677 32.336 200.445 32.084 200.149 31.9C199.853 31.716 199.513 31.624 199.129 31.624C198.753 31.624 198.413 31.716 198.109 31.9C197.813 32.084 197.577 32.336 197.401 32.656C197.233 32.976 197.149 33.34 197.149 33.748C197.149 34.156 197.233 34.524 197.401 34.852C197.577 35.172 197.813 35.424 198.109 35.608C198.413 35.792 198.753 35.884 199.129 35.884ZM203.837 37V30.508H205.133V31.78L204.977 31.612C205.137 31.204 205.393 30.896 205.745 30.688C206.097 30.472 206.505 30.364 206.969 30.364C207.449 30.364 207.873 30.468 208.241 30.676C208.609 30.884 208.897 31.172 209.105 31.54C209.313 31.908 209.417 32.332 209.417 32.812V37H208.073V33.172C208.073 32.844 208.013 32.568 207.893 32.344C207.773 32.112 207.601 31.936 207.377 31.816C207.161 31.688 206.913 31.624 206.633 31.624C206.353 31.624 206.101 31.688 205.877 31.816C205.661 31.936 205.493 32.112 205.373 32.344C205.253 32.576 205.193 32.852 205.193 33.172V37H203.837ZM213.268 37.144C212.604 37.144 212.02 36.98 211.516 36.652C211.02 36.324 210.672 35.884 210.472 35.332L211.516 34.84C211.692 35.208 211.932 35.5 212.236 35.716C212.548 35.932 212.892 36.04 213.268 36.04C213.588 36.04 213.848 35.968 214.048 35.824C214.248 35.68 214.348 35.484 214.348 35.236C214.348 35.076 214.304 34.948 214.216 34.852C214.128 34.748 214.016 34.664 213.88 34.6C213.752 34.536 213.62 34.488 213.484 34.456L212.464 34.168C211.904 34.008 211.484 33.768 211.204 33.448C210.932 33.12 210.796 32.74 210.796 32.308C210.796 31.916 210.896 31.576 211.096 31.288C211.296 30.992 211.572 30.764 211.924 30.604C212.276 30.444 212.672 30.364 213.112 30.364C213.704 30.364 214.232 30.512 214.696 30.808C215.16 31.096 215.488 31.5 215.68 32.02L214.636 32.512C214.508 32.2 214.304 31.952 214.024 31.768C213.752 31.584 213.444 31.492 213.1 31.492C212.804 31.492 212.568 31.564 212.392 31.708C212.216 31.844 212.128 32.024 212.128 32.248C212.128 32.4 212.168 32.528 212.248 32.632C212.328 32.728 212.432 32.808 212.56 32.872C212.688 32.928 212.82 32.976 212.956 33.016L214.012 33.328C214.548 33.48 214.96 33.72 215.248 34.048C215.536 34.368 215.68 34.752 215.68 35.2C215.68 35.584 215.576 35.924 215.368 36.22C215.168 36.508 214.888 36.736 214.528 36.904C214.168 37.064 213.748 37.144 213.268 37.144ZM221.014 38.92C220.358 38.152 219.862 37.312 219.526 36.4C219.19 35.488 219.022 34.516 219.022 33.484C219.022 32.444 219.19 31.468 219.526 30.556C219.862 29.644 220.358 28.812 221.014 28.06H222.154C221.586 28.9 221.154 29.776 220.858 30.688C220.57 31.592 220.426 32.524 220.426 33.484C220.426 34.436 220.57 35.372 220.858 36.292C221.154 37.204 221.586 38.08 222.154 38.92H221.014ZM223.445 37V28.06H224.861V35.74H228.725V37H223.445ZM229.782 37V30.508H231.138V37H229.782ZM229.782 29.62V28.06H231.138V29.62H229.782ZM235.856 39.64C235.384 39.64 234.948 39.564 234.548 39.412C234.148 39.26 233.804 39.048 233.516 38.776C233.228 38.512 233.012 38.2 232.868 37.84L234.116 37.324C234.228 37.628 234.432 37.88 234.728 38.08C235.032 38.28 235.404 38.38 235.844 38.38C236.188 38.38 236.496 38.312 236.768 38.176C237.04 38.048 237.256 37.856 237.416 37.6C237.576 37.352 237.656 37.052 237.656 36.7V35.236L237.896 35.512C237.672 35.928 237.36 36.244 236.96 36.46C236.568 36.676 236.124 36.784 235.628 36.784C235.028 36.784 234.488 36.644 234.008 36.364C233.528 36.084 233.148 35.7 232.868 35.212C232.596 34.724 232.46 34.176 232.46 33.568C232.46 32.952 232.596 32.404 232.868 31.924C233.148 31.444 233.524 31.064 233.996 30.784C234.468 30.504 235.008 30.364 235.616 30.364C236.112 30.364 236.552 30.472 236.936 30.688C237.328 30.896 237.648 31.2 237.896 31.6L237.716 31.936V30.508H239V36.7C239 37.26 238.864 37.76 238.592 38.2C238.328 38.648 237.96 39 237.488 39.256C237.016 39.512 236.472 39.64 235.856 39.64ZM235.784 35.524C236.144 35.524 236.464 35.44 236.744 35.272C237.024 35.096 237.244 34.864 237.404 34.576C237.572 34.28 237.656 33.948 237.656 33.58C237.656 33.212 237.572 32.88 237.404 32.584C237.236 32.288 237.012 32.056 236.732 31.888C236.452 31.712 236.136 31.624 235.784 31.624C235.416 31.624 235.088 31.712 234.8 31.888C234.512 32.056 234.284 32.288 234.116 32.584C233.956 32.872 233.876 33.204 233.876 33.58C233.876 33.94 233.956 34.268 234.116 34.564C234.284 34.86 234.512 35.096 234.8 35.272C235.088 35.44 235.416 35.524 235.784 35.524ZM240.587 37V27.916H241.943V31.78L241.727 31.612C241.887 31.204 242.143 30.896 242.495 30.688C242.847 30.472 243.255 30.364 243.719 30.364C244.199 30.364 244.623 30.468 244.991 30.676C245.359 30.884 245.647 31.172 245.855 31.54C246.063 31.908 246.167 32.328 246.167 32.8V37H244.823V33.172C244.823 32.844 244.759 32.568 244.631 32.344C244.511 32.112 244.343 31.936 244.127 31.816C243.911 31.688 243.663 31.624 243.383 31.624C243.111 31.624 242.863 31.688 242.639 31.816C242.423 31.936 242.251 32.112 242.123 32.344C242.003 32.576 241.943 32.852 241.943 33.172V37H240.587ZM250.426 37.072C249.746 37.072 249.218 36.88 248.842 36.496C248.466 36.112 248.278 35.572 248.278 34.876V31.732H247.138V30.508H247.318C247.622 30.508 247.858 30.42 248.026 30.244C248.194 30.068 248.278 29.828 248.278 29.524V29.02H249.634V30.508H251.11V31.732H249.634V34.816C249.634 35.04 249.67 35.232 249.742 35.392C249.814 35.544 249.93 35.664 250.09 35.752C250.25 35.832 250.458 35.872 250.714 35.872C250.778 35.872 250.85 35.868 250.93 35.86C251.01 35.852 251.086 35.844 251.158 35.836V37C251.046 37.016 250.922 37.032 250.786 37.048C250.65 37.064 250.53 37.072 250.426 37.072ZM256.523 37.144C256.083 37.144 255.695 37.068 255.359 36.916C255.031 36.756 254.775 36.54 254.591 36.268C254.407 35.988 254.315 35.66 254.315 35.284C254.315 34.932 254.391 34.616 254.543 34.336C254.703 34.056 254.947 33.82 255.275 33.628C255.603 33.436 256.015 33.3 256.511 33.22L258.767 32.848V33.916L256.775 34.264C256.415 34.328 256.151 34.444 255.983 34.612C255.815 34.772 255.731 34.98 255.731 35.236C255.731 35.484 255.823 35.688 256.007 35.848C256.199 36 256.443 36.076 256.739 36.076C257.107 36.076 257.427 35.996 257.699 35.836C257.979 35.676 258.195 35.464 258.347 35.2C258.499 34.928 258.575 34.628 258.575 34.3V32.632C258.575 32.312 258.455 32.052 258.215 31.852C257.983 31.644 257.671 31.54 257.279 31.54C256.919 31.54 256.603 31.636 256.331 31.828C256.067 32.012 255.871 32.252 255.743 32.548L254.615 31.984C254.735 31.664 254.931 31.384 255.203 31.144C255.475 30.896 255.791 30.704 256.151 30.568C256.519 30.432 256.907 30.364 257.315 30.364C257.827 30.364 258.279 30.46 258.671 30.652C259.071 30.844 259.379 31.112 259.595 31.456C259.819 31.792 259.931 32.184 259.931 32.632V37H258.635V35.824L258.911 35.86C258.759 36.124 258.563 36.352 258.323 36.544C258.091 36.736 257.823 36.884 257.519 36.988C257.223 37.092 256.891 37.144 256.523 37.144ZM261.517 37V30.508H262.813V31.78L262.657 31.612C262.817 31.204 263.073 30.896 263.425 30.688C263.777 30.472 264.185 30.364 264.649 30.364C265.129 30.364 265.553 30.468 265.921 30.676C266.289 30.884 266.577 31.172 266.785 31.54C266.993 31.908 267.097 32.332 267.097 32.812V37H265.753V33.172C265.753 32.844 265.693 32.568 265.573 32.344C265.453 32.112 265.281 31.936 265.057 31.816C264.841 31.688 264.593 31.624 264.313 31.624C264.033 31.624 263.781 31.688 263.557 31.816C263.341 31.936 263.173 32.112 263.053 32.344C262.933 32.576 262.873 32.852 262.873 33.172V37H261.517ZM271.548 37.144C270.924 37.144 270.364 36.996 269.868 36.7C269.38 36.396 268.992 35.988 268.704 35.476C268.424 34.964 268.284 34.388 268.284 33.748C268.284 33.108 268.428 32.532 268.716 32.02C269.004 31.508 269.392 31.104 269.88 30.808C270.368 30.512 270.92 30.364 271.536 30.364C272.056 30.364 272.516 30.468 272.916 30.676C273.316 30.884 273.632 31.172 273.864 31.54L273.66 31.852V27.916H275.004V37H273.72V35.68L273.876 35.932C273.652 36.324 273.332 36.624 272.916 36.832C272.5 37.04 272.044 37.144 271.548 37.144ZM271.68 35.884C272.056 35.884 272.392 35.792 272.688 35.608C272.992 35.424 273.228 35.172 273.396 34.852C273.572 34.524 273.66 34.156 273.66 33.748C273.66 33.34 273.572 32.976 273.396 32.656C273.228 32.336 272.992 32.084 272.688 31.9C272.392 31.716 272.056 31.624 271.68 31.624C271.304 31.624 270.964 31.716 270.66 31.9C270.356 32.084 270.12 32.336 269.952 32.656C269.784 32.976 269.7 33.34 269.7 33.748C269.7 34.156 269.784 34.524 269.952 34.852C270.12 35.172 270.352 35.424 270.648 35.608C270.952 35.792 271.296 35.884 271.68 35.884ZM278.817 37V28.06H281.745C282.673 28.06 283.477 28.248 284.157 28.624C284.845 28.992 285.377 29.512 285.753 30.184C286.129 30.856 286.317 31.636 286.317 32.524C286.317 33.404 286.129 34.184 285.753 34.864C285.377 35.536 284.845 36.06 284.157 36.436C283.477 36.812 282.673 37 281.745 37H278.817ZM280.233 35.74H281.769C282.401 35.74 282.949 35.608 283.413 35.344C283.885 35.08 284.249 34.708 284.505 34.228C284.761 33.748 284.889 33.18 284.889 32.524C284.889 31.868 284.757 31.304 284.493 30.832C284.237 30.352 283.877 29.98 283.413 29.716C282.949 29.452 282.401 29.32 281.769 29.32H280.233V35.74ZM289.465 37.144C289.025 37.144 288.637 37.068 288.301 36.916C287.973 36.756 287.717 36.54 287.533 36.268C287.349 35.988 287.257 35.66 287.257 35.284C287.257 34.932 287.333 34.616 287.485 34.336C287.645 34.056 287.889 33.82 288.217 33.628C288.545 33.436 288.957 33.3 289.453 33.22L291.709 32.848V33.916L289.717 34.264C289.357 34.328 289.093 34.444 288.925 34.612C288.757 34.772 288.673 34.98 288.673 35.236C288.673 35.484 288.765 35.688 288.949 35.848C289.141 36 289.385 36.076 289.681 36.076C290.049 36.076 290.369 35.996 290.641 35.836C290.921 35.676 291.137 35.464 291.289 35.2C291.441 34.928 291.517 34.628 291.517 34.3V32.632C291.517 32.312 291.397 32.052 291.157 31.852C290.925 31.644 290.613 31.54 290.221 31.54C289.861 31.54 289.545 31.636 289.273 31.828C289.009 32.012 288.813 32.252 288.685 32.548L287.557 31.984C287.677 31.664 287.873 31.384 288.145 31.144C288.417 30.896 288.733 30.704 289.093 30.568C289.461 30.432 289.849 30.364 290.257 30.364C290.769 30.364 291.221 30.46 291.613 30.652C292.013 30.844 292.321 31.112 292.537 31.456C292.761 31.792 292.873 32.184 292.873 32.632V37H291.577V35.824L291.853 35.86C291.701 36.124 291.505 36.352 291.265 36.544C291.033 36.736 290.765 36.884 290.461 36.988C290.165 37.092 289.833 37.144 289.465 37.144ZM294.458 37V30.508H295.754V31.816L295.634 31.624C295.778 31.2 296.01 30.896 296.33 30.712C296.65 30.52 297.034 30.424 297.482 30.424H297.878V31.66H297.314C296.866 31.66 296.502 31.8 296.222 32.08C295.95 32.352 295.814 32.744 295.814 33.256V37H294.458ZM298.806 37V27.916H300.162V34L299.634 33.868L302.886 30.508H304.578L302.13 33.112L304.686 37H303.126L300.846 33.556L301.65 33.448L299.73 35.488L300.162 34.588V37H298.806ZM307.844 37V28.06H309.164L312.524 32.716H311.864L315.164 28.06H316.484V37H315.08V29.728L315.608 29.872L312.236 34.48H312.092L308.792 29.872L309.26 29.728V37H307.844ZM321.332 37.144C320.708 37.144 320.136 36.996 319.616 36.7C319.104 36.404 318.696 36 318.392 35.488C318.088 34.976 317.936 34.396 317.936 33.748C317.936 33.092 318.088 32.512 318.392 32.008C318.696 31.496 319.104 31.096 319.616 30.808C320.128 30.512 320.7 30.364 321.332 30.364C321.972 30.364 322.544 30.512 323.048 30.808C323.56 31.096 323.964 31.496 324.26 32.008C324.564 32.512 324.716 33.092 324.716 33.748C324.716 34.404 324.564 34.988 324.26 35.5C323.956 36.012 323.548 36.416 323.036 36.712C322.524 37 321.956 37.144 321.332 37.144ZM321.332 35.884C321.716 35.884 322.056 35.792 322.352 35.608C322.648 35.424 322.88 35.172 323.048 34.852C323.224 34.524 323.312 34.156 323.312 33.748C323.312 33.34 323.224 32.976 323.048 32.656C322.88 32.336 322.648 32.084 322.352 31.9C322.056 31.716 321.716 31.624 321.332 31.624C320.956 31.624 320.616 31.716 320.312 31.9C320.016 32.084 319.78 32.336 319.604 32.656C319.436 32.976 319.352 33.34 319.352 33.748C319.352 34.156 319.436 34.524 319.604 34.852C319.78 35.172 320.016 35.424 320.312 35.608C320.616 35.792 320.956 35.884 321.332 35.884ZM329.04 37.144C328.416 37.144 327.856 36.996 327.36 36.7C326.872 36.396 326.484 35.988 326.196 35.476C325.916 34.964 325.776 34.388 325.776 33.748C325.776 33.108 325.92 32.532 326.208 32.02C326.496 31.508 326.884 31.104 327.372 30.808C327.86 30.512 328.412 30.364 329.028 30.364C329.548 30.364 330.008 30.468 330.408 30.676C330.808 30.884 331.124 31.172 331.356 31.54L331.152 31.852V27.916H332.496V37H331.212V35.68L331.368 35.932C331.144 36.324 330.824 36.624 330.408 36.832C329.992 37.04 329.536 37.144 329.04 37.144ZM329.172 35.884C329.548 35.884 329.884 35.792 330.18 35.608C330.484 35.424 330.72 35.172 330.888 34.852C331.064 34.524 331.152 34.156 331.152 33.748C331.152 33.34 331.064 32.976 330.888 32.656C330.72 32.336 330.484 32.084 330.18 31.9C329.884 31.716 329.548 31.624 329.172 31.624C328.796 31.624 328.456 31.716 328.152 31.9C327.848 32.084 327.612 32.336 327.444 32.656C327.276 32.976 327.192 33.34 327.192 33.748C327.192 34.156 327.276 34.524 327.444 34.852C327.612 35.172 327.844 35.424 328.14 35.608C328.444 35.792 328.788 35.884 329.172 35.884ZM337.127 37.144C336.479 37.144 335.903 36.996 335.399 36.7C334.903 36.396 334.515 35.988 334.235 35.476C333.955 34.956 333.815 34.376 333.815 33.736C333.815 33.08 333.955 32.5 334.235 31.996C334.523 31.492 334.907 31.096 335.387 30.808C335.867 30.512 336.411 30.364 337.019 30.364C337.507 30.364 337.943 30.448 338.327 30.616C338.711 30.784 339.035 31.016 339.299 31.312C339.563 31.6 339.763 31.932 339.899 32.308C340.043 32.684 340.115 33.084 340.115 33.508C340.115 33.612 340.111 33.72 340.103 33.832C340.095 33.944 340.079 34.048 340.055 34.144H334.883V33.064H339.287L338.639 33.556C338.719 33.164 338.691 32.816 338.555 32.512C338.427 32.2 338.227 31.956 337.955 31.78C337.691 31.596 337.379 31.504 337.019 31.504C336.659 31.504 336.339 31.596 336.059 31.78C335.779 31.956 335.563 32.212 335.411 32.548C335.259 32.876 335.199 33.276 335.231 33.748C335.191 34.188 335.251 34.572 335.411 34.9C335.579 35.228 335.811 35.484 336.107 35.668C336.411 35.852 336.755 35.944 337.139 35.944C337.531 35.944 337.863 35.856 338.135 35.68C338.415 35.504 338.635 35.276 338.795 34.996L339.899 35.536C339.771 35.84 339.571 36.116 339.299 36.364C339.035 36.604 338.715 36.796 338.339 36.94C337.971 37.076 337.567 37.144 337.127 37.144ZM341.018 38.92C341.594 38.08 342.026 37.204 342.314 36.292C342.602 35.372 342.746 34.436 342.746 33.484C342.746 32.524 342.602 31.592 342.314 30.688C342.026 29.776 341.594 28.9 341.018 28.06H342.158C342.822 28.812 343.322 29.644 343.658 30.556C343.994 31.468 344.162 32.444 344.162 33.484C344.162 34.516 343.994 35.488 343.658 36.4C343.322 37.312 342.822 38.152 342.158 38.92H341.018ZM349.315 37L347.083 30.508H348.523L350.227 35.68H349.723L351.463 30.508H352.699L354.427 35.68H353.923L355.639 30.508H357.079L354.835 37H353.611L351.859 31.708H352.303L350.551 37H349.315ZM358.009 37V30.508H359.365V37H358.009ZM358.009 29.62V28.06H359.365V29.62H358.009ZM363.758 37.072C363.078 37.072 362.55 36.88 362.174 36.496C361.798 36.112 361.61 35.572 361.61 34.876V31.732H360.47V30.508H360.65C360.954 30.508 361.19 30.42 361.358 30.244C361.526 30.068 361.61 29.828 361.61 29.524V29.02H362.966V30.508H364.442V31.732H362.966V34.816C362.966 35.04 363.002 35.232 363.074 35.392C363.146 35.544 363.262 35.664 363.422 35.752C363.582 35.832 363.79 35.872 364.046 35.872C364.11 35.872 364.182 35.868 364.262 35.86C364.342 35.852 364.418 35.844 364.49 35.836V37C364.378 37.016 364.254 37.032 364.118 37.048C363.982 37.064 363.862 37.072 363.758 37.072ZM365.813 37V27.916H367.169V31.78L366.953 31.612C367.113 31.204 367.369 30.896 367.721 30.688C368.073 30.472 368.481 30.364 368.945 30.364C369.425 30.364 369.849 30.468 370.217 30.676C370.585 30.884 370.873 31.172 371.081 31.54C371.289 31.908 371.393 32.328 371.393 32.8V37H370.049V33.172C370.049 32.844 369.985 32.568 369.857 32.344C369.737 32.112 369.569 31.936 369.353 31.816C369.137 31.688 368.889 31.624 368.609 31.624C368.337 31.624 368.089 31.688 367.865 31.816C367.649 31.936 367.477 32.112 367.349 32.344C367.229 32.576 367.169 32.852 367.169 33.172V37H365.813ZM378.026 37.144C377.378 37.144 376.802 36.996 376.298 36.7C375.802 36.396 375.406 35.988 375.11 35.476C374.822 34.964 374.678 34.384 374.678 33.736C374.678 33.096 374.822 32.52 375.11 32.008C375.398 31.496 375.794 31.096 376.298 30.808C376.802 30.512 377.378 30.364 378.026 30.364C378.466 30.364 378.878 30.444 379.262 30.604C379.646 30.756 379.978 30.968 380.258 31.24C380.546 31.512 380.758 31.828 380.894 32.188L379.706 32.74C379.57 32.404 379.35 32.136 379.046 31.936C378.75 31.728 378.41 31.624 378.026 31.624C377.658 31.624 377.326 31.716 377.03 31.9C376.742 32.076 376.514 32.328 376.346 32.656C376.178 32.976 376.094 33.34 376.094 33.748C376.094 34.156 376.178 34.524 376.346 34.852C376.514 35.172 376.742 35.424 377.03 35.608C377.326 35.792 377.658 35.884 378.026 35.884C378.418 35.884 378.758 35.784 379.046 35.584C379.342 35.376 379.562 35.1 379.706 34.756L380.894 35.32C380.766 35.664 380.558 35.976 380.27 36.256C379.99 36.528 379.658 36.744 379.274 36.904C378.89 37.064 378.474 37.144 378.026 37.144ZM385.352 37.144C384.728 37.144 384.156 36.996 383.636 36.7C383.124 36.404 382.716 36 382.412 35.488C382.108 34.976 381.956 34.396 381.956 33.748C381.956 33.092 382.108 32.512 382.412 32.008C382.716 31.496 383.124 31.096 383.636 30.808C384.148 30.512 384.72 30.364 385.352 30.364C385.992 30.364 386.564 30.512 387.068 30.808C387.58 31.096 387.984 31.496 388.28 32.008C388.584 32.512 388.736 33.092 388.736 33.748C388.736 34.404 388.584 34.988 388.28 35.5C387.976 36.012 387.568 36.416 387.056 36.712C386.544 37 385.976 37.144 385.352 37.144ZM385.352 35.884C385.736 35.884 386.076 35.792 386.372 35.608C386.668 35.424 386.9 35.172 387.068 34.852C387.244 34.524 387.332 34.156 387.332 33.748C387.332 33.34 387.244 32.976 387.068 32.656C386.9 32.336 386.668 32.084 386.372 31.9C386.076 31.716 385.736 31.624 385.352 31.624C384.976 31.624 384.636 31.716 384.332 31.9C384.036 32.084 383.8 32.336 383.624 32.656C383.456 32.976 383.372 33.34 383.372 33.748C383.372 34.156 383.456 34.524 383.624 34.852C383.8 35.172 384.036 35.424 384.332 35.608C384.636 35.792 384.976 35.884 385.352 35.884ZM390.06 37V30.508H391.356V31.78L391.2 31.612C391.36 31.204 391.616 30.896 391.968 30.688C392.32 30.472 392.728 30.364 393.192 30.364C393.672 30.364 394.096 30.468 394.464 30.676C394.832 30.884 395.12 31.172 395.328 31.54C395.536 31.908 395.64 32.332 395.64 32.812V37H394.296V33.172C394.296 32.844 394.236 32.568 394.116 32.344C393.996 32.112 393.824 31.936 393.6 31.816C393.384 31.688 393.136 31.624 392.856 31.624C392.576 31.624 392.324 31.688 392.1 31.816C391.884 31.936 391.716 32.112 391.596 32.344C391.476 32.576 391.416 32.852 391.416 33.172V37H390.06ZM399.899 37.072C399.219 37.072 398.691 36.88 398.315 36.496C397.939 36.112 397.751 35.572 397.751 34.876V31.732H396.611V30.508H396.791C397.095 30.508 397.331 30.42 397.499 30.244C397.667 30.068 397.751 29.828 397.751 29.524V29.02H399.107V30.508H400.583V31.732H399.107V34.816C399.107 35.04 399.143 35.232 399.215 35.392C399.287 35.544 399.403 35.664 399.563 35.752C399.723 35.832 399.931 35.872 400.187 35.872C400.251 35.872 400.323 35.868 400.403 35.86C400.483 35.852 400.559 35.844 400.631 35.836V37C400.519 37.016 400.395 37.032 400.259 37.048C400.123 37.064 400.003 37.072 399.899 37.072ZM401.954 37V30.508H403.25V31.816L403.13 31.624C403.274 31.2 403.506 30.896 403.826 30.712C404.146 30.52 404.53 30.424 404.978 30.424H405.374V31.66H404.81C404.362 31.66 403.998 31.8 403.718 32.08C403.446 32.352 403.31 32.744 403.31 33.256V37H401.954ZM408.246 37.144C407.806 37.144 407.418 37.068 407.082 36.916C406.754 36.756 406.498 36.54 406.314 36.268C406.13 35.988 406.038 35.66 406.038 35.284C406.038 34.932 406.114 34.616 406.266 34.336C406.426 34.056 406.67 33.82 406.998 33.628C407.326 33.436 407.738 33.3 408.234 33.22L410.49 32.848V33.916L408.498 34.264C408.138 34.328 407.874 34.444 407.706 34.612C407.538 34.772 407.454 34.98 407.454 35.236C407.454 35.484 407.546 35.688 407.73 35.848C407.922 36 408.166 36.076 408.462 36.076C408.83 36.076 409.15 35.996 409.422 35.836C409.702 35.676 409.918 35.464 410.07 35.2C410.222 34.928 410.298 34.628 410.298 34.3V32.632C410.298 32.312 410.178 32.052 409.938 31.852C409.706 31.644 409.394 31.54 409.002 31.54C408.642 31.54 408.326 31.636 408.054 31.828C407.79 32.012 407.594 32.252 407.466 32.548L406.338 31.984C406.458 31.664 406.654 31.384 406.926 31.144C407.198 30.896 407.514 30.704 407.874 30.568C408.242 30.432 408.63 30.364 409.038 30.364C409.55 30.364 410.002 30.46 410.394 30.652C410.794 30.844 411.102 31.112 411.318 31.456C411.542 31.792 411.654 32.184 411.654 32.632V37H410.358V35.824L410.634 35.86C410.482 36.124 410.286 36.352 410.046 36.544C409.814 36.736 409.546 36.884 409.242 36.988C408.946 37.092 408.614 37.144 408.246 37.144ZM415.639 37.144C414.975 37.144 414.391 36.98 413.887 36.652C413.391 36.324 413.043 35.884 412.843 35.332L413.887 34.84C414.063 35.208 414.303 35.5 414.607 35.716C414.919 35.932 415.263 36.04 415.639 36.04C415.959 36.04 416.219 35.968 416.419 35.824C416.619 35.68 416.719 35.484 416.719 35.236C416.719 35.076 416.675 34.948 416.587 34.852C416.499 34.748 416.387 34.664 416.251 34.6C416.123 34.536 415.991 34.488 415.855 34.456L414.835 34.168C414.275 34.008 413.855 33.768 413.575 33.448C413.303 33.12 413.167 32.74 413.167 32.308C413.167 31.916 413.267 31.576 413.467 31.288C413.667 30.992 413.943 30.764 414.295 30.604C414.647 30.444 415.043 30.364 415.483 30.364C416.075 30.364 416.603 30.512 417.067 30.808C417.531 31.096 417.859 31.5 418.051 32.02L417.007 32.512C416.879 32.2 416.675 31.952 416.395 31.768C416.123 31.584 415.815 31.492 415.471 31.492C415.175 31.492 414.939 31.564 414.763 31.708C414.587 31.844 414.499 32.024 414.499 32.248C414.499 32.4 414.539 32.528 414.619 32.632C414.699 32.728 414.803 32.808 414.931 32.872C415.059 32.928 415.191 32.976 415.327 33.016L416.383 33.328C416.919 33.48 417.331 33.72 417.619 34.048C417.907 34.368 418.051 34.752 418.051 35.2C418.051 35.584 417.947 35.924 417.739 36.22C417.539 36.508 417.259 36.736 416.899 36.904C416.539 37.064 416.119 37.144 415.639 37.144ZM422.188 37.072C421.508 37.072 420.98 36.88 420.604 36.496C420.228 36.112 420.04 35.572 420.04 34.876V31.732H418.9V30.508H419.08C419.384 30.508 419.62 30.42 419.788 30.244C419.956 30.068 420.04 29.828 420.04 29.524V29.02H421.396V30.508H422.872V31.732H421.396V34.816C421.396 35.04 421.432 35.232 421.504 35.392C421.576 35.544 421.692 35.664 421.852 35.752C422.012 35.832 422.22 35.872 422.476 35.872C422.54 35.872 422.612 35.868 422.692 35.86C422.772 35.852 422.848 35.844 422.92 35.836V37C422.808 37.016 422.684 37.032 422.548 37.048C422.412 37.064 422.292 37.072 422.188 37.072ZM428.285 37.144C427.845 37.144 427.457 37.068 427.121 36.916C426.793 36.756 426.537 36.54 426.353 36.268C426.169 35.988 426.077 35.66 426.077 35.284C426.077 34.932 426.153 34.616 426.305 34.336C426.465 34.056 426.709 33.82 427.037 33.628C427.365 33.436 427.777 33.3 428.273 33.22L430.529 32.848V33.916L428.537 34.264C428.177 34.328 427.913 34.444 427.745 34.612C427.577 34.772 427.493 34.98 427.493 35.236C427.493 35.484 427.585 35.688 427.769 35.848C427.961 36 428.205 36.076 428.501 36.076C428.869 36.076 429.189 35.996 429.461 35.836C429.741 35.676 429.957 35.464 430.109 35.2C430.261 34.928 430.337 34.628 430.337 34.3V32.632C430.337 32.312 430.217 32.052 429.977 31.852C429.745 31.644 429.433 31.54 429.041 31.54C428.681 31.54 428.365 31.636 428.093 31.828C427.829 32.012 427.633 32.252 427.505 32.548L426.377 31.984C426.497 31.664 426.693 31.384 426.965 31.144C427.237 30.896 427.553 30.704 427.913 30.568C428.281 30.432 428.669 30.364 429.077 30.364C429.589 30.364 430.041 30.46 430.433 30.652C430.833 30.844 431.141 31.112 431.357 31.456C431.581 31.792 431.693 32.184 431.693 32.632V37H430.397V35.824L430.673 35.86C430.521 36.124 430.325 36.352 430.085 36.544C429.853 36.736 429.585 36.884 429.281 36.988C428.985 37.092 428.653 37.144 428.285 37.144ZM436.746 37.144C436.242 37.144 435.782 37.04 435.366 36.832C434.958 36.624 434.642 36.324 434.418 35.932L434.574 35.68V37H433.278V27.916H434.634V31.852L434.418 31.54C434.658 31.172 434.978 30.884 435.378 30.676C435.778 30.468 436.234 30.364 436.746 30.364C437.362 30.364 437.914 30.512 438.402 30.808C438.898 31.104 439.286 31.508 439.566 32.02C439.854 32.532 439.998 33.108 439.998 33.748C439.998 34.388 439.854 34.964 439.566 35.476C439.286 35.988 438.902 36.396 438.414 36.7C437.926 36.996 437.37 37.144 436.746 37.144ZM436.614 35.884C436.998 35.884 437.338 35.792 437.634 35.608C437.93 35.424 438.162 35.172 438.33 34.852C438.506 34.524 438.594 34.156 438.594 33.748C438.594 33.34 438.506 32.976 438.33 32.656C438.162 32.336 437.93 32.084 437.634 31.9C437.338 31.716 436.998 31.624 436.614 31.624C436.238 31.624 435.898 31.716 435.594 31.9C435.298 32.084 435.062 32.336 434.886 32.656C434.718 32.976 434.634 33.34 434.634 33.748C434.634 34.156 434.718 34.524 434.886 34.852C435.062 35.172 435.298 35.424 435.594 35.608C435.898 35.792 436.238 35.884 436.614 35.884ZM444.449 37.144C443.825 37.144 443.253 36.996 442.733 36.7C442.221 36.404 441.813 36 441.509 35.488C441.205 34.976 441.053 34.396 441.053 33.748C441.053 33.092 441.205 32.512 441.509 32.008C441.813 31.496 442.221 31.096 442.733 30.808C443.245 30.512 443.817 30.364 444.449 30.364C445.089 30.364 445.661 30.512 446.165 30.808C446.677 31.096 447.081 31.496 447.377 32.008C447.681 32.512 447.833 33.092 447.833 33.748C447.833 34.404 447.681 34.988 447.377 35.5C447.073 36.012 446.665 36.416 446.153 36.712C445.641 37 445.073 37.144 444.449 37.144ZM444.449 35.884C444.833 35.884 445.173 35.792 445.469 35.608C445.765 35.424 445.997 35.172 446.165 34.852C446.341 34.524 446.429 34.156 446.429 33.748C446.429 33.34 446.341 32.976 446.165 32.656C445.997 32.336 445.765 32.084 445.469 31.9C445.173 31.716 444.833 31.624 444.449 31.624C444.073 31.624 443.733 31.716 443.429 31.9C443.133 32.084 442.897 32.336 442.721 32.656C442.553 32.976 442.469 33.34 442.469 33.748C442.469 34.156 442.553 34.524 442.721 34.852C442.897 35.172 443.133 35.424 443.429 35.608C443.733 35.792 444.073 35.884 444.449 35.884ZM450.924 37L448.38 30.508H449.856L451.812 35.8H451.272L453.228 30.508H454.716L452.16 37H450.924ZM458.569 37.144C457.921 37.144 457.345 36.996 456.841 36.7C456.345 36.396 455.957 35.988 455.677 35.476C455.397 34.956 455.257 34.376 455.257 33.736C455.257 33.08 455.397 32.5 455.677 31.996C455.965 31.492 456.349 31.096 456.829 30.808C457.309 30.512 457.853 30.364 458.461 30.364C458.949 30.364 459.385 30.448 459.769 30.616C460.153 30.784 460.477 31.016 460.741 31.312C461.005 31.6 461.205 31.932 461.341 32.308C461.485 32.684 461.557 33.084 461.557 33.508C461.557 33.612 461.553 33.72 461.545 33.832C461.537 33.944 461.521 34.048 461.497 34.144H456.325V33.064H460.729L460.081 33.556C460.161 33.164 460.133 32.816 459.997 32.512C459.869 32.2 459.669 31.956 459.397 31.78C459.133 31.596 458.821 31.504 458.461 31.504C458.101 31.504 457.781 31.596 457.501 31.78C457.221 31.956 457.005 32.212 456.853 32.548C456.701 32.876 456.641 33.276 456.673 33.748C456.633 34.188 456.693 34.572 456.853 34.9C457.021 35.228 457.253 35.484 457.549 35.668C457.853 35.852 458.197 35.944 458.581 35.944C458.973 35.944 459.305 35.856 459.577 35.68C459.857 35.504 460.077 35.276 460.237 34.996L461.341 35.536C461.213 35.84 461.013 36.116 460.741 36.364C460.477 36.604 460.157 36.796 459.781 36.94C459.413 37.076 459.009 37.144 458.569 37.144ZM283.45 53V45.26H281.734V44.06H284.854V53H283.45ZM288.149 53V45.26H286.433V44.06H289.553V53H288.149ZM292.128 53V51.44H293.508V53H292.128ZM298.676 53.144C298.052 53.144 297.504 53.024 297.032 52.784C296.568 52.536 296.208 52.208 295.952 51.8C295.696 51.384 295.568 50.924 295.568 50.42C295.568 49.844 295.724 49.348 296.036 48.932C296.356 48.508 296.804 48.2 297.38 48.008L297.32 48.368C296.896 48.208 296.56 47.94 296.312 47.564C296.072 47.18 295.952 46.76 295.952 46.304C295.952 45.848 296.068 45.44 296.3 45.08C296.54 44.72 296.864 44.436 297.272 44.228C297.688 44.02 298.156 43.916 298.676 43.916C299.204 43.916 299.672 44.02 300.08 44.228C300.488 44.428 300.808 44.708 301.04 45.068C301.28 45.428 301.4 45.84 301.4 46.304C301.4 46.776 301.276 47.2 301.028 47.576C300.788 47.944 300.46 48.208 300.044 48.368L299.984 48.008C300.56 48.208 301.008 48.516 301.328 48.932C301.648 49.348 301.808 49.844 301.808 50.42C301.808 50.924 301.676 51.384 301.412 51.8C301.156 52.208 300.792 52.536 300.32 52.784C299.848 53.024 299.3 53.144 298.676 53.144ZM298.676 51.944C299.02 51.944 299.32 51.88 299.576 51.752C299.832 51.616 300.032 51.432 300.176 51.2C300.32 50.968 300.392 50.696 300.392 50.384C300.392 50.072 300.32 49.8 300.176 49.568C300.032 49.336 299.832 49.156 299.576 49.028C299.32 48.9 299.02 48.836 298.676 48.836C298.34 48.836 298.044 48.9 297.788 49.028C297.532 49.156 297.332 49.336 297.188 49.568C297.044 49.8 296.972 50.072 296.972 50.384C296.972 50.696 297.044 50.968 297.188 51.2C297.332 51.432 297.532 51.616 297.788 51.752C298.044 51.88 298.34 51.944 298.676 51.944ZM298.676 47.636C298.932 47.636 299.156 47.584 299.348 47.48C299.548 47.368 299.704 47.216 299.816 47.024C299.928 46.832 299.984 46.616 299.984 46.376C299.984 46.128 299.928 45.912 299.816 45.728C299.704 45.536 299.548 45.388 299.348 45.284C299.156 45.172 298.932 45.116 298.676 45.116C298.428 45.116 298.204 45.172 298.004 45.284C297.804 45.388 297.648 45.536 297.536 45.728C297.424 45.912 297.368 46.128 297.368 46.376C297.368 46.616 297.424 46.832 297.536 47.024C297.648 47.216 297.804 47.368 298.004 47.48C298.204 47.584 298.428 47.636 298.676 47.636ZM305.983 53.144C305.503 53.144 305.051 53.056 304.627 52.88C304.211 52.704 303.851 52.456 303.547 52.136C303.251 51.816 303.039 51.44 302.911 51.008L304.111 50.552C304.271 50.976 304.515 51.304 304.843 51.536C305.171 51.768 305.551 51.884 305.983 51.884C306.335 51.884 306.639 51.816 306.895 51.68C307.159 51.544 307.363 51.352 307.507 51.104C307.659 50.856 307.735 50.556 307.735 50.204C307.735 49.86 307.659 49.564 307.507 49.316C307.363 49.068 307.159 48.88 306.895 48.752C306.639 48.624 306.335 48.56 305.983 48.56C305.839 48.56 305.691 48.572 305.539 48.596C305.395 48.62 305.267 48.652 305.155 48.692L304.843 48.032L307.195 45.26H303.391V44.06H308.779V45.2L306.475 47.96L306.439 47.504C306.975 47.512 307.447 47.632 307.855 47.864C308.263 48.088 308.579 48.4 308.803 48.8C309.035 49.192 309.151 49.648 309.151 50.168C309.151 50.728 309.015 51.236 308.743 51.692C308.471 52.14 308.095 52.496 307.615 52.76C307.143 53.016 306.599 53.144 305.983 53.144ZM311.195 53V51.44H312.575V53H311.195ZM311.195 48.068V46.508H312.575V48.068H311.195ZM316.075 53V45.26H314.359V44.06H317.479V53H316.075Z" fill="black"/>
<rect x="136.5" y="72.5" width="115" height="263" rx="4.5" stroke="#9747FF" stroke-dasharray="10 5"/>
<path d="M160 296C160 291.582 163.582 288 168 288H220C224.418 288 228 291.582 228 296V304C228 308.418 224.418 312 220 312H168C163.582 312 160 308.418 160 304V296Z" fill="#DBECEA"/>
<path d="M181 294H171C170.735 294 170.48 294.105 170.293 294.293C170.105 294.48 170 294.735 170 295V305C170 305.265 170.105 305.52 170.293 305.707C170.48 305.895 170.735 306 171 306H181C181.265 306 181.52 305.895 181.707 305.707C181.895 305.52 182 305.265 182 305V295C182 294.735 181.895 294.48 181.707 294.293C181.52 294.105 181.265 294 181 294ZM171 305V295.707L180.293 305H171ZM171.707 295H181V304.294L171.707 295Z" fill="#171816"/>
<path d="M188.924 305V296.06H190.34V303.74H194.204V305H188.924ZM197.205 305.144C196.765 305.144 196.377 305.068 196.041 304.916C195.713 304.756 195.457 304.54 195.273 304.268C195.089 303.988 194.997 303.66 194.997 303.284C194.997 302.932 195.073 302.616 195.225 302.336C195.385 302.056 195.629 301.82 195.957 301.628C196.285 301.436 196.697 301.3 197.193 301.22L199.449 300.848V301.916L197.457 302.264C197.097 302.328 196.833 302.444 196.665 302.612C196.497 302.772 196.413 302.98 196.413 303.236C196.413 303.484 196.505 303.688 196.689 303.848C196.881 304 197.125 304.076 197.421 304.076C197.789 304.076 198.109 303.996 198.381 303.836C198.661 303.676 198.877 303.464 199.029 303.2C199.181 302.928 199.257 302.628 199.257 302.3V300.632C199.257 300.312 199.137 300.052 198.897 299.852C198.665 299.644 198.353 299.54 197.961 299.54C197.601 299.54 197.285 299.636 197.013 299.828C196.749 300.012 196.553 300.252 196.425 300.548L195.297 299.984C195.417 299.664 195.613 299.384 195.885 299.144C196.157 298.896 196.473 298.704 196.833 298.568C197.201 298.432 197.589 298.364 197.997 298.364C198.509 298.364 198.961 298.46 199.353 298.652C199.753 298.844 200.061 299.112 200.277 299.456C200.501 299.792 200.613 300.184 200.613 300.632V305H199.317V303.824L199.593 303.86C199.441 304.124 199.245 304.352 199.005 304.544C198.773 304.736 198.505 304.884 198.201 304.988C197.905 305.092 197.573 305.144 197.205 305.144ZM205.666 305.144C205.162 305.144 204.702 305.04 204.286 304.832C203.878 304.624 203.562 304.324 203.338 303.932L203.494 303.68V305H202.198V295.916H203.554V299.852L203.338 299.54C203.578 299.172 203.898 298.884 204.298 298.676C204.698 298.468 205.154 298.364 205.666 298.364C206.282 298.364 206.834 298.512 207.322 298.808C207.818 299.104 208.206 299.508 208.486 300.02C208.774 300.532 208.918 301.108 208.918 301.748C208.918 302.388 208.774 302.964 208.486 303.476C208.206 303.988 207.822 304.396 207.334 304.7C206.846 304.996 206.29 305.144 205.666 305.144ZM205.534 303.884C205.918 303.884 206.258 303.792 206.554 303.608C206.85 303.424 207.082 303.172 207.25 302.852C207.426 302.524 207.514 302.156 207.514 301.748C207.514 301.34 207.426 300.976 207.25 300.656C207.082 300.336 206.85 300.084 206.554 299.9C206.258 299.716 205.918 299.624 205.534 299.624C205.158 299.624 204.818 299.716 204.514 299.9C204.218 300.084 203.982 300.336 203.806 300.656C203.638 300.976 203.554 301.34 203.554 301.748C203.554 302.156 203.638 302.524 203.806 302.852C203.982 303.172 204.218 303.424 204.514 303.608C204.818 303.792 205.158 303.884 205.534 303.884ZM213.285 305.144C212.637 305.144 212.061 304.996 211.557 304.7C211.061 304.396 210.673 303.988 210.393 303.476C210.113 302.956 209.973 302.376 209.973 301.736C209.973 301.08 210.113 300.5 210.393 299.996C210.681 299.492 211.065 299.096 211.545 298.808C212.025 298.512 212.569 298.364 213.177 298.364C213.665 298.364 214.101 298.448 214.485 298.616C214.869 298.784 215.193 299.016 215.457 299.312C215.721 299.6 215.921 299.932 216.057 300.308C216.201 300.684 216.273 301.084 216.273 301.508C216.273 301.612 216.269 301.72 216.261 301.832C216.253 301.944 216.237 302.048 216.213 302.144H211.041V301.064H215.445L214.797 301.556C214.877 301.164 214.849 300.816 214.713 300.512C214.585 300.2 214.385 299.956 214.113 299.78C213.849 299.596 213.537 299.504 213.177 299.504C212.817 299.504 212.497 299.596 212.217 299.78C211.937 299.956 211.721 300.212 211.569 300.548C211.417 300.876 211.357 301.276 211.389 301.748C211.349 302.188 211.409 302.572 211.569 302.9C211.737 303.228 211.969 303.484 212.265 303.668C212.569 303.852 212.913 303.944 213.297 303.944C213.689 303.944 214.021 303.856 214.293 303.68C214.573 303.504 214.793 303.276 214.953 302.996L216.057 303.536C215.929 303.84 215.729 304.116 215.457 304.364C215.193 304.604 214.873 304.796 214.497 304.94C214.129 305.076 213.725 305.144 213.285 305.144ZM217.597 305V295.916H218.953V305H217.597Z" fill="#171816"/>
<path d="M160 248C160 243.582 163.582 240 168 240H220C224.418 240 228 243.582 228 248V256C228 260.418 224.418 264 220 264H168C163.582 264 160 260.418 160 256V248Z" fill="#FFF5A7"/>
<path d="M181 246H171C170.735 246 170.48 246.105 170.293 246.293C170.105 246.48 170 246.735 170 247V257C170 257.265 170.105 257.52 170.293 257.707C170.48 257.895 170.735 258 171 258H181C181.265 258 181.52 257.895 181.707 257.707C181.895 257.52 182 257.265 182 257V247C182 246.735 181.895 246.48 181.707 246.293C181.52 246.105 181.265 246 181 246ZM171 257V247.707L180.293 257H171ZM171.707 247H181V256.294L171.707 247Z" fill="#171816"/>
<path d="M188.924 257V248.06H190.34V255.74H194.204V257H188.924ZM197.205 257.144C196.765 257.144 196.377 257.068 196.041 256.916C195.713 256.756 195.457 256.54 195.273 256.268C195.089 255.988 194.997 255.66 194.997 255.284C194.997 254.932 195.073 254.616 195.225 254.336C195.385 254.056 195.629 253.82 195.957 253.628C196.285 253.436 196.697 253.3 197.193 253.22L199.449 252.848V253.916L197.457 254.264C197.097 254.328 196.833 254.444 196.665 254.612C196.497 254.772 196.413 254.98 196.413 255.236C196.413 255.484 196.505 255.688 196.689 255.848C196.881 256 197.125 256.076 197.421 256.076C197.789 256.076 198.109 255.996 198.381 255.836C198.661 255.676 198.877 255.464 199.029 255.2C199.181 254.928 199.257 254.628 199.257 254.3V252.632C199.257 252.312 199.137 252.052 198.897 251.852C198.665 251.644 198.353 251.54 197.961 251.54C197.601 251.54 197.285 251.636 197.013 251.828C196.749 252.012 196.553 252.252 196.425 252.548L195.297 251.984C195.417 251.664 195.613 251.384 195.885 251.144C196.157 250.896 196.473 250.704 196.833 250.568C197.201 250.432 197.589 250.364 197.997 250.364C198.509 250.364 198.961 250.46 199.353 250.652C199.753 250.844 200.061 251.112 200.277 251.456C200.501 251.792 200.613 252.184 200.613 252.632V257H199.317V255.824L199.593 255.86C199.441 256.124 199.245 256.352 199.005 256.544C198.773 256.736 198.505 256.884 198.201 256.988C197.905 257.092 197.573 257.144 197.205 257.144ZM205.666 257.144C205.162 257.144 204.702 257.04 204.286 256.832C203.878 256.624 203.562 256.324 203.338 255.932L203.494 255.68V257H202.198V247.916H203.554V251.852L203.338 251.54C203.578 251.172 203.898 250.884 204.298 250.676C204.698 250.468 205.154 250.364 205.666 250.364C206.282 250.364 206.834 250.512 207.322 250.808C207.818 251.104 208.206 251.508 208.486 252.02C208.774 252.532 208.918 253.108 208.918 253.748C208.918 254.388 208.774 254.964 208.486 255.476C208.206 255.988 207.822 256.396 207.334 256.7C206.846 256.996 206.29 257.144 205.666 257.144ZM205.534 255.884C205.918 255.884 206.258 255.792 206.554 255.608C206.85 255.424 207.082 255.172 207.25 254.852C207.426 254.524 207.514 254.156 207.514 253.748C207.514 253.34 207.426 252.976 207.25 252.656C207.082 252.336 206.85 252.084 206.554 251.9C206.258 251.716 205.918 251.624 205.534 251.624C205.158 251.624 204.818 251.716 204.514 251.9C204.218 252.084 203.982 252.336 203.806 252.656C203.638 252.976 203.554 253.34 203.554 253.748C203.554 254.156 203.638 254.524 203.806 254.852C203.982 255.172 204.218 255.424 204.514 255.608C204.818 255.792 205.158 255.884 205.534 255.884ZM213.285 257.144C212.637 257.144 212.061 256.996 211.557 256.7C211.061 256.396 210.673 255.988 210.393 255.476C210.113 254.956 209.973 254.376 209.973 253.736C209.973 253.08 210.113 252.5 210.393 251.996C210.681 251.492 211.065 251.096 211.545 250.808C212.025 250.512 212.569 250.364 213.177 250.364C213.665 250.364 214.101 250.448 214.485 250.616C214.869 250.784 215.193 251.016 215.457 251.312C215.721 251.6 215.921 251.932 216.057 252.308C216.201 252.684 216.273 253.084 216.273 253.508C216.273 253.612 216.269 253.72 216.261 253.832C216.253 253.944 216.237 254.048 216.213 254.144H211.041V253.064H215.445L214.797 253.556C214.877 253.164 214.849 252.816 214.713 252.512C214.585 252.2 214.385 251.956 214.113 251.78C213.849 251.596 213.537 251.504 213.177 251.504C212.817 251.504 212.497 251.596 212.217 251.78C211.937 251.956 211.721 252.212 211.569 252.548C211.417 252.876 211.357 253.276 211.389 253.748C211.349 254.188 211.409 254.572 211.569 254.9C211.737 255.228 211.969 255.484 212.265 255.668C212.569 255.852 212.913 255.944 213.297 255.944C213.689 255.944 214.021 255.856 214.293 255.68C214.573 255.504 214.793 255.276 214.953 254.996L216.057 255.536C215.929 255.84 215.729 256.116 215.457 256.364C215.193 256.604 214.873 256.796 214.497 256.94C214.129 257.076 213.725 257.144 213.285 257.144ZM217.597 257V247.916H218.953V257H217.597Z" fill="#171816"/>
<path d="M160 200C160 195.582 163.582 192 168 192H220C224.418 192 228 195.582 228 200V208C228 212.418 224.418 216 220 216H168C163.582 216 160 212.418 160 208V200Z" fill="#ECDEDB"/>
<path d="M181 198H171C170.735 198 170.48 198.105 170.293 198.293C170.105 198.48 170 198.735 170 199V209C170 209.265 170.105 209.52 170.293 209.707C170.48 209.895 170.735 210 171 210H181C181.265 210 181.52 209.895 181.707 209.707C181.895 209.52 182 209.265 182 209V199C182 198.735 181.895 198.48 181.707 198.293C181.52 198.105 181.265 198 181 198ZM171 209V199.707L180.293 209H171ZM171.707 199H181V208.294L171.707 199Z" fill="#171816"/>
<path d="M188.924 209V200.06H190.34V207.74H194.204V209H188.924ZM197.205 209.144C196.765 209.144 196.377 209.068 196.041 208.916C195.713 208.756 195.457 208.54 195.273 208.268C195.089 207.988 194.997 207.66 194.997 207.284C194.997 206.932 195.073 206.616 195.225 206.336C195.385 206.056 195.629 205.82 195.957 205.628C196.285 205.436 196.697 205.3 197.193 205.22L199.449 204.848V205.916L197.457 206.264C197.097 206.328 196.833 206.444 196.665 206.612C196.497 206.772 196.413 206.98 196.413 207.236C196.413 207.484 196.505 207.688 196.689 207.848C196.881 208 197.125 208.076 197.421 208.076C197.789 208.076 198.109 207.996 198.381 207.836C198.661 207.676 198.877 207.464 199.029 207.2C199.181 206.928 199.257 206.628 199.257 206.3V204.632C199.257 204.312 199.137 204.052 198.897 203.852C198.665 203.644 198.353 203.54 197.961 203.54C197.601 203.54 197.285 203.636 197.013 203.828C196.749 204.012 196.553 204.252 196.425 204.548L195.297 203.984C195.417 203.664 195.613 203.384 195.885 203.144C196.157 202.896 196.473 202.704 196.833 202.568C197.201 202.432 197.589 202.364 197.997 202.364C198.509 202.364 198.961 202.46 199.353 202.652C199.753 202.844 200.061 203.112 200.277 203.456C200.501 203.792 200.613 204.184 200.613 204.632V209H199.317V207.824L199.593 207.86C199.441 208.124 199.245 208.352 199.005 208.544C198.773 208.736 198.505 208.884 198.201 208.988C197.905 209.092 197.573 209.144 197.205 209.144ZM205.666 209.144C205.162 209.144 204.702 209.04 204.286 208.832C203.878 208.624 203.562 208.324 203.338 207.932L203.494 207.68V209H202.198V199.916H203.554V203.852L203.338 203.54C203.578 203.172 203.898 202.884 204.298 202.676C204.698 202.468 205.154 202.364 205.666 202.364C206.282 202.364 206.834 202.512 207.322 202.808C207.818 203.104 208.206 203.508 208.486 204.02C208.774 204.532 208.918 205.108 208.918 205.748C208.918 206.388 208.774 206.964 208.486 207.476C208.206 207.988 207.822 208.396 207.334 208.7C206.846 208.996 206.29 209.144 205.666 209.144ZM205.534 207.884C205.918 207.884 206.258 207.792 206.554 207.608C206.85 207.424 207.082 207.172 207.25 206.852C207.426 206.524 207.514 206.156 207.514 205.748C207.514 205.34 207.426 204.976 207.25 204.656C207.082 204.336 206.85 204.084 206.554 203.9C206.258 203.716 205.918 203.624 205.534 203.624C205.158 203.624 204.818 203.716 204.514 203.9C204.218 204.084 203.982 204.336 203.806 204.656C203.638 204.976 203.554 205.34 203.554 205.748C203.554 206.156 203.638 206.524 203.806 206.852C203.982 207.172 204.218 207.424 204.514 207.608C204.818 207.792 205.158 207.884 205.534 207.884ZM213.285 209.144C212.637 209.144 212.061 208.996 211.557 208.7C211.061 208.396 210.673 207.988 210.393 207.476C210.113 206.956 209.973 206.376 209.973 205.736C209.973 205.08 210.113 204.5 210.393 203.996C210.681 203.492 211.065 203.096 211.545 202.808C212.025 202.512 212.569 202.364 213.177 202.364C213.665 202.364 214.101 202.448 214.485 202.616C214.869 202.784 215.193 203.016 215.457 203.312C215.721 203.6 215.921 203.932 216.057 204.308C216.201 204.684 216.273 205.084 216.273 205.508C216.273 205.612 216.269 205.72 216.261 205.832C216.253 205.944 216.237 206.048 216.213 206.144H211.041V205.064H215.445L214.797 205.556C214.877 205.164 214.849 204.816 214.713 204.512C214.585 204.2 214.385 203.956 214.113 203.78C213.849 203.596 213.537 203.504 213.177 203.504C212.817 203.504 212.497 203.596 212.217 203.78C211.937 203.956 211.721 204.212 211.569 204.548C211.417 204.876 211.357 205.276 211.389 205.748C211.349 206.188 211.409 206.572 211.569 206.9C211.737 207.228 211.969 207.484 212.265 207.668C212.569 207.852 212.913 207.944 213.297 207.944C213.689 207.944 214.021 207.856 214.293 207.68C214.573 207.504 214.793 207.276 214.953 206.996L216.057 207.536C215.929 207.84 215.729 208.116 215.457 208.364C215.193 208.604 214.873 208.796 214.497 208.94C214.129 209.076 213.725 209.144 213.285 209.144ZM217.597 209V199.916H218.953V209H217.597Z" fill="#171816"/>
<path d="M160 152C160 147.582 163.582 144 168 144H220C224.418 144 228 147.582 228 152V160C228 164.418 224.418 168 220 168H168C163.582 168 160 164.418 160 160V152Z" fill="#14411E"/>
<path d="M181 150H171C170.735 150 170.48 150.105 170.293 150.293C170.105 150.48 170 150.735 170 151V161C170 161.265 170.105 161.52 170.293 161.707C170.48 161.895 170.735 162 171 162H181C181.265 162 181.52 161.895 181.707 161.707C181.895 161.52 182 161.265 182 161V151C182 150.735 181.895 150.48 181.707 150.293C181.52 150.105 181.265 150 181 150ZM171 161V151.707L180.293 161H171ZM171.707 151H181V160.294L171.707 151Z" fill="white"/>
<path d="M188.924 161V152.06H190.34V159.74H194.204V161H188.924ZM197.205 161.144C196.765 161.144 196.377 161.068 196.041 160.916C195.713 160.756 195.457 160.54 195.273 160.268C195.089 159.988 194.997 159.66 194.997 159.284C194.997 158.932 195.073 158.616 195.225 158.336C195.385 158.056 195.629 157.82 195.957 157.628C196.285 157.436 196.697 157.3 197.193 157.22L199.449 156.848V157.916L197.457 158.264C197.097 158.328 196.833 158.444 196.665 158.612C196.497 158.772 196.413 158.98 196.413 159.236C196.413 159.484 196.505 159.688 196.689 159.848C196.881 160 197.125 160.076 197.421 160.076C197.789 160.076 198.109 159.996 198.381 159.836C198.661 159.676 198.877 159.464 199.029 159.2C199.181 158.928 199.257 158.628 199.257 158.3V156.632C199.257 156.312 199.137 156.052 198.897 155.852C198.665 155.644 198.353 155.54 197.961 155.54C197.601 155.54 197.285 155.636 197.013 155.828C196.749 156.012 196.553 156.252 196.425 156.548L195.297 155.984C195.417 155.664 195.613 155.384 195.885 155.144C196.157 154.896 196.473 154.704 196.833 154.568C197.201 154.432 197.589 154.364 197.997 154.364C198.509 154.364 198.961 154.46 199.353 154.652C199.753 154.844 200.061 155.112 200.277 155.456C200.501 155.792 200.613 156.184 200.613 156.632V161H199.317V159.824L199.593 159.86C199.441 160.124 199.245 160.352 199.005 160.544C198.773 160.736 198.505 160.884 198.201 160.988C197.905 161.092 197.573 161.144 197.205 161.144ZM205.666 161.144C205.162 161.144 204.702 161.04 204.286 160.832C203.878 160.624 203.562 160.324 203.338 159.932L203.494 159.68V161H202.198V151.916H203.554V155.852L203.338 155.54C203.578 155.172 203.898 154.884 204.298 154.676C204.698 154.468 205.154 154.364 205.666 154.364C206.282 154.364 206.834 154.512 207.322 154.808C207.818 155.104 208.206 155.508 208.486 156.02C208.774 156.532 208.918 157.108 208.918 157.748C208.918 158.388 208.774 158.964 208.486 159.476C208.206 159.988 207.822 160.396 207.334 160.7C206.846 160.996 206.29 161.144 205.666 161.144ZM205.534 159.884C205.918 159.884 206.258 159.792 206.554 159.608C206.85 159.424 207.082 159.172 207.25 158.852C207.426 158.524 207.514 158.156 207.514 157.748C207.514 157.34 207.426 156.976 207.25 156.656C207.082 156.336 206.85 156.084 206.554 155.9C206.258 155.716 205.918 155.624 205.534 155.624C205.158 155.624 204.818 155.716 204.514 155.9C204.218 156.084 203.982 156.336 203.806 156.656C203.638 156.976 203.554 157.34 203.554 157.748C203.554 158.156 203.638 158.524 203.806 158.852C203.982 159.172 204.218 159.424 204.514 159.608C204.818 159.792 205.158 159.884 205.534 159.884ZM213.285 161.144C212.637 161.144 212.061 160.996 211.557 160.7C211.061 160.396 210.673 159.988 210.393 159.476C210.113 158.956 209.973 158.376 209.973 157.736C209.973 157.08 210.113 156.5 210.393 155.996C210.681 155.492 211.065 155.096 211.545 154.808C212.025 154.512 212.569 154.364 213.177 154.364C213.665 154.364 214.101 154.448 214.485 154.616C214.869 154.784 215.193 155.016 215.457 155.312C215.721 155.6 215.921 155.932 216.057 156.308C216.201 156.684 216.273 157.084 216.273 157.508C216.273 157.612 216.269 157.72 216.261 157.832C216.253 157.944 216.237 158.048 216.213 158.144H211.041V157.064H215.445L214.797 157.556C214.877 157.164 214.849 156.816 214.713 156.512C214.585 156.2 214.385 155.956 214.113 155.78C213.849 155.596 213.537 155.504 213.177 155.504C212.817 155.504 212.497 155.596 212.217 155.78C211.937 155.956 211.721 156.212 211.569 156.548C211.417 156.876 211.357 157.276 211.389 157.748C211.349 158.188 211.409 158.572 211.569 158.9C211.737 159.228 211.969 159.484 212.265 159.668C212.569 159.852 212.913 159.944 213.297 159.944C213.689 159.944 214.021 159.856 214.293 159.68C214.573 159.504 214.793 159.276 214.953 158.996L216.057 159.536C215.929 159.84 215.729 160.116 215.457 160.364C215.193 160.604 214.873 160.796 214.497 160.94C214.129 161.076 213.725 161.144 213.285 161.144ZM217.597 161V151.916H218.953V161H217.597Z" fill="white"/>
<path d="M160 104C160 99.5817 163.582 96 168 96H220C224.418 96 228 99.5817 228 104V112C228 116.418 224.418 120 220 120H168C163.582 120 160 116.418 160 112V104Z" fill="#E9F5E5"/>
<path d="M181 102H171C170.735 102 170.48 102.105 170.293 102.293C170.105 102.48 170 102.735 170 103V113C170 113.265 170.105 113.52 170.293 113.707C170.48 113.895 170.735 114 171 114H181C181.265 114 181.52 113.895 181.707 113.707C181.895 113.52 182 113.265 182 113V103C182 102.735 181.895 102.48 181.707 102.293C181.52 102.105 181.265 102 181 102ZM171 113V103.707L180.293 113H171ZM171.707 103H181V112.294L171.707 103Z" fill="#292C28"/>
<path d="M188.924 113V104.06H190.34V111.74H194.204V113H188.924ZM197.205 113.144C196.765 113.144 196.377 113.068 196.041 112.916C195.713 112.756 195.457 112.54 195.273 112.268C195.089 111.988 194.997 111.66 194.997 111.284C194.997 110.932 195.073 110.616 195.225 110.336C195.385 110.056 195.629 109.82 195.957 109.628C196.285 109.436 196.697 109.3 197.193 109.22L199.449 108.848V109.916L197.457 110.264C197.097 110.328 196.833 110.444 196.665 110.612C196.497 110.772 196.413 110.98 196.413 111.236C196.413 111.484 196.505 111.688 196.689 111.848C196.881 112 197.125 112.076 197.421 112.076C197.789 112.076 198.109 111.996 198.381 111.836C198.661 111.676 198.877 111.464 199.029 111.2C199.181 110.928 199.257 110.628 199.257 110.3V108.632C199.257 108.312 199.137 108.052 198.897 107.852C198.665 107.644 198.353 107.54 197.961 107.54C197.601 107.54 197.285 107.636 197.013 107.828C196.749 108.012 196.553 108.252 196.425 108.548L195.297 107.984C195.417 107.664 195.613 107.384 195.885 107.144C196.157 106.896 196.473 106.704 196.833 106.568C197.201 106.432 197.589 106.364 197.997 106.364C198.509 106.364 198.961 106.46 199.353 106.652C199.753 106.844 200.061 107.112 200.277 107.456C200.501 107.792 200.613 108.184 200.613 108.632V113H199.317V111.824L199.593 111.86C199.441 112.124 199.245 112.352 199.005 112.544C198.773 112.736 198.505 112.884 198.201 112.988C197.905 113.092 197.573 113.144 197.205 113.144ZM205.666 113.144C205.162 113.144 204.702 113.04 204.286 112.832C203.878 112.624 203.562 112.324 203.338 111.932L203.494 111.68V113H202.198V103.916H203.554V107.852L203.338 107.54C203.578 107.172 203.898 106.884 204.298 106.676C204.698 106.468 205.154 106.364 205.666 106.364C206.282 106.364 206.834 106.512 207.322 106.808C207.818 107.104 208.206 107.508 208.486 108.02C208.774 108.532 208.918 109.108 208.918 109.748C208.918 110.388 208.774 110.964 208.486 111.476C208.206 111.988 207.822 112.396 207.334 112.7C206.846 112.996 206.29 113.144 205.666 113.144ZM205.534 111.884C205.918 111.884 206.258 111.792 206.554 111.608C206.85 111.424 207.082 111.172 207.25 110.852C207.426 110.524 207.514 110.156 207.514 109.748C207.514 109.34 207.426 108.976 207.25 108.656C207.082 108.336 206.85 108.084 206.554 107.9C206.258 107.716 205.918 107.624 205.534 107.624C205.158 107.624 204.818 107.716 204.514 107.9C204.218 108.084 203.982 108.336 203.806 108.656C203.638 108.976 203.554 109.34 203.554 109.748C203.554 110.156 203.638 110.524 203.806 110.852C203.982 111.172 204.218 111.424 204.514 111.608C204.818 111.792 205.158 111.884 205.534 111.884ZM213.285 113.144C212.637 113.144 212.061 112.996 211.557 112.7C211.061 112.396 210.673 111.988 210.393 111.476C210.113 110.956 209.973 110.376 209.973 109.736C209.973 109.08 210.113 108.5 210.393 107.996C210.681 107.492 211.065 107.096 211.545 106.808C212.025 106.512 212.569 106.364 213.177 106.364C213.665 106.364 214.101 106.448 214.485 106.616C214.869 106.784 215.193 107.016 215.457 107.312C215.721 107.6 215.921 107.932 216.057 108.308C216.201 108.684 216.273 109.084 216.273 109.508C216.273 109.612 216.269 109.72 216.261 109.832C216.253 109.944 216.237 110.048 216.213 110.144H211.041V109.064H215.445L214.797 109.556C214.877 109.164 214.849 108.816 214.713 108.512C214.585 108.2 214.385 107.956 214.113 107.78C213.849 107.596 213.537 107.504 213.177 107.504C212.817 107.504 212.497 107.596 212.217 107.78C211.937 107.956 211.721 108.212 211.569 108.548C211.417 108.876 211.357 109.276 211.389 109.748C211.349 110.188 211.409 110.572 211.569 110.9C211.737 111.228 211.969 111.484 212.265 111.668C212.569 111.852 212.913 111.944 213.297 111.944C213.689 111.944 214.021 111.856 214.293 111.68C214.573 111.504 214.793 111.276 214.953 110.996L216.057 111.536C215.929 111.84 215.729 112.116 215.457 112.364C215.193 112.604 214.873 112.796 214.497 112.94C214.129 113.076 213.725 113.144 213.285 113.144ZM217.597 113V103.916H218.953V113H217.597Z" fill="#171816"/>
<path d="M348 88C348 79.1634 355.163 72 364 72H448C456.837 72 464 79.1634 464 88V320C464 328.837 456.837 336 448 336H364C355.163 336 348 328.837 348 320V88Z" fill="#1B1C1A"/>
<path d="M372 104C372 99.5817 375.582 96 380 96H432C436.418 96 440 99.5817 440 104V112C440 116.418 436.418 120 432 120H380C375.582 120 372 116.418 372 112V104Z" fill="#292C28"/>
<path d="M393 102H383C382.735 102 382.48 102.105 382.293 102.293C382.105 102.48 382 102.735 382 103V113C382 113.265 382.105 113.52 382.293 113.707C382.48 113.895 382.735 114 383 114H393C393.265 114 393.52 113.895 393.707 113.707C393.895 113.52 394 113.265 394 113V103C394 102.735 393.895 102.48 393.707 102.293C393.52 102.105 393.265 102 393 102ZM383 113V103.707L392.293 113H383ZM383.707 103H393V112.294L383.707 103Z" fill="#6C7469"/>
<path d="M400.924 113V104.06H402.34V111.74H406.204V113H400.924ZM409.205 113.144C408.765 113.144 408.377 113.068 408.041 112.916C407.713 112.756 407.457 112.54 407.273 112.268C407.089 111.988 406.997 111.66 406.997 111.284C406.997 110.932 407.073 110.616 407.225 110.336C407.385 110.056 407.629 109.82 407.957 109.628C408.285 109.436 408.697 109.3 409.193 109.22L411.449 108.848V109.916L409.457 110.264C409.097 110.328 408.833 110.444 408.665 110.612C408.497 110.772 408.413 110.98 408.413 111.236C408.413 111.484 408.505 111.688 408.689 111.848C408.881 112 409.125 112.076 409.421 112.076C409.789 112.076 410.109 111.996 410.381 111.836C410.661 111.676 410.877 111.464 411.029 111.2C411.181 110.928 411.257 110.628 411.257 110.3V108.632C411.257 108.312 411.137 108.052 410.897 107.852C410.665 107.644 410.353 107.54 409.961 107.54C409.601 107.54 409.285 107.636 409.013 107.828C408.749 108.012 408.553 108.252 408.425 108.548L407.297 107.984C407.417 107.664 407.613 107.384 407.885 107.144C408.157 106.896 408.473 106.704 408.833 106.568C409.201 106.432 409.589 106.364 409.997 106.364C410.509 106.364 410.961 106.46 411.353 106.652C411.753 106.844 412.061 107.112 412.277 107.456C412.501 107.792 412.613 108.184 412.613 108.632V113H411.317V111.824L411.593 111.86C411.441 112.124 411.245 112.352 411.005 112.544C410.773 112.736 410.505 112.884 410.201 112.988C409.905 113.092 409.573 113.144 409.205 113.144ZM417.666 113.144C417.162 113.144 416.702 113.04 416.286 112.832C415.878 112.624 415.562 112.324 415.338 111.932L415.494 111.68V113H414.198V103.916H415.554V107.852L415.338 107.54C415.578 107.172 415.898 106.884 416.298 106.676C416.698 106.468 417.154 106.364 417.666 106.364C418.282 106.364 418.834 106.512 419.322 106.808C419.818 107.104 420.206 107.508 420.486 108.02C420.774 108.532 420.918 109.108 420.918 109.748C420.918 110.388 420.774 110.964 420.486 111.476C420.206 111.988 419.822 112.396 419.334 112.7C418.846 112.996 418.29 113.144 417.666 113.144ZM417.534 111.884C417.918 111.884 418.258 111.792 418.554 111.608C418.85 111.424 419.082 111.172 419.25 110.852C419.426 110.524 419.514 110.156 419.514 109.748C419.514 109.34 419.426 108.976 419.25 108.656C419.082 108.336 418.85 108.084 418.554 107.9C418.258 107.716 417.918 107.624 417.534 107.624C417.158 107.624 416.818 107.716 416.514 107.9C416.218 108.084 415.982 108.336 415.806 108.656C415.638 108.976 415.554 109.34 415.554 109.748C415.554 110.156 415.638 110.524 415.806 110.852C415.982 111.172 416.218 111.424 416.514 111.608C416.818 111.792 417.158 111.884 417.534 111.884ZM425.285 113.144C424.637 113.144 424.061 112.996 423.557 112.7C423.061 112.396 422.673 111.988 422.393 111.476C422.113 110.956 421.973 110.376 421.973 109.736C421.973 109.08 422.113 108.5 422.393 107.996C422.681 107.492 423.065 107.096 423.545 106.808C424.025 106.512 424.569 106.364 425.177 106.364C425.665 106.364 426.101 106.448 426.485 106.616C426.869 106.784 427.193 107.016 427.457 107.312C427.721 107.6 427.921 107.932 428.057 108.308C428.201 108.684 428.273 109.084 428.273 109.508C428.273 109.612 428.269 109.72 428.261 109.832C428.253 109.944 428.237 110.048 428.213 110.144H423.041V109.064H427.445L426.797 109.556C426.877 109.164 426.849 108.816 426.713 108.512C426.585 108.2 426.385 107.956 426.113 107.78C425.849 107.596 425.537 107.504 425.177 107.504C424.817 107.504 424.497 107.596 424.217 107.78C423.937 107.956 423.721 108.212 423.569 108.548C423.417 108.876 423.357 109.276 423.389 109.748C423.349 110.188 423.409 110.572 423.569 110.9C423.737 111.228 423.969 111.484 424.265 111.668C424.569 111.852 424.913 111.944 425.297 111.944C425.689 111.944 426.021 111.856 426.293 111.68C426.573 111.504 426.793 111.276 426.953 110.996L428.057 111.536C427.929 111.84 427.729 112.116 427.457 112.364C427.193 112.604 426.873 112.796 426.497 112.94C426.129 113.076 425.725 113.144 425.285 113.144ZM429.597 113V103.916H430.953V113H429.597Z" fill="white"/>
<path d="M372 152C372 147.582 375.582 144 380 144H432C436.418 144 440 147.582 440 152V160C440 164.418 436.418 168 432 168H380C375.582 168 372 164.418 372 160V152Z" fill="#31E000"/>
<path d="M393 150H383C382.735 150 382.48 150.105 382.293 150.293C382.105 150.48 382 150.735 382 151V161C382 161.265 382.105 161.52 382.293 161.707C382.48 161.895 382.735 162 383 162H393C393.265 162 393.52 161.895 393.707 161.707C393.895 161.52 394 161.265 394 161V151C394 150.735 393.895 150.48 393.707 150.293C393.52 150.105 393.265 150 393 150ZM383 161V151.707L392.293 161H383ZM383.707 151H393V160.294L383.707 151Z" fill="#1B1C1A"/>
<path d="M400.924 161V152.06H402.34V159.74H406.204V161H400.924ZM409.205 161.144C408.765 161.144 408.377 161.068 408.041 160.916C407.713 160.756 407.457 160.54 407.273 160.268C407.089 159.988 406.997 159.66 406.997 159.284C406.997 158.932 407.073 158.616 407.225 158.336C407.385 158.056 407.629 157.82 407.957 157.628C408.285 157.436 408.697 157.3 409.193 157.22L411.449 156.848V157.916L409.457 158.264C409.097 158.328 408.833 158.444 408.665 158.612C408.497 158.772 408.413 158.98 408.413 159.236C408.413 159.484 408.505 159.688 408.689 159.848C408.881 160 409.125 160.076 409.421 160.076C409.789 160.076 410.109 159.996 410.381 159.836C410.661 159.676 410.877 159.464 411.029 159.2C411.181 158.928 411.257 158.628 411.257 158.3V156.632C411.257 156.312 411.137 156.052 410.897 155.852C410.665 155.644 410.353 155.54 409.961 155.54C409.601 155.54 409.285 155.636 409.013 155.828C408.749 156.012 408.553 156.252 408.425 156.548L407.297 155.984C407.417 155.664 407.613 155.384 407.885 155.144C408.157 154.896 408.473 154.704 408.833 154.568C409.201 154.432 409.589 154.364 409.997 154.364C410.509 154.364 410.961 154.46 411.353 154.652C411.753 154.844 412.061 155.112 412.277 155.456C412.501 155.792 412.613 156.184 412.613 156.632V161H411.317V159.824L411.593 159.86C411.441 160.124 411.245 160.352 411.005 160.544C410.773 160.736 410.505 160.884 410.201 160.988C409.905 161.092 409.573 161.144 409.205 161.144ZM417.666 161.144C417.162 161.144 416.702 161.04 416.286 160.832C415.878 160.624 415.562 160.324 415.338 159.932L415.494 159.68V161H414.198V151.916H415.554V155.852L415.338 155.54C415.578 155.172 415.898 154.884 416.298 154.676C416.698 154.468 417.154 154.364 417.666 154.364C418.282 154.364 418.834 154.512 419.322 154.808C419.818 155.104 420.206 155.508 420.486 156.02C420.774 156.532 420.918 157.108 420.918 157.748C420.918 158.388 420.774 158.964 420.486 159.476C420.206 159.988 419.822 160.396 419.334 160.7C418.846 160.996 418.29 161.144 417.666 161.144ZM417.534 159.884C417.918 159.884 418.258 159.792 418.554 159.608C418.85 159.424 419.082 159.172 419.25 158.852C419.426 158.524 419.514 158.156 419.514 157.748C419.514 157.34 419.426 156.976 419.25 156.656C419.082 156.336 418.85 156.084 418.554 155.9C418.258 155.716 417.918 155.624 417.534 155.624C417.158 155.624 416.818 155.716 416.514 155.9C416.218 156.084 415.982 156.336 415.806 156.656C415.638 156.976 415.554 157.34 415.554 157.748C415.554 158.156 415.638 158.524 415.806 158.852C415.982 159.172 416.218 159.424 416.514 159.608C416.818 159.792 417.158 159.884 417.534 159.884ZM425.285 161.144C424.637 161.144 424.061 160.996 423.557 160.7C423.061 160.396 422.673 159.988 422.393 159.476C422.113 158.956 421.973 158.376 421.973 157.736C421.973 157.08 422.113 156.5 422.393 155.996C422.681 155.492 423.065 155.096 423.545 154.808C424.025 154.512 424.569 154.364 425.177 154.364C425.665 154.364 426.101 154.448 426.485 154.616C426.869 154.784 427.193 155.016 427.457 155.312C427.721 155.6 427.921 155.932 428.057 156.308C428.201 156.684 428.273 157.084 428.273 157.508C428.273 157.612 428.269 157.72 428.261 157.832C428.253 157.944 428.237 158.048 428.213 158.144H423.041V157.064H427.445L426.797 157.556C426.877 157.164 426.849 156.816 426.713 156.512C426.585 156.2 426.385 155.956 426.113 155.78C425.849 155.596 425.537 155.504 425.177 155.504C424.817 155.504 424.497 155.596 424.217 155.78C423.937 155.956 423.721 156.212 423.569 156.548C423.417 156.876 423.357 157.276 423.389 157.748C423.349 158.188 423.409 158.572 423.569 158.9C423.737 159.228 423.969 159.484 424.265 159.668C424.569 159.852 424.913 159.944 425.297 159.944C425.689 159.944 426.021 159.856 426.293 159.68C426.573 159.504 426.793 159.276 426.953 158.996L428.057 159.536C427.929 159.84 427.729 160.116 427.457 160.364C427.193 160.604 426.873 160.796 426.497 160.94C426.129 161.076 425.725 161.144 425.285 161.144ZM429.597 161V151.916H430.953V161H429.597Z" fill="#292C28"/>
<path d="M372 200C372 195.582 375.582 192 380 192H432C436.418 192 440 195.582 440 200V208C440 212.418 436.418 216 432 216H380C375.582 216 372 212.418 372 208V200Z" fill="#ECDEDB"/>
<path d="M393 198H383C382.735 198 382.48 198.105 382.293 198.293C382.105 198.48 382 198.735 382 199V209C382 209.265 382.105 209.52 382.293 209.707C382.48 209.895 382.735 210 383 210H393C393.265 210 393.52 209.895 393.707 209.707C393.895 209.52 394 209.265 394 209V199C394 198.735 393.895 198.48 393.707 198.293C393.52 198.105 393.265 198 393 198ZM383 209V199.707L392.293 209H383ZM383.707 199H393V208.294L383.707 199Z" fill="#171816"/>
<path d="M400.924 209V200.06H402.34V207.74H406.204V209H400.924ZM409.205 209.144C408.765 209.144 408.377 209.068 408.041 208.916C407.713 208.756 407.457 208.54 407.273 208.268C407.089 207.988 406.997 207.66 406.997 207.284C406.997 206.932 407.073 206.616 407.225 206.336C407.385 206.056 407.629 205.82 407.957 205.628C408.285 205.436 408.697 205.3 409.193 205.22L411.449 204.848V205.916L409.457 206.264C409.097 206.328 408.833 206.444 408.665 206.612C408.497 206.772 408.413 206.98 408.413 207.236C408.413 207.484 408.505 207.688 408.689 207.848C408.881 208 409.125 208.076 409.421 208.076C409.789 208.076 410.109 207.996 410.381 207.836C410.661 207.676 410.877 207.464 411.029 207.2C411.181 206.928 411.257 206.628 411.257 206.3V204.632C411.257 204.312 411.137 204.052 410.897 203.852C410.665 203.644 410.353 203.54 409.961 203.54C409.601 203.54 409.285 203.636 409.013 203.828C408.749 204.012 408.553 204.252 408.425 204.548L407.297 203.984C407.417 203.664 407.613 203.384 407.885 203.144C408.157 202.896 408.473 202.704 408.833 202.568C409.201 202.432 409.589 202.364 409.997 202.364C410.509 202.364 410.961 202.46 411.353 202.652C411.753 202.844 412.061 203.112 412.277 203.456C412.501 203.792 412.613 204.184 412.613 204.632V209H411.317V207.824L411.593 207.86C411.441 208.124 411.245 208.352 411.005 208.544C410.773 208.736 410.505 208.884 410.201 208.988C409.905 209.092 409.573 209.144 409.205 209.144ZM417.666 209.144C417.162 209.144 416.702 209.04 416.286 208.832C415.878 208.624 415.562 208.324 415.338 207.932L415.494 207.68V209H414.198V199.916H415.554V203.852L415.338 203.54C415.578 203.172 415.898 202.884 416.298 202.676C416.698 202.468 417.154 202.364 417.666 202.364C418.282 202.364 418.834 202.512 419.322 202.808C419.818 203.104 420.206 203.508 420.486 204.02C420.774 204.532 420.918 205.108 420.918 205.748C420.918 206.388 420.774 206.964 420.486 207.476C420.206 207.988 419.822 208.396 419.334 208.7C418.846 208.996 418.29 209.144 417.666 209.144ZM417.534 207.884C417.918 207.884 418.258 207.792 418.554 207.608C418.85 207.424 419.082 207.172 419.25 206.852C419.426 206.524 419.514 206.156 419.514 205.748C419.514 205.34 419.426 204.976 419.25 204.656C419.082 204.336 418.85 204.084 418.554 203.9C418.258 203.716 417.918 203.624 417.534 203.624C417.158 203.624 416.818 203.716 416.514 203.9C416.218 204.084 415.982 204.336 415.806 204.656C415.638 204.976 415.554 205.34 415.554 205.748C415.554 206.156 415.638 206.524 415.806 206.852C415.982 207.172 416.218 207.424 416.514 207.608C416.818 207.792 417.158 207.884 417.534 207.884ZM425.285 209.144C424.637 209.144 424.061 208.996 423.557 208.7C423.061 208.396 422.673 207.988 422.393 207.476C422.113 206.956 421.973 206.376 421.973 205.736C421.973 205.08 422.113 204.5 422.393 203.996C422.681 203.492 423.065 203.096 423.545 202.808C424.025 202.512 424.569 202.364 425.177 202.364C425.665 202.364 426.101 202.448 426.485 202.616C426.869 202.784 427.193 203.016 427.457 203.312C427.721 203.6 427.921 203.932 428.057 204.308C428.201 204.684 428.273 205.084 428.273 205.508C428.273 205.612 428.269 205.72 428.261 205.832C428.253 205.944 428.237 206.048 428.213 206.144H423.041V205.064H427.445L426.797 205.556C426.877 205.164 426.849 204.816 426.713 204.512C426.585 204.2 426.385 203.956 426.113 203.78C425.849 203.596 425.537 203.504 425.177 203.504C424.817 203.504 424.497 203.596 424.217 203.78C423.937 203.956 423.721 204.212 423.569 204.548C423.417 204.876 423.357 205.276 423.389 205.748C423.349 206.188 423.409 206.572 423.569 206.9C423.737 207.228 423.969 207.484 424.265 207.668C424.569 207.852 424.913 207.944 425.297 207.944C425.689 207.944 426.021 207.856 426.293 207.68C426.573 207.504 426.793 207.276 426.953 206.996L428.057 207.536C427.929 207.84 427.729 208.116 427.457 208.364C427.193 208.604 426.873 208.796 426.497 208.94C426.129 209.076 425.725 209.144 425.285 209.144ZM429.597 209V199.916H430.953V209H429.597Z" fill="#171816"/>
<path d="M372 248C372 243.582 375.582 240 380 240H432C436.418 240 440 243.582 440 248V256C440 260.418 436.418 264 432 264H380C375.582 264 372 260.418 372 256V248Z" fill="#FFF5A7"/>
<path d="M393 246H383C382.735 246 382.48 246.105 382.293 246.293C382.105 246.48 382 246.735 382 247V257C382 257.265 382.105 257.52 382.293 257.707C382.48 257.895 382.735 258 383 258H393C393.265 258 393.52 257.895 393.707 257.707C393.895 257.52 394 257.265 394 257V247C394 246.735 393.895 246.48 393.707 246.293C393.52 246.105 393.265 246 393 246ZM383 257V247.707L392.293 257H383ZM383.707 247H393V256.294L383.707 247Z" fill="#171816"/>
<path d="M400.924 257V248.06H402.34V255.74H406.204V257H400.924ZM409.205 257.144C408.765 257.144 408.377 257.068 408.041 256.916C407.713 256.756 407.457 256.54 407.273 256.268C407.089 255.988 406.997 255.66 406.997 255.284C406.997 254.932 407.073 254.616 407.225 254.336C407.385 254.056 407.629 253.82 407.957 253.628C408.285 253.436 408.697 253.3 409.193 253.22L411.449 252.848V253.916L409.457 254.264C409.097 254.328 408.833 254.444 408.665 254.612C408.497 254.772 408.413 254.98 408.413 255.236C408.413 255.484 408.505 255.688 408.689 255.848C408.881 256 409.125 256.076 409.421 256.076C409.789 256.076 410.109 255.996 410.381 255.836C410.661 255.676 410.877 255.464 411.029 255.2C411.181 254.928 411.257 254.628 411.257 254.3V252.632C411.257 252.312 411.137 252.052 410.897 251.852C410.665 251.644 410.353 251.54 409.961 251.54C409.601 251.54 409.285 251.636 409.013 251.828C408.749 252.012 408.553 252.252 408.425 252.548L407.297 251.984C407.417 251.664 407.613 251.384 407.885 251.144C408.157 250.896 408.473 250.704 408.833 250.568C409.201 250.432 409.589 250.364 409.997 250.364C410.509 250.364 410.961 250.46 411.353 250.652C411.753 250.844 412.061 251.112 412.277 251.456C412.501 251.792 412.613 252.184 412.613 252.632V257H411.317V255.824L411.593 255.86C411.441 256.124 411.245 256.352 411.005 256.544C410.773 256.736 410.505 256.884 410.201 256.988C409.905 257.092 409.573 257.144 409.205 257.144ZM417.666 257.144C417.162 257.144 416.702 257.04 416.286 256.832C415.878 256.624 415.562 256.324 415.338 255.932L415.494 255.68V257H414.198V247.916H415.554V251.852L415.338 251.54C415.578 251.172 415.898 250.884 416.298 250.676C416.698 250.468 417.154 250.364 417.666 250.364C418.282 250.364 418.834 250.512 419.322 250.808C419.818 251.104 420.206 251.508 420.486 252.02C420.774 252.532 420.918 253.108 420.918 253.748C420.918 254.388 420.774 254.964 420.486 255.476C420.206 255.988 419.822 256.396 419.334 256.7C418.846 256.996 418.29 257.144 417.666 257.144ZM417.534 255.884C417.918 255.884 418.258 255.792 418.554 255.608C418.85 255.424 419.082 255.172 419.25 254.852C419.426 254.524 419.514 254.156 419.514 253.748C419.514 253.34 419.426 252.976 419.25 252.656C419.082 252.336 418.85 252.084 418.554 251.9C418.258 251.716 417.918 251.624 417.534 251.624C417.158 251.624 416.818 251.716 416.514 251.9C416.218 252.084 415.982 252.336 415.806 252.656C415.638 252.976 415.554 253.34 415.554 253.748C415.554 254.156 415.638 254.524 415.806 254.852C415.982 255.172 416.218 255.424 416.514 255.608C416.818 255.792 417.158 255.884 417.534 255.884ZM425.285 257.144C424.637 257.144 424.061 256.996 423.557 256.7C423.061 256.396 422.673 255.988 422.393 255.476C422.113 254.956 421.973 254.376 421.973 253.736C421.973 253.08 422.113 252.5 422.393 251.996C422.681 251.492 423.065 251.096 423.545 250.808C424.025 250.512 424.569 250.364 425.177 250.364C425.665 250.364 426.101 250.448 426.485 250.616C426.869 250.784 427.193 251.016 427.457 251.312C427.721 251.6 427.921 251.932 428.057 252.308C428.201 252.684 428.273 253.084 428.273 253.508C428.273 253.612 428.269 253.72 428.261 253.832C428.253 253.944 428.237 254.048 428.213 254.144H423.041V253.064H427.445L426.797 253.556C426.877 253.164 426.849 252.816 426.713 252.512C426.585 252.2 426.385 251.956 426.113 251.78C425.849 251.596 425.537 251.504 425.177 251.504C424.817 251.504 424.497 251.596 424.217 251.78C423.937 251.956 423.721 252.212 423.569 252.548C423.417 252.876 423.357 253.276 423.389 253.748C423.349 254.188 423.409 254.572 423.569 254.9C423.737 255.228 423.969 255.484 424.265 255.668C424.569 255.852 424.913 255.944 425.297 255.944C425.689 255.944 426.021 255.856 426.293 255.68C426.573 255.504 426.793 255.276 426.953 254.996L428.057 255.536C427.929 255.84 427.729 256.116 427.457 256.364C427.193 256.604 426.873 256.796 426.497 256.94C426.129 257.076 425.725 257.144 425.285 257.144ZM429.597 257V247.916H430.953V257H429.597Z" fill="#171816"/>
<path d="M372 296C372 291.582 375.582 288 380 288H432C436.418 288 440 291.582 440 296V304C440 308.418 436.418 312 432 312H380C375.582 312 372 308.418 372 304V296Z" fill="#DBECEA"/>
<path d="M393 294H383C382.735 294 382.48 294.105 382.293 294.293C382.105 294.48 382 294.735 382 295V305C382 305.265 382.105 305.52 382.293 305.707C382.48 305.895 382.735 306 383 306H393C393.265 306 393.52 305.895 393.707 305.707C393.895 305.52 394 305.265 394 305V295C394 294.735 393.895 294.48 393.707 294.293C393.52 294.105 393.265 294 393 294ZM383 305V295.707L392.293 305H383ZM383.707 295H393V304.294L383.707 295Z" fill="#171816"/>
<path d="M400.924 305V296.06H402.34V303.74H406.204V305H400.924ZM409.205 305.144C408.765 305.144 408.377 305.068 408.041 304.916C407.713 304.756 407.457 304.54 407.273 304.268C407.089 303.988 406.997 303.66 406.997 303.284C406.997 302.932 407.073 302.616 407.225 302.336C407.385 302.056 407.629 301.82 407.957 301.628C408.285 301.436 408.697 301.3 409.193 301.22L411.449 300.848V301.916L409.457 302.264C409.097 302.328 408.833 302.444 408.665 302.612C408.497 302.772 408.413 302.98 408.413 303.236C408.413 303.484 408.505 303.688 408.689 303.848C408.881 304 409.125 304.076 409.421 304.076C409.789 304.076 410.109 303.996 410.381 303.836C410.661 303.676 410.877 303.464 411.029 303.2C411.181 302.928 411.257 302.628 411.257 302.3V300.632C411.257 300.312 411.137 300.052 410.897 299.852C410.665 299.644 410.353 299.54 409.961 299.54C409.601 299.54 409.285 299.636 409.013 299.828C408.749 300.012 408.553 300.252 408.425 300.548L407.297 299.984C407.417 299.664 407.613 299.384 407.885 299.144C408.157 298.896 408.473 298.704 408.833 298.568C409.201 298.432 409.589 298.364 409.997 298.364C410.509 298.364 410.961 298.46 411.353 298.652C411.753 298.844 412.061 299.112 412.277 299.456C412.501 299.792 412.613 300.184 412.613 300.632V305H411.317V303.824L411.593 303.86C411.441 304.124 411.245 304.352 411.005 304.544C410.773 304.736 410.505 304.884 410.201 304.988C409.905 305.092 409.573 305.144 409.205 305.144ZM417.666 305.144C417.162 305.144 416.702 305.04 416.286 304.832C415.878 304.624 415.562 304.324 415.338 303.932L415.494 303.68V305H414.198V295.916H415.554V299.852L415.338 299.54C415.578 299.172 415.898 298.884 416.298 298.676C416.698 298.468 417.154 298.364 417.666 298.364C418.282 298.364 418.834 298.512 419.322 298.808C419.818 299.104 420.206 299.508 420.486 300.02C420.774 300.532 420.918 301.108 420.918 301.748C420.918 302.388 420.774 302.964 420.486 303.476C420.206 303.988 419.822 304.396 419.334 304.7C418.846 304.996 418.29 305.144 417.666 305.144ZM417.534 303.884C417.918 303.884 418.258 303.792 418.554 303.608C418.85 303.424 419.082 303.172 419.25 302.852C419.426 302.524 419.514 302.156 419.514 301.748C419.514 301.34 419.426 300.976 419.25 300.656C419.082 300.336 418.85 300.084 418.554 299.9C418.258 299.716 417.918 299.624 417.534 299.624C417.158 299.624 416.818 299.716 416.514 299.9C416.218 300.084 415.982 300.336 415.806 300.656C415.638 300.976 415.554 301.34 415.554 301.748C415.554 302.156 415.638 302.524 415.806 302.852C415.982 303.172 416.218 303.424 416.514 303.608C416.818 303.792 417.158 303.884 417.534 303.884ZM425.285 305.144C424.637 305.144 424.061 304.996 423.557 304.7C423.061 304.396 422.673 303.988 422.393 303.476C422.113 302.956 421.973 302.376 421.973 301.736C421.973 301.08 422.113 300.5 422.393 299.996C422.681 299.492 423.065 299.096 423.545 298.808C424.025 298.512 424.569 298.364 425.177 298.364C425.665 298.364 426.101 298.448 426.485 298.616C426.869 298.784 427.193 299.016 427.457 299.312C427.721 299.6 427.921 299.932 428.057 300.308C428.201 300.684 428.273 301.084 428.273 301.508C428.273 301.612 428.269 301.72 428.261 301.832C428.253 301.944 428.237 302.048 428.213 302.144H423.041V301.064H427.445L426.797 301.556C426.877 301.164 426.849 300.816 426.713 300.512C426.585 300.2 426.385 299.956 426.113 299.78C425.849 299.596 425.537 299.504 425.177 299.504C424.817 299.504 424.497 299.596 424.217 299.78C423.937 299.956 423.721 300.212 423.569 300.548C423.417 300.876 423.357 301.276 423.389 301.748C423.349 302.188 423.409 302.572 423.569 302.9C423.737 303.228 423.969 303.484 424.265 303.668C424.569 303.852 424.913 303.944 425.297 303.944C425.689 303.944 426.021 303.856 426.293 303.68C426.573 303.504 426.793 303.276 426.953 302.996L428.057 303.536C427.929 303.84 427.729 304.116 427.457 304.364C427.193 304.604 426.873 304.796 426.497 304.94C426.129 305.076 425.725 305.144 425.285 305.144ZM429.597 305V295.916H430.953V305H429.597Z" fill="#171816"/>
</svg>
