<svg width="600" height="360" viewBox="0 0 600 360" fill="none" xmlns="http://www.w3.org/2000/svg">
<rect x="0.5" y="0.5" width="599" height="359" rx="15.5" fill="white"/>
<rect x="0.5" y="0.5" width="599" height="359" rx="15.5" stroke="#E6E7E5"/>
<path d="M137.376 37L140.52 28.06H142.272L145.416 37H143.904L143.22 34.996H139.584L138.888 37H137.376ZM139.992 33.736H142.788L141.204 29.056H141.6L139.992 33.736ZM146.345 37V30.508H147.641V31.912L147.473 31.696C147.609 31.256 147.857 30.924 148.217 30.7C148.577 30.476 148.989 30.364 149.453 30.364C149.973 30.364 150.433 30.504 150.833 30.784C151.241 31.056 151.513 31.42 151.649 31.876L151.265 31.912C151.457 31.392 151.749 31.004 152.141 30.748C152.541 30.492 152.997 30.364 153.509 30.364C153.957 30.364 154.361 30.468 154.721 30.676C155.089 30.884 155.381 31.172 155.597 31.54C155.813 31.908 155.921 32.328 155.921 32.8V37H154.565V33.172C154.565 32.844 154.505 32.568 154.385 32.344C154.273 32.112 154.113 31.936 153.905 31.816C153.705 31.688 153.469 31.624 153.197 31.624C152.925 31.624 152.685 31.688 152.477 31.816C152.269 31.936 152.105 32.112 151.985 32.344C151.865 32.576 151.805 32.852 151.805 33.172V37H150.461V33.172C150.461 32.844 150.401 32.568 150.281 32.344C150.169 32.112 150.009 31.936 149.801 31.816C149.601 31.688 149.361 31.624 149.081 31.624C148.809 31.624 148.569 31.688 148.361 31.816C148.153 31.936 147.989 32.112 147.869 32.344C147.757 32.576 147.701 32.852 147.701 33.172V37H146.345ZM160.84 37.144C160.336 37.144 159.876 37.04 159.46 36.832C159.052 36.624 158.736 36.324 158.512 35.932L158.668 35.68V37H157.372V27.916H158.728V31.852L158.512 31.54C158.752 31.172 159.072 30.884 159.472 30.676C159.872 30.468 160.328 30.364 160.84 30.364C161.456 30.364 162.008 30.512 162.496 30.808C162.992 31.104 163.38 31.508 163.66 32.02C163.948 32.532 164.092 33.108 164.092 33.748C164.092 34.388 163.948 34.964 163.66 35.476C163.38 35.988 162.996 36.396 162.508 36.7C162.02 36.996 161.464 37.144 160.84 37.144ZM160.708 35.884C161.092 35.884 161.432 35.792 161.728 35.608C162.024 35.424 162.256 35.172 162.424 34.852C162.6 34.524 162.688 34.156 162.688 33.748C162.688 33.34 162.6 32.976 162.424 32.656C162.256 32.336 162.024 32.084 161.728 31.9C161.432 31.716 161.092 31.624 160.708 31.624C160.332 31.624 159.992 31.716 159.688 31.9C159.392 32.084 159.156 32.336 158.98 32.656C158.812 32.976 158.728 33.34 158.728 33.748C158.728 34.156 158.812 34.524 158.98 34.852C159.156 35.172 159.392 35.424 159.688 35.608C159.992 35.792 160.332 35.884 160.708 35.884ZM167.355 37.144C166.915 37.144 166.527 37.068 166.191 36.916C165.863 36.756 165.607 36.54 165.423 36.268C165.239 35.988 165.147 35.66 165.147 35.284C165.147 34.932 165.223 34.616 165.375 34.336C165.535 34.056 165.779 33.82 166.107 33.628C166.435 33.436 166.847 33.3 167.343 33.22L169.599 32.848V33.916L167.607 34.264C167.247 34.328 166.983 34.444 166.815 34.612C166.647 34.772 166.563 34.98 166.563 35.236C166.563 35.484 166.655 35.688 166.839 35.848C167.031 36 167.275 36.076 167.571 36.076C167.939 36.076 168.259 35.996 168.531 35.836C168.811 35.676 169.027 35.464 169.179 35.2C169.331 34.928 169.407 34.628 169.407 34.3V32.632C169.407 32.312 169.287 32.052 169.047 31.852C168.815 31.644 168.503 31.54 168.111 31.54C167.751 31.54 167.435 31.636 167.163 31.828C166.899 32.012 166.703 32.252 166.575 32.548L165.447 31.984C165.567 31.664 165.763 31.384 166.035 31.144C166.307 30.896 166.623 30.704 166.983 30.568C167.351 30.432 167.739 30.364 168.147 30.364C168.659 30.364 169.111 30.46 169.503 30.652C169.903 30.844 170.211 31.112 170.427 31.456C170.651 31.792 170.763 32.184 170.763 32.632V37H169.467V35.824L169.743 35.86C169.591 36.124 169.395 36.352 169.155 36.544C168.923 36.736 168.655 36.884 168.351 36.988C168.055 37.092 167.723 37.144 167.355 37.144ZM174.749 37.144C174.085 37.144 173.501 36.98 172.997 36.652C172.501 36.324 172.153 35.884 171.953 35.332L172.997 34.84C173.173 35.208 173.413 35.5 173.717 35.716C174.029 35.932 174.373 36.04 174.749 36.04C175.069 36.04 175.329 35.968 175.529 35.824C175.729 35.68 175.829 35.484 175.829 35.236C175.829 35.076 175.785 34.948 175.697 34.852C175.609 34.748 175.497 34.664 175.361 34.6C175.233 34.536 175.101 34.488 174.965 34.456L173.945 34.168C173.385 34.008 172.965 33.768 172.685 33.448C172.413 33.12 172.277 32.74 172.277 32.308C172.277 31.916 172.377 31.576 172.577 31.288C172.777 30.992 173.053 30.764 173.405 30.604C173.757 30.444 174.153 30.364 174.593 30.364C175.185 30.364 175.713 30.512 176.177 30.808C176.641 31.096 176.969 31.5 177.161 32.02L176.117 32.512C175.989 32.2 175.785 31.952 175.505 31.768C175.233 31.584 174.925 31.492 174.581 31.492C174.285 31.492 174.049 31.564 173.873 31.708C173.697 31.844 173.609 32.024 173.609 32.248C173.609 32.4 173.649 32.528 173.729 32.632C173.809 32.728 173.913 32.808 174.041 32.872C174.169 32.928 174.301 32.976 174.437 33.016L175.493 33.328C176.029 33.48 176.441 33.72 176.729 34.048C177.017 34.368 177.161 34.752 177.161 35.2C177.161 35.584 177.057 35.924 176.849 36.22C176.649 36.508 176.369 36.736 176.009 36.904C175.649 37.064 175.229 37.144 174.749 37.144ZM182.471 37L179.927 30.508H181.403L183.359 35.8H182.819L184.775 30.508H186.263L183.707 37H182.471ZM190.115 37.144C189.467 37.144 188.891 36.996 188.387 36.7C187.891 36.396 187.503 35.988 187.223 35.476C186.943 34.956 186.803 34.376 186.803 33.736C186.803 33.08 186.943 32.5 187.223 31.996C187.511 31.492 187.895 31.096 188.375 30.808C188.855 30.512 189.399 30.364 190.007 30.364C190.495 30.364 190.931 30.448 191.315 30.616C191.699 30.784 192.023 31.016 192.287 31.312C192.551 31.6 192.751 31.932 192.887 32.308C193.031 32.684 193.103 33.084 193.103 33.508C193.103 33.612 193.099 33.72 193.091 33.832C193.083 33.944 193.067 34.048 193.043 34.144H187.871V33.064H192.275L191.627 33.556C191.707 33.164 191.679 32.816 191.543 32.512C191.415 32.2 191.215 31.956 190.943 31.78C190.679 31.596 190.367 31.504 190.007 31.504C189.647 31.504 189.327 31.596 189.047 31.78C188.767 31.956 188.551 32.212 188.399 32.548C188.247 32.876 188.187 33.276 188.219 33.748C188.179 34.188 188.239 34.572 188.399 34.9C188.567 35.228 188.799 35.484 189.095 35.668C189.399 35.852 189.743 35.944 190.127 35.944C190.519 35.944 190.851 35.856 191.123 35.68C191.403 35.504 191.623 35.276 191.783 34.996L192.887 35.536C192.759 35.84 192.559 36.116 192.287 36.364C192.023 36.604 191.703 36.796 191.327 36.94C190.959 37.076 190.555 37.144 190.115 37.144ZM194.427 37V30.508H195.723V31.816L195.603 31.624C195.747 31.2 195.979 30.896 196.299 30.712C196.619 30.52 197.003 30.424 197.451 30.424H197.847V31.66H197.283C196.835 31.66 196.471 31.8 196.191 32.08C195.919 32.352 195.783 32.744 195.783 33.256V37H194.427ZM201.174 37.144C200.51 37.144 199.926 36.98 199.422 36.652C198.926 36.324 198.578 35.884 198.378 35.332L199.422 34.84C199.598 35.208 199.838 35.5 200.142 35.716C200.454 35.932 200.798 36.04 201.174 36.04C201.494 36.04 201.754 35.968 201.954 35.824C202.154 35.68 202.254 35.484 202.254 35.236C202.254 35.076 202.21 34.948 202.122 34.852C202.034 34.748 201.922 34.664 201.786 34.6C201.658 34.536 201.526 34.488 201.39 34.456L200.37 34.168C199.81 34.008 199.39 33.768 199.11 33.448C198.838 33.12 198.702 32.74 198.702 32.308C198.702 31.916 198.802 31.576 199.002 31.288C199.202 30.992 199.478 30.764 199.83 30.604C200.182 30.444 200.578 30.364 201.018 30.364C201.61 30.364 202.138 30.512 202.602 30.808C203.066 31.096 203.394 31.5 203.586 32.02L202.542 32.512C202.414 32.2 202.21 31.952 201.93 31.768C201.658 31.584 201.35 31.492 201.006 31.492C200.71 31.492 200.474 31.564 200.298 31.708C200.122 31.844 200.034 32.024 200.034 32.248C200.034 32.4 200.074 32.528 200.154 32.632C200.234 32.728 200.338 32.808 200.466 32.872C200.594 32.928 200.726 32.976 200.862 33.016L201.918 33.328C202.454 33.48 202.866 33.72 203.154 34.048C203.442 34.368 203.586 34.752 203.586 35.2C203.586 35.584 203.482 35.924 203.274 36.22C203.074 36.508 202.794 36.736 202.434 36.904C202.074 37.064 201.654 37.144 201.174 37.144ZM208.047 37.144C207.423 37.144 206.851 36.996 206.331 36.7C205.819 36.404 205.411 36 205.107 35.488C204.803 34.976 204.651 34.396 204.651 33.748C204.651 33.092 204.803 32.512 205.107 32.008C205.411 31.496 205.819 31.096 206.331 30.808C206.843 30.512 207.415 30.364 208.047 30.364C208.687 30.364 209.259 30.512 209.763 30.808C210.275 31.096 210.679 31.496 210.975 32.008C211.279 32.512 211.431 33.092 211.431 33.748C211.431 34.404 211.279 34.988 210.975 35.5C210.671 36.012 210.263 36.416 209.751 36.712C209.239 37 208.671 37.144 208.047 37.144ZM208.047 35.884C208.431 35.884 208.771 35.792 209.067 35.608C209.363 35.424 209.595 35.172 209.763 34.852C209.939 34.524 210.027 34.156 210.027 33.748C210.027 33.34 209.939 32.976 209.763 32.656C209.595 32.336 209.363 32.084 209.067 31.9C208.771 31.716 208.431 31.624 208.047 31.624C207.671 31.624 207.331 31.716 207.027 31.9C206.731 32.084 206.495 32.336 206.319 32.656C206.151 32.976 206.067 33.34 206.067 33.748C206.067 34.156 206.151 34.524 206.319 34.852C206.495 35.172 206.731 35.424 207.027 35.608C207.331 35.792 207.671 35.884 208.047 35.884ZM208.875 29.32C208.659 29.32 208.479 29.284 208.335 29.212C208.199 29.14 208.079 29.06 207.975 28.972C207.879 28.884 207.779 28.804 207.675 28.732C207.579 28.66 207.463 28.624 207.327 28.624C207.191 28.624 207.087 28.676 207.015 28.78C206.943 28.884 206.907 29.048 206.907 29.272H205.839C205.839 28.68 205.971 28.244 206.235 27.964C206.499 27.676 206.827 27.532 207.219 27.532C207.443 27.532 207.623 27.568 207.759 27.64C207.903 27.704 208.027 27.784 208.131 27.88C208.235 27.968 208.335 28.048 208.431 28.12C208.535 28.184 208.651 28.216 208.779 28.216C208.931 28.216 209.039 28.16 209.103 28.048C209.175 27.936 209.211 27.78 209.211 27.58H210.267C210.267 28.14 210.131 28.572 209.859 28.876C209.595 29.172 209.267 29.32 208.875 29.32ZM215.803 37.144C215.155 37.144 214.579 36.996 214.075 36.7C213.579 36.396 213.191 35.988 212.911 35.476C212.631 34.956 212.491 34.376 212.491 33.736C212.491 33.08 212.631 32.5 212.911 31.996C213.199 31.492 213.583 31.096 214.063 30.808C214.543 30.512 215.087 30.364 215.695 30.364C216.183 30.364 216.619 30.448 217.003 30.616C217.387 30.784 217.711 31.016 217.975 31.312C218.239 31.6 218.439 31.932 218.575 32.308C218.719 32.684 218.791 33.084 218.791 33.508C218.791 33.612 218.787 33.72 218.779 33.832C218.771 33.944 218.755 34.048 218.731 34.144H213.559V33.064H217.963L217.315 33.556C217.395 33.164 217.367 32.816 217.231 32.512C217.103 32.2 216.903 31.956 216.631 31.78C216.367 31.596 216.055 31.504 215.695 31.504C215.335 31.504 215.015 31.596 214.735 31.78C214.455 31.956 214.239 32.212 214.087 32.548C213.935 32.876 213.875 33.276 213.907 33.748C213.867 34.188 213.927 34.572 214.087 34.9C214.255 35.228 214.487 35.484 214.783 35.668C215.087 35.852 215.431 35.944 215.815 35.944C216.207 35.944 216.539 35.856 216.811 35.68C217.091 35.504 217.311 35.276 217.471 34.996L218.575 35.536C218.447 35.84 218.247 36.116 217.975 36.364C217.711 36.604 217.391 36.796 217.015 36.94C216.647 37.076 216.243 37.144 215.803 37.144ZM222.514 37.144C221.85 37.144 221.266 36.98 220.762 36.652C220.266 36.324 219.918 35.884 219.718 35.332L220.762 34.84C220.938 35.208 221.178 35.5 221.482 35.716C221.794 35.932 222.138 36.04 222.514 36.04C222.834 36.04 223.094 35.968 223.294 35.824C223.494 35.68 223.594 35.484 223.594 35.236C223.594 35.076 223.55 34.948 223.462 34.852C223.374 34.748 223.262 34.664 223.126 34.6C222.998 34.536 222.866 34.488 222.73 34.456L221.71 34.168C221.15 34.008 220.73 33.768 220.45 33.448C220.178 33.12 220.042 32.74 220.042 32.308C220.042 31.916 220.142 31.576 220.342 31.288C220.542 30.992 220.818 30.764 221.17 30.604C221.522 30.444 221.918 30.364 222.358 30.364C222.95 30.364 223.478 30.512 223.942 30.808C224.406 31.096 224.734 31.5 224.926 32.02L223.882 32.512C223.754 32.2 223.55 31.952 223.27 31.768C222.998 31.584 222.69 31.492 222.346 31.492C222.05 31.492 221.814 31.564 221.638 31.708C221.462 31.844 221.374 32.024 221.374 32.248C221.374 32.4 221.414 32.528 221.494 32.632C221.574 32.728 221.678 32.808 221.806 32.872C221.934 32.928 222.066 32.976 222.202 33.016L223.258 33.328C223.794 33.48 224.206 33.72 224.494 34.048C224.782 34.368 224.926 34.752 224.926 35.2C224.926 35.584 224.822 35.924 224.614 36.22C224.414 36.508 224.134 36.736 223.774 36.904C223.414 37.064 222.994 37.144 222.514 37.144ZM230.261 38.92C229.605 38.152 229.109 37.312 228.773 36.4C228.437 35.488 228.269 34.516 228.269 33.484C228.269 32.444 228.437 31.468 228.773 30.556C229.109 29.644 229.605 28.812 230.261 28.06H231.401C230.833 28.9 230.401 29.776 230.105 30.688C229.817 31.592 229.673 32.524 229.673 33.484C229.673 34.436 229.817 35.372 230.105 36.292C230.401 37.204 230.833 38.08 231.401 38.92H230.261ZM232.692 37V28.06H234.108V35.74H237.972V37H232.692ZM239.028 37V30.508H240.384V37H239.028ZM239.028 29.62V28.06H240.384V29.62H239.028ZM245.102 39.64C244.63 39.64 244.194 39.564 243.794 39.412C243.394 39.26 243.05 39.048 242.762 38.776C242.474 38.512 242.258 38.2 242.114 37.84L243.362 37.324C243.474 37.628 243.678 37.88 243.974 38.08C244.278 38.28 244.65 38.38 245.09 38.38C245.434 38.38 245.742 38.312 246.014 38.176C246.286 38.048 246.502 37.856 246.662 37.6C246.822 37.352 246.902 37.052 246.902 36.7V35.236L247.142 35.512C246.918 35.928 246.606 36.244 246.206 36.46C245.814 36.676 245.37 36.784 244.874 36.784C244.274 36.784 243.734 36.644 243.254 36.364C242.774 36.084 242.394 35.7 242.114 35.212C241.842 34.724 241.706 34.176 241.706 33.568C241.706 32.952 241.842 32.404 242.114 31.924C242.394 31.444 242.77 31.064 243.242 30.784C243.714 30.504 244.254 30.364 244.862 30.364C245.358 30.364 245.798 30.472 246.182 30.688C246.574 30.896 246.894 31.2 247.142 31.6L246.962 31.936V30.508H248.246V36.7C248.246 37.26 248.11 37.76 247.838 38.2C247.574 38.648 247.206 39 246.734 39.256C246.262 39.512 245.718 39.64 245.102 39.64ZM245.03 35.524C245.39 35.524 245.71 35.44 245.99 35.272C246.27 35.096 246.49 34.864 246.65 34.576C246.818 34.28 246.902 33.948 246.902 33.58C246.902 33.212 246.818 32.88 246.65 32.584C246.482 32.288 246.258 32.056 245.978 31.888C245.698 31.712 245.382 31.624 245.03 31.624C244.662 31.624 244.334 31.712 244.046 31.888C243.758 32.056 243.53 32.288 243.362 32.584C243.202 32.872 243.122 33.204 243.122 33.58C243.122 33.94 243.202 34.268 243.362 34.564C243.53 34.86 243.758 35.096 244.046 35.272C244.334 35.44 244.662 35.524 245.03 35.524ZM249.833 37V27.916H251.189V31.78L250.973 31.612C251.133 31.204 251.389 30.896 251.741 30.688C252.093 30.472 252.501 30.364 252.965 30.364C253.445 30.364 253.869 30.468 254.237 30.676C254.605 30.884 254.893 31.172 255.101 31.54C255.309 31.908 255.413 32.328 255.413 32.8V37H254.069V33.172C254.069 32.844 254.005 32.568 253.877 32.344C253.757 32.112 253.589 31.936 253.373 31.816C253.157 31.688 252.909 31.624 252.629 31.624C252.357 31.624 252.109 31.688 251.885 31.816C251.669 31.936 251.497 32.112 251.369 32.344C251.249 32.576 251.189 32.852 251.189 33.172V37H249.833ZM259.672 37.072C258.992 37.072 258.464 36.88 258.088 36.496C257.712 36.112 257.524 35.572 257.524 34.876V31.732H256.384V30.508H256.564C256.868 30.508 257.104 30.42 257.272 30.244C257.44 30.068 257.524 29.828 257.524 29.524V29.02H258.88V30.508H260.356V31.732H258.88V34.816C258.88 35.04 258.916 35.232 258.988 35.392C259.06 35.544 259.176 35.664 259.336 35.752C259.496 35.832 259.704 35.872 259.96 35.872C260.024 35.872 260.096 35.868 260.176 35.86C260.256 35.852 260.332 35.844 260.404 35.836V37C260.292 37.016 260.168 37.032 260.032 37.048C259.896 37.064 259.776 37.072 259.672 37.072ZM266.873 37.144C266.225 37.144 265.649 36.996 265.145 36.7C264.649 36.396 264.261 35.988 263.981 35.476C263.701 34.956 263.561 34.376 263.561 33.736C263.561 33.08 263.701 32.5 263.981 31.996C264.269 31.492 264.653 31.096 265.133 30.808C265.613 30.512 266.157 30.364 266.765 30.364C267.253 30.364 267.689 30.448 268.073 30.616C268.457 30.784 268.781 31.016 269.045 31.312C269.309 31.6 269.509 31.932 269.645 32.308C269.789 32.684 269.861 33.084 269.861 33.508C269.861 33.612 269.857 33.72 269.849 33.832C269.841 33.944 269.825 34.048 269.801 34.144H264.629V33.064H269.033L268.385 33.556C268.465 33.164 268.437 32.816 268.301 32.512C268.173 32.2 267.973 31.956 267.701 31.78C267.437 31.596 267.125 31.504 266.765 31.504C266.405 31.504 266.085 31.596 265.805 31.78C265.525 31.956 265.309 32.212 265.157 32.548C265.005 32.876 264.945 33.276 264.977 33.748C264.937 34.188 264.997 34.572 265.157 34.9C265.325 35.228 265.557 35.484 265.853 35.668C266.157 35.852 266.501 35.944 266.885 35.944C267.277 35.944 267.609 35.856 267.881 35.68C268.161 35.504 268.381 35.276 268.541 34.996L269.645 35.536C269.517 35.84 269.317 36.116 269.045 36.364C268.781 36.604 268.461 36.796 268.085 36.94C267.717 37.076 267.313 37.144 266.873 37.144ZM273.414 37V28.06H276.342C277.27 28.06 278.074 28.248 278.754 28.624C279.442 28.992 279.974 29.512 280.35 30.184C280.726 30.856 280.914 31.636 280.914 32.524C280.914 33.404 280.726 34.184 280.35 34.864C279.974 35.536 279.442 36.06 278.754 36.436C278.074 36.812 277.27 37 276.342 37H273.414ZM274.83 35.74H276.366C276.998 35.74 277.546 35.608 278.01 35.344C278.482 35.08 278.846 34.708 279.102 34.228C279.358 33.748 279.486 33.18 279.486 32.524C279.486 31.868 279.354 31.304 279.09 30.832C278.834 30.352 278.474 29.98 278.01 29.716C277.546 29.452 276.998 29.32 276.366 29.32H274.83V35.74ZM284.062 37.144C283.622 37.144 283.234 37.068 282.898 36.916C282.57 36.756 282.314 36.54 282.13 36.268C281.946 35.988 281.854 35.66 281.854 35.284C281.854 34.932 281.93 34.616 282.082 34.336C282.242 34.056 282.486 33.82 282.814 33.628C283.142 33.436 283.554 33.3 284.05 33.22L286.306 32.848V33.916L284.314 34.264C283.954 34.328 283.69 34.444 283.522 34.612C283.354 34.772 283.27 34.98 283.27 35.236C283.27 35.484 283.362 35.688 283.546 35.848C283.738 36 283.982 36.076 284.278 36.076C284.646 36.076 284.966 35.996 285.238 35.836C285.518 35.676 285.734 35.464 285.886 35.2C286.038 34.928 286.114 34.628 286.114 34.3V32.632C286.114 32.312 285.994 32.052 285.754 31.852C285.522 31.644 285.21 31.54 284.818 31.54C284.458 31.54 284.142 31.636 283.87 31.828C283.606 32.012 283.41 32.252 283.282 32.548L282.154 31.984C282.274 31.664 282.47 31.384 282.742 31.144C283.014 30.896 283.33 30.704 283.69 30.568C284.058 30.432 284.446 30.364 284.854 30.364C285.366 30.364 285.818 30.46 286.21 30.652C286.61 30.844 286.918 31.112 287.134 31.456C287.358 31.792 287.47 32.184 287.47 32.632V37H286.174V35.824L286.45 35.86C286.298 36.124 286.102 36.352 285.862 36.544C285.63 36.736 285.362 36.884 285.058 36.988C284.762 37.092 284.43 37.144 284.062 37.144ZM289.056 37V30.508H290.352V31.816L290.232 31.624C290.376 31.2 290.608 30.896 290.928 30.712C291.248 30.52 291.632 30.424 292.08 30.424H292.476V31.66H291.912C291.464 31.66 291.1 31.8 290.82 32.08C290.548 32.352 290.412 32.744 290.412 33.256V37H289.056ZM293.403 37V27.916H294.759V34L294.231 33.868L297.483 30.508H299.175L296.727 33.112L299.283 37H297.723L295.443 33.556L296.247 33.448L294.327 35.488L294.759 34.588V37H293.403ZM302.442 37V28.06H303.762L307.122 32.716H306.462L309.762 28.06H311.082V37H309.678V29.728L310.206 29.872L306.834 34.48H306.69L303.39 29.872L303.858 29.728V37H302.442ZM315.93 37.144C315.306 37.144 314.734 36.996 314.214 36.7C313.702 36.404 313.294 36 312.99 35.488C312.686 34.976 312.534 34.396 312.534 33.748C312.534 33.092 312.686 32.512 312.99 32.008C313.294 31.496 313.702 31.096 314.214 30.808C314.726 30.512 315.298 30.364 315.93 30.364C316.57 30.364 317.142 30.512 317.646 30.808C318.158 31.096 318.562 31.496 318.858 32.008C319.162 32.512 319.314 33.092 319.314 33.748C319.314 34.404 319.162 34.988 318.858 35.5C318.554 36.012 318.146 36.416 317.634 36.712C317.122 37 316.554 37.144 315.93 37.144ZM315.93 35.884C316.314 35.884 316.654 35.792 316.95 35.608C317.246 35.424 317.478 35.172 317.646 34.852C317.822 34.524 317.91 34.156 317.91 33.748C317.91 33.34 317.822 32.976 317.646 32.656C317.478 32.336 317.246 32.084 316.95 31.9C316.654 31.716 316.314 31.624 315.93 31.624C315.554 31.624 315.214 31.716 314.91 31.9C314.614 32.084 314.378 32.336 314.202 32.656C314.034 32.976 313.95 33.34 313.95 33.748C313.95 34.156 314.034 34.524 314.202 34.852C314.378 35.172 314.614 35.424 314.91 35.608C315.214 35.792 315.554 35.884 315.93 35.884ZM323.638 37.144C323.014 37.144 322.454 36.996 321.958 36.7C321.47 36.396 321.082 35.988 320.794 35.476C320.514 34.964 320.374 34.388 320.374 33.748C320.374 33.108 320.518 32.532 320.806 32.02C321.094 31.508 321.482 31.104 321.97 30.808C322.458 30.512 323.01 30.364 323.626 30.364C324.146 30.364 324.606 30.468 325.006 30.676C325.406 30.884 325.722 31.172 325.954 31.54L325.75 31.852V27.916H327.094V37H325.81V35.68L325.966 35.932C325.742 36.324 325.422 36.624 325.006 36.832C324.59 37.04 324.134 37.144 323.638 37.144ZM323.77 35.884C324.146 35.884 324.482 35.792 324.778 35.608C325.082 35.424 325.318 35.172 325.486 34.852C325.662 34.524 325.75 34.156 325.75 33.748C325.75 33.34 325.662 32.976 325.486 32.656C325.318 32.336 325.082 32.084 324.778 31.9C324.482 31.716 324.146 31.624 323.77 31.624C323.394 31.624 323.054 31.716 322.75 31.9C322.446 32.084 322.21 32.336 322.042 32.656C321.874 32.976 321.79 33.34 321.79 33.748C321.79 34.156 321.874 34.524 322.042 34.852C322.21 35.172 322.442 35.424 322.738 35.608C323.042 35.792 323.386 35.884 323.77 35.884ZM331.725 37.144C331.077 37.144 330.501 36.996 329.997 36.7C329.501 36.396 329.113 35.988 328.833 35.476C328.553 34.956 328.413 34.376 328.413 33.736C328.413 33.08 328.553 32.5 328.833 31.996C329.121 31.492 329.505 31.096 329.985 30.808C330.465 30.512 331.009 30.364 331.617 30.364C332.105 30.364 332.541 30.448 332.925 30.616C333.309 30.784 333.633 31.016 333.897 31.312C334.161 31.6 334.361 31.932 334.497 32.308C334.641 32.684 334.713 33.084 334.713 33.508C334.713 33.612 334.709 33.72 334.701 33.832C334.693 33.944 334.677 34.048 334.653 34.144H329.481V33.064H333.885L333.237 33.556C333.317 33.164 333.289 32.816 333.153 32.512C333.025 32.2 332.825 31.956 332.553 31.78C332.289 31.596 331.977 31.504 331.617 31.504C331.257 31.504 330.937 31.596 330.657 31.78C330.377 31.956 330.161 32.212 330.009 32.548C329.857 32.876 329.797 33.276 329.829 33.748C329.789 34.188 329.849 34.572 330.009 34.9C330.177 35.228 330.409 35.484 330.705 35.668C331.009 35.852 331.353 35.944 331.737 35.944C332.129 35.944 332.461 35.856 332.733 35.68C333.013 35.504 333.233 35.276 333.393 34.996L334.497 35.536C334.369 35.84 334.169 36.116 333.897 36.364C333.633 36.604 333.313 36.796 332.937 36.94C332.569 37.076 332.165 37.144 331.725 37.144ZM335.616 38.92C336.192 38.08 336.624 37.204 336.912 36.292C337.2 35.372 337.344 34.436 337.344 33.484C337.344 32.524 337.2 31.592 336.912 30.688C336.624 29.776 336.192 28.9 335.616 28.06H336.756C337.42 28.812 337.92 29.644 338.256 30.556C338.592 31.468 338.76 32.444 338.76 33.484C338.76 34.516 338.592 35.488 338.256 36.4C337.92 37.312 337.42 38.152 336.756 38.92H335.616ZM345.425 37.144C344.777 37.144 344.201 36.996 343.697 36.7C343.201 36.396 342.805 35.988 342.509 35.476C342.221 34.964 342.077 34.384 342.077 33.736C342.077 33.096 342.221 32.52 342.509 32.008C342.797 31.496 343.193 31.096 343.697 30.808C344.201 30.512 344.777 30.364 345.425 30.364C345.865 30.364 346.277 30.444 346.661 30.604C347.045 30.756 347.377 30.968 347.657 31.24C347.945 31.512 348.157 31.828 348.293 32.188L347.105 32.74C346.969 32.404 346.749 32.136 346.445 31.936C346.149 31.728 345.809 31.624 345.425 31.624C345.057 31.624 344.725 31.716 344.429 31.9C344.141 32.076 343.913 32.328 343.745 32.656C343.577 32.976 343.493 33.34 343.493 33.748C343.493 34.156 343.577 34.524 343.745 34.852C343.913 35.172 344.141 35.424 344.429 35.608C344.725 35.792 345.057 35.884 345.425 35.884C345.817 35.884 346.157 35.784 346.445 35.584C346.741 35.376 346.961 35.1 347.105 34.756L348.293 35.32C348.165 35.664 347.957 35.976 347.669 36.256C347.389 36.528 347.057 36.744 346.673 36.904C346.289 37.064 345.873 37.144 345.425 37.144ZM352.75 37.144C352.126 37.144 351.554 36.996 351.034 36.7C350.522 36.404 350.114 36 349.81 35.488C349.506 34.976 349.354 34.396 349.354 33.748C349.354 33.092 349.506 32.512 349.81 32.008C350.114 31.496 350.522 31.096 351.034 30.808C351.546 30.512 352.118 30.364 352.75 30.364C353.39 30.364 353.962 30.512 354.466 30.808C354.978 31.096 355.382 31.496 355.678 32.008C355.982 32.512 356.134 33.092 356.134 33.748C356.134 34.404 355.982 34.988 355.678 35.5C355.374 36.012 354.966 36.416 354.454 36.712C353.942 37 353.374 37.144 352.75 37.144ZM352.75 35.884C353.134 35.884 353.474 35.792 353.77 35.608C354.066 35.424 354.298 35.172 354.466 34.852C354.642 34.524 354.73 34.156 354.73 33.748C354.73 33.34 354.642 32.976 354.466 32.656C354.298 32.336 354.066 32.084 353.77 31.9C353.474 31.716 353.134 31.624 352.75 31.624C352.374 31.624 352.034 31.716 351.73 31.9C351.434 32.084 351.198 32.336 351.022 32.656C350.854 32.976 350.77 33.34 350.77 33.748C350.77 34.156 350.854 34.524 351.022 34.852C351.198 35.172 351.434 35.424 351.73 35.608C352.034 35.792 352.374 35.884 352.75 35.884ZM357.458 37V30.508H358.754V31.912L358.586 31.696C358.722 31.256 358.97 30.924 359.33 30.7C359.69 30.476 360.102 30.364 360.566 30.364C361.086 30.364 361.546 30.504 361.946 30.784C362.354 31.056 362.626 31.42 362.762 31.876L362.378 31.912C362.57 31.392 362.862 31.004 363.254 30.748C363.654 30.492 364.11 30.364 364.622 30.364C365.07 30.364 365.474 30.468 365.834 30.676C366.202 30.884 366.494 31.172 366.71 31.54C366.926 31.908 367.034 32.328 367.034 32.8V37H365.678V33.172C365.678 32.844 365.618 32.568 365.498 32.344C365.386 32.112 365.226 31.936 365.018 31.816C364.818 31.688 364.582 31.624 364.31 31.624C364.038 31.624 363.798 31.688 363.59 31.816C363.382 31.936 363.218 32.112 363.098 32.344C362.978 32.576 362.918 32.852 362.918 33.172V37H361.574V33.172C361.574 32.844 361.514 32.568 361.394 32.344C361.282 32.112 361.122 31.936 360.914 31.816C360.714 31.688 360.474 31.624 360.194 31.624C359.922 31.624 359.682 31.688 359.474 31.816C359.266 31.936 359.102 32.112 358.982 32.344C358.87 32.576 358.814 32.852 358.814 33.172V37H357.458ZM373.667 37.144C373.019 37.144 372.443 36.996 371.939 36.7C371.443 36.396 371.047 35.988 370.751 35.476C370.463 34.964 370.319 34.384 370.319 33.736C370.319 33.096 370.463 32.52 370.751 32.008C371.039 31.496 371.435 31.096 371.939 30.808C372.443 30.512 373.019 30.364 373.667 30.364C374.107 30.364 374.519 30.444 374.903 30.604C375.287 30.756 375.619 30.968 375.899 31.24C376.187 31.512 376.399 31.828 376.535 32.188L375.347 32.74C375.211 32.404 374.991 32.136 374.687 31.936C374.391 31.728 374.051 31.624 373.667 31.624C373.299 31.624 372.967 31.716 372.671 31.9C372.383 32.076 372.155 32.328 371.987 32.656C371.819 32.976 371.735 33.34 371.735 33.748C371.735 34.156 371.819 34.524 371.987 34.852C372.155 35.172 372.383 35.424 372.671 35.608C372.967 35.792 373.299 35.884 373.667 35.884C374.059 35.884 374.399 35.784 374.687 35.584C374.983 35.376 375.203 35.1 375.347 34.756L376.535 35.32C376.407 35.664 376.199 35.976 375.911 36.256C375.631 36.528 375.299 36.744 374.915 36.904C374.531 37.064 374.115 37.144 373.667 37.144ZM380.992 37.144C380.368 37.144 379.796 36.996 379.276 36.7C378.764 36.404 378.356 36 378.052 35.488C377.748 34.976 377.596 34.396 377.596 33.748C377.596 33.092 377.748 32.512 378.052 32.008C378.356 31.496 378.764 31.096 379.276 30.808C379.788 30.512 380.36 30.364 380.992 30.364C381.632 30.364 382.204 30.512 382.708 30.808C383.22 31.096 383.624 31.496 383.92 32.008C384.224 32.512 384.376 33.092 384.376 33.748C384.376 34.404 384.224 34.988 383.92 35.5C383.616 36.012 383.208 36.416 382.696 36.712C382.184 37 381.616 37.144 380.992 37.144ZM380.992 35.884C381.376 35.884 381.716 35.792 382.012 35.608C382.308 35.424 382.54 35.172 382.708 34.852C382.884 34.524 382.972 34.156 382.972 33.748C382.972 33.34 382.884 32.976 382.708 32.656C382.54 32.336 382.308 32.084 382.012 31.9C381.716 31.716 381.376 31.624 380.992 31.624C380.616 31.624 380.276 31.716 379.972 31.9C379.676 32.084 379.44 32.336 379.264 32.656C379.096 32.976 379.012 33.34 379.012 33.748C379.012 34.156 379.096 34.524 379.264 34.852C379.44 35.172 379.676 35.424 379.972 35.608C380.276 35.792 380.616 35.884 380.992 35.884ZM385.7 37V30.508H386.996V31.78L386.84 31.612C387 31.204 387.256 30.896 387.608 30.688C387.96 30.472 388.368 30.364 388.832 30.364C389.312 30.364 389.736 30.468 390.104 30.676C390.472 30.884 390.76 31.172 390.968 31.54C391.176 31.908 391.28 32.332 391.28 32.812V37H389.936V33.172C389.936 32.844 389.876 32.568 389.756 32.344C389.636 32.112 389.464 31.936 389.24 31.816C389.024 31.688 388.776 31.624 388.496 31.624C388.216 31.624 387.964 31.688 387.74 31.816C387.524 31.936 387.356 32.112 387.236 32.344C387.116 32.576 387.056 32.852 387.056 33.172V37H385.7ZM395.131 37.144C394.467 37.144 393.883 36.98 393.379 36.652C392.883 36.324 392.535 35.884 392.335 35.332L393.379 34.84C393.555 35.208 393.795 35.5 394.099 35.716C394.411 35.932 394.755 36.04 395.131 36.04C395.451 36.04 395.711 35.968 395.911 35.824C396.111 35.68 396.211 35.484 396.211 35.236C396.211 35.076 396.167 34.948 396.079 34.852C395.991 34.748 395.879 34.664 395.743 34.6C395.615 34.536 395.483 34.488 395.347 34.456L394.327 34.168C393.767 34.008 393.347 33.768 393.067 33.448C392.795 33.12 392.659 32.74 392.659 32.308C392.659 31.916 392.759 31.576 392.959 31.288C393.159 30.992 393.435 30.764 393.787 30.604C394.139 30.444 394.535 30.364 394.975 30.364C395.567 30.364 396.095 30.512 396.559 30.808C397.023 31.096 397.351 31.5 397.543 32.02L396.499 32.512C396.371 32.2 396.167 31.952 395.887 31.768C395.615 31.584 395.307 31.492 394.963 31.492C394.667 31.492 394.431 31.564 394.255 31.708C394.079 31.844 393.991 32.024 393.991 32.248C393.991 32.4 394.031 32.528 394.111 32.632C394.191 32.728 394.295 32.808 394.423 32.872C394.551 32.928 394.683 32.976 394.819 33.016L395.875 33.328C396.411 33.48 396.823 33.72 397.111 34.048C397.399 34.368 397.543 34.752 397.543 35.2C397.543 35.584 397.439 35.924 397.231 36.22C397.031 36.508 396.751 36.736 396.391 36.904C396.031 37.064 395.611 37.144 395.131 37.144ZM401.68 37.072C401 37.072 400.472 36.88 400.096 36.496C399.72 36.112 399.532 35.572 399.532 34.876V31.732H398.392V30.508H398.572C398.876 30.508 399.112 30.42 399.28 30.244C399.448 30.068 399.532 29.828 399.532 29.524V29.02H400.888V30.508H402.364V31.732H400.888V34.816C400.888 35.04 400.924 35.232 400.996 35.392C401.068 35.544 401.184 35.664 401.344 35.752C401.504 35.832 401.712 35.872 401.968 35.872C402.032 35.872 402.104 35.868 402.184 35.86C402.264 35.852 402.34 35.844 402.412 35.836V37C402.3 37.016 402.176 37.032 402.04 37.048C401.904 37.064 401.784 37.072 401.68 37.072ZM403.735 37V30.508H405.031V31.816L404.911 31.624C405.055 31.2 405.287 30.896 405.607 30.712C405.927 30.52 406.311 30.424 406.759 30.424H407.155V31.66H406.591C406.143 31.66 405.779 31.8 405.499 32.08C405.227 32.352 405.091 32.744 405.091 33.256V37H403.735ZM410.027 37.144C409.587 37.144 409.199 37.068 408.863 36.916C408.535 36.756 408.279 36.54 408.095 36.268C407.911 35.988 407.819 35.66 407.819 35.284C407.819 34.932 407.895 34.616 408.047 34.336C408.207 34.056 408.451 33.82 408.779 33.628C409.107 33.436 409.519 33.3 410.015 33.22L412.271 32.848V33.916L410.279 34.264C409.919 34.328 409.655 34.444 409.487 34.612C409.319 34.772 409.235 34.98 409.235 35.236C409.235 35.484 409.327 35.688 409.511 35.848C409.703 36 409.947 36.076 410.243 36.076C410.611 36.076 410.931 35.996 411.203 35.836C411.483 35.676 411.699 35.464 411.851 35.2C412.003 34.928 412.079 34.628 412.079 34.3V32.632C412.079 32.312 411.959 32.052 411.719 31.852C411.487 31.644 411.175 31.54 410.783 31.54C410.423 31.54 410.107 31.636 409.835 31.828C409.571 32.012 409.375 32.252 409.247 32.548L408.119 31.984C408.239 31.664 408.435 31.384 408.707 31.144C408.979 30.896 409.295 30.704 409.655 30.568C410.023 30.432 410.411 30.364 410.819 30.364C411.331 30.364 411.783 30.46 412.175 30.652C412.575 30.844 412.883 31.112 413.099 31.456C413.323 31.792 413.435 32.184 413.435 32.632V37H412.139V35.824L412.415 35.86C412.263 36.124 412.067 36.352 411.827 36.544C411.595 36.736 411.327 36.884 411.023 36.988C410.727 37.092 410.395 37.144 410.027 37.144ZM417.421 37.144C416.757 37.144 416.173 36.98 415.669 36.652C415.173 36.324 414.825 35.884 414.625 35.332L415.669 34.84C415.845 35.208 416.085 35.5 416.389 35.716C416.701 35.932 417.045 36.04 417.421 36.04C417.741 36.04 418.001 35.968 418.201 35.824C418.401 35.68 418.501 35.484 418.501 35.236C418.501 35.076 418.457 34.948 418.369 34.852C418.281 34.748 418.169 34.664 418.033 34.6C417.905 34.536 417.773 34.488 417.637 34.456L416.617 34.168C416.057 34.008 415.637 33.768 415.357 33.448C415.085 33.12 414.949 32.74 414.949 32.308C414.949 31.916 415.049 31.576 415.249 31.288C415.449 30.992 415.725 30.764 416.077 30.604C416.429 30.444 416.825 30.364 417.265 30.364C417.857 30.364 418.385 30.512 418.849 30.808C419.313 31.096 419.641 31.5 419.833 32.02L418.789 32.512C418.661 32.2 418.457 31.952 418.177 31.768C417.905 31.584 417.597 31.492 417.253 31.492C416.957 31.492 416.721 31.564 416.545 31.708C416.369 31.844 416.281 32.024 416.281 32.248C416.281 32.4 416.321 32.528 416.401 32.632C416.481 32.728 416.585 32.808 416.713 32.872C416.841 32.928 416.973 32.976 417.109 33.016L418.165 33.328C418.701 33.48 419.113 33.72 419.401 34.048C419.689 34.368 419.833 34.752 419.833 35.2C419.833 35.584 419.729 35.924 419.521 36.22C419.321 36.508 419.041 36.736 418.681 36.904C418.321 37.064 417.901 37.144 417.421 37.144ZM423.969 37.072C423.289 37.072 422.761 36.88 422.385 36.496C422.009 36.112 421.821 35.572 421.821 34.876V31.732H420.681V30.508H420.861C421.165 30.508 421.401 30.42 421.569 30.244C421.737 30.068 421.821 29.828 421.821 29.524V29.02H423.177V30.508H424.653V31.732H423.177V34.816C423.177 35.04 423.213 35.232 423.285 35.392C423.357 35.544 423.473 35.664 423.633 35.752C423.793 35.832 424.001 35.872 424.257 35.872C424.321 35.872 424.393 35.868 424.473 35.86C424.553 35.852 424.629 35.844 424.701 35.836V37C424.589 37.016 424.465 37.032 424.329 37.048C424.193 37.064 424.073 37.072 423.969 37.072ZM428.955 37.144C428.307 37.144 427.731 36.996 427.227 36.7C426.731 36.396 426.343 35.988 426.063 35.476C425.783 34.956 425.643 34.376 425.643 33.736C425.643 33.08 425.783 32.5 426.063 31.996C426.351 31.492 426.735 31.096 427.215 30.808C427.695 30.512 428.239 30.364 428.847 30.364C429.335 30.364 429.771 30.448 430.155 30.616C430.539 30.784 430.863 31.016 431.127 31.312C431.391 31.6 431.591 31.932 431.727 32.308C431.871 32.684 431.943 33.084 431.943 33.508C431.943 33.612 431.939 33.72 431.931 33.832C431.923 33.944 431.907 34.048 431.883 34.144H426.711V33.064H431.115L430.467 33.556C430.547 33.164 430.519 32.816 430.383 32.512C430.255 32.2 430.055 31.956 429.783 31.78C429.519 31.596 429.207 31.504 428.847 31.504C428.487 31.504 428.167 31.596 427.887 31.78C427.607 31.956 427.391 32.212 427.239 32.548C427.087 32.876 427.027 33.276 427.059 33.748C427.019 34.188 427.079 34.572 427.239 34.9C427.407 35.228 427.639 35.484 427.935 35.668C428.239 35.852 428.583 35.944 428.967 35.944C429.359 35.944 429.691 35.856 429.963 35.68C430.243 35.504 430.463 35.276 430.623 34.996L431.727 35.536C431.599 35.84 431.399 36.116 431.127 36.364C430.863 36.604 430.543 36.796 430.167 36.94C429.799 37.076 429.395 37.144 428.955 37.144ZM438.448 37.144C437.8 37.144 437.224 36.996 436.72 36.7C436.224 36.396 435.828 35.988 435.532 35.476C435.244 34.964 435.1 34.384 435.1 33.736C435.1 33.096 435.244 32.52 435.532 32.008C435.82 31.496 436.216 31.096 436.72 30.808C437.224 30.512 437.8 30.364 438.448 30.364C438.888 30.364 439.3 30.444 439.684 30.604C440.068 30.756 440.4 30.968 440.68 31.24C440.968 31.512 441.18 31.828 441.316 32.188L440.128 32.74C439.992 32.404 439.772 32.136 439.468 31.936C439.172 31.728 438.832 31.624 438.448 31.624C438.08 31.624 437.748 31.716 437.452 31.9C437.164 32.076 436.936 32.328 436.768 32.656C436.6 32.976 436.516 33.34 436.516 33.748C436.516 34.156 436.6 34.524 436.768 34.852C436.936 35.172 437.164 35.424 437.452 35.608C437.748 35.792 438.08 35.884 438.448 35.884C438.84 35.884 439.18 35.784 439.468 35.584C439.764 35.376 439.984 35.1 440.128 34.756L441.316 35.32C441.188 35.664 440.98 35.976 440.692 36.256C440.412 36.528 440.08 36.744 439.696 36.904C439.312 37.064 438.896 37.144 438.448 37.144ZM442.642 37V30.508H443.998V37H442.642ZM442.642 29.62V28.06H443.998V29.62H442.642ZM445.583 37V30.508H446.879V31.912L446.711 31.696C446.847 31.256 447.095 30.924 447.455 30.7C447.815 30.476 448.227 30.364 448.691 30.364C449.211 30.364 449.671 30.504 450.071 30.784C450.479 31.056 450.751 31.42 450.887 31.876L450.503 31.912C450.695 31.392 450.987 31.004 451.379 30.748C451.779 30.492 452.235 30.364 452.747 30.364C453.195 30.364 453.599 30.468 453.959 30.676C454.327 30.884 454.619 31.172 454.835 31.54C455.051 31.908 455.159 32.328 455.159 32.8V37H453.803V33.172C453.803 32.844 453.743 32.568 453.623 32.344C453.511 32.112 453.351 31.936 453.143 31.816C452.943 31.688 452.707 31.624 452.435 31.624C452.163 31.624 451.923 31.688 451.715 31.816C451.507 31.936 451.343 32.112 451.223 32.344C451.103 32.576 451.043 32.852 451.043 33.172V37H449.699V33.172C449.699 32.844 449.639 32.568 449.519 32.344C449.407 32.112 449.247 31.936 449.039 31.816C448.839 31.688 448.599 31.624 448.319 31.624C448.047 31.624 447.807 31.688 447.599 31.816C447.391 31.936 447.227 32.112 447.107 32.344C446.995 32.576 446.939 32.852 446.939 33.172V37H445.583ZM458.554 37.144C458.114 37.144 457.726 37.068 457.39 36.916C457.062 36.756 456.806 36.54 456.622 36.268C456.438 35.988 456.346 35.66 456.346 35.284C456.346 34.932 456.422 34.616 456.574 34.336C456.734 34.056 456.978 33.82 457.306 33.628C457.634 33.436 458.046 33.3 458.542 33.22L460.798 32.848V33.916L458.806 34.264C458.446 34.328 458.182 34.444 458.014 34.612C457.846 34.772 457.762 34.98 457.762 35.236C457.762 35.484 457.854 35.688 458.038 35.848C458.23 36 458.474 36.076 458.77 36.076C459.138 36.076 459.458 35.996 459.73 35.836C460.01 35.676 460.226 35.464 460.378 35.2C460.53 34.928 460.606 34.628 460.606 34.3V32.632C460.606 32.312 460.486 32.052 460.246 31.852C460.014 31.644 459.702 31.54 459.31 31.54C458.95 31.54 458.634 31.636 458.362 31.828C458.098 32.012 457.902 32.252 457.774 32.548L456.646 31.984C456.766 31.664 456.962 31.384 457.234 31.144C457.506 30.896 457.822 30.704 458.182 30.568C458.55 30.432 458.938 30.364 459.346 30.364C459.858 30.364 460.31 30.46 460.702 30.652C461.102 30.844 461.41 31.112 461.626 31.456C461.85 31.792 461.962 32.184 461.962 32.632V37H460.666V35.824L460.942 35.86C460.79 36.124 460.594 36.352 460.354 36.544C460.122 36.736 459.854 36.884 459.55 36.988C459.254 37.092 458.922 37.144 458.554 37.144ZM280.812 53.144C280.188 53.144 279.628 52.996 279.132 52.7C278.644 52.396 278.256 51.988 277.968 51.476C277.688 50.964 277.548 50.388 277.548 49.748C277.548 49.108 277.692 48.532 277.98 48.02C278.268 47.508 278.656 47.104 279.144 46.808C279.632 46.512 280.184 46.364 280.8 46.364C281.32 46.364 281.78 46.468 282.18 46.676C282.58 46.884 282.896 47.172 283.128 47.54L282.924 47.852V43.916H284.268V53H282.984V51.68L283.14 51.932C282.916 52.324 282.596 52.624 282.18 52.832C281.764 53.04 281.308 53.144 280.812 53.144ZM280.944 51.884C281.32 51.884 281.656 51.792 281.952 51.608C282.256 51.424 282.492 51.172 282.66 50.852C282.836 50.524 282.924 50.156 282.924 49.748C282.924 49.34 282.836 48.976 282.66 48.656C282.492 48.336 282.256 48.084 281.952 47.9C281.656 47.716 281.32 47.624 280.944 47.624C280.568 47.624 280.228 47.716 279.924 47.9C279.62 48.084 279.384 48.336 279.216 48.656C279.048 48.976 278.964 49.34 278.964 49.748C278.964 50.156 279.048 50.524 279.216 50.852C279.384 51.172 279.616 51.424 279.912 51.608C280.216 51.792 280.56 51.884 280.944 51.884ZM288.899 53.144C288.251 53.144 287.675 52.996 287.171 52.7C286.675 52.396 286.287 51.988 286.007 51.476C285.727 50.956 285.587 50.376 285.587 49.736C285.587 49.08 285.727 48.5 286.007 47.996C286.295 47.492 286.679 47.096 287.159 46.808C287.639 46.512 288.183 46.364 288.791 46.364C289.279 46.364 289.715 46.448 290.099 46.616C290.483 46.784 290.807 47.016 291.071 47.312C291.335 47.6 291.535 47.932 291.671 48.308C291.815 48.684 291.887 49.084 291.887 49.508C291.887 49.612 291.883 49.72 291.875 49.832C291.867 49.944 291.851 50.048 291.827 50.144H286.655V49.064H291.059L290.411 49.556C290.491 49.164 290.463 48.816 290.327 48.512C290.199 48.2 289.999 47.956 289.727 47.78C289.463 47.596 289.151 47.504 288.791 47.504C288.431 47.504 288.111 47.596 287.831 47.78C287.551 47.956 287.335 48.212 287.183 48.548C287.031 48.876 286.971 49.276 287.003 49.748C286.963 50.188 287.023 50.572 287.183 50.9C287.351 51.228 287.583 51.484 287.879 51.668C288.183 51.852 288.527 51.944 288.911 51.944C289.303 51.944 289.635 51.856 289.907 51.68C290.187 51.504 290.407 51.276 290.567 50.996L291.671 51.536C291.543 51.84 291.343 52.116 291.071 52.364C290.807 52.604 290.487 52.796 290.111 52.94C289.743 53.076 289.339 53.144 288.899 53.144ZM296.628 53V45.26H294.912V44.06H298.032V53H296.628ZM301.327 53V45.26H299.611V44.06H302.731V53H301.327ZM305.306 53V51.44H306.686V53H305.306ZM305.306 48.068V46.508H306.686V48.068H305.306ZM311.854 53.144C311.23 53.144 310.682 53.024 310.21 52.784C309.746 52.536 309.386 52.208 309.13 51.8C308.874 51.384 308.746 50.924 308.746 50.42C308.746 49.844 308.902 49.348 309.214 48.932C309.534 48.508 309.982 48.2 310.558 48.008L310.498 48.368C310.074 48.208 309.738 47.94 309.49 47.564C309.25 47.18 309.13 46.76 309.13 46.304C309.13 45.848 309.246 45.44 309.478 45.08C309.718 44.72 310.042 44.436 310.45 44.228C310.866 44.02 311.334 43.916 311.854 43.916C312.382 43.916 312.85 44.02 313.258 44.228C313.666 44.428 313.986 44.708 314.218 45.068C314.458 45.428 314.578 45.84 314.578 46.304C314.578 46.776 314.454 47.2 314.206 47.576C313.966 47.944 313.638 48.208 313.222 48.368L313.162 48.008C313.738 48.208 314.186 48.516 314.506 48.932C314.826 49.348 314.986 49.844 314.986 50.42C314.986 50.924 314.854 51.384 314.59 51.8C314.334 52.208 313.97 52.536 313.498 52.784C313.026 53.024 312.478 53.144 311.854 53.144ZM311.854 51.944C312.198 51.944 312.498 51.88 312.754 51.752C313.01 51.616 313.21 51.432 313.354 51.2C313.498 50.968 313.57 50.696 313.57 50.384C313.57 50.072 313.498 49.8 313.354 49.568C313.21 49.336 313.01 49.156 312.754 49.028C312.498 48.9 312.198 48.836 311.854 48.836C311.518 48.836 311.222 48.9 310.966 49.028C310.71 49.156 310.51 49.336 310.366 49.568C310.222 49.8 310.15 50.072 310.15 50.384C310.15 50.696 310.222 50.968 310.366 51.2C310.51 51.432 310.71 51.616 310.966 51.752C311.222 51.88 311.518 51.944 311.854 51.944ZM311.854 47.636C312.11 47.636 312.334 47.584 312.526 47.48C312.726 47.368 312.882 47.216 312.994 47.024C313.106 46.832 313.162 46.616 313.162 46.376C313.162 46.128 313.106 45.912 312.994 45.728C312.882 45.536 312.726 45.388 312.526 45.284C312.334 45.172 312.11 45.116 311.854 45.116C311.606 45.116 311.382 45.172 311.182 45.284C310.982 45.388 310.826 45.536 310.714 45.728C310.602 45.912 310.546 46.128 310.546 46.376C310.546 46.616 310.602 46.832 310.714 47.024C310.826 47.216 310.982 47.368 311.182 47.48C311.382 47.584 311.606 47.636 311.854 47.636ZM319.161 53.144C318.681 53.144 318.229 53.056 317.805 52.88C317.389 52.704 317.029 52.456 316.725 52.136C316.429 51.816 316.217 51.44 316.089 51.008L317.289 50.552C317.449 50.976 317.693 51.304 318.021 51.536C318.349 51.768 318.729 51.884 319.161 51.884C319.513 51.884 319.817 51.816 320.073 51.68C320.337 51.544 320.541 51.352 320.685 51.104C320.837 50.856 320.913 50.556 320.913 50.204C320.913 49.86 320.837 49.564 320.685 49.316C320.541 49.068 320.337 48.88 320.073 48.752C319.817 48.624 319.513 48.56 319.161 48.56C319.017 48.56 318.869 48.572 318.717 48.596C318.573 48.62 318.445 48.652 318.333 48.692L318.021 48.032L320.373 45.26H316.569V44.06H321.957V45.2L319.653 47.96L319.617 47.504C320.153 47.512 320.625 47.632 321.033 47.864C321.441 48.088 321.757 48.4 321.981 48.8C322.213 49.192 322.329 49.648 322.329 50.168C322.329 50.728 322.193 51.236 321.921 51.692C321.649 52.14 321.273 52.496 320.793 52.76C320.321 53.016 319.777 53.144 319.161 53.144Z" fill="black"/>
<rect x="136.5" y="72.5" width="115" height="263" rx="4.5" stroke="#9747FF" stroke-dasharray="10 5"/>
<path d="M160 296C160 291.582 163.582 288 168 288H220C224.418 288 228 291.582 228 296V304C228 308.418 224.418 312 220 312H168C163.582 312 160 308.418 160 304V296Z" fill="#DBECEA"/>
<path d="M181 294H171C170.735 294 170.48 294.105 170.293 294.293C170.105 294.48 170 294.735 170 295V305C170 305.265 170.105 305.52 170.293 305.707C170.48 305.895 170.735 306 171 306H181C181.265 306 181.52 305.895 181.707 305.707C181.895 305.52 182 305.265 182 305V295C182 294.735 181.895 294.48 181.707 294.293C181.52 294.105 181.265 294 181 294ZM171 305V295.707L180.293 305H171ZM171.707 295H181V304.294L171.707 295Z" fill="#171816"/>
<path d="M188.924 305V296.06H190.34V303.74H194.204V305H188.924ZM197.205 305.144C196.765 305.144 196.377 305.068 196.041 304.916C195.713 304.756 195.457 304.54 195.273 304.268C195.089 303.988 194.997 303.66 194.997 303.284C194.997 302.932 195.073 302.616 195.225 302.336C195.385 302.056 195.629 301.82 195.957 301.628C196.285 301.436 196.697 301.3 197.193 301.22L199.449 300.848V301.916L197.457 302.264C197.097 302.328 196.833 302.444 196.665 302.612C196.497 302.772 196.413 302.98 196.413 303.236C196.413 303.484 196.505 303.688 196.689 303.848C196.881 304 197.125 304.076 197.421 304.076C197.789 304.076 198.109 303.996 198.381 303.836C198.661 303.676 198.877 303.464 199.029 303.2C199.181 302.928 199.257 302.628 199.257 302.3V300.632C199.257 300.312 199.137 300.052 198.897 299.852C198.665 299.644 198.353 299.54 197.961 299.54C197.601 299.54 197.285 299.636 197.013 299.828C196.749 300.012 196.553 300.252 196.425 300.548L195.297 299.984C195.417 299.664 195.613 299.384 195.885 299.144C196.157 298.896 196.473 298.704 196.833 298.568C197.201 298.432 197.589 298.364 197.997 298.364C198.509 298.364 198.961 298.46 199.353 298.652C199.753 298.844 200.061 299.112 200.277 299.456C200.501 299.792 200.613 300.184 200.613 300.632V305H199.317V303.824L199.593 303.86C199.441 304.124 199.245 304.352 199.005 304.544C198.773 304.736 198.505 304.884 198.201 304.988C197.905 305.092 197.573 305.144 197.205 305.144ZM205.666 305.144C205.162 305.144 204.702 305.04 204.286 304.832C203.878 304.624 203.562 304.324 203.338 303.932L203.494 303.68V305H202.198V295.916H203.554V299.852L203.338 299.54C203.578 299.172 203.898 298.884 204.298 298.676C204.698 298.468 205.154 298.364 205.666 298.364C206.282 298.364 206.834 298.512 207.322 298.808C207.818 299.104 208.206 299.508 208.486 300.02C208.774 300.532 208.918 301.108 208.918 301.748C208.918 302.388 208.774 302.964 208.486 303.476C208.206 303.988 207.822 304.396 207.334 304.7C206.846 304.996 206.29 305.144 205.666 305.144ZM205.534 303.884C205.918 303.884 206.258 303.792 206.554 303.608C206.85 303.424 207.082 303.172 207.25 302.852C207.426 302.524 207.514 302.156 207.514 301.748C207.514 301.34 207.426 300.976 207.25 300.656C207.082 300.336 206.85 300.084 206.554 299.9C206.258 299.716 205.918 299.624 205.534 299.624C205.158 299.624 204.818 299.716 204.514 299.9C204.218 300.084 203.982 300.336 203.806 300.656C203.638 300.976 203.554 301.34 203.554 301.748C203.554 302.156 203.638 302.524 203.806 302.852C203.982 303.172 204.218 303.424 204.514 303.608C204.818 303.792 205.158 303.884 205.534 303.884ZM213.285 305.144C212.637 305.144 212.061 304.996 211.557 304.7C211.061 304.396 210.673 303.988 210.393 303.476C210.113 302.956 209.973 302.376 209.973 301.736C209.973 301.08 210.113 300.5 210.393 299.996C210.681 299.492 211.065 299.096 211.545 298.808C212.025 298.512 212.569 298.364 213.177 298.364C213.665 298.364 214.101 298.448 214.485 298.616C214.869 298.784 215.193 299.016 215.457 299.312C215.721 299.6 215.921 299.932 216.057 300.308C216.201 300.684 216.273 301.084 216.273 301.508C216.273 301.612 216.269 301.72 216.261 301.832C216.253 301.944 216.237 302.048 216.213 302.144H211.041V301.064H215.445L214.797 301.556C214.877 301.164 214.849 300.816 214.713 300.512C214.585 300.2 214.385 299.956 214.113 299.78C213.849 299.596 213.537 299.504 213.177 299.504C212.817 299.504 212.497 299.596 212.217 299.78C211.937 299.956 211.721 300.212 211.569 300.548C211.417 300.876 211.357 301.276 211.389 301.748C211.349 302.188 211.409 302.572 211.569 302.9C211.737 303.228 211.969 303.484 212.265 303.668C212.569 303.852 212.913 303.944 213.297 303.944C213.689 303.944 214.021 303.856 214.293 303.68C214.573 303.504 214.793 303.276 214.953 302.996L216.057 303.536C215.929 303.84 215.729 304.116 215.457 304.364C215.193 304.604 214.873 304.796 214.497 304.94C214.129 305.076 213.725 305.144 213.285 305.144ZM217.597 305V295.916H218.953V305H217.597Z" fill="#171816"/>
<path d="M160 248C160 243.582 163.582 240 168 240H220C224.418 240 228 243.582 228 248V256C228 260.418 224.418 264 220 264H168C163.582 264 160 260.418 160 256V248Z" fill="#FFF5A7"/>
<path d="M181 246H171C170.735 246 170.48 246.105 170.293 246.293C170.105 246.48 170 246.735 170 247V257C170 257.265 170.105 257.52 170.293 257.707C170.48 257.895 170.735 258 171 258H181C181.265 258 181.52 257.895 181.707 257.707C181.895 257.52 182 257.265 182 257V247C182 246.735 181.895 246.48 181.707 246.293C181.52 246.105 181.265 246 181 246ZM171 257V247.707L180.293 257H171ZM171.707 247H181V256.294L171.707 247Z" fill="#171816"/>
<path d="M188.924 257V248.06H190.34V255.74H194.204V257H188.924ZM197.205 257.144C196.765 257.144 196.377 257.068 196.041 256.916C195.713 256.756 195.457 256.54 195.273 256.268C195.089 255.988 194.997 255.66 194.997 255.284C194.997 254.932 195.073 254.616 195.225 254.336C195.385 254.056 195.629 253.82 195.957 253.628C196.285 253.436 196.697 253.3 197.193 253.22L199.449 252.848V253.916L197.457 254.264C197.097 254.328 196.833 254.444 196.665 254.612C196.497 254.772 196.413 254.98 196.413 255.236C196.413 255.484 196.505 255.688 196.689 255.848C196.881 256 197.125 256.076 197.421 256.076C197.789 256.076 198.109 255.996 198.381 255.836C198.661 255.676 198.877 255.464 199.029 255.2C199.181 254.928 199.257 254.628 199.257 254.3V252.632C199.257 252.312 199.137 252.052 198.897 251.852C198.665 251.644 198.353 251.54 197.961 251.54C197.601 251.54 197.285 251.636 197.013 251.828C196.749 252.012 196.553 252.252 196.425 252.548L195.297 251.984C195.417 251.664 195.613 251.384 195.885 251.144C196.157 250.896 196.473 250.704 196.833 250.568C197.201 250.432 197.589 250.364 197.997 250.364C198.509 250.364 198.961 250.46 199.353 250.652C199.753 250.844 200.061 251.112 200.277 251.456C200.501 251.792 200.613 252.184 200.613 252.632V257H199.317V255.824L199.593 255.86C199.441 256.124 199.245 256.352 199.005 256.544C198.773 256.736 198.505 256.884 198.201 256.988C197.905 257.092 197.573 257.144 197.205 257.144ZM205.666 257.144C205.162 257.144 204.702 257.04 204.286 256.832C203.878 256.624 203.562 256.324 203.338 255.932L203.494 255.68V257H202.198V247.916H203.554V251.852L203.338 251.54C203.578 251.172 203.898 250.884 204.298 250.676C204.698 250.468 205.154 250.364 205.666 250.364C206.282 250.364 206.834 250.512 207.322 250.808C207.818 251.104 208.206 251.508 208.486 252.02C208.774 252.532 208.918 253.108 208.918 253.748C208.918 254.388 208.774 254.964 208.486 255.476C208.206 255.988 207.822 256.396 207.334 256.7C206.846 256.996 206.29 257.144 205.666 257.144ZM205.534 255.884C205.918 255.884 206.258 255.792 206.554 255.608C206.85 255.424 207.082 255.172 207.25 254.852C207.426 254.524 207.514 254.156 207.514 253.748C207.514 253.34 207.426 252.976 207.25 252.656C207.082 252.336 206.85 252.084 206.554 251.9C206.258 251.716 205.918 251.624 205.534 251.624C205.158 251.624 204.818 251.716 204.514 251.9C204.218 252.084 203.982 252.336 203.806 252.656C203.638 252.976 203.554 253.34 203.554 253.748C203.554 254.156 203.638 254.524 203.806 254.852C203.982 255.172 204.218 255.424 204.514 255.608C204.818 255.792 205.158 255.884 205.534 255.884ZM213.285 257.144C212.637 257.144 212.061 256.996 211.557 256.7C211.061 256.396 210.673 255.988 210.393 255.476C210.113 254.956 209.973 254.376 209.973 253.736C209.973 253.08 210.113 252.5 210.393 251.996C210.681 251.492 211.065 251.096 211.545 250.808C212.025 250.512 212.569 250.364 213.177 250.364C213.665 250.364 214.101 250.448 214.485 250.616C214.869 250.784 215.193 251.016 215.457 251.312C215.721 251.6 215.921 251.932 216.057 252.308C216.201 252.684 216.273 253.084 216.273 253.508C216.273 253.612 216.269 253.72 216.261 253.832C216.253 253.944 216.237 254.048 216.213 254.144H211.041V253.064H215.445L214.797 253.556C214.877 253.164 214.849 252.816 214.713 252.512C214.585 252.2 214.385 251.956 214.113 251.78C213.849 251.596 213.537 251.504 213.177 251.504C212.817 251.504 212.497 251.596 212.217 251.78C211.937 251.956 211.721 252.212 211.569 252.548C211.417 252.876 211.357 253.276 211.389 253.748C211.349 254.188 211.409 254.572 211.569 254.9C211.737 255.228 211.969 255.484 212.265 255.668C212.569 255.852 212.913 255.944 213.297 255.944C213.689 255.944 214.021 255.856 214.293 255.68C214.573 255.504 214.793 255.276 214.953 254.996L216.057 255.536C215.929 255.84 215.729 256.116 215.457 256.364C215.193 256.604 214.873 256.796 214.497 256.94C214.129 257.076 213.725 257.144 213.285 257.144ZM217.597 257V247.916H218.953V257H217.597Z" fill="#171816"/>
<path d="M160 200C160 195.582 163.582 192 168 192H220C224.418 192 228 195.582 228 200V208C228 212.418 224.418 216 220 216H168C163.582 216 160 212.418 160 208V200Z" fill="#ECDEDB"/>
<path d="M181 198H171C170.735 198 170.48 198.105 170.293 198.293C170.105 198.48 170 198.735 170 199V209C170 209.265 170.105 209.52 170.293 209.707C170.48 209.895 170.735 210 171 210H181C181.265 210 181.52 209.895 181.707 209.707C181.895 209.52 182 209.265 182 209V199C182 198.735 181.895 198.48 181.707 198.293C181.52 198.105 181.265 198 181 198ZM171 209V199.707L180.293 209H171ZM171.707 199H181V208.294L171.707 199Z" fill="#171816"/>
<path d="M188.924 209V200.06H190.34V207.74H194.204V209H188.924ZM197.205 209.144C196.765 209.144 196.377 209.068 196.041 208.916C195.713 208.756 195.457 208.54 195.273 208.268C195.089 207.988 194.997 207.66 194.997 207.284C194.997 206.932 195.073 206.616 195.225 206.336C195.385 206.056 195.629 205.82 195.957 205.628C196.285 205.436 196.697 205.3 197.193 205.22L199.449 204.848V205.916L197.457 206.264C197.097 206.328 196.833 206.444 196.665 206.612C196.497 206.772 196.413 206.98 196.413 207.236C196.413 207.484 196.505 207.688 196.689 207.848C196.881 208 197.125 208.076 197.421 208.076C197.789 208.076 198.109 207.996 198.381 207.836C198.661 207.676 198.877 207.464 199.029 207.2C199.181 206.928 199.257 206.628 199.257 206.3V204.632C199.257 204.312 199.137 204.052 198.897 203.852C198.665 203.644 198.353 203.54 197.961 203.54C197.601 203.54 197.285 203.636 197.013 203.828C196.749 204.012 196.553 204.252 196.425 204.548L195.297 203.984C195.417 203.664 195.613 203.384 195.885 203.144C196.157 202.896 196.473 202.704 196.833 202.568C197.201 202.432 197.589 202.364 197.997 202.364C198.509 202.364 198.961 202.46 199.353 202.652C199.753 202.844 200.061 203.112 200.277 203.456C200.501 203.792 200.613 204.184 200.613 204.632V209H199.317V207.824L199.593 207.86C199.441 208.124 199.245 208.352 199.005 208.544C198.773 208.736 198.505 208.884 198.201 208.988C197.905 209.092 197.573 209.144 197.205 209.144ZM205.666 209.144C205.162 209.144 204.702 209.04 204.286 208.832C203.878 208.624 203.562 208.324 203.338 207.932L203.494 207.68V209H202.198V199.916H203.554V203.852L203.338 203.54C203.578 203.172 203.898 202.884 204.298 202.676C204.698 202.468 205.154 202.364 205.666 202.364C206.282 202.364 206.834 202.512 207.322 202.808C207.818 203.104 208.206 203.508 208.486 204.02C208.774 204.532 208.918 205.108 208.918 205.748C208.918 206.388 208.774 206.964 208.486 207.476C208.206 207.988 207.822 208.396 207.334 208.7C206.846 208.996 206.29 209.144 205.666 209.144ZM205.534 207.884C205.918 207.884 206.258 207.792 206.554 207.608C206.85 207.424 207.082 207.172 207.25 206.852C207.426 206.524 207.514 206.156 207.514 205.748C207.514 205.34 207.426 204.976 207.25 204.656C207.082 204.336 206.85 204.084 206.554 203.9C206.258 203.716 205.918 203.624 205.534 203.624C205.158 203.624 204.818 203.716 204.514 203.9C204.218 204.084 203.982 204.336 203.806 204.656C203.638 204.976 203.554 205.34 203.554 205.748C203.554 206.156 203.638 206.524 203.806 206.852C203.982 207.172 204.218 207.424 204.514 207.608C204.818 207.792 205.158 207.884 205.534 207.884ZM213.285 209.144C212.637 209.144 212.061 208.996 211.557 208.7C211.061 208.396 210.673 207.988 210.393 207.476C210.113 206.956 209.973 206.376 209.973 205.736C209.973 205.08 210.113 204.5 210.393 203.996C210.681 203.492 211.065 203.096 211.545 202.808C212.025 202.512 212.569 202.364 213.177 202.364C213.665 202.364 214.101 202.448 214.485 202.616C214.869 202.784 215.193 203.016 215.457 203.312C215.721 203.6 215.921 203.932 216.057 204.308C216.201 204.684 216.273 205.084 216.273 205.508C216.273 205.612 216.269 205.72 216.261 205.832C216.253 205.944 216.237 206.048 216.213 206.144H211.041V205.064H215.445L214.797 205.556C214.877 205.164 214.849 204.816 214.713 204.512C214.585 204.2 214.385 203.956 214.113 203.78C213.849 203.596 213.537 203.504 213.177 203.504C212.817 203.504 212.497 203.596 212.217 203.78C211.937 203.956 211.721 204.212 211.569 204.548C211.417 204.876 211.357 205.276 211.389 205.748C211.349 206.188 211.409 206.572 211.569 206.9C211.737 207.228 211.969 207.484 212.265 207.668C212.569 207.852 212.913 207.944 213.297 207.944C213.689 207.944 214.021 207.856 214.293 207.68C214.573 207.504 214.793 207.276 214.953 206.996L216.057 207.536C215.929 207.84 215.729 208.116 215.457 208.364C215.193 208.604 214.873 208.796 214.497 208.94C214.129 209.076 213.725 209.144 213.285 209.144ZM217.597 209V199.916H218.953V209H217.597Z" fill="#171816"/>
<path d="M160 152C160 147.582 163.582 144 168 144H220C224.418 144 228 147.582 228 152V160C228 164.418 224.418 168 220 168H168C163.582 168 160 164.418 160 160V152Z" fill="#14411E"/>
<path d="M181 150H171C170.735 150 170.48 150.105 170.293 150.293C170.105 150.48 170 150.735 170 151V161C170 161.265 170.105 161.52 170.293 161.707C170.48 161.895 170.735 162 171 162H181C181.265 162 181.52 161.895 181.707 161.707C181.895 161.52 182 161.265 182 161V151C182 150.735 181.895 150.48 181.707 150.293C181.52 150.105 181.265 150 181 150ZM171 161V151.707L180.293 161H171ZM171.707 151H181V160.294L171.707 151Z" fill="white"/>
<path d="M188.924 161V152.06H190.34V159.74H194.204V161H188.924ZM197.205 161.144C196.765 161.144 196.377 161.068 196.041 160.916C195.713 160.756 195.457 160.54 195.273 160.268C195.089 159.988 194.997 159.66 194.997 159.284C194.997 158.932 195.073 158.616 195.225 158.336C195.385 158.056 195.629 157.82 195.957 157.628C196.285 157.436 196.697 157.3 197.193 157.22L199.449 156.848V157.916L197.457 158.264C197.097 158.328 196.833 158.444 196.665 158.612C196.497 158.772 196.413 158.98 196.413 159.236C196.413 159.484 196.505 159.688 196.689 159.848C196.881 160 197.125 160.076 197.421 160.076C197.789 160.076 198.109 159.996 198.381 159.836C198.661 159.676 198.877 159.464 199.029 159.2C199.181 158.928 199.257 158.628 199.257 158.3V156.632C199.257 156.312 199.137 156.052 198.897 155.852C198.665 155.644 198.353 155.54 197.961 155.54C197.601 155.54 197.285 155.636 197.013 155.828C196.749 156.012 196.553 156.252 196.425 156.548L195.297 155.984C195.417 155.664 195.613 155.384 195.885 155.144C196.157 154.896 196.473 154.704 196.833 154.568C197.201 154.432 197.589 154.364 197.997 154.364C198.509 154.364 198.961 154.46 199.353 154.652C199.753 154.844 200.061 155.112 200.277 155.456C200.501 155.792 200.613 156.184 200.613 156.632V161H199.317V159.824L199.593 159.86C199.441 160.124 199.245 160.352 199.005 160.544C198.773 160.736 198.505 160.884 198.201 160.988C197.905 161.092 197.573 161.144 197.205 161.144ZM205.666 161.144C205.162 161.144 204.702 161.04 204.286 160.832C203.878 160.624 203.562 160.324 203.338 159.932L203.494 159.68V161H202.198V151.916H203.554V155.852L203.338 155.54C203.578 155.172 203.898 154.884 204.298 154.676C204.698 154.468 205.154 154.364 205.666 154.364C206.282 154.364 206.834 154.512 207.322 154.808C207.818 155.104 208.206 155.508 208.486 156.02C208.774 156.532 208.918 157.108 208.918 157.748C208.918 158.388 208.774 158.964 208.486 159.476C208.206 159.988 207.822 160.396 207.334 160.7C206.846 160.996 206.29 161.144 205.666 161.144ZM205.534 159.884C205.918 159.884 206.258 159.792 206.554 159.608C206.85 159.424 207.082 159.172 207.25 158.852C207.426 158.524 207.514 158.156 207.514 157.748C207.514 157.34 207.426 156.976 207.25 156.656C207.082 156.336 206.85 156.084 206.554 155.9C206.258 155.716 205.918 155.624 205.534 155.624C205.158 155.624 204.818 155.716 204.514 155.9C204.218 156.084 203.982 156.336 203.806 156.656C203.638 156.976 203.554 157.34 203.554 157.748C203.554 158.156 203.638 158.524 203.806 158.852C203.982 159.172 204.218 159.424 204.514 159.608C204.818 159.792 205.158 159.884 205.534 159.884ZM213.285 161.144C212.637 161.144 212.061 160.996 211.557 160.7C211.061 160.396 210.673 159.988 210.393 159.476C210.113 158.956 209.973 158.376 209.973 157.736C209.973 157.08 210.113 156.5 210.393 155.996C210.681 155.492 211.065 155.096 211.545 154.808C212.025 154.512 212.569 154.364 213.177 154.364C213.665 154.364 214.101 154.448 214.485 154.616C214.869 154.784 215.193 155.016 215.457 155.312C215.721 155.6 215.921 155.932 216.057 156.308C216.201 156.684 216.273 157.084 216.273 157.508C216.273 157.612 216.269 157.72 216.261 157.832C216.253 157.944 216.237 158.048 216.213 158.144H211.041V157.064H215.445L214.797 157.556C214.877 157.164 214.849 156.816 214.713 156.512C214.585 156.2 214.385 155.956 214.113 155.78C213.849 155.596 213.537 155.504 213.177 155.504C212.817 155.504 212.497 155.596 212.217 155.78C211.937 155.956 211.721 156.212 211.569 156.548C211.417 156.876 211.357 157.276 211.389 157.748C211.349 158.188 211.409 158.572 211.569 158.9C211.737 159.228 211.969 159.484 212.265 159.668C212.569 159.852 212.913 159.944 213.297 159.944C213.689 159.944 214.021 159.856 214.293 159.68C214.573 159.504 214.793 159.276 214.953 158.996L216.057 159.536C215.929 159.84 215.729 160.116 215.457 160.364C215.193 160.604 214.873 160.796 214.497 160.94C214.129 161.076 213.725 161.144 213.285 161.144ZM217.597 161V151.916H218.953V161H217.597Z" fill="white"/>
<path d="M160 104C160 99.5817 163.582 96 168 96H220C224.418 96 228 99.5817 228 104V112C228 116.418 224.418 120 220 120H168C163.582 120 160 116.418 160 112V104Z" fill="#E9F5E5"/>
<path d="M181 102H171C170.735 102 170.48 102.105 170.293 102.293C170.105 102.48 170 102.735 170 103V113C170 113.265 170.105 113.52 170.293 113.707C170.48 113.895 170.735 114 171 114H181C181.265 114 181.52 113.895 181.707 113.707C181.895 113.52 182 113.265 182 113V103C182 102.735 181.895 102.48 181.707 102.293C181.52 102.105 181.265 102 181 102ZM171 113V103.707L180.293 113H171ZM171.707 103H181V112.294L171.707 103Z" fill="#292C28"/>
<path d="M188.924 113V104.06H190.34V111.74H194.204V113H188.924ZM197.205 113.144C196.765 113.144 196.377 113.068 196.041 112.916C195.713 112.756 195.457 112.54 195.273 112.268C195.089 111.988 194.997 111.66 194.997 111.284C194.997 110.932 195.073 110.616 195.225 110.336C195.385 110.056 195.629 109.82 195.957 109.628C196.285 109.436 196.697 109.3 197.193 109.22L199.449 108.848V109.916L197.457 110.264C197.097 110.328 196.833 110.444 196.665 110.612C196.497 110.772 196.413 110.98 196.413 111.236C196.413 111.484 196.505 111.688 196.689 111.848C196.881 112 197.125 112.076 197.421 112.076C197.789 112.076 198.109 111.996 198.381 111.836C198.661 111.676 198.877 111.464 199.029 111.2C199.181 110.928 199.257 110.628 199.257 110.3V108.632C199.257 108.312 199.137 108.052 198.897 107.852C198.665 107.644 198.353 107.54 197.961 107.54C197.601 107.54 197.285 107.636 197.013 107.828C196.749 108.012 196.553 108.252 196.425 108.548L195.297 107.984C195.417 107.664 195.613 107.384 195.885 107.144C196.157 106.896 196.473 106.704 196.833 106.568C197.201 106.432 197.589 106.364 197.997 106.364C198.509 106.364 198.961 106.46 199.353 106.652C199.753 106.844 200.061 107.112 200.277 107.456C200.501 107.792 200.613 108.184 200.613 108.632V113H199.317V111.824L199.593 111.86C199.441 112.124 199.245 112.352 199.005 112.544C198.773 112.736 198.505 112.884 198.201 112.988C197.905 113.092 197.573 113.144 197.205 113.144ZM205.666 113.144C205.162 113.144 204.702 113.04 204.286 112.832C203.878 112.624 203.562 112.324 203.338 111.932L203.494 111.68V113H202.198V103.916H203.554V107.852L203.338 107.54C203.578 107.172 203.898 106.884 204.298 106.676C204.698 106.468 205.154 106.364 205.666 106.364C206.282 106.364 206.834 106.512 207.322 106.808C207.818 107.104 208.206 107.508 208.486 108.02C208.774 108.532 208.918 109.108 208.918 109.748C208.918 110.388 208.774 110.964 208.486 111.476C208.206 111.988 207.822 112.396 207.334 112.7C206.846 112.996 206.29 113.144 205.666 113.144ZM205.534 111.884C205.918 111.884 206.258 111.792 206.554 111.608C206.85 111.424 207.082 111.172 207.25 110.852C207.426 110.524 207.514 110.156 207.514 109.748C207.514 109.34 207.426 108.976 207.25 108.656C207.082 108.336 206.85 108.084 206.554 107.9C206.258 107.716 205.918 107.624 205.534 107.624C205.158 107.624 204.818 107.716 204.514 107.9C204.218 108.084 203.982 108.336 203.806 108.656C203.638 108.976 203.554 109.34 203.554 109.748C203.554 110.156 203.638 110.524 203.806 110.852C203.982 111.172 204.218 111.424 204.514 111.608C204.818 111.792 205.158 111.884 205.534 111.884ZM213.285 113.144C212.637 113.144 212.061 112.996 211.557 112.7C211.061 112.396 210.673 111.988 210.393 111.476C210.113 110.956 209.973 110.376 209.973 109.736C209.973 109.08 210.113 108.5 210.393 107.996C210.681 107.492 211.065 107.096 211.545 106.808C212.025 106.512 212.569 106.364 213.177 106.364C213.665 106.364 214.101 106.448 214.485 106.616C214.869 106.784 215.193 107.016 215.457 107.312C215.721 107.6 215.921 107.932 216.057 108.308C216.201 108.684 216.273 109.084 216.273 109.508C216.273 109.612 216.269 109.72 216.261 109.832C216.253 109.944 216.237 110.048 216.213 110.144H211.041V109.064H215.445L214.797 109.556C214.877 109.164 214.849 108.816 214.713 108.512C214.585 108.2 214.385 107.956 214.113 107.78C213.849 107.596 213.537 107.504 213.177 107.504C212.817 107.504 212.497 107.596 212.217 107.78C211.937 107.956 211.721 108.212 211.569 108.548C211.417 108.876 211.357 109.276 211.389 109.748C211.349 110.188 211.409 110.572 211.569 110.9C211.737 111.228 211.969 111.484 212.265 111.668C212.569 111.852 212.913 111.944 213.297 111.944C213.689 111.944 214.021 111.856 214.293 111.68C214.573 111.504 214.793 111.276 214.953 110.996L216.057 111.536C215.929 111.84 215.729 112.116 215.457 112.364C215.193 112.604 214.873 112.796 214.497 112.94C214.129 113.076 213.725 113.144 213.285 113.144ZM217.597 113V103.916H218.953V113H217.597Z" fill="#171816"/>
<path d="M348 88C348 79.1634 355.163 72 364 72H448C456.837 72 464 79.1634 464 88V320C464 328.837 456.837 336 448 336H364C355.163 336 348 328.837 348 320V88Z" fill="#1B1C1A"/>
<path d="M372 104C372 99.5817 375.582 96 380 96H432C436.418 96 440 99.5817 440 104V112C440 116.418 436.418 120 432 120H380C375.582 120 372 116.418 372 112V104Z" fill="#292C28"/>
<path d="M393 102H383C382.735 102 382.48 102.105 382.293 102.293C382.105 102.48 382 102.735 382 103V113C382 113.265 382.105 113.52 382.293 113.707C382.48 113.895 382.735 114 383 114H393C393.265 114 393.52 113.895 393.707 113.707C393.895 113.52 394 113.265 394 113V103C394 102.735 393.895 102.48 393.707 102.293C393.52 102.105 393.265 102 393 102ZM383 113V103.707L392.293 113H383ZM383.707 103H393V112.294L383.707 103Z" fill="#6C7469"/>
<path d="M400.924 113V104.06H402.34V111.74H406.204V113H400.924ZM409.205 113.144C408.765 113.144 408.377 113.068 408.041 112.916C407.713 112.756 407.457 112.54 407.273 112.268C407.089 111.988 406.997 111.66 406.997 111.284C406.997 110.932 407.073 110.616 407.225 110.336C407.385 110.056 407.629 109.82 407.957 109.628C408.285 109.436 408.697 109.3 409.193 109.22L411.449 108.848V109.916L409.457 110.264C409.097 110.328 408.833 110.444 408.665 110.612C408.497 110.772 408.413 110.98 408.413 111.236C408.413 111.484 408.505 111.688 408.689 111.848C408.881 112 409.125 112.076 409.421 112.076C409.789 112.076 410.109 111.996 410.381 111.836C410.661 111.676 410.877 111.464 411.029 111.2C411.181 110.928 411.257 110.628 411.257 110.3V108.632C411.257 108.312 411.137 108.052 410.897 107.852C410.665 107.644 410.353 107.54 409.961 107.54C409.601 107.54 409.285 107.636 409.013 107.828C408.749 108.012 408.553 108.252 408.425 108.548L407.297 107.984C407.417 107.664 407.613 107.384 407.885 107.144C408.157 106.896 408.473 106.704 408.833 106.568C409.201 106.432 409.589 106.364 409.997 106.364C410.509 106.364 410.961 106.46 411.353 106.652C411.753 106.844 412.061 107.112 412.277 107.456C412.501 107.792 412.613 108.184 412.613 108.632V113H411.317V111.824L411.593 111.86C411.441 112.124 411.245 112.352 411.005 112.544C410.773 112.736 410.505 112.884 410.201 112.988C409.905 113.092 409.573 113.144 409.205 113.144ZM417.666 113.144C417.162 113.144 416.702 113.04 416.286 112.832C415.878 112.624 415.562 112.324 415.338 111.932L415.494 111.68V113H414.198V103.916H415.554V107.852L415.338 107.54C415.578 107.172 415.898 106.884 416.298 106.676C416.698 106.468 417.154 106.364 417.666 106.364C418.282 106.364 418.834 106.512 419.322 106.808C419.818 107.104 420.206 107.508 420.486 108.02C420.774 108.532 420.918 109.108 420.918 109.748C420.918 110.388 420.774 110.964 420.486 111.476C420.206 111.988 419.822 112.396 419.334 112.7C418.846 112.996 418.29 113.144 417.666 113.144ZM417.534 111.884C417.918 111.884 418.258 111.792 418.554 111.608C418.85 111.424 419.082 111.172 419.25 110.852C419.426 110.524 419.514 110.156 419.514 109.748C419.514 109.34 419.426 108.976 419.25 108.656C419.082 108.336 418.85 108.084 418.554 107.9C418.258 107.716 417.918 107.624 417.534 107.624C417.158 107.624 416.818 107.716 416.514 107.9C416.218 108.084 415.982 108.336 415.806 108.656C415.638 108.976 415.554 109.34 415.554 109.748C415.554 110.156 415.638 110.524 415.806 110.852C415.982 111.172 416.218 111.424 416.514 111.608C416.818 111.792 417.158 111.884 417.534 111.884ZM425.285 113.144C424.637 113.144 424.061 112.996 423.557 112.7C423.061 112.396 422.673 111.988 422.393 111.476C422.113 110.956 421.973 110.376 421.973 109.736C421.973 109.08 422.113 108.5 422.393 107.996C422.681 107.492 423.065 107.096 423.545 106.808C424.025 106.512 424.569 106.364 425.177 106.364C425.665 106.364 426.101 106.448 426.485 106.616C426.869 106.784 427.193 107.016 427.457 107.312C427.721 107.6 427.921 107.932 428.057 108.308C428.201 108.684 428.273 109.084 428.273 109.508C428.273 109.612 428.269 109.72 428.261 109.832C428.253 109.944 428.237 110.048 428.213 110.144H423.041V109.064H427.445L426.797 109.556C426.877 109.164 426.849 108.816 426.713 108.512C426.585 108.2 426.385 107.956 426.113 107.78C425.849 107.596 425.537 107.504 425.177 107.504C424.817 107.504 424.497 107.596 424.217 107.78C423.937 107.956 423.721 108.212 423.569 108.548C423.417 108.876 423.357 109.276 423.389 109.748C423.349 110.188 423.409 110.572 423.569 110.9C423.737 111.228 423.969 111.484 424.265 111.668C424.569 111.852 424.913 111.944 425.297 111.944C425.689 111.944 426.021 111.856 426.293 111.68C426.573 111.504 426.793 111.276 426.953 110.996L428.057 111.536C427.929 111.84 427.729 112.116 427.457 112.364C427.193 112.604 426.873 112.796 426.497 112.94C426.129 113.076 425.725 113.144 425.285 113.144ZM429.597 113V103.916H430.953V113H429.597Z" fill="white"/>
<path d="M372 152C372 147.582 375.582 144 380 144H432C436.418 144 440 147.582 440 152V160C440 164.418 436.418 168 432 168H380C375.582 168 372 164.418 372 160V152Z" fill="#31E000"/>
<path d="M393 150H383C382.735 150 382.48 150.105 382.293 150.293C382.105 150.48 382 150.735 382 151V161C382 161.265 382.105 161.52 382.293 161.707C382.48 161.895 382.735 162 383 162H393C393.265 162 393.52 161.895 393.707 161.707C393.895 161.52 394 161.265 394 161V151C394 150.735 393.895 150.48 393.707 150.293C393.52 150.105 393.265 150 393 150ZM383 161V151.707L392.293 161H383ZM383.707 151H393V160.294L383.707 151Z" fill="#1B1C1A"/>
<path d="M400.924 161V152.06H402.34V159.74H406.204V161H400.924ZM409.205 161.144C408.765 161.144 408.377 161.068 408.041 160.916C407.713 160.756 407.457 160.54 407.273 160.268C407.089 159.988 406.997 159.66 406.997 159.284C406.997 158.932 407.073 158.616 407.225 158.336C407.385 158.056 407.629 157.82 407.957 157.628C408.285 157.436 408.697 157.3 409.193 157.22L411.449 156.848V157.916L409.457 158.264C409.097 158.328 408.833 158.444 408.665 158.612C408.497 158.772 408.413 158.98 408.413 159.236C408.413 159.484 408.505 159.688 408.689 159.848C408.881 160 409.125 160.076 409.421 160.076C409.789 160.076 410.109 159.996 410.381 159.836C410.661 159.676 410.877 159.464 411.029 159.2C411.181 158.928 411.257 158.628 411.257 158.3V156.632C411.257 156.312 411.137 156.052 410.897 155.852C410.665 155.644 410.353 155.54 409.961 155.54C409.601 155.54 409.285 155.636 409.013 155.828C408.749 156.012 408.553 156.252 408.425 156.548L407.297 155.984C407.417 155.664 407.613 155.384 407.885 155.144C408.157 154.896 408.473 154.704 408.833 154.568C409.201 154.432 409.589 154.364 409.997 154.364C410.509 154.364 410.961 154.46 411.353 154.652C411.753 154.844 412.061 155.112 412.277 155.456C412.501 155.792 412.613 156.184 412.613 156.632V161H411.317V159.824L411.593 159.86C411.441 160.124 411.245 160.352 411.005 160.544C410.773 160.736 410.505 160.884 410.201 160.988C409.905 161.092 409.573 161.144 409.205 161.144ZM417.666 161.144C417.162 161.144 416.702 161.04 416.286 160.832C415.878 160.624 415.562 160.324 415.338 159.932L415.494 159.68V161H414.198V151.916H415.554V155.852L415.338 155.54C415.578 155.172 415.898 154.884 416.298 154.676C416.698 154.468 417.154 154.364 417.666 154.364C418.282 154.364 418.834 154.512 419.322 154.808C419.818 155.104 420.206 155.508 420.486 156.02C420.774 156.532 420.918 157.108 420.918 157.748C420.918 158.388 420.774 158.964 420.486 159.476C420.206 159.988 419.822 160.396 419.334 160.7C418.846 160.996 418.29 161.144 417.666 161.144ZM417.534 159.884C417.918 159.884 418.258 159.792 418.554 159.608C418.85 159.424 419.082 159.172 419.25 158.852C419.426 158.524 419.514 158.156 419.514 157.748C419.514 157.34 419.426 156.976 419.25 156.656C419.082 156.336 418.85 156.084 418.554 155.9C418.258 155.716 417.918 155.624 417.534 155.624C417.158 155.624 416.818 155.716 416.514 155.9C416.218 156.084 415.982 156.336 415.806 156.656C415.638 156.976 415.554 157.34 415.554 157.748C415.554 158.156 415.638 158.524 415.806 158.852C415.982 159.172 416.218 159.424 416.514 159.608C416.818 159.792 417.158 159.884 417.534 159.884ZM425.285 161.144C424.637 161.144 424.061 160.996 423.557 160.7C423.061 160.396 422.673 159.988 422.393 159.476C422.113 158.956 421.973 158.376 421.973 157.736C421.973 157.08 422.113 156.5 422.393 155.996C422.681 155.492 423.065 155.096 423.545 154.808C424.025 154.512 424.569 154.364 425.177 154.364C425.665 154.364 426.101 154.448 426.485 154.616C426.869 154.784 427.193 155.016 427.457 155.312C427.721 155.6 427.921 155.932 428.057 156.308C428.201 156.684 428.273 157.084 428.273 157.508C428.273 157.612 428.269 157.72 428.261 157.832C428.253 157.944 428.237 158.048 428.213 158.144H423.041V157.064H427.445L426.797 157.556C426.877 157.164 426.849 156.816 426.713 156.512C426.585 156.2 426.385 155.956 426.113 155.78C425.849 155.596 425.537 155.504 425.177 155.504C424.817 155.504 424.497 155.596 424.217 155.78C423.937 155.956 423.721 156.212 423.569 156.548C423.417 156.876 423.357 157.276 423.389 157.748C423.349 158.188 423.409 158.572 423.569 158.9C423.737 159.228 423.969 159.484 424.265 159.668C424.569 159.852 424.913 159.944 425.297 159.944C425.689 159.944 426.021 159.856 426.293 159.68C426.573 159.504 426.793 159.276 426.953 158.996L428.057 159.536C427.929 159.84 427.729 160.116 427.457 160.364C427.193 160.604 426.873 160.796 426.497 160.94C426.129 161.076 425.725 161.144 425.285 161.144ZM429.597 161V151.916H430.953V161H429.597Z" fill="#292C28"/>
<path d="M372 200C372 195.582 375.582 192 380 192H432C436.418 192 440 195.582 440 200V208C440 212.418 436.418 216 432 216H380C375.582 216 372 212.418 372 208V200Z" fill="#ECDEDB"/>
<path d="M393 198H383C382.735 198 382.48 198.105 382.293 198.293C382.105 198.48 382 198.735 382 199V209C382 209.265 382.105 209.52 382.293 209.707C382.48 209.895 382.735 210 383 210H393C393.265 210 393.52 209.895 393.707 209.707C393.895 209.52 394 209.265 394 209V199C394 198.735 393.895 198.48 393.707 198.293C393.52 198.105 393.265 198 393 198ZM383 209V199.707L392.293 209H383ZM383.707 199H393V208.294L383.707 199Z" fill="#171816"/>
<path d="M400.924 209V200.06H402.34V207.74H406.204V209H400.924ZM409.205 209.144C408.765 209.144 408.377 209.068 408.041 208.916C407.713 208.756 407.457 208.54 407.273 208.268C407.089 207.988 406.997 207.66 406.997 207.284C406.997 206.932 407.073 206.616 407.225 206.336C407.385 206.056 407.629 205.82 407.957 205.628C408.285 205.436 408.697 205.3 409.193 205.22L411.449 204.848V205.916L409.457 206.264C409.097 206.328 408.833 206.444 408.665 206.612C408.497 206.772 408.413 206.98 408.413 207.236C408.413 207.484 408.505 207.688 408.689 207.848C408.881 208 409.125 208.076 409.421 208.076C409.789 208.076 410.109 207.996 410.381 207.836C410.661 207.676 410.877 207.464 411.029 207.2C411.181 206.928 411.257 206.628 411.257 206.3V204.632C411.257 204.312 411.137 204.052 410.897 203.852C410.665 203.644 410.353 203.54 409.961 203.54C409.601 203.54 409.285 203.636 409.013 203.828C408.749 204.012 408.553 204.252 408.425 204.548L407.297 203.984C407.417 203.664 407.613 203.384 407.885 203.144C408.157 202.896 408.473 202.704 408.833 202.568C409.201 202.432 409.589 202.364 409.997 202.364C410.509 202.364 410.961 202.46 411.353 202.652C411.753 202.844 412.061 203.112 412.277 203.456C412.501 203.792 412.613 204.184 412.613 204.632V209H411.317V207.824L411.593 207.86C411.441 208.124 411.245 208.352 411.005 208.544C410.773 208.736 410.505 208.884 410.201 208.988C409.905 209.092 409.573 209.144 409.205 209.144ZM417.666 209.144C417.162 209.144 416.702 209.04 416.286 208.832C415.878 208.624 415.562 208.324 415.338 207.932L415.494 207.68V209H414.198V199.916H415.554V203.852L415.338 203.54C415.578 203.172 415.898 202.884 416.298 202.676C416.698 202.468 417.154 202.364 417.666 202.364C418.282 202.364 418.834 202.512 419.322 202.808C419.818 203.104 420.206 203.508 420.486 204.02C420.774 204.532 420.918 205.108 420.918 205.748C420.918 206.388 420.774 206.964 420.486 207.476C420.206 207.988 419.822 208.396 419.334 208.7C418.846 208.996 418.29 209.144 417.666 209.144ZM417.534 207.884C417.918 207.884 418.258 207.792 418.554 207.608C418.85 207.424 419.082 207.172 419.25 206.852C419.426 206.524 419.514 206.156 419.514 205.748C419.514 205.34 419.426 204.976 419.25 204.656C419.082 204.336 418.85 204.084 418.554 203.9C418.258 203.716 417.918 203.624 417.534 203.624C417.158 203.624 416.818 203.716 416.514 203.9C416.218 204.084 415.982 204.336 415.806 204.656C415.638 204.976 415.554 205.34 415.554 205.748C415.554 206.156 415.638 206.524 415.806 206.852C415.982 207.172 416.218 207.424 416.514 207.608C416.818 207.792 417.158 207.884 417.534 207.884ZM425.285 209.144C424.637 209.144 424.061 208.996 423.557 208.7C423.061 208.396 422.673 207.988 422.393 207.476C422.113 206.956 421.973 206.376 421.973 205.736C421.973 205.08 422.113 204.5 422.393 203.996C422.681 203.492 423.065 203.096 423.545 202.808C424.025 202.512 424.569 202.364 425.177 202.364C425.665 202.364 426.101 202.448 426.485 202.616C426.869 202.784 427.193 203.016 427.457 203.312C427.721 203.6 427.921 203.932 428.057 204.308C428.201 204.684 428.273 205.084 428.273 205.508C428.273 205.612 428.269 205.72 428.261 205.832C428.253 205.944 428.237 206.048 428.213 206.144H423.041V205.064H427.445L426.797 205.556C426.877 205.164 426.849 204.816 426.713 204.512C426.585 204.2 426.385 203.956 426.113 203.78C425.849 203.596 425.537 203.504 425.177 203.504C424.817 203.504 424.497 203.596 424.217 203.78C423.937 203.956 423.721 204.212 423.569 204.548C423.417 204.876 423.357 205.276 423.389 205.748C423.349 206.188 423.409 206.572 423.569 206.9C423.737 207.228 423.969 207.484 424.265 207.668C424.569 207.852 424.913 207.944 425.297 207.944C425.689 207.944 426.021 207.856 426.293 207.68C426.573 207.504 426.793 207.276 426.953 206.996L428.057 207.536C427.929 207.84 427.729 208.116 427.457 208.364C427.193 208.604 426.873 208.796 426.497 208.94C426.129 209.076 425.725 209.144 425.285 209.144ZM429.597 209V199.916H430.953V209H429.597Z" fill="#171816"/>
<path d="M372 248C372 243.582 375.582 240 380 240H432C436.418 240 440 243.582 440 248V256C440 260.418 436.418 264 432 264H380C375.582 264 372 260.418 372 256V248Z" fill="#FFF5A7"/>
<path d="M393 246H383C382.735 246 382.48 246.105 382.293 246.293C382.105 246.48 382 246.735 382 247V257C382 257.265 382.105 257.52 382.293 257.707C382.48 257.895 382.735 258 383 258H393C393.265 258 393.52 257.895 393.707 257.707C393.895 257.52 394 257.265 394 257V247C394 246.735 393.895 246.48 393.707 246.293C393.52 246.105 393.265 246 393 246ZM383 257V247.707L392.293 257H383ZM383.707 247H393V256.294L383.707 247Z" fill="#171816"/>
<path d="M400.924 257V248.06H402.34V255.74H406.204V257H400.924ZM409.205 257.144C408.765 257.144 408.377 257.068 408.041 256.916C407.713 256.756 407.457 256.54 407.273 256.268C407.089 255.988 406.997 255.66 406.997 255.284C406.997 254.932 407.073 254.616 407.225 254.336C407.385 254.056 407.629 253.82 407.957 253.628C408.285 253.436 408.697 253.3 409.193 253.22L411.449 252.848V253.916L409.457 254.264C409.097 254.328 408.833 254.444 408.665 254.612C408.497 254.772 408.413 254.98 408.413 255.236C408.413 255.484 408.505 255.688 408.689 255.848C408.881 256 409.125 256.076 409.421 256.076C409.789 256.076 410.109 255.996 410.381 255.836C410.661 255.676 410.877 255.464 411.029 255.2C411.181 254.928 411.257 254.628 411.257 254.3V252.632C411.257 252.312 411.137 252.052 410.897 251.852C410.665 251.644 410.353 251.54 409.961 251.54C409.601 251.54 409.285 251.636 409.013 251.828C408.749 252.012 408.553 252.252 408.425 252.548L407.297 251.984C407.417 251.664 407.613 251.384 407.885 251.144C408.157 250.896 408.473 250.704 408.833 250.568C409.201 250.432 409.589 250.364 409.997 250.364C410.509 250.364 410.961 250.46 411.353 250.652C411.753 250.844 412.061 251.112 412.277 251.456C412.501 251.792 412.613 252.184 412.613 252.632V257H411.317V255.824L411.593 255.86C411.441 256.124 411.245 256.352 411.005 256.544C410.773 256.736 410.505 256.884 410.201 256.988C409.905 257.092 409.573 257.144 409.205 257.144ZM417.666 257.144C417.162 257.144 416.702 257.04 416.286 256.832C415.878 256.624 415.562 256.324 415.338 255.932L415.494 255.68V257H414.198V247.916H415.554V251.852L415.338 251.54C415.578 251.172 415.898 250.884 416.298 250.676C416.698 250.468 417.154 250.364 417.666 250.364C418.282 250.364 418.834 250.512 419.322 250.808C419.818 251.104 420.206 251.508 420.486 252.02C420.774 252.532 420.918 253.108 420.918 253.748C420.918 254.388 420.774 254.964 420.486 255.476C420.206 255.988 419.822 256.396 419.334 256.7C418.846 256.996 418.29 257.144 417.666 257.144ZM417.534 255.884C417.918 255.884 418.258 255.792 418.554 255.608C418.85 255.424 419.082 255.172 419.25 254.852C419.426 254.524 419.514 254.156 419.514 253.748C419.514 253.34 419.426 252.976 419.25 252.656C419.082 252.336 418.85 252.084 418.554 251.9C418.258 251.716 417.918 251.624 417.534 251.624C417.158 251.624 416.818 251.716 416.514 251.9C416.218 252.084 415.982 252.336 415.806 252.656C415.638 252.976 415.554 253.34 415.554 253.748C415.554 254.156 415.638 254.524 415.806 254.852C415.982 255.172 416.218 255.424 416.514 255.608C416.818 255.792 417.158 255.884 417.534 255.884ZM425.285 257.144C424.637 257.144 424.061 256.996 423.557 256.7C423.061 256.396 422.673 255.988 422.393 255.476C422.113 254.956 421.973 254.376 421.973 253.736C421.973 253.08 422.113 252.5 422.393 251.996C422.681 251.492 423.065 251.096 423.545 250.808C424.025 250.512 424.569 250.364 425.177 250.364C425.665 250.364 426.101 250.448 426.485 250.616C426.869 250.784 427.193 251.016 427.457 251.312C427.721 251.6 427.921 251.932 428.057 252.308C428.201 252.684 428.273 253.084 428.273 253.508C428.273 253.612 428.269 253.72 428.261 253.832C428.253 253.944 428.237 254.048 428.213 254.144H423.041V253.064H427.445L426.797 253.556C426.877 253.164 426.849 252.816 426.713 252.512C426.585 252.2 426.385 251.956 426.113 251.78C425.849 251.596 425.537 251.504 425.177 251.504C424.817 251.504 424.497 251.596 424.217 251.78C423.937 251.956 423.721 252.212 423.569 252.548C423.417 252.876 423.357 253.276 423.389 253.748C423.349 254.188 423.409 254.572 423.569 254.9C423.737 255.228 423.969 255.484 424.265 255.668C424.569 255.852 424.913 255.944 425.297 255.944C425.689 255.944 426.021 255.856 426.293 255.68C426.573 255.504 426.793 255.276 426.953 254.996L428.057 255.536C427.929 255.84 427.729 256.116 427.457 256.364C427.193 256.604 426.873 256.796 426.497 256.94C426.129 257.076 425.725 257.144 425.285 257.144ZM429.597 257V247.916H430.953V257H429.597Z" fill="#171816"/>
<path d="M372 296C372 291.582 375.582 288 380 288H432C436.418 288 440 291.582 440 296V304C440 308.418 436.418 312 432 312H380C375.582 312 372 308.418 372 304V296Z" fill="#DBECEA"/>
<path d="M393 294H383C382.735 294 382.48 294.105 382.293 294.293C382.105 294.48 382 294.735 382 295V305C382 305.265 382.105 305.52 382.293 305.707C382.48 305.895 382.735 306 383 306H393C393.265 306 393.52 305.895 393.707 305.707C393.895 305.52 394 305.265 394 305V295C394 294.735 393.895 294.48 393.707 294.293C393.52 294.105 393.265 294 393 294ZM383 305V295.707L392.293 305H383ZM383.707 295H393V304.294L383.707 295Z" fill="#171816"/>
<path d="M400.924 305V296.06H402.34V303.74H406.204V305H400.924ZM409.205 305.144C408.765 305.144 408.377 305.068 408.041 304.916C407.713 304.756 407.457 304.54 407.273 304.268C407.089 303.988 406.997 303.66 406.997 303.284C406.997 302.932 407.073 302.616 407.225 302.336C407.385 302.056 407.629 301.82 407.957 301.628C408.285 301.436 408.697 301.3 409.193 301.22L411.449 300.848V301.916L409.457 302.264C409.097 302.328 408.833 302.444 408.665 302.612C408.497 302.772 408.413 302.98 408.413 303.236C408.413 303.484 408.505 303.688 408.689 303.848C408.881 304 409.125 304.076 409.421 304.076C409.789 304.076 410.109 303.996 410.381 303.836C410.661 303.676 410.877 303.464 411.029 303.2C411.181 302.928 411.257 302.628 411.257 302.3V300.632C411.257 300.312 411.137 300.052 410.897 299.852C410.665 299.644 410.353 299.54 409.961 299.54C409.601 299.54 409.285 299.636 409.013 299.828C408.749 300.012 408.553 300.252 408.425 300.548L407.297 299.984C407.417 299.664 407.613 299.384 407.885 299.144C408.157 298.896 408.473 298.704 408.833 298.568C409.201 298.432 409.589 298.364 409.997 298.364C410.509 298.364 410.961 298.46 411.353 298.652C411.753 298.844 412.061 299.112 412.277 299.456C412.501 299.792 412.613 300.184 412.613 300.632V305H411.317V303.824L411.593 303.86C411.441 304.124 411.245 304.352 411.005 304.544C410.773 304.736 410.505 304.884 410.201 304.988C409.905 305.092 409.573 305.144 409.205 305.144ZM417.666 305.144C417.162 305.144 416.702 305.04 416.286 304.832C415.878 304.624 415.562 304.324 415.338 303.932L415.494 303.68V305H414.198V295.916H415.554V299.852L415.338 299.54C415.578 299.172 415.898 298.884 416.298 298.676C416.698 298.468 417.154 298.364 417.666 298.364C418.282 298.364 418.834 298.512 419.322 298.808C419.818 299.104 420.206 299.508 420.486 300.02C420.774 300.532 420.918 301.108 420.918 301.748C420.918 302.388 420.774 302.964 420.486 303.476C420.206 303.988 419.822 304.396 419.334 304.7C418.846 304.996 418.29 305.144 417.666 305.144ZM417.534 303.884C417.918 303.884 418.258 303.792 418.554 303.608C418.85 303.424 419.082 303.172 419.25 302.852C419.426 302.524 419.514 302.156 419.514 301.748C419.514 301.34 419.426 300.976 419.25 300.656C419.082 300.336 418.85 300.084 418.554 299.9C418.258 299.716 417.918 299.624 417.534 299.624C417.158 299.624 416.818 299.716 416.514 299.9C416.218 300.084 415.982 300.336 415.806 300.656C415.638 300.976 415.554 301.34 415.554 301.748C415.554 302.156 415.638 302.524 415.806 302.852C415.982 303.172 416.218 303.424 416.514 303.608C416.818 303.792 417.158 303.884 417.534 303.884ZM425.285 305.144C424.637 305.144 424.061 304.996 423.557 304.7C423.061 304.396 422.673 303.988 422.393 303.476C422.113 302.956 421.973 302.376 421.973 301.736C421.973 301.08 422.113 300.5 422.393 299.996C422.681 299.492 423.065 299.096 423.545 298.808C424.025 298.512 424.569 298.364 425.177 298.364C425.665 298.364 426.101 298.448 426.485 298.616C426.869 298.784 427.193 299.016 427.457 299.312C427.721 299.6 427.921 299.932 428.057 300.308C428.201 300.684 428.273 301.084 428.273 301.508C428.273 301.612 428.269 301.72 428.261 301.832C428.253 301.944 428.237 302.048 428.213 302.144H423.041V301.064H427.445L426.797 301.556C426.877 301.164 426.849 300.816 426.713 300.512C426.585 300.2 426.385 299.956 426.113 299.78C425.849 299.596 425.537 299.504 425.177 299.504C424.817 299.504 424.497 299.596 424.217 299.78C423.937 299.956 423.721 300.212 423.569 300.548C423.417 300.876 423.357 301.276 423.389 301.748C423.349 302.188 423.409 302.572 423.569 302.9C423.737 303.228 423.969 303.484 424.265 303.668C424.569 303.852 424.913 303.944 425.297 303.944C425.689 303.944 426.021 303.856 426.293 303.68C426.573 303.504 426.793 303.276 426.953 302.996L428.057 303.536C427.929 303.84 427.729 304.116 427.457 304.364C427.193 304.604 426.873 304.796 426.497 304.94C426.129 305.076 425.725 305.144 425.285 305.144ZM429.597 305V295.916H430.953V305H429.597Z" fill="#171816"/>
</svg>
