<svg width="600" height="360" viewBox="0 0 600 360" fill="none" xmlns="http://www.w3.org/2000/svg">
<rect x="0.5" y="0.5" width="599" height="359" rx="15.5" fill="white"/>
<rect x="0.5" y="0.5" width="599" height="359" rx="15.5" stroke="#E6E7E5"/>
<path d="M148.828 37V28.06H150.244V35.74H154.108V37H148.828ZM155.165 37V30.508H156.521V37H155.165ZM155.165 29.62V28.06H156.521V29.62H155.165ZM161.238 39.64C160.766 39.64 160.33 39.564 159.93 39.412C159.53 39.26 159.186 39.048 158.898 38.776C158.61 38.512 158.394 38.2 158.25 37.84L159.498 37.324C159.61 37.628 159.814 37.88 160.11 38.08C160.414 38.28 160.786 38.38 161.226 38.38C161.57 38.38 161.878 38.312 162.15 38.176C162.422 38.048 162.638 37.856 162.798 37.6C162.958 37.352 163.038 37.052 163.038 36.7V35.236L163.278 35.512C163.054 35.928 162.742 36.244 162.342 36.46C161.95 36.676 161.506 36.784 161.01 36.784C160.41 36.784 159.87 36.644 159.39 36.364C158.91 36.084 158.53 35.7 158.25 35.212C157.978 34.724 157.842 34.176 157.842 33.568C157.842 32.952 157.978 32.404 158.25 31.924C158.53 31.444 158.906 31.064 159.378 30.784C159.85 30.504 160.39 30.364 160.998 30.364C161.494 30.364 161.934 30.472 162.318 30.688C162.71 30.896 163.03 31.2 163.278 31.6L163.098 31.936V30.508H164.382V36.7C164.382 37.26 164.246 37.76 163.974 38.2C163.71 38.648 163.342 39 162.87 39.256C162.398 39.512 161.854 39.64 161.238 39.64ZM161.166 35.524C161.526 35.524 161.846 35.44 162.126 35.272C162.406 35.096 162.626 34.864 162.786 34.576C162.954 34.28 163.038 33.948 163.038 33.58C163.038 33.212 162.954 32.88 162.786 32.584C162.618 32.288 162.394 32.056 162.114 31.888C161.834 31.712 161.518 31.624 161.166 31.624C160.798 31.624 160.47 31.712 160.182 31.888C159.894 32.056 159.666 32.288 159.498 32.584C159.338 32.872 159.258 33.204 159.258 33.58C159.258 33.94 159.338 34.268 159.498 34.564C159.666 34.86 159.894 35.096 160.182 35.272C160.47 35.44 160.798 35.524 161.166 35.524ZM165.97 37V27.916H167.326V31.78L167.11 31.612C167.27 31.204 167.526 30.896 167.878 30.688C168.23 30.472 168.638 30.364 169.102 30.364C169.582 30.364 170.006 30.468 170.374 30.676C170.742 30.884 171.03 31.172 171.238 31.54C171.446 31.908 171.55 32.328 171.55 32.8V37H170.206V33.172C170.206 32.844 170.142 32.568 170.014 32.344C169.894 32.112 169.726 31.936 169.51 31.816C169.294 31.688 169.046 31.624 168.766 31.624C168.494 31.624 168.246 31.688 168.022 31.816C167.806 31.936 167.634 32.112 167.506 32.344C167.386 32.576 167.326 32.852 167.326 33.172V37H165.97ZM175.809 37.072C175.129 37.072 174.601 36.88 174.225 36.496C173.849 36.112 173.661 35.572 173.661 34.876V31.732H172.521V30.508H172.701C173.005 30.508 173.241 30.42 173.409 30.244C173.577 30.068 173.661 29.828 173.661 29.524V29.02H175.017V30.508H176.493V31.732H175.017V34.816C175.017 35.04 175.053 35.232 175.125 35.392C175.197 35.544 175.313 35.664 175.473 35.752C175.633 35.832 175.841 35.872 176.097 35.872C176.161 35.872 176.233 35.868 176.313 35.86C176.393 35.852 176.469 35.844 176.541 35.836V37C176.429 37.016 176.305 37.032 176.169 37.048C176.033 37.064 175.913 37.072 175.809 37.072ZM180.094 37V28.06H181.414L184.774 32.716H184.114L187.414 28.06H188.734V37H187.33V29.728L187.858 29.872L184.486 34.48H184.342L181.042 29.872L181.51 29.728V37H180.094ZM193.582 37.144C192.958 37.144 192.386 36.996 191.866 36.7C191.354 36.404 190.946 36 190.642 35.488C190.338 34.976 190.186 34.396 190.186 33.748C190.186 33.092 190.338 32.512 190.642 32.008C190.946 31.496 191.354 31.096 191.866 30.808C192.378 30.512 192.95 30.364 193.582 30.364C194.222 30.364 194.794 30.512 195.298 30.808C195.81 31.096 196.214 31.496 196.51 32.008C196.814 32.512 196.966 33.092 196.966 33.748C196.966 34.404 196.814 34.988 196.51 35.5C196.206 36.012 195.798 36.416 195.286 36.712C194.774 37 194.206 37.144 193.582 37.144ZM193.582 35.884C193.966 35.884 194.306 35.792 194.602 35.608C194.898 35.424 195.13 35.172 195.298 34.852C195.474 34.524 195.562 34.156 195.562 33.748C195.562 33.34 195.474 32.976 195.298 32.656C195.13 32.336 194.898 32.084 194.602 31.9C194.306 31.716 193.966 31.624 193.582 31.624C193.206 31.624 192.866 31.716 192.562 31.9C192.266 32.084 192.03 32.336 191.854 32.656C191.686 32.976 191.602 33.34 191.602 33.748C191.602 34.156 191.686 34.524 191.854 34.852C192.03 35.172 192.266 35.424 192.562 35.608C192.866 35.792 193.206 35.884 193.582 35.884ZM201.29 37.144C200.666 37.144 200.106 36.996 199.61 36.7C199.122 36.396 198.734 35.988 198.446 35.476C198.166 34.964 198.026 34.388 198.026 33.748C198.026 33.108 198.17 32.532 198.458 32.02C198.746 31.508 199.134 31.104 199.622 30.808C200.11 30.512 200.662 30.364 201.278 30.364C201.798 30.364 202.258 30.468 202.658 30.676C203.058 30.884 203.374 31.172 203.606 31.54L203.402 31.852V27.916H204.746V37H203.462V35.68L203.618 35.932C203.394 36.324 203.074 36.624 202.658 36.832C202.242 37.04 201.786 37.144 201.29 37.144ZM201.422 35.884C201.798 35.884 202.134 35.792 202.43 35.608C202.734 35.424 202.97 35.172 203.138 34.852C203.314 34.524 203.402 34.156 203.402 33.748C203.402 33.34 203.314 32.976 203.138 32.656C202.97 32.336 202.734 32.084 202.43 31.9C202.134 31.716 201.798 31.624 201.422 31.624C201.046 31.624 200.706 31.716 200.402 31.9C200.098 32.084 199.862 32.336 199.694 32.656C199.526 32.976 199.442 33.34 199.442 33.748C199.442 34.156 199.526 34.524 199.694 34.852C199.862 35.172 200.094 35.424 200.39 35.608C200.694 35.792 201.038 35.884 201.422 35.884ZM209.377 37.144C208.729 37.144 208.153 36.996 207.649 36.7C207.153 36.396 206.765 35.988 206.485 35.476C206.205 34.956 206.065 34.376 206.065 33.736C206.065 33.08 206.205 32.5 206.485 31.996C206.773 31.492 207.157 31.096 207.637 30.808C208.117 30.512 208.661 30.364 209.269 30.364C209.757 30.364 210.193 30.448 210.577 30.616C210.961 30.784 211.285 31.016 211.549 31.312C211.813 31.6 212.013 31.932 212.149 32.308C212.293 32.684 212.365 33.084 212.365 33.508C212.365 33.612 212.361 33.72 212.353 33.832C212.345 33.944 212.329 34.048 212.305 34.144H207.133V33.064H211.537L210.889 33.556C210.969 33.164 210.941 32.816 210.805 32.512C210.677 32.2 210.477 31.956 210.205 31.78C209.941 31.596 209.629 31.504 209.269 31.504C208.909 31.504 208.589 31.596 208.309 31.78C208.029 31.956 207.813 32.212 207.661 32.548C207.509 32.876 207.449 33.276 207.481 33.748C207.441 34.188 207.501 34.572 207.661 34.9C207.829 35.228 208.061 35.484 208.357 35.668C208.661 35.852 209.005 35.944 209.389 35.944C209.781 35.944 210.113 35.856 210.385 35.68C210.665 35.504 210.885 35.276 211.045 34.996L212.149 35.536C212.021 35.84 211.821 36.116 211.549 36.364C211.285 36.604 210.965 36.796 210.589 36.94C210.221 37.076 209.817 37.144 209.377 37.144ZM217.358 37L215.126 30.508H216.566L218.27 35.68H217.766L219.506 30.508H220.742L222.47 35.68H221.966L223.682 30.508H225.122L222.878 37H221.654L219.902 31.708H220.346L218.594 37H217.358ZM226.052 37V30.508H227.408V37H226.052ZM226.052 29.62V28.06H227.408V29.62H226.052ZM231.801 37.072C231.121 37.072 230.593 36.88 230.217 36.496C229.841 36.112 229.653 35.572 229.653 34.876V31.732H228.513V30.508H228.693C228.997 30.508 229.233 30.42 229.401 30.244C229.569 30.068 229.653 29.828 229.653 29.524V29.02H231.009V30.508H232.485V31.732H231.009V34.816C231.009 35.04 231.045 35.232 231.117 35.392C231.189 35.544 231.305 35.664 231.465 35.752C231.625 35.832 231.833 35.872 232.089 35.872C232.153 35.872 232.225 35.868 232.305 35.86C232.385 35.852 232.461 35.844 232.533 35.836V37C232.421 37.016 232.297 37.032 232.161 37.048C232.025 37.064 231.905 37.072 231.801 37.072ZM233.856 37V27.916H235.212V31.78L234.996 31.612C235.156 31.204 235.412 30.896 235.764 30.688C236.116 30.472 236.524 30.364 236.988 30.364C237.468 30.364 237.892 30.468 238.26 30.676C238.628 30.884 238.916 31.172 239.124 31.54C239.332 31.908 239.436 32.328 239.436 32.8V37H238.092V33.172C238.092 32.844 238.028 32.568 237.9 32.344C237.78 32.112 237.612 31.936 237.396 31.816C237.18 31.688 236.932 31.624 236.652 31.624C236.38 31.624 236.132 31.688 235.908 31.816C235.692 31.936 235.52 32.112 235.392 32.344C235.272 32.576 235.212 32.852 235.212 33.172V37H233.856ZM151.751 53V45.26H150.035V44.06H153.155V53H151.751ZM156.45 53V45.26H154.734V44.06H157.854V53H156.45ZM160.429 53V51.44H161.809V53H160.429ZM166.977 53.144C166.353 53.144 165.805 53.024 165.333 52.784C164.869 52.536 164.509 52.208 164.253 51.8C163.997 51.384 163.869 50.924 163.869 50.42C163.869 49.844 164.025 49.348 164.337 48.932C164.657 48.508 165.105 48.2 165.681 48.008L165.621 48.368C165.197 48.208 164.861 47.94 164.613 47.564C164.373 47.18 164.253 46.76 164.253 46.304C164.253 45.848 164.369 45.44 164.601 45.08C164.841 44.72 165.165 44.436 165.573 44.228C165.989 44.02 166.457 43.916 166.977 43.916C167.505 43.916 167.973 44.02 168.381 44.228C168.789 44.428 169.109 44.708 169.341 45.068C169.581 45.428 169.701 45.84 169.701 46.304C169.701 46.776 169.577 47.2 169.329 47.576C169.089 47.944 168.761 48.208 168.345 48.368L168.285 48.008C168.861 48.208 169.309 48.516 169.629 48.932C169.949 49.348 170.109 49.844 170.109 50.42C170.109 50.924 169.977 51.384 169.713 51.8C169.457 52.208 169.093 52.536 168.621 52.784C168.149 53.024 167.601 53.144 166.977 53.144ZM166.977 51.944C167.321 51.944 167.621 51.88 167.877 51.752C168.133 51.616 168.333 51.432 168.477 51.2C168.621 50.968 168.693 50.696 168.693 50.384C168.693 50.072 168.621 49.8 168.477 49.568C168.333 49.336 168.133 49.156 167.877 49.028C167.621 48.9 167.321 48.836 166.977 48.836C166.641 48.836 166.345 48.9 166.089 49.028C165.833 49.156 165.633 49.336 165.489 49.568C165.345 49.8 165.273 50.072 165.273 50.384C165.273 50.696 165.345 50.968 165.489 51.2C165.633 51.432 165.833 51.616 166.089 51.752C166.345 51.88 166.641 51.944 166.977 51.944ZM166.977 47.636C167.233 47.636 167.457 47.584 167.649 47.48C167.849 47.368 168.005 47.216 168.117 47.024C168.229 46.832 168.285 46.616 168.285 46.376C168.285 46.128 168.229 45.912 168.117 45.728C168.005 45.536 167.849 45.388 167.649 45.284C167.457 45.172 167.233 45.116 166.977 45.116C166.729 45.116 166.505 45.172 166.305 45.284C166.105 45.388 165.949 45.536 165.837 45.728C165.725 45.912 165.669 46.128 165.669 46.376C165.669 46.616 165.725 46.832 165.837 47.024C165.949 47.216 166.105 47.368 166.305 47.48C166.505 47.584 166.729 47.636 166.977 47.636ZM174.284 53.144C173.804 53.144 173.352 53.056 172.928 52.88C172.512 52.704 172.152 52.456 171.848 52.136C171.552 51.816 171.34 51.44 171.212 51.008L172.412 50.552C172.572 50.976 172.816 51.304 173.144 51.536C173.472 51.768 173.852 51.884 174.284 51.884C174.636 51.884 174.94 51.816 175.196 51.68C175.46 51.544 175.664 51.352 175.808 51.104C175.96 50.856 176.036 50.556 176.036 50.204C176.036 49.86 175.96 49.564 175.808 49.316C175.664 49.068 175.46 48.88 175.196 48.752C174.94 48.624 174.636 48.56 174.284 48.56C174.14 48.56 173.992 48.572 173.84 48.596C173.696 48.62 173.568 48.652 173.456 48.692L173.144 48.032L175.496 45.26H171.692V44.06H177.08V45.2L174.776 47.96L174.74 47.504C175.276 47.512 175.748 47.632 176.156 47.864C176.564 48.088 176.88 48.4 177.104 48.8C177.336 49.192 177.452 49.648 177.452 50.168C177.452 50.728 177.316 51.236 177.044 51.692C176.772 52.14 176.396 52.496 175.916 52.76C175.444 53.016 174.9 53.144 174.284 53.144ZM179.496 53V51.44H180.876V53H179.496ZM179.496 48.068V46.508H180.876V48.068H179.496ZM184.376 53V45.26H182.66V44.06H185.78V53H184.376ZM192.937 53.144C192.289 53.144 191.713 52.996 191.209 52.7C190.713 52.396 190.317 51.988 190.021 51.476C189.733 50.964 189.589 50.384 189.589 49.736C189.589 49.096 189.733 48.52 190.021 48.008C190.309 47.496 190.705 47.096 191.209 46.808C191.713 46.512 192.289 46.364 192.937 46.364C193.377 46.364 193.789 46.444 194.173 46.604C194.557 46.756 194.889 46.968 195.169 47.24C195.457 47.512 195.669 47.828 195.805 48.188L194.617 48.74C194.481 48.404 194.261 48.136 193.957 47.936C193.661 47.728 193.321 47.624 192.937 47.624C192.569 47.624 192.237 47.716 191.941 47.9C191.653 48.076 191.425 48.328 191.257 48.656C191.089 48.976 191.005 49.34 191.005 49.748C191.005 50.156 191.089 50.524 191.257 50.852C191.425 51.172 191.653 51.424 191.941 51.608C192.237 51.792 192.569 51.884 192.937 51.884C193.329 51.884 193.669 51.784 193.957 51.584C194.253 51.376 194.473 51.1 194.617 50.756L195.805 51.32C195.677 51.664 195.469 51.976 195.181 52.256C194.901 52.528 194.569 52.744 194.185 52.904C193.801 53.064 193.385 53.144 192.937 53.144ZM200.262 53.144C199.638 53.144 199.066 52.996 198.546 52.7C198.034 52.404 197.626 52 197.322 51.488C197.018 50.976 196.866 50.396 196.866 49.748C196.866 49.092 197.018 48.512 197.322 48.008C197.626 47.496 198.034 47.096 198.546 46.808C199.058 46.512 199.63 46.364 200.262 46.364C200.902 46.364 201.474 46.512 201.978 46.808C202.49 47.096 202.894 47.496 203.19 48.008C203.494 48.512 203.646 49.092 203.646 49.748C203.646 50.404 203.494 50.988 203.19 51.5C202.886 52.012 202.478 52.416 201.966 52.712C201.454 53 200.886 53.144 200.262 53.144ZM200.262 51.884C200.646 51.884 200.986 51.792 201.282 51.608C201.578 51.424 201.81 51.172 201.978 50.852C202.154 50.524 202.242 50.156 202.242 49.748C202.242 49.34 202.154 48.976 201.978 48.656C201.81 48.336 201.578 48.084 201.282 47.9C200.986 47.716 200.646 47.624 200.262 47.624C199.886 47.624 199.546 47.716 199.242 47.9C198.946 48.084 198.71 48.336 198.534 48.656C198.366 48.976 198.282 49.34 198.282 49.748C198.282 50.156 198.366 50.524 198.534 50.852C198.71 51.172 198.946 51.424 199.242 51.608C199.546 51.792 199.886 51.884 200.262 51.884ZM204.97 53V46.508H206.266V47.78L206.11 47.612C206.27 47.204 206.526 46.896 206.878 46.688C207.23 46.472 207.638 46.364 208.102 46.364C208.582 46.364 209.006 46.468 209.374 46.676C209.742 46.884 210.03 47.172 210.238 47.54C210.446 47.908 210.55 48.332 210.55 48.812V53H209.206V49.172C209.206 48.844 209.146 48.568 209.026 48.344C208.906 48.112 208.734 47.936 208.51 47.816C208.294 47.688 208.046 47.624 207.766 47.624C207.486 47.624 207.234 47.688 207.01 47.816C206.794 47.936 206.626 48.112 206.506 48.344C206.386 48.576 206.326 48.852 206.326 49.172V53H204.97ZM214.809 53.072C214.129 53.072 213.601 52.88 213.225 52.496C212.849 52.112 212.661 51.572 212.661 50.876V47.732H211.521V46.508H211.701C212.005 46.508 212.241 46.42 212.409 46.244C212.577 46.068 212.661 45.828 212.661 45.524V45.02H214.017V46.508H215.493V47.732H214.017V50.816C214.017 51.04 214.053 51.232 214.125 51.392C214.197 51.544 214.313 51.664 214.473 51.752C214.633 51.832 214.841 51.872 215.097 51.872C215.161 51.872 215.233 51.868 215.313 51.86C215.393 51.852 215.469 51.844 215.541 51.836V53C215.429 53.016 215.305 53.032 215.169 53.048C215.033 53.064 214.913 53.072 214.809 53.072ZM216.864 53V46.508H218.16V47.816L218.04 47.624C218.184 47.2 218.416 46.896 218.736 46.712C219.056 46.52 219.44 46.424 219.888 46.424H220.284V47.66H219.72C219.272 47.66 218.908 47.8 218.628 48.08C218.356 48.352 218.22 48.744 218.22 49.256V53H216.864ZM223.156 53.144C222.716 53.144 222.328 53.068 221.992 52.916C221.664 52.756 221.408 52.54 221.224 52.268C221.04 51.988 220.948 51.66 220.948 51.284C220.948 50.932 221.024 50.616 221.176 50.336C221.336 50.056 221.58 49.82 221.908 49.628C222.236 49.436 222.648 49.3 223.144 49.22L225.4 48.848V49.916L223.408 50.264C223.048 50.328 222.784 50.444 222.616 50.612C222.448 50.772 222.364 50.98 222.364 51.236C222.364 51.484 222.456 51.688 222.64 51.848C222.832 52 223.076 52.076 223.372 52.076C223.74 52.076 224.06 51.996 224.332 51.836C224.612 51.676 224.828 51.464 224.98 51.2C225.132 50.928 225.208 50.628 225.208 50.3V48.632C225.208 48.312 225.088 48.052 224.848 47.852C224.616 47.644 224.304 47.54 223.912 47.54C223.552 47.54 223.236 47.636 222.964 47.828C222.7 48.012 222.504 48.252 222.376 48.548L221.248 47.984C221.368 47.664 221.564 47.384 221.836 47.144C222.108 46.896 222.424 46.704 222.784 46.568C223.152 46.432 223.54 46.364 223.948 46.364C224.46 46.364 224.912 46.46 225.304 46.652C225.704 46.844 226.012 47.112 226.228 47.456C226.452 47.792 226.564 48.184 226.564 48.632V53H225.268V51.824L225.544 51.86C225.392 52.124 225.196 52.352 224.956 52.544C224.724 52.736 224.456 52.884 224.152 52.988C223.856 53.092 223.524 53.144 223.156 53.144ZM230.549 53.144C229.885 53.144 229.301 52.98 228.797 52.652C228.301 52.324 227.953 51.884 227.753 51.332L228.797 50.84C228.973 51.208 229.213 51.5 229.517 51.716C229.829 51.932 230.173 52.04 230.549 52.04C230.869 52.04 231.129 51.968 231.329 51.824C231.529 51.68 231.629 51.484 231.629 51.236C231.629 51.076 231.585 50.948 231.497 50.852C231.409 50.748 231.297 50.664 231.161 50.6C231.033 50.536 230.901 50.488 230.765 50.456L229.745 50.168C229.185 50.008 228.765 49.768 228.485 49.448C228.213 49.12 228.077 48.74 228.077 48.308C228.077 47.916 228.177 47.576 228.377 47.288C228.577 46.992 228.853 46.764 229.205 46.604C229.557 46.444 229.953 46.364 230.393 46.364C230.985 46.364 231.513 46.512 231.977 46.808C232.441 47.096 232.769 47.5 232.961 48.02L231.917 48.512C231.789 48.2 231.585 47.952 231.305 47.768C231.033 47.584 230.725 47.492 230.381 47.492C230.085 47.492 229.849 47.564 229.673 47.708C229.497 47.844 229.409 48.024 229.409 48.248C229.409 48.4 229.449 48.528 229.529 48.632C229.609 48.728 229.713 48.808 229.841 48.872C229.969 48.928 230.101 48.976 230.237 49.016L231.293 49.328C231.829 49.48 232.241 49.72 232.529 50.048C232.817 50.368 232.961 50.752 232.961 51.2C232.961 51.584 232.857 51.924 232.649 52.22C232.449 52.508 232.169 52.736 231.809 52.904C231.449 53.064 231.029 53.144 230.549 53.144ZM237.098 53.072C236.418 53.072 235.89 52.88 235.514 52.496C235.138 52.112 234.95 51.572 234.95 50.876V47.732H233.81V46.508H233.99C234.294 46.508 234.53 46.42 234.698 46.244C234.866 46.068 234.95 45.828 234.95 45.524V45.02H236.306V46.508H237.782V47.732H236.306V50.816C236.306 51.04 236.342 51.232 236.414 51.392C236.486 51.544 236.602 51.664 236.762 51.752C236.922 51.832 237.13 51.872 237.386 51.872C237.45 51.872 237.522 51.868 237.602 51.86C237.682 51.852 237.758 51.844 237.83 51.836V53C237.718 53.016 237.594 53.032 237.458 53.048C237.322 53.064 237.202 53.072 237.098 53.072Z" fill="black"/>
<path d="M361.947 37V28.06H364.875C365.803 28.06 366.607 28.248 367.287 28.624C367.975 28.992 368.507 29.512 368.883 30.184C369.259 30.856 369.447 31.636 369.447 32.524C369.447 33.404 369.259 34.184 368.883 34.864C368.507 35.536 367.975 36.06 367.287 36.436C366.607 36.812 365.803 37 364.875 37H361.947ZM363.363 35.74H364.899C365.531 35.74 366.079 35.608 366.543 35.344C367.015 35.08 367.379 34.708 367.635 34.228C367.891 33.748 368.019 33.18 368.019 32.524C368.019 31.868 367.887 31.304 367.623 30.832C367.367 30.352 367.007 29.98 366.543 29.716C366.079 29.452 365.531 29.32 364.899 29.32H363.363V35.74ZM372.595 37.144C372.155 37.144 371.767 37.068 371.431 36.916C371.103 36.756 370.847 36.54 370.663 36.268C370.479 35.988 370.387 35.66 370.387 35.284C370.387 34.932 370.463 34.616 370.615 34.336C370.775 34.056 371.019 33.82 371.347 33.628C371.675 33.436 372.087 33.3 372.583 33.22L374.839 32.848V33.916L372.847 34.264C372.487 34.328 372.223 34.444 372.055 34.612C371.887 34.772 371.803 34.98 371.803 35.236C371.803 35.484 371.895 35.688 372.079 35.848C372.271 36 372.515 36.076 372.811 36.076C373.179 36.076 373.499 35.996 373.771 35.836C374.051 35.676 374.267 35.464 374.419 35.2C374.571 34.928 374.647 34.628 374.647 34.3V32.632C374.647 32.312 374.527 32.052 374.287 31.852C374.055 31.644 373.743 31.54 373.351 31.54C372.991 31.54 372.675 31.636 372.403 31.828C372.139 32.012 371.943 32.252 371.815 32.548L370.687 31.984C370.807 31.664 371.003 31.384 371.275 31.144C371.547 30.896 371.863 30.704 372.223 30.568C372.591 30.432 372.979 30.364 373.387 30.364C373.899 30.364 374.351 30.46 374.743 30.652C375.143 30.844 375.451 31.112 375.667 31.456C375.891 31.792 376.003 32.184 376.003 32.632V37H374.707V35.824L374.983 35.86C374.831 36.124 374.635 36.352 374.395 36.544C374.163 36.736 373.895 36.884 373.591 36.988C373.295 37.092 372.963 37.144 372.595 37.144ZM377.589 37V30.508H378.885V31.816L378.765 31.624C378.909 31.2 379.141 30.896 379.461 30.712C379.781 30.52 380.165 30.424 380.613 30.424H381.009V31.66H380.445C379.997 31.66 379.633 31.8 379.353 32.08C379.081 32.352 378.945 32.744 378.945 33.256V37H377.589ZM381.937 37V27.916H383.293V34L382.765 33.868L386.017 30.508H387.709L385.261 33.112L387.817 37H386.257L383.977 33.556L384.781 33.448L382.861 35.488L383.293 34.588V37H381.937ZM390.975 37V28.06H392.295L395.655 32.716H394.995L398.295 28.06H399.615V37H398.211V29.728L398.739 29.872L395.367 34.48H395.223L391.923 29.872L392.391 29.728V37H390.975ZM404.463 37.144C403.839 37.144 403.267 36.996 402.747 36.7C402.235 36.404 401.827 36 401.523 35.488C401.219 34.976 401.067 34.396 401.067 33.748C401.067 33.092 401.219 32.512 401.523 32.008C401.827 31.496 402.235 31.096 402.747 30.808C403.259 30.512 403.831 30.364 404.463 30.364C405.103 30.364 405.675 30.512 406.179 30.808C406.691 31.096 407.095 31.496 407.391 32.008C407.695 32.512 407.847 33.092 407.847 33.748C407.847 34.404 407.695 34.988 407.391 35.5C407.087 36.012 406.679 36.416 406.167 36.712C405.655 37 405.087 37.144 404.463 37.144ZM404.463 35.884C404.847 35.884 405.187 35.792 405.483 35.608C405.779 35.424 406.011 35.172 406.179 34.852C406.355 34.524 406.443 34.156 406.443 33.748C406.443 33.34 406.355 32.976 406.179 32.656C406.011 32.336 405.779 32.084 405.483 31.9C405.187 31.716 404.847 31.624 404.463 31.624C404.087 31.624 403.747 31.716 403.443 31.9C403.147 32.084 402.911 32.336 402.735 32.656C402.567 32.976 402.483 33.34 402.483 33.748C402.483 34.156 402.567 34.524 402.735 34.852C402.911 35.172 403.147 35.424 403.443 35.608C403.747 35.792 404.087 35.884 404.463 35.884ZM412.171 37.144C411.547 37.144 410.987 36.996 410.491 36.7C410.003 36.396 409.615 35.988 409.327 35.476C409.047 34.964 408.907 34.388 408.907 33.748C408.907 33.108 409.051 32.532 409.339 32.02C409.627 31.508 410.015 31.104 410.503 30.808C410.991 30.512 411.543 30.364 412.159 30.364C412.679 30.364 413.139 30.468 413.539 30.676C413.939 30.884 414.255 31.172 414.487 31.54L414.283 31.852V27.916H415.627V37H414.343V35.68L414.499 35.932C414.275 36.324 413.955 36.624 413.539 36.832C413.123 37.04 412.667 37.144 412.171 37.144ZM412.303 35.884C412.679 35.884 413.015 35.792 413.311 35.608C413.615 35.424 413.851 35.172 414.019 34.852C414.195 34.524 414.283 34.156 414.283 33.748C414.283 33.34 414.195 32.976 414.019 32.656C413.851 32.336 413.615 32.084 413.311 31.9C413.015 31.716 412.679 31.624 412.303 31.624C411.927 31.624 411.587 31.716 411.283 31.9C410.979 32.084 410.743 32.336 410.575 32.656C410.407 32.976 410.323 33.34 410.323 33.748C410.323 34.156 410.407 34.524 410.575 34.852C410.743 35.172 410.975 35.424 411.271 35.608C411.575 35.792 411.919 35.884 412.303 35.884ZM420.258 37.144C419.61 37.144 419.034 36.996 418.53 36.7C418.034 36.396 417.646 35.988 417.366 35.476C417.086 34.956 416.946 34.376 416.946 33.736C416.946 33.08 417.086 32.5 417.366 31.996C417.654 31.492 418.038 31.096 418.518 30.808C418.998 30.512 419.542 30.364 420.15 30.364C420.638 30.364 421.074 30.448 421.458 30.616C421.842 30.784 422.166 31.016 422.43 31.312C422.694 31.6 422.894 31.932 423.03 32.308C423.174 32.684 423.246 33.084 423.246 33.508C423.246 33.612 423.242 33.72 423.234 33.832C423.226 33.944 423.21 34.048 423.186 34.144H418.014V33.064H422.418L421.77 33.556C421.85 33.164 421.822 32.816 421.686 32.512C421.558 32.2 421.358 31.956 421.086 31.78C420.822 31.596 420.51 31.504 420.15 31.504C419.79 31.504 419.47 31.596 419.19 31.78C418.91 31.956 418.694 32.212 418.542 32.548C418.39 32.876 418.33 33.276 418.362 33.748C418.322 34.188 418.382 34.572 418.542 34.9C418.71 35.228 418.942 35.484 419.238 35.668C419.542 35.852 419.886 35.944 420.27 35.944C420.662 35.944 420.994 35.856 421.266 35.68C421.546 35.504 421.766 35.276 421.926 34.996L423.03 35.536C422.902 35.84 422.702 36.116 422.43 36.364C422.166 36.604 421.846 36.796 421.47 36.94C421.102 37.076 420.698 37.144 420.258 37.144ZM428.239 37L426.007 30.508H427.447L429.151 35.68H428.647L430.387 30.508H431.623L433.351 35.68H432.847L434.563 30.508H436.003L433.759 37H432.535L430.783 31.708H431.227L429.475 37H428.239ZM436.933 37V30.508H438.289V37H436.933ZM436.933 29.62V28.06H438.289V29.62H436.933ZM442.682 37.072C442.002 37.072 441.474 36.88 441.098 36.496C440.722 36.112 440.534 35.572 440.534 34.876V31.732H439.394V30.508H439.574C439.878 30.508 440.114 30.42 440.282 30.244C440.45 30.068 440.534 29.828 440.534 29.524V29.02H441.89V30.508H443.366V31.732H441.89V34.816C441.89 35.04 441.926 35.232 441.998 35.392C442.07 35.544 442.186 35.664 442.346 35.752C442.506 35.832 442.714 35.872 442.97 35.872C443.034 35.872 443.106 35.868 443.186 35.86C443.266 35.852 443.342 35.844 443.414 35.836V37C443.302 37.016 443.178 37.032 443.042 37.048C442.906 37.064 442.786 37.072 442.682 37.072ZM444.737 37V27.916H446.093V31.78L445.877 31.612C446.037 31.204 446.293 30.896 446.645 30.688C446.997 30.472 447.405 30.364 447.869 30.364C448.349 30.364 448.773 30.468 449.141 30.676C449.509 30.884 449.797 31.172 450.005 31.54C450.213 31.908 450.317 32.328 450.317 32.8V37H448.973V33.172C448.973 32.844 448.909 32.568 448.781 32.344C448.661 32.112 448.493 31.936 448.277 31.816C448.061 31.688 447.813 31.624 447.533 31.624C447.261 31.624 447.013 31.688 446.789 31.816C446.573 31.936 446.401 32.112 446.273 32.344C446.153 32.576 446.093 32.852 446.093 33.172V37H444.737ZM369.885 53V45.26H368.169V44.06H371.289V53H369.885ZM373.865 53V51.44H375.245V53H373.865ZM380.149 53.144C379.669 53.144 379.217 53.056 378.793 52.88C378.377 52.704 378.017 52.456 377.713 52.136C377.417 51.816 377.205 51.44 377.077 51.008L378.277 50.552C378.437 50.976 378.681 51.304 379.009 51.536C379.337 51.768 379.717 51.884 380.149 51.884C380.501 51.884 380.805 51.816 381.061 51.68C381.325 51.544 381.529 51.352 381.673 51.104C381.825 50.856 381.901 50.556 381.901 50.204C381.901 49.86 381.825 49.564 381.673 49.316C381.529 49.068 381.325 48.88 381.061 48.752C380.805 48.624 380.501 48.56 380.149 48.56C380.005 48.56 379.857 48.572 379.705 48.596C379.561 48.62 379.433 48.652 379.321 48.692L379.009 48.032L381.361 45.26H377.557V44.06H382.945V45.2L380.641 47.96L380.605 47.504C381.141 47.512 381.613 47.632 382.021 47.864C382.429 48.088 382.745 48.4 382.969 48.8C383.201 49.192 383.317 49.648 383.317 50.168C383.317 50.728 383.181 51.236 382.909 51.692C382.637 52.14 382.261 52.496 381.781 52.76C381.309 53.016 380.765 53.144 380.149 53.144ZM385.361 53V51.44H386.741V53H385.361ZM385.361 48.068V46.508H386.741V48.068H385.361ZM390.241 53V45.26H388.525V44.06H391.645V53H390.241ZM398.802 53.144C398.154 53.144 397.578 52.996 397.074 52.7C396.578 52.396 396.182 51.988 395.886 51.476C395.598 50.964 395.454 50.384 395.454 49.736C395.454 49.096 395.598 48.52 395.886 48.008C396.174 47.496 396.57 47.096 397.074 46.808C397.578 46.512 398.154 46.364 398.802 46.364C399.242 46.364 399.654 46.444 400.038 46.604C400.422 46.756 400.754 46.968 401.034 47.24C401.322 47.512 401.534 47.828 401.67 48.188L400.482 48.74C400.346 48.404 400.126 48.136 399.822 47.936C399.526 47.728 399.186 47.624 398.802 47.624C398.434 47.624 398.102 47.716 397.806 47.9C397.518 48.076 397.29 48.328 397.122 48.656C396.954 48.976 396.87 49.34 396.87 49.748C396.87 50.156 396.954 50.524 397.122 50.852C397.29 51.172 397.518 51.424 397.806 51.608C398.102 51.792 398.434 51.884 398.802 51.884C399.194 51.884 399.534 51.784 399.822 51.584C400.118 51.376 400.338 51.1 400.482 50.756L401.67 51.32C401.542 51.664 401.334 51.976 401.046 52.256C400.766 52.528 400.434 52.744 400.05 52.904C399.666 53.064 399.25 53.144 398.802 53.144ZM406.127 53.144C405.503 53.144 404.931 52.996 404.411 52.7C403.899 52.404 403.491 52 403.187 51.488C402.883 50.976 402.731 50.396 402.731 49.748C402.731 49.092 402.883 48.512 403.187 48.008C403.491 47.496 403.899 47.096 404.411 46.808C404.923 46.512 405.495 46.364 406.127 46.364C406.767 46.364 407.339 46.512 407.843 46.808C408.355 47.096 408.759 47.496 409.055 48.008C409.359 48.512 409.511 49.092 409.511 49.748C409.511 50.404 409.359 50.988 409.055 51.5C408.751 52.012 408.343 52.416 407.831 52.712C407.319 53 406.751 53.144 406.127 53.144ZM406.127 51.884C406.511 51.884 406.851 51.792 407.147 51.608C407.443 51.424 407.675 51.172 407.843 50.852C408.019 50.524 408.107 50.156 408.107 49.748C408.107 49.34 408.019 48.976 407.843 48.656C407.675 48.336 407.443 48.084 407.147 47.9C406.851 47.716 406.511 47.624 406.127 47.624C405.751 47.624 405.411 47.716 405.107 47.9C404.811 48.084 404.575 48.336 404.399 48.656C404.231 48.976 404.147 49.34 404.147 49.748C404.147 50.156 404.231 50.524 404.399 50.852C404.575 51.172 404.811 51.424 405.107 51.608C405.411 51.792 405.751 51.884 406.127 51.884ZM410.835 53V46.508H412.131V47.78L411.975 47.612C412.135 47.204 412.391 46.896 412.743 46.688C413.095 46.472 413.503 46.364 413.967 46.364C414.447 46.364 414.871 46.468 415.239 46.676C415.607 46.884 415.895 47.172 416.103 47.54C416.311 47.908 416.415 48.332 416.415 48.812V53H415.071V49.172C415.071 48.844 415.011 48.568 414.891 48.344C414.771 48.112 414.599 47.936 414.375 47.816C414.159 47.688 413.911 47.624 413.631 47.624C413.351 47.624 413.099 47.688 412.875 47.816C412.659 47.936 412.491 48.112 412.371 48.344C412.251 48.576 412.191 48.852 412.191 49.172V53H410.835ZM420.674 53.072C419.994 53.072 419.466 52.88 419.09 52.496C418.714 52.112 418.526 51.572 418.526 50.876V47.732H417.386V46.508H417.566C417.87 46.508 418.106 46.42 418.274 46.244C418.442 46.068 418.526 45.828 418.526 45.524V45.02H419.882V46.508H421.358V47.732H419.882V50.816C419.882 51.04 419.918 51.232 419.99 51.392C420.062 51.544 420.178 51.664 420.338 51.752C420.498 51.832 420.706 51.872 420.962 51.872C421.026 51.872 421.098 51.868 421.178 51.86C421.258 51.852 421.334 51.844 421.406 51.836V53C421.294 53.016 421.17 53.032 421.034 53.048C420.898 53.064 420.778 53.072 420.674 53.072ZM422.729 53V46.508H424.026V47.816L423.906 47.624C424.05 47.2 424.282 46.896 424.602 46.712C424.922 46.52 425.306 46.424 425.754 46.424H426.15V47.66H425.586C425.138 47.66 424.774 47.8 424.494 48.08C424.222 48.352 424.086 48.744 424.086 49.256V53H422.729ZM429.021 53.144C428.581 53.144 428.193 53.068 427.857 52.916C427.529 52.756 427.273 52.54 427.089 52.268C426.905 51.988 426.813 51.66 426.813 51.284C426.813 50.932 426.889 50.616 427.041 50.336C427.201 50.056 427.445 49.82 427.773 49.628C428.101 49.436 428.513 49.3 429.009 49.22L431.265 48.848V49.916L429.273 50.264C428.913 50.328 428.649 50.444 428.481 50.612C428.313 50.772 428.229 50.98 428.229 51.236C428.229 51.484 428.321 51.688 428.505 51.848C428.697 52 428.941 52.076 429.237 52.076C429.605 52.076 429.925 51.996 430.197 51.836C430.477 51.676 430.693 51.464 430.845 51.2C430.997 50.928 431.073 50.628 431.073 50.3V48.632C431.073 48.312 430.953 48.052 430.713 47.852C430.481 47.644 430.169 47.54 429.777 47.54C429.417 47.54 429.101 47.636 428.829 47.828C428.565 48.012 428.369 48.252 428.241 48.548L427.113 47.984C427.233 47.664 427.429 47.384 427.701 47.144C427.973 46.896 428.289 46.704 428.649 46.568C429.017 46.432 429.405 46.364 429.813 46.364C430.325 46.364 430.777 46.46 431.169 46.652C431.569 46.844 431.877 47.112 432.093 47.456C432.317 47.792 432.429 48.184 432.429 48.632V53H431.133V51.824L431.409 51.86C431.257 52.124 431.061 52.352 430.821 52.544C430.589 52.736 430.321 52.884 430.017 52.988C429.721 53.092 429.389 53.144 429.021 53.144ZM436.415 53.144C435.751 53.144 435.167 52.98 434.663 52.652C434.167 52.324 433.819 51.884 433.619 51.332L434.663 50.84C434.839 51.208 435.079 51.5 435.383 51.716C435.695 51.932 436.039 52.04 436.415 52.04C436.735 52.04 436.995 51.968 437.195 51.824C437.395 51.68 437.495 51.484 437.495 51.236C437.495 51.076 437.451 50.948 437.363 50.852C437.275 50.748 437.163 50.664 437.027 50.6C436.899 50.536 436.767 50.488 436.631 50.456L435.611 50.168C435.051 50.008 434.631 49.768 434.351 49.448C434.079 49.12 433.943 48.74 433.943 48.308C433.943 47.916 434.043 47.576 434.243 47.288C434.443 46.992 434.719 46.764 435.071 46.604C435.423 46.444 435.819 46.364 436.259 46.364C436.851 46.364 437.379 46.512 437.843 46.808C438.307 47.096 438.635 47.5 438.827 48.02L437.783 48.512C437.655 48.2 437.451 47.952 437.171 47.768C436.899 47.584 436.591 47.492 436.247 47.492C435.951 47.492 435.715 47.564 435.539 47.708C435.363 47.844 435.275 48.024 435.275 48.248C435.275 48.4 435.315 48.528 435.395 48.632C435.475 48.728 435.579 48.808 435.707 48.872C435.835 48.928 435.967 48.976 436.103 49.016L437.159 49.328C437.695 49.48 438.107 49.72 438.395 50.048C438.683 50.368 438.827 50.752 438.827 51.2C438.827 51.584 438.723 51.924 438.515 52.22C438.315 52.508 438.035 52.736 437.675 52.904C437.315 53.064 436.895 53.144 436.415 53.144ZM442.963 53.072C442.283 53.072 441.755 52.88 441.379 52.496C441.003 52.112 440.815 51.572 440.815 50.876V47.732H439.675V46.508H439.855C440.159 46.508 440.395 46.42 440.563 46.244C440.731 46.068 440.815 45.828 440.815 45.524V45.02H442.171V46.508H443.647V47.732H442.171V50.816C442.171 51.04 442.207 51.232 442.279 51.392C442.351 51.544 442.467 51.664 442.627 51.752C442.787 51.832 442.995 51.872 443.251 51.872C443.315 51.872 443.387 51.868 443.467 51.86C443.547 51.852 443.623 51.844 443.695 51.836V53C443.583 53.016 443.459 53.032 443.323 53.048C443.187 53.064 443.067 53.072 442.963 53.072Z" fill="black"/>
<rect x="136.5" y="72.5" width="115" height="263" rx="4.5" stroke="#9747FF" stroke-dasharray="10 5"/>
<path d="M160 296C160 291.582 163.582 288 168 288H220C224.418 288 228 291.582 228 296V304C228 308.418 224.418 312 220 312H168C163.582 312 160 308.418 160 304V296Z" fill="#DBECEA"/>
<path d="M181 294H171C170.735 294 170.48 294.105 170.293 294.293C170.105 294.48 170 294.735 170 295V305C170 305.265 170.105 305.52 170.293 305.707C170.48 305.895 170.735 306 171 306H181C181.265 306 181.52 305.895 181.707 305.707C181.895 305.52 182 305.265 182 305V295C182 294.735 181.895 294.48 181.707 294.293C181.52 294.105 181.265 294 181 294ZM171 305V295.707L180.293 305H171ZM171.707 295H181V304.294L171.707 295Z" fill="#292C28"/>
<path d="M188.924 305V296.06H190.34V303.74H194.204V305H188.924ZM197.205 305.144C196.765 305.144 196.377 305.068 196.041 304.916C195.713 304.756 195.457 304.54 195.273 304.268C195.089 303.988 194.997 303.66 194.997 303.284C194.997 302.932 195.073 302.616 195.225 302.336C195.385 302.056 195.629 301.82 195.957 301.628C196.285 301.436 196.697 301.3 197.193 301.22L199.449 300.848V301.916L197.457 302.264C197.097 302.328 196.833 302.444 196.665 302.612C196.497 302.772 196.413 302.98 196.413 303.236C196.413 303.484 196.505 303.688 196.689 303.848C196.881 304 197.125 304.076 197.421 304.076C197.789 304.076 198.109 303.996 198.381 303.836C198.661 303.676 198.877 303.464 199.029 303.2C199.181 302.928 199.257 302.628 199.257 302.3V300.632C199.257 300.312 199.137 300.052 198.897 299.852C198.665 299.644 198.353 299.54 197.961 299.54C197.601 299.54 197.285 299.636 197.013 299.828C196.749 300.012 196.553 300.252 196.425 300.548L195.297 299.984C195.417 299.664 195.613 299.384 195.885 299.144C196.157 298.896 196.473 298.704 196.833 298.568C197.201 298.432 197.589 298.364 197.997 298.364C198.509 298.364 198.961 298.46 199.353 298.652C199.753 298.844 200.061 299.112 200.277 299.456C200.501 299.792 200.613 300.184 200.613 300.632V305H199.317V303.824L199.593 303.86C199.441 304.124 199.245 304.352 199.005 304.544C198.773 304.736 198.505 304.884 198.201 304.988C197.905 305.092 197.573 305.144 197.205 305.144ZM205.666 305.144C205.162 305.144 204.702 305.04 204.286 304.832C203.878 304.624 203.562 304.324 203.338 303.932L203.494 303.68V305H202.198V295.916H203.554V299.852L203.338 299.54C203.578 299.172 203.898 298.884 204.298 298.676C204.698 298.468 205.154 298.364 205.666 298.364C206.282 298.364 206.834 298.512 207.322 298.808C207.818 299.104 208.206 299.508 208.486 300.02C208.774 300.532 208.918 301.108 208.918 301.748C208.918 302.388 208.774 302.964 208.486 303.476C208.206 303.988 207.822 304.396 207.334 304.7C206.846 304.996 206.29 305.144 205.666 305.144ZM205.534 303.884C205.918 303.884 206.258 303.792 206.554 303.608C206.85 303.424 207.082 303.172 207.25 302.852C207.426 302.524 207.514 302.156 207.514 301.748C207.514 301.34 207.426 300.976 207.25 300.656C207.082 300.336 206.85 300.084 206.554 299.9C206.258 299.716 205.918 299.624 205.534 299.624C205.158 299.624 204.818 299.716 204.514 299.9C204.218 300.084 203.982 300.336 203.806 300.656C203.638 300.976 203.554 301.34 203.554 301.748C203.554 302.156 203.638 302.524 203.806 302.852C203.982 303.172 204.218 303.424 204.514 303.608C204.818 303.792 205.158 303.884 205.534 303.884ZM213.285 305.144C212.637 305.144 212.061 304.996 211.557 304.7C211.061 304.396 210.673 303.988 210.393 303.476C210.113 302.956 209.973 302.376 209.973 301.736C209.973 301.08 210.113 300.5 210.393 299.996C210.681 299.492 211.065 299.096 211.545 298.808C212.025 298.512 212.569 298.364 213.177 298.364C213.665 298.364 214.101 298.448 214.485 298.616C214.869 298.784 215.193 299.016 215.457 299.312C215.721 299.6 215.921 299.932 216.057 300.308C216.201 300.684 216.273 301.084 216.273 301.508C216.273 301.612 216.269 301.72 216.261 301.832C216.253 301.944 216.237 302.048 216.213 302.144H211.041V301.064H215.445L214.797 301.556C214.877 301.164 214.849 300.816 214.713 300.512C214.585 300.2 214.385 299.956 214.113 299.78C213.849 299.596 213.537 299.504 213.177 299.504C212.817 299.504 212.497 299.596 212.217 299.78C211.937 299.956 211.721 300.212 211.569 300.548C211.417 300.876 211.357 301.276 211.389 301.748C211.349 302.188 211.409 302.572 211.569 302.9C211.737 303.228 211.969 303.484 212.265 303.668C212.569 303.852 212.913 303.944 213.297 303.944C213.689 303.944 214.021 303.856 214.293 303.68C214.573 303.504 214.793 303.276 214.953 302.996L216.057 303.536C215.929 303.84 215.729 304.116 215.457 304.364C215.193 304.604 214.873 304.796 214.497 304.94C214.129 305.076 213.725 305.144 213.285 305.144ZM217.597 305V295.916H218.953V305H217.597Z" fill="#171816"/>
<path d="M160 248C160 243.582 163.582 240 168 240H220C224.418 240 228 243.582 228 248V256C228 260.418 224.418 264 220 264H168C163.582 264 160 260.418 160 256V248Z" fill="#FFF5A7"/>
<path d="M181 246H171C170.735 246 170.48 246.105 170.293 246.293C170.105 246.48 170 246.735 170 247V257C170 257.265 170.105 257.52 170.293 257.707C170.48 257.895 170.735 258 171 258H181C181.265 258 181.52 257.895 181.707 257.707C181.895 257.52 182 257.265 182 257V247C182 246.735 181.895 246.48 181.707 246.293C181.52 246.105 181.265 246 181 246ZM171 257V247.707L180.293 257H171ZM171.707 247H181V256.294L171.707 247Z" fill="#292C28"/>
<path d="M188.924 257V248.06H190.34V255.74H194.204V257H188.924ZM197.205 257.144C196.765 257.144 196.377 257.068 196.041 256.916C195.713 256.756 195.457 256.54 195.273 256.268C195.089 255.988 194.997 255.66 194.997 255.284C194.997 254.932 195.073 254.616 195.225 254.336C195.385 254.056 195.629 253.82 195.957 253.628C196.285 253.436 196.697 253.3 197.193 253.22L199.449 252.848V253.916L197.457 254.264C197.097 254.328 196.833 254.444 196.665 254.612C196.497 254.772 196.413 254.98 196.413 255.236C196.413 255.484 196.505 255.688 196.689 255.848C196.881 256 197.125 256.076 197.421 256.076C197.789 256.076 198.109 255.996 198.381 255.836C198.661 255.676 198.877 255.464 199.029 255.2C199.181 254.928 199.257 254.628 199.257 254.3V252.632C199.257 252.312 199.137 252.052 198.897 251.852C198.665 251.644 198.353 251.54 197.961 251.54C197.601 251.54 197.285 251.636 197.013 251.828C196.749 252.012 196.553 252.252 196.425 252.548L195.297 251.984C195.417 251.664 195.613 251.384 195.885 251.144C196.157 250.896 196.473 250.704 196.833 250.568C197.201 250.432 197.589 250.364 197.997 250.364C198.509 250.364 198.961 250.46 199.353 250.652C199.753 250.844 200.061 251.112 200.277 251.456C200.501 251.792 200.613 252.184 200.613 252.632V257H199.317V255.824L199.593 255.86C199.441 256.124 199.245 256.352 199.005 256.544C198.773 256.736 198.505 256.884 198.201 256.988C197.905 257.092 197.573 257.144 197.205 257.144ZM205.666 257.144C205.162 257.144 204.702 257.04 204.286 256.832C203.878 256.624 203.562 256.324 203.338 255.932L203.494 255.68V257H202.198V247.916H203.554V251.852L203.338 251.54C203.578 251.172 203.898 250.884 204.298 250.676C204.698 250.468 205.154 250.364 205.666 250.364C206.282 250.364 206.834 250.512 207.322 250.808C207.818 251.104 208.206 251.508 208.486 252.02C208.774 252.532 208.918 253.108 208.918 253.748C208.918 254.388 208.774 254.964 208.486 255.476C208.206 255.988 207.822 256.396 207.334 256.7C206.846 256.996 206.29 257.144 205.666 257.144ZM205.534 255.884C205.918 255.884 206.258 255.792 206.554 255.608C206.85 255.424 207.082 255.172 207.25 254.852C207.426 254.524 207.514 254.156 207.514 253.748C207.514 253.34 207.426 252.976 207.25 252.656C207.082 252.336 206.85 252.084 206.554 251.9C206.258 251.716 205.918 251.624 205.534 251.624C205.158 251.624 204.818 251.716 204.514 251.9C204.218 252.084 203.982 252.336 203.806 252.656C203.638 252.976 203.554 253.34 203.554 253.748C203.554 254.156 203.638 254.524 203.806 254.852C203.982 255.172 204.218 255.424 204.514 255.608C204.818 255.792 205.158 255.884 205.534 255.884ZM213.285 257.144C212.637 257.144 212.061 256.996 211.557 256.7C211.061 256.396 210.673 255.988 210.393 255.476C210.113 254.956 209.973 254.376 209.973 253.736C209.973 253.08 210.113 252.5 210.393 251.996C210.681 251.492 211.065 251.096 211.545 250.808C212.025 250.512 212.569 250.364 213.177 250.364C213.665 250.364 214.101 250.448 214.485 250.616C214.869 250.784 215.193 251.016 215.457 251.312C215.721 251.6 215.921 251.932 216.057 252.308C216.201 252.684 216.273 253.084 216.273 253.508C216.273 253.612 216.269 253.72 216.261 253.832C216.253 253.944 216.237 254.048 216.213 254.144H211.041V253.064H215.445L214.797 253.556C214.877 253.164 214.849 252.816 214.713 252.512C214.585 252.2 214.385 251.956 214.113 251.78C213.849 251.596 213.537 251.504 213.177 251.504C212.817 251.504 212.497 251.596 212.217 251.78C211.937 251.956 211.721 252.212 211.569 252.548C211.417 252.876 211.357 253.276 211.389 253.748C211.349 254.188 211.409 254.572 211.569 254.9C211.737 255.228 211.969 255.484 212.265 255.668C212.569 255.852 212.913 255.944 213.297 255.944C213.689 255.944 214.021 255.856 214.293 255.68C214.573 255.504 214.793 255.276 214.953 254.996L216.057 255.536C215.929 255.84 215.729 256.116 215.457 256.364C215.193 256.604 214.873 256.796 214.497 256.94C214.129 257.076 213.725 257.144 213.285 257.144ZM217.597 257V247.916H218.953V257H217.597Z" fill="#171816"/>
<path d="M160 200C160 195.582 163.582 192 168 192H220C224.418 192 228 195.582 228 200V208C228 212.418 224.418 216 220 216H168C163.582 216 160 212.418 160 208V200Z" fill="#ECDEDB"/>
<path d="M181 198H171C170.735 198 170.48 198.105 170.293 198.293C170.105 198.48 170 198.735 170 199V209C170 209.265 170.105 209.52 170.293 209.707C170.48 209.895 170.735 210 171 210H181C181.265 210 181.52 209.895 181.707 209.707C181.895 209.52 182 209.265 182 209V199C182 198.735 181.895 198.48 181.707 198.293C181.52 198.105 181.265 198 181 198ZM171 209V199.707L180.293 209H171ZM171.707 199H181V208.294L171.707 199Z" fill="#292C28"/>
<path d="M188.924 209V200.06H190.34V207.74H194.204V209H188.924ZM197.205 209.144C196.765 209.144 196.377 209.068 196.041 208.916C195.713 208.756 195.457 208.54 195.273 208.268C195.089 207.988 194.997 207.66 194.997 207.284C194.997 206.932 195.073 206.616 195.225 206.336C195.385 206.056 195.629 205.82 195.957 205.628C196.285 205.436 196.697 205.3 197.193 205.22L199.449 204.848V205.916L197.457 206.264C197.097 206.328 196.833 206.444 196.665 206.612C196.497 206.772 196.413 206.98 196.413 207.236C196.413 207.484 196.505 207.688 196.689 207.848C196.881 208 197.125 208.076 197.421 208.076C197.789 208.076 198.109 207.996 198.381 207.836C198.661 207.676 198.877 207.464 199.029 207.2C199.181 206.928 199.257 206.628 199.257 206.3V204.632C199.257 204.312 199.137 204.052 198.897 203.852C198.665 203.644 198.353 203.54 197.961 203.54C197.601 203.54 197.285 203.636 197.013 203.828C196.749 204.012 196.553 204.252 196.425 204.548L195.297 203.984C195.417 203.664 195.613 203.384 195.885 203.144C196.157 202.896 196.473 202.704 196.833 202.568C197.201 202.432 197.589 202.364 197.997 202.364C198.509 202.364 198.961 202.46 199.353 202.652C199.753 202.844 200.061 203.112 200.277 203.456C200.501 203.792 200.613 204.184 200.613 204.632V209H199.317V207.824L199.593 207.86C199.441 208.124 199.245 208.352 199.005 208.544C198.773 208.736 198.505 208.884 198.201 208.988C197.905 209.092 197.573 209.144 197.205 209.144ZM205.666 209.144C205.162 209.144 204.702 209.04 204.286 208.832C203.878 208.624 203.562 208.324 203.338 207.932L203.494 207.68V209H202.198V199.916H203.554V203.852L203.338 203.54C203.578 203.172 203.898 202.884 204.298 202.676C204.698 202.468 205.154 202.364 205.666 202.364C206.282 202.364 206.834 202.512 207.322 202.808C207.818 203.104 208.206 203.508 208.486 204.02C208.774 204.532 208.918 205.108 208.918 205.748C208.918 206.388 208.774 206.964 208.486 207.476C208.206 207.988 207.822 208.396 207.334 208.7C206.846 208.996 206.29 209.144 205.666 209.144ZM205.534 207.884C205.918 207.884 206.258 207.792 206.554 207.608C206.85 207.424 207.082 207.172 207.25 206.852C207.426 206.524 207.514 206.156 207.514 205.748C207.514 205.34 207.426 204.976 207.25 204.656C207.082 204.336 206.85 204.084 206.554 203.9C206.258 203.716 205.918 203.624 205.534 203.624C205.158 203.624 204.818 203.716 204.514 203.9C204.218 204.084 203.982 204.336 203.806 204.656C203.638 204.976 203.554 205.34 203.554 205.748C203.554 206.156 203.638 206.524 203.806 206.852C203.982 207.172 204.218 207.424 204.514 207.608C204.818 207.792 205.158 207.884 205.534 207.884ZM213.285 209.144C212.637 209.144 212.061 208.996 211.557 208.7C211.061 208.396 210.673 207.988 210.393 207.476C210.113 206.956 209.973 206.376 209.973 205.736C209.973 205.08 210.113 204.5 210.393 203.996C210.681 203.492 211.065 203.096 211.545 202.808C212.025 202.512 212.569 202.364 213.177 202.364C213.665 202.364 214.101 202.448 214.485 202.616C214.869 202.784 215.193 203.016 215.457 203.312C215.721 203.6 215.921 203.932 216.057 204.308C216.201 204.684 216.273 205.084 216.273 205.508C216.273 205.612 216.269 205.72 216.261 205.832C216.253 205.944 216.237 206.048 216.213 206.144H211.041V205.064H215.445L214.797 205.556C214.877 205.164 214.849 204.816 214.713 204.512C214.585 204.2 214.385 203.956 214.113 203.78C213.849 203.596 213.537 203.504 213.177 203.504C212.817 203.504 212.497 203.596 212.217 203.78C211.937 203.956 211.721 204.212 211.569 204.548C211.417 204.876 211.357 205.276 211.389 205.748C211.349 206.188 211.409 206.572 211.569 206.9C211.737 207.228 211.969 207.484 212.265 207.668C212.569 207.852 212.913 207.944 213.297 207.944C213.689 207.944 214.021 207.856 214.293 207.68C214.573 207.504 214.793 207.276 214.953 206.996L216.057 207.536C215.929 207.84 215.729 208.116 215.457 208.364C215.193 208.604 214.873 208.796 214.497 208.94C214.129 209.076 213.725 209.144 213.285 209.144ZM217.597 209V199.916H218.953V209H217.597Z" fill="#171816"/>
<path d="M160 152C160 147.582 163.582 144 168 144H220C224.418 144 228 147.582 228 152V160C228 164.418 224.418 168 220 168H168C163.582 168 160 164.418 160 160V152Z" fill="#14411E"/>
<path d="M181 150H171C170.735 150 170.48 150.105 170.293 150.293C170.105 150.48 170 150.735 170 151V161C170 161.265 170.105 161.52 170.293 161.707C170.48 161.895 170.735 162 171 162H181C181.265 162 181.52 161.895 181.707 161.707C181.895 161.52 182 161.265 182 161V151C182 150.735 181.895 150.48 181.707 150.293C181.52 150.105 181.265 150 181 150ZM171 161V151.707L180.293 161H171ZM171.707 151H181V160.294L171.707 151Z" fill="white"/>
<path d="M188.924 161V152.06H190.34V159.74H194.204V161H188.924ZM197.205 161.144C196.765 161.144 196.377 161.068 196.041 160.916C195.713 160.756 195.457 160.54 195.273 160.268C195.089 159.988 194.997 159.66 194.997 159.284C194.997 158.932 195.073 158.616 195.225 158.336C195.385 158.056 195.629 157.82 195.957 157.628C196.285 157.436 196.697 157.3 197.193 157.22L199.449 156.848V157.916L197.457 158.264C197.097 158.328 196.833 158.444 196.665 158.612C196.497 158.772 196.413 158.98 196.413 159.236C196.413 159.484 196.505 159.688 196.689 159.848C196.881 160 197.125 160.076 197.421 160.076C197.789 160.076 198.109 159.996 198.381 159.836C198.661 159.676 198.877 159.464 199.029 159.2C199.181 158.928 199.257 158.628 199.257 158.3V156.632C199.257 156.312 199.137 156.052 198.897 155.852C198.665 155.644 198.353 155.54 197.961 155.54C197.601 155.54 197.285 155.636 197.013 155.828C196.749 156.012 196.553 156.252 196.425 156.548L195.297 155.984C195.417 155.664 195.613 155.384 195.885 155.144C196.157 154.896 196.473 154.704 196.833 154.568C197.201 154.432 197.589 154.364 197.997 154.364C198.509 154.364 198.961 154.46 199.353 154.652C199.753 154.844 200.061 155.112 200.277 155.456C200.501 155.792 200.613 156.184 200.613 156.632V161H199.317V159.824L199.593 159.86C199.441 160.124 199.245 160.352 199.005 160.544C198.773 160.736 198.505 160.884 198.201 160.988C197.905 161.092 197.573 161.144 197.205 161.144ZM205.666 161.144C205.162 161.144 204.702 161.04 204.286 160.832C203.878 160.624 203.562 160.324 203.338 159.932L203.494 159.68V161H202.198V151.916H203.554V155.852L203.338 155.54C203.578 155.172 203.898 154.884 204.298 154.676C204.698 154.468 205.154 154.364 205.666 154.364C206.282 154.364 206.834 154.512 207.322 154.808C207.818 155.104 208.206 155.508 208.486 156.02C208.774 156.532 208.918 157.108 208.918 157.748C208.918 158.388 208.774 158.964 208.486 159.476C208.206 159.988 207.822 160.396 207.334 160.7C206.846 160.996 206.29 161.144 205.666 161.144ZM205.534 159.884C205.918 159.884 206.258 159.792 206.554 159.608C206.85 159.424 207.082 159.172 207.25 158.852C207.426 158.524 207.514 158.156 207.514 157.748C207.514 157.34 207.426 156.976 207.25 156.656C207.082 156.336 206.85 156.084 206.554 155.9C206.258 155.716 205.918 155.624 205.534 155.624C205.158 155.624 204.818 155.716 204.514 155.9C204.218 156.084 203.982 156.336 203.806 156.656C203.638 156.976 203.554 157.34 203.554 157.748C203.554 158.156 203.638 158.524 203.806 158.852C203.982 159.172 204.218 159.424 204.514 159.608C204.818 159.792 205.158 159.884 205.534 159.884ZM213.285 161.144C212.637 161.144 212.061 160.996 211.557 160.7C211.061 160.396 210.673 159.988 210.393 159.476C210.113 158.956 209.973 158.376 209.973 157.736C209.973 157.08 210.113 156.5 210.393 155.996C210.681 155.492 211.065 155.096 211.545 154.808C212.025 154.512 212.569 154.364 213.177 154.364C213.665 154.364 214.101 154.448 214.485 154.616C214.869 154.784 215.193 155.016 215.457 155.312C215.721 155.6 215.921 155.932 216.057 156.308C216.201 156.684 216.273 157.084 216.273 157.508C216.273 157.612 216.269 157.72 216.261 157.832C216.253 157.944 216.237 158.048 216.213 158.144H211.041V157.064H215.445L214.797 157.556C214.877 157.164 214.849 156.816 214.713 156.512C214.585 156.2 214.385 155.956 214.113 155.78C213.849 155.596 213.537 155.504 213.177 155.504C212.817 155.504 212.497 155.596 212.217 155.78C211.937 155.956 211.721 156.212 211.569 156.548C211.417 156.876 211.357 157.276 211.389 157.748C211.349 158.188 211.409 158.572 211.569 158.9C211.737 159.228 211.969 159.484 212.265 159.668C212.569 159.852 212.913 159.944 213.297 159.944C213.689 159.944 214.021 159.856 214.293 159.68C214.573 159.504 214.793 159.276 214.953 158.996L216.057 159.536C215.929 159.84 215.729 160.116 215.457 160.364C215.193 160.604 214.873 160.796 214.497 160.94C214.129 161.076 213.725 161.144 213.285 161.144ZM217.597 161V151.916H218.953V161H217.597Z" fill="white"/>
<path d="M160 104C160 99.5817 163.582 96 168 96H220C224.418 96 228 99.5817 228 104V112C228 116.418 224.418 120 220 120H168C163.582 120 160 116.418 160 112V104Z" fill="#E9F5E5"/>
<path d="M181 102H171C170.735 102 170.48 102.105 170.293 102.293C170.105 102.48 170 102.735 170 103V113C170 113.265 170.105 113.52 170.293 113.707C170.48 113.895 170.735 114 171 114H181C181.265 114 181.52 113.895 181.707 113.707C181.895 113.52 182 113.265 182 113V103C182 102.735 181.895 102.48 181.707 102.293C181.52 102.105 181.265 102 181 102ZM171 113V103.707L180.293 113H171ZM171.707 103H181V112.294L171.707 103Z" fill="#292C28"/>
<path d="M188.924 113V104.06H190.34V111.74H194.204V113H188.924ZM197.205 113.144C196.765 113.144 196.377 113.068 196.041 112.916C195.713 112.756 195.457 112.54 195.273 112.268C195.089 111.988 194.997 111.66 194.997 111.284C194.997 110.932 195.073 110.616 195.225 110.336C195.385 110.056 195.629 109.82 195.957 109.628C196.285 109.436 196.697 109.3 197.193 109.22L199.449 108.848V109.916L197.457 110.264C197.097 110.328 196.833 110.444 196.665 110.612C196.497 110.772 196.413 110.98 196.413 111.236C196.413 111.484 196.505 111.688 196.689 111.848C196.881 112 197.125 112.076 197.421 112.076C197.789 112.076 198.109 111.996 198.381 111.836C198.661 111.676 198.877 111.464 199.029 111.2C199.181 110.928 199.257 110.628 199.257 110.3V108.632C199.257 108.312 199.137 108.052 198.897 107.852C198.665 107.644 198.353 107.54 197.961 107.54C197.601 107.54 197.285 107.636 197.013 107.828C196.749 108.012 196.553 108.252 196.425 108.548L195.297 107.984C195.417 107.664 195.613 107.384 195.885 107.144C196.157 106.896 196.473 106.704 196.833 106.568C197.201 106.432 197.589 106.364 197.997 106.364C198.509 106.364 198.961 106.46 199.353 106.652C199.753 106.844 200.061 107.112 200.277 107.456C200.501 107.792 200.613 108.184 200.613 108.632V113H199.317V111.824L199.593 111.86C199.441 112.124 199.245 112.352 199.005 112.544C198.773 112.736 198.505 112.884 198.201 112.988C197.905 113.092 197.573 113.144 197.205 113.144ZM205.666 113.144C205.162 113.144 204.702 113.04 204.286 112.832C203.878 112.624 203.562 112.324 203.338 111.932L203.494 111.68V113H202.198V103.916H203.554V107.852L203.338 107.54C203.578 107.172 203.898 106.884 204.298 106.676C204.698 106.468 205.154 106.364 205.666 106.364C206.282 106.364 206.834 106.512 207.322 106.808C207.818 107.104 208.206 107.508 208.486 108.02C208.774 108.532 208.918 109.108 208.918 109.748C208.918 110.388 208.774 110.964 208.486 111.476C208.206 111.988 207.822 112.396 207.334 112.7C206.846 112.996 206.29 113.144 205.666 113.144ZM205.534 111.884C205.918 111.884 206.258 111.792 206.554 111.608C206.85 111.424 207.082 111.172 207.25 110.852C207.426 110.524 207.514 110.156 207.514 109.748C207.514 109.34 207.426 108.976 207.25 108.656C207.082 108.336 206.85 108.084 206.554 107.9C206.258 107.716 205.918 107.624 205.534 107.624C205.158 107.624 204.818 107.716 204.514 107.9C204.218 108.084 203.982 108.336 203.806 108.656C203.638 108.976 203.554 109.34 203.554 109.748C203.554 110.156 203.638 110.524 203.806 110.852C203.982 111.172 204.218 111.424 204.514 111.608C204.818 111.792 205.158 111.884 205.534 111.884ZM213.285 113.144C212.637 113.144 212.061 112.996 211.557 112.7C211.061 112.396 210.673 111.988 210.393 111.476C210.113 110.956 209.973 110.376 209.973 109.736C209.973 109.08 210.113 108.5 210.393 107.996C210.681 107.492 211.065 107.096 211.545 106.808C212.025 106.512 212.569 106.364 213.177 106.364C213.665 106.364 214.101 106.448 214.485 106.616C214.869 106.784 215.193 107.016 215.457 107.312C215.721 107.6 215.921 107.932 216.057 108.308C216.201 108.684 216.273 109.084 216.273 109.508C216.273 109.612 216.269 109.72 216.261 109.832C216.253 109.944 216.237 110.048 216.213 110.144H211.041V109.064H215.445L214.797 109.556C214.877 109.164 214.849 108.816 214.713 108.512C214.585 108.2 214.385 107.956 214.113 107.78C213.849 107.596 213.537 107.504 213.177 107.504C212.817 107.504 212.497 107.596 212.217 107.78C211.937 107.956 211.721 108.212 211.569 108.548C211.417 108.876 211.357 109.276 211.389 109.748C211.349 110.188 211.409 110.572 211.569 110.9C211.737 111.228 211.969 111.484 212.265 111.668C212.569 111.852 212.913 111.944 213.297 111.944C213.689 111.944 214.021 111.856 214.293 111.68C214.573 111.504 214.793 111.276 214.953 110.996L216.057 111.536C215.929 111.84 215.729 112.116 215.457 112.364C215.193 112.604 214.873 112.796 214.497 112.94C214.129 113.076 213.725 113.144 213.285 113.144ZM217.597 113V103.916H218.953V113H217.597Z" fill="#171816"/>
<path d="M348 88C348 79.1634 355.163 72 364 72H448C456.837 72 464 79.1634 464 88V320C464 328.837 456.837 336 448 336H364C355.163 336 348 328.837 348 320V88Z" fill="#1B1C1A"/>
<path d="M372 104C372 99.5817 375.582 96 380 96H432C436.418 96 440 99.5817 440 104V112C440 116.418 436.418 120 432 120H380C375.582 120 372 116.418 372 112V104Z" fill="#292C28"/>
<path d="M393 102H383C382.735 102 382.48 102.105 382.293 102.293C382.105 102.48 382 102.735 382 103V113C382 113.265 382.105 113.52 382.293 113.707C382.48 113.895 382.735 114 383 114H393C393.265 114 393.52 113.895 393.707 113.707C393.895 113.52 394 113.265 394 113V103C394 102.735 393.895 102.48 393.707 102.293C393.52 102.105 393.265 102 393 102ZM383 113V103.707L392.293 113H383ZM383.707 103H393V112.294L383.707 103Z" fill="#6C7469"/>
<path d="M400.924 113V104.06H402.34V111.74H406.204V113H400.924ZM409.205 113.144C408.765 113.144 408.377 113.068 408.041 112.916C407.713 112.756 407.457 112.54 407.273 112.268C407.089 111.988 406.997 111.66 406.997 111.284C406.997 110.932 407.073 110.616 407.225 110.336C407.385 110.056 407.629 109.82 407.957 109.628C408.285 109.436 408.697 109.3 409.193 109.22L411.449 108.848V109.916L409.457 110.264C409.097 110.328 408.833 110.444 408.665 110.612C408.497 110.772 408.413 110.98 408.413 111.236C408.413 111.484 408.505 111.688 408.689 111.848C408.881 112 409.125 112.076 409.421 112.076C409.789 112.076 410.109 111.996 410.381 111.836C410.661 111.676 410.877 111.464 411.029 111.2C411.181 110.928 411.257 110.628 411.257 110.3V108.632C411.257 108.312 411.137 108.052 410.897 107.852C410.665 107.644 410.353 107.54 409.961 107.54C409.601 107.54 409.285 107.636 409.013 107.828C408.749 108.012 408.553 108.252 408.425 108.548L407.297 107.984C407.417 107.664 407.613 107.384 407.885 107.144C408.157 106.896 408.473 106.704 408.833 106.568C409.201 106.432 409.589 106.364 409.997 106.364C410.509 106.364 410.961 106.46 411.353 106.652C411.753 106.844 412.061 107.112 412.277 107.456C412.501 107.792 412.613 108.184 412.613 108.632V113H411.317V111.824L411.593 111.86C411.441 112.124 411.245 112.352 411.005 112.544C410.773 112.736 410.505 112.884 410.201 112.988C409.905 113.092 409.573 113.144 409.205 113.144ZM417.666 113.144C417.162 113.144 416.702 113.04 416.286 112.832C415.878 112.624 415.562 112.324 415.338 111.932L415.494 111.68V113H414.198V103.916H415.554V107.852L415.338 107.54C415.578 107.172 415.898 106.884 416.298 106.676C416.698 106.468 417.154 106.364 417.666 106.364C418.282 106.364 418.834 106.512 419.322 106.808C419.818 107.104 420.206 107.508 420.486 108.02C420.774 108.532 420.918 109.108 420.918 109.748C420.918 110.388 420.774 110.964 420.486 111.476C420.206 111.988 419.822 112.396 419.334 112.7C418.846 112.996 418.29 113.144 417.666 113.144ZM417.534 111.884C417.918 111.884 418.258 111.792 418.554 111.608C418.85 111.424 419.082 111.172 419.25 110.852C419.426 110.524 419.514 110.156 419.514 109.748C419.514 109.34 419.426 108.976 419.25 108.656C419.082 108.336 418.85 108.084 418.554 107.9C418.258 107.716 417.918 107.624 417.534 107.624C417.158 107.624 416.818 107.716 416.514 107.9C416.218 108.084 415.982 108.336 415.806 108.656C415.638 108.976 415.554 109.34 415.554 109.748C415.554 110.156 415.638 110.524 415.806 110.852C415.982 111.172 416.218 111.424 416.514 111.608C416.818 111.792 417.158 111.884 417.534 111.884ZM425.285 113.144C424.637 113.144 424.061 112.996 423.557 112.7C423.061 112.396 422.673 111.988 422.393 111.476C422.113 110.956 421.973 110.376 421.973 109.736C421.973 109.08 422.113 108.5 422.393 107.996C422.681 107.492 423.065 107.096 423.545 106.808C424.025 106.512 424.569 106.364 425.177 106.364C425.665 106.364 426.101 106.448 426.485 106.616C426.869 106.784 427.193 107.016 427.457 107.312C427.721 107.6 427.921 107.932 428.057 108.308C428.201 108.684 428.273 109.084 428.273 109.508C428.273 109.612 428.269 109.72 428.261 109.832C428.253 109.944 428.237 110.048 428.213 110.144H423.041V109.064H427.445L426.797 109.556C426.877 109.164 426.849 108.816 426.713 108.512C426.585 108.2 426.385 107.956 426.113 107.78C425.849 107.596 425.537 107.504 425.177 107.504C424.817 107.504 424.497 107.596 424.217 107.78C423.937 107.956 423.721 108.212 423.569 108.548C423.417 108.876 423.357 109.276 423.389 109.748C423.349 110.188 423.409 110.572 423.569 110.9C423.737 111.228 423.969 111.484 424.265 111.668C424.569 111.852 424.913 111.944 425.297 111.944C425.689 111.944 426.021 111.856 426.293 111.68C426.573 111.504 426.793 111.276 426.953 110.996L428.057 111.536C427.929 111.84 427.729 112.116 427.457 112.364C427.193 112.604 426.873 112.796 426.497 112.94C426.129 113.076 425.725 113.144 425.285 113.144ZM429.597 113V103.916H430.953V113H429.597Z" fill="white"/>
<path d="M372 152C372 147.582 375.582 144 380 144H432C436.418 144 440 147.582 440 152V160C440 164.418 436.418 168 432 168H380C375.582 168 372 164.418 372 160V152Z" fill="#31E000"/>
<path d="M393 150H383C382.735 150 382.48 150.105 382.293 150.293C382.105 150.48 382 150.735 382 151V161C382 161.265 382.105 161.52 382.293 161.707C382.48 161.895 382.735 162 383 162H393C393.265 162 393.52 161.895 393.707 161.707C393.895 161.52 394 161.265 394 161V151C394 150.735 393.895 150.48 393.707 150.293C393.52 150.105 393.265 150 393 150ZM383 161V151.707L392.293 161H383ZM383.707 151H393V160.294L383.707 151Z" fill="#1B1C1A"/>
<path d="M400.924 161V152.06H402.34V159.74H406.204V161H400.924ZM409.205 161.144C408.765 161.144 408.377 161.068 408.041 160.916C407.713 160.756 407.457 160.54 407.273 160.268C407.089 159.988 406.997 159.66 406.997 159.284C406.997 158.932 407.073 158.616 407.225 158.336C407.385 158.056 407.629 157.82 407.957 157.628C408.285 157.436 408.697 157.3 409.193 157.22L411.449 156.848V157.916L409.457 158.264C409.097 158.328 408.833 158.444 408.665 158.612C408.497 158.772 408.413 158.98 408.413 159.236C408.413 159.484 408.505 159.688 408.689 159.848C408.881 160 409.125 160.076 409.421 160.076C409.789 160.076 410.109 159.996 410.381 159.836C410.661 159.676 410.877 159.464 411.029 159.2C411.181 158.928 411.257 158.628 411.257 158.3V156.632C411.257 156.312 411.137 156.052 410.897 155.852C410.665 155.644 410.353 155.54 409.961 155.54C409.601 155.54 409.285 155.636 409.013 155.828C408.749 156.012 408.553 156.252 408.425 156.548L407.297 155.984C407.417 155.664 407.613 155.384 407.885 155.144C408.157 154.896 408.473 154.704 408.833 154.568C409.201 154.432 409.589 154.364 409.997 154.364C410.509 154.364 410.961 154.46 411.353 154.652C411.753 154.844 412.061 155.112 412.277 155.456C412.501 155.792 412.613 156.184 412.613 156.632V161H411.317V159.824L411.593 159.86C411.441 160.124 411.245 160.352 411.005 160.544C410.773 160.736 410.505 160.884 410.201 160.988C409.905 161.092 409.573 161.144 409.205 161.144ZM417.666 161.144C417.162 161.144 416.702 161.04 416.286 160.832C415.878 160.624 415.562 160.324 415.338 159.932L415.494 159.68V161H414.198V151.916H415.554V155.852L415.338 155.54C415.578 155.172 415.898 154.884 416.298 154.676C416.698 154.468 417.154 154.364 417.666 154.364C418.282 154.364 418.834 154.512 419.322 154.808C419.818 155.104 420.206 155.508 420.486 156.02C420.774 156.532 420.918 157.108 420.918 157.748C420.918 158.388 420.774 158.964 420.486 159.476C420.206 159.988 419.822 160.396 419.334 160.7C418.846 160.996 418.29 161.144 417.666 161.144ZM417.534 159.884C417.918 159.884 418.258 159.792 418.554 159.608C418.85 159.424 419.082 159.172 419.25 158.852C419.426 158.524 419.514 158.156 419.514 157.748C419.514 157.34 419.426 156.976 419.25 156.656C419.082 156.336 418.85 156.084 418.554 155.9C418.258 155.716 417.918 155.624 417.534 155.624C417.158 155.624 416.818 155.716 416.514 155.9C416.218 156.084 415.982 156.336 415.806 156.656C415.638 156.976 415.554 157.34 415.554 157.748C415.554 158.156 415.638 158.524 415.806 158.852C415.982 159.172 416.218 159.424 416.514 159.608C416.818 159.792 417.158 159.884 417.534 159.884ZM425.285 161.144C424.637 161.144 424.061 160.996 423.557 160.7C423.061 160.396 422.673 159.988 422.393 159.476C422.113 158.956 421.973 158.376 421.973 157.736C421.973 157.08 422.113 156.5 422.393 155.996C422.681 155.492 423.065 155.096 423.545 154.808C424.025 154.512 424.569 154.364 425.177 154.364C425.665 154.364 426.101 154.448 426.485 154.616C426.869 154.784 427.193 155.016 427.457 155.312C427.721 155.6 427.921 155.932 428.057 156.308C428.201 156.684 428.273 157.084 428.273 157.508C428.273 157.612 428.269 157.72 428.261 157.832C428.253 157.944 428.237 158.048 428.213 158.144H423.041V157.064H427.445L426.797 157.556C426.877 157.164 426.849 156.816 426.713 156.512C426.585 156.2 426.385 155.956 426.113 155.78C425.849 155.596 425.537 155.504 425.177 155.504C424.817 155.504 424.497 155.596 424.217 155.78C423.937 155.956 423.721 156.212 423.569 156.548C423.417 156.876 423.357 157.276 423.389 157.748C423.349 158.188 423.409 158.572 423.569 158.9C423.737 159.228 423.969 159.484 424.265 159.668C424.569 159.852 424.913 159.944 425.297 159.944C425.689 159.944 426.021 159.856 426.293 159.68C426.573 159.504 426.793 159.276 426.953 158.996L428.057 159.536C427.929 159.84 427.729 160.116 427.457 160.364C427.193 160.604 426.873 160.796 426.497 160.94C426.129 161.076 425.725 161.144 425.285 161.144ZM429.597 161V151.916H430.953V161H429.597Z" fill="#292C28"/>
<path d="M372 200C372 195.582 375.582 192 380 192H432C436.418 192 440 195.582 440 200V208C440 212.418 436.418 216 432 216H380C375.582 216 372 212.418 372 208V200Z" fill="#ECDEDB"/>
<path d="M393 198H383C382.735 198 382.48 198.105 382.293 198.293C382.105 198.48 382 198.735 382 199V209C382 209.265 382.105 209.52 382.293 209.707C382.48 209.895 382.735 210 383 210H393C393.265 210 393.52 209.895 393.707 209.707C393.895 209.52 394 209.265 394 209V199C394 198.735 393.895 198.48 393.707 198.293C393.52 198.105 393.265 198 393 198ZM383 209V199.707L392.293 209H383ZM383.707 199H393V208.294L383.707 199Z" fill="#6C7469"/>
<path d="M400.924 209V200.06H402.34V207.74H406.204V209H400.924ZM409.205 209.144C408.765 209.144 408.377 209.068 408.041 208.916C407.713 208.756 407.457 208.54 407.273 208.268C407.089 207.988 406.997 207.66 406.997 207.284C406.997 206.932 407.073 206.616 407.225 206.336C407.385 206.056 407.629 205.82 407.957 205.628C408.285 205.436 408.697 205.3 409.193 205.22L411.449 204.848V205.916L409.457 206.264C409.097 206.328 408.833 206.444 408.665 206.612C408.497 206.772 408.413 206.98 408.413 207.236C408.413 207.484 408.505 207.688 408.689 207.848C408.881 208 409.125 208.076 409.421 208.076C409.789 208.076 410.109 207.996 410.381 207.836C410.661 207.676 410.877 207.464 411.029 207.2C411.181 206.928 411.257 206.628 411.257 206.3V204.632C411.257 204.312 411.137 204.052 410.897 203.852C410.665 203.644 410.353 203.54 409.961 203.54C409.601 203.54 409.285 203.636 409.013 203.828C408.749 204.012 408.553 204.252 408.425 204.548L407.297 203.984C407.417 203.664 407.613 203.384 407.885 203.144C408.157 202.896 408.473 202.704 408.833 202.568C409.201 202.432 409.589 202.364 409.997 202.364C410.509 202.364 410.961 202.46 411.353 202.652C411.753 202.844 412.061 203.112 412.277 203.456C412.501 203.792 412.613 204.184 412.613 204.632V209H411.317V207.824L411.593 207.86C411.441 208.124 411.245 208.352 411.005 208.544C410.773 208.736 410.505 208.884 410.201 208.988C409.905 209.092 409.573 209.144 409.205 209.144ZM417.666 209.144C417.162 209.144 416.702 209.04 416.286 208.832C415.878 208.624 415.562 208.324 415.338 207.932L415.494 207.68V209H414.198V199.916H415.554V203.852L415.338 203.54C415.578 203.172 415.898 202.884 416.298 202.676C416.698 202.468 417.154 202.364 417.666 202.364C418.282 202.364 418.834 202.512 419.322 202.808C419.818 203.104 420.206 203.508 420.486 204.02C420.774 204.532 420.918 205.108 420.918 205.748C420.918 206.388 420.774 206.964 420.486 207.476C420.206 207.988 419.822 208.396 419.334 208.7C418.846 208.996 418.29 209.144 417.666 209.144ZM417.534 207.884C417.918 207.884 418.258 207.792 418.554 207.608C418.85 207.424 419.082 207.172 419.25 206.852C419.426 206.524 419.514 206.156 419.514 205.748C419.514 205.34 419.426 204.976 419.25 204.656C419.082 204.336 418.85 204.084 418.554 203.9C418.258 203.716 417.918 203.624 417.534 203.624C417.158 203.624 416.818 203.716 416.514 203.9C416.218 204.084 415.982 204.336 415.806 204.656C415.638 204.976 415.554 205.34 415.554 205.748C415.554 206.156 415.638 206.524 415.806 206.852C415.982 207.172 416.218 207.424 416.514 207.608C416.818 207.792 417.158 207.884 417.534 207.884ZM425.285 209.144C424.637 209.144 424.061 208.996 423.557 208.7C423.061 208.396 422.673 207.988 422.393 207.476C422.113 206.956 421.973 206.376 421.973 205.736C421.973 205.08 422.113 204.5 422.393 203.996C422.681 203.492 423.065 203.096 423.545 202.808C424.025 202.512 424.569 202.364 425.177 202.364C425.665 202.364 426.101 202.448 426.485 202.616C426.869 202.784 427.193 203.016 427.457 203.312C427.721 203.6 427.921 203.932 428.057 204.308C428.201 204.684 428.273 205.084 428.273 205.508C428.273 205.612 428.269 205.72 428.261 205.832C428.253 205.944 428.237 206.048 428.213 206.144H423.041V205.064H427.445L426.797 205.556C426.877 205.164 426.849 204.816 426.713 204.512C426.585 204.2 426.385 203.956 426.113 203.78C425.849 203.596 425.537 203.504 425.177 203.504C424.817 203.504 424.497 203.596 424.217 203.78C423.937 203.956 423.721 204.212 423.569 204.548C423.417 204.876 423.357 205.276 423.389 205.748C423.349 206.188 423.409 206.572 423.569 206.9C423.737 207.228 423.969 207.484 424.265 207.668C424.569 207.852 424.913 207.944 425.297 207.944C425.689 207.944 426.021 207.856 426.293 207.68C426.573 207.504 426.793 207.276 426.953 206.996L428.057 207.536C427.929 207.84 427.729 208.116 427.457 208.364C427.193 208.604 426.873 208.796 426.497 208.94C426.129 209.076 425.725 209.144 425.285 209.144ZM429.597 209V199.916H430.953V209H429.597Z" fill="white"/>
<path d="M372 248C372 243.582 375.582 240 380 240H432C436.418 240 440 243.582 440 248V256C440 260.418 436.418 264 432 264H380C375.582 264 372 260.418 372 256V248Z" fill="#FFF5A7"/>
<path d="M393 246H383C382.735 246 382.48 246.105 382.293 246.293C382.105 246.48 382 246.735 382 247V257C382 257.265 382.105 257.52 382.293 257.707C382.48 257.895 382.735 258 383 258H393C393.265 258 393.52 257.895 393.707 257.707C393.895 257.52 394 257.265 394 257V247C394 246.735 393.895 246.48 393.707 246.293C393.52 246.105 393.265 246 393 246ZM383 257V247.707L392.293 257H383ZM383.707 247H393V256.294L383.707 247Z" fill="#6C7469"/>
<path d="M400.924 257V248.06H402.34V255.74H406.204V257H400.924ZM409.205 257.144C408.765 257.144 408.377 257.068 408.041 256.916C407.713 256.756 407.457 256.54 407.273 256.268C407.089 255.988 406.997 255.66 406.997 255.284C406.997 254.932 407.073 254.616 407.225 254.336C407.385 254.056 407.629 253.82 407.957 253.628C408.285 253.436 408.697 253.3 409.193 253.22L411.449 252.848V253.916L409.457 254.264C409.097 254.328 408.833 254.444 408.665 254.612C408.497 254.772 408.413 254.98 408.413 255.236C408.413 255.484 408.505 255.688 408.689 255.848C408.881 256 409.125 256.076 409.421 256.076C409.789 256.076 410.109 255.996 410.381 255.836C410.661 255.676 410.877 255.464 411.029 255.2C411.181 254.928 411.257 254.628 411.257 254.3V252.632C411.257 252.312 411.137 252.052 410.897 251.852C410.665 251.644 410.353 251.54 409.961 251.54C409.601 251.54 409.285 251.636 409.013 251.828C408.749 252.012 408.553 252.252 408.425 252.548L407.297 251.984C407.417 251.664 407.613 251.384 407.885 251.144C408.157 250.896 408.473 250.704 408.833 250.568C409.201 250.432 409.589 250.364 409.997 250.364C410.509 250.364 410.961 250.46 411.353 250.652C411.753 250.844 412.061 251.112 412.277 251.456C412.501 251.792 412.613 252.184 412.613 252.632V257H411.317V255.824L411.593 255.86C411.441 256.124 411.245 256.352 411.005 256.544C410.773 256.736 410.505 256.884 410.201 256.988C409.905 257.092 409.573 257.144 409.205 257.144ZM417.666 257.144C417.162 257.144 416.702 257.04 416.286 256.832C415.878 256.624 415.562 256.324 415.338 255.932L415.494 255.68V257H414.198V247.916H415.554V251.852L415.338 251.54C415.578 251.172 415.898 250.884 416.298 250.676C416.698 250.468 417.154 250.364 417.666 250.364C418.282 250.364 418.834 250.512 419.322 250.808C419.818 251.104 420.206 251.508 420.486 252.02C420.774 252.532 420.918 253.108 420.918 253.748C420.918 254.388 420.774 254.964 420.486 255.476C420.206 255.988 419.822 256.396 419.334 256.7C418.846 256.996 418.29 257.144 417.666 257.144ZM417.534 255.884C417.918 255.884 418.258 255.792 418.554 255.608C418.85 255.424 419.082 255.172 419.25 254.852C419.426 254.524 419.514 254.156 419.514 253.748C419.514 253.34 419.426 252.976 419.25 252.656C419.082 252.336 418.85 252.084 418.554 251.9C418.258 251.716 417.918 251.624 417.534 251.624C417.158 251.624 416.818 251.716 416.514 251.9C416.218 252.084 415.982 252.336 415.806 252.656C415.638 252.976 415.554 253.34 415.554 253.748C415.554 254.156 415.638 254.524 415.806 254.852C415.982 255.172 416.218 255.424 416.514 255.608C416.818 255.792 417.158 255.884 417.534 255.884ZM425.285 257.144C424.637 257.144 424.061 256.996 423.557 256.7C423.061 256.396 422.673 255.988 422.393 255.476C422.113 254.956 421.973 254.376 421.973 253.736C421.973 253.08 422.113 252.5 422.393 251.996C422.681 251.492 423.065 251.096 423.545 250.808C424.025 250.512 424.569 250.364 425.177 250.364C425.665 250.364 426.101 250.448 426.485 250.616C426.869 250.784 427.193 251.016 427.457 251.312C427.721 251.6 427.921 251.932 428.057 252.308C428.201 252.684 428.273 253.084 428.273 253.508C428.273 253.612 428.269 253.72 428.261 253.832C428.253 253.944 428.237 254.048 428.213 254.144H423.041V253.064H427.445L426.797 253.556C426.877 253.164 426.849 252.816 426.713 252.512C426.585 252.2 426.385 251.956 426.113 251.78C425.849 251.596 425.537 251.504 425.177 251.504C424.817 251.504 424.497 251.596 424.217 251.78C423.937 251.956 423.721 252.212 423.569 252.548C423.417 252.876 423.357 253.276 423.389 253.748C423.349 254.188 423.409 254.572 423.569 254.9C423.737 255.228 423.969 255.484 424.265 255.668C424.569 255.852 424.913 255.944 425.297 255.944C425.689 255.944 426.021 255.856 426.293 255.68C426.573 255.504 426.793 255.276 426.953 254.996L428.057 255.536C427.929 255.84 427.729 256.116 427.457 256.364C427.193 256.604 426.873 256.796 426.497 256.94C426.129 257.076 425.725 257.144 425.285 257.144ZM429.597 257V247.916H430.953V257H429.597Z" fill="white"/>
<path d="M372 296C372 291.582 375.582 288 380 288H432C436.418 288 440 291.582 440 296V304C440 308.418 436.418 312 432 312H380C375.582 312 372 308.418 372 304V296Z" fill="#DBECEA"/>
<path d="M393 294H383C382.735 294 382.48 294.105 382.293 294.293C382.105 294.48 382 294.735 382 295V305C382 305.265 382.105 305.52 382.293 305.707C382.48 305.895 382.735 306 383 306H393C393.265 306 393.52 305.895 393.707 305.707C393.895 305.52 394 305.265 394 305V295C394 294.735 393.895 294.48 393.707 294.293C393.52 294.105 393.265 294 393 294ZM383 305V295.707L392.293 305H383ZM383.707 295H393V304.294L383.707 295Z" fill="#6C7469"/>
<path d="M400.924 305V296.06H402.34V303.74H406.204V305H400.924ZM409.205 305.144C408.765 305.144 408.377 305.068 408.041 304.916C407.713 304.756 407.457 304.54 407.273 304.268C407.089 303.988 406.997 303.66 406.997 303.284C406.997 302.932 407.073 302.616 407.225 302.336C407.385 302.056 407.629 301.82 407.957 301.628C408.285 301.436 408.697 301.3 409.193 301.22L411.449 300.848V301.916L409.457 302.264C409.097 302.328 408.833 302.444 408.665 302.612C408.497 302.772 408.413 302.98 408.413 303.236C408.413 303.484 408.505 303.688 408.689 303.848C408.881 304 409.125 304.076 409.421 304.076C409.789 304.076 410.109 303.996 410.381 303.836C410.661 303.676 410.877 303.464 411.029 303.2C411.181 302.928 411.257 302.628 411.257 302.3V300.632C411.257 300.312 411.137 300.052 410.897 299.852C410.665 299.644 410.353 299.54 409.961 299.54C409.601 299.54 409.285 299.636 409.013 299.828C408.749 300.012 408.553 300.252 408.425 300.548L407.297 299.984C407.417 299.664 407.613 299.384 407.885 299.144C408.157 298.896 408.473 298.704 408.833 298.568C409.201 298.432 409.589 298.364 409.997 298.364C410.509 298.364 410.961 298.46 411.353 298.652C411.753 298.844 412.061 299.112 412.277 299.456C412.501 299.792 412.613 300.184 412.613 300.632V305H411.317V303.824L411.593 303.86C411.441 304.124 411.245 304.352 411.005 304.544C410.773 304.736 410.505 304.884 410.201 304.988C409.905 305.092 409.573 305.144 409.205 305.144ZM417.666 305.144C417.162 305.144 416.702 305.04 416.286 304.832C415.878 304.624 415.562 304.324 415.338 303.932L415.494 303.68V305H414.198V295.916H415.554V299.852L415.338 299.54C415.578 299.172 415.898 298.884 416.298 298.676C416.698 298.468 417.154 298.364 417.666 298.364C418.282 298.364 418.834 298.512 419.322 298.808C419.818 299.104 420.206 299.508 420.486 300.02C420.774 300.532 420.918 301.108 420.918 301.748C420.918 302.388 420.774 302.964 420.486 303.476C420.206 303.988 419.822 304.396 419.334 304.7C418.846 304.996 418.29 305.144 417.666 305.144ZM417.534 303.884C417.918 303.884 418.258 303.792 418.554 303.608C418.85 303.424 419.082 303.172 419.25 302.852C419.426 302.524 419.514 302.156 419.514 301.748C419.514 301.34 419.426 300.976 419.25 300.656C419.082 300.336 418.85 300.084 418.554 299.9C418.258 299.716 417.918 299.624 417.534 299.624C417.158 299.624 416.818 299.716 416.514 299.9C416.218 300.084 415.982 300.336 415.806 300.656C415.638 300.976 415.554 301.34 415.554 301.748C415.554 302.156 415.638 302.524 415.806 302.852C415.982 303.172 416.218 303.424 416.514 303.608C416.818 303.792 417.158 303.884 417.534 303.884ZM425.285 305.144C424.637 305.144 424.061 304.996 423.557 304.7C423.061 304.396 422.673 303.988 422.393 303.476C422.113 302.956 421.973 302.376 421.973 301.736C421.973 301.08 422.113 300.5 422.393 299.996C422.681 299.492 423.065 299.096 423.545 298.808C424.025 298.512 424.569 298.364 425.177 298.364C425.665 298.364 426.101 298.448 426.485 298.616C426.869 298.784 427.193 299.016 427.457 299.312C427.721 299.6 427.921 299.932 428.057 300.308C428.201 300.684 428.273 301.084 428.273 301.508C428.273 301.612 428.269 301.72 428.261 301.832C428.253 301.944 428.237 302.048 428.213 302.144H423.041V301.064H427.445L426.797 301.556C426.877 301.164 426.849 300.816 426.713 300.512C426.585 300.2 426.385 299.956 426.113 299.78C425.849 299.596 425.537 299.504 425.177 299.504C424.817 299.504 424.497 299.596 424.217 299.78C423.937 299.956 423.721 300.212 423.569 300.548C423.417 300.876 423.357 301.276 423.389 301.748C423.349 302.188 423.409 302.572 423.569 302.9C423.737 303.228 423.969 303.484 424.265 303.668C424.569 303.852 424.913 303.944 425.297 303.944C425.689 303.944 426.021 303.856 426.293 303.68C426.573 303.504 426.793 303.276 426.953 302.996L428.057 303.536C427.929 303.84 427.729 304.116 427.457 304.364C427.193 304.604 426.873 304.796 426.497 304.94C426.129 305.076 425.725 305.144 425.285 305.144ZM429.597 305V295.916H430.953V305H429.597Z" fill="white"/>
</svg>
