<?xml version="1.0" encoding="utf-8"?>
<!-- Generator: Adobe Illustrator 16.0.0, SVG Export Plug-In . SVG Version: 6.00 Build 0)  -->
<!DOCTYPE svg PUBLIC "-//W3C//DTD SVG 1.1//EN" "http://www.w3.org/Graphics/SVG/1.1/DTD/svg11.dtd">
<svg version="1.1" id="Camada_1" xmlns="http://www.w3.org/2000/svg" xmlns:xlink="http://www.w3.org/1999/xlink" x="0px" y="0px"
	 width="368.504px" height="85.04px" viewBox="0 0 368.504 85.04" enable-background="new 0 0 368.504 85.04" xml:space="preserve">
<g>
	<g>
		<path fill="#FFFFFF" d="M25.713,42.247h-9.91c-2.259,0-4.089,1.831-4.089,4.089c0,2.26,1.83,4.09,4.089,4.09h9.91
			c2.259,0,4.089-1.83,4.089-4.09C29.802,44.078,27.972,42.247,25.713,42.247z"/>
		<path fill="#FFFFFF" d="M130.807,10.502c-0.001-0.023-0.079-0.037-0.263-0.037H35.068c-2.258,0-4.089,1.831-4.089,4.089
			c0,2.258,1.831,4.088,4.089,4.088H48.49c1.983,0.222,3.526,1.902,3.526,3.944c0,2.025-1.518,3.692-3.477,3.936H25.951
			c-2.259,0-4.089,1.831-4.089,4.089c0,2.258,1.83,4.089,4.089,4.089h35.337c2.019,0.217,3.59,1.925,3.59,4.001
			c0,2.154-1.693,3.907-3.82,4.015H40.92c-2.258,0-4.089,1.831-4.089,4.089c0,2.259,1.831,4.089,4.089,4.089h5.732
			c1.893,0.184,3.403,1.657,3.651,3.53c0,0.001,0,0.001,0,0.001c0,0.184,0.016,0.363,0.039,0.539c0,0.009-0.002,0.016-0.002,0.023
			h0.006c0.274,1.991,1.978,3.527,4.046,3.527H66.05c2.127,0.135,3.813,1.891,3.826,4.048c0,0.009-0.001,0.019-0.001,0.027
			c0,2.259,1.831,4.089,4.089,4.089h33.145C107.242,66.68,146.279,10.445,130.807,10.502z"/>
	</g>
	<g>
		<path fill="#86321C" d="M109.79,14.48c-23.403,9.157-36.182,32.409-32.941,40.69c3.239,8.279,28.404,16.688,51.809,7.531
			c23.402-9.158,36.182-32.411,32.942-40.69C158.359,13.73,133.194,5.324,109.79,14.48z"/>
		<path fill="#FFFFFF" d="M146.5,27.918c2.391,6.112,4.231,12.174,5.547,18.026c2.079-2.429,3.853-4.902,5.31-7.319
			c-1.119-4.38-2.538-8.826-4.281-13.28c-1.742-4.455-3.717-8.682-5.867-12.659c-2.708-0.786-5.692-1.399-8.867-1.772
			C141.347,16.106,144.108,21.807,146.5,27.918z"/>
		<path fill="#FFFFFF" d="M91.948,49.262c-2.392-6.112-4.253-12.479-5.567-18.332c-2.08,2.431-3.934,4.756-5.391,7.173
			c1.119,4.38,2.64,9.279,4.381,13.731c1.743,4.453,3.717,8.684,5.867,12.66c2.475,1.819,5.855,2.185,8.872,1.771
			C97.104,61.075,94.339,55.375,91.948,49.262z"/>
		<path fill="#FFFFFF" d="M136.869,17.014c-0.146-0.375-0.367-0.714-0.642-1.022c-7.638-0.355-16.085,0.691-24.315,3.911
			c-8.23,3.221-15.146,8.185-20.514,13.628c0.008,0.414,0.075,0.813,0.222,1.187c0.414,1.058,1.369,1.848,2.738,2.383
			c5.196-5.004,11.716-9.52,19.385-12.521c7.667-3,15.521-4.108,22.731-3.958C137.119,19.3,137.283,18.071,136.869,17.014z"/>
		<path fill="#FFFFFF" d="M93.786,31.244c-0.524-0.898-1.677-1.203-2.576-0.678c-0.899,0.523-1.202,1.677-0.68,2.576l2.999,5.146
			c0.524,0.899,1.678,1.203,2.576,0.679c0.898-0.524,1.204-1.678,0.679-2.576L93.786,31.244z"/>
		<path fill="#FFFFFF" d="M99.138,26.509c-0.58-0.865-1.748-1.098-2.614-0.521c-0.864,0.577-1.1,1.748-0.521,2.612l3.306,4.954
			c0.579,0.865,1.747,1.098,2.613,0.521c0.863-0.578,1.1-1.748,0.521-2.613L99.138,26.509z"/>
		<path fill="#FFFFFF" d="M105.35,22.343c-0.505-0.91-1.65-1.24-2.56-0.735c-0.91,0.504-1.241,1.65-0.736,2.56l2.888,5.21
			c0.505,0.911,1.651,1.239,2.562,0.735c0.908-0.504,1.238-1.65,0.735-2.561L105.35,22.343z"/>
		<path fill="#FFFFFF" d="M134.354,13.686c-1.016,0.225-1.655,1.23-1.431,2.247l1.29,5.814c0.226,1.015,1.23,1.656,2.248,1.431
			c1.015-0.225,1.654-1.23,1.431-2.247l-1.291-5.815C136.376,14.101,135.369,13.46,134.354,13.686z"/>
		<path fill="#FFFFFF" d="M127.344,13.929c-1.026,0.163-1.727,1.128-1.564,2.155l0.934,5.882c0.164,1.028,1.128,1.729,2.156,1.565
			c1.027-0.163,1.729-1.128,1.564-2.156l-0.934-5.882C129.337,14.466,128.372,13.767,127.344,13.929z"/>
		<path fill="#FFFFFF" d="M119.77,14.964c-1.011,0.246-1.629,1.266-1.383,2.277l1.416,5.785c0.249,1.011,1.268,1.63,2.278,1.383
			c1.009-0.248,1.629-1.268,1.382-2.278l-1.417-5.785C121.802,15.335,120.781,14.717,119.77,14.964z"/>
		<path fill="#FFFFFF" d="M110.911,17.972c-0.97,0.378-1.447,1.472-1.068,2.44l2.172,5.546c0.38,0.969,1.474,1.447,2.441,1.067
			c0.969-0.379,1.446-1.472,1.066-2.441l-2.172-5.545C112.972,18.07,111.88,17.591,110.911,17.972z"/>
		<path opacity="0.2" d="M146.128,12.385c-1.033,10.25-13.291,28.481-33.369,36.337c-12.898,5.047-26.334,4.756-36.336,2.094
			c-0.172,1.699-0.034,3.176,0.426,4.354c3.239,8.279,28.404,16.688,51.809,7.531c23.402-9.158,36.182-32.411,32.942-40.69
			C160.145,18.294,154.273,14.553,146.128,12.385z"/>
	</g>
	<g>
		<g>
			<path fill="#FFFFFF" d="M176.421,10.196c2.981,0,5.29,0.759,6.924,2.275c1.634,1.517,2.451,3.525,2.451,6.025
				c0,2.526-0.817,4.544-2.451,6.055c-1.634,1.511-3.942,2.266-6.924,2.266h-6.484v9.844l3.184,0.254v1.719h-8.691v-1.719
				l3.184-0.254V12.188l-3.184-0.254v-1.738h3.184H176.421z M169.937,24.825h6.484c2.344,0,4.104-0.596,5.283-1.787
				s1.768-2.692,1.768-4.502c0-1.823-0.586-3.336-1.758-4.541c-1.172-1.204-2.937-1.807-5.293-1.807h-6.484V24.825z"/>
			<path fill="#FFFFFF" d="M201.167,10.215c3.047,0,5.388,0.664,7.021,1.992s2.451,3.249,2.451,5.762
				c0,1.484-0.437,2.819-1.309,4.004c-0.872,1.185-2.103,2.044-3.691,2.578c1.758,0.443,3.024,1.234,3.799,2.373
				c0.774,1.14,1.162,2.575,1.162,4.307v2.598c0,1.003,0.156,1.745,0.469,2.227c0.313,0.482,0.788,0.742,1.426,0.781l0.957,0.059
				v1.738h-1.484c-1.38,0-2.344-0.469-2.891-1.406s-0.82-2.083-0.82-3.438v-2.52c0-1.719-0.55-3.083-1.65-4.092
				c-1.101-1.009-2.634-1.533-4.6-1.572h-7.148v11.055l3.184,0.273v1.699h-8.691v-1.699l3.184-0.273V12.208l-3.184-0.273v-1.719
				H201.167z M194.859,23.614h6.035c2.565,0,4.44-0.514,5.625-1.543c1.185-1.028,1.777-2.402,1.777-4.121
				c0-1.823-0.593-3.235-1.777-4.238c-1.185-1.002-2.969-1.504-5.352-1.504h-6.309V23.614z"/>
			<path fill="#FFFFFF" d="M216.578,11.934v-1.738h8.711v1.738l-3.184,0.254v24.473l3.184,0.254v1.719h-8.711v-1.719l3.184-0.254
				V12.188L216.578,11.934z"/>
			<path fill="#FFFFFF" d="M256.695,13.633l-0.117-0.039l-10.566,25.039h-1.621l-10.547-24.922l-0.117,0.02l0.215,12.344v10.586
				l3.184,0.254v1.719h-8.691v-1.719l3.184-0.254V12.188l-3.184-0.254v-1.738h3.184h3.066l10.449,25.039h0.117l10.488-25.039h6.27
				v1.738l-3.184,0.254v24.473l3.184,0.254v1.719h-8.691v-1.719l3.184-0.254V26.075L256.695,13.633z"/>
			<path fill="#FFFFFF" d="M281.949,24.864h-11.66v11.797h13.438l0.176-4.258h2.07v6.23h-21.191v-1.719l3.184-0.254V12.188
				l-3.184-0.254v-1.738h3.184h17.91v6.25h-2.07l-0.176-4.258h-13.34v10.684h11.66V24.864z"/>
			<path fill="#FFFFFF" d="M290.289,11.934v-1.738H299v1.738l-3.184,0.254v24.473L299,36.915v1.719h-8.711v-1.719l3.184-0.254
				V12.188L290.289,11.934z"/>
			<path fill="#FFFFFF" d="M313.96,10.215c3.047,0,5.388,0.664,7.021,1.992s2.451,3.249,2.451,5.762
				c0,1.484-0.437,2.819-1.309,4.004c-0.872,1.185-2.103,2.044-3.691,2.578c1.758,0.443,3.024,1.234,3.799,2.373
				c0.774,1.14,1.162,2.575,1.162,4.307v2.598c0,1.003,0.156,1.745,0.469,2.227c0.313,0.482,0.788,0.742,1.426,0.781l0.957,0.059
				v1.738h-1.484c-1.38,0-2.344-0.469-2.891-1.406s-0.82-2.083-0.82-3.438v-2.52c0-1.719-0.55-3.083-1.65-4.092
				c-1.101-1.009-2.634-1.533-4.6-1.572h-7.148v11.055l3.184,0.273v1.699h-8.691v-1.699l3.184-0.273V12.208l-3.184-0.273v-1.719
				H313.96z M307.652,23.614h6.035c2.565,0,4.44-0.514,5.625-1.543c1.185-1.028,1.777-2.402,1.777-4.121
				c0-1.823-0.593-3.235-1.777-4.238c-1.185-1.002-2.969-1.504-5.352-1.504h-6.309V23.614z"/>
			<path fill="#FFFFFF" d="M328.667,36.915l2.09-0.156l10.098-26.563h2.207l10,26.563l2.129,0.156v1.719h-7.012v-1.719l2.48-0.195
				l-2.344-6.367h-12.773l-2.363,6.367l2.48,0.195v1.719h-6.992V36.915z M336.324,28.262h11.23l-5.527-15.039h-0.117L336.324,28.262
				z"/>
			<path fill="#FFFFFF" d="M185.796,40.196v3.438l-3.047,0.586v15.879c0,2.748-0.896,4.925-2.686,6.533
				c-1.79,1.608-4.053,2.412-6.787,2.412c-2.969,0-5.319-0.723-7.051-2.168s-2.565-3.574-2.5-6.387l0.039-0.117h5.547
				c0,1.498,0.358,2.588,1.074,3.271s1.68,1.025,2.891,1.025c1.055,0,1.95-0.407,2.686-1.221c0.735-0.813,1.104-1.93,1.104-3.35
				V44.219l-3.047-0.586v-3.438h8.73H185.796z"/>
			<path fill="#FFFFFF" d="M185.171,65.215l2.031-0.293l8.652-24.727h5.84l8.594,24.727l2.031,0.293v3.418h-9.688v-3.418
				l1.973-0.352l-1.25-3.906h-9.219l-1.25,3.906l1.973,0.352v3.418h-9.688V65.215z M195.484,56.758h6.523l-3.203-10.02h-0.117
				L195.484,56.758z"/>
			<path fill="#FFFFFF" d="M226.968,40.196c3.229,0,5.762,0.739,7.598,2.217c1.836,1.478,2.754,3.519,2.754,6.123
				c0,1.433-0.384,2.676-1.152,3.73s-1.895,1.908-3.379,2.559c1.68,0.495,2.888,1.318,3.623,2.471s1.104,2.582,1.104,4.287v1.445
				c0,0.625,0.124,1.11,0.371,1.455c0.247,0.345,0.657,0.55,1.23,0.615l0.703,0.098v3.438h-2.949c-1.862,0-3.171-0.501-3.926-1.504
				c-0.755-1.002-1.133-2.298-1.133-3.887v-1.621c0-1.38-0.368-2.464-1.104-3.252c-0.735-0.788-1.774-1.201-3.115-1.24h-4.668v7.5
				l3.047,0.586v3.418h-11.777v-3.418l3.027-0.586v-20.41l-3.027-0.586v-3.438h3.027H226.968z M222.925,52.735h3.945
				c1.589,0,2.78-0.338,3.574-1.016c0.794-0.677,1.191-1.653,1.191-2.93c0-1.276-0.394-2.295-1.182-3.057s-1.95-1.143-3.486-1.143
				h-4.043V52.735z"/>
			<path fill="#FFFFFF" d="M254.488,40.196c3.477,0,6.341,1.11,8.594,3.33c2.253,2.22,3.379,5.068,3.379,8.545v4.707
				c0,3.49-1.126,6.338-3.379,8.545s-5.117,3.311-8.594,3.311h-12.793v-3.418l3.027-0.586v-20.41l-3.027-0.586v-3.438h3.027H254.488
				z M250.425,44.59v19.668h3.77c2.044,0,3.646-0.69,4.805-2.07c1.159-1.38,1.738-3.184,1.738-5.41v-4.746
				c0-2.2-0.579-3.991-1.738-5.371c-1.159-1.38-2.761-2.07-4.805-2.07H250.425z"/>
			<path fill="#FFFFFF" d="M267.789,65.215l2.031-0.293l8.652-24.727h5.84l8.594,24.727l2.031,0.293v3.418h-9.688v-3.418
				l1.973-0.352l-1.25-3.906h-9.219l-1.25,3.906l1.973,0.352v3.418h-9.688V65.215z M278.101,56.758h6.523l-3.203-10.02h-0.117
				L278.101,56.758z"/>
		</g>
	</g>
</g>
</svg>
