<svg width="64" height="64" viewBox="0 0 64 64" fill="none" xmlns="http://www.w3.org/2000/svg">
<circle cx="32" cy="32" r="32" fill="#CF2B2B"/>
<path d="M20.3346 45.6389H31.8233V24.2821H20.3346V45.6389ZM34.1505 46.8026C34.1505 47.4452 33.6295 47.9662 32.9869 47.9662H19.171C18.5283 47.9662 18.0074 47.4452 18.0074 46.8026V23.7764C18.0074 23.2933 18.1993 22.83 18.5409 22.4884C18.8825 22.1468 19.3458 21.9548 19.8289 21.9548H32.3289C32.7818 21.9548 33.2175 22.1233 33.5517 22.4259L33.617 22.4884L33.6795 22.5537C33.982 22.8878 34.1505 23.3236 34.1505 23.7764V46.8026Z" fill="white"/>
<path d="M24.2821 21.9545H27.8759V20.3346H24.2821V21.9545ZM30.2031 23.1181C30.2031 23.7608 29.6822 24.2818 29.0395 24.2818H23.1185C22.4758 24.2818 21.9548 23.7608 21.9548 23.1181V19.8289C21.9548 19.3458 22.1468 18.8825 22.4884 18.5409C22.83 18.1993 23.2933 18.0074 23.7764 18.0074H28.3815L28.4719 18.0096C28.9221 18.0319 29.3493 18.2206 29.6696 18.5409C30.0112 18.8825 30.2031 19.3458 30.2031 19.8289V23.1181Z" fill="white"/>
<path d="M24.9154 19.1712V17.1973C24.9154 16.5547 25.4363 16.0337 26.079 16.0337C26.7217 16.0337 27.2426 16.5547 27.2426 17.1973V19.1712C27.2425 19.8138 26.7216 20.3348 26.079 20.3348C25.4364 20.3348 24.9155 19.8138 24.9154 19.1712Z" fill="white"/>
<path d="M38.0979 45.6389H43.6655V30.2031H38.0979V45.6389ZM45.9928 46.8025C45.9928 47.4451 45.4718 47.9661 44.8291 47.9662H36.9343C36.2916 47.9662 35.7706 47.4452 35.7706 46.8025V30.0264C35.7706 29.456 35.9974 28.9092 36.4007 28.5059C36.804 28.1026 37.3508 27.8758 37.9212 27.8758H43.8422C44.4125 27.8758 44.9594 28.1026 45.3627 28.5059C45.7659 28.9092 45.9928 29.4561 45.9928 30.0264V46.8025Z" fill="white"/>
<path d="M39.718 29.0397V27.0658C39.718 26.4231 40.239 25.9022 40.8816 25.9022C41.5243 25.9022 42.0452 26.4231 42.0452 27.0658V29.0397C42.0452 29.6822 41.5242 30.2033 40.8816 30.2033C40.239 30.2033 39.7181 29.6822 39.718 29.0397Z" fill="white"/>
<path d="M46.803 45.6391C47.4455 45.6392 47.9666 46.1602 47.9666 46.8027C47.9666 47.4453 47.4455 47.9662 46.803 47.9664H17.1973C16.5547 47.9664 16.0337 47.4454 16.0337 46.8027C16.0337 46.1601 16.5547 45.6391 17.1973 45.6391H46.803Z" fill="white"/>
</svg>
