<svg width="1693" height="663" viewBox="0 0 1693 663" fill="none" xmlns="http://www.w3.org/2000/svg">
<rect x="68" y="105.037" width="1625" height="2" fill="#DEDEE9"/>
<rect x="68" y="201.037" width="1625" height="2" fill="#DEDEE9"/>
<rect x="68" y="297.037" width="1625" height="2" fill="#DEDEE9"/>
<rect x="68" y="393.037" width="1625" height="2" fill="#DEDEE9"/>
<rect x="68" y="489.037" width="1625" height="2" fill="#DEDEE9"/>
<rect x="68" y="585.037" width="1625" height="2" fill="#DEDEE9"/>
<rect x="68" y="9.03711" width="1625" height="2" fill="#DEDEE9"/>
<rect x="68" y="9.03711" width="2" height="578" fill="#DEDEE9"/>
<path d="M160.976 653.037V632.037H169.586C171.046 632.037 172.276 632.267 173.276 632.727C174.276 633.187 175.026 633.827 175.526 634.647C176.046 635.447 176.306 636.377 176.306 637.437C176.306 638.497 176.076 639.387 175.616 640.107C175.156 640.827 174.546 641.387 173.786 641.787C173.046 642.167 172.226 642.387 171.326 642.447L171.806 642.117C172.766 642.157 173.616 642.417 174.356 642.897C175.116 643.357 175.706 643.977 176.126 644.757C176.566 645.537 176.786 646.387 176.786 647.307C176.786 648.427 176.516 649.417 175.976 650.277C175.436 651.137 174.656 651.817 173.636 652.317C172.616 652.797 171.366 653.037 169.886 653.037H160.976ZM165.026 649.737H169.226C170.326 649.737 171.176 649.487 171.776 648.987C172.376 648.487 172.676 647.767 172.676 646.827C172.676 645.887 172.366 645.157 171.746 644.637C171.126 644.097 170.266 643.827 169.166 643.827H165.026V649.737ZM165.026 640.797H168.926C169.986 640.797 170.786 640.557 171.326 640.077C171.886 639.597 172.166 638.917 172.166 638.037C172.166 637.177 171.886 636.507 171.326 636.027C170.786 635.527 169.976 635.277 168.896 635.277H165.026V640.797ZM186.717 653.397C185.297 653.397 184.007 653.067 182.847 652.407C181.687 651.747 180.767 650.827 180.087 649.647C179.427 648.467 179.097 647.117 179.097 645.597C179.097 644.057 179.437 642.707 180.117 641.547C180.797 640.367 181.717 639.447 182.877 638.787C184.037 638.127 185.327 637.797 186.747 637.797C188.187 637.797 189.487 638.127 190.647 638.787C191.807 639.447 192.717 640.367 193.377 641.547C194.057 642.707 194.397 644.057 194.397 645.597C194.397 647.137 194.057 648.497 193.377 649.677C192.697 650.837 191.777 651.747 190.617 652.407C189.477 653.067 188.177 653.397 186.717 653.397ZM186.747 649.947C187.387 649.947 187.967 649.787 188.487 649.467C189.027 649.127 189.457 648.637 189.777 647.997C190.117 647.357 190.287 646.557 190.287 645.597C190.287 644.637 190.117 643.837 189.777 643.197C189.457 642.537 189.037 642.047 188.517 641.727C187.997 641.407 187.417 641.247 186.777 641.247C186.137 641.247 185.547 641.407 185.007 641.727C184.467 642.047 184.037 642.537 183.717 643.197C183.397 643.837 183.237 644.637 183.237 645.597C183.237 646.557 183.397 647.357 183.717 647.997C184.037 648.637 184.457 649.127 184.977 649.467C185.517 649.787 186.107 649.947 186.747 649.947ZM203.437 653.037C202.377 653.037 201.447 652.877 200.647 652.557C199.867 652.217 199.257 651.667 198.817 650.907C198.377 650.127 198.157 649.067 198.157 647.727V641.487H195.607V638.157H198.157L198.607 634.107H202.207V638.157H206.167V641.487H202.207V647.787C202.207 648.467 202.357 648.947 202.657 649.227C202.957 649.487 203.467 649.617 204.187 649.617H206.077V653.037H203.437ZM213.767 653.397C212.527 653.397 211.507 653.197 210.707 652.797C209.907 652.397 209.317 651.857 208.937 651.177C208.557 650.497 208.367 649.747 208.367 648.927C208.367 648.007 208.597 647.207 209.057 646.527C209.537 645.827 210.257 645.277 211.217 644.877C212.177 644.477 213.377 644.277 214.817 644.277H218.567C218.567 643.557 218.457 642.957 218.237 642.477C218.037 641.997 217.727 641.647 217.307 641.427C216.887 641.187 216.337 641.067 215.657 641.067C214.897 641.067 214.237 641.237 213.677 641.577C213.117 641.917 212.777 642.447 212.657 643.167H208.727C208.827 642.067 209.187 641.117 209.807 640.317C210.427 639.517 211.247 638.897 212.267 638.457C213.287 638.017 214.427 637.797 215.687 637.797C217.107 637.797 218.337 638.037 219.377 638.517C220.417 638.977 221.217 639.667 221.777 640.587C222.337 641.487 222.617 642.587 222.617 643.887V653.037H219.227L218.777 650.727H218.747C218.507 651.147 218.217 651.517 217.877 651.837C217.557 652.157 217.187 652.437 216.767 652.677C216.347 652.917 215.887 653.097 215.387 653.217C214.887 653.337 214.347 653.397 213.767 653.397ZM214.877 650.277C215.417 650.277 215.887 650.187 216.287 650.007C216.707 649.807 217.067 649.547 217.367 649.227C217.667 648.907 217.897 648.537 218.057 648.117C218.237 647.677 218.357 647.227 218.417 646.767H215.297C214.677 646.767 214.167 646.847 213.767 647.007C213.367 647.147 213.077 647.357 212.897 647.637C212.717 647.897 212.627 648.207 212.627 648.567C212.627 648.927 212.717 649.237 212.897 649.497C213.097 649.757 213.357 649.957 213.677 650.097C214.017 650.217 214.417 650.277 214.877 650.277ZM217.277 636.177C216.697 636.177 216.197 636.067 215.777 635.847C215.377 635.607 215.007 635.377 214.667 635.157C214.327 634.917 213.947 634.797 213.527 634.797C213.207 634.797 212.927 634.907 212.687 635.127C212.467 635.347 212.317 635.687 212.237 636.147H210.107C210.327 634.807 210.747 633.837 211.367 633.237C212.007 632.617 212.787 632.307 213.707 632.307C214.287 632.307 214.777 632.427 215.177 632.667C215.577 632.887 215.947 633.107 216.287 633.327C216.647 633.547 217.037 633.657 217.457 633.657C217.797 633.657 218.077 633.547 218.297 633.327C218.537 633.107 218.687 632.767 218.747 632.307H220.877C220.677 633.647 220.257 634.627 219.617 635.247C218.997 635.867 218.217 636.177 217.277 636.177ZM232.919 653.397C231.499 653.397 230.209 653.067 229.049 652.407C227.889 651.747 226.969 650.827 226.289 649.647C225.629 648.467 225.299 647.117 225.299 645.597C225.299 644.057 225.639 642.707 226.319 641.547C226.999 640.367 227.919 639.447 229.079 638.787C230.239 638.127 231.529 637.797 232.949 637.797C234.389 637.797 235.689 638.127 236.849 638.787C238.009 639.447 238.919 640.367 239.579 641.547C240.259 642.707 240.599 644.057 240.599 645.597C240.599 647.137 240.259 648.497 239.579 649.677C238.899 650.837 237.979 651.747 236.819 652.407C235.679 653.067 234.379 653.397 232.919 653.397ZM232.949 649.947C233.589 649.947 234.169 649.787 234.689 649.467C235.229 649.127 235.659 648.637 235.979 647.997C236.319 647.357 236.489 646.557 236.489 645.597C236.489 644.637 236.319 643.837 235.979 643.197C235.659 642.537 235.239 642.047 234.719 641.727C234.199 641.407 233.619 641.247 232.979 641.247C232.339 641.247 231.749 641.407 231.209 641.727C230.669 642.047 230.239 642.537 229.919 643.197C229.599 643.837 229.439 644.637 229.439 645.597C229.439 646.557 229.599 647.357 229.919 647.997C230.239 648.637 230.659 649.127 231.179 649.467C231.719 649.787 232.309 649.947 232.949 649.947Z" fill="#6E6C83"/>
<path d="M144 439.037C144 432.41 149.373 427.037 156 427.037H245C251.627 427.037 257 432.41 257 439.037V585.037H144V439.037Z" fill="#CF2B2B"/>
<path d="M341.991 653.037V632.037H346.041V649.887H355.251V653.037H341.991ZM364.422 653.397C363.002 653.397 361.712 653.067 360.552 652.407C359.392 651.747 358.472 650.827 357.792 649.647C357.132 648.467 356.802 647.117 356.802 645.597C356.802 644.057 357.142 642.707 357.822 641.547C358.502 640.367 359.422 639.447 360.582 638.787C361.742 638.127 363.032 637.797 364.452 637.797C365.892 637.797 367.192 638.127 368.352 638.787C369.512 639.447 370.422 640.367 371.082 641.547C371.762 642.707 372.102 644.057 372.102 645.597C372.102 647.137 371.762 648.497 371.082 649.677C370.402 650.837 369.482 651.747 368.322 652.407C367.182 653.067 365.882 653.397 364.422 653.397ZM364.452 649.947C365.092 649.947 365.672 649.787 366.192 649.467C366.732 649.127 367.162 648.637 367.482 647.997C367.822 647.357 367.992 646.557 367.992 645.597C367.992 644.637 367.822 643.837 367.482 643.197C367.162 642.537 366.742 642.047 366.222 641.727C365.702 641.407 365.122 641.247 364.482 641.247C363.842 641.247 363.252 641.407 362.712 641.727C362.172 642.047 361.742 642.537 361.422 643.197C361.102 643.837 360.942 644.637 360.942 645.597C360.942 646.557 361.102 647.357 361.422 647.997C361.742 648.637 362.162 649.127 362.682 649.467C363.222 649.787 363.812 649.947 364.452 649.947ZM379.987 653.397C378.747 653.397 377.727 653.197 376.927 652.797C376.127 652.397 375.537 651.857 375.157 651.177C374.777 650.497 374.587 649.747 374.587 648.927C374.587 648.007 374.817 647.207 375.277 646.527C375.757 645.827 376.477 645.277 377.437 644.877C378.397 644.477 379.597 644.277 381.037 644.277H384.787C384.787 643.557 384.677 642.957 384.457 642.477C384.257 641.997 383.947 641.647 383.527 641.427C383.107 641.187 382.557 641.067 381.877 641.067C381.117 641.067 380.457 641.237 379.897 641.577C379.337 641.917 378.997 642.447 378.877 643.167H374.947C375.047 642.067 375.407 641.117 376.027 640.317C376.647 639.517 377.467 638.897 378.487 638.457C379.507 638.017 380.647 637.797 381.907 637.797C383.327 637.797 384.557 638.037 385.597 638.517C386.637 638.977 387.437 639.667 387.997 640.587C388.557 641.487 388.837 642.587 388.837 643.887V653.037H385.447L384.997 650.727H384.967C384.727 651.147 384.437 651.517 384.097 651.837C383.777 652.157 383.407 652.437 382.987 652.677C382.567 652.917 382.107 653.097 381.607 653.217C381.107 653.337 380.567 653.397 379.987 653.397ZM381.097 650.277C381.637 650.277 382.107 650.187 382.507 650.007C382.927 649.807 383.287 649.547 383.587 649.227C383.887 648.907 384.117 648.537 384.277 648.117C384.457 647.677 384.577 647.227 384.637 646.767H381.517C380.897 646.767 380.387 646.847 379.987 647.007C379.587 647.147 379.297 647.357 379.117 647.637C378.937 647.897 378.847 648.207 378.847 648.567C378.847 648.927 378.937 649.237 379.117 649.497C379.317 649.757 379.577 649.957 379.897 650.097C380.237 650.217 380.637 650.277 381.097 650.277ZM398.688 653.397C397.308 653.397 396.078 653.057 394.998 652.377C393.918 651.697 393.068 650.767 392.448 649.587C391.828 648.407 391.518 647.067 391.518 645.567C391.518 644.087 391.828 642.757 392.448 641.577C393.068 640.397 393.918 639.477 394.998 638.817C396.098 638.137 397.348 637.797 398.748 637.797C399.888 637.797 400.868 638.007 401.688 638.427C402.528 638.847 403.198 639.407 403.698 640.107V631.647H407.748V653.037H404.238L403.878 650.757H403.818C403.478 651.257 403.068 651.707 402.588 652.107C402.108 652.507 401.548 652.817 400.908 653.037C400.268 653.277 399.528 653.397 398.688 653.397ZM399.708 649.947C400.528 649.947 401.238 649.757 401.838 649.377C402.458 648.997 402.938 648.487 403.278 647.847C403.618 647.187 403.788 646.437 403.788 645.597C403.788 644.737 403.618 643.987 403.278 643.347C402.938 642.687 402.458 642.177 401.838 641.817C401.218 641.437 400.508 641.247 399.708 641.247C398.928 641.247 398.228 641.437 397.608 641.817C396.988 642.177 396.498 642.687 396.138 643.347C395.798 643.987 395.628 644.727 395.628 645.567C395.628 646.427 395.798 647.187 396.138 647.847C396.478 648.487 396.958 648.997 397.578 649.377C398.198 649.757 398.908 649.947 399.708 649.947ZM411.399 653.037V638.157H415.449V653.037H411.399ZM413.439 636.117C412.699 636.117 412.089 635.897 411.609 635.457C411.149 635.017 410.919 634.467 410.919 633.807C410.919 633.147 411.149 632.607 411.609 632.187C412.089 631.747 412.699 631.527 413.439 631.527C414.179 631.527 414.779 631.747 415.239 632.187C415.699 632.607 415.929 633.147 415.929 633.807C415.929 634.467 415.699 635.017 415.239 635.457C414.779 635.897 414.179 636.117 413.439 636.117ZM419.039 653.037V638.157H422.549L422.879 640.617H422.909C423.389 639.757 424.049 639.077 424.889 638.577C425.729 638.057 426.759 637.797 427.979 637.797C429.219 637.797 430.269 638.067 431.129 638.607C431.989 639.127 432.639 639.897 433.079 640.917C433.539 641.937 433.769 643.197 433.769 644.697V653.037H429.749V645.057C429.749 643.817 429.499 642.867 428.999 642.207C428.499 641.547 427.699 641.217 426.599 641.217C425.919 641.217 425.309 641.387 424.769 641.727C424.249 642.047 423.839 642.517 423.539 643.137C423.239 643.737 423.089 644.477 423.089 645.357V653.037H419.039ZM443.57 659.787C442.15 659.787 440.9 659.607 439.82 659.247C438.76 658.907 437.94 658.387 437.36 657.687C436.78 657.007 436.49 656.157 436.49 655.137C436.49 654.457 436.67 653.807 437.03 653.187C437.39 652.587 437.91 652.037 438.59 651.537C439.29 651.037 440.15 650.607 441.17 650.247L442.67 652.257C441.77 652.557 441.12 652.917 440.72 653.337C440.32 653.777 440.12 654.257 440.12 654.777C440.12 655.217 440.27 655.587 440.57 655.887C440.87 656.187 441.28 656.407 441.8 656.547C442.32 656.707 442.91 656.787 443.57 656.787C444.21 656.787 444.76 656.707 445.22 656.547C445.68 656.387 446.04 656.157 446.3 655.857C446.56 655.557 446.69 655.207 446.69 654.807C446.69 654.267 446.5 653.837 446.12 653.517C445.74 653.197 445 652.997 443.9 652.917C442.88 652.837 441.98 652.727 441.2 652.587C440.42 652.427 439.73 652.247 439.13 652.047C438.55 651.827 438.05 651.597 437.63 651.357C437.21 651.097 436.88 650.837 436.64 650.577V649.887L439.85 646.467L442.49 647.397L438.95 651.087L440.09 649.167C440.29 649.287 440.49 649.397 440.69 649.497C440.91 649.577 441.18 649.667 441.5 649.767C441.84 649.847 442.26 649.927 442.76 650.007C443.26 650.067 443.9 650.137 444.68 650.217C446 650.317 447.08 650.557 447.92 650.937C448.76 651.297 449.38 651.797 449.78 652.437C450.18 653.057 450.38 653.817 450.38 654.717C450.38 655.557 450.13 656.357 449.63 657.117C449.15 657.897 448.41 658.537 447.41 659.037C446.41 659.537 445.13 659.787 443.57 659.787ZM443.6 648.627C442.34 648.627 441.25 648.387 440.33 647.907C439.43 647.427 438.73 646.777 438.23 645.957C437.75 645.137 437.51 644.227 437.51 643.227C437.51 642.227 437.75 641.317 438.23 640.497C438.73 639.677 439.43 639.027 440.33 638.547C441.25 638.047 442.34 637.797 443.6 637.797C444.86 637.797 445.94 638.047 446.84 638.547C447.76 639.027 448.46 639.677 448.94 640.497C449.42 641.317 449.66 642.227 449.66 643.227C449.66 644.227 449.42 645.137 448.94 645.957C448.46 646.777 447.76 647.427 446.84 647.907C445.94 648.387 444.86 648.627 443.6 648.627ZM443.6 645.597C444.36 645.597 444.98 645.397 445.46 644.997C445.96 644.597 446.21 644.007 446.21 643.227C446.21 642.467 445.96 641.887 445.46 641.487C444.98 641.087 444.36 640.887 443.6 640.887C442.82 640.887 442.18 641.087 441.68 641.487C441.2 641.887 440.96 642.467 440.96 643.227C440.96 644.007 441.2 644.597 441.68 644.997C442.18 645.397 442.82 645.597 443.6 645.597ZM446.03 640.947L445.37 638.157H451.61V640.467L446.03 640.947Z" fill="#6E6C83"/>
<path d="M340 183.037C340 176.41 345.373 171.037 352 171.037H441C447.627 171.037 453 176.41 453 183.037V585.037H340V183.037Z" fill="#CF2B2B"/>
<path d="M557.019 653.038V632.038H561.069V653.038H557.019ZM564.488 653.038V638.158H567.998L568.328 640.618H568.358C568.838 639.758 569.498 639.078 570.338 638.578C571.178 638.058 572.208 637.798 573.428 637.798C574.668 637.798 575.718 638.068 576.578 638.608C577.438 639.128 578.088 639.898 578.528 640.918C578.988 641.938 579.218 643.198 579.218 644.698V653.038H575.198V645.058C575.198 643.818 574.948 642.868 574.448 642.208C573.948 641.548 573.148 641.218 572.048 641.218C571.368 641.218 570.758 641.388 570.218 641.728C569.698 642.048 569.288 642.518 568.988 643.138C568.688 643.738 568.538 644.478 568.538 645.358V653.038H564.488ZM582.389 659.428V638.158H585.929L586.289 640.438H586.349C586.689 639.938 587.089 639.488 587.549 639.088C588.029 638.688 588.589 638.378 589.229 638.158C589.889 637.918 590.629 637.798 591.449 637.798C592.849 637.798 594.079 638.138 595.139 638.818C596.219 639.498 597.069 640.428 597.689 641.608C598.309 642.768 598.619 644.108 598.619 645.628C598.619 647.108 598.309 648.438 597.689 649.618C597.069 650.798 596.219 651.728 595.139 652.408C594.059 653.068 592.809 653.398 591.389 653.398C590.269 653.398 589.289 653.188 588.449 652.768C587.629 652.348 586.959 651.788 586.439 651.088V659.428H582.389ZM590.429 649.948C591.229 649.948 591.939 649.768 592.559 649.408C593.179 649.028 593.659 648.518 593.999 647.878C594.339 647.218 594.509 646.468 594.509 645.628C594.509 644.768 594.339 644.018 593.999 643.378C593.659 642.718 593.179 642.198 592.559 641.818C591.939 641.438 591.229 641.248 590.429 641.248C589.629 641.248 588.919 641.438 588.299 641.818C587.679 642.198 587.199 642.718 586.859 643.378C586.519 644.018 586.349 644.758 586.349 645.598C586.349 646.458 586.519 647.218 586.859 647.878C587.199 648.518 587.679 649.028 588.299 649.408C588.919 649.768 589.629 649.948 590.429 649.948ZM607.07 653.398C605.85 653.398 604.8 653.138 603.92 652.618C603.06 652.098 602.4 651.328 601.94 650.308C601.5 649.268 601.28 647.998 601.28 646.498V638.158H605.3V646.138C605.3 647.378 605.55 648.328 606.05 648.988C606.55 649.648 607.34 649.978 608.42 649.978C609.12 649.978 609.73 649.818 610.25 649.498C610.79 649.158 611.21 648.688 611.51 648.088C611.83 647.468 611.99 646.718 611.99 645.838V638.158H616.04V653.038H612.5L612.17 650.578H612.14C611.68 651.438 611.02 652.128 610.16 652.648C609.32 653.148 608.29 653.398 607.07 653.398ZM626.111 653.038C625.051 653.038 624.121 652.878 623.321 652.558C622.541 652.218 621.931 651.668 621.491 650.908C621.051 650.128 620.831 649.068 620.831 647.728V641.488H618.281V638.158H620.831L621.281 634.108H624.881V638.158H628.841V641.488H624.881V647.788C624.881 648.468 625.031 648.948 625.331 649.228C625.631 649.488 626.141 649.618 626.861 649.618H628.751V653.038H626.111Z" fill="#6E6C83"/>
<path d="M536 407.037C536 400.41 541.373 395.037 548 395.037H637C643.627 395.037 649 400.41 649 407.037V585.037H536V407.037Z" fill="#CF2B2B"/>
<path d="M753.162 653.398C751.662 653.398 750.312 653.138 749.112 652.618C747.912 652.098 746.972 651.338 746.292 650.338C745.612 649.338 745.252 648.128 745.212 646.708H749.502C749.522 647.328 749.682 647.888 749.982 648.388C750.282 648.888 750.702 649.288 751.242 649.588C751.782 649.868 752.422 650.008 753.162 650.008C753.782 650.008 754.332 649.908 754.812 649.708C755.292 649.508 755.662 649.218 755.922 648.838C756.202 648.458 756.342 647.998 756.342 647.458C756.342 646.858 756.192 646.358 755.892 645.958C755.592 645.538 755.172 645.188 754.632 644.908C754.112 644.628 753.522 644.378 752.862 644.158C752.202 643.938 751.512 643.698 750.792 643.438C749.132 642.878 747.862 642.148 746.982 641.248C746.122 640.348 745.692 639.158 745.692 637.678C745.692 636.418 745.992 635.348 746.592 634.468C747.212 633.568 748.052 632.878 749.112 632.398C750.192 631.918 751.432 631.678 752.832 631.678C754.252 631.678 755.492 631.928 756.552 632.428C757.632 632.908 758.482 633.608 759.102 634.528C759.722 635.448 760.052 636.528 760.092 637.768H755.742C755.742 637.268 755.612 636.818 755.352 636.418C755.112 636.018 754.762 635.698 754.302 635.458C753.862 635.198 753.342 635.068 752.742 635.068C752.222 635.048 751.742 635.128 751.302 635.308C750.882 635.488 750.552 635.748 750.312 636.088C750.072 636.428 749.952 636.858 749.952 637.378C749.952 637.878 750.062 638.308 750.282 638.668C750.522 639.008 750.862 639.298 751.302 639.538C751.742 639.778 752.262 640.008 752.862 640.228C753.462 640.448 754.112 640.678 754.812 640.918C755.872 641.278 756.842 641.708 757.722 642.208C758.602 642.688 759.302 643.318 759.822 644.098C760.342 644.878 760.602 645.898 760.602 647.158C760.602 648.278 760.312 649.308 759.732 650.248C759.172 651.188 758.342 651.948 757.242 652.528C756.142 653.108 754.782 653.398 753.162 653.398ZM770.68 653.398C769.16 653.398 767.81 653.078 766.63 652.438C765.47 651.798 764.56 650.898 763.9 649.738C763.24 648.578 762.91 647.248 762.91 645.748C762.91 644.188 763.23 642.818 763.87 641.638C764.53 640.438 765.44 639.498 766.6 638.818C767.78 638.138 769.15 637.798 770.71 637.798C772.19 637.798 773.49 638.118 774.61 638.758C775.75 639.398 776.63 640.278 777.25 641.398C777.89 642.498 778.21 643.748 778.21 645.148C778.21 645.348 778.21 645.578 778.21 645.838C778.21 646.078 778.19 646.328 778.15 646.588H765.82V644.098H774.1C774.04 643.178 773.69 642.438 773.05 641.878C772.43 641.318 771.65 641.038 770.71 641.038C770.01 641.038 769.37 641.198 768.79 641.518C768.21 641.818 767.75 642.278 767.41 642.898C767.07 643.518 766.9 644.308 766.9 645.268V646.138C766.9 646.958 767.06 647.668 767.38 648.268C767.7 648.848 768.14 649.298 768.7 649.618C769.28 649.938 769.93 650.098 770.65 650.098C771.39 650.098 772.01 649.938 772.51 649.618C773.01 649.278 773.39 648.848 773.65 648.328H777.79C777.49 649.268 777.01 650.128 776.35 650.908C775.69 651.668 774.88 652.278 773.92 652.738C772.96 653.178 771.88 653.398 770.68 653.398ZM780.969 653.038V631.648H785.019V653.038H780.969ZM795.729 653.398C794.209 653.398 792.859 653.078 791.679 652.438C790.519 651.798 789.609 650.898 788.949 649.738C788.289 648.578 787.959 647.248 787.959 645.748C787.959 644.188 788.279 642.818 788.919 641.638C789.579 640.438 790.489 639.498 791.649 638.818C792.829 638.138 794.199 637.798 795.759 637.798C797.239 637.798 798.539 638.118 799.659 638.758C800.799 639.398 801.679 640.278 802.299 641.398C802.939 642.498 803.259 643.748 803.259 645.148C803.259 645.348 803.259 645.578 803.259 645.838C803.259 646.078 803.239 646.328 803.199 646.588H790.869V644.098H799.149C799.089 643.178 798.739 642.438 798.099 641.878C797.479 641.318 796.699 641.038 795.759 641.038C795.059 641.038 794.419 641.198 793.839 641.518C793.259 641.818 792.799 642.278 792.459 642.898C792.119 643.518 791.949 644.308 791.949 645.268V646.138C791.949 646.958 792.109 647.668 792.429 648.268C792.749 648.848 793.189 649.298 793.749 649.618C794.329 649.938 794.979 650.098 795.699 650.098C796.439 650.098 797.059 649.938 797.559 649.618C798.059 649.278 798.439 648.848 798.699 648.328H802.839C802.539 649.268 802.059 650.128 801.399 650.908C800.739 651.668 799.929 652.278 798.969 652.738C798.009 653.178 796.929 653.398 795.729 653.398ZM813.338 653.398C811.778 653.398 810.408 653.068 809.228 652.408C808.068 651.728 807.158 650.808 806.498 649.648C805.838 648.468 805.508 647.118 805.508 645.598C805.508 644.078 805.838 642.738 806.498 641.578C807.178 640.398 808.108 639.478 809.288 638.818C810.468 638.138 811.818 637.798 813.338 637.798C815.258 637.798 816.878 638.298 818.198 639.298C819.518 640.298 820.348 641.678 820.688 643.438H816.398C816.238 642.738 815.878 642.198 815.318 641.818C814.758 641.418 814.088 641.218 813.308 641.218C812.608 641.218 811.978 641.398 811.418 641.758C810.878 642.098 810.448 642.598 810.128 643.258C809.808 643.898 809.648 644.678 809.648 645.598C809.648 646.278 809.738 646.888 809.918 647.428C810.098 647.948 810.348 648.398 810.668 648.778C811.008 649.158 811.398 649.448 811.838 649.648C812.298 649.848 812.788 649.948 813.308 649.948C813.828 649.948 814.298 649.868 814.718 649.708C815.138 649.528 815.498 649.278 815.798 648.958C816.098 648.618 816.298 648.218 816.398 647.758H820.688C820.348 649.478 819.518 650.848 818.198 651.868C816.878 652.888 815.258 653.398 813.338 653.398ZM830.228 653.038C829.168 653.038 828.238 652.878 827.438 652.558C826.658 652.218 826.048 651.668 825.608 650.908C825.168 650.128 824.948 649.068 824.948 647.728V641.488H822.398V638.158H824.948L825.398 634.108H828.998V638.158H832.958V641.488H828.998V647.788C828.998 648.468 829.148 648.948 829.448 649.228C829.748 649.488 830.258 649.618 830.978 649.618H832.868V653.038H830.228Z" fill="#6E6C83"/>
<path d="M732 437.037C732 430.41 737.373 425.037 744 425.037H833C839.627 425.037 845 430.41 845 437.037V585.037H732V437.037Z" fill="#CF2B2B"/>
<path d="M953.163 653.038V635.308H947.013V632.038H963.333V635.308H957.183V653.038H953.163ZM967.958 653.398C966.718 653.398 965.698 653.198 964.898 652.798C964.098 652.398 963.508 651.858 963.128 651.178C962.748 650.498 962.558 649.748 962.558 648.928C962.558 648.008 962.788 647.208 963.248 646.528C963.728 645.828 964.448 645.278 965.408 644.878C966.368 644.478 967.568 644.278 969.008 644.278H972.758C972.758 643.558 972.648 642.958 972.428 642.478C972.228 641.998 971.918 641.648 971.498 641.428C971.078 641.188 970.528 641.068 969.848 641.068C969.088 641.068 968.428 641.238 967.868 641.578C967.308 641.918 966.968 642.448 966.848 643.168H962.918C963.018 642.068 963.378 641.118 963.998 640.318C964.618 639.518 965.438 638.898 966.458 638.458C967.478 638.018 968.618 637.798 969.878 637.798C971.298 637.798 972.528 638.038 973.568 638.518C974.608 638.978 975.408 639.668 975.968 640.588C976.528 641.488 976.808 642.588 976.808 643.888V653.038H973.418L972.968 650.728H972.938C972.698 651.148 972.408 651.518 972.068 651.838C971.748 652.158 971.378 652.438 970.958 652.678C970.538 652.918 970.078 653.098 969.578 653.218C969.078 653.338 968.538 653.398 967.958 653.398ZM969.068 650.278C969.608 650.278 970.078 650.188 970.478 650.008C970.898 649.808 971.258 649.548 971.558 649.228C971.858 648.908 972.088 648.538 972.248 648.118C972.428 647.678 972.548 647.228 972.608 646.768H969.488C968.868 646.768 968.358 646.848 967.958 647.008C967.558 647.148 967.268 647.358 967.088 647.638C966.908 647.898 966.818 648.208 966.818 648.568C966.818 648.928 966.908 649.238 967.088 649.498C967.288 649.758 967.548 649.958 967.868 650.098C968.208 650.218 968.608 650.278 969.068 650.278ZM989.118 653.398C988.338 653.398 987.628 653.298 986.988 653.098C986.368 652.898 985.798 652.608 985.278 652.228C984.778 651.828 984.358 651.358 984.018 650.818H983.958L983.598 653.038H980.058V631.648H984.108V640.168C984.588 639.528 985.228 638.978 986.028 638.518C986.848 638.038 987.858 637.798 989.058 637.798C990.498 637.798 991.758 638.138 992.838 638.818C993.918 639.498 994.758 640.428 995.358 641.608C995.978 642.768 996.288 644.108 996.288 645.628C996.288 647.108 995.978 648.438 995.358 649.618C994.758 650.798 993.918 651.728 992.838 652.408C991.758 653.068 990.518 653.398 989.118 653.398ZM988.098 649.948C988.918 649.948 989.628 649.768 990.228 649.408C990.848 649.028 991.328 648.518 991.668 647.878C992.008 647.218 992.178 646.458 992.178 645.598C992.178 644.758 992.008 644.008 991.668 643.348C991.328 642.688 990.848 642.178 990.228 641.818C989.628 641.438 988.918 641.248 988.098 641.248C987.298 641.248 986.588 641.438 985.968 641.818C985.348 642.178 984.868 642.688 984.528 643.348C984.188 643.988 984.018 644.738 984.018 645.598C984.018 646.438 984.188 647.188 984.528 647.848C984.868 648.508 985.348 649.028 985.968 649.408C986.588 649.768 987.298 649.948 988.098 649.948ZM999.189 653.038V631.648H1003.24V653.038H999.189ZM1013.95 653.398C1012.43 653.398 1011.08 653.078 1009.9 652.438C1008.74 651.798 1007.83 650.898 1007.17 649.738C1006.51 648.578 1006.18 647.248 1006.18 645.748C1006.18 644.188 1006.5 642.818 1007.14 641.638C1007.8 640.438 1008.71 639.498 1009.87 638.818C1011.05 638.138 1012.42 637.798 1013.98 637.798C1015.46 637.798 1016.76 638.118 1017.88 638.758C1019.02 639.398 1019.9 640.278 1020.52 641.398C1021.16 642.498 1021.48 643.748 1021.48 645.148C1021.48 645.348 1021.48 645.578 1021.48 645.838C1021.48 646.078 1021.46 646.328 1021.42 646.588H1009.09V644.098H1017.37C1017.31 643.178 1016.96 642.438 1016.32 641.878C1015.7 641.318 1014.92 641.038 1013.98 641.038C1013.28 641.038 1012.64 641.198 1012.06 641.518C1011.48 641.818 1011.02 642.278 1010.68 642.898C1010.34 643.518 1010.17 644.308 1010.17 645.268V646.138C1010.17 646.958 1010.33 647.668 1010.65 648.268C1010.97 648.848 1011.41 649.298 1011.97 649.618C1012.55 649.938 1013.2 650.098 1013.92 650.098C1014.66 650.098 1015.28 649.938 1015.78 649.618C1016.28 649.278 1016.66 648.848 1016.92 648.328H1021.06C1020.76 649.268 1020.28 650.128 1019.62 650.908C1018.96 651.668 1018.15 652.278 1017.19 652.738C1016.23 653.178 1015.15 653.398 1013.95 653.398Z" fill="#6E6C83"/>
<path d="M928 469.037C928 462.41 933.373 457.037 940 457.037H1029C1035.63 457.037 1041 462.41 1041 469.037V585.037H928V469.037Z" fill="#CF2B2B"/>
<path d="M1132.19 653.037V632.037H1139.48C1141.92 632.037 1143.94 632.477 1145.54 633.357C1147.14 634.217 1148.32 635.437 1149.08 637.017C1149.86 638.577 1150.25 640.417 1150.25 642.537C1150.25 644.657 1149.86 646.507 1149.08 648.087C1148.32 649.647 1147.14 650.867 1145.54 651.747C1143.94 652.607 1141.92 653.037 1139.48 653.037H1132.19ZM1136.24 649.557H1139.27C1140.99 649.557 1142.35 649.277 1143.35 648.717C1144.35 648.157 1145.06 647.357 1145.48 646.317C1145.9 645.257 1146.11 643.997 1146.11 642.537C1146.11 641.057 1145.9 639.797 1145.48 638.757C1145.06 637.697 1144.35 636.887 1143.35 636.327C1142.35 635.767 1140.99 635.487 1139.27 635.487H1136.24V649.557ZM1153.17 653.037V638.157H1156.71L1157.07 641.127H1157.13C1157.51 640.327 1157.96 639.687 1158.48 639.207C1159.02 638.727 1159.63 638.377 1160.31 638.157C1160.99 637.917 1161.75 637.797 1162.59 637.797V642.087H1161.48C1160.82 642.087 1160.22 642.157 1159.68 642.297C1159.16 642.437 1158.71 642.677 1158.33 643.017C1157.97 643.337 1157.69 643.767 1157.49 644.307C1157.31 644.847 1157.22 645.517 1157.22 646.317V653.037H1153.17ZM1169.72 653.397C1168.48 653.397 1167.46 653.197 1166.66 652.797C1165.86 652.397 1165.27 651.857 1164.89 651.177C1164.51 650.497 1164.32 649.747 1164.32 648.927C1164.32 648.007 1164.55 647.207 1165.01 646.527C1165.49 645.827 1166.21 645.277 1167.17 644.877C1168.13 644.477 1169.33 644.277 1170.77 644.277H1174.52C1174.52 643.557 1174.41 642.957 1174.19 642.477C1173.99 641.997 1173.68 641.647 1173.26 641.427C1172.84 641.187 1172.29 641.067 1171.61 641.067C1170.85 641.067 1170.19 641.237 1169.63 641.577C1169.07 641.917 1168.73 642.447 1168.61 643.167H1164.68C1164.78 642.067 1165.14 641.117 1165.76 640.317C1166.38 639.517 1167.2 638.897 1168.22 638.457C1169.24 638.017 1170.38 637.797 1171.64 637.797C1173.06 637.797 1174.29 638.037 1175.33 638.517C1176.37 638.977 1177.17 639.667 1177.73 640.587C1178.29 641.487 1178.57 642.587 1178.57 643.887V653.037H1175.18L1174.73 650.727H1174.7C1174.46 651.147 1174.17 651.517 1173.83 651.837C1173.51 652.157 1173.14 652.437 1172.72 652.677C1172.3 652.917 1171.84 653.097 1171.34 653.217C1170.84 653.337 1170.3 653.397 1169.72 653.397ZM1170.83 650.277C1171.37 650.277 1171.84 650.187 1172.24 650.007C1172.66 649.807 1173.02 649.547 1173.32 649.227C1173.62 648.907 1173.85 648.537 1174.01 648.117C1174.19 647.677 1174.31 647.227 1174.37 646.767H1171.25C1170.63 646.767 1170.12 646.847 1169.72 647.007C1169.32 647.147 1169.03 647.357 1168.85 647.637C1168.67 647.897 1168.58 648.207 1168.58 648.567C1168.58 648.927 1168.67 649.237 1168.85 649.497C1169.05 649.757 1169.31 649.957 1169.63 650.097C1169.97 650.217 1170.37 650.277 1170.83 650.277ZM1184.46 653.037L1180.29 638.157H1184.28L1187.07 650.487H1186.5L1189.68 638.157H1194.21L1197.42 650.457L1196.85 650.487L1199.64 638.157H1203.63L1199.43 653.037H1195.02L1191.63 640.527H1192.29L1188.9 653.037H1184.46ZM1212.46 653.397C1210.94 653.397 1209.59 653.077 1208.41 652.437C1207.25 651.797 1206.34 650.897 1205.68 649.737C1205.02 648.577 1204.69 647.247 1204.69 645.747C1204.69 644.187 1205.01 642.817 1205.65 641.637C1206.31 640.437 1207.22 639.497 1208.38 638.817C1209.56 638.137 1210.93 637.797 1212.49 637.797C1213.97 637.797 1215.27 638.117 1216.39 638.757C1217.53 639.397 1218.41 640.277 1219.03 641.397C1219.67 642.497 1219.99 643.747 1219.99 645.147C1219.99 645.347 1219.99 645.577 1219.99 645.837C1219.99 646.077 1219.97 646.327 1219.93 646.587H1207.6V644.097H1215.88C1215.82 643.177 1215.47 642.437 1214.83 641.877C1214.21 641.317 1213.43 641.037 1212.49 641.037C1211.79 641.037 1211.15 641.197 1210.57 641.517C1209.99 641.817 1209.53 642.277 1209.19 642.897C1208.85 643.517 1208.68 644.307 1208.68 645.267V646.137C1208.68 646.957 1208.84 647.667 1209.16 648.267C1209.48 648.847 1209.92 649.297 1210.48 649.617C1211.06 649.937 1211.71 650.097 1212.43 650.097C1213.17 650.097 1213.79 649.937 1214.29 649.617C1214.79 649.277 1215.17 648.847 1215.43 648.327H1219.57C1219.27 649.267 1218.79 650.127 1218.13 650.907C1217.47 651.667 1216.66 652.277 1215.7 652.737C1214.74 653.177 1213.66 653.397 1212.46 653.397ZM1222.72 653.037V638.157H1226.26L1226.62 641.127H1226.68C1227.06 640.327 1227.51 639.687 1228.03 639.207C1228.57 638.727 1229.18 638.377 1229.86 638.157C1230.54 637.917 1231.3 637.797 1232.14 637.797V642.087H1231.03C1230.37 642.087 1229.77 642.157 1229.23 642.297C1228.71 642.437 1228.26 642.677 1227.88 643.017C1227.52 643.337 1227.24 643.767 1227.04 644.307C1226.86 644.847 1226.77 645.517 1226.77 646.317V653.037H1222.72Z" fill="#6E6C83"/>
<path d="M1124 469.037C1124 462.41 1129.37 457.037 1136 457.037H1225C1231.63 457.037 1237 462.41 1237 469.037V585.037H1124V469.037Z" fill="#CF2B2B"/>
<path d="M1335.22 653.038V632.038H1342.51C1344.95 632.038 1346.97 632.478 1348.57 633.358C1350.17 634.218 1351.35 635.438 1352.11 637.018C1352.89 638.578 1353.28 640.418 1353.28 642.538C1353.28 644.658 1352.89 646.508 1352.11 648.088C1351.35 649.648 1350.17 650.868 1348.57 651.748C1346.97 652.608 1344.95 653.038 1342.51 653.038H1335.22ZM1339.27 649.558H1342.3C1344.02 649.558 1345.38 649.278 1346.38 648.718C1347.38 648.158 1348.09 647.358 1348.51 646.318C1348.93 645.258 1349.14 643.998 1349.14 642.538C1349.14 641.058 1348.93 639.798 1348.51 638.758C1348.09 637.698 1347.38 636.888 1346.38 636.328C1345.38 635.768 1344.02 635.488 1342.3 635.488H1339.27V649.558ZM1356.44 653.038V638.158H1360.49V653.038H1356.44ZM1358.48 636.118C1357.74 636.118 1357.13 635.898 1356.65 635.458C1356.19 635.018 1355.96 634.468 1355.96 633.808C1355.96 633.148 1356.19 632.608 1356.65 632.188C1357.13 631.748 1357.74 631.528 1358.48 631.528C1359.22 631.528 1359.82 631.748 1360.28 632.188C1360.74 632.608 1360.97 633.148 1360.97 633.808C1360.97 634.468 1360.74 635.018 1360.28 635.458C1359.82 635.898 1359.22 636.118 1358.48 636.118ZM1369.09 653.398C1367.85 653.398 1366.83 653.198 1366.03 652.798C1365.23 652.398 1364.64 651.858 1364.26 651.178C1363.88 650.498 1363.69 649.748 1363.69 648.928C1363.69 648.008 1363.92 647.208 1364.38 646.528C1364.86 645.828 1365.58 645.278 1366.54 644.878C1367.5 644.478 1368.7 644.278 1370.14 644.278H1373.89C1373.89 643.558 1373.78 642.958 1373.56 642.478C1373.36 641.998 1373.05 641.648 1372.63 641.428C1372.21 641.188 1371.66 641.068 1370.98 641.068C1370.22 641.068 1369.56 641.238 1369 641.578C1368.44 641.918 1368.1 642.448 1367.98 643.168H1364.05C1364.15 642.068 1364.51 641.118 1365.13 640.318C1365.75 639.518 1366.57 638.898 1367.59 638.458C1368.61 638.018 1369.75 637.798 1371.01 637.798C1372.43 637.798 1373.66 638.038 1374.7 638.518C1375.74 638.978 1376.54 639.668 1377.1 640.588C1377.66 641.488 1377.94 642.588 1377.94 643.888V653.038H1374.55L1374.1 650.728H1374.07C1373.83 651.148 1373.54 651.518 1373.2 651.838C1372.88 652.158 1372.51 652.438 1372.09 652.678C1371.67 652.918 1371.21 653.098 1370.71 653.218C1370.21 653.338 1369.67 653.398 1369.09 653.398ZM1370.2 650.278C1370.74 650.278 1371.21 650.188 1371.61 650.008C1372.03 649.808 1372.39 649.548 1372.69 649.228C1372.99 648.908 1373.22 648.538 1373.38 648.118C1373.56 647.678 1373.68 647.228 1373.74 646.768H1370.62C1370 646.768 1369.49 646.848 1369.09 647.008C1368.69 647.148 1368.4 647.358 1368.22 647.638C1368.04 647.898 1367.95 648.208 1367.95 648.568C1367.95 648.928 1368.04 649.238 1368.22 649.498C1368.42 649.758 1368.68 649.958 1369 650.098C1369.34 650.218 1369.74 650.278 1370.2 650.278ZM1381.13 653.038V631.648H1385.18V653.038H1381.13ZM1395.74 653.398C1394.32 653.398 1393.03 653.068 1391.87 652.408C1390.71 651.748 1389.79 650.828 1389.11 649.648C1388.45 648.468 1388.12 647.118 1388.12 645.598C1388.12 644.058 1388.46 642.708 1389.14 641.548C1389.82 640.368 1390.74 639.448 1391.9 638.788C1393.06 638.128 1394.35 637.798 1395.77 637.798C1397.21 637.798 1398.51 638.128 1399.67 638.788C1400.83 639.448 1401.74 640.368 1402.4 641.548C1403.08 642.708 1403.42 644.058 1403.42 645.598C1403.42 647.138 1403.08 648.498 1402.4 649.678C1401.72 650.838 1400.8 651.748 1399.64 652.408C1398.5 653.068 1397.2 653.398 1395.74 653.398ZM1395.77 649.948C1396.41 649.948 1396.99 649.788 1397.51 649.468C1398.05 649.128 1398.48 648.638 1398.8 647.998C1399.14 647.358 1399.31 646.558 1399.31 645.598C1399.31 644.638 1399.14 643.838 1398.8 643.198C1398.48 642.538 1398.06 642.048 1397.54 641.728C1397.02 641.408 1396.44 641.248 1395.8 641.248C1395.16 641.248 1394.57 641.408 1394.03 641.728C1393.49 642.048 1393.06 642.538 1392.74 643.198C1392.42 643.838 1392.26 644.638 1392.26 645.598C1392.26 646.558 1392.42 647.358 1392.74 647.998C1393.06 648.638 1393.48 649.128 1394 649.468C1394.54 649.788 1395.13 649.948 1395.77 649.948ZM1412.34 659.788C1410.92 659.788 1409.67 659.608 1408.59 659.248C1407.53 658.908 1406.71 658.388 1406.13 657.688C1405.55 657.008 1405.26 656.158 1405.26 655.138C1405.26 654.458 1405.44 653.808 1405.8 653.188C1406.16 652.588 1406.68 652.038 1407.36 651.538C1408.06 651.038 1408.92 650.608 1409.94 650.248L1411.44 652.258C1410.54 652.558 1409.89 652.918 1409.49 653.338C1409.09 653.778 1408.89 654.258 1408.89 654.778C1408.89 655.218 1409.04 655.588 1409.34 655.888C1409.64 656.188 1410.05 656.408 1410.57 656.548C1411.09 656.708 1411.68 656.788 1412.34 656.788C1412.98 656.788 1413.53 656.708 1413.99 656.548C1414.45 656.388 1414.81 656.158 1415.07 655.858C1415.33 655.558 1415.46 655.208 1415.46 654.808C1415.46 654.268 1415.27 653.838 1414.89 653.518C1414.51 653.198 1413.77 652.998 1412.67 652.918C1411.65 652.838 1410.75 652.728 1409.97 652.588C1409.19 652.428 1408.5 652.248 1407.9 652.048C1407.32 651.828 1406.82 651.598 1406.4 651.358C1405.98 651.098 1405.65 650.838 1405.41 650.578V649.888L1408.62 646.468L1411.26 647.398L1407.72 651.088L1408.86 649.168C1409.06 649.288 1409.26 649.398 1409.46 649.498C1409.68 649.578 1409.95 649.668 1410.27 649.768C1410.61 649.848 1411.03 649.928 1411.53 650.008C1412.03 650.068 1412.67 650.138 1413.45 650.218C1414.77 650.318 1415.85 650.558 1416.69 650.938C1417.53 651.298 1418.15 651.798 1418.55 652.438C1418.95 653.058 1419.15 653.818 1419.15 654.718C1419.15 655.558 1418.9 656.358 1418.4 657.118C1417.92 657.898 1417.18 658.538 1416.18 659.038C1415.18 659.538 1413.9 659.788 1412.34 659.788ZM1412.37 648.628C1411.11 648.628 1410.02 648.388 1409.1 647.908C1408.2 647.428 1407.5 646.778 1407 645.958C1406.52 645.138 1406.28 644.228 1406.28 643.228C1406.28 642.228 1406.52 641.318 1407 640.498C1407.5 639.678 1408.2 639.028 1409.1 638.548C1410.02 638.048 1411.11 637.798 1412.37 637.798C1413.63 637.798 1414.71 638.048 1415.61 638.548C1416.53 639.028 1417.23 639.678 1417.71 640.498C1418.19 641.318 1418.43 642.228 1418.43 643.228C1418.43 644.228 1418.19 645.138 1417.71 645.958C1417.23 646.778 1416.53 647.428 1415.61 647.908C1414.71 648.388 1413.63 648.628 1412.37 648.628ZM1412.37 645.598C1413.13 645.598 1413.75 645.398 1414.23 644.998C1414.73 644.598 1414.98 644.008 1414.98 643.228C1414.98 642.468 1414.73 641.888 1414.23 641.488C1413.75 641.088 1413.13 640.888 1412.37 640.888C1411.59 640.888 1410.95 641.088 1410.45 641.488C1409.97 641.888 1409.73 642.468 1409.73 643.228C1409.73 644.008 1409.97 644.598 1410.45 644.998C1410.95 645.398 1411.59 645.598 1412.37 645.598ZM1414.8 640.948L1414.14 638.158H1420.38V640.468L1414.8 640.948Z" fill="#6E6C83"/>
<path d="M1320 533.037C1320 526.41 1325.37 521.037 1332 521.037H1421C1427.63 521.037 1433 526.41 1433 533.037V585.037H1320V533.037Z" fill="#CF2B2B"/>
<path d="M1530.7 653.037V635.307H1524.55V632.037H1540.87V635.307H1534.72V653.037H1530.7ZM1547.83 653.397C1546.41 653.397 1545.12 653.067 1543.96 652.407C1542.8 651.747 1541.88 650.827 1541.2 649.647C1540.54 648.467 1540.21 647.117 1540.21 645.597C1540.21 644.057 1540.55 642.707 1541.23 641.547C1541.91 640.367 1542.83 639.447 1543.99 638.787C1545.15 638.127 1546.44 637.797 1547.86 637.797C1549.3 637.797 1550.6 638.127 1551.76 638.787C1552.92 639.447 1553.83 640.367 1554.49 641.547C1555.17 642.707 1555.51 644.057 1555.51 645.597C1555.51 647.137 1555.17 648.497 1554.49 649.677C1553.81 650.837 1552.89 651.747 1551.73 652.407C1550.59 653.067 1549.29 653.397 1547.83 653.397ZM1547.86 649.947C1548.5 649.947 1549.08 649.787 1549.6 649.467C1550.14 649.127 1550.57 648.637 1550.89 647.997C1551.23 647.357 1551.4 646.557 1551.4 645.597C1551.4 644.637 1551.23 643.837 1550.89 643.197C1550.57 642.537 1550.15 642.047 1549.63 641.727C1549.11 641.407 1548.53 641.247 1547.89 641.247C1547.25 641.247 1546.66 641.407 1546.12 641.727C1545.58 642.047 1545.15 642.537 1544.83 643.197C1544.51 643.837 1544.35 644.637 1544.35 645.597C1544.35 646.557 1544.51 647.357 1544.83 647.997C1545.15 648.637 1545.57 649.127 1546.09 649.467C1546.63 649.787 1547.22 649.947 1547.86 649.947ZM1565.53 653.397C1564.11 653.397 1562.82 653.067 1561.66 652.407C1560.5 651.747 1559.58 650.827 1558.9 649.647C1558.24 648.467 1557.91 647.117 1557.91 645.597C1557.91 644.057 1558.25 642.707 1558.93 641.547C1559.61 640.367 1560.53 639.447 1561.69 638.787C1562.85 638.127 1564.14 637.797 1565.56 637.797C1567 637.797 1568.3 638.127 1569.46 638.787C1570.62 639.447 1571.53 640.367 1572.19 641.547C1572.87 642.707 1573.21 644.057 1573.21 645.597C1573.21 647.137 1572.87 648.497 1572.19 649.677C1571.51 650.837 1570.59 651.747 1569.43 652.407C1568.29 653.067 1566.99 653.397 1565.53 653.397ZM1565.56 649.947C1566.2 649.947 1566.78 649.787 1567.3 649.467C1567.84 649.127 1568.27 648.637 1568.59 647.997C1568.93 647.357 1569.1 646.557 1569.1 645.597C1569.1 644.637 1568.93 643.837 1568.59 643.197C1568.27 642.537 1567.85 642.047 1567.33 641.727C1566.81 641.407 1566.23 641.247 1565.59 641.247C1564.95 641.247 1564.36 641.407 1563.82 641.727C1563.28 642.047 1562.85 642.537 1562.53 643.197C1562.21 643.837 1562.05 644.637 1562.05 645.597C1562.05 646.557 1562.21 647.357 1562.53 647.997C1562.85 648.637 1563.27 649.127 1563.79 649.467C1564.33 649.787 1564.92 649.947 1565.56 649.947ZM1576.11 653.037V631.647H1580.16V653.037H1576.11ZM1590.33 653.037C1589.27 653.037 1588.34 652.877 1587.54 652.557C1586.76 652.217 1586.15 651.667 1585.71 650.907C1585.27 650.127 1585.05 649.067 1585.05 647.727V641.487H1582.5V638.157H1585.05L1585.5 634.107H1589.1V638.157H1593.06V641.487H1589.1V647.787C1589.1 648.467 1589.25 648.947 1589.55 649.227C1589.85 649.487 1590.36 649.617 1591.08 649.617H1592.97V653.037H1590.33ZM1595.89 653.037V638.157H1599.94V653.037H1595.89ZM1597.93 636.117C1597.19 636.117 1596.58 635.897 1596.1 635.457C1595.64 635.017 1595.41 634.467 1595.41 633.807C1595.41 633.147 1595.64 632.607 1596.1 632.187C1596.58 631.747 1597.19 631.527 1597.93 631.527C1598.67 631.527 1599.27 631.747 1599.73 632.187C1600.19 632.607 1600.42 633.147 1600.42 633.807C1600.42 634.467 1600.19 635.017 1599.73 635.457C1599.27 635.897 1598.67 636.117 1597.93 636.117ZM1603.57 659.427V638.157H1607.11L1607.47 640.437H1607.53C1607.87 639.937 1608.27 639.487 1608.73 639.087C1609.21 638.687 1609.77 638.377 1610.41 638.157C1611.07 637.917 1611.81 637.797 1612.63 637.797C1614.03 637.797 1615.26 638.137 1616.32 638.817C1617.4 639.497 1618.25 640.427 1618.87 641.607C1619.49 642.767 1619.8 644.107 1619.8 645.627C1619.8 647.107 1619.49 648.437 1618.87 649.617C1618.25 650.797 1617.4 651.727 1616.32 652.407C1615.24 653.067 1613.99 653.397 1612.57 653.397C1611.45 653.397 1610.47 653.187 1609.63 652.767C1608.81 652.347 1608.14 651.787 1607.62 651.087V659.427H1603.57ZM1611.61 649.947C1612.41 649.947 1613.12 649.767 1613.74 649.407C1614.36 649.027 1614.84 648.517 1615.18 647.877C1615.52 647.217 1615.69 646.467 1615.69 645.627C1615.69 644.767 1615.52 644.017 1615.18 643.377C1614.84 642.717 1614.36 642.197 1613.74 641.817C1613.12 641.437 1612.41 641.247 1611.61 641.247C1610.81 641.247 1610.1 641.437 1609.48 641.817C1608.86 642.197 1608.38 642.717 1608.04 643.377C1607.7 644.017 1607.53 644.757 1607.53 645.597C1607.53 646.457 1607.7 647.217 1608.04 647.877C1608.38 648.517 1608.86 649.027 1609.48 649.407C1610.1 649.767 1610.81 649.947 1611.61 649.947Z" fill="#6E6C83"/>
<path d="M1516 503.037C1516 496.41 1521.37 491.037 1528 491.037H1617C1623.63 491.037 1629 496.41 1629 503.037V585.037H1516V503.037Z" fill="#CF2B2B"/>
<path d="M20.2119 499.529C18.8519 499.529 17.6019 499.279 16.4619 498.779C15.3419 498.279 14.4319 497.519 13.7319 496.499C13.0519 495.479 12.6919 494.189 12.6519 492.629H16.6419C16.6619 493.289 16.8119 493.889 17.0919 494.429C17.3719 494.949 17.7819 495.369 18.3219 495.689C18.8619 495.989 19.5019 496.139 20.2419 496.139C20.9419 496.139 21.5419 495.999 22.0419 495.719C22.5419 495.439 22.9119 495.069 23.1519 494.609C23.4119 494.149 23.5419 493.619 23.5419 493.019C23.5419 492.299 23.3719 491.709 23.0319 491.249C22.6919 490.769 22.2119 490.409 21.5919 490.169C20.9919 489.909 20.3019 489.779 19.5219 489.779H17.9319V486.449H19.4919C20.4719 486.449 21.2919 486.229 21.9519 485.789C22.6319 485.329 22.9719 484.649 22.9719 483.749C22.9719 482.989 22.7219 482.379 22.2219 481.919C21.7419 481.459 21.0719 481.229 20.2119 481.229C19.2519 481.229 18.5119 481.509 17.9919 482.069C17.4719 482.629 17.1819 483.319 17.1219 484.139H13.1619C13.2219 482.819 13.5519 481.689 14.1519 480.749C14.7519 479.789 15.5719 479.059 16.6119 478.559C17.6519 478.059 18.8519 477.809 20.2119 477.809C21.6719 477.809 22.8919 478.069 23.8719 478.589C24.8719 479.089 25.6319 479.769 26.1519 480.629C26.6719 481.469 26.9319 482.399 26.9319 483.419C26.9319 484.219 26.7719 484.939 26.4519 485.579C26.1519 486.199 25.7519 486.719 25.2519 487.139C24.7519 487.559 24.1919 487.869 23.5719 488.069C24.3519 488.209 25.0319 488.509 25.6119 488.969C26.2119 489.429 26.6719 490.019 26.9919 490.739C27.3319 491.439 27.5019 492.249 27.5019 493.169C27.5019 494.309 27.2219 495.369 26.6619 496.349C26.1019 497.309 25.2819 498.079 24.2019 498.659C23.1219 499.239 21.7919 499.529 20.2119 499.529Z" fill="#6E6C83"/>
<path d="M20.2651 405.695C18.6651 405.695 17.3151 405.405 16.2151 404.825C15.1351 404.225 14.2651 403.435 13.6051 402.455C12.9651 401.475 12.4951 400.385 12.1951 399.185C11.8951 397.985 11.7451 396.765 11.7451 395.525C11.7451 393.165 12.0751 391.125 12.7351 389.405C13.4151 387.685 14.3751 386.355 15.6151 385.415C16.8551 384.455 18.3551 383.975 20.1151 383.975C21.5951 383.975 22.8351 384.265 23.8351 384.845C24.8551 385.405 25.6451 386.155 26.2051 387.095C26.7851 388.015 27.1151 389.015 27.1951 390.095H23.4451C23.2851 389.195 22.9151 388.505 22.3351 388.025C21.7551 387.545 21.0051 387.305 20.0851 387.305C19.2451 387.305 18.5051 387.565 17.8651 388.085C17.2251 388.605 16.7151 389.385 16.3351 390.425C15.9751 391.465 15.7651 392.775 15.7051 394.355C15.7051 394.375 15.7051 394.405 15.7051 394.445C15.7051 394.465 15.7051 394.485 15.7051 394.505C16.0251 393.965 16.4551 393.495 16.9951 393.095C17.5351 392.675 18.1451 392.345 18.8251 392.105C19.5051 391.865 20.2151 391.745 20.9551 391.745C22.1151 391.745 23.2051 392.025 24.2251 392.585C25.2451 393.145 26.0651 393.935 26.6851 394.955C27.3251 395.975 27.6451 397.185 27.6451 398.585C27.6451 399.845 27.3351 401.025 26.7151 402.125C26.0951 403.205 25.2251 404.075 24.1051 404.735C23.0051 405.375 21.7251 405.695 20.2651 405.695ZM20.0251 402.215C20.7451 402.215 21.3851 402.065 21.9451 401.765C22.5051 401.465 22.9451 401.055 23.2651 400.535C23.5851 399.995 23.7451 399.385 23.7451 398.705C23.7451 397.985 23.5851 397.365 23.2651 396.845C22.9451 396.325 22.4951 395.915 21.9151 395.615C21.3551 395.315 20.7151 395.165 19.9951 395.165C19.2951 395.165 18.6551 395.325 18.0751 395.645C17.5151 395.945 17.0651 396.365 16.7251 396.905C16.4051 397.425 16.2451 398.015 16.2451 398.675C16.2451 399.355 16.4051 399.965 16.7251 400.505C17.0651 401.025 17.5151 401.445 18.0751 401.765C18.6551 402.065 19.3051 402.215 20.0251 402.215Z" fill="#6E6C83"/>
<path d="M19.3051 311.862C17.8451 311.862 16.6051 311.582 15.5851 311.022C14.5651 310.442 13.7751 309.682 13.2151 308.742C12.6751 307.802 12.3451 306.802 12.2251 305.742H16.0051C16.1851 306.642 16.5551 307.332 17.1151 307.812C17.6951 308.292 18.4451 308.532 19.3651 308.532C20.2251 308.532 20.9651 308.272 21.5851 307.752C22.2251 307.232 22.7251 306.462 23.0851 305.442C23.4651 304.402 23.6751 303.102 23.7151 301.542C23.7151 301.502 23.7151 301.462 23.7151 301.422C23.7151 301.382 23.7151 301.352 23.7151 301.332C23.4151 301.852 22.9951 302.322 22.4551 302.742C21.9151 303.162 21.3051 303.492 20.6251 303.732C19.9451 303.972 19.2251 304.092 18.4651 304.092C17.3251 304.092 16.2451 303.812 15.2251 303.252C14.2051 302.692 13.3751 301.902 12.7351 300.882C12.0951 299.862 11.7751 298.652 11.7751 297.252C11.7751 295.972 12.0851 294.792 12.7051 293.712C13.3451 292.632 14.2151 291.772 15.3151 291.132C16.4351 290.472 17.7251 290.142 19.1851 290.142C20.7851 290.142 22.1251 290.442 23.2051 291.042C24.2851 291.622 25.1551 292.402 25.8151 293.382C26.4751 294.362 26.9451 295.452 27.2251 296.652C27.5251 297.852 27.6751 299.072 27.6751 300.312C27.6751 302.652 27.3451 304.692 26.6851 306.432C26.0251 308.152 25.0651 309.492 23.8051 310.452C22.5651 311.392 21.0651 311.862 19.3051 311.862ZM19.4251 300.672C20.1451 300.672 20.7851 300.522 21.3451 300.222C21.9251 299.902 22.3751 299.482 22.6951 298.962C23.0351 298.422 23.2051 297.822 23.2051 297.162C23.2051 296.482 23.0351 295.872 22.6951 295.332C22.3751 294.792 21.9251 294.372 21.3451 294.072C20.7851 293.772 20.1351 293.622 19.3951 293.622C18.6751 293.622 18.0351 293.772 17.4751 294.072C16.9151 294.372 16.4751 294.782 16.1551 295.302C15.8351 295.822 15.6751 296.432 15.6751 297.132C15.6751 297.832 15.8351 298.452 16.1551 298.992C16.4751 299.512 16.9151 299.922 17.4751 300.222C18.0551 300.522 18.7051 300.672 19.4251 300.672Z" fill="#6E6C83"/>
<path d="M6.33477 217.668V201.318L2.82477 202.128V198.978L8.04477 196.668H10.5048V217.668H6.33477ZM13.4715 217.668V214.698C14.7515 213.678 15.9815 212.658 17.1615 211.638C18.3615 210.618 19.4415 209.608 20.4015 208.608C21.3615 207.588 22.1115 206.598 22.6515 205.638C23.2115 204.678 23.4915 203.748 23.4915 202.848C23.4915 202.288 23.3915 201.778 23.1915 201.318C22.9915 200.838 22.6815 200.458 22.2615 200.178C21.8415 199.878 21.2915 199.728 20.6115 199.728C19.9115 199.728 19.3215 199.888 18.8415 200.208C18.3815 200.528 18.0315 200.958 17.7915 201.498C17.5515 202.018 17.4315 202.608 17.4315 203.268H13.5015C13.5415 201.728 13.8815 200.438 14.5215 199.398C15.1815 198.358 16.0415 197.588 17.1015 197.088C18.1815 196.568 19.3915 196.308 20.7315 196.308C22.1915 196.308 23.4315 196.588 24.4515 197.148C25.4715 197.688 26.2415 198.428 26.7615 199.368C27.2815 200.308 27.5415 201.388 27.5415 202.608C27.5415 203.528 27.3715 204.428 27.0315 205.308C26.7115 206.188 26.2615 207.048 25.6815 207.888C25.1015 208.708 24.4415 209.498 23.7015 210.258C22.9815 211.018 22.2215 211.748 21.4215 212.448C20.6415 213.128 19.8715 213.768 19.1115 214.368H28.0515V217.668H13.4715Z" fill="#6E6C83"/>
<path d="M5.13359 123.834V107.484L1.62359 108.294V105.144L6.84359 102.834H9.30359V123.834H5.13359ZM20.2203 124.194C18.6803 124.194 17.3503 123.924 16.2303 123.384C15.1303 122.824 14.2603 122.074 13.6203 121.134C13.0003 120.174 12.6403 119.094 12.5403 117.894H16.4703C16.6303 118.694 17.0503 119.374 17.7303 119.934C18.4103 120.474 19.2503 120.744 20.2503 120.744C20.9703 120.744 21.6003 120.564 22.1403 120.204C22.6803 119.844 23.1003 119.354 23.4003 118.734C23.7203 118.094 23.8803 117.394 23.8803 116.634C23.8803 115.814 23.7203 115.114 23.4003 114.534C23.1003 113.934 22.6803 113.484 22.1403 113.184C21.6003 112.864 20.9803 112.704 20.2803 112.704C19.4203 112.704 18.6703 112.914 18.0303 113.334C17.4103 113.754 16.9803 114.284 16.7403 114.924H12.8403L14.6403 102.834H26.3403V106.374H17.6403L16.7103 110.994C17.1703 110.534 17.7703 110.154 18.5103 109.854C19.2503 109.554 20.0803 109.404 21.0003 109.404C22.1203 109.404 23.1003 109.604 23.9403 110.004C24.8003 110.384 25.5103 110.914 26.0703 111.594C26.6503 112.274 27.0803 113.044 27.3603 113.904C27.6403 114.764 27.7803 115.654 27.7803 116.574C27.7803 117.694 27.6003 118.724 27.2403 119.664C26.8803 120.584 26.3603 121.384 25.6803 122.064C25.0003 122.744 24.2003 123.274 23.2803 123.654C22.3603 124.014 21.3403 124.194 20.2203 124.194Z" fill="#6E6C83"/>
<path d="M4.60625 30V13.65L1.09625 14.46V11.31L6.31625 9H8.77625V30H4.60625ZM19.783 30.36C18.323 30.36 17.003 30.1 15.823 29.58C14.663 29.06 13.733 28.33 13.033 27.39C12.353 26.45 12.013 25.36 12.013 24.12C12.013 23.26 12.163 22.48 12.463 21.78C12.763 21.08 13.173 20.46 13.693 19.92C14.233 19.38 14.873 18.97 15.613 18.69C14.673 18.27 13.923 17.67 13.363 16.89C12.823 16.11 12.553 15.23 12.553 14.25C12.553 13.27 12.823 12.35 13.363 11.49C13.903 10.63 14.703 9.94 15.763 9.42C16.843 8.9 18.183 8.64 19.783 8.64C21.363 8.64 22.683 8.9 23.743 9.42C24.823 9.94 25.633 10.63 26.173 11.49C26.713 12.35 26.983 13.27 26.983 14.25C26.983 15.21 26.703 16.09 26.143 16.89C25.583 17.67 24.843 18.27 23.923 18.69C24.663 18.99 25.303 19.41 25.843 19.95C26.383 20.47 26.793 21.08 27.073 21.78C27.373 22.48 27.523 23.26 27.523 24.12C27.523 25.36 27.173 26.45 26.473 27.39C25.793 28.33 24.863 29.06 23.683 29.58C22.523 30.1 21.223 30.36 19.783 30.36ZM19.783 26.97C21.023 26.97 21.953 26.67 22.573 26.07C23.213 25.47 23.533 24.71 23.533 23.79C23.533 22.77 23.203 21.97 22.543 21.39C21.883 20.79 20.963 20.49 19.783 20.49C18.603 20.49 17.673 20.79 16.993 21.39C16.313 21.97 15.973 22.77 15.973 23.79C15.973 24.71 16.293 25.47 16.933 26.07C17.593 26.67 18.543 26.97 19.783 26.97ZM19.783 17.52C20.803 17.52 21.593 17.26 22.153 16.74C22.733 16.22 23.023 15.55 23.023 14.73C23.023 13.85 22.733 13.17 22.153 12.69C21.593 12.19 20.803 11.94 19.783 11.94C18.763 11.94 17.963 12.19 17.383 12.69C16.823 13.17 16.543 13.86 16.543 14.76C16.543 15.56 16.823 16.22 17.383 16.74C17.963 17.26 18.763 17.52 19.783 17.52Z" fill="#6E6C83"/>
<path d="M18.4377 593.363C16.4977 593.363 14.8277 592.903 13.4277 591.983C12.0277 591.063 10.9477 589.793 10.1877 588.173C9.44766 586.533 9.07766 584.643 9.07766 582.503C9.07766 580.363 9.44766 578.483 10.1877 576.863C10.9477 575.223 12.0177 573.943 13.3977 573.023C14.7977 572.103 16.4777 571.643 18.4377 571.643C20.3777 571.643 22.0377 572.103 23.4177 573.023C24.8177 573.943 25.8877 575.223 26.6277 576.863C27.3877 578.483 27.7677 580.363 27.7677 582.503C27.7677 584.643 27.3877 586.533 26.6277 588.173C25.8877 589.793 24.8177 591.063 23.4177 591.983C22.0377 592.903 20.3777 593.363 18.4377 593.363ZM18.4377 589.733C19.4577 589.733 20.3577 589.443 21.1377 588.863C21.9377 588.263 22.5477 587.423 22.9677 586.343C23.4077 585.263 23.6277 583.983 23.6277 582.503C23.6277 581.003 23.4077 579.723 22.9677 578.663C22.5477 577.583 21.9377 576.753 21.1377 576.173C20.3577 575.593 19.4577 575.303 18.4377 575.303C17.4177 575.303 16.5077 575.593 15.7077 576.173C14.9277 576.753 14.3177 577.583 13.8777 578.663C13.4377 579.723 13.2177 581.003 13.2177 582.503C13.2177 583.983 13.4377 585.263 13.8777 586.343C14.3177 587.423 14.9277 588.263 15.7077 588.863C16.5077 589.443 17.4177 589.733 18.4377 589.733Z" fill="#6E6C83"/>
</svg>
