<svg width="24" height="24" viewBox="0 0 24 24" fill="none" xmlns="http://www.w3.org/2000/svg">
<circle cx="12" cy="12" r="12" fill="#CF2B2B"/>
<path d="M14.0751 16.9154V15.8232C14.0751 15.399 13.9097 14.9944 13.6195 14.6982C13.3297 14.4024 12.9393 14.2385 12.535 14.2385H8.25498C7.85064 14.2386 7.46018 14.4024 7.17041 14.6982C6.88022 14.9944 6.71514 15.399 6.71514 15.8232V16.9154C6.71513 17.2467 6.4465 17.5154 6.11514 17.5154C5.78377 17.5154 5.51514 17.2467 5.51514 16.9154V15.8232C5.51514 15.0887 5.8008 14.3816 6.31318 13.8585C6.826 13.335 7.5243 13.0386 8.25498 13.0385H12.535C13.2657 13.0385 13.9639 13.335 14.4768 13.8585C14.9892 14.3817 15.2751 15.0886 15.2751 15.8232V16.9154C15.2751 17.2467 15.0064 17.5154 14.6751 17.5154C14.3437 17.5154 14.0751 17.2467 14.0751 16.9154Z" fill="white"/>
<path d="M11.9351 9.26953C11.9351 8.38268 11.2338 7.68486 10.3949 7.68486C9.55609 7.68494 8.85509 8.38273 8.85509 9.26953C8.85514 10.1563 9.55612 10.8538 10.3949 10.8539C11.2338 10.8539 11.935 10.1563 11.9351 9.26953ZM13.1351 9.26953C13.135 10.7956 11.9197 12.0539 10.3949 12.0539C8.87018 12.0538 7.65514 10.7956 7.65509 9.26953C7.65509 7.74343 8.87014 6.48494 10.3949 6.48486C11.9198 6.48486 13.1351 7.74338 13.1351 9.26953Z" fill="white"/>
<path d="M17.2849 16.9155V15.8236L17.2837 15.7574C17.2701 15.4269 17.1561 15.1094 16.9585 14.8492C16.748 14.572 16.455 14.3761 16.1271 14.2897C15.8067 14.2052 15.6155 13.8771 15.7 13.5566C15.7844 13.2362 16.1125 13.045 16.433 13.1295C17.0232 13.2851 17.5437 13.6357 17.9142 14.1235C18.2845 14.6112 18.4845 15.2089 18.4849 15.8228V16.9155C18.4849 17.2469 18.2162 17.5155 17.8849 17.5155C17.5536 17.5155 17.285 17.2468 17.2849 16.9155Z" fill="white"/>
<path d="M15.1494 9.27222C15.1494 8.91724 15.0334 8.57365 14.8221 8.29576C14.611 8.01809 14.3171 7.82212 13.9883 7.73619C13.6678 7.65236 13.4759 7.32464 13.5597 7.00406C13.6435 6.68349 13.9713 6.49165 14.2918 6.57544C14.8837 6.73015 15.4059 7.08083 15.7775 7.56949C16.1489 8.05793 16.3494 8.6571 16.3494 9.27222C16.3493 9.88728 16.1488 10.4863 15.7775 10.9747C15.4059 11.4633 14.8837 11.8143 14.2918 11.969C13.9712 12.0528 13.6435 11.8607 13.5597 11.5401C13.4759 11.2195 13.6678 10.8918 13.9883 10.808C14.3171 10.722 14.611 10.5261 14.8221 10.2484C15.0334 9.97053 15.1493 9.62715 15.1494 9.27222Z" fill="white"/>
</svg>
