<svg width="64" height="64" viewBox="0 0 64 64" fill="none" xmlns="http://www.w3.org/2000/svg">
<circle cx="32" cy="32" r="32" fill="#CF2B2B"/>
<path d="M31.9999 16.0278C32.4391 16.0278 32.8413 16.275 33.0391 16.667L37.6835 25.8733L48.0823 27.3602C48.5236 27.4233 48.8902 27.7329 49.0261 28.1574C49.1619 28.582 49.0431 29.047 48.7204 29.3545L41.2124 36.5079L42.9835 46.6079C43.0597 47.0431 42.883 47.4841 42.5272 47.746C42.1715 48.0079 41.6979 48.0457 41.305 47.8437L31.9999 43.0568L22.6954 47.8437C22.3026 48.0458 21.829 48.0078 21.4732 47.746C21.1174 47.4841 20.9407 47.0431 21.017 46.6079L22.7869 36.5079L15.2795 29.3545C14.9568 29.047 14.838 28.5819 14.9738 28.1574C15.1096 27.7328 15.4763 27.4233 15.9175 27.3602L26.3158 25.8733L30.9613 16.667L31.0005 16.5954C31.2093 16.2452 31.5882 16.0279 31.9999 16.0278ZM28.1204 27.4636C27.9491 27.8031 27.6224 28.0376 27.246 28.0915L18.6215 29.3244L24.8437 35.2528C25.1254 35.5213 25.2546 35.9132 25.1874 36.2966L23.7136 44.7017L31.4675 40.7131C31.8016 40.5412 32.1983 40.5413 32.5323 40.7131L40.2863 44.7023L38.813 36.2966C38.7458 35.9132 38.8744 35.5213 39.1562 35.2528L45.3783 29.3244L36.7539 28.0915C36.3775 28.0376 36.0508 27.8031 35.8795 27.4636L31.9999 19.7744L28.1204 27.4636Z" fill="white"/>
</svg>
