<?xml version="1.0" standalone="no"?>
<!DOCTYPE svg PUBLIC "-//W3C//DTD SVG 20010904//EN"
 "http://www.w3.org/TR/2001/REC-SVG-20010904/DTD/svg10.dtd">
<svg version="1.0" xmlns="http://www.w3.org/2000/svg"
 width="260.000000pt" height="260.000000pt" viewBox="0 0 260.000000 260.000000"
 preserveAspectRatio="xMidYMid meet">
<metadata>
Created by potrace 1.11, written by Peter Selinger 2001-2013
</metadata>
<g transform="translate(0.000000,260.000000) scale(0.100000,-0.100000)"
fill="#000000" stroke="none">
<path d="M0 1300 l0 -1300 1300 0 1300 0 0 1300 0 1300 -1300 0 -1300 0 0
-1300z m1805 651 c81 -17 225 -71 225 -85 0 -10 -81 -201 -88 -208 -4 -4 -47
6 -95 23 -94 32 -216 42 -269 21 -44 -18 -68 -51 -68 -95 0 -51 25 -74 171
-156 187 -106 271 -164 335 -233 72 -77 94 -131 94 -230 l0 -68 24 15 c62 41
145 37 194 -8 82 -75 66 -212 -28 -259 -97 -49 -230 18 -230 115 l0 30 -53
-51 c-103 -96 -217 -135 -397 -135 -119 1 -198 16 -321 62 -98 37 -96 30 -47
159 32 89 45 112 57 108 9 -3 57 -20 106 -37 202 -72 385 -37 385 73 0 47 -26
69 -199 173 -197 118 -248 154 -304 214 -129 138 -135 315 -15 446 113 124
307 171 523 126z m-942 -26 c199 -42 303 -149 315 -321 4 -62 1 -79 -20 -125
-14 -30 -41 -72 -60 -94 l-35 -40 58 -56 c86 -83 114 -148 114 -264 0 -76 -5
-99 -27 -147 -33 -72 -94 -130 -174 -169 -110 -52 -166 -59 -506 -59 l-308 0
0 645 0 645 288 0 c212 0 305 -4 355 -15z"/>
<path d="M520 1571 l0 -131 103 0 c117 0 164 11 206 46 40 33 49 81 25 131
-31 62 -69 77 -211 81 l-123 4 0 -131z"/>
<path d="M520 1040 l0 -152 148 4 c161 3 192 13 236 71 28 38 28 117 0 154
-47 63 -62 68 -230 71 l-154 3 0 -151z"/>
</g>
</svg>
